/* XPM */
static char *sprite_8_16_resized[] = {
/* columns rows colors chars-per-pixel */
"64 64 233 2 ",
"   c #000001",
".  c #070807",
"X  c #06010A",
"o  c #09000E",
"O  c #0C0C0D",
"+  c #0C0212",
"@  c #0D0514",
"#  c #130D17",
"$  c #13011D",
"%  c #131314",
"&  c #171718",
"*  c #171818",
"=  c #1D1D1E",
"-  c #31110D",
";  c #1E201E",
":  c #150022",
">  c #190224",
",  c #170028",
"<  c #1C022B",
"1  c #1F1F20",
"2  c #21042F",
"3  c #201F21",
"4  c #260833",
"5  c #250039",
"6  c #2B003E",
"7  c #2D0D3C",
"8  c #2A1533",
"9  c #31123E",
"0  c #232323",
"q  c #29242C",
"w  c #2D2432",
"e  c #382632",
"r  c #353735",
"t  c #3D3D3E",
"y  c #4E160F",
"u  c #6D150A",
"i  c #532118",
"p  c #7B2418",
"a  c #4B3331",
"s  c #753126",
"d  c #3F403F",
"f  c #2D0042",
"g  c #340549",
"h  c #351942",
"j  c #3A0056",
"k  c #3F1152",
"l  c #3C2546",
"z  c #3D3342",
"x  c #3F3E40",
"c  c #400E56",
"v  c #440B5C",
"b  c #461959",
"n  c #412A4C",
"m  c #413C44",
"M  c #4B245C",
"N  c #4B0569",
"B  c #500A6E",
"V  c #52186B",
"C  c #540A75",
"Z  c #571672",
"A  c #741C68",
"S  c #651876",
"D  c #512765",
"F  c #57276C",
"G  c #553663",
"H  c #632A7B",
"J  c #632B7B",
"K  c #693779",
"L  c #424242",
"P  c #4C4B4E",
"I  c #4D4253",
"U  c #524E54",
"Y  c #545554",
"T  c #5A565C",
"R  c #585858",
"E  c #6E514D",
"W  c #5F5D60",
"Q  c #654275",
"!  c #695D70",
"~  c #636463",
"^  c #686767",
"/  c #6C6C6D",
"(  c #716D67",
")  c #6C6C70",
"_  c #726E73",
"`  c #74637C",
"'  c #717271",
"]  c #7A7B79",
"[  c #8C190A",
"{  c #A42819",
"}  c #823528",
"|  c #90392E",
" . c #AE342A",
".. c #964B3F",
"X. c #A84539",
"o. c #BB483B",
"O. c #811E55",
"+. c #983052",
"@. c #A13755",
"#. c #872E6D",
"$. c #9A5547",
"%. c #AE4C4E",
"&. c #B24748",
"*. c #BB695E",
"=. c #A9506D",
"-. c #88726A",
";. c #BC6A64",
":. c #BD7468",
">. c #B47070",
",. c #C66358",
"<. c #C36C6C",
"1. c #C7736B",
"2. c #C97A75",
"3. c #BD8376",
"4. c #CB847C",
"5. c #D4857C",
"6. c #621983",
"7. c #6A2486",
"8. c #6E2B89",
"9. c #6F328A",
"0. c #763287",
"q. c #6F4281",
"w. c #79528B",
"e. c #7F4696",
"r. c #7F4F94",
"t. c #7E6F8B",
"y. c #88438A",
"u. c #854895",
"i. c #814799",
"p. c #824A99",
"a. c #87579B",
"s. c #8A5E9D",
"d. c #82668E",
"f. c #85758C",
"g. c #876596",
"h. c #94699D",
"j. c #B07299",
"k. c #8E55A5",
"l. c #8D5BA1",
"z. c #8B62A0",
"x. c #9568A7",
"c. c #9A6CAB",
"v. c #9873AA",
"b. c #9B6BB1",
"n. c #9E73B2",
"m. c #A673AC",
"M. c #A275B3",
"N. c #A477B8",
"B. c #C77C88",
"V. c #858684",
"C. c #8B8B8B",
"Z. c #8F918E",
"A. c #90928F",
"S. c #8E8392",
"D. c #928996",
"F. c #939393",
"G. c #9A959C",
"H. c #AC9791",
"J. c #A5A29C",
"K. c #9B8AA8",
"L. c #9D9DA7",
"P. c #AE84AC",
"I. c #A399A7",
"U. c #A987B8",
"Y. c #B48DBA",
"T. c #AC98B4",
"R. c #B397BC",
"E. c #A3A2A2",
"W. c #A8A4A9",
"Q. c #ABABAB",
"!. c #B4ABAE",
"~. c #AEB2AC",
"^. c #B0B2AF",
"/. c #B4ABB9",
"(. c #B4B3B5",
"). c #BDBDBD",
"_. c #D88C82",
"`. c #CA8891",
"'. c #D39897",
"]. c #E2998C",
"[. c #D7A39A",
"{. c #E8AA9E",
"}. c #CA97A9",
"|. c #C99CB6",
" X c #D8A6A4",
".X c #DCABAD",
"XX c #D3ABB3",
"oX c #E7B2A9",
"OX c #E2B2AE",
"+X c #EDC3B9",
"@X c #AB83C1",
"#X c #B28CC4",
"$X c #B998C6",
"%X c #B899C7",
"&X c #BE9CD1",
"*X c #BBA7C5",
"=X c #BEA4C9",
"-X c #BEA9CC",
";X c #C09BCA",
":X c #C5A7C9",
">X c #C7BACB",
",X c #C7BECB",
"<X c #D6B4C7",
"1X c #C3A5D2",
"2X c #C9AED6",
"3X c #CCB3D7",
"4X c #D3BADD",
"5X c #D6BBE0",
"6X c #C2C2C1",
"7X c #CCC3CF",
"8X c #D9C6C7",
"9X c #D1D5CF",
"0X c #CDC4D1",
"qX c #D4C2DC",
"wX c #DAC5D9",
"eX c #DCDCDC",
"rX c #E8C8C7",
"tX c #E2C9D3",
"yX c #E0E1DF",
"uX c #F7E1D9",
"iX c #E6DCE9",
"pX c #E7DCEA",
"aX c #EBDDF3",
"sX c #E3E3E2",
"dX c #EBE3ED",
"fX c #E8E8E8",
"gX c #F5E7E7",
"hX c #F7F5EE",
"jX c #EAE5F0",
"kX c #F2E9F5",
"lX c #FAF8F3",
"zX c #FAF5FC",
"xX c #FDFCFD",
/* pixels */
"                                                                                                                                ",
"                                                                                                                                ",
"                                                                                                                                ",
"                                                                                                                                ",
"                                                                                                                                ",
"                                                                                                                                ",
"                                                    . O * = = & O .                                 . O * 1 = = O .             ",
"                                                    O 0 t Y Y t 0 O                                 . 0 L Y Y L q O             ",
"                                                    * d / C.C.( L &                                 % t / Z.F.' L *             ",
"                                                    ; R F.).).A.Y 3                                 ; Y F.).).F.Y 0             ",
"                    . % * ; = * O .                 0 ^ Q.eXeXQ.~ 0         . O * = = & . . . . O 0 t / E.6X).F.Y =             ",
"                    O 0 L Y Y L 0 .                 0 ^ ^.fXfX~.~ 1         O 0 d U P t = . . * r Y / V.G.J.F./ L *             ",
"                    & m ' Z.Z./ t O                 0 / ^.fXfX~.~ =         * d / C.C.~ r O % r ~ Z.J.F.V./ T t 0 O             ",
"                    3 T F.).).F.Y 0                 0 ~ Q.eXeXQ.~ 0         ; Y F.).).C.U 0 1 U C.).6XE.) m 3 % . .             ",
"                    3 T G.7X7XW._ t 0 ; ; 0 = O . X 3 T G.7X0XI.' x 1 .   . 0 ~ W.eXeX~.' L d / L.7X7XG.W 3                     ",
"                    3 m f.R.=XT.S.' ~ W ~ ~ Y r * . # m w.K.R.T.S._ Y r * O 0 W Q.sXhX9XE.] ' f.T.=XR.t.m %                     ",
"                    # l Q g.n.U.I.W.Q.Q.~.E.A.~ r O o 8 G w.x.K.T.E.Z.~ r * 0 T E.yXlXhX9X(.W.I.P.n.s.Q e @                     ",
"                    @ 4 b J u.v.$X0XeXsXfXeX).C.Y = @ 2 k H e.M.=X0X).C.P 3 0 R E.eXzXxXhXsX0X%Xx.e.H k 4 @                     ",
"                    + > 6 v J s.R.qXiXkXkXpX7XG.^ t w h M J p.N.1XqX,XD.U q w W L.eXxXxXzXjX0XY.a.H k f , X                     ",
"                    X + < 6 b 9.c.$X3X5X4X3X*XI.f.^ ! ! w.g.b.@X%X&XR.g.G h n ! W.eXzXkXaX4X$Xv.K k 5 : o                       ",
"                      + + > 9 M q.l.b.N.M.b.M.m.I.I.E./.*X-X&X%X@Xb.a.9.V v F d.*XiXkXiX2XN.z.K k 4 $ X                         ",
"                        X o > 9 M 7.8.8.8.8.e.v.R.0XeXfXfXsXqX=Xb.p.8.Z B B J x.-XiXdX4X@Xp.7.b 9 > X .                         ",
"                            o > f v B B C C 8.x.1XdXlXlXlXgXtX|.m.u.8.S C S K m.2XpXiX2Xn.9.B k h w 0 0 0 0 1 * O .             ",
"                              o , 5 f j j N 7.b.3XkXxXlXuX+X X}.P.c.l.y.#.#.=.j.<XdXjX2Xx.7.C D G T ~ ~ ^ ~ R d 0 O             ",
"                                X $ , 5 g N 7.b.2XkXlXuX+X5.5.'.}.;XR.j.=.@.=.B.rXdXdX2Xx.8.H 9.d.G.E.~.~.Q.F./ m *             ",
"                              X X + $ 5 j B 8.b.2XpXgX+X5.,.,.5..XtXtX}.<.&.&.2.OXuXiX1Xx.8.7.e.K.7XeXfXfXeX).C.U =             ",
"                    . O * = 0 0 0 0 w l D J i.n.&X5XtX.X5.,.,.5.oXrXrX'.;.X. .:.[.rX8X$Xk.8.8.k.#XqXsXkXfXeX).C.Y =             ",
"                    O 0 d Y ~ ~ ~ ~ ^ ` d.x.n.@X#X$X|.}.`.5.5.].{.oX[.3.$.} s $.:.'.}.j.y.7.7.e.M.&X2X7X-X!.F./ t *             ",
"                    * t / A.Q.~.~.Q.Q./.:X>X=X#XN.c.c.m.}.OXoX{.].5.1.$.s i i s ..,.;.=.#.S 6.8.i.x.b.h.f.^ R t 0 O             ",
"                    = Y C.).eXsXyXeXeXsXdXiXqX%Xc.e.e.c.:XtXrXoX5.,.X.p i - - i } X.&.@.#.S 6.6.7.8.7.D n w 1 % O .             ",
"                    = U C.).eXsXyXeXyXsXsXiXqX%Xx.p.i.v.$X7X8X[.1.o.{ u y - - i } @.&.@.#.S C C C B c g < o                     ",
"                    * m / F.Q.~.Q.Q.Q./.*X-X&XY.N.x.x.v.K.L.F.>.%. .{ [ y y i s $.;.>.=.#.S N N j g 5 , +                       ",
"                    O 0 L Y ~ ^ ^ ^ / ` d.h.b.N.#X%XR.G.t./ R E | { { { [ p } $.4.[.}.j.u.H N j f < : + X                       ",
"                    . O & ; 0 0 0 0 w l D 8.u.N.1XqX7XJ./ a e i p  .{ { { { X.*.'.rX8X;Xx.0.V j 5 : o X                         ",
"                                    @ 4 c H a.@X5XjXeXQ.^ r - y s X.o.o. . .o.1.{.rXtX2Xm.i.S b 7 > o                           ",
"                                    X 8 G w.N.2XaXzXuX!.-.i y s $.1.1.,.&.+.@.=.B. X.X|.|.m.s.K M 4 , + X                       ",
"                                    O z ` K.3XaXzXxXgXXX*.s s ..:.[. X`.=.#.O.@.%.<.2.'.XX:X$Xx.Q b 6 , +                       ",
"                                    3 U D.7XdXzXxXxXuX X;.X.X.*.[.rX4X:Xx.K A O.+.o.,._.OXwXqX%Xl.J v f , +                     ",
"                              . O 3 t ) L.0XfXjXfXyX9X[.2.*.,.5..XtX5X&Xb.i.0.#.@.&.,._.OXtXwX1XN.e.7.b 7 > o X                 ",
"                            . = t R ' f.T.*X-X*X/.E.H.H.4.5.5.'.|.:X&X%X@Xb.j.j.j.2.2._.}.:X1X;X#XN.z.q.M 7 > + X X             ",
"                            % r ^ Z.E.T.U.n.x.d.` W ( -.H..X.X|.Y.m.N.@X%X&X2X<XXX.X X}.P.m.N.#X1X1X$Xv.q.b f , + X             ",
"                            3 Y A.).7X=XM.e.J M h w t ( J.8XtX:Xm.y.i.x.$XqXdXgXhXuXtX;Xc.u.u.c.&XqX0X$Xl.H v 6 > +             ",
"                    . . % ; t _ E.0XqX$Xz.7.v 6 , $ w ^ ~.yXiX:Xz.J 7.r.U.qXdXzXxXxXiX*Xa.J J a.P.7X0X*Xn.e.H b 4 @             ",
"                    O 0 t Y _ D.T.:X$Xv.q.b f < : , h ` (.dXdX:Xd.D b K g.$X4XaXzXxXdX*Xt.M b G ` F.W.T.U.M.s.Q l #             ",
"                    * d / F.W.R.U.N.l.q.M 7 < , < f b g.>XjXjX(.t.l 7 k K g.@X4XjXzXfX/.` l 4 8 z T _ D.T.:XR.f.m =             ",
"                    = Y Z.).0X=XM.e.J b 7 > $ > 6 c J v.2XiXeXQ.~ q > 2 k J p.@X5XjXeXW.~ w @ X O 0 x _ W.0X,XG.W 0             ",
"                    ; Y Z.).>XR.g.H v 5 : + @ 4 c J e.M.=X7X).Z.Y 1 + : 5 v H l.%XqX7XG.T 1 X       1 R F.).).F.T 3             ",
"                    * L ' F.G.f.Q b 6 , o X % e Q g.n.U.T.I.C.^ r %   o , f b q.c.Y.T.t.m 1         O t / Z.A.' m &             ",
"                    O 0 L Y T I l 4 > +     & I f.R.=XT.S.) U r 1 .     + > 7 D Q a.a.Q l #         . 0 L Y Y L 0 %             ",
"                    . O * 0 3 1 # @ o       0 T G.>X0XW._ t 1 O . .     X o $ 9 V H H M 8 @         . O * = = * O .             ",
"                                            1 Y F.).).F.Y ;                 o < g c v g < o                                     ",
"                                            * L ' F.A./ t %                 X $ 2 6 6 2 $ X                                     ",
"                                            O q d Y Y d 0 .                   o $ > > $ +                                       ",
"                                            . O * = = * O .                   X X o o X X                                       ",
"                                                                                                                                ",
"                                                                                                                                ",
"                                                                                                                                ",
"                                                                                                                                ",
"                                                                                                                                ",
"                                                                                                                                ",
"                                                                                                                                ",
"                                                                                                                                ",
"                                                                                                                                ",
"                                                                                                                                "
};
