/* XPM */
static char *sprite_8_21_resized[] = {
/* columns rows colors chars-per-pixel */
"64 64 238 2 ",
"   c #000001",
".  c #05010A",
"X  c #0A010E",
"o  c #070808",
"O  c #0C0D0D",
"+  c #0C0212",
"@  c #0C001B",
"#  c #13021C",
"$  c #140C18",
"%  c #0F1010",
"&  c #151615",
"*  c #181719",
"=  c #1C1C1D",
"-  c #2D0D0D",
";  c #1E211E",
":  c #160122",
">  c #1A0225",
",  c #1A0822",
"<  c #1D022A",
"1  c #1F1F20",
"2  c #21042E",
"3  c #2D082C",
"4  c #261E29",
"5  c #240432",
"6  c #280937",
"7  c #2B033C",
"8  c #2A1235",
"9  c #32173E",
"0  c #1E2021",
"q  c #232424",
"w  c #2A242D",
"e  c #2E2632",
"r  c #362435",
"t  c #353635",
"y  c #3C3C3C",
"u  c #4D1611",
"i  c #6E170D",
"p  c #5E2425",
"a  c #783129",
"s  c #3E413D",
"d  c #2D0142",
"f  c #310544",
"g  c #34024A",
"h  c #36084B",
"j  c #371944",
"k  c #3B0752",
"l  c #3B2445",
"z  c #400857",
"x  c #430B5B",
"c  c #451758",
"v  c #493054",
"b  c #490665",
"n  c #4E0C6A",
"m  c #500B6E",
"M  c #501569",
"N  c #550C74",
"B  c #580C78",
"V  c #5C137B",
"C  c #601D7D",
"Z  c #532B64",
"A  c #632A7B",
"S  c #653A73",
"D  c #424242",
"F  c #4C4C4D",
"G  c #4F4C51",
"H  c #545454",
"J  c #585659",
"K  c #5C5D5C",
"L  c #5C4466",
"P  c #5F5961",
"I  c #67546F",
"U  c #636463",
"Y  c #686768",
"T  c #6C6C6C",
"R  c #6F716E",
"E  c #736778",
"W  c #767876",
"Q  c #87180B",
"!  c #9F2B1D",
"~  c #A52819",
"^  c #B12716",
"/  c #B32C1B",
"(  c #B53223",
")  c #B2392A",
"_  c #B73829",
"`  c #BA3C2D",
"'  c #A84438",
"]  c #BC4435",
"[  c #BE4A3C",
"{  c #C14A3C",
"}  c #A23F56",
"|  c #8E386D",
" . c #934F4B",
".. c #BB4C44",
"X. c #A64654",
"o. c #B9675D",
"O. c #B67270",
"+. c #C04F41",
"@. c #C45648",
"#. c #C75E51",
"$. c #C76559",
"%. c #C8665A",
"&. c #CB6D62",
"*. c #CD756A",
"=. c #CE766B",
"-. c #D2786C",
";. c #CB7774",
":. c #D27D72",
">. c #CE807B",
",. c #D4857A",
"<. c #5E1680",
"1. c #631983",
"2. c #692487",
"3. c #6D2B89",
"4. c #702E8C",
"5. c #793582",
"6. c #71308C",
"7. c #742E92",
"8. c #783695",
"9. c #794E8B",
"0. c #7F6C87",
"q. c #814699",
"w. c #844B9B",
"e. c #88579B",
"r. c #8D6893",
"t. c #8A6599",
"y. c #AD6C8B",
"u. c #8644A1",
"i. c #8D5AA2",
"p. c #915DA7",
"a. c #8F65A1",
"s. c #9463AA",
"d. c #9869AA",
"f. c #9B76AA",
"g. c #9967B1",
"h. c #9C6BB2",
"j. c #9F73B2",
"k. c #A372B0",
"l. c #A175B3",
"z. c #A37AB5",
"x. c #A77BB9",
"c. c #888489",
"v. c #8C8C8C",
"b. c #8F918E",
"n. c #908D91",
"m. c #939393",
"M. c #98949A",
"N. c #9A9B9A",
"B. c #9F999D",
"V. c #9EA19D",
"C. c #A0A39F",
"Z. c #A397A8",
"A. c #AC86BC",
"S. c #AD92B5",
"D. c #A3A3A3",
"F. c #A7A6A7",
"G. c #AAABAA",
"H. c #AFB0AE",
"J. c #B0B0AF",
"K. c #AEA4B1",
"L. c #B3A5B9",
"P. c #B3B6B3",
"I. c #BEBDBD",
"U. c #D58B82",
"Y. c #D88D82",
"T. c #D99288",
"R. c #CC9195",
"E. c #D99D95",
"W. c #E09A8F",
"Q. c #DCA39B",
"!. c #E1A59C",
"~. c #C698B1",
"^. c #D7AAB2",
"/. c #E3ACA4",
"(. c #E2AEA7",
"). c #E5B3AC",
"_. c #E8B6AD",
"`. c #E7BAB4",
"'. c #E7BBB5",
"]. c #C0C2BE",
"[. c #EAC0B7",
"{. c #EAC2BC",
"}. c #AE86C2",
"|. c #B795C5",
" X c #B99AC6",
".X c #BB9CC9",
"XX c #BBA5C4",
"oX c #BEA2CA",
"OX c #C09FC9",
"+X c #C3A5CA",
"@X c #D3AFC3",
"#X c #C6BFC9",
"$X c #C5A8D3",
"%X c #C7ADD2",
"&X c #C9ADD4",
"*X c #CBB3D5",
"=X c #CCB5DC",
"-X c #D2BBDB",
";X c #C3C4C3",
":X c #C9CACA",
">X c #D1C9CE",
",X c #D5C3DD",
"<X c #D8C6DF",
"1X c #D3D7D2",
"2X c #DDDDDC",
"3X c #ECCBC6",
"4X c #F2D3CC",
"5X c #E6CED3",
"6X c #F2D8D4",
"7X c #E0E0DF",
"8X c #F4E2DF",
"9X c #D8C6E0",
"0X c #DBCBE3",
"qX c #DFD5E4",
"wX c #E4DBE6",
"eX c #E6D4ED",
"rX c #E7DCEA",
"tX c #E8DEEB",
"yX c #DEE6E6",
"uX c #E2E3E2",
"iX c #E8EAE7",
"pX c #EBE2EE",
"aX c #EBECEB",
"sX c #F5E5E3",
"dX c #F7E9E6",
"fX c #FAEDEB",
"gX c #EEF0EC",
"hX c #F8F1EE",
"jX c #EDE5F1",
"kX c #EFE8F2",
"lX c #F1EBF3",
"zX c #F4EBF8",
"xX c #F4F3F4",
"cX c #FCF4F2",
"vX c #FEF9F5",
"bX c #F6F5F8",
"nX c #FAF5FB",
"mX c #FEFEFE",
/* pixels */
"mXmXuXF.K ;                                                                                                                     ",
"mXmX2XF.U q                                                                                                                     ",
"lXrX>XZ.E l 0 % o                   o % * = q * O o                                                                             ",
"&X$XXXZ.c.T H t = o                 O q D H H y q O                                                                             ",
"g.h.j.A.Z.Z.v.U t O                 * D R v.v.R s &                                                                             ",
"2.4.9.f. X:XI.b.H q                 = J m.I.I.b.J =                                                                             ",
"b n A e.|.,X:XF.R l ; % o           = J m.I.I.M.P w +                                         O & = = = $ + + + + + + + + + + + ",
"7 g c 5.a. XoXS.m.W H y ; O         * D R m.N.0.L 9 2 # X .                                 o q y H H v r 6 < < < < 2 2 2 5 2 5 ",
": < 6 Z S i.l.S.K.D.b.T s %         O q D J P L Z c f 5 # X                                 O t T b.m.0.S c g g g h k k k k k k ",
". + , 6 c 2.9.z.oX>XI.b.H ;         o O & ; w j c x x f < X             .                   q H m.XX#XS.e.A n b b n b b n n n n ",
"    + : d b A e.|.,X#XM.P w +               + < f x x d > X . o & ; q q q q = & o .   o O ; D W P.7XjX-XA.9.4.1.V B B N m n b n ",
"    . + > 7 x 9.j.|.|.f.I j < + .             # 5 f f 5 # . o = y H U Y U K H t * o o & t F W F.1XxXnXeX&Xx.p.8.3.<.N b z g g f ",
"      . + : 6 Z 9.e.s.w.A c f 2 # .           X # > > # .   % t U b.F.J.H.D.v.K t O O e K v.J.1XgXmXmXbXeX*X|.g.8.1.b k d 5 < : ",
"        . X , j c A 3.1.1.m x f > X           . X X X .     1 H v.].2XpXaX2X].c.F q 0 F c.I.7XgXbXvXmXnXnXpX,X|.p.3.N g 5 : + X ",
"            X > f x n N B N n k 6 # X .               o O 0 y T N.>XtXmXmXmX2XG.Y D D R F.yXvXvXcXdXdXhXvXvXjX=Xx.w.2.Z l e q q ",
"            . # < d k x N N N n k 7 2 # + .           = t G T r.Z.oX-XeXnXmXxX:XN.W W C.:XxXmXfX4X'.'.3XdXvXzX0X+Xx.t.0.I P K J ",
"              . + > 5 g x N B N n k f 5 $ X         O t U v.B.Z.f.j.A.$XeXnXmXiX:XP.P.:XiXmXcX4X/.Y.U.!.4XfXvXkX0X*XXXL.Z.D.C.C.",
"                . X : 7 k n B B B n x f < X         ; H b.I.>X Xf.q.w.j.*XpXvXvXgXuXuXaXbXnXsX`.,.%.%.U.`.dXnXmXbXjXpXwXwX7X2X2X",
"                    + 2 k n B B N n z f > X o   O ; D W P.7XuX%Xs.6.3.i.A.,XeXlXdXsXsXpXpXtX5X^.;.$.%.Y.'.dXmXmXmXmXmXmXmXmXvXmX",
"                    X 2 k n N N n x f 2 # . O = t H W F.1XxXzX&Xs.2.V 6.p.A.OX@X^.`.`.^.@X+X~.~.R.,.Y.!.3XfXmXmXmXmXmXmXmXmXmXmX",
"                    X 2 k n M n k 7 > # . . & t U v.G.1XgXmXlX%Xs.2.B <.7.w.d.y.y.>.;.y.y.s.d.y.~.Q.[.4X8XvXmXmXmXmXmXmXmXmXmXmX",
"                    + 2 k n n x 6 : X       = H v.I.uXxXmXnXtX$Xs.4.V <.1.2.| | X.....X.| A q.k.~.<XsXxXvXmXmXmXmXmXmXmXmXmXmXmX",
"                    X 2 f x x f 2 X         q K D.2XnXmXnXpX9X Xh.9.3.2.2.4.5.| } ....} | 5.9.h..X9XpXxXvXnXmXmXmXmXmXmXmXmXmXmX",
"                    . # 6 f f 5 # .         q U G.uXmXzXqX*X XA.x.h.s.s.p.p.p.y.y.;.;.y.y.p.g.j.}..X=X9XpXxXmXmXmXmXmXmXmXmXmXmX",
"                    . + # > > # X           q U F.7XxXeX+Xl.d.j.}. X+X$XoXoX+X~.^.^.(.^.+X+X|.A.j.h.j. X<XlXmXmXmXmXmXmXmXmXmXmX",
"                      . X X + X             q U F.2XpX-Xx.w.q.d.|.9XtXjXpXtXpXpXsXsX8XsXsXwX<X Xd.w.w.l.%XpXmXmXmXmXmXmXmXmXmXmX",
"                              . X + X . . + e Y G.2XpX*Xx.w.w.j.%XpXmXmXmXmXmXmXmXmXmXmXmXmXpX%Xj.w.w.l.%XpXmXmXmXmXmXzXlXpXtXrX",
"                              X # > 2 > > 2 l E K.wXkX9X Xl.l.|.<XzXmXmXmXmXmXmXmXmXmXmXmXmXnX0X XA.z.|.,XlXmXmXmXmXxXrX,X%XoX X",
"                            . # 2 f g g g g Z 9.L.wXxXjX<X%X%X,XwXnXmXmXmXmXmXmXmXmXmXmXmXmXmXjX9X*X*X<XtXbXmXmXmXmXkX,X|.j.p.e.",
"                            X > f x b b b n A a.+XtXnXmXzXpXpXlXnXmXmXmXmXmXmXmXmXmXmXmXmXmXnXbXkXpXpXkXxXnXmXmXmXmXpX%Xl.w.4.2.",
"                            + 2 h n V 1.1.3.q.x.*XpXmXmXmXmXmXmXmXmXnXxXiX7XuXiXgXnXnXnXlXpXtXrXwXwXpXkXxXmXmXmXmXmXpX*Xz.w.6.2.",
"                            + 2 k m 1.7.u.p.x.OX<XlXmXmXmXmXmXmXmXmXxX2XI.G.G.I.2XxXxXpX9X%XoX.XoX%X*X9XtXnXmXmXmXmXzX9X|.l.p.e.",
"                            + 2 g N 2.u.h.|.*X0XpXbXmXmXmXmXmXmXmXmXgX;Xb.T T b.].iXaX0X.Xl.p.i.i.s.z. X<XlXmXmXmXmXnXpX9X%XoX X",
"                            + < g n 3.p.|.,XjXbXnXmXmXmXmXmXmXmXmXmX7XF.T D D R G.yXpX-Xx.w.6.2.2.3.w.z.*XpXmXmXmXmXnXxXkXjXtXrX",
"                            X : 7 x A a.+XrXmXmXmXmXmXxXiXuX2X7XuX2X#Xm.U y D W H.yXjX-XA.w.7.1.2.6.w.z.*XpXmXvXcXdXsXfXvXnXmXmX",
"                              + : 7 c r.XXtXmXmXmXmXxX2X;XG.N.M.N.N.b.W U K T N.;XaXzX0XOXl.p.e.e.p.l..X<XkXcXdX4X'.{.4XdXmXmXmX",
"                                . : j E K.uXmXmXmXmXxX;Xm.T J F F J K T W m.G.:XyXxXnXkX9X%XoX.X|.oX%X9XpXxXfX3X/.Y.T.).6XvXmXmX",
"                                . + e P F.7XmXmXmXmXuXG.W D q * * q y U N.;XwXgXvXvXnXbXlXjXtXwXrXtXjXzXmXnXsX'.,.$.$.U.'.8XmXmX",
"                    o o & = q = = q D W H.uXvXmXxX7X;XM.Y y q & * q D W J.7XvXmXcXdXsXfXcXnXmXmXmXmXmXmXmXmXsX(.=...[ &.E.3X8XfX",
"                    O q y G K K J K R N.;XiXxXuX;XG.M.W T K H F F H T M.:XgXvXfX4X{.{.4XdXmXmXmXmXmXmXmXmXmX8X/.*.[ ` @.:.E./.).",
"                    & t Y v.D.D.C.C.G.:XuXxXiX].m.T U Y W n.N.N.N.N.G.;XyXbXcX4X/.T.T./.4XvXmXmXmXmXmXmXmXmXsX(.*.[ _ ] @.%.=.:.",
"                    = H v.].2XuXyX2XuXgXvXnXyXG.R D y U m.;X2XuX7X2XuXaXvXnXsX'.,.%.%.,._.sXmXmXmXmXmXmXmXnXsX(.:.[ _ ( ` ] [ ..",
"                  + w P D.2XmXmXmXmXmXmXmXmX7XF.T D D T G.7XmXmXmXmXmXmXmXmX8X(.=.{ +.&.E.3XsXdXdXsXsXcXmXnXsX).:.[ _ ( ] { +.+.",
"              . + > l E L.aXmXmXmXmXmXmXmXmXiX].b.W R M.;XlXmXmXmXmXmXmXmXmX8X/.*.[ ` @.:.!.).`.).).{.6XhXvXdX`.=.[ _ ] @.&.-.,.",
"            . + > d Z t.XXkXmXmXmXmXmXmXmXmXxX2X].J.J.;XyXnXmXmXmXmXmXmXmXmX8X).=.[ _ ] @.-.:.:.:.:.T.).6XcXdX_.;.{ ` @.,.Q._.[.",
"            X > 7 x A s.+XtXmXmXmXmXmXmXmXmXnXgXiX2X7XiXgXvXmXmXmXmXmXmXmXmX8X).:.[ _ ( _ { [ [ [ { %.T.{.sXsX).:.....&.W.{.8XfX",
"            + 6 c 2.q.l.oX9XpXxXnXmXmXmXmXmXvXxXiX7X7XiXxXvXmXmXmXmXmXmXmXmXsX).:.[ ( / ~ ~ ! ~ ~ ( [ =.!.3X3X/.,.$.$.>.^.5XuXkX",
"            & l L i.l.}.|.oX*X9XpXxXmXmXmXmXbXuX:XP.P.;X2XxXmXmXmXmXmXmXmXmX8X).=.[ ~ Q Q i i Q Q ~ _ @.:.E./.Q.T.,.U.R.~.+X&X=X",
"            = F r.S.$X.Xx.h.x. X,XkXmXmXmXmXgX:XN.W W m.].iXmXmXmXmXmXmXmXmX8X_.,.[ ! Q u u u i Q ~ / { +.%.,.T.!.).^.~.S.l.h.g.",
"            4 J M.#X9XoXh.u.w.l.%XpXmXmXmXmX7XF.T D D R G.7XmXmXmXmXmXmXmXmX8X_.,...! i u - - u i ! ( _ { { $.,._.3X5X+Xk.q.4.2.",
"            ; H b.I.:XS.e.3.6.s.oXpXvXvXbX7X].v.G w e P Z.7XmXmXmXmXmXmXmXmXdX[.,.%.' Q u - - u a ' { { { +.%.,._.3X3XK.e.A n b ",
"            * s T b.M.t.5.C 3.p.%XpXbXiX1XG.v.I v 8 l I Z.2XmXmXmXmXmXmXmXmXfX4X_.,.o. .a u r a  .*.:.,.:.:.,.W.!.).~.y.S c d 5 ",
"            O q s H J S Z V 3.g.&XjXaX1XD.R H v 9 h Z 9.L.wXmXmXmXmXmXmXmXmXcXdX4X[.Q.O. .! a  .;.Q.'.[.[.).).!.T.>.O. .p 3 # @ ",
"            o O & 1 4 j k N 6.h.&XrX7XP.W D w 2 f x A a.+XwXmXmXmXmXmXmXmXmXmXnXvX8X3XE.o.' ' o.R.5X8XfXgX8X3X/.,.o.' a u 3 @ . ",
"                    + < g n 3.s.|.,X#XM.J ; + : d n 4.g.+XpXmXmXmXmXmXmXmXmXmXmXmXmX8X(.-.+.{ %.Q.3X8XfXdX8X3X!.&.{ ! a p w 0 0 ",
"                    . : d b 1.q.h.A.A.E y O . @ d n 7.h.&XjXmXmXmXmXmXmXmXmXmXmXmXmXgX).:.+.{ #.,.Q.[.{.{.[.Q.,.@._ ! ' a J K K ",
"                    . > g b B 7.u.w.9.Z w .   @ d m 7.h.&XjXmXmXmXmXmXmXmXmXmXmXmXmXfX`.,.{ ` { $.=.,.,.,.,.*.#.{ ( )  .O.b.C.C.",
"                    + < h n <.1.3.3.A c 8 $ + > g n 3.d.$XtXmXmXmXmXmXmXmXmXmXmXmXmXsX).:.+.( ( ` [ ..{ ..[ ] ] ( ( [ *.R.:X7X7X",
"    o O * = = & O o + 8 c A 3.7.7.6.2.Z l e 4 9 h x 2.e.A.<XeXnXmXmXnXcXfXsXsXsXsX8X3XQ.*.[ / / / ( ( ( ( ( ( _ ] { %.T.{.dXvXmX",
"    % q y J J s ; O $ r L e.h.h.d.s.t.0.E Y P v v j c S t.S.=X0XjXxXcXsX3X'.).).).(.E.:.#.] ( / / ^ / ^ ^ / ( ] @.=.T._.6XcXmXmX",
"    * y T v.v.Y y * * v E S.$X&X&X+XoXXXL.D.m.T v 9 9 c S 9.x.$X0XkXfX4X(.Y.:.=.-.-.*.$.{ _ ( / / / / ^ ^ / ` #.,.Q.{.6XfXvXmXmX",
"    = J v.I.I.v.F ; ; F n.#XrXjXjXtXtXpXiX2X#Xv.H w , 5 k A 9.}.-XaXdX{.T.%.[ [ ] [ [ ] ` ( ( ( ( / ( / ^ ( [ *.Q.3XsXcXnXmXmXmX",
"    q U D.2X2XD.K q q J N.2XmXmXmXmXmXmXmXmX2XV.K q + : d n 4.h.&XpX8X`.,.[ ( / ^ ( ( ( ( ( ( / / ( ( / / ( { :.).8XmXmXmXmXmXmX",
"  o q U H.iXuXH.U q q J C.uXmXmXmXmXmXmXmXmXiXF.K ; . @ 5 b 2.g.$XrX8X_.-.] ^ ^ ^ ^ ^ ^ / ( ( ( ( ( ( ^ / ( [ >.'.fXmXmXmXmXmXmX"
};
