/* XPM */
static char *sprite_8_18_resized[] = {
/* columns rows colors chars-per-pixel */
"64 64 253 2 ",
"   c #010002",
".  c #06010A",
"X  c #0A010E",
"o  c #080B08",
"O  c #0C0D0C",
"+  c #160503",
"@  c #0C0212",
"#  c #0C0811",
"$  c #0E0018",
"%  c #130B17",
"&  c #13021D",
"*  c #0F1010",
"=  c #141514",
"-  c #171818",
";  c #1D1D1E",
":  c #2C0D0C",
">  c #3A0C06",
",  c #1E221D",
"<  c #160022",
"1  c #1A0325",
"2  c #1B0923",
"3  c #1D022A",
"4  c #1F1F20",
"5  c #21032E",
"6  c #240C2E",
"7  c #231F25",
"8  c #240433",
"9  c #25013A",
"0  c #2B013E",
"q  c #2B0C39",
"w  c #2C1337",
"e  c #34193D",
"r  c #202220",
"t  c #232323",
"y  c #2A212E",
"u  c #35282E",
"i  c #2D2331",
"p  c #343833",
"a  c #3C3D3C",
"s  c #470D08",
"d  c #52120E",
"f  c #69170D",
"g  c #6C1911",
"h  c #731C15",
"j  c #51221B",
"k  c #6D241A",
"l  c #72142D",
"z  c #5B3832",
"x  c #713129",
"c  c #3E413D",
"v  c #5F443D",
"b  c #2D0142",
"n  c #2F0841",
"m  c #310544",
"M  c #34024A",
"N  c #37094A",
"B  c #381A45",
"V  c #3B164D",
"C  c #3A0354",
"Z  c #3D0952",
"A  c #3C0059",
"S  c #3C2546",
"D  c #3F3C40",
"F  c #41055B",
"G  c #430A5B",
"H  c #451758",
"J  c #491C5C",
"K  c #771952",
"L  c #4A3A4D",
"P  c #4A265A",
"I  c #6B2D56",
"U  c #440161",
"Y  c #4B0569",
"T  c #4E0C69",
"R  c #50076F",
"E  c #500C6D",
"W  c #521866",
"Q  c #550B75",
"!  c #591476",
"~  c #5D137C",
"^  c #6D1768",
"/  c #651878",
"(  c #532766",
")  c #573069",
"_  c #782A6D",
"`  c #612779",
"'  c #632A7B",
"]  c #663B79",
"[  c #464547",
"{  c #524851",
"}  c #535453",
"|  c #5B585A",
" . c #684C55",
".. c #5F615E",
"X. c #64625F",
"o. c #5D4E64",
"O. c #695A6E",
"+. c #664476",
"@. c #636463",
"#. c #686669",
"$. c #6C6C6C",
"%. c #716D6F",
"&. c #746A78",
"*. c #767776",
"=. c #88271B",
"-. c #9C2B1D",
";. c #A32D1D",
":. c #8E2D2E",
">. c #9E2C33",
",. c #874034",
"<. c #AF4639",
"1. c #962D4E",
"2. c #9B324C",
"3. c #84235A",
"4. c #973054",
"5. c #8B3069",
"6. c #954E4F",
"7. c #B34648",
"8. c #AC4F55",
"9. c #AB4F6A",
"0. c #A2556B",
"q. c #8C706E",
"w. c #B7706D",
"e. c #C95242",
"r. c #C76559",
"t. c #C46C69",
"y. c #C7736D",
"u. c #C87876",
"i. c #BB837A",
"p. c #CA8479",
"a. c #D2837C",
"s. c #E3897A",
"d. c #601480",
"f. c #641B83",
"g. c #692486",
"h. c #6E2B89",
"j. c #712E8C",
"k. c #6F3488",
"l. c #73308A",
"z. c #773793",
"x. c #734886",
"c. c #7F4696",
"v. c #7D6787",
"b. c #7C7583",
"n. c #863E85",
"m. c #8F4D90",
"M. c #814698",
"N. c #834B9B",
"B. c #87589A",
"V. c #88708C",
"C. c #886597",
"Z. c #AF7091",
"A. c #8647A0",
"S. c #8D5CA2",
"D. c #8C58A4",
"F. c #915DA6",
"G. c #9564AB",
"H. c #976DAA",
"J. c #9869A9",
"K. c #9974AA",
"L. c #9C6BB2",
"P. c #A470AD",
"I. c #A275B4",
"U. c #A67BB8",
"Y. c #CC7F87",
"T. c #898788",
"R. c #8C8D8B",
"E. c #8E8B8F",
"W. c #92928F",
"Q. c #958B99",
"!. c #929292",
"~. c #99969A",
"^. c #A69491",
"/. c #A0A49F",
"(. c #9A8BA4",
"). c #9D97A3",
"_. c #A499A9",
"`. c #A98AB7",
"'. c #AA82BC",
"]. c #B786B0",
"[. c #AC97B5",
"{. c #B495BC",
"}. c #A7A6A7",
"|. c #AAABAA",
" X c #AFB2AE",
".X c #AEA9B1",
"XX c #B4ABB9",
"oX c #B3B4B2",
"OX c #BDBCBC",
"+X c #D78A81",
"@X c #DC9385",
"#X c #CD8F93",
"$X c #D69A98",
"%X c #D6A09A",
"&X c #CD9AAA",
"*X c #CA9CB3",
"=X c #DBA9A9",
"-X c #CAB8B5",
";X c #E2A8A3",
":X c #EAB5A8",
">X c #E7BAB4",
",X c #ECC1B8",
"<X c #F2C6BA",
"1X c #AC85C0",
"2X c #B38DC4",
"3X c #B594C3",
"4X c #B99AC7",
"5X c #BDA7C7",
"6X c #BFBDC0",
"7X c #C5A5CA",
"8X c #C3ABCD",
"9X c #C7BECB",
"0X c #D5B4CA",
"qX c #C6A8D2",
"wX c #C5ABD3",
"eX c #C9AED4",
"rX c #CEB3D9",
"tX c #CDB7D8",
"yX c #D1B3DD",
"uX c #D2BDDB",
"iX c #C9C5CB",
"pX c #D1CDC8",
"aX c #CDC4D0",
"sX c #D4C2DB",
"dX c #DBC5D8",
"fX c #D6D8D4",
"gX c #DCDBDB",
"hX c #ECD2CD",
"jX c #E2C8D3",
"kX c #F7DBD2",
"lX c #E0E1DF",
"zX c #F8E1D7",
"xX c #DECEE6",
"cX c #DFDAE2",
"vX c #E2DAE5",
"bX c #E4D5EC",
"nX c #E6DCEB",
"mX c #E8DDEC",
"MX c #EADCF3",
"NX c #DFE7E4",
"BX c #E6E7E5",
"VX c #EBE2EE",
"CX c #F6E5E3",
"ZX c #F8ECE9",
"AX c #EBF1EC",
"SX c #F9F4ED",
"DX c #ECE3F1",
"FX c #F2EBF5",
"GX c #F6EFFA",
"HX c #F6F4F7",
"JX c #FEFAF4",
"KX c #F9F6FC",
"LX c #FDFCFC",
/* pixels */
"                            @ 8 Z Q T C < . . < M R E Z 8 @                         . 5 Z E E Z 8 @           1 M Y T N 8 @     ",
"                            @ 5 Z T T N 3 $ @ 3 N T T Z 3 @                         @ 8 Z T T Z 8 @         $ 6 Z T T Z 5 @     ",
"      * - ; , - O           X 3 b Z T V e w y e V T G m 3 X o O = ; ; - *       . X & 8 N G G m 3 @   o = , i B J E T N 5 @     ",
"    O t a } } c t O           $ 3 b V P { | | o.P V b 5 $   . 4 p } } p t O . X & 5 8 0 N N m 3 $   o , p } o.o.' ! E N 5 @     ",
"    - a $.R.R.$.c =             X < w L &.Q.!.b.o.e 1 $     * p @.T.T.#.a = X $ 5 m N N n 8 1 $     # p #.R.Q.K.c.g.E M 3 @     ",
"    4 } R.OXOXW.| ;               # i | ~.OX6X~.| y X       r | W.OXOXW.| ; X < 0 G G N 8 & X       4 } W.OXiX3XG.g.T m 3 @     ",
"    t | Q.iX9X).o.i % # % 4 t 4 ; r c $.).6XOXR.} ; o   o ; c *.OXlXlX}.X.t @ & 0 F G m 3 X o   O ; a %.}.iXsX4XB.' G 0 < X     ",
"    ; L V.{.3XK.+.S w i L | @.......#.*.W./.W.$.a = o = u } *.}.fXAXBX X@.t . $ 5 m m 8 $     = p } $.E.[.5X3XK.x.P m 3 & .     ",
"    = S +.C.F.c.) H J ) V.~.}.|.|./.~.R.*.$.} p , o * p ..T. XfXSXLXBX X@.t o . $ 3 1 $     O p @.T._.[.`.I.B.x.P B 3 $ X .     ",
"    # w J ` g./ ! Q ` B._.9XgXBXBXgXiX~.@.c 4 O     ; } T.OXBXKXLXLXgX/.| t       X X .     4 | W.OXiX5XI.M.' H q & @           ",
"    X 1 q G E R R ~ g.D.3XsXVXKXLXLXgX}.#.i @     X i O.}.gXLXLXLXVXiXQ.| i X         o o ; c *.oXlXnXrXL.j.T M 5 @             ",
"    . & 5 0 C F Y Q g.A.I.4XuXDXLXLXVXoX&.e < X $ 3 B &.XXVXKXKXbXwX`.C.) B 1 $       = p } *.}.fXHXFXyXL.h.Y b 1 X             ",
"      X $ < 8 M U Q f.j.A.F.1XyXMXKXDX5Xv.P b 9 9 M ( C.5XBXGXbXqXI.B.k.( H n < X   O p ..T. XfXAXLXFXrXL.h.Y b 1 X             ",
"        . X & 9 C Y d./ f.h.A.U.uXVXmX8XH.g.R U A T h.C.8XnXVXuX'.N.h.f.! Q G 0 & @ , [ R.OXBXHXLXLXVXqXG.j.T M 3 X             ",
"            X 3 m G E R R Q j.G.4XjXjX7XK.c.j.f.g.h.N.`.uXBXVXuX'.N.h.f.~ ~ E Z w 7 L *. XNXLXLXJXVXsX3XD.h.T M 3 @     . X @ @ ",
"              @ 5 m C F Y Y / m.Z.#X=X&X].I.G.G.G.L.'.5XxXFXFXxX7XI.D.z.g.d.! W ) | *./.pXAXLXKXbXrX3XL.M.g.T M 3 @ . X & 3 5 8 ",
"                $ 1 9 N A T / 5.9.w.u.#X&X7XqXqXqXeXyXxXDXKXHXDXbXrX4XG.z.f./ k.C.Q. XpXVXLXKXbXqXU.F.z.h.f.R N 3 $ X % 8 m Z Z ",
"              . . X & 9 A T / 3.1.7.r.a.;XjXmXMXVXmXDXFXKXLXLXLXHXmXuX2XD.h.h.N.`.iXNXSXLXJXVXrXU.N.j.f.d.~ T M 1 @ @ 1 n F T Q ",
"      O - , ; = O o $ 3 N T ! ^ 4.7.t.@X>XCXJXJXZXCXCXZXJXLXLXHXAXgXiX[.G.c.N.I.8XVXLXLXJXCXdX{.F.g.~ R Q T Z n 1 X @ 1 n G T T ",
"    = t [ | } c r o . < b Y / 5.9.9.a.:XkXJXLXSXkXhX<XkXCXJXHXBXiXoX}.(.K.K.1XqXbXKXLXSXzX,X&XZ.n./ Y U A N m 3 % X . & 8 m Z Z ",
"    - c $.!.!.$.c = o & b Y / n.Z.&X>XkXJXLXJXkX:X@X@X:XkXSXAXpX/.*.$.b.(.7XuXbXGXLXLXzX:X@Xy.9.5.Q Y A b 9 1 $ . . . X & 5 6 8 ",
"    4 } W.OXOXW.} r # < b T h.F.{.jXCXJXLXLXCX>Xa.r.r.@X,XCXgX|.$.[ c @.~.pXmXKXLXLXCX,X+Xr.7.4.^ ^ E A 9 & X .       . X X @ @ ",
"    4 } R.OXOX!.| w 2 8 Z ' c.1XrXVXLXLXJXCXhX$Xt.7.7.t.=XhXpX^. .u u { T.-XgXlXZXCXhX$Xt.7.>.1.5.5.g.J n 2 X .                 ",
"    * a #.R.E.&.L w q V ] B.U.wXbXKXLXSXkX>X$Xy.8.2.2.9.Y.$X$Xw.,.j j v %.W.|.-X-X=X$Xu.7.1.1.5.m.m.B.+.P w & X                 ",
"      ; p } { L V V H ] C.`.tXbXKXLXJXkX:X+Xt.8.3.3.3.4.9.y.t.7.,.=.k z v | X.q.w.w.w.8.4.3.3.m.P.{.`.H.+.H 0 < $               ",
"    o * = t y e V T ` B.{.sXDXKXLXLXZX>X+Xr.7.2.3.^ ^ 5.1.7.e.<.<.-.=.k j t j z ,.<.<.2.3.^ _ G.{.dXsX3XS.' G 0 1 X             ",
"t t t t , t i H ( ' M.U.tXVXLXHXAXlXjX%Xp.r.7.2.3.^ ^ K :.:.-.;.;.-.=.f s : : j =.<.7.4.5.l.m.U.uXVXDXuX'.N.' P S i t t t t t t ",
"@.@.@.....| @.O.v.J.1XeXnXHXJXBXiX|.^.^.u.u.t.8.9.3.K l l h f f h h h f s > d x 6.w.u.Y.Z.L.U.wXbXJXKXmXeX'.H.C.&.O.#.@.@.@.@.#.",
"|.|.|.}././.}..X5X8XuXbXKXLXAXpXW.$.@.q.^.%X$XY.9.2.:.l d s s > > s d d d f x <.w.$X=X-X0XwXuXxXFXLXLXGXbXuXwX5XXX|.|.}.|.|.|.|.",
"gXgXgXgXgXgXgXgXvXnXDXGXLXLXvX|.$.[ c @.^.pXhX;Xu.7.>.g s : + + o + : s f =.<.y.$XhXzXCXBXVXVXFXHXLXLXKXFXDXnXvXvXgXgXgXgXgXgXgX",
"gXgXgXvXvXBXnXnXnXmXmXDXDXmXaX).@.D [ *. XNXBX>Xu.7.>.g d : & . o   + s f ;.<.p.>XCXLXKXFXDXmXmXnXMXmXmXmXmXBXvXlXgXgXgXgXgXgXgX",
"|.|..XXX8XeXrXrXrXeXeXeXeXqX{.Q.*.$.*.~.pXAXZXjX+X9.>.l d s : +     + > h ;.e.s.,XSXLXKXxXuXwX7X7X5X4X7X5X7X7X5XXX.X|.|.}.|.|.|.",
"..#.$.v.C.H.L.I.L.L.L.J.G.J.H.K.(.). XpXAXLXFXuXZ.5.3.l l g d > + o + > f ;.e.s.<XSXHXbXwX'.H.G.F.F.F.G.G.G.C.C.&.#.#.@.@.@.@.@.",
"r t i S ( h.j.j.j.j.j.h.g.k.c.H.[.iXlXHXLXKXBX5XP.l.K K :.-.=.f > + + > f ;.e.a.>XzXVXuX'.N.k.g.h.h.j.j.j.j.g.) L w t , t t t t ",
"    @ 1 q G Y T E E E Y R ! h.D.3XsXnXDXAXvXsX3XB.' W K 1.7.<.x j : : s f =.<.w.%XdXuX4XF.k.d.~ g.g.j.z.z.j.' P 6 #             ",
"      @ < 9 b b m m M C U R d.M.L.4XqXeXeX5X1XC.] W G I 0.w.t.8.x k d s d f x 6.Z.{.2XL.z.d.Q f.z.D.F.L.L.H.x.) w .             ",
"        @ & & < < 1 8 b A Y ~ h.M.D.G.L.G.F.c.] V q B  .q.%X%Xp.8.:.g d s > d L +.m.S.M.f.~ ~ z.J.3XqXrXrXqX`.&.D O             ",
"      . . X @ @ X @ & 9 C T ~ f.g.h.j.j.z.j.' V q 2 i | ~.pXhX;Xi.<.=.f s : : w J ` h.f.d.~ h.D.3XuXnXFXFXvX9X!.{ 4             ",
"      * = ; 7 ; % % & 9 C T ~ f.g.j.j.z.k.j.g.V 8 2 i #.|.cXzX,Xp.<.=.k j u y e G W ^ / / h.c.L.4XxXnXFXFXMXaX).&.a ; O o       ",
"    * t c } | [ e 6 5 0 A Y ~ h.z.A.F.G.H.H.c.] V q B v.oXBXBX=Xw.,.k k v  .o. .I K K _ m.S.L.1X3X5XeXrXrXeX5X[.T.&.| a t O     ",
"    = c $.W.~.V.o.H M C A R / z.L.`.5XwXeX5X2XC.) J ( C.XXVXBX-Xq.j j v %.W.^.q.0.1.1.4.Z.*X4X3X1XI.L.L.L.L.I.`.[.}.!.$.c -     ",
"    ; } R.OXiX[.B.` T Y Y Q h.S.3XsXmXZXFXmXuX`.N.' ' J.8XvXgX}...j t } R.9XpX$Xw.7.7.y.&XdXsXqXI.c.h.g.g.h.c.K.5XaXOXR.} ;     ",
"    ; } R.OXiX5XK.c.h.g.f.j.N.U.rXVXLXJXJXCXdX{.J.M.M.L.5XsXaX).#.c c $.).aXjX=Xu.r.r.@X<XCXvX5XG.' T U F T ` C.[.9XOXR.} 4     ",
"    = c #.!._._.`.L.J.G.G.L.'.wXbXLXLXSXkX,X:X&X].I.I.'.2X4X{.(.*.$.$.*.(.7X7X=X$X@X@X:XkXSXBX5Xv.P b 9 9 M H +.V.Q.!.$.c =     ",
"    O t p } $.T._.{.8XwXwXwXuXcXGXLXJXkX:X@Xa.#X&X7XqX4XI.H.J.K.(.).).(.(.L.P.].&X>X<XzXSXLXBX.XO.B < $ $ 3 6 S [ | | c t =     ",
"    o . = , a &._.sXmXDXDXMXDXFXLXKXCX>Xa.r.r.a.=XjXdX4XH.c.c.H.3XaXiX4XH.N.M.J.4XjXCXJXLXLXcX}.O.i X . . X @ % 4 4 ; = O       ",
"          # i O.|.gXLXLXGXVXMXVXVXmXjX=Xu.r.r.a.=XjXxX4XL.c.N.U.tXBXnXqXG.j.h.B.].uXMXKXLXLXBX|.*.c 7 * o o   . X @ X X .       ",
"      . . & B O..XVXLXKXmXuXwXwXwXqX*X&X#Xa.a.#X*XqX5X2XU.I.I.7XvXGXDXqXG.g.f.z.L.4XyXMXKXLXAXpX/.*.} p -       @ < < & @       ",
"    . @ < 9 J C.XXVXJXmXwX'.L.G.G.G.I.].&X=X=X*X].U.P.'.2X5XrXvXGXKXDXqXG.h.d.f.z.F.'.qXbXGXJXAXfX XR...p o   X 3 b b 8 & .     ",
"    X < 0 G ' H.8XBXVXuX'.N.j.g.g.h.M.P.7XjXdX*XK.N.M.J.4XdXMXKXLXLXmX7XG.j.~ Q d.h.A.U.tXVXKXLXAXlXOXR.} 4 @ < b C G m 1 @     ",
"    @ 6 V ` M.I.qXsXsX3XC.g.T U U T ' C.{.sXaX{.B.' ' N.`.sXMXJXLXLXmXqXJ.h.Q Y Y R ' B.[.sXmXFXFXMXiX/.#.D i w V G Z m 3 X     ",
"    * e ] B.I.2X4X7X2XJ.] H b b b b H x.K.3X3XH.] J H ] C.3XuXmXGXKXmXqXL.j.Q U A M J ] C.{.qXyXyXrX5X_.E.%.| L P N b 3 & .     ",
"    % L b.[.qX7X2XL.S.] P q 3 < & 1 q P x.B.B.x.P q q P ] B.'.eXbXFXmXeXL.j.Q A b 9 q P ] B.L.L.L.L.I.`.[.}.!.&.L w < $ .       ",
"    7 } !.9XsXqXU.M.` H q 2 @ . . @ 2 n J ' ' J w 2 2 8 H ' N.'.uXVXmXeXL.k.T M 3 < 2 q J ` h.h.j.j.c.K.5XiX9X!.| y @           ",
"- t a $._.9XuX4XF.' G 0 < @     . X 2 8 Z G G m 3 X X < 0 G ' J.8XnXnX8XH.' G 9 < X X 2 n G Y Y R T g.B.3XsXaX}.*.D t =   o     ",
"..#.&.E._.5X4XK.k.H b 1 $     X % 1 5 9 b M 0 5 $ . . X < 0 ( C.5XBXvX8XC.) b 1 X .   X 3 0 m M b M H x.K.3X5X[.E.%.} p , O     ",
"|.|..X_.`.I.B.x.P w 1 @     X & 6 m m m 0 5 < $ X       @ 3 B &.XXgXvXXXv.P & X       . $ < 3 1 3 3 q P x.S.I.`.[.}.W.@.c -     ",
"lXgXaX4XK.M.' H q 1 X       @ 1 n G G N 8 & X .           @ i #. XgXgX|.#.i X         . . X X X X @ 1 q H ' c.I.5XaXOXR.} ;     ",
"lXgXiX[.B.' G 0 3 X         X 3 N G G N 5 X                 t #.|.gXgX|.@.t .     X X X . .         X 1 0 G ` S.4XuX9X!.} 4     ",
" X}.Q.&.] V 0 3 $ .         . 2 8 N n 8 & .                 r @.|.gXgX|.X.t .   $ 2 5 & X             $ 3 0 H x.H.3X[.v.L ;     ",
"X.X.| L S 6 < $ X           . @ & 3 1 & @                   t @.|.fXgX}.X.t . $ 3 m m 8 & .           . @ < q P x.B.B.+.S %     ",
"t t 4 ; % @ X .               . X X @ . .                   t @.|.gXgX|...t X < 0 G G m 3 X             . X 2 B J ' ' J w %     ",
"                                                            t @. XgXgX|.@.t @ 3 M Y T N 6 @                 @ 8 Z E T N 5 @     ",
"                                                            t X.|.gXgX}.@.t @ 3 C E E G 8 @                 . 3 M F U M 3 @     "
};
