/* XPM */
static char *sprite_8_20_resized[] = {
/* columns rows colors chars-per-pixel */
"64 64 234 2 ",
"   c #000001",
".  c #050209",
"X  c #0A010F",
"o  c #0B0C0C",
"O  c #0D0313",
"+  c #0F0F10",
"@  c #0E001A",
"#  c #14091A",
"$  c #0F1010",
"%  c #141414",
"&  c #171718",
"*  c #19181C",
"=  c #1D1D1D",
"-  c #1E201E",
";  c #180124",
":  c #1D012B",
">  c #1F1E20",
",  c #25182B",
"<  c #270636",
"1  c #2A003E",
"2  c #2B1236",
"3  c #232324",
"4  c #2A252D",
"5  c #2D2532",
"6  c #36223F",
"7  c #343534",
"8  c #3D3D3D",
"9  c #403E3E",
"0  c #3F403F",
"q  c #310F41",
"w  c #350549",
"e  c #3B0455",
"r  c #3B2445",
"t  c #3F3D40",
"y  c #43095C",
"u  c #461B58",
"i  c #791C5F",
"p  c #433E46",
"a  c #4A2D57",
"s  c #4B0669",
"d  c #4F0C6C",
"f  c #560976",
"g  c #5C137A",
"h  c #731C68",
"j  c #631778",
"k  c #542A66",
"l  c #632B7B",
"z  c #7A2E7A",
"x  c #424243",
"c  c #4D4D4D",
"v  c #4F4952",
"b  c #55495B",
"n  c #545454",
"m  c #575759",
"M  c #5C5D5D",
"N  c #5F615F",
"B  c #60625F",
"V  c #574360",
"C  c #5E5860",
"Z  c #654E6F",
"A  c #5D6061",
"S  c #636463",
"D  c #68666A",
"F  c #6C6C6C",
"G  c #70716F",
"H  c #6F6B71",
"J  c #746C78",
"K  c #727372",
"L  c #79757B",
"P  c #7C7C7C",
"I  c #B32917",
"U  c #B62C17",
"Y  c #AC302F",
"T  c #B63323",
"R  c #B83A2A",
"E  c #B63C31",
"W  c #BD402E",
"Q  c #BC4436",
"!  c #BE4A3C",
"~  c #C14A38",
"^  c #952E50",
"/  c #A53B4B",
"(  c #862D65",
")  c #B34C50",
"_  c #9C4970",
"`  c #C04F41",
"'  c #C45749",
"]  c #C85F52",
"[  c #C76357",
"{  c #C86D66",
"}  c #CE7569",
"|  c #D2796C",
" . c #C57575",
".. c #D27E73",
"X. c #7F817E",
"o. c #CB857C",
"O. c #D4847A",
"+. c #D5867A",
"@. c #631882",
"#. c #692486",
"$. c #692586",
"%. c #6E2B8A",
"&. c #70278E",
"*. c #702E8C",
"=. c #7C3381",
"-. c #72368B",
";. c #71308D",
":. c #765584",
">. c #7F4697",
",. c #7E6D85",
"<. c #823B84",
"1. c #82469B",
"2. c #844B9B",
"3. c #88599A",
"4. c #985B96",
"5. c #847889",
"6. c #896D95",
"7. c #B26E8B",
"8. c #8C58A4",
"9. c #925DA8",
"0. c #9569A6",
"q. c #9564AA",
"w. c #9966AE",
"e. c #996BAC",
"r. c #9B77AA",
"t. c #9A66B0",
"y. c #9C6BB1",
"u. c #9F75B0",
"i. c #A175B3",
"p. c #A479B6",
"a. c #A574B9",
"s. c #A57BB9",
"d. c #C37A83",
"f. c #848484",
"g. c #868686",
"h. c #8B8C8B",
"j. c #8F918E",
"k. c #8F918F",
"l. c #95889A",
"z. c #939392",
"x. c #989699",
"c. c #9B9B9B",
"v. c #AF9895",
"b. c #9FA29E",
"n. c #A0A19F",
"m. c #9D8AA4",
"M. c #9F9AA1",
"N. c #A68CAD",
"B. c #A297A6",
"V. c #AC86BB",
"C. c #AD94B7",
"Z. c #B496B9",
"A. c #B39BBC",
"S. c #9DA7A8",
"D. c #A3A3A3",
"F. c #A7A7A7",
"G. c #ABABAA",
"H. c #AEB1AD",
"J. c #B2A7B6",
"K. c #B3B3B2",
"L. c #BDBDBD",
"P. c #D68D83",
"I. c #DA9389",
"U. c #D89C99",
"Y. c #DBA29B",
"T. c #E2A69D",
"R. c #C196B4",
"E. c #D8ABAF",
"W. c #E1ACA5",
"Q. c #E5AFA8",
"!. c #E6B4AB",
"~. c #E9BBB3",
"^. c #C0C1BF",
"/. c #EFC6BE",
"(. c #AE86C1",
"). c #B28CC2",
"_. c #B795C4",
"`. c #B99BC5",
"'. c #BB9CCA",
"]. c #BBA3C4",
"[. c #BEA3CA",
"{. c #BAA2D3",
"}. c #C2A5CD",
"|. c #C6A9CB",
" X c #C7BDCB",
".X c #C7A8D3",
"XX c #C6AAD2",
"oX c #C9AED4",
"OX c #CBB3D5",
"+X c #CCB4D9",
"@X c #D2B8DC",
"#X c #D6BCE0",
"$X c #BFC2C1",
"%X c #C2C2C1",
"&X c #C8CAC6",
"*X c #CCC2CF",
"=X c #D2CFCA",
"-X c #CDC4D0",
";X c #D6C4DD",
":X c #DAC6DB",
">X c #D7D8D6",
",X c #DCDCDB",
"<X c #EBCBC7",
"1X c #EDD1CF",
"2X c #E0DFDF",
"3X c #DEE1DE",
"4X c #E0E2DF",
"5X c #F4E1DE",
"6X c #D7C8E4",
"7X c #DCCBE4",
"8X c #DCD7E7",
"9X c #E2D6E6",
"0X c #E6D4ED",
"qX c #E6DCEA",
"wX c #E8DEEC",
"eX c #DDE2E2",
"rX c #E3E3E2",
"tX c #E6E8E5",
"yX c #E8E8E7",
"uX c #EBE2EE",
"iX c #EBECEA",
"pX c #F6E7E5",
"aX c #EEF1EC",
"sX c #F4F3EF",
"dX c #EDE4F2",
"fX c #EFE9F4",
"gX c #F1E7F4",
"hX c #F2EBF5",
"jX c #F4ECF8",
"kX c #F4F4F4",
"lX c #F7F5F6",
"zX c #FAFAF7",
"xX c #FAF4FB",
"cX c #FEFEFE",
/* pixels */
"                                                                                                                                ",
"                                                                                                          .                     ",
"                                    . o & = > & o .                                                 . o & - - & o .             ",
"                                    o 3 8 c c 8 3 o                                                 o 3 8 c c 8 3 o             ",
"                                    % 8 D g.h.D 0 &                                                 % 8 D g.h.F 0 %             ",
"                                    3 n z.L.L.z.n -                                                 3 n z.^.E.z.m >             ",
"                                    3 S G.,X,XF.S 3                                                 3 S G.,X,XG.S 3             ",
"                                  . 3 F K.yXyXK.D 3                                                 > S K.yXyXK.F 3             ",
"                                    3 F K.iXyXK.S 3                                                 3 S K.yXyXK.F 3             ",
"                                    3 S G.,X,XG.S 3                                               . 3 S G.,X,XG.S 3             ",
"    . o % = 3 3 3 3 > > % O X       - n z.L.%XD.F 8 - % . .                                   o % = t F D.%X^.z.m >             ",
"    o 3 7 n M S S M m p r 2 ; @ .   % 0 D h.x.k.P D c 8 - o                                 o 3 8 n F f.z.x.h.F 8 &             ",
"    % 7 S h.D.G.G.n.l.,.Z u 1 : @ . o - 7 n S P z.x.h.D 8 &                                 & 0 G z.c.x.f.D n 7 - o             ",
"    3 c g.%X,XyXtX,X XC.2.l y 1 ; X   . o - 0 G D.%XL.z.m -                                 - m z.L.%Xn.F 8 = o o .             ",
"  @ 5 C B.,XcXcXcXcXwX.Xq.%.d w < @ X     . 3 S G.,X,XF.S 3 . . % = = & o .               X , C x.L.L.z.M =                     ",
"@ : r J J.iXcXcXcXcXjX+Xt.&.f e w < ; X     = N G.4XrXH.S 3 $ = 7 c n 8 3 +             @ ; 2 V ,.z.z.G 7 %                     ",
"w w k :.].fXcXcXcXcXjXoXt.&.f s e e w ; .   = N G.4XrXG.S 3 % 7 S g.g.F x &           @ ; 1 w u V C n 0 3 o                     ",
"e s l 0.].uXcXcXcXcXwXXXw.*.g f f s e 1 @ X 3 S G.,X,XF.M 3 3 c j.L. Xz.n -         O ; w s u u r , > % o                       ",
"#.*.>.e.A.-X,XtXeX3X-X].e.>.%.@.g g s e : @ 5 D G.,X,XD.M 3 3 M D.>X,XG.S 3 .   o = 5 a k $.l u 2 #                             ",
"y.y.u.r.m.c.b.b.b.b.M.m.m.u.9.1.&.@.s e w 1 r J J.,X,Xb.n = 3 M G.yXyXG.S 3 o % 7 n H 5.6.r.3.Z 6 O                             ",
"@XoX].B.5.D M n n N D f.B.].'.a.1.@.f e w e u 6.].qX>Xb.n = = M G.tXrXG.S - % 4 S z.G. X XoXZ.,.p &                             ",
"gXwX-XB.G p 3 & & 3 t F F.-X@X_.9.&.f s s s $.0.oXrX,Xb.M 4 3 M F.,X,XF.C 3 = c f.L.,XuXhXqX*Xl.b >                             ",
"jX0X*Xx.C , O   . X 4 C z.E.*X].u.>.%.#.#.%.>.V.@XuX3XH.G 0 8 S x.^.%Xx.S 0 7 S z.%X,XrXyX,XL.h.n =                             ",
"+X}.C.6.k 2 ; @ @ ; 2 a H k.M.B.m.e.w.q.9.y.s.[.7XgXyX&Xc.K D G f.k.z.h.L F G P h.c.F.G.H.F.z.F 8 %                             ",
"y.q.3.-.k e w 1 1 w q r p b D 5.m.`.[..X.X.XOX7XdXlXkXrX&XG.x.f.F M S K h.c.D.z.P S M M S N n 0 3 o                             ",
";.*.$.l g d s s s s y w 2 5 p F M.-XwXdXdXuXuXhXlXxXzXlXaXrX%Xz.B 8 x S x.%X%Xc.F 8 4 - - 3 - % o .                             ",
";.%.;.;.*.%.%.@.@.f d u 2 5 0 K G.rXcXcXcXcXcXcXcXcXcXcXcXcX9XG.F x 0 S x.^.%XB.F x 3 % o .                                     ",
"0.q.w.w.w.w.9.1.&.@.f k a m K c.&XaXcXcXcXcXcXcXcXcXcXcXcXcXsX&Xz.G S F g.b.b.z.P S c 7 & .                                     ",
"}.}.XXXXoX|._.t.-.@.j -.,.l.H.&X4XzXcXcXcXcXcXcXcXcXcXcXcXcXzXrX&XG.z.X.K F F P j.c.h.S 7 %                                     ",
"qXqXwXuXdXwX;X).8.;.%.2.N. X2XaXzXzXcXcXcXcXcXcXcXcXcXcXcXcXcXzXiX4X%Xz.S 8 0 D x. XL.j.n =                                     ",
"qXqXuXkXzXzXwXoXa.2.1.q._.;XwXhXzXcXcXcXcXcXcXkXyX4X,X,X9XrXdXxXcXzX3Xc.n 3 3 c h.L.L.z.n 3           . X X O # = > - & o .     ",
"[.XXOX7XdXcXlX7X.XV.i.s.).{.+X7XuXlXcXcXcXcXlX3X%XG.B.B.C.].OX7XxXcXtXb.n = o 4 S k.z.K x &           X O : < r v m m x 3 o     ",
"9.0.p.'.7XhXcXhX0X@X.X).s.y.s.`.;XhXcXcXcXcXaX&Xz.F b Z Z 3.a..X0XxXtXF.m &   % 7 n n x 4 o         . @ ; 1 u Z 6.l.j.G 0 &     ",
"$.;.2.p.OXdXzXcXzXuX;X_.q.1.2.p.OXuXcXcXcXcX4XG.K x 5 6 k l 2.V.#XdX,XD.B 3 o . % = > & $ .         X ; w y l 3.C.*XL.h.n -     ",
"#.;.2.s.OXuXzXzXaX3X*XC.0.1.2.a.oXuXzXcXkX4X%Xx.S 9 5 r u %.1.a..X6X-XF.G 8 - o o                   O 2 u l >.i.[.*XL.h.n =     ",
"8.q.i.'.6XiXkX4X&XH.B.l.6.0.i.'.7XhXkX4X&XG.z.P F M C Z :.3.q.s.).'.A.N.5.F c 7 %                   # r Z 3.i.V.A.F.z.F 8 &     ",
"{.}.+X7XdXlXyX^.z.K S J r.C.XX7XhXcXiX%Xz.G N S P z.M.G.A.].`.).s.y.e.m.B.B.h.B 7 .                 = v 6.Z.}.A.l.J M 7 - o     ",
"qXwXuXjXcXzX2XG.G x p S x.-XyXzXcXzXrXG.F x 8 N k.^.,XuXiXqX6X_.w.>.>.e.`.-XE.k.n -                 > M x. X-XF.G 8 3 $ o       ",
"5X5XpXzXcXcXrXG.G x x F G.rXzXcXxXyX-Xx.S p x G G.,XcXcXcXcXwX`.9.%.;.q.{.qXeXK.P 0 3 = = 3 - $ . . - n k.L.L.z.n >             ",
"~.~./.1XpXzXiX^.j.F F z.%XiXzXhX7XoXC.r.J S K x.%XkXcXcXcXcXfX}.8.$.$.9.+XkXkX>XD.L M M N B n 7 & o % 7 F h.j.F 8 %             ",
"| +.I.~.1XzXzX3X$XG.G.%X3XkXhX7X'.i.0.6.m.M.H.&XrXlXcXcXcXcXgX}.8.$.$.9..XjXcXiX=XK.D.D.G.F.j.S 7 $ o & 7 n n x 3 .             ",
"~ ~ [ P.~.pXzXkXiXrXeXiXzXzXuXOXp.2.>.0.C. X,XiXlXzXcXcXcXcXwX'.9.*.*.9.[.qXzXzXaXrX,XeX9X,XL.h.c - . o % = - % o .             ",
"U T Q { U.<XuXkXxXzXcXcXcXcXdXoXi.2.2.q._.6XuXjXzXcXcXzXlXuX;X'.q.>.>.0.A.-X3XaXzXzXcXxXlXuX-XB.F 8 - o o .                     ",
"I I E ) 7.Z.XX7XdXcXcXcXcXcXjX6X'.p.e.p.).}.@X8XgXlXlXuX6XXX`.V.s.u.r.r.l.x.G.^.tXcXcXxXwX;X].N.5.F n 7 & .                     ",
"I I Y / ( 9.i.'.6XlXcXcXcXcXcXgX7X+X'.).s.i.V.}.7XhXfX:X`.u.e.p._.}.].m.L S G c.&XsXzX0XoX(.u.r.B.B.h.S 7 %                     ",
"U U Y ^ ( ( 2.s.OXdXcXcXcXcXzXzXjXwX:XZ.w.1.2.i.OXuXuXOXp.2.2.e.'.6X*Xc.D t x K H.eXuX@Xs.2.1.e.`.-XL.k.n =                     ",
"T T Y ^ ( =.2.V.+XdXcXzXsXpX5X5XpX5X@XZ.3.%.*.w.XXqXuXOXs.2.2.e._. X Xc.S 0 x F B.-X;X).8.%.*.w.oXwX,XG.S 3                     ",
"U T Y / _ 4.p.{.7XlXzXpX1X~.Q.!.~.~.E.7.<.j #.8.[.qXgX7X'.i.0.6.m.c.z.g.K S D ,.m.C.V.0.;.@.#.t.+XgXyXK.F 3                     ",
"I T E ) 7.R.+X8XfXxXlX1XW.+.| | O.|  ._ i j #.8.{.qXjXfX7XXXZ.r.L S S K g.c.B.m.r.0.8.;.@.f #.w.+XhXuXK.D 3                     ",
"U T ) } U.<XuXxXcXxXpX~.I.[ ` ~ ~ ` ) ^ i h %.q.[.uXcXcXcXuX-Xc.D 0 0 B c.^.-X].r.>.#.@.f g %.y.oXwX,XF.S 3                     ",
"I T ~ { U.<X5XsXaXpX<XW.O.[ ! W R T Y ^ ( z 1.s.+XuXcXcXcXcX3XG.F x 0 S z.$X-X].u.>.%.#.#.*.>.u.].*XE.k.n =                     ",
"I U W ] +.T.~.~.~.W.T.U.P.O.} ' W T T / _ 4.p.'.6XhXcXcXcXcXiX%Xz.F N F X.c.B.m.r.e.w.9.w.w.e.m.m.c.g.S 8 %                     ",
"I I R ~ ] } ....| } ..I.Y.W.Y.O.' W E ) 7.R.OX7XuXlXcXcXcXcXkX3X%XF.z.P F S D 5.m.`.XXoXoX}.A.m.,.S c 7 * o                     ",
"T I R R Q ~ ` ~ ! ) [ +.!.<X/.Y.{ ! ! { U.:XuXjXxXzXcXcXcXcXcXzXaXrX%Xz.B 8 x S c.-XqXjXfXuX-XB.F 0 - $ o .                     ",
") ~ ~ W R T T R W ! [ +.!.<X<XU. .) )  .W.5XcXcXcXcXcXcXcXcXcXcXcXcXeXG.G x t A k.^.2XkXcXzXeXK.P 0 - $ .                       ",
"+.+.| ] ~ T T E ' { O.U.T.W.Y.d.) ^ / 7.E.pXcXcXcXcXcXcXcXcXcXcXcXcXhX&Xx.K S F X.x.K.=XaXzXsX=XS.G c 7 - o                     ",
"/.~.T.O.] R R ) O.Y.W.T.I.+.{ ) ^ i ( 7.|.pXcXcXcXcXcXcXcXcXcXcXcXcXzXrX&XK.x.X.F S K c.&XsXcXaX=XH.h.N 7 %                     ",
"pX5X<XU.{ ~ ~ } Y./.<X!.+.[ ) ^ i h =.e.|.wXcXcXcXcXcXcXcXcXcXcXcXcXzXzXfXeX^.z.N 8 x G G.3XzXcXzX3XL.h.n =                     ",
"eX,X=XY.o.] [ O.W.<X<XQ.+.[ ) / ( =.2.s.oXuXcXcXcXcXzXkXyXrX3XyXkXzXzXlXaX,X%Xz.C 0 p S c.-XwXjXhXqX Xl.m >                     ",
"S.D.b.v.o.o.+.I.Y.Q.Q.T.I.o. .7.7.e.s.[.6XfXcXcXcXcXaX,XL.G.G. X,XkXkXrX=XK.c.f.H S D L m.C.[.oX+XXXC.6.p *                     ",
"m A G f.v.E.T.T.I.+.+.+.U.T.!.E.|.|.OX:XwXlXcXcXcXcXyXL.z.K K z.&XtXyX&Xc.L F K g.z.M.m.r.e.q.t.y.w.3.Z 6 &                     ",
"& 3 9 F v.=X<XQ.+.[ [ O.T.<XpXiXuXuXuXhXlXcXcXcXcXcXrXG.F x x G H.9XeXK.K x 0 B z.^.-X].e.>.*.@.&.*.l u 2 O                     ",
"  . 3 N D.,X5X~.O.` ) } W.pXcXcXcXcXcXcXcXcXcXcXcXcX,Xx.n 3 3 M D.,X,XD.N 3 3 M b.,XqXoXu.*.@.f f f s w : O                     ",
"    & m F.4XpX~.| ~ Q } Q.pXcXcXcXcXcXcXcXcXcXcXcXcX,Xz.c & & n b.>X>Xc.n & = n S.uXgX@Xy.$.f s f s s w : O                     "
};
