/* XPM */
static char *sprite_9_21_resized[] = {
/* columns rows colors chars-per-pixel */
"64 64 241 2 ",
"   c #000001",
".  c #050805",
"X  c #06010A",
"o  c #09010E",
"O  c #0B0C0C",
"+  c #0E100E",
"@  c #0C0112",
"#  c #0A0611",
"$  c #130A17",
"%  c #14021C",
"&  c #131414",
"*  c #181719",
"=  c #1C1C1D",
"-  c #240B16",
";  c #1D211D",
":  c #0A0021",
">  c #160022",
",  c #1A0325",
"<  c #1A0822",
"1  c #1D012A",
"2  c #1F1E20",
"3  c #21042E",
"4  c #240532",
"5  c #2A0A36",
"6  c #2B013D",
"7  c #2B1631",
"8  c #32183D",
"9  c #1D2223",
"0  c #232323",
"q  c #2A202E",
"w  c #292A29",
"e  c #312531",
"r  c #353735",
"t  c #3C3C3C",
"y  c #5B1922",
"u  c #7A2D2A",
"i  c #3D403D",
"p  c #240044",
"a  c #2D0241",
"s  c #310644",
"d  c #33014A",
"f  c #37084B",
"g  c #391648",
"h  c #3C0653",
"j  c #3F1551",
"k  c #3D2846",
"l  c #41075A",
"z  c #440B5C",
"x  c #461859",
"c  c #5A105E",
"v  c #781656",
"b  c #4A2659",
"n  c #4B3350",
"m  c #7D2F54",
"M  c #480467",
"N  c #4D0B69",
"B  c #54066C",
"V  c #510C6E",
"C  c #501569",
"Z  c #550776",
"A  c #5A0D7A",
"S  c #5C127B",
"D  c #5B1578",
"F  c #6F1968",
"G  c #641676",
"H  c #553066",
"J  c #602779",
"K  c #63297A",
"L  c #6E377A",
"P  c #3F4040",
"I  c #424242",
"U  c #4B4B4B",
"Y  c #4F4B51",
"T  c #54475A",
"R  c #545454",
"E  c #5A565C",
"W  c #5D5D5D",
"Q  c #6E5353",
"!  c #5E615E",
"~  c #5A4762",
"^  c #5E5861",
"/  c #69427A",
"(  c #5C6461",
")  c #636363",
"_  c #686669",
"`  c #6C6C6C",
"'  c #74647B",
"]  c #737373",
"[  c #7E7E7E",
"{  c #AC2219",
"}  c #B32917",
"|  c #8F1930",
" . c #9B2528",
".. c #A62B28",
"X. c #B63424",
"o. c #B93423",
"O. c #B13B2D",
"+. c #BB3D2C",
"@. c #934439",
"#. c #A64239",
"$. c #B94535",
"%. c #BD4434",
"&. c #BE4A3C",
"*. c #C14737",
"=. c #821C50",
"-. c #942C4B",
";. c #893773",
":. c #98495B",
">. c #B84A46",
",. c #A85057",
"<. c #974A71",
"1. c #B37173",
"2. c #C04F41",
"3. c #C45749",
"4. c #C85E51",
"5. c #C86558",
"6. c #C8665A",
"7. c #D26756",
"8. c #C66E6A",
"9. c #CD7469",
"0. c #D07669",
"q. c #CB7B78",
"w. c #D17D72",
"e. c #CF827D",
"r. c #D58478",
"t. c #D5897F",
"y. c #5F1380",
"u. c #641A83",
"i. c #6A2587",
"p. c #6E2B8A",
"a. c #702F8B",
"s. c #6E3289",
"d. c #753188",
"f. c #773792",
"g. c #784C8B",
"h. c #7D6F82",
"j. c #82459A",
"k. c #834B9B",
"l. c #88569B",
"z. c #8A5A9D",
"x. c #886B92",
"c. c #AE708F",
"v. c #8747A2",
"b. c #8C59A4",
"n. c #905DA6",
"m. c #9564AB",
"M. c #996AA9",
"N. c #986CAD",
"B. c #9F74B2",
"V. c #A16EAC",
"C. c #AB76A4",
"Z. c #A175B3",
"A. c #A57BB6",
"S. c #A67CB9",
"D. c #858585",
"F. c #8D8D8D",
"G. c #928B95",
"H. c #939393",
"J. c #99949A",
"K. c #9B9B9B",
"L. c #A984BB",
"P. c #B28BBA",
"I. c #AB96B4",
"U. c #B394BC",
"Y. c #A2A2A2",
"T. c #A5AAA8",
"R. c #ABABAA",
"E. c #B1AAB3",
"W. c #B2B2B2",
"Q. c #BEBDBD",
"!. c #D58B83",
"~. c #D68C82",
"^. c #D99287",
"/. c #CB9094",
"(. c #DC9C94",
"). c #DEA49C",
"_. c #E2A69B",
"`. c #C792A4",
"'. c #C49CBA",
"]. c #D8A6A8",
"[. c #D8ADB5",
"{. c #E1ACA4",
"}. c #E4B4AD",
"|. c #E6BAB4",
" X c #E8BDB6",
".X c #C0C1BF",
"XX c #EBC2BB",
"oX c #B18FC2",
"OX c #B796C4",
"+X c #BB9DCA",
"@X c #BAA9C1",
"#X c #BEA2CC",
"$X c #BEA5D1",
"%X c #C2A5CE",
"&X c #C6A8C9",
"*X c #CCBECB",
"=X c #C7ABD3",
"-X c #C6ACD1",
";X c #CBB3D5",
":X c #CEB8DB",
">X c #D3BCDA",
",X c #C3C3C2",
"<X c #CCC6CC",
"1X c #D4C4CC",
"2X c #D5C3DD",
"3X c #DCDCDB",
"4X c #ECCAC5",
"5X c #EECEC9",
"6X c #EED1CD",
"7X c #F3D4CA",
"8X c #E2C9D4",
"9X c #E8DAD7",
"0X c #F2D8D4",
"qX c #DFE1DD",
"wX c #E0E1DF",
"eX c #F5E2DF",
"rX c #D9C7E2",
"tX c #DACAE2",
"yX c #DDD1E9",
"uX c #E1CFE8",
"iX c #E6D6E7",
"pX c #E6DBEA",
"aX c #E9DEEC",
"sX c #E3E3E2",
"dX c #E8E8E7",
"fX c #EBE2EE",
"gX c #F6E5E3",
"hX c #F7E9E5",
"jX c #F8EDEA",
"kX c #EDF0EB",
"lX c #F9F1EE",
"zX c #ECE4F1",
"xX c #EDEBF9",
"cX c #F1EAF3",
"vX c #F2EBF7",
"bX c #F5F2F5",
"nX c #FBF4F2",
"mX c #FEF9F6",
"MX c #F7F2F8",
"NX c #F9F5FA",
"BX c #FFFEFE",
/* pixels */
"    * R K.3XBXBXBXBXBXBXBXBXBXBXBXBXBXBXBXBXBXBXBXBXBXBXBXBXBXBXBXBXBXBXBXBXBXBXBXBXgX}.w.&.X.} } } { | v B M p : o 9 ( T.sXBXBX",
"    0 E K.3XBXBXBXBXBXBXBXBXBXBXBXBXBXBXBXBXBXBXBXBXBXBXBXBXBXBXBXBXBXBXBXBXBXBXBXBXgX}.w.&.o.} } o...-.=.F B d > @ 0 ( Y.3XBXBX",
"* 0 P ] R.3XBXBXBXBXBXnXjXgXgXiXpXaXzXcXMXNXBXBXBXBXBXBXBXBXBXBXBXBXBXnXjXgXhXlXNXmXgX}.w.*.+.o.+.2.>.:.;.d.J x 5 - e Q J.1XpXvX",
"R E ] H.,XdXBXBXBXBXnXeX4X|.}.[.[.&X;XrXfXMXBXBXBXBXBXBXBXBXBXBXBXBXmXgX5X X X6XgXnXgX}.w.>.+.%.4.0.e.c.c.M.x.L n y y Q x.U.%X:X",
"H.Y.R.Q.3XbXBXBXBXBXjX7X_.~.q.1.c.V.C.+XrXvXBXBXBXBXBXBXBXBXBXBXBXBXnX4X].~.~.{.5XjXgX}.w.2.$.4.w.).|.1X;X&XU.c.:.u u m <.n.V.V.",
"3X3XsXdXkXNXBXBXBXBXhX X^.6.>.-.;.L k.A.;XfXBXBXBXBXBXBXBXBXBXBXBXBXhX|.t.6.6.^.XXgX0X|.w.2.&.6.(.4XeXvXvXiX8X(.1.#. .=.m L a.p.",
"mXBXBXBXBXBXBXBXBXBXhX X^.6.>.-.v G p.m.#XfXBXBXBXBXBXBXBXBXBXmXnXgX5X].w.5.6.^.XXgXgX}.w.>.&.6.(.4XeXjXjX0X7X_.6.$. .| v c B M ",
"BXBXBXBXBXBXBXBXBXBXjX7X{.!.8.<.F A i.b.$XfXBXBXBXBXBXBXBXBXnXeX4X|.).^.r.w.~.{.0XlXgX|.r.*.%.4.w.).}. X X X{.r.7.%...| y d d p ",
"BXBXBXBXBXBXBXBXBXBXnXhX7XXX).c.d.G i.b.#XzXBXBXBXBXBXBXBXBXjX4X).t.w.r.^.]. X0XjXmXhX|.w.2.+.*.>.9.r.t.r.r.0.7.3.%.{ y y - - @ ",
"BXBXBXBXBXBXBXBXBXBXBXmXnXeX1XP.l.a.d.n.+XpXBXBXBXBXBXBXBXBXhX|.~.6.5.w.).5XgXmXBXmXeX}.w.>.X.X.%.&.&.*.2.*.%.*.+.o.{ u - - @ X ",
"aXaXfXvXMXBXBXBXBXBXBXNXMXaX2XOXM.g.j.V.'.8XgXnXmXBXBXBXBXBXhX Xt.6.6.!.|.gXBXBXmXgX4X).9.*.X.o.%.&.&.&.%.X.} o.o.o.} u y e 0 9 ",
"#X%X;X2XfXNXBXBXBXBXNXcXuX:X%XoXA.V.V.C.`.].|.5XeXmXBXBXBXBXlX4X_.t.t.].0XnXBXnX0X X).w.3.*.+.*.4.9.6.4.%.X.} } } } #.@.Q Q ( ( ",
"n.M.A.+XtXbXBXBXBXBXMXtX#XS.B.S.oX+X&X`.!.q.e.{.7XlXBXBXBXBXmXgX4X X X6XjXBXmX0X|.^.8.3.%.+.*.5.r._._.r.4.O.} { } X.$.,.1.Y.T.T.",
"i.p.k.Z.-XfXBXBXBXBXzX=XZ.k.g.N.+X2X8X].q.5.6.!.|.hXBXBXBXBXmXnXjXgXgXnXNXmXhX X^.6.$.X.X.o.*.q._.XXXX).9.$.X.{ } X.$.9.)..XqXqX",
"Z S p.b.oX2XpXcXcXaX2XoXv.p.f.m.%XaXgXXX^.6.5.q.].8XpXzXfXaXfXxXbXmXBXmXnXgX4X).8.&.X.{ { ..>.q.].8X9X[.t.5.$.%.} X.&.9.(.XXeXhX",
"B A u.f.M.oX%X;X;X%XoXN.f.u.p.m.=XzXlX7X{.!.q.e.`.U.#X+X+X#X-XrXzXNXmXjX0X|.(.0.3.X.{ { | | -.<.C.U.'.'./.r.9.3.$.$.$.7.r._.XXXX",
"Z Z y.p.g.n.m.N.N.m.b.f.i.u.p.m.=XzXmXhX7XXX].`.C.M.n.l.b.b.B.+XtXbXnX0X}.~.6.2.+.o.{  .| =.v L j.z.M.P.'.]._.r.5.%.%.&.4.9.w.w.",
"Z Z S y.u.p.p.a.a.p.p.u.A A s.m.%XaXBXBXmXeX8X'.V.j.d.i.i.a.k.L.:XfXhXXX^.6.*.%.o.o...| =.F G G G s.j.C.&X8X4X_.0.*.X.X.+.&.2.2.",
"N N N V Z Z y.y.A A Z B M V i.z.#XfXBXBXBXBXfX;XA.j.p.i.i.a.k.S.:XfXhXXX^.6.2.%.*.2.>.:.;.d.p.p.p.a.k.L.:XfXeX|.r.*.+.X.%.*.2.2.",
"f h h z M Z Z Z Z Z Z M h h H x.E.zXBXBXBXBXbX2X+XB.n.l.l.b.Z.+XrXcXjX7X{.~.0.0.0.w.q.c.c.M.m.m.n.m.S.$XyXbXeX|.w.%.X.$.3.6.0.w.",
", 3 5 f M V Z y.y.Z Z l a 5 k ' E.fXBXBXBXBXNXzXrX-X#X+X+X#X-XrXfXbXnXgX6X|.{.{.{.}.[.[.&X&X&X%X$X-X;XyXxXNXgX}.0.&.+.3.w.(.{.}.",
"o @ > 4 f N Z y.A A M d 1 > e ) Y.3XBXBXBXBXNXMXcXfXpXpXpXpXfXcXMXBXmXnXjXgXgXeXeXeXgXgXfXpXpXpXpXpXfXbXNXBXeX}.0.2.&.8.(.4XeXjX",
"    @ , a z M Z V N z 6 > @ = U D..XqXbXNXmXBXBXBXBXBXBXBXBXBXBXBXBXBXBXBXBXBXBXBXBXNXBXBXBXBXbXzXfXfXxXNXNXhX|.t.6.6.~.|.gXBXBX",
"    . % 3 s f h h f a 1 @ X & r W D.T.,XqXbXBXBXBXBXBXBXBXBXBXBXBXBXBXBXBXBXBXBXBXBXBXBXBXBXmXfXrX;X;XtXzXMXkX6X{.!.^.{.6XnXBXBX",
"      o % , 3 4 3 3 , % o   O * w U ` H..XdXBXBXBXBXBXBXBXBXBXBXBXBXBXBXBXBXBXBXBXBXBXBXBXBXvX2X+XA.Z.+X2XcXnXhX6XXXXX5XgXmXBXBX",
"      X X o @ @ @ @ o X     X . & ; I ] W.sXBXBXBXBXBXBXBXBXBXBXBXBXBXBXBXBXBXBXBXBXBXBXBXBXfX;XZ.k.k.Z.;XfXmXmXlXgXhXjXnXBXBXBX",
"                            X . + 0 I ] W.sXNXNXdXsXsXdXbXmXBXBXBXBXBXbXdXsXsXdXbXmXBXBXBXBXfX-XB.k.k.Z.-XfXBXBXBXBXBXBXBXBXBXBX",
"                            O = r U ` K.,XdXbX3X,XR.R.Q.3XNXBXBXBXBXbXqX.XR.W..X3XNXBXBXBXBXcX>XU.B.Z.oX>XcXBXBXBXBXBXBXBXBXBXBX",
"                            & r W D.R.<XsXkXdXQ.F.` ` H..XkXBXBXBXBXcX,XH.] ] H.,XkXBXBXBXBXbXpX2X-X-X2XiXMXBXBXBXBXBXBXBXBXBXBX",
"                            = R F.Q.sXbXBXmXqXR.` I I ` R.sXBXBXBXBXqXT.` I I ` R.sXBXBXBXBXBXMXcXfXfXcXbXBXBXBXBXBXBXBXBXBXBXBX",
"                            0 W K.3XBXBXBXBXsXR.] I k ! H..X3XdXdX3X*XD.T q q R x.<XaXMXBXBXBXBXBXBXBXBXBXBXNXbXcXfXfXcXvXBXBXBX",
"                            0 ) R.sXBXBXBXBXdXQ.F.` ( ` [ F.K.Y.Y.K.D.) k 7 5 b h.P.;XuXcXNXBXBXBXBXBXBXBXBXbXpX2X-X;X2XaXBXBXBX",
"                            0 ) T.sXBXBXBXBXbX3X.XR.H.[ ` W R R R R Y n g a f C s.z.A.%XuXbXBXBXBXBXBXBXBXBXcX2XoXZ.Z.+XrXbXBXBX",
"                            0 W Y.3XBXBXBXBXmXbXkXqX,XH._ t 0 ; ; 0 q 8 g M C D D p.k.Z.;XfXBXBXBXBXBXBXBXBXfX-XZ.k.k.A.;XfXBXBX",
"                            0 W Y.3XBXBXBXBXBXBXBXBXsXW.] I 0 = = 0 e k H i.i.i.y.S p.b.U.2XaXbXNXBXBXBXBXBXfX-XZ.k.k.M.OX<X3XsX",
"                            0 ! Y.sXBXBXBXBXBXBXBXBXkX<XH.` R U U R ^ ' x.m.n.g.p.y.u.f.m.P.=XrXfXMXBXBXBXBXcX2XOXB.m.x.G.K.Y.Y.",
"                            0 ) R.qXBXBXBXBXBXBXBXBXNXqX,XR.K.H.J.J.Y.E.@X-XOXB.j.u.u.u.f.l.B.+X2XcXBXBXBXBXvXaXrX=XU.G.x._ W E ",
"                            0 W Y.3XBXBXBXBXBXBXBXBXmXbXdXsX3X3X3X3X3XsXfXpX2XoXz.p.A A S p.j.A.;XfXBXBXBXBXBXBXMXzX<XJ._ t 0 * ",
"                            ; R G.*XfXMXBXBXBXBXBXBXBXBXBXBXBXBXBXBXBXNXvXzX2XP.l.J V V D p.k.S.;XfXBXBXBXBXBXBXBXBX3XK.E 0     ",
"                            * n h.I.;XuXcXBXBXBXBXBXBXBXBXBXBXBXBXBXBXMXpX>X+Xx./ C x b s.l.A.#XuXbXBXBXBXBXBXBXBXBXqXK.R *     ",
"                            * g H b.S.=XuXMXBXBXBXBXBXBXBXBXBXBXBXBXBXiX;XL.n.L j g g n x.P.-XyXzXBXBXBXBXBXBXBXBXBXwXK.R *     ",
"                            # 3 x J g.S.;XzXBXBXBXBXBXBXBXBXBXBXBXBXzX;XS.g.i.j 5 < q ^ G.*XfXbXBXBXBXBXBXBXBXBXBXBX3XK.E 0     ",
"            . O = ; ; * O X X > 6 z J b.U.2XfXMXBXBXBXnXvXfXfXfXzXpX>XOXb.J z 4 % # 2 R F.<XiXvXzXpXaXaXaXaXzXvXBXBXwXR.] I 0 * ",
"            O w I R R i ; O   @ > 6 x L n.oX;XuXvXNXNXfXtX;X&X=X=X%XU.m.L x a > X . * n x.oX=X:X=X=X%X%X%X=X;XuXzXMXdX,XJ.] W R ",
"            * I ] H.F.` t +     X > 6 b L z.L.-XiXbXvXuX%XA.m.m.m.m.z./ b 5 > @ X   $ k ~ z.N.Z.Z.m.m.m.m.m.S.#XtXkXbXqX,XW.Y.K.",
"            0 R H.Q.Q.H.E 0       @ < 5 x K g.L.>XfXfX>XS.k.a.i.a.a.i.x g < o       @ 7 b K a.a.a.a.a.p.p.a.k.S.;XfXNXNXkXsX3X3X",
"            = R H..X.XY.` t ; O . . @ > a z i.b.OX2X>X+Xm.p.A Z B V l a , @         o 1 a z N N V N B M M N i.x.&XfXBXBXBXBXBXBX",
"            * I ` F.Y.K.D.` R t ; O   o > a x / M.oXOXZ.j.u.Z M h h a 1 @ X           @ 1 6 a d d d d d a d b l.E.fXBXBXBXBXBXBX",
"            O 0 t R ` D.K.Y.H.` i &     X > 5 b g.l.n.v.a.u.Z l d 4 > @ o               @ > > 1 1 1 > > > 1 k ' E.fXBXBXBXBXBXBX",
"            . . + 0 k ` Y..XQ.F.R ;       @ < 8 x J a.u.u.S M h 4 % @ X               X X @ @ @ @ @ @ X X @ q ^ Y.3XBXBXBXBXBXBX",
"                  @ q ^ J..XQ.H.^ q @       @ 1 s z V V V V z s 1 @         . O * = 9 2 $ $ @ X X           = R F.@XsXbXNXBXBXBX",
"              X @ > 8 T h.K.H.h.T g , @ X   X @ 1 6 d h f f s 4 % X         + w I R ^ Y k 5 > %             & r ) F.W.<XdXNXBXBX",
"              @ 1 a j b T ^ ^ T n j s 3 % X   X @ 1 1 1 3 3 , % o           * I ] H.J.x./ b s 1 @           . ; r R ] Y.<XbXBXBX",
"            o , s h z j 8 q w g j N z s , @     X o @ @ @ @ o X X           = R H.Q.<XU.x.K h a > @         X . O 0 I ] W.sXBXBX",
"    . O & 2 q g x N z a , @ @ 3 f N N h 4 @                                 ; R H.Q.,XU.g.K N g 8 q ; & O .         0 R F.Q.3XdX",
"    . 2 i R ^ ~ b j s 3 @   X 1 f V V l 4 @                               . * I ` H.J.x.L x g b H W R I w O         O r _ F.Y.R.",
"    O i ` H.H.x.~ g 1 @     o 1 h V V l 4 @                                 O w I E E n e 5 8 n h.H.H.] I *         . 2 t Y W ) ",
"  . ; R F.Q..XH.^ w o       @ 4 f N C h 4 @                                 . O * = ; * # $ e ^ J.Q.Q.H.R =         . O & 2 0 0 ",
"* 0 i ` K..XQ.F.R 9         @ 1 s z z f < @                                         . O & 9 t ` K.*XQ.F.R 0                     ",
"! ) ` [ H.K.F.` i &         X % 4 s 6 4 % o                                           * r R _ [ H.K.H.` i *                     ",
"R.Y.K.F.x.` R i = O         X o % , , % @ X                                         & t ) F.J.H.[ ` R t 0 O                     ",
"dX3X,XK.` i ; + O .           X o o o o X                                           = R H..X.XY.` i 9 + . .                     ",
"BXmX3XT.) 0                                                                         0 ) R.3X3XR._ 0 .                           ",
"BXBXsXR.W *                                                                         0 ` W.dXdXR.! *                             "
};
