/* XPM */
static char *s62aXzVgEGmXayw_png[] = {
/* columns rows colors chars-per-pixel */
"64 64 55 1 ",
"  c #000001",
". c black",
"X c #030304",
"o c #090909",
"O c #070708",
"+ c #020202",
"@ c #171718",
"# c #3F3F40",
"$ c #343435",
"% c #0E0E0F",
"& c #020203",
"* c #0B0B0C",
"= c #383839",
"- c #838384",
"; c gray43",
": c #272728",
"> c #09090A",
", c #151516",
"< c #464647",
"1 c gray44",
"2 c gray62",
"3 c gray57",
"4 c #646464",
"5 c #3B3B3C",
"6 c #0F0F10",
"7 c #010102",
"8 c #818181",
"9 c #A2A2A2",
"0 c #AAAAAA",
"q c gray66",
"w c #9D9D9D",
"e c #6C6C6C",
"r c #1C1C1D",
"t c #2A2A2B",
"y c #8D8D8D",
"u c #ACACAC",
"i c gray68",
"p c #767676",
"a c #1F1F20",
"s c #757576",
"d c gray51",
"f c #9F9F9F",
"g c #A0A0A0",
"h c #9B9B9B",
"j c #6D6D6D",
"k c #161617",
"l c #484849",
"z c gray35",
"x c #59595A",
"c c gray34",
"v c #3C3C3D",
"b c #0C0C0D",
"n c gray6",
"m c #0A0A0B",
"M c white",
/* pixels */
"                                                                ",
"                                                                ",
"                                                                ",
"                                                                ",
"                                                                ",
"                                                                ",
"                                                                ",
"                                                                ",
"                                                                ",
"                                                                ",
"                                                                ",
"                                                                ",
"                                                                ",
"                                                                ",
"                                                                ",
"                                                                ",
"                                                                ",
"                                                                ",
"                                                                ",
"                                                                ",
"                                                                ",
"                                                                ",
"                                ..                              ",
"                              ......                            ",
"                             . XoO+ .                           ",
"                            .. @#$% ..                          ",
"                           . &*=-;:>& .                         ",
"                           . ,<123456 .                         ",
"                           .7:890qwer .                         ",
"                           .7tyuiiqpa7.                         ",
"                           .7tyuiiqsa7.                         ",
"                           .7tyuiiqsa7.                         ",
"                           .7:dfgghjr .                         ",
"                           . klzzxcv6 .                         ",
"                           . Xb666nm& .                         ",
"                            ..........                          ",
"                             .......                            ",
"                                                                ",
"                                                                ",
"                                                                ",
"                                                                ",
"                                                                ",
"                                                                ",
"                                                                ",
"                                                                ",
"                                                                ",
"                                                                ",
"                                                                ",
"                                                                ",
"                                                                ",
"                                                                ",
"                                                                ",
"                                                                ",
"                                                                ",
"                                                                ",
"                                                                ",
"                                                                ",
"                                                                ",
"                                                                ",
"                                                                ",
"                                                                ",
"                                                                ",
"                                                                ",
"                                                                "
};
