/* XPM */
static char *sprite_7_20_resized[] = {
/* columns rows colors chars-per-pixel */
"64 64 210 2 ",
"   c #000101",
".  c #020709",
"X  c #090708",
"o  c #00090C",
"O  c #0C0B0C",
"+  c #100E0F",
"@  c #000E11",
"#  c #110F10",
"$  c #001216",
"%  c #0E1415",
"&  c #001518",
"*  c #01191D",
"=  c #141415",
"-  c #181718",
";  c #151C1E",
":  c #1A1A1A",
">  c #201E1F",
",  c #001E23",
"<  c #0B1F22",
"1  c #221F20",
"2  c #012026",
"3  c #0B2226",
"4  c #002329",
"5  c #0C262A",
"6  c #02292E",
"7  c #1A2122",
"8  c #002C33",
"9  c #0A2D32",
"0  c #172E32",
"q  c #063338",
"w  c #01343B",
"e  c #0C3439",
"r  c #00383F",
"t  c #153236",
"y  c #1A3134",
"u  c #242424",
"i  c #282626",
"p  c #242B2D",
"a  c #2A2B2C",
"s  c #2A2F30",
"d  c #273638",
"f  c #293739",
"g  c #343334",
"h  c #36393A",
"j  c #3B3C3D",
"k  c #423F3F",
"l  c #003740",
"z  c #003B42",
"x  c #003F48",
"c  c #3E3F40",
"v  c #403F40",
"b  c #014047",
"n  c #01434B",
"m  c #0C484F",
"M  c #1D4246",
"N  c #16454B",
"B  c #074A52",
"V  c #0D4B53",
"C  c #154E55",
"Z  c #1D4E54",
"A  c #155057",
"S  c #155259",
"D  c #1B545B",
"F  c #1E585F",
"G  c #24474C",
"H  c #3A4143",
"J  c #344E52",
"K  c #23545A",
"L  c #25585E",
"P  c #1F5A61",
"I  c #235C63",
"U  c #2B5B61",
"Y  c #375E63",
"T  c #34656B",
"R  c #3A646A",
"E  c #386C72",
"W  c #3D7177",
"Q  c #444343",
"!  c #464647",
"~  c #45494A",
"^  c #4B4C4C",
"/  c #534F4F",
"(  c #475052",
")  c #4B5354",
"_  c #4B595B",
"`  c #545455",
"'  c #585657",
"]  c #525B5D",
"[  c #5C5B5B",
"{  c #615F5F",
"}  c #575F60",
"|  c #5F5F60",
" . c #476367",
".. c #40666A",
"X. c #44696E",
"o. c #4D696D",
"O. c #5E6162",
"+. c #556568",
"@. c #5A6A6C",
"#. c #456C71",
"$. c #496C70",
"%. c #516E71",
"&. c #5E6E70",
"*. c #497075",
"=. c #4B7479",
"-. c #4D797E",
";. c #577679",
":. c #5D7578",
">. c #800000",   /* тёмный красный (maroon) */
",. c #8B0000",   /* тёмно-бордовый */
"<. c #A40000",   /* глубокий красный */
"1. c #B22222",   /* огненно-красный */
"2. c #C41E3A",   /* тёмно-алый */
"3. c #CC0000",   /* яркий красный */
"4. c #D1001C",   /* насыщенный кроваво-красный */
"5. c #D32F2F",   /* Material Red 700 */
"6. c #DC143C",   /* Crimson */
"7. c #E0115F",   /* Ruby */
"8. c #E32636",   /* ярко-алый */
"9. c #E53935",   /* Material Red 600 */
"0. c #E60026",   /* алая вспышка */
"q. c #EC1C24",   /* алый */
"w. c #F02828",   /* яркий алый */
"e. c #F44336",   /* Material Red 500 */
"r. c #F62817",   /* насыщенный красный */
"t. c #F54C4C",   /* кораллово-красный */
"y. c #FA2A55",   /* малиново-красный */
"u. c #F94D4D",   /* средне-красный */
"i. c #FF3030",   /* светло-красный */
"p. c #FF4040",   /* нежный красный */
"a. c #FF4444",   /* яркий красный ближе к розовому */
"s. c #FF5A5A",   /* розовато-красный */
"d. c #FF5252",   /* красный пастельный */
"f. c #FF5E5E",   /* мягкий алый */
"g. c #FF6060",   /* нежно-красный */
"h. c #FF6666",   /* лососево-красный */
"j. c #FF6F61",   /* светло-лососевый */
"k. c #FF7070",   /* алый светлый */
"l. c #FF7373",   /* пастельный розовато-красный */
"z. c #FF7E79",   /* розовый закат */
"x. c #FF8080",   /* светлый алый */
"c. c #FF8585",   /* ало-розовый */
"v. c #FF8787",   /* светло-красный с теплотой */
"b. c #FF8A80",   /* Material Red A100 */
"n. c #FF8F8F",   /* нежно-розовый */
"m. c #FF9292",   /* тёплый светло-красный */
"M. c #FF9696",   /* розовато-красный */
"N. c #FF9999",   /* насыщенный бледно-красный */
"B. c #FF9C9C",   /* ало-розовый */
"V. c #FFA0A0",   /* мягкий светлый красный */
"C. c #FFA3A3",   /* оттенок клубники */
"Z. c #FFA6A6",   /* светлая малина */
"A. c #FFA8A8",   /* розовый лепесток */
"S. c #FFAAAA",   /* почти пастельный красный */
"D. c #FFADAD",
"F. c #FFB0B0",
"G. c #FFB3B3",
"H. c #FFB6B6",
"J. c #FFB9B9",
"K. c #FFBCBC",
"L. c #FFBFBF",
"P. c #FFC2C2",
"I. c #FFC4C4",
"U. c #FFC7C7",
"Y. c #FFCACB",
"T. c #FFCDCD",
"R. c #FFD0D0",
"E. c #FFD3D3",
"W. c #FFD6D6",
"Q. c #FFD8D8",
"!. c #FFDBDB",
"~. c #FFDEDE",
"^. c #FFE1E1",
"/. c #FFE4E4",
"(. c #FFE6E6",
"). c #FFE9E9",
"_. c #FFECEC",
"`. c #FFEEEE",
"'. c #FFF1F1",
"]. c #FFF3F3",
"[. c #FFF5F5",
"{. c #FFF7F7",
"}. c #FFFAFA",
"|. c #FFFDFD",
" X c #FFF0F0", /* вставлен отдельно из эстетики */
".X c #FFDADA",
"XX c #FFCACA",
"oX c #FFBABA",
"OX c #FFAAAA",
"+X c #FF9999",
"@X c #FF8888",
"#X c #FF7777",
"$X c #FF6666",
"%X c #FF5555",
"&X c #FF4444",
"*X c #FF3333",
"=X c #FF2222",
"-X c #FF1111",
";X c #FF0A0A",
":X c #FF0505",
">X c #FF1A1A",
",X c #FF2A2A",
"<X c #FF3A3A",
"1X c #FF4A4A",
"2X c #FF5A5A",
"3X c #FF6A6A",
"4X c #FF7A7A",
"5X c #FF8A8A",
"6X c #FF9A9A",
"7X c #FFAAAA",
/* pixels */
"    - ' G.2X7X7X7X7X7X7X7X7X7X7X7X7X7X7X7X7X7X7X7X7X7X7X7X7X7X7X7X7X7X7X7X7X7X7X7X7X7X7X7X7X7X7X7X7X7X7X7X7X7X4X=X'.B.>.j =     ",
"    u [ D.-X7X7X7X7X7X7X7X7X7X7X7X7X7X7X7X7X7X7X7X7X7X7X7X7X7X7X7X7X7X7X7X7X7X7X7X7X7X7X7X7X7X7X7X7X7X7X7X7X6X2X=X].Z.1.j -     ",
"- u j >.Z.+X:X2X2X:X:X:X:X:X:X:X:X:X:X:X:X:X:X:X:X:X:X:X:X:X:X:X:X:X:X:X:X:X:X:X:X,X:X:X:X:X:X:X:X:X:X:X>X:X-X=X#X[.W.0.Q 7 o   ",
"' [ >.q.N.D.W.Q.W.W.W.W.W.W.W.W.W.W.W.W.G.D.D.G.D.G.D.D.G.D.D.P.D.W.P.F.P.D.W.W.W.W.W.W.W.W.W.W.W.W.W.W.W.W.W.'.+X+X^.k._ y * @ ",
"P.D.Z.N.q.1.>.[ >.[ { { >.{ { { [ >.{ [ [ [ ' [ [ ' ' ' ] [ ' [ [ [ [ [ [ [ [ [ [ >.>.O.{ { { { >.{ >.[ [ { 0.Z.'.%X+XK.o.M 6 , ",
"2X:X+XD.1.j i : : u u i u u u u u i u u u u u u i u u i u i i u u u i i u i u i u i u u i u u u u u u : : i Q 0.~.=X;XR.a.K z 8 ",
"7X7X:XW.>.i .     o o o o o o o o o O % ; 7 u u u u u i i u u u 7 : : : - - - % O       . o o o o o o .   o a <.!.:X<X}.v.I n l ",
"7X7X2XW.[ :       o @ $ $ @ @ @ @ @ * 0 h ^ ` ' ' ' ' ] [ ' ' ^ ! H j j j j g : O       . o $ $ $ @ @ o o $ y &.!.<X<X.Xv.I n l ",
"7X7X,X!.{ :     @ , 4 4 4 4 4 2 2 4 e J &.M.A.W.W.D.D.W.W.G.D.B.e.q.1.2.0.1.[ Q : X     $ , 4 6 4 4 2 , , 4 M :.(.<X<X Xz.I n l ",
"7X7X:XW.{ u o o , 8 r x z l r w w l Z ;.K.oX:X2X,X:X:X:X:X:X&XoX~.D.Z.Z.Z.Z.e.[ g = o @ 2 8 r z l r r w w l L g._.<X<X).j.I n l ",
"7X7X:XW.{ i o $ 4 l n n n n n z l n I f./.<X7X7X7X6X6X4X4X<X=XoX^.G.Z.Z.A.Z.m.,.! a ; < 6 q l l n n n x l n I z.|.<X<X).z.I n l ",
"7X7X:XW.[ u o @ 4 z n n n n n x l n P j. X3X7X7X7X4X<X;X*X.XE.L.M.w.0.0.0.0.2.>.' ~ H f 0 8 8 w r n n n n n I z. X<X<X).j.I n l ",
"7X7X:XW.{ u o $ 4 z n n n n n n l n F f. X3X7X7X5X-X$X(.K.b.a.%._ ^ Q k k Q ^ ' ,.1.>.) f 3 * 4 8 b n n x n I z. X<X<X).j.I n l ",
"7X7X:XW.{ u o $ 4 l n n n n n x x n I f.).<X6X5X:X+X!.n.t.E K M y 7 - = = - a ~ 1.m.m.>.j ; $ * 8 l n n x n I z. X<X<X).j.I n l ",
"7X7X:XW.{ u o $ 4 r n n n n n B V P W n. X:X4X>X%X'.P.l.*.U N e 4 $ o       = h >.e.m.1.~ a : < 6 w r l r n I z. X<X<X).z.I n l ",
"7X7X:XW.{ u o $ 4 r x x x x m D E p.b.T.XX;X>X=X+X`.D.c.y.o.L G 9 < @       X i ! >.1.,.' ! j d 0 9 8 8 w b I j. X<X<X).j.I n l ",
"7X7X:XW.>.u o @ 4 r b x l x V E z.Y. XoX$X%X%X+X'.!.P.Z.n.h.;.R M e 2 @       # u j ~ ' >.,.O.^ f 5 , 2 6 z I z. X<X<X).f.I n r ",
"7X7X:XW.{ u o @ 4 r n n b n P p.Y.OX;X;X%X{.'.`.`.!.!.!.Q.D.V.;.T N w 2 $ .   X O = a ^ 1.m.m.>.j ; $ $ 4 z I v. X<X<X).j.I n l ",
"7X7X:XW.{ u o $ 4 r n B V F W n. X;X3X-X{.Q.P.P.^.`.'.'.'.!.P.h.R A z 9 5 ; = O   X - Q 0.Z.Z.2.Q - o o 2 r I z. X<X<X).j.I n l ",
"7X7X:XW.{ u o @ 4 l V P W p.n.R.OX;X:XoXI.n.c.C.^.+X&X&X@X'.P.l.#.S N z G H h i + X = Q q.A.D.q.Q - o @ , r I z..X<X<X).j.I n l ",
"7X7X:XW.{ u o o 2 r S W b.Y. X$X*X=X+XU.h.*.;.x./.;X2X>X=X[.U.h.T A B K  .<.>.Q 1 O = v 0.Z.A.q.Q - o o , l I v..X<X<X).j.I n l ",
"7X7X:XW.{ i o o , r F p.Y.OX:X:X=X{.Q.l.*.T T z./.;X3X>X&X'.S.g.R D C Y 8.k.i.[ g = - v 2.Z.Z.q.Q - o @ 2 l I z. X<X<X).j.I n l ",
"7X7X:XW.>.u o @ , r P f.E.;X2X-X{.W.M.:...L T j.I.+X&X#X'.G.M.7.R U U #.u.M.i.[ g - - c 2.Z.Z.0.k : o @ 2 l I v..X<X<X).z.I n l ",
"7X7X:XW.{ u o o 2 l F s.T.*X=X{.D.q.>.+. .X.*.8.n.Z.A.N.e.0.<.+.o.$.%.%.5.4.| v u # - Q 2.Z.Z.0.Q - o o , l I v. X<X<X).j.I n l ",
"7X7X:XW.{ u o o , l F r.K.].'.A.2.^ Q ( @.9.u.9.<.[ ` ~ Q j Q _ 3.u.g.5.} ~ g u + O - Q 6.Z.Z.0.Q - o @ 2 r I z..X<X<X).j.I n l ",
"7X7X:XW.{ u o @ , l S =.n.U.W.e.` a a ~ <.M.M.0.) g i - - : a ^ 6.M.M.6.^ a = X     - Q 0.Z.Z.0.Q - o @ , r I v. X<X<X).j.I n l ",
"7X7X:XW.{ u o @ , l D =.n.W.P.i.` g a ~ <.M.M.0.` g u - = : a ^ 6.M.M.6.^ a - X   X - Q 0.Z.Z.0.Q - o o 2 r I z..X<X<X).j.I n l ",
"7X7X:XW.{ u o @ , l D -.K.(.`.D.2.` ~ ) @.9.g.7.3.O.[ ^ Q Q ~ ] 3.9.9.&.} ! g u O O - Q 0.Z.Z.0.Q - o @ 2 l I z. X<X<X).j.I n l ",
"7X7X:XW.>.u o o , l F p.I.$X=X{.F.w.1.+.o.X.*.g.c.S.D.Z.m.q.4.@.o.X.X.%.&.4.| Q u = = k 0.Z.A.0.Q - o @ 2 r I v. X<X<X).j.I n l ",
"7X7X:XW.{ u o @ , l L f.E.;X2X-X{.W.M.7.R U T a.I.+X&X@X'.G.M.7...U U #.g.k.i.[ g = - H 1.Z.Z.0.Q - o o 2 r I z. X<X<X).j.I n l ",
"7X7X:XW.{ u o o , l I f.E.;X2X:X{.W.M.:.R L R g.I.$X&X@X'.F.M.7...U U #.y.M.i.[ g = - j 0.Z.Z.0.Q - o @ , r I v..X<X<X).j.I n l ",
"7X7X:XW.{ u o o , l F p.T.$X=X{.F.w.4.+. .X.*.y.c.J.D.Z.m.q.1.@.o.X.X.%.5.1.| Q u = - Q q.Z.A.q.Q - o o , r I v. X<X<X Xj.I n l ",
"7X7X:XW.{ u o @ , r D -.H.(.'.D.0./ ~ ) @.9.g.9.3.} ' / Q Q ~ ] <.9.u.5.] ! g u + O - Q q.A.D.0.Q - X o , l I z. X<X<X).j.I n l ",
"7X7X:XW.{ u o @ , r D =.n.U.W.e.` g a ~ 1.M.M.0.` h u - - : a ^ 6.M.M.6.( a = X   X - Q q.Z.Z.q.Q - o @ 2 l I v..X<X<X).j.I n l ",
"7X7X:XW.{ u o @ , l D =.n.Q.W.e./ s a ~ <.M.M.q.` h u : - : a ^ 6.k.M.6.^ p - X     = j >.m.m.>.j ; $ $ 4 l I z. X<X<X).j.I n l ",
"7X7X:XW.{ u o o , l D r.H.].'.D.2./ Q ) @.9.h.9.3.| ' ^ Q Q ~ ] &.9.u.5.} ! g u + O + i ! [ [ ( f 5 , , 6 x I z. X<X<X).j.I n l ",
"7X7X:XW.{ u o @ , l L s.T.*X=X{.D.w.<.+. .o.;.g.V.S.D.Z.e.q.1.@.o.X.X.%.&.4.| Q i + X = u g j f y 9 8 8 w x I z. X<X<X).j.I n l ",
"7X7X:XW.{ u o o , l P f.E.;X2X:X{.W.M.:.R L T a.I.oX&X@X'.D.M.7...U U #.u.M.i.>.j =     O = ; 5 9 r r r r n U z. X<X<X).j.I n l ",
"7X7X:XW.{ u o @ , z F p.Y.OX:X=X%X`.S.u.T Z L -.K.oX=X#X'.F.M.7...U U $.u.M.k.>.j ; o     o $ 2 8 r b x x n I j. X<X<X).j.I n l ",
"7X7X:XW.{ u o o 2 l S W b.Y.).XX[.'.P.g.T V m U 8.C.D.A.N.q.4.@.o.X.#.%.5.6.,.^ f 5 * $ $ $ * 4 w x n n x n I j.|.<X<X Xj.I n l ",
"7X7X:XW.>.u o @ 2 l V I W p.b.H.U.^.L.h.R C z N J _ ' / ^ Q ! ] &.y.u.5.} ^ c d t 9 6 6 4 6 6 8 r x n x z n I z. X<X<X).f.I n r ",
"7X7X:XW.{ u o @ 2 r n V S P T t.V.L.L.l.#.A b q 0 0 u : - : a ^ 6.M.M.6.^ a ; 3 6 q l l z l l x x b n z l n I z. X<X<X).j.I n r ",
"7X7X:XW.{ u o @ 4 r b n n n C R g.V.C.l.-.T K M y 7 - = = - i ^ 1.m.m.>.j ; $ * 8 l n n n n n n n n n x x n I z.|.<X<X).j.I n r ",
"7X7X:XW.{ u o $ 4 r b x x x m K X.;.h.x.b.j.g.%._ Q j j k j ! ` { 1.>.( d < * 4 8 x n n n n n n n b n x l n I j. X<X<X).j.I n r ",
"7X7X:XW.{ u o @ 4 r n n b b n m K T ;.x.K.E.E.L.M.q.6.1.1.1.1.{ / ! h f 0 6 6 8 l n n n n n n n n n b x x n I z. X<X<X).j.I n l ",
"7X7X:XW.{ i o $ 4 r n n n b n n n A T j.R.*X;X%X`.G.Z.Z.A.Z.m.,.! a ; < 6 q l x x n n n n n n n n n n z l n I j. X<X<X).j.I n l ",
"7X7X:XW.[ u o @ 2 r b n n n b x b n D -.K.XX%X@X`.D.Z.A.A.Z.m.O.j ; @ * 6 r x n n n n b n b n b n n x z l n I z.}.<X<X}.j.I n l ",
"7X7X,XW.[ >   o , w z x x x x r r z m T 9.B.D.Z.m.q.1.2.1.4.O.H p * & , 8 r x x x z z x x x z x x l x r r x L j. X<X<X}.z.I n l ",
"7X7X:XW.[ :   . , 8 z x x x l l l z b M J _ ` / ! Q j j j j h p 5 4 2 6 w l x b x z x z z z z z l z l l r x F j.}.<X<X}.z.I n r ",
"7X7X:XW.{ i @ $ 6 l n n n n n n n n b e y p u 1 : : : - - : ; 5 9 w z x b n n n n n n n n n n n n n n b x n I j. X<X<X).j.I n l ",
"7X6X:X!.2.k a y M K I I I I I I I I K G d a u u u u u i u u p d G K I I I I U I I I I I I I I I I I I F P I *.n.XX;X;XE.d.I n l ",
"4X2X=X`.Z.q.<.@.8.j.j.z.z.z.z.v.v.j.j.:.@.O.[ [ [ [ { [ [ | O.&.9.j.z.v.v.z.j.j.z.j.z.j.z.z.z.j.j.z.z.f.f.v.n.R.oX;X%XY.r.I n z ",
"=X=X#X+X'.~.!.^.(._. X X X X X X X X).(.!.W.W.G.G.G.W.W.W.W.Q.!.(.). X X.X X X X X X|. X X X|. X X X X X X X X$X*X%X].C.=.F n x ",
"'.'.[.+X%X-X:X<X<X<X<X<X<X<X<X<X<X<X<X,X:X:X:X:X-X>X:X:X:X:X:X,X<X<X<X<X<X<X<X<X<X<X<X<X<X<X<X<X<X<X<X1X<X<X;X;X%X[.U.l.E D n l ",
"Z.Z.W.`.+X;X<X1X<X<X<X<X<X<X<X<X1X<X<X<X<X<X1X<X<X2X<X1X<X<X<X1X<X<X<X<X2X<X<X<X<X<X<X<X<X<X<X<X<X<X<X2X<X<X;X%X].U.V.;.Y N l r ",
">.1.0.c.L.E. X.X X.X.X X X X X X.X.X.X.X.X.X.X.X X.X.X.X.X.X.X.X.X X.X.X.X X.X X X X X X X X X X X X X.X.X.X).T.K.l.:.R G e 6 4 ",
"j j ~ _ %.d.v.b.b.v.z.v.z.z.v.z.v.v.z.v.v.v.v.v.v.v.v.v.v.v.v.v.v.v.v.v.z.z.z.v.v.v.z.z.z.v.v.v.z.z.v.v.v.z.f.s.=.#.T G t 3 * $ ",
"= - 7 y G K I I I I I I I I I I I I I I I L I I I I I I I I I I I I I I I I I I I I I I I I I I I I I I I I I I P S N e 3 $ o . ",
"    o & 4 8 l z x z l z z r r l l z l l r z r r r z r z z l l l r z r r z r r r l z l l r r z r r z r z l z l z z l w 4 $ o     ",
"      o $ 2 4 4 4 2 4 4 4 4 4 4 4 4 4 2 4 4 4 4 4 4 4 4 4 4 4 2 2 4 4 4 4 4 4 4 4 4 4 2 2 4 4 4 2 4 4 4 2 4 4 4 6 4 , & o       ",
"        o @ $ $ $ $ $ $ $ $ $ $ $ $ $ $ $ $ $ $ $ $ $ $ $ $ $ $ $ $ $ $ $ $ $ $ $ $ $ $ $ $ $ $ $ $ $ $ $ $ $ $ & $ $ o o       ",
"        . . o . o o o . o . o o o . o o o o o . o . o o o . o o o o o . o . o o o . o o o o o . o o o o o . o o o o . . .       ",
"                                                                                                                                ",
"                                                                                                                                "
};
