/* XPM */
static char *sprite_7_18_resized[] = {
/* columns rows colors chars-per-pixel */
"64 64 211 2 ",
"   c #000001",
".  c #000709",
"X  c #01090C",
"o  c #000E12",
"O  c #001216",
"+  c #0F1416",
"@  c #001519",
"#  c #01191D",
"$  c #141213",
"%  c #181718",
"&  c #151C1E",
"*  c #1A1A1B",
"=  c #001D23",
"-  c #0A1E22",
";  c #161F21",
":  c #0B2226",
">  c #002329",
",  c #0B262A",
"<  c #01292E",
"1  c #102427",
"2  c #1C2022",
"3  c #15282B",
"4  c #1C2B2D",
"5  c #012C32",
"6  c #092C31",
"7  c #182F32",
"8  c #003037",
"9  c #01343B",
"0  c #0C3439",
"q  c #00383F",
"w  c #1A3437",
"e  c #242424",
"r  c #202729",
"t  c #242C2D",
"y  c #2C2C2D",
"u  c #222F32",
"i  c #2A3537",
"p  c #233A3D",
"a  c #363637",
"s  c #393637",
"d  c #383738",
"f  c #363B3C",
"g  c #3D3C3C",
"h  c #433E3E",
"j  c #003740",
"k  c #003B43",
"l  c #0E3C42",
"z  c #003F48",
"x  c #103B40",
"c  c #3A3F40",
"v  c #433F40",
"b  c #004047",
"n  c #00434B",
"m  c #1F4246",
"M  c #17454B",
"N  c #054850",
"B  c #0C4B52",
"V  c #124E55",
"C  c #1E4F55",
"Z  c #165057",
"A  c #185057",
"S  c #155259",
"D  c #1B555B",
"F  c #1E585F",
"G  c #24494D",
"H  c #3C4546",
"J  c #3B4749",
"K  c #214D53",
"L  c #22545B",
"P  c #2D5A5F",
"I  c #395457",
"U  c #1F5960",
"Y  c #235C63",
"T  c #2C5D63",
"R  c #345D62",
"E  c #256067",
"W  c #36656A",
"Q  c #34666B",
"!  c #3E696E",
"~  c #356B71",
"^  c #3B6E74",
"/  c #3C7076",
"(  c #404243",
")  c #464546",
"_  c #464B4C",
"`  c #4E4D4E",
"'  c #47595C",
"]  c #545353",
"[  c #565A5A",
"{  c #5D5C5C",
"}  c #615F5F",
"|  c #5D5F60",
" . c #426A6F",
".. c #5D6162",
"X. c #416D72",
"o. c #496F73",
"O. c #526D70",
"+. c #427176",
"@. c #4C7176",
"#. c #4A767B",
"$. c #557478",
"%. c #54787C",
"&. c #5D797D",
"*. c #656565",
"=. c #666768",
"-. c #636A6B",
";. c #6C6B6B",
":. c #736F6F",
">. c #606F70",
",. c #677576",
"<. c #6B7071",
"1. c #617B7E",
"2. c #757474",
"3. c #777777",
"4. c #7B7A7A",
"5. c #4F7D82",
"6. c #517E83",
"7. c #5F7F82",
"8. c #617E81",
"9. c #548186",
"0. c #5B8185",
"q. c #578388",
"w. c #5C858A",
"e. c #5F898E",
"r. c #668487",
"t. c #618A8E",
"y. c #6E888C",
"u. c #72898C",
"i. c #79898B",
"p. c #648D92",
"a. c #6A8E92",
"s. c #758D90",
"d. c #7A8F91",
"f. c #649095",
"g. c #6C9195",
"h. c #6C959A",
"j. c #779396",
"k. c #75999C",
"l. c #7A9DA0",
"z. c #828282",
"x. c #818788",
"c. c #838A8B",
"v. c #8B8A8A",
"b. c #938F8F",
"n. c #829395",
"m. c #87989A",
"M. c #829A9D",
"N. c #959494",
"B. c #999797",
"V. c #929D9E",
"C. c #9B9B9B",
"Z. c #899EA0",
"A. c #959FA0",
"S. c #8BA9AC",
"D. c #94A3A5",
"F. c #9AA1A2",
"G. c #9AA7A9",
"H. c #91AAAD",
"J. c #9FAAAB",
"K. c #96AEB1",
"L. c #93B0B3",
"P. c #9CB2B4",
"I. c #9EB6B8",
"U. c #A4A3A3",
"Y. c #A3A9AA",
"T. c #ABACAC",
"R. c #B0AEAE",
"E. c #A0B5B7",
"W. c #ACB1B1",
"Q. c #A9B7B8",
"!. c #A6BDBF",
"~. c #ABBABC",
"^. c #B4B3B3",
"/. c #B8B6B6",
"(. c #BAB8B7",
"). c #B4BCBD",
"_. c #BCBBBB",
"`. c #A6BEC0",
"'. c #A9BFC1",
"]. c #B1BFC0",
"[. c #ABC2C4",
"{. c #ADC6C8",
"}. c #B1C4C6",
"|. c #BCC2C2",
" X c #B3C8CA",
".X c #BECBCC",
"XX c #BECFD0",
"oX c #BFD0D1",
"OX c #C3C3C3",
"+X c #C8C5C5",
"@X c #C3CBCB",
"#X c #CCCCCC",
"$X c #D2CFCE",
"%X c #C6CFD0",
"&X c #CCD7D8",
"*X c #D3D4D4",
"=X c #D8D6D5",
"-X c #D8D8D7",
";X c #D3DCDC",
":X c #DCDCDB",
">X c #E0DCDB",
",X c #DBE4E5",
"<X c #DCE6E6",
"1X c #E5E4E3",
"2X c #E4EBEB",
"3X c #EBEAE9",
"4X c #F3EFED",
"5X c #ECF2F2",
"6X c #F4F5F4",
"7X c #FCF8F6",
"8X c #FEFEFE",
/* pixels */
"    % [ F.1X8X8X8X8X8X8X8X8X8X8X8X8X8X8X8X8X8X8X8X8X8X8X8X8X8X8X8X8X8X8X8X8X8X8X8X8X8X8X8X8X8X8X8X8X8X8X8X8X8X3X*X/.N.*.a $     ",
"    e { C.:X8X8X8X8X8X8X8X8X8X8X8X8X8X8X8X8X8X8X8X8X8X8X8X8X8X8X8X8X8X8X8X8X8X8X8X8X8X8X8X8X8X8X8X8X8X8X8X8X6X1X*X/.B.-.g %     ",
"% e g *.N.OX:X1X1X:X:X:X:X:X:X:X:X:X:X:X:X:X:X:X:X:X:X:X:X:X:X:X:X:X:X:X:X:X:X:X:X:X:X>X:X:X:X:X:X:X:X:X:X:X=X*X#X_.C.2.) 2 X   ",
"] { *.2.v.C.U.U.U.U.U.U.U.U.U.U.U.U.U.U.U.U.U.U.U.U.U.U.U.U.U.U.U.U.U.U.U.U.U.U.U.C.U.A.U.U.U.U.U.U.U.U.U.U.T.^.OXOXW.x.' 7 # o ",
"F.C.N.v.3.;.*.} } } } } } } } } *.} } } } } } *.} } } } } } } } } } } } } } } { { { [ { { } } } *.} } { { *.2.N._.#XOXZ.O.m < = ",
"1X:XOXC.;.g e * * e e e e e e e e e e e e e e e e e e e e e e e e e e e e e e e e e e e e e e e e e e * * e v 3.T.-X&XI.0.L k 5 ",
"8X8X:XU...e .     X X X X X X X X X X X X X X X X X X X X X X X X X X X X X X $ * e 2 * + o . . . X X .   X t -.T.:X,X`.p.Y b k ",
"8X8X1XU.{ *       X o O O o o O o o O o o o o o O o o O o o O o o O o o o O # 4 f _ _ f 4 @ o o X o o X . O w -.T.,X<X[.p.Y n k ",
"8X8X1XU.} 2     o = > > > > > > > > > > > > > > > > > > > > > > > > > > = > 0 I <.c.c.,.I 6 > = = > > = = > x 1.Q.,X<X'.p.Y n k ",
"8X8X:XU.} e . X = 5 q k k q q q q k q q q q j k q q q k q j j j q q q 8 8 j D %.D.|..XD.%.C k 8 9 q j 9 8 j P t.~.,X,X!.t.Y n k ",
"8X8X:XU.} e X O > k b n n n b b n n b n b n n b b b b n b b n n n n b k k n Y p.[.<X,X}.k.Q A n b n z k k b Y p.[.,X,X!.p.Y n j ",
"8X8X:XU.} e X o > k n N N n N n n n N N n n n N N n N n N n n N n n n b z N Y g.{.2X5X&XH.7.! L V N n k z n Y p.[.<X,X!.t.Y n j ",
"8X8X:XU.} e X O > k n N N n n n n n n n n n n n n n n n n n n n n n n b z n Y p.{.2X6X,X].M.8.^ F N b k k n Y p.'.,X,X!.t.Y b k ",
"8X8X:XU.} e X o > k b N n n n n n n n n n n n n n n n n n n n n n n n k k n Y p.'.<X6X1X#XY.j.&.R Z n k k b Y p.[.,X,X!.t.Y b j ",
"8X8X:XU.} e X o > q n n n n n n n n n n n n n n n n n n n n b n n n n z k n Y q.I.;X3X1X$X(.F.u.@.T Z n k n Y p.'.,X,X`.t.Y n k ",
"8X8X:XU.*.e X o > q b N n n n n n b n n n n n n b n n n n n n n n n b k k z S 6.H.%X:X>X$X_.T.V.y.%.! L B B Y p.'.,X,X`.t.Y n j ",
"8X8X:XU.} e X O > q b N n n n n n b n n n b n n b n n n b n n n n n b k k k V @.M.).#X$X+X_.T.Y.Z.j.r.X.L V Y t.`.,X,X!.e.Y b j ",
"8X8X:XU.} e X o > q b n n n n n n n b n n n n n n n n n n n n n n n n b z b D o.u.Y./.(./.T.T.T.U.A.n.$.T V Y t.`.,X,X!.t.Y n j ",
"8X8X:XU.} e X o > q n n n n n n n b n n n b b n n n n n n n n b b n n B S U W @.r.v.N.B.B.N.B.B.B.N.x.$.P V Y e.`.,X,X!.t.Y n k ",
"8X8X:XU.} e X O > k n n n n n n n n n b z z k z z b n n n b b z k z N U / q.t.r.,.<.;.;.;.;.;.:.:.:.=.' K V Y p.'.,X,X!.t.Y n j ",
"8X8X:XU.} e X o > q b N n n b n n b b z z k k z z n n n n n n k k z V / h.L.P.m.<._ g s g g g h v v c x x M Y p.'.,X,X!.t.Y n j ",
"8X8X:XU.} e X o > q b n n n n n n n n n n n n n n b n b n b n z k n U q.L..X.XC.;.a % $ $ % % % % % & - 5 k Y p.[.,X,X`.t.Y n j ",
"8X8X:XU.} e X O > q b N N n n n b n n B S U U S B N z z z n n N B Y ^ g.I.@X_.N.[ 4 X     X X X . X O = > k Y p.[.,X,X!.t.Y n k ",
"8X8X:XU.} e X o > k n n n n b b k z N Y ^ 6.6.^ Y N z k k k N U / q.g.Z.F.U.N.<.J 3 O o o O O O o O # = 5 k Y p.[.,X,X`.t.Y n j ",
"8X8X:XU.} e X o > q b n n n b k k z B ^ g.S.S.g.^ S k q q k B ^ h.L.E.F.c.;.{ J p 6 > > > > > > > > 5 5 8 z Y p.[.,X,X!.t.Y b j ",
"8X8X:XU.} e X O > q n n n n n b k n Y q.L.oX.XL.q.U b k k n Y q.L.XX.XU.;.c r 1 6 8 k k q k q k k q j j j b Y p.'.,X,X!.t.Y n j ",
"8X8X:XU.} e X O > k n n n n n n B U +.l. X<X<X}.j.~ D B V U ^ g.I.@X_.N.[ r O # 5 k n n b n b n b b n k k n Y p.[.,X,X`.t.Y n k ",
"8X8X:XU.} e X o > k b b b b N S Q 5.k.`.,X6X5X%XS.0.@.o.%.q.a.M.D.F.N.<.J 1 @ = 5 k n N N n n N N n n z k n Y p.'.<X,X`.t.Y n j ",
"8X8X:XU.} e X O > q b b k k B ~ e.S.{.;X5X8X6X-XQ.m.j.M.H.I.P.A.x.;.[ J w 6 > 5 j z n n N n n n n n n z k n Y p.'.,X,X!.t.Y n j ",
"8X8X:XU.} e X o > q b b b n U 9.S.oX2X6X8X8X5X:X|.T.Y.~.@X;X@XC.;.g 4 1 6 9 k z z b n n n n n n n n b z k n Y p.'.,X,X!.t.Y n j ",
"8X8X:XU.} e X o > q n N S U / k.{.<X8X8X8X6X1X&X).Y.Y.|.;X1X*XC.{ e X O > q b n n n b n n b n n n n b z k n Y p.[.,X,X!.p.Y n j ",
"8X8X:XU.} e X o > q B F ~ 9.k.I.;X6X8X8X7X3X-X).D.j.m.J.@X:X+Xb.` $   . > k N N N n n n n n n n b n n k k n Y p.'.,X,X`.t.Y n j ",
"8X8X:XU.} e . o = k S ~ p.S.{.;X2X8X8X7X3X=X].D.y.$.%.j.P._.^.z.) $   X > k n N N n n b n n n n n n b b k n Y p.'.<X,X!.t.Y n j ",
"8X8X:XU.} e . X = k U 9.S.%X<X6X8X8X6X3X=XOXT.d.@.T Q %.m.T.C.3.) % X O > k n n n b n n n n n b b n n k k n Y p.'.,X,X`.t.Y b j ",
"8X8X:XU.} e X o = k Y e.`.<X8X8X8X6X3X*X_.Y.n.8.! Y R @.d.A.B.4.] y * - 6 8 k k b b n n n n n n n n n k k n Y p.[.,X,X!.p.Y n j ",
"8X8X:XU.} e X . = q U p.{.2X8X8X8X1X*X).D.s.8.o. .! o.r.n.A.C.v.;.] c i 7 6 5 8 k b n n n b n n n n b z k n Y p.[.,X,X`.t.Y n j ",
"8X8X:XU.{ e X o = q Y p.[.2X8X8X3X*X_.D.y.o.! X.@.8.u.m.V.Y.U.C.v.4.-._ i : = > 5 k b n n n b n b n b z k n Y p.'.,X,X!.t.Y n j ",
"8X8X:XU.*.e X X = q Y e.`.<X6X4X>XOXY.u.@.T T ! 8.n.A.U.T.T.U.T.U.N.z...f & O # < q n n n n n n n n b z k n Y p.'.,X,X!.t.Y n j ",
"8X8X:XU.} e X X = q Y w.I.;X3X1X$X/.F.y.X.R T o.u.F.R.^.^.T.T.T.U.C.z...a & O @ 5 k n N n n n n n n n k k n Y p.'.<X,X!.p.Y n j ",
"8X8X:XU.} e X X = k F 6.H.@X:X*X+X^.A.d.7.o.@.8.n.U.R././.R.T.C.v.4.*._ i 1 = > 8 k n n n n b n n b b z k n Y p.'.<X,X`.t.Y n j ",
"8X8X:XU.} e X X = k D #.M.~.+X+X_.R.Y.V.d.u.i.n.V.T.R././.^.U.v.;.] g i 7 6 5 8 q b n n n n b n n n n k k n Y p.[.,X,X!.t.Y n j ",
"8X8X:XU.} e X o = k A o.s.Y./.(./.R.T.U.A.A.F.F.Y.T.T.^.^.T.N.3.] y ; - < 8 k k k b b n n n n n n n z z k z Y p.'.,X,X!.t.Y b j ",
"8X8X:XU.} e X o = j A X.y.A.T.^.^.R.R.T.T.T.T.R.T.T.T.U.U.N.z.| a & O # 5 k n n n n n n n n n n n b n k k n Y p.[.,X,X!.p.Y n k ",
"8X8X:XU.} e X o = q A X.y.D.R.^.^.R.^.^./././././.^.T.C.v.2..._ u - # > 8 z n N n n n n n b n n n n z z k n Y p.[.,X,X!.t.Y n j ",
"8X8X:XU.} e X X = k D X.s.F.R.(./.^.^.^./././.(._.^.U.v.;.` a u 3 5 5 5 k k n n n n n n b n b n n b n k k n Y p.'.,X,X`.t.Y b j ",
"8X8X:XU.} e X o = j V ^ r.A.T.R.R.T.T.T.T.T.T.R.T.T.N.3.` y ; - < 9 k b b b n n n n n n n n n n n n z z k n Y p.'.,X,X!.t.Y n j ",
"8X8X:XU.} e X o = j V W &.c.N.B.B.B.N.N.N.N.B.B.C.N.z...a & O # < q b n n b n b n b n b b n b n z z z z k z Y p.'.<X,X`.p.Y n k ",
"8X8X:XU.{ 2   . = 9 l K R | =.=.=.=.=.=.=.=.=.;.;.;.[ H 4 # @ = 5 q k b b z k z k b k b z k z k z z k j q k F p.'.<X,X'.t.Y n j ",
"8X8X:XU.} *   . = 8 k l p i s s s s a g a a g a s d i 4 , > > < 8 k k z z k k k k k k k k k k k k k k j j k U e.'.<X<X'.p.Y z j ",
"8X8X:XU.} e X O > k k 0 3 1 % % * % % % % % % % % % * 1 6 0 k k b n n b n n n b n n n n n n n b n n z z k n Y p.'.,X,X`.t.Y n j ",
"8X6X:XT.:.( t w m L L G p t e e e e e e e e e e e e t p G L Y Y Y Y Y Y Y Y Y Y Y Y Y Y Y Y Y Y Y Y Y U U Y +.k.}.;X;XI.w.Y n k ",
"3X1X*X^.N.2.-.>.1.t.r.1.O.*.{ } { { { { { { } { { } ..>.1.t.p.f.f.p.p.p.p.p.a.t.p.p.p.p.p.p.a.t.p.p.p.t.e.p.k.P.@X*X%XH.6.Y n k ",
"*X$X#XOX(.R.T.W.Q.!.!.Q.T.T.U.U.U.U.U.U.U.U.U.U.U.U.Y.T.Q.!.[.[.[.[.[.'.[.'.[.'.[.[.'.[.[.[.!.[.'.'.'.'.'.}.}.@X#X#X).m.#.U n z ",
"^._._.+X#X*X:X,X,X,X,X,X:X:X:X:X-X:X:X:X:X:X:X:X:X:X:X,X,X,X,X<X<X<X<X<X,X,X,X,X<X<X,X,X,X<X,X,X,X,X,X<X<X,X;X*X#X_.G.y. .A z k ",
"N.N.F.W.@X;X,X<X1X,X,X,X,X,X,X,X,X,X,X,X,X,X,X,X,X<X<X<X,X<X,X<X,X<X,X<X,X<X<X<X<X<X,X,X<X<X<X<X,X,X<X<X<X,X;X%X].Y.n.&.R M k 9 ",
"*.;.3.x.D.E.[.{.{.[.[.{.[.{.[.[.{.{.[.{.[.[.[.{.[.[.[.[.[.[.[.[.[.[.[.[.[.[.[.[.[.[.[.[.[.[.[.[.[.[.[.{.{.[.!.K.Z.s.1.R G 0 5 > ",
"g c _ ' O.r.f.f.f.f.p.p.f.f.f.f.f.f.f.f.f.f.f.f.f.f.f.f.f.f.p.p.p.p.p.p.p.p.f.p.p.p.p.f.p.p.p.p.p.f.p.f.f.f.t.q.5.^ R G w : # @ ",
"$ % 2 7 m L Y E Y Y Y Y Y Y Y Y Y Y Y Y Y Y Y Y Y Y Y Y Y Y Y Y Y Y Y Y Y Y Y Y Y Y Y Y Y Y Y Y Y Y Y Y Y Y Y L D Z M 0 > O X . ",
"    X O > 9 q k k k k q k q k q q q k q q k q q q k q q k q q q k k q q q q k k q q k q k q k q k q q q k q k k k j 8 > @ X     ",
"      X O = > > > > > > > > > > > > > > > > > > > > > > > > > > > > > > > > > > > > > > > > > > > > > > > > > > > > = # X       ",
"        X o O O O O O O O O O O O O O O O O O O O O O O O O O O O O O O O O O O O O O O O O O O O O O O O O O O @ O O X .       ",
"      . . . . X X X . X . X . X . X X X X X . X . X . X . X X X X X . X X . X X . X X X X X . X X X . X . X X X X X . . .       ",
"                                                                                                                                ",
"                                                                                                                                "
};
