/* XPM */
static char *sprite_1_11_resized[] = {
/* columns rows colors chars-per-pixel */
"64 64 196 2 ",
"   c #000001",
".  c #000709",
"X  c #020A0C",
"o  c #0D0D0E",
"O  c #000E10",
"+  c #080E10",
"@  c #001215",
"#  c #0E1214",
"$  c #001519",
"%  c #00181C",
"&  c #141516",
"*  c #181717",
"=  c #16191B",
"-  c #1E1D1E",
";  c #001D21",
":  c #091E21",
">  c #1E1F20",
",  c #002126",
"<  c #0D2124",
"1  c #00252A",
"2  c #00282E",
"3  c #172629",
"4  c #19282B",
"5  c #002B32",
"6  c #1E2E31",
"7  c #003137",
"8  c #00353C",
"9  c #00383F",
"0  c #103439",
"q  c #173A3E",
"w  c #242324",
"e  c #232B2C",
"r  c #202F32",
"t  c #223133",
"y  c #293233",
"u  c #23383B",
"i  c #353536",
"p  c #363A3B",
"a  c #3C3C3C",
"s  c #003C44",
"d  c #003F48",
"f  c #01424A",
"g  c #08474E",
"h  c #09484F",
"j  c #16464C",
"k  c #19494F",
"l  c #054850",
"z  c #0D4B52",
"x  c #144E55",
"c  c #175057",
"v  c #1A5057",
"b  c #19535A",
"n  c #19545B",
"m  c #274246",
"M  c #26474B",
"N  c #3C4345",
"B  c #3D494B",
"V  c #244F54",
"C  c #205056",
"Z  c #23585E",
"A  c #395357",
"S  c #3B565A",
"D  c #355A5F",
"F  c #1E5A61",
"G  c #255B61",
"H  c #2B5D63",
"J  c #355F64",
"K  c #2F6066",
"L  c #326166",
"P  c #366469",
"I  c #3A656B",
"U  c #37686E",
"Y  c #3E686D",
"T  c #3F6B71",
"R  c #434141",
"E  c #414A4B",
"W  c #4F5253",
"Q  c #465558",
"!  c #45575A",
"~  c #535354",
"^  c #555A5B",
"/  c #5C5C5C",
"(  c #605E5F",
")  c #44666B",
"_  c #406A6F",
"`  c #5E6465",
"'  c #436D72",
"]  c #496F73",
"[  c #457075",
"{  c #4D7176",
"}  c #477479",
"|  c #4C7479",
" . c #4B797F",
".. c #5D7375",
"X. c #52767A",
"o. c #557A7E",
"O. c #5B7A7E",
"+. c #646464",
"@. c #63696B",
"#. c #6C6B6C",
"$. c #726E6F",
"%. c #617477",
"&. c #677678",
"*. c #69787A",
"=. c #757474",
"-. c #7B7B7B",
";. c #4F7C82",
":. c #517D83",
">. c #5E7D80",
",. c #627E81",
"<. c #707F81",
"1. c #568186",
"2. c #5C878C",
"3. c #5E8B90",
"4. c #668184",
"5. c #6A8386",
"6. c #6E8689",
"7. c #66888C",
"8. c #70878A",
"9. c #748A8D",
"0. c #788C8F",
"q. c #658D91",
"w. c #768E91",
"e. c #6E9296",
"r. c #7C9294",
"t. c #79989B",
"y. c #878787",
"u. c #80888A",
"i. c #908E8E",
"p. c #898F90",
"a. c #829294",
"s. c #8A9091",
"d. c #849698",
"f. c #8A9798",
"g. c #829B9E",
"h. c #949494",
"j. c #949D9E",
"k. c #999E9E",
"l. c #859EA1",
"z. c #969FA0",
"x. c #8DA1A4",
"c. c #8BA4A8",
"v. c #8DA9AC",
"b. c #97A0A2",
"n. c #9CA3A4",
"m. c #96A6A8",
"M. c #98A7A9",
"N. c #93ABAD",
"B. c #9DA9AA",
"V. c #95AEB1",
"C. c #9CB3B6",
"Z. c #9CB6BA",
"A. c #A2A4A5",
"S. c #A9A7A7",
"D. c #A3AAAB",
"F. c #ABACAC",
"G. c #B1AFAF",
"H. c #A6B6B9",
"J. c #A8B7B9",
"K. c #B5B4B4",
"L. c #B9B6B6",
"P. c #B3BCBD",
"I. c #BAB9B9",
"U. c #C2BCBB",
"Y. c #C3C0BF",
"T. c #A3BDC0",
"R. c #B9BFC0",
"E. c #AEC3C5",
"W. c #B2C4C6",
"Q. c #BCC3C4",
"!. c #BFCBCD",
"~. c #C4C4C4",
"^. c #C7C6C6",
"/. c #CCCBCB",
"(. c #D1CFCF",
"). c #D1D0CF",
"_. c #C0CFD1",
"`. c #C7D1D2",
"'. c #C9D2D3",
"]. c #CFD9DA",
"[. c #D3D3D3",
"{. c #D9D6D6",
"}. c #D4D7D8",
"|. c #D1DADB",
" X c #DBDBDB",
".X c #E0DEDD",
"XX c #DDE4E5",
"oX c #E4E3E3",
"OX c #E8E7E6",
"+X c #E0E7E8",
"@X c #E7E9E9",
"#X c #EBEAEA",
"$X c #EEF1F1",
"%X c #F4F4F4",
"&X c #F8F7F7",
"*X c #FDFDFD",
/* pixels */
"                                                                                                                                ",
"                                                                                                                                ",
"                            . o * - w w w w w & # + X # * - 3 = # X + # * 3 3 * # X X # = 3 > * # + X # * - 3 = # X + # = > w w ",
"                            o w a ~ ( +.+./ W N 6 < < t N W ~ N t < < t N W W R t < < r N ~ ~ N t < < t N ~ ~ N t < < t N ~ / +.",
"                            * a #.i.A.G.S.A.p.%.A q q A &.p.p.&.A q q A &.p.p.&.A q q A &.a.s.&.A q q A &.s.p.&.A q q A %.s.A.S.",
"                            - ~ i.R.{.OXOX XQ.g.] v v | x.Q.Q.x.X.C v | b.Q.Q.x.| v C X.x.Q.Q.x.X.v v { x.Q.W.x.X.C v { g.Q. XoX",
"                            - W a.Q.XX%X*X#X|.V. .G G 1.C.|.].C.:.G G 1.C.].].C.1.G G 1.C.|.].C.1.G G 1.C.].].C.:.G G :.V.|.$X&X",
"                            = B <.V.W.].XXoX'.v. .n F 1.V.'.'.V.;.G F :.V.`.`.V.:.F F :.N.'.`.V.:.F F ;.V.`./.V.:.F F :.N.'.#X&X",
"                            # t S >.e.V.E.~.P.t.[ n n } l.P.P.l.} n n  .l.P.P.l.} n n } g.P.P.l.} n n } g.J.J.g.} n n } t.P.'..X",
"                            X < 0 C U 7.x.D.B.w.' n n ' w.B.B.w.' n n ' w.D.B.w.] n n ' w.B.B.r.} n n ' r.D.D.r.] b n ' w.D.I.U.",
"                            X $ 2 s n } t.D.D.a.X.K H | 0.z.k.0.{ H H { 0.b.b.0.{ H K { 0.b.b.0.{ H K | d.D.B.r.X.K H { 0.b.F.L.",
"                            . $ , 9 c } t.J.P.n.w.| | *.a.k.k.a.,.{ { ,.a.k.z.u.,.{ { ,.a.k.k.u.*.{ X.9.M.P.Q.B.w.o.X.5.d.A.F.K.",
"                            . @ , s n ;.v._.[.Q.M.r.9.0.j.n.n.j.a.9.0.a.j.n.n.j.a.9.9.a.j.n.n.j.r.9.r.n.Q.[.[.Q.B.d.r.f.b.F.G.K.",
"                            . $ , 9 G 2.Z.|.oX XQ.D.n.n.A.F.F.A.A.b.b.n.A.F.F.D.A.b.b.n.S.S.F.D.b.b.D.Q.|.oX+X[.R.D.b.b.A.F.F.F.",
"                            . @ ; 8 C 7.J.XX%X#X{.~.L.L.I.I.I.I.L.L.L.I.L.I.I.I.L.L.L.I.I.I.I.L.L.L.Y.(.oX#X#X}.Q.D.k.h.h.j.h.h.",
"                            . . $ 1 M >.H.XX&X&XOX{.(././././.).(.[.[./.(././.(.(.[.[././././.).(.[.[. XoXoX XQ.B.d.9.*.&.$.$.#.",
"                              . . $ u @.D.XX*X*X%X#XoXoXoXoXoXoXoXOXOXoXOXoXoXoXoXOXOXoXOXoXoXOXoXOXoXoX.X{.~.B.r.o.) S A N N a ",
"                                  . e ` D. X*X*X*X*X%X%X%X%X%X%X%X%X%X%X%X%X%X%X%X%X%X%X%X%X%X%X&X%X#XoX[.I.D.r. .K k 0 4 - * * ",
"                                    w ( A. X*X*X*X*X*X*X&X%X%X%X%X%X%X%X%X%X%X%X%X%X%X%X%X%X%X&X%X%X@X}.Q.D.d.>.P c 9 1 $ X     ",
"                                    - ^ A..X*X*X*X*X*X&X$XOXoXoXoXoXoX.XXXoX.XXXoXoXoXoX.XXXoXoXOXoX[.Q.M.0.X.I n h 9 , @       ",
"                                    - ^ A. X*X*X*X*X*X%XoX[././././.^./././././.^././.^./././.).[./.I.M.w.} K n z f 9 1 @ .     ",
"                                    w / A. X*X*X*X*X%XOX[.~.I.J.L.L.L.P.I.L.L.L.I.I.P.I.I.L.L.I.I.L.D.r.X.H c z g f 9 2 $ .     ",
"                                . * i #.A.[.%X*X*X%X@X X^.L.G.G.G.L.L.I.L.L.P.L.I.L.L.I.P.L.L.L.L.G.b.0.X.H c z l f s 1 % .     ",
"                              o > i ~ -.A./.oXoXoXXX}./.I.G.G.K.I.~././././././././././././.^.~.I.K.A.d.4.] L n c g 9 2 % .     ",
"                            . > a / =.i.S.I.^./././.~.I.K.G.K.I./.}..XXXoXoXXX.XoXoX.XoXoXoX X(.~.K.D.k.d.8.O.' G z 9 2 $ .     ",
"                            * i ( y.k.S.K.L.I.I.I.I.L.K.G.F.K.^. X#X%X&X%X%X%X%X%X%X%X%X%X%X#X X^.L.F.S.A.b.r.>.P x 9 1 $ .     ",
"w w w w w w w w w w w 3 > w i ^ y.A.L.I.I.I.I.I.I.P.L.K.F.G.I./.oX%X*X*X&X%X%X%X%X%X%X&X&X%X@X[.P.D.k.A.S.F.b.7.T c s 1 $ .     ",
"+.+.+.+.+.+.+.+.+.+.+.( ( +.=.i.S.^.{.{.[.[./.(././.^.I.K.K.I./.oX&X*X*X&X#XOXOXOXOXOX#X#XOX}.Q.M.r.0.f.n.D.n.9.' c s 1 $ .     ",
"F.F.F.F.F.F.S.F.G.S.S.S.F.F.K.~.{.oX#X#X#X#X+XoXoXoX X/.I.L.I./.oX&X*X%XOX{.[.).(.).[.[.{.).Q.M.w.X.X.5.f.A.b.0.' v s 1 $ .     ",
" X X X X X X X X X X X X X XXXoX#X$X%X%X%X%X%X%X%X%X#X{.~.L.L./.oX%X%X#X[.~.L.L.K.P.L.I.I.L.D.r.| K H { 0.b.b.9.' v 9 1 $ .     ",
" X X X X X X X X X X X X X X X XXXXXXXXXXXXXXX$X$X$X#X{.^.L.L.^. X#X@X}.Q.B.z.j.j.b.b.k.n.k.a.O.K c v Y 6.j.b.9.} c 9 1 $ .     ",
"F.F.F.F.F.F.F.F.S.S.F.F.S.F.G.H.H.J.T.T.T.T.E.!.|.XX.X[.~.K.K.Q.[.}.'.P.m.w.4.*.*.4.4.5.5.4.X.P c g z Y 6.b.b.0.] v s 1 $ .     ",
"+.+.+.+.+.+.+.+.+.+.+.+.+.+.@.&.>.7.3.3.3.3.e.c.J.^./.^.I.K.K.L.~.^.I.M.6.| P K J L L P I P H b g d x Y 8.z.b.w.] n 9 1 @ .     ",
"w w w w w w w w w w w w w w e u M C G F F G Y >.d.D.L.L.K.G.G.K.L.L.D.r.o.K c x x v n n v v x h f g v _ 9.j.z.0.] x s 1 $ .     ",
".       .                   . $ 2 8 s d d f x P >.a.k.D.F.F.G.G.K.F.n.0.X.H v x x n n c c v c x x v G ] 6.d.a.,.Y c s 1 $ .     ",
"                              . @ ; 2 5 5 s g n Y O.9.f.n.A.G.K.G.F.A.d.4.{ Y I I Y Y Y _ Y _ _ _ ' ] O.,.4.>.| G z s 1 $ .     ",
"                                . @ % , 5 s f z Z L { 5.f.A.K.K.K.G.D.k.d.0.8.6.5.6.6.6.6.8.8.0.0.8.6.,.o.] P G c g 9 1 % .     ",
"                                  . @ ; 2 s f g g x G X.0.b.F.G.G.F.F.D.n.k.j.j.j.j.z.z.j.j.j.z.z.j.a.4.] G x z l f s 2 % .     ",
"                                    X % 2 s f f f f v P >.a.k.n.k.k.b.z.b.j.k.j.j.z.j.z.k.z.j.z.b.j.a.>.L v f d f f s 2 % .     ",
"                                      @ 1 9 d f d d g Z ' >.5.8.8.6.6.6.6.8.9.9.0.8.9.9.9.8.9.0.0.0.,.] G h d d f f 9 2 $ .     ",
"                                      @ 2 9 f f d d g x Z P Y ' _ Y _ _ ' ' _ ] ' _ ' ' ' ' ' ] ] _ I H v f d f f f 9 2 $ .     ",
"                                    X % 5 9 f f f f f g z x x v n v c v v c v c x n v v c c v c v v x h g f f f f f 9 2 % .     ",
"                            . o * > w 0 0 s f f f f f f f f f f f f f f f f f f f f f f f f f f f f f f f f f f f f 9 5 % @ . . ",
"                            o w R ~ ^ ! V g d d d f f d d d s s s d d d s s s s d s d d s s s s d d d d d d d f f f s 7 1 ; $ @ ",
"                            - R $.h.j.6._ x d d d d d d d s s s d d d d s s s s s d d d s s s s d s d d f s d f f f s 9 7 2 1 1 ",
"                            > ~ i.R.Q.V.1.Z f s d f f f f f f f f f f f f f f f d f f f f f f d f f f f f f f f f f f f d s s 9 ",
"                            3 ~ h.Q.!.Z.q.P x g f f g g z x c x g f f h z x x x g f f g z x x x h f f g x x x x f f f l z c v v ",
"                            = E <.N.Z.v.e.X.L Z x g g v G L L G x g h v Z I I Z x z z x G P P H v h g c Z P L H v h z c G P T ' ",
"                            # u S :.q.e.w.7.>.] Z x z G ] >.O.] Z x x G ] O.>.] Z x z G ] O.O.] Z z x Z [ O.*.{ Z x x Z ] >.6.9.",
"                            X : q C P o.w.d.r.>.L x v L ,.r.a.,.L x x P ,.a.r.>.L c c P >.a.a.,.I c c P >.r.r.1.P x c L O.a.b.n.",
"                            X $ 2 s c [ 0.z.z.6.Y n n Y 6.j.z.6._ n n Y 6.j.b.6.Y n n Y 6.k.z.7.Y n v Y 6.b.b.6.Y n v Y 6.z.F.L.",
"                            . $ , 9 x ' w.n.n.w.' n n ' 0.B.n.w.] n n ' w.n.n.9.] n n ' w.n.n.0.' n n ' w.n.n.w._ n n ' 9.n.L.I.",
"                            . $ 1 9 c [ w.n.n.0.' n n ' w.n.n.w.' n n ' 0.n.A.w.' n n ' w.n.B.0.' n n ' w.n.n.w.[ n n Y 9.B.K.U.",
"                            . $ 1 9 c ' 9.k.k.8.Y v v Y 6.z.j.6.I v n Y 8.j.k.6.Y c n Y 6.k.j.6.Y v v Y 6.j.k.6.Y v n I 5.j.F.K.",
"                            . @ , 7 j ) *.0.0.%.D j j D %.u.u.%.D j j D %.0.u.%.D j j D %.u.u...D j j D %.u.u.%.D j j D ..u.h.k.",
"                            . O $ , 0 M ! ` ` Q m 0 0 m Q ` ` Q m 0 0 m Q ` ` Q m 0 0 m Q ` ` Q m 0 0 m ! ` ` Q m 0 0 m Q +.$.$.",
"                              X X $ : 4 y p p y 3 < : 3 y p p y 3 : : 3 y p p y 3 : : 4 y p p y 3 < : 3 y p p y 3 % : 3 t p a R ",
"                                . . X # # & * # + X X o # & * # o X X o # & * # + X X + # * * # + X X o # & * # # X X o & & = = ",
"                                                                                                                                ",
"                                                                                                                                ",
"                                                                                                                                ",
"                                                                                                                                ",
"                                                                                                                                ",
"                                                                                                                                "
};
