/* XPM */
static char *sprite_1_14_resized[] = {
/* columns rows colors chars-per-pixel */
"64 64 202 2 ",
"   c #000001",
".  c #020709",
"X  c #030B0D",
"o  c #0B0B0C",
"O  c #000E11",
"+  c #090E10",
"@  c #100F10",
"#  c #001115",
"$  c #0E1214",
"%  c #001619",
"&  c #01191C",
"*  c #141516",
"=  c #191516",
"-  c #171718",
";  c #181718",
":  c #161A1B",
">  c #19191A",
",  c #001D22",
"<  c #091E21",
"1  c #161E20",
"2  c #1E1F20",
"3  c #002126",
"4  c #0D2124",
"5  c #00252A",
"6  c #00292E",
"7  c #162629",
"8  c #172629",
"9  c #002C32",
"0  c #092F33",
"q  c #1F2F31",
"w  c #00333A",
"e  c #103438",
"r  c #173A3F",
"t  c #232324",
"y  c #262A2C",
"u  c #252E30",
"i  c #213033",
"p  c #293233",
"a  c #22373A",
"s  c #363636",
"d  c #363A3B",
"f  c #3D3D3D",
"g  c #403E3F",
"h  c #003D45",
"j  c #003F48",
"k  c #233E42",
"l  c #01424A",
"z  c #09474F",
"x  c #09484F",
"c  c #15464C",
"v  c #1A454A",
"b  c #0D4B52",
"n  c #134E55",
"m  c #175057",
"M  c #1A5057",
"N  c #165259",
"B  c #19535A",
"V  c #1C585F",
"C  c #274246",
"Z  c #274549",
"A  c #3B4345",
"S  c #38494C",
"D  c #205056",
"F  c #285257",
"G  c #23555B",
"H  c #25595F",
"J  c #375457",
"K  c #395357",
"L  c #365A5F",
"P  c #1E5A61",
"I  c #245B61",
"U  c #2B5D63",
"Y  c #375C61",
"T  c #326066",
"R  c #366469",
"E  c #39656A",
"W  c #38666C",
"Q  c #3E686D",
"!  c #434242",
"~  c #484545",
"^  c #4B4A4B",
"/  c #4F4F50",
"(  c #455557",
")  c #4F5253",
"_  c #475658",
"`  c #545253",
"'  c #5B5B5B",
"]  c #40666B",
"[  c #406A6F",
"{  c #5D6364",
"}  c #5C6B6E",
"|  c #446D72",
" . c #496F74",
".. c #457177",
"X. c #4D7276",
"o. c #477479",
"O. c #4E7479",
"+. c #53757A",
"@. c #5D777A",
"#. c #55787D",
"$. c #646464",
"%. c #64696B",
"&. c #6C6B6C",
"*. c #716F6F",
"=. c #617476",
"-. c #667678",
";. c #61787B",
":. c #727171",
">. c #7A7676",
",. c #7D7C7C",
"<. c #4E7C82",
"1. c #517D83",
"2. c #5E7C80",
"3. c #627E81",
"4. c #568186",
"5. c #5B8388",
"6. c #5F8C92",
"7. c #658184",
"8. c #6A8386",
"9. c #6E8689",
"0. c #64898D",
"q. c #6F898D",
"w. c #70878A",
"e. c #748A8D",
"r. c #788C8F",
"t. c #658C91",
"y. c #768E91",
"u. c #6F9398",
"i. c #7B9295",
"p. c #799699",
"a. c #838282",
"s. c #80888A",
"d. c #8C8B8B",
"f. c #898F90",
"g. c #819294",
"h. c #829699",
"j. c #82999C",
"k. c #8C9B9D",
"l. c #949494",
"z. c #979797",
"x. c #949D9E",
"c. c #9B9C9D",
"v. c #A09F9F",
"b. c #849EA1",
"n. c #889EA1",
"m. c #969FA0",
"M. c #8DA2A4",
"N. c #8DA8AB",
"B. c #97A1A2",
"V. c #9CA3A4",
"C. c #98A7A9",
"Z. c #9DA8A9",
"A. c #95AEB1",
"S. c #99B3B6",
"D. c #9BB3B6",
"F. c #A2A3A3",
"G. c #A3AAAA",
"H. c #ACACAC",
"J. c #B1AFAF",
"K. c #B1B0AF",
"L. c #A1AFB0",
"P. c #A4B2B3",
"I. c #ABB3B4",
"U. c #A2B7BA",
"Y. c #AAB9BB",
"T. c #B4B4B4",
"R. c #B8B7B6",
"E. c #BAB8B7",
"W. c #B4BCBD",
"Q. c #B9B9B9",
"!. c #C0BFBF",
"~. c #A8BEC1",
"^. c #AAC1C4",
"/. c #BCC3C4",
"(. c #BBCACB",
"). c #C4C3C3",
"_. c #C5C7C7",
"`. c #CCCCCB",
"'. c #D0CECE",
"]. c #D1D0CF",
"[. c #C7D1D3",
"{. c #CCD2D3",
"}. c #CFD9DA",
"|. c #D3D2D2",
" X c #D9D6D6",
".X c #D2D7D8",
"XX c #D4DBDB",
"oX c #DBDBDB",
"OX c #E0DEDD",
"+X c #E2E0DF",
"@X c #DCE3E4",
"#X c #DEE7E8",
"$X c #E4E3E3",
"%X c #E8E6E6",
"&X c #E0E7E8",
"*X c #E6EAEA",
"=X c #EBEAEA",
"-X c #EFF1F1",
";X c #F4F4F4",
":X c #F8F7F7",
">X c #FAF8F7",
",X c #FDFDFD",
/* pixels */
"                                                                                                                                ",
"                                                        .                                                                       ",
"; ; > > 2 t 2 : $ X X $ : 2 8 = $ X X $ : 8 2 - $ + X $ - > 8 : $ X + $ : 2 8 = $ X X $ : 8 2 = @ .                             ",
"g ! ~ / ` ' ) A q 4 4 i A ` ` A i 4 4 i A ` ` A q 4 4 i A ` ` A i 4 4 i A ` ` A i 4 4 i A ` / g t o                             ",
"&.*.>.a.l.z.f.=.K r r J -.f.f.-.K r r K -.f.f.-.J k r K -.f.f.-.K r r K -.f.f.-.K r r K -.d.d.&.g =                             ",
"l.l.c.T._.'./.n.X.D M O.M././.M.+.M D X.M././.M.X.M M O.M././.M.X.D M X.M././.M.+.M M +.M./.Q.l.' >                             ",
"l.m.Z./. X%X}.S.1.I I 4.D..X}.D.4.V P 4.D.XX}.D.4.I I 4.D..XXXD.5.I I 4.D.}.}.D.4.P P 4.D.XX|.F.' t                             ",
"9.y.j.P._.XX[.N.<.V P 1.A.[.[.A.4.P P 4.A.[.[.A.<.P P <.A.[.[.A.1.P P 1.A.[.[.A.<.P P 4.A.[._.c.' t                             ",
"Q | #.p.Z./.W.j...N V o.n.W.W.b.o.V B o.M.Y.W.j...B B o.M.W.W.n.o.V V ..n.W.W.b.o.N N o.b.W.T.d.` >                             ",
"b B T #.j.G.Z.y.| B B | y.Z.Z.y.| B B | y.Z.G.y.| V V | y.Z.Z.y.| B B | y.Z.Z.y.| V B ..i.G.V.>.^ >                             ",
"h l B  .y.Z.G.i.+.U U X.r.B.B.r.O.T U O.r.B.B.r.X.U U X.e.B.B.r.X.U U X.r.c.B.i.#.Q W 1.i.B.l.:.! >                             ",
"h l V o.p.I.W.C.y.O.O.3.g.c.m.g.;.X.X.;.g.B.c.g.3.X.X.3.g.x.c.g.3.X.X.3.i.c.V.m.p.t.t.p.C.G.z.:.! ;                             ",
"h l P <.N.(.{./.Z.i.e.r.k.F.V.z.g.w.e.g.z.v.V.x.g.e.e.s.x.V.V.x.g.w.e.g.l.V.G.P.U.U.U.~.W.I.z.:.! =                             ",
"w l I 4.D.XX%XoX/.G.V.B.F.H.H.G.V.C.B.F.G.H.H.G.F.B.B.Z.G.H.H.F.F.V.B.B.F.H.T.).}.oXoX.X_.T.l.&.f -                             ",
"9 h G 2.D.@X;X=X X).Q.R.R.Q.R.R.R.R.R.R.R.R.Q.Q.Q.R.R.R.Q.R.Q.Q.R.Q.R.R.R.Q._.|.%X;X;XoX).F.a.' s -                             ",
", 9 Z #.P.$X>X>X=X X|.'.`.`.{.`.'.|.|.].`.{.`.].].].|.].'.'.`.`.`.'.'.`._.`.|.%X:X,X;X|.H.a.$.f t o                             ",
"O , a } Z.@X>X,X:X=X%X$X%X$X$X$X%X%X$X%X$X$X%X$X$X%X%X$X%X$X$X$X$X$X$X$X@X$X%X:X,X,X=X).d.' s t * o                             ",
"  X y { V.oX,X,X,X;X:X;X;X;X;X;X;X;X;X;X;X;X;X;X;X;X;X;X;X;X;X;X;X;X:X:X;X;X:X,X,X,X$XH.&.s = .                                 ",
"    t ' F.oX,X,X,X:X;X;X;X;X;X;X;X;X;X;X;X;X;X;X;X;X;X;X;X;X;X:X>X,X,X,X,X,X,X,X,X:X|.z.' t                                     ",
"    t ' v.oX,X,X:X*X$X$X@X+X+X$X$X+X+X@X+X$X+X$X$X$X+X@X$X$X%X-X>X,X,X,X,X,X,X,X:X%X).d.^ >                                     ",
"    t ' F.oX>X>X%X|.`.`.`._.`.`._.`.`._._.`._.`.`.`.`.`.`.`.|.$X;X,X,X,X,X,X,X:X%X|.H.,.! =                                     ",
"    t ' v.oX:X=XoX).Q.R.R.Q.Q.Q.Q.Q.Q.Q.Q.Q.Q.Q.Q.Q.R.R.R.R.).|.$X:X,X,X,X,X>X*X X/.V.:.A :                                     ",
"    t ' z.|.*X$X`.Q.J.I.T.R.Q.Q.Q.Q.Q.Q.Q.Q.Q.Q.Q.Q.R.R.J.I.R._.oX*X:X:X:X;X=XoX`.R.l.*.A 1 .                                   ",
"    > ` d.).oX|.).T.H.T.Q.)._._.`.`.`.`.`._.`.`.`._._.Q.R.K.R.!.`.oX$X$X$X+XoX`.).H.l.=.S 7 # .                                 ",
"    > ^ ,.K._._.Q.T.T.Q.`. X+X$X$X$X+X@X+X$X+X$X$X+XoX`.).R.T.R.!._._.`.`._._.!.E.H.l.-.J e , O                                 ",
"    > ! :.v.R.R.T.H.R._. X*X;X:X:X;X;X;X;X;X;X;X:X;X*XoX_.R.H.H.T.R.E.Q.Q.Q.R.E.E.H.x.9.] n w 3 % X                   .         ",
"    : f &.l.H.J.J.I.R.`.@X;X,X,X>X:X;X;X;X;X;X:X:X;X%X.XQ.G.V.B.F.H.H.T.R.E.Q.!.!.E.L.p.2.Q G v q u t t t t t t t t t t t t t t ",
"    ; f $.l.H.J.H.H.Q.`.%X:X,X,X;X=X%X$X%X%X%X=X*X%X X/.C.i.r.g.k.F.H.Q.Q._.`.'.|.]._.Y.N.u.t.2.=.%.$.$.$.$.$.$.$.$.$.$.%.$.$.$.",
"    - f &.l.G.J.H.J.Q.'.%X:X,X;X%X X|.`.].|.|. X X]./.C.y.#.X.;.r.V.J.!.|.oX$X%X*X*X@XXX[.(.~.U.I.G.H.H.H.H.H.H.H.H.H.H.H.H.H.H.",
"    > f &.l.H.T.K.H.Q.`.$X;X;X%X|.).R.R.R.R.R.Q.Q.R.G.i.O.U U | w.c.R.`.oX=X;X:X:X-X-X-X#X&X@X@X@XoXoXoXoXoX XoX XoX XoXoXoXoXoX",
"    > f &.l.H.K.K.H.R._.oX*X*X}./.G.x.x.x.x.x.B.V.x.g.@.U m m E 8.c.R.`.OX*X;X=X-X#X@X@X@X@X@X@XoXoXoXoX XoXoXoXoXoX XoXoXoXoXoX",
"    > f &.z.J.T.T.H.R.).|.oX|./.C.r.7.3.3.7.8.8.8.8.#.R B z b R 8.B.R.'. X$X@X.X(.^.~.~.^.^.~.Y.I.H.H.H.G.H.H.H.H.H.H.H.H.G.H.H.",
"    > k *.z.J.T.J.J.J.!._._.W.C.q.O.R Y R R R E E R U m z h n R 8.B.T.).'.'.).I.M.u.t.6.6.6.0.7.=.%.$.$.$.$.$.$.$.$.$.$.$.$.$.%.",
"    = f &.l.H.T.K.J.J.T.E.R.G.i.+.U B n n m m m M m n b l z n Q 8.x.H.E.!.T.G.h.1.Q I P P I G Z a y t t t t t t t t t t t t t t ",
"    * s { r.B.G.H.H.J.J.T.H.V.y.O.U B n n M B m M M m m n B U | 8.h.c.Z.F.B.g.3.E m l h h h w 5 % X             .               ",
"    $ u ^ =.e.k.V.H.J.K.T.H.F.f.8.X.[ E E ] Q Q Q [ Q Q [ |  .#.3.8.9.w.w.8.@.[ G l h w 9 6 , # .                               ",
"    + 7 k Y X.9.k.G.J.T.T.J.H.m.h.r.w.8.w.w.9.w.w.w.w.w.e.e.8.3.+.| [ Q Q Q T H b l h 9 3 & # X                                 ",
"    X & 0 c U +.e.B.H.J.K.H.H.F.V.B.c.x.x.x.x.x.x.x.m.B.V.x.g.8.| U m n m m n b b l h 6 , O .                                   ",
"    . % 5 h N W 3.g.c.B.m.m.m.x.m.m.B.x.x.x.x.x.x.x.m.B.B.x.g.2.R n l l l l l l l l w 9 & X                                     ",
"      # 3 w z I | 2.w.w.w.9.9.9.w.e.w.e.e.e.e.e.e.e.e.r.r.e.3.| H x h h h h l l l l h 5 % .                                     ",
"      # 5 w z n I Q Q [ [ [ [ | | | | | | | | | | | |  . .[ Q U m z h h h j l l l l h 5 % .                                     ",
"    X & 6 h l x b n N N B M m m m m N B m m M m N B m m M m n b x l l l j l l l l l h 6 % X                                     ",
"= = : 7 0 h l l l l l l l l l j l l l l l l l l l l l l l l l l l l l l l l l l l l w 9 , # . .                                 ",
"~ ! A C v j j l j j j h h h h h h h h h h h h h h j h h h h h h h l l l l h l l l l h w 6 & # X . .                             ",
">.*.&.] F z h h h h j h h h h h h l h h h h h h h l h h h h h h l l l l h j h l l l h h w 6 3 % X .                             ",
"v.l.s.;.E n l h l l l l l l l l l l l l l l l l l l l l l l l l l l l l l l l l l l l l h h w 5 % .                             ",
"c.x.g.8. .U n x l l z z b n n b z l l z b n n b z l l z b m n b z l z z b n n b b l l x b m c e < X                             ",
"r.e.9.3.#.| E H n z z n U R R U n b z n U R R U m z b m U R R U n z z n U R R U m z b N U R Y Z 8 +                             ",
"| | X.+.3.7.2.| I b n I | @.2. .I n b H  .@.@...I n n H | @.3.| H b n I X.@.2.| H n b I ..3.=._ p *                             ",
"n B U ..9.g.g.3.R n n R 3.g.g.3.R n n R 3.g.g.3.R n n R 3.i.g.3.R m n R 2.g.i.2.R N N W 7.g.s.%.f :                             ",
"h l m | w.m.x.w.Q B B Q 9.x.m.9.Q B B Q q.x.x.9.Q B m [ 9.x.x.9.Q B m Q q.x.B.9.Q B N Q q.x.l.:.! >                             ",
"h l n | e.V.Z.y.| B B | y.Z.V.y.| B V Q r.Z.Z.e.| B B | r.Z.V.r.[ V B | r.Z.V.r.| B B ..y.V.v.>.~ >                             ",
"h l B | y.Z.Z.e.| B B | y.Z.V.r.| B V | e.Z.Z.y.| B B | y.Z.Z.r.| V B | r.Z.Z.y.| B V | y.Z.c.,.~ >                             ",
"h l M [ w.x.x.w.Q B B [ 9.x.x.9.Q B m Q 8.x.x.9.Q B m Q 9.x.x.q.Q m m Q 9.x.z.9.Q m N Q w.x.l.:.! >                             ",
"w h c L =.s.s.=.L c c Y =.s.r.=.L c c L =.s.s.=.L c c L =.s.s.=.L c c L =.s.r.=.L c c Y ;.s.,.$.d =                             ",
"3 9 e C ( { { ( C e 0 C ( { $._ C e e C _ $.{ ( C e e C ( { { _ C e e C ( { $.( C e e Z _ $.' ~ y @                             ",
"% % < 8 p d d p 8 < 4 7 p d d p 8 < < 8 p d d p 8 < 4 7 p d d p 8 & 4 7 p d d p 8 < < 8 p d s y > o                             ",
"X X X + $ * - $ + X X o $ * * $ + X X + $ - - $ + X X o $ * - $ $ o X o $ * * $ + X X + $ - * * o .                             ",
"                                                                                                                                ",
"                                                                                                                                ",
"                                                                                                                                ",
"                                                                                                                                ",
"                                                                                                                                ",
"                                                                                                                                "
};
