/* XPM */
static char *sprite_1_10_resized[] = {
/* columns rows colors chars-per-pixel */
"64 64 195 2 ",
"   c #000001",
".  c #010709",
"X  c #020A0C",
"o  c #0C0C0D",
"O  c #090E10",
"+  c #100F10",
"@  c #001215",
"#  c #0E1214",
"$  c #001619",
"%  c #00181C",
"&  c #141516",
"*  c #171718",
"=  c #161A1B",
"-  c #1B1B1C",
";  c #001D22",
":  c #091E21",
">  c #1E1F20",
",  c #002227",
"<  c #0D2124",
"1  c #00252B",
"2  c #0A2629",
"3  c #00292E",
"4  c #172629",
"5  c #1B2729",
"6  c #002C31",
"7  c #172F33",
"8  c #003037",
"9  c #00343B",
"0  c #00383F",
"q  c #103438",
"w  c #173A3F",
"e  c #232324",
"r  c #282A2B",
"t  c #213033",
"y  c #293133",
"u  c #23383B",
"i  c #353536",
"p  c #373738",
"a  c #363A3B",
"s  c #3C3B3C",
"d  c #403E3F",
"f  c #003C44",
"g  c #003F48",
"h  c #1A3E43",
"j  c #01424B",
"k  c #09474F",
"l  c #09484F",
"z  c #16464D",
"x  c #054850",
"c  c #0D4B52",
"v  c #144E55",
"b  c #175057",
"n  c #1A5057",
"m  c #16525A",
"M  c #1A535A",
"N  c #1D585F",
"B  c #274246",
"V  c #264549",
"C  c #3B4445",
"Z  c #264F55",
"A  c #205056",
"S  c #21555B",
"D  c #23585E",
"F  c #395357",
"G  c #3B5559",
"H  c #355A5F",
"J  c #1E5A61",
"K  c #245B61",
"L  c #2B5D63",
"P  c #345D62",
"I  c #395C61",
"U  c #326166",
"Y  c #366469",
"T  c #39656A",
"R  c #37686E",
"E  c #3E686D",
"W  c #3E6C71",
"Q  c #434242",
"!  c #494748",
"~  c #4F4F50",
"^  c #4F5253",
"/  c #475658",
"(  c #40585B",
")  c #545353",
"_  c #575758",
"`  c #525B5D",
"'  c #5D5C5D",
"]  c #416A6F",
"[  c #5E6465",
"{  c #436D72",
"}  c #496F73",
"|  c #467075",
" . c #4D7176",
".. c #467479",
"X. c #4D757A",
"o. c #4F797E",
"O. c #53767A",
"+. c #54797D",
"@. c #5B7A7E",
"#. c #646464",
"$. c #63696B",
"%. c #6C6B6B",
"&. c #607477",
"*. c #667678",
"=. c #697779",
"-. c #747272",
";. c #7C7A7A",
":. c #4F7C82",
">. c #527E83",
",. c #5D7D80",
"<. c #627E81",
"1. c #568186",
"2. c #5A8489",
"3. c #5D898E",
"4. c #5E8B90",
"5. c #668184",
"6. c #6A8386",
"7. c #6F8689",
"8. c #60888D",
"9. c #6E898C",
"0. c #70878A",
"q. c #748A8D",
"w. c #788C8F",
"e. c #698D92",
"r. c #768E91",
"t. c #798F91",
"y. c #6F9397",
"u. c #7B9295",
"i. c #76969A",
"p. c #828282",
"a. c #808889",
"s. c #8C8B8C",
"d. c #898F90",
"f. c #829294",
"g. c #8B9798",
"h. c #869A9C",
"j. c #949494",
"k. c #949D9E",
"l. c #9A9D9D",
"z. c #859EA1",
"x. c #969FA0",
"c. c #9F9FA0",
"v. c #8DA2A4",
"b. c #8CA6A9",
"n. c #97A1A2",
"m. c #9CA3A4",
"M. c #97A7A8",
"N. c #92ABAE",
"B. c #9EA8A9",
"V. c #95AEB1",
"C. c #9CB3B6",
"Z. c #9DB5B8",
"A. c #A3A4A4",
"S. c #A4AAAA",
"D. c #ABABAC",
"F. c #B1AFAF",
"G. c #A6B2B4",
"H. c #AAB3B5",
"J. c #A4BABC",
"K. c #ACBABB",
"L. c #B5B4B4",
"P. c #B9B6B6",
"I. c #B3BBBC",
"U. c #BAB9B9",
"Y. c #C0BFBF",
"T. c #A3BDC0",
"R. c #B8BFC0",
"E. c #AEC3C5",
"W. c #BCC3C4",
"Q. c #BECDCF",
"!. c #C4C4C4",
"~. c #C6C7C7",
"^. c #CCCBCB",
"/. c #D1CFCF",
"(. c #D1D0CF",
"). c #C6CFD0",
"_. c #C7D1D3",
"`. c #CBD2D3",
"'. c #CFD9DA",
"]. c #D3D2D2",
"[. c #D9D6D5",
"{. c #D2D7D8",
"}. c #D4DCDD",
"|. c #DBDBDC",
" X c #E0DDDD",
".X c #DDE4E5",
"XX c #E4E3E3",
"oX c #E8E6E6",
"OX c #E0E7E8",
"+X c #E7E9EA",
"@X c #EBEAEA",
"#X c #EEF1F1",
"$X c #F4F4F4",
"%X c #F8F7F7",
"&X c #FDFDFD",
/* pixels */
"                                                                                                                                ",
"                                                                                                                                ",
"                            . + * - 4 = # X O # - - 5 * & X X # = 5 - = # O X # = - 5 = # X O # - - 5 * & X X # = 5 - = # X X . ",
"                            o e s ~ ^ C t < < t C ^ ) C t < < t C ) ) C 7 < < t C ^ ~ C t < < t C ^ ) C t < < t C ) ) C t < % @ ",
"                            * s %.s.s.*.G w w F *.d.d.*.F w w F *.d.d.*.G w w F *.d.d.=.F w w F *.d.d.*.F w w F *.d.d.=.G w 6 , ",
"                            > _ j.U.W.v.O.A n X.v.W.W.v. .A n X.v.W.W.v.O.A A  .v.W.W.v. .A A X.v.W.W.v. .A n X.v.W.W.v.+.A f 8 ",
"                            e ' A.].'.Z.1.K K 1.C.'.'.C.1.K K 1.C.{.'.C.1.K K 1.Z.'.{.C.1.K K 1.C.'.'.C.1.K K >.Z.'.'.Z.2.K j 0 ",
"                            > ' l.~._.V.:.N N :.V._._.V.>.J J >.V._._.V.>.J J >.V._._.V.>.J J >.V._._.V.>.N N :.N._._.V.2.K j f ",
"                            - ) s.L.I.v.W m m ..z.I.I.z...N M ..z.R.I.z...N N ..z.I.I.v...N M ..z.I.I.z...m m ..h.K.I.v.o.J j g ",
"                            - ! ;.c.B.r.W J M { r.B.B.t.{ M M { r.B.B.r.{ M M { t.B.B.r.{ M M | r.B.B.t.{ N M { r.B.B.r.{ m j f ",
"                            - Q -.j.m.u.1.W R O.u.m.x.w. .L L  .q.m.n.r...L L  .q.n.n.q. .L L ..r.x.n.u.+.R R 1.h.S.S.r.{ M j g ",
"                            * Q -.j.S.M.i.e.e.i.k.m.l.f.<. . .<.f.x.l.f.=. . .<.f.n.l.f.<. . .*.f.x.n.x.u.e.y.b.K.W.I.h.X.N j f ",
"                            - Q -.j.L.K.K.Z.J.G.G.S.A.g.t.q.q.f.k.m.m.k.a.q.0.f.k.m.m.k.a.q.0.f.j.m.S.G.G.T.E._.}.|.).N.>.K x f ",
"                            * s %.j.L.~.{..X}.(.W.L.D.A.m.m.l.A.A.D.D.S.m.m.m.m.A.D.D.S.m.m.m.m.S.D.L.Y.(.}..X#X$X#X'.V.1.K g f ",
"                            & i ' p.A.!..X#X$X+X].!.U.L.L.P.P.P.U.U.U.U.U.U.L.U.P.U.U.U.U.U.P.P.P.U.!.^. X@X#X$X#X.XQ.b.X.n f 6 ",
"                            o e d ' p.D.].$X&X$XoX[.^.^././.]./.^./.^././.(.].(.(.^.^.(.(.(.].^.^.^.(.|.XX@XOX.X_.E.N.5.I h 6 , ",
"                            o & e i ' s.U.@X&X&X$XoXXX.XXXXXXXoXoXXXXXXXoXoXoXXXoXXXoXXXoXoXoXOX@XXXXX X X[.^.K.b.y.+.P h 2 % @ ",
"                                . * p %.D.XX&X&X&X&X$X$X$X$X$X$X$X$X$X$X$X$X$X$X$X$X$X$X$X%X$X$X$X$X@XXX].R.S.h.1.T n h < @ X . ",
"                                    e ' A. X&X&X&X&X&X&X%X%X$X$X$X#X$X$X$X$X$X$X$X$X$X$X$X$X$X$X$X$X+X{.R.S.f.,.R v f 3 $ X     ",
"                                    - _ m.|.&X&X&X&X&X%X#XoXXXXXXXXXXXXX XXXXX.X.X XXX XXX XXXoX+XXX[.W.B.r.@.T M k 8 ; @ .     ",
"                                    - ' c.|.&X&X&X&X&X$XXX{.^.^.~.^.~.^.~.^.^.~.^.^.^.^.^.^.^.(.(.^.R.B.q.| L M c j 0 , @ .     ",
"                                    e ' A.|.&X&X&X&X$XoX(.!.U.L.P.U.U.U.U.U.U.U.P.U.P.P.P.U.U.U.U.P.S.u.+.L b x j j 0 3 $ X     ",
"                                . * p $.A.[.$X&X&X$X+X|.~.L.F.F.L.P.U.U.U.U.P.U.U.U.U.U.P.U.P.P.P.F.m.t.O.L M c x j 0 3 $ X     ",
"                              + > i ) ;.A.^.|.oXXX.X[.^.U.L.F.L.U.~.~.~.^.~.^.^.^.~.^.^.^.^.~.!.U.L.m.f.<.} U D b k 0 3 $ X     ",
"                            . > s ' ;.s.D.U.~.^.^.^.!.U.L.F.H.U.^.[. XXXXXXXXX.XXXXXXXXXXX X|.(.!.L.D.l.g.0.@.W K c f , % X     ",
"                            * p ' p.l.D.L.P.P.U.U.U.L.L.F.D.P.~.|.+X$X$X$X$X$X$X$X$X$X$X$X$X+X|.~.L.D.A.m.n.f.,.Y v f , $ X     ",
"e e e e e e e e e e e e > e p ' p.A.P.U.U.U.U.U.U.U.U.L.D.F.U.^..X$X&X&X&X$X$X$X$X$X$X%X%X$X+X`.U.S.m.m.S.D.k.9.W b f 3 @ X     ",
"$.#.#.#.#.#.#.#.#.#.#.' ' $.-.s.F.~.[.[.].].^.^.^.^.~.U.L.L.U.^.XX%X&X&X$X@XoXoXoXoXoX@X@XoX|.W.M.u.q.g.m.D.m.r.{ M 0 , $ X     ",
"D.D.D.D.D.D.D.D.D.D.D.A.D.D.L.!.[.XX@X#X@XoXOXoXoXXX|.^.U.L.U.^.XX%X&X%XoX[.].(.(.].].].[.(.W.B.r.+.O.5.g.m.m.q.{ n f 3 @ X     ",
"|.|.|.|.|.[.|.|.|.|.|.|.|.|. XOX@X#X$X$X$X$X$X$X$X$XoX|.~.U.P.^.XX$X$XOX].Y.P.P.L.P.U.U.U.L.S.u...U U  .q.n.n.q.{ n 0 , $ X     ",
"|.|.|.|.|.|.|.[.|.|.|.|.|.[.|.|..X.X.X.X.X.XOX+X#X#X@X[.!.P.L.~.|.oX+X{.W.S.n.k.l.k.l.m.m.x.f.@.U b b E 9.l.n.q.| b f , @ X     ",
"D.D.D.D.D.D.D.D.D.D.D.D.D.D.D.H.H.J.T.T.J.T.E.).'..X X(.!.L.L.!.(.|.(.E.M.r.5.*.@.5.5.6.6.5.+.Y b j v T 9.l.m.q.| M f , $ X     ",
"#.#.#.#.#.#.#.#.#.#.#.#.#.#.$.&.<.8.3.3.4.8.y.b.K.~.^.~.U.L.L.U.!.~.I.M.9.| Y U P Y Y Y T Y L M k j v E q.x.m.r.{ M f , $ X     ",
"e e e e e e e e e e e e e e r u V S K J J K R ,.h.S.L.P.L.F.F.L.P.L.S.f.+.U n v v n M M n n v c j j n ] q.x.k.q.{ M f , @ X     ",
".       .                   X $ , 9 f g j j v Y @.f.m.A.D.D.D.F.L.D.m.w.O.L n v v M M M b M n v v n L } 7.f.u.5.E v f 3 @ X     ",
"                              . @ ; 3 6 8 0 k M E @.0.g.l.D.F.L.F.F.A.f.5. .] Y Y E E E E E E E ] {  .O.<.5.<.} L c f , $ X     ",
"                                X @ % , 6 f j c S U | 7.g.A.L.L.F.F.S.n.g.w.9.7.7.7.7.7.7.7.0.q.0.q.7.<.+.{ Y K m l 0 3 $ X     ",
"                                  X @ ; 6 0 j k c b L  .q.m.D.F.F.D.D.S.m.x.k.k.k.k.k.k.x.x.l.x.n.l.f.6.{ L v c x j 0 1 % X     ",
"                                    . $ 3 f j j j j v Y ,.f.l.m.m.x.l.k.l.n.l.k.k.k.k.k.k.x.x.x.m.l.u.,.T n j j j j f 3 $ X     ",
"                                      @ , 0 g j g j l D { @.7.0.0.7.7.9.9.0.q.0.q.q.q.q.q.q.q.q.q.q.<.} D l g g j j 0 3 $ .     ",
"                                      @ , 0 j j g g j v L Y ] ] ] E ] ] ] { ] { { { { { { { { { } { E D n j g j j j 0 3 $ .     ",
"                                    X % 6 f j j j j j l c v v n n n b n b n n n n b b n b n n n n n v c k j j j j g f 3 % X     ",
"                            . + * - 5 7 q f j j j j g j j j j j j j j j j j j j j j j j j j j j j j j j j j j j j j 0 6 % @ X . ",
"                            o e d ) ` ( Z k j g g g g g g g g f f f f g f g g f f f f g f g f f f f f f g j j j j g f 6 , ; % $ ",
"                            * d %.s.g.9.{ m j g g g f g g g g g f f f f g g g g f f f g f g g g g f f g j j j j j g f 9 9 6 3 3 ",
"                            > _ j.W.W.V.1.S j g f j j j j j j j j j j j g j j j j j g j g j j j j j g j j j j j j j j j g f 0 0 ",
"                            e ' c.].{.J.3.K j j k v v v k j j l c v v c k j j l c v v v k j k k v n v c l j j l l v v c x k j j ",
"                            > _ l.^.`.C.2.S k v S Y Y L v k l n L Y Y L v l l n L Y Y D v c k v D Y Y D n l l n D Y Y L M x j j ",
"                            - ) s.L.I.b.o.N v D ] @.*.| K v c D } @.@.{ D v v D } ,.@.{ D v v D } @.@.} D v c D } @.@.} L v j j ",
"                            - ! ;.m.S.r.| M v Y <.u.f.2.Y b b Y <.f.f.<.Y b v Y <.f.f.<.Y v v Y <.f.f.<.Y b b Y <.f.f.2.Y b j g ",
"                            - Q -.j.n.9.W M m E 9.n.l.7.E M m E 9.l.n.9.E M m E 7.k.x.9.E M M E 9.n.k.9.E b M E 9.n.l.q.] M j f ",
"                            - Q -.j.n.9.W M M { q.m.m.q.{ M M { r.m.m.q.{ M M { r.m.m.r.{ M M W q.m.m.q.{ N M { q.m.m.r.{ M j g ",
"                            - Q -.j.m.q.W M N W r.B.m.w.{ M M { r.m.B.r.{ M M { r.m.B.r.{ M N { u.m.m.q.{ M M { r.m.B.r.| M j g ",
"                            - Q -.j.l.9.W n b E 7.l.k.7.E M n E 7.k.k.7.E n m E 7.l.k.7.E m b E 9.l.k.7.E M n E 9.k.l.0.] M j g ",
"                            & p #.p.a.@.P z z H @.a.a.&.H z z H &.a.w.&.H z z H &.w.w.&.H z z H @.a.a.&.H z z H @.a.a.*.I z f 8 ",
"                            + r ! ' [ / B q q B / [ [ / B q q B / [ #./ B q q B ^ [ #./ B q q B / [ [ / B q q B / [ [ / B q 6 , ",
"                            o * r p p y 4 < < 4 y a p y 4 < : 4 y p p y 4 : : 4 y p a y 4 : < 4 y a p y 4 < : 4 y p p y 4 : % $ ",
"                              o o * * # O X X o # & * # O X X o # & * # O X X O # * & # # X X o # & * # O X X o # * * # # X X X ",
"                                                                                                                                ",
"                                                                                                                                ",
"                                                                                                                                ",
"                                                                                                                                ",
"                                                                                                                                ",
"                                                                                                                                "
};
