/* XPM */
static char *sprite_1_12_resized[] = {
/* columns rows colors chars-per-pixel */
"64 64 204 2 ",
"   c #000001",
".  c #010709",
"X  c #090708",
"o  c #030B0D",
"O  c #0A0B0C",
"+  c #100E0F",
"@  c #000F12",
"#  c #090E10",
"$  c #001215",
"%  c #0E1214",
"&  c #01161A",
"*  c #00191C",
"=  c #141516",
"-  c #181718",
";  c #161A1B",
":  c #1A1A1A",
">  c #011D22",
",  c #091E21",
"<  c #1E1F20",
"1  c #0D2124",
"2  c #00252B",
"3  c #00292F",
"4  c #172629",
"5  c #16282B",
"6  c #002C32",
"7  c #003037",
"8  c #0D3339",
"9  c #00383F",
"0  c #103438",
"q  c #173A3F",
"w  c #232324",
"e  c #232B2D",
"r  c #2B292A",
"t  c #213033",
"y  c #293133",
"u  c #23383B",
"i  c #363636",
"p  c #363738",
"a  c #363A3B",
"s  c #3C3B3C",
"d  c #003C45",
"f  c #003F48",
"g  c #363F41",
"h  c #01434B",
"j  c #08474E",
"k  c #0A484F",
"l  c #16464D",
"z  c #194348",
"x  c #074850",
"c  c #0D4A52",
"v  c #134E55",
"b  c #175057",
"n  c #1B5057",
"m  c #19535A",
"M  c #18545C",
"N  c #274246",
"B  c #2A4346",
"V  c #23474C",
"C  c #3B4445",
"Z  c #344F52",
"A  c #205056",
"S  c #22555B",
"D  c #2B555A",
"F  c #25595F",
"G  c #395357",
"H  c #3B5559",
"J  c #355A5F",
"K  c #1E5A61",
"L  c #245B62",
"P  c #2C5D63",
"I  c #375C61",
"U  c #336166",
"Y  c #366469",
"T  c #39656A",
"R  c #37686E",
"E  c #3E686D",
"W  c #356B72",
"Q  c #3E6C71",
"!  c #444243",
"~  c #494748",
"^  c #4F4F50",
"/  c #4F5253",
"(  c #475658",
")  c #535354",
"_  c #5C5C5C",
"`  c #615E5E",
"'  c #4A6265",
"]  c #406A6F",
"[  c #5E6465",
"{  c #5D696B",
"}  c #436D72",
"|  c #447075",
" . c #4D7276",
".. c #477479",
"X. c #4D7579",
"o. c #4F797E",
"O. c #52767A",
"+. c #54787D",
"@. c #5B797D",
"#. c #646464",
"$. c #646A6B",
"%. c #6C6C6D",
"&. c #617477",
"*. c #667678",
"=. c #667A7C",
"-. c #747272",
";. c #797777",
":. c #4E7C82",
">. c #517D83",
",. c #5D7D80",
"<. c #627E81",
"1. c #598287",
"2. c #5A8489",
"3. c #668184",
"4. c #6A8386",
"5. c #6F8689",
"6. c #64898D",
"7. c #6C898D",
"8. c #7C8385",
"9. c #70878A",
"0. c #748A8D",
"q. c #788C8F",
"w. c #638D92",
"e. c #6A8D91",
"r. c #768E91",
"t. c #7B9295",
"y. c #73969A",
"u. c #799A9E",
"i. c #828282",
"p. c #80888A",
"a. c #8C8B8B",
"s. c #898F90",
"d. c #819193",
"f. c #859597",
"g. c #82999C",
"h. c #8D9A9C",
"j. c #959595",
"k. c #949D9E",
"l. c #9B9D9D",
"z. c #859EA1",
"x. c #969FA0",
"c. c #9F9FA0",
"v. c #8DA2A4",
"b. c #89A5A8",
"n. c #97A1A2",
"m. c #9CA3A4",
"M. c #97A7A9",
"N. c #92ABAE",
"B. c #9EA8A9",
"V. c #95AEB1",
"C. c #9BAFB2",
"Z. c #9BB3B6",
"A. c #98B4B7",
"S. c #9CB5B8",
"D. c #A2A3A3",
"F. c #A3AAAA",
"G. c #ABABAB",
"H. c #B1AFAE",
"J. c #A5B3B4",
"K. c #ACB4B5",
"L. c #A2B7BA",
"P. c #ABBABC",
"I. c #B5B5B5",
"U. c #B9B7B7",
"Y. c #B3BCBD",
"T. c #B9B9B9",
"R. c #C0BFBF",
"E. c #C4C0BF",
"W. c #ABBFC2",
"Q. c #B6BFC0",
"!. c #AAC1C4",
"~. c #AFC6C8",
"^. c #BCC3C4",
"/. c #B8C7C9",
"(. c #BDCED0",
"). c #C4C3C3",
"_. c #C7C7C7",
"`. c #C4C9CA",
"'. c #CCCBCB",
"]. c #D1CFCF",
"[. c #D1D0CF",
"{. c #C6D1D2",
"}. c #CCD4D5",
"|. c #CFD9DA",
" X c #D3D2D2",
".X c #D9D6D6",
"XX c #D2D7D8",
"oX c #D4DCDD",
"OX c #DBDCDC",
"+X c #E0DFDE",
"@X c #D8DFE0",
"#X c #DBE4E5",
"$X c #DFE7E8",
"%X c #E3E3E3",
"&X c #E8E7E6",
"*X c #E8E8E7",
"=X c #E5EAEB",
"-X c #EBEAEA",
";X c #EFEFEF",
":X c #EEF2F2",
">X c #F4F4F4",
",X c #F9F6F6",
"<X c #F1F7F8",
"1X c #FEFEFE",
/* pixels */
"    . $ 2 6 d d d d d d d d 6 > @                                                   - ` H.%X=X~.w.K h d d d 7 2 & .             ",
"    o * 2 d h h h h h h h h d 6 * o                                   .           X w #.G.OX#X!.w.L h d f h d 3 * .             ",
"    o 1 q n K L M m m K K L S V u e w < w < w w w w w w w w w w w w w w w w w : : w g %.D.`.(.A.w.Y m v v b l 0 , o             ",
"    % t H +.2.1.o. .} X.>.2.,.@.{ _ _ _ _ _ _ _ _ _ _ _ _ _ _ _ _ _ _ _ _ _ _ _ ` ` %.8.j.Z.A.b.e. .} Q } } I B 4 #             ",
"    : C =.n.Z.C.z.r.r.g.b.A.S.J.F.m.l.l.c.l.c.m.D.D.D.l.D.D.l.D.c.c.m.c.D.D.D.D.D.D.m.h.y.e.6.6.7.5.0.0.r.5.&.( t =             ",
"    : ) d.^.|.{.Y.F.B.K.`.oX#X#X#XOXOXOXOXOXOXOXOXOXOXOXOXOXOXOXOXOXOXOXOXOXOX+X%XoX`.N.6.Q Y  .4.d.x.m.M.k.p.[ a =             ",
"    4 ) s.^.XX{.Y.B.F.Y.}.*X>X,X1X1X1X1X1X1X1X,X,X>X>X:X>X>X;X>X>X>X,X>X>X>X>X;X:X#X(.b.:.K n P +.d.x.m.m.k.p.[ a =             ",
"    - C *.v.Z.V.z.r.d.M.^.OX-X,X1X1X1X1X1X1X1X1X>X-X*X&X&X&X&X-X-X&X-X-X-X=X%XOX}.~.A.w.W c j m E ,.5.r.r.9.&.( y =             ",
"    = t G  .1.:...} +.0.M.^..X&X,X1X1X1X1X1X1X>X%X.X[.'.'.].].].]. X X X.X X`.P.N.y.1.W K j h c S U E } } E J N 4 O             ",
"    o 1 d n L K M M P O.t.F.)..X-X,X1X1X1X1X,X*XXX).Y.U.U.T.T.T.T.T.T.T.T.U.F.g.1.R K b x h h j v v m M M m l 0 , o             ",
"    o , u A L K M M P  .0.x.T.].%X>X1X1X1X>X-XOX'.).T.U.U.Y.U.U.H.H.I.H.I.G.n.5.] n h d d h h j c b m m m m l 0 , o             ",
"    = t G O.1.>...}  .<.p.m.U.'.%X>X1X,X>X&XOX.X].'._._.'.'.).R.U.I.G.H.I.F.j.3.T c d d d h j v L Y E } } ] J N 4 #             ",
"    ; C *.v.Z.V.z.r.q.d.k.D.T.'.%X>X,X-X+X X'.'..XOX+X#X%X%XOX].).U.H.H.H.G.k.4.T v d d d d v P } <.9.r.r.9.&.( y %             ",
"    4 ) s.^.XX{.Y.F.x.l.m.G.T.'.%X>X>X&X X).).'.OX-X>X,X,X>X*XoX).U.G.H.H.G.k.5.E v h d d h v Y =.t.x.m.m.k.p.[ a =             ",
"    < ^ s.^.oX{.Y.B.x.x.m.G.T.'.&X>X>X%X'.U.U.'.+X>X1X1X1X>X*X}.Y.F.n.D.G.G.n.5.] b h d d h v U @.t.k.m.M.k.8.#.a =             ",
"    - C *.v.A.V.z.r.r.d.j.F.T. X%X>X>X#X_.U.U._.#X,X1X1X>X*XXXQ.M.t.q.f.l.D.x.5.] n h d d h c P } 3.5.r.r.0.&.( t =             ",
"    % 5 H O.,.>.X.}  .<.t.D.T.[.&X>X>X+X_.U.U._.%X>X,X,X&X X^.M.0.+. .3.f.m.x.9.} b h d d h j n P Y E } } E J N 4 O             ",
"    # 1 d D L L M M P  .0.n.U.[.&X>X>X#X'.U.U.'.+X>X,X-X.X^.B.r. .P P  .q.x.k.9.} m h f d h j k v v n M M n l 0 1 o             ",
"    o 1 q n L K M M P  .9.M.U. X&X>X>X%X'.Y.U.'.%X>X>X&X.XU.x.3.Y m m ] 9.x.k.q.} v h d f h h x v v m M M m l 0 , o             ",
"    % t G  .1.:...}  .3.p.D.T.[.&X>X>X+X'.U.U.'.+X>X>X&X].I.k.=.P v v T 5.k.k.q.} m h d d h j v F Y E } } E J N 4 #             ",
"    - C *.v.Z.V.z.t.q.d.j.F.T. X%X>X>X+X'.U.Y.'.%X>X>X&X XI.k.=.U v b E 5.k.k.9.] m h d d h c P } <.5.r.r.5.&.( y %             ",
"    : ) s.^.|.}.Y.B.k.l.m.G.T.'.%X>X>X%X_.U.T.'.+X>X>X&X[.U.x.3.T v b E 9.k.x.q.} n h d d h v Y @.d.n.m.m.k.p.[ a =             ",
"    4 ^ s.^.XX{.Y.B.n.l.m.G.T.'.&X>X>X%X'.U.T.'.#X>X>X&X XU.x.3.T b m E 9.k.k.9.} m f d d h v Y <.d.k.m.B.k.p.[ a =             ",
"    ; C *.v.Z.V.z.r.q.d.k.F.U.].%X>X>X#X'.U.U.'.%X,X,X-X.XT.n.4.T m n E 9.k.k.q.] b h d d h c P } <.9.r.r.9.&.( t =             ",
"    % t G  .1.>...}  .<.d.m.U.[.&X>X>X#X'.U.Y.'.%X>X,X-X.XT.n.4.T b b ] 9.k.k.0.} b h d d h x n P Y E } } E J N 4 O             ",
"    o 1 q A L K M M P  .0.m.U.[.&X>X>X%X_.U.T.'.%X>X>X&X].U.x.3.T b b E 9.k.l.9.} n h d d h h k c v m m M m l 0 1 o             ",
"    # 1 q n L L M m P  .9.n.U. X&X>X>X+X'.U.U._.OX&X*XoX^.F.d.+.P v m ] 5.k.x.q.} b h d h h h k v v m M m m l 0 , o             ",
"  . = 5 G  .1.>.X.}  .<.d.M.U.[.&X>X>X%X'.U.I.T.].oX X^.B.t.@.Y b k v ] 5.k.x.9.} m h d d h j b P U E } } E J N 4 O             ",
"    - C =.v.A.N.z.r.q.d.j.F.U.[.%X>X>X%X'.I.H.U.E.).Q.B.r.X.U n j h v E 9.k.k.0.} n h d d h c P } <.9.r.r.9.&.( y %             ",
"    : ) s.^.|.{.Y.B.n.x.m.G.U. X&X>X>X%X'.U.H.K.U.U.F.d.+.P b h h h b } 0.x.k.0.} n h d d h v Y @.d.x.m.m.k.p.[ a =             ",
"    4 ) s.^.XX}.Q.B.n.l.D.G.U.'.%X>X>X*XXX).U.U.I.G.n.q. .P n v v b P +.t.n.x.0.} n h d d h b Y ,.d.k.m.M.k.8.#.a =             ",
"    - C *.v.S.V.z.r.q.d.k.F.U.'.%X>X,X;X%X X).R.U.G.m.q.@.| T U U E X.7.j.D.x.0.] b h d d h c P } <.9.r.r.0.&.( t =             ",
"  . % t G  .1.:.X.}  .=.d.m.U.].%X>X1X,X-X&XOX'.Q.I.B.j.q.9.<.<.4.5.r.h.D.G.n.q.} n h d d h j v L Y E } } E J N 4 O             ",
"    o 1 q n L K M M P  .0.n.U.].&X,X1X1X1X,X-X.X_.I.G.D.D.n.c.k.k.k.n.D.G.G.k.5.] n h d h h j k v v m m M m l 0 1 o             ",
"    o 1 q A L K M M P  .9.n.U.'.%X>X1X1X1X1X>X%X'.T.H.H.I.I.I.I.I.H.G.G.D.n.d.@.Y v h d d h h x v v m m M m l 8 , o             ",
"    % t G  .1.:...}  .<.d.m.U.'.%X>X1X1X1X1X1X&X].R.I.T.E.'.]._.R.U.G.D.h.q.,.} L c h d f h j b F Y E } } E I B 4 #             ",
"    ; C =.v.Z.V.z.r.q.d.h.D.U.'.OX>X1X1X1X1X1X-X].R.U.E. XOX+X.X'.T.F.h.5. .T F v x h h d h c P } <.5.r.r.9.&.( y %             ",
"    4 ) s.^.XX}.Y.B.x.n.m.G.U.'.%X,X1X1X1X1X>XOX_.U.U.).OX-X-X+X].U.n.q. .P v j j h h d h h v T ,.d.n.m.m.k.p.[ a =             ",
"    < ^ s.^.|.{.Y.B.n.D.F.U.^..X*X<X1X1X:X=XoX/.K.B.F.^.OX:X>X#X).F.d.@.Y v h h d h h d d h v U @.d.x.m.m.k.8.[ a =             ",
"    - C *.v.Z.V.g.t.t.h.G.^..X-X,X1X1X=X|.~.Z.v.y.r.g.K.}.:X;XoXP.f.,.E S x h d h h h h d h c F } <.9.r.t.5.&.( t =             ",
"    % 5 H O.,.>.| } +.t.L.[.*X,X1X1X>X|.L.u.2.:.Q } ,.v.(.=X=X{.b.,.Y S v h h d h h h h d h h v F U E } } E J N 4 O             ",
"    # 1 d D L M M m R e.S.#X,X1X1X1X&X!.y.Q K c c m W y.~.=X$X~.y.E b j h h h h h h h h h h h k v b n M M m l 0 1 o             ",
"    o 1 q m L K M M R e.L.#X;X,X>X+X`.z.O.n h 9 d f L w.W.#X#X!.w.L h d 9 d d 9 9 9 d h c v n m m b m M M m l 8 , o             ",
"    % t G X.1.>.X.} >.u.P.XXOX.X).G.s.&.Z 8 3 2 6 d K w.W.#X#X!.w.K d 7 6 3 3 3 2 3 8 z D T } | } Q Q Q } E I B 4 #             ",
"    - C =.v.S.V.z.t.t.M.Y.).).H.a.%./ a 5 , * > 3 d K w.!.#X#X!.w.K d 6 2 * * $ $ * 5 N ' <.9.r.r.0.7.r.r.7.@.( y %             ",
"    : ) s.^.|.}.Y.B.M.D.K.I.D.i._ i 4 = O o @ * 2 d L w.!.#X#X!.w.L d 3 * $ o   . . ; g { p.k.n.n.k.k.n.n.j.p.[ a =             ",
"    < ^ a.T. X_.U.c.j.j.j.j.i.` p -         . @ > 7 S 6.!.#X#XW.w.S 7 > @ .         = i _ i.j.l.l.j.j.k.l.j.i.` a =             ",
"    - s %.j.c.l.a.;.-.-.-.%._ ! < X           . $ 2 V <.P.#X#XP.<.V 2 $ .           + r ~ #.-.;.;.-.-.-.;.-.#.~ r +             ",
"    O w s ) ` _ ) ~ ! ! ! s i w =               . & u *.K.@XOXK.*.u & .             X - r a ! ~ ! ! ! ! ~ ! a r : X             ",
"    X O - < w w : - - - - = = % X                 . e $.G.OXOXH.$.e .                 X + = - - - - : : - - = + O               ",
"                                                    w #.G.OXOXG.#.w                                                             ",
"                                                    w #.G.OX.XG.#.w                                                             ",
"                                                    w #.G.OXOXG.#.w                                                             ",
"                                                    w #.G.OXOXG.#.w                                                             ",
"                                                    w #.G.OXOXG.#.w                                                             ",
"                                                    w #.G.OXOXG.#.w                                                             ",
"                                                    w #.G.OX.XG.#.w                                                             ",
"                                                    w #.G.OXOXG.#.w               .                                             ",
"                                                    w #.G.OXOXG.#.r                                                             ",
"                                                    w #.G.OXOXG.#.w                                                             ",
"                                                    w #.G.OXOXG.#.w                                                             ",
"                                                    w #.G.OXOXG.#.w                               .                             ",
"                                                    w #.G.OXOXG.#.w                                                             ",
"                                                    w #.G.OXOXG.$.w                                                             "
};
