/* XPM */
static char *sprite_1_8_resized[] = {
/* columns rows colors chars-per-pixel */
"64 64 200 2 ",
"   c #000001",
".  c #010709",
"X  c #020A0C",
"o  c #0C0B0C",
"O  c #000F13",
"+  c #090E10",
"@  c #100F10",
"#  c #001215",
"$  c #0E1214",
"%  c #001519",
"&  c #00181C",
"*  c #141516",
"=  c #171718",
"-  c #161A1B",
";  c #1B1A1B",
":  c #201D1E",
">  c #001D22",
",  c #091E21",
"<  c #1E1F20",
"1  c #022227",
"2  c #0D2124",
"3  c #00252A",
"4  c #00292E",
"5  c #0E282C",
"6  c #172629",
"7  c #1B2629",
"8  c #012C32",
"9  c #172F33",
"0  c #003037",
"q  c #00343B",
"w  c #0E363B",
"e  c #00383F",
"r  c #103438",
"t  c #173A3F",
"y  c #232324",
"u  c #272A2C",
"i  c #213033",
"p  c #293133",
"a  c #23383B",
"s  c #363636",
"d  c #363A3B",
"f  c #3C3B3C",
"g  c #403E3F",
"h  c #003C44",
"j  c #003F48",
"k  c #1A3E42",
"l  c #01424A",
"z  c #09474F",
"x  c #09484F",
"c  c #16464C",
"v  c #054850",
"b  c #0D4B52",
"n  c #134E55",
"m  c #175057",
"M  c #1A5057",
"N  c #16525A",
"B  c #1A535A",
"V  c #1D585F",
"C  c #274246",
"Z  c #26464A",
"A  c #3B4445",
"S  c #2C4F53",
"D  c #205056",
"F  c #23555B",
"G  c #23585F",
"H  c #395357",
"J  c #3B5559",
"K  c #355A5F",
"L  c #1E5A61",
"P  c #245B62",
"I  c #2B5D63",
"U  c #375C61",
"Y  c #326066",
"T  c #366369",
"R  c #3A666B",
"E  c #37686E",
"W  c #3D686D",
"Q  c #3D6B71",
"!  c #434242",
"~  c #494748",
"^  c #4F4F50",
"/  c #4F5253",
"(  c #475658",
")  c #48585B",
"_  c #545353",
"`  c #525B5D",
"'  c #5D5C5C",
"]  c #406A6F",
"[  c #5E6465",
"{  c #436D72",
"}  c #467075",
"|  c #4D7276",
" . c #467479",
".. c #4C767B",
"X. c #4F797E",
"o. c #53767A",
"O. c #54797D",
"+. c #5C7A7E",
"@. c #646464",
"#. c #646A6B",
"$. c #6D6B6C",
"%. c #617477",
"&. c #667678",
"*. c #697779",
"=. c #737272",
"-. c #7C7A7A",
";. c #4F7D83",
":. c #517D83",
">. c #5E7D81",
",. c #627E81",
"<. c #568186",
"1. c #588287",
"2. c #5B868B",
"3. c #5C898E",
"4. c #5E8B90",
"5. c #668184",
"6. c #6A8386",
"7. c #6F8689",
"8. c #64888C",
"9. c #6E898C",
"0. c #70878A",
"q. c #748A8D",
"w. c #788C8F",
"e. c #628D92",
"r. c #698E92",
"t. c #768E91",
"y. c #7A8F91",
"u. c #7B9294",
"i. c #72969A",
"p. c #7D999C",
"a. c #828282",
"s. c #808889",
"d. c #8C8B8B",
"f. c #898F90",
"g. c #819193",
"h. c #889799",
"j. c #8B9798",
"k. c #839A9D",
"l. c #959595",
"z. c #949D9E",
"x. c #999D9D",
"c. c #849EA1",
"v. c #969FA0",
"b. c #8DA2A4",
"n. c #8CA6AA",
"m. c #97A1A2",
"M. c #9CA3A3",
"N. c #96A6A8",
"B. c #93ABAE",
"V. c #9EA8AA",
"C. c #95AEB1",
"Z. c #9BB3B6",
"A. c #9DB6B9",
"S. c #A2A3A4",
"D. c #A5A7A8",
"F. c #A4AAAA",
"G. c #ABABAB",
"H. c #B0AFAF",
"J. c #A4B2B3",
"K. c #ACB3B4",
"L. c #A3BABD",
"P. c #ABBABC",
"I. c #B5B5B5",
"U. c #B8B6B6",
"Y. c #B9B8B7",
"T. c #B3BBBC",
"R. c #B9B9B9",
"E. c #C0BEBE",
"W. c #A4BEC1",
"Q. c #B7BFC0",
"!. c #A7C0C3",
"~. c #AAC1C4",
"^. c #BCC3C4",
"/. c #B8C6C8",
"(. c #BBCBCC",
"). c #C4C4C4",
"_. c #CBC7C6",
"`. c #C4CACB",
"'. c #CCCBCB",
"]. c #D0CECE",
"[. c #D1D0CF",
"{. c #C7CFD0",
"}. c #C7D1D2",
"|. c #CBD3D4",
" X c #CFD9DA",
".X c #D3D2D2",
"XX c #D6D6D7",
"oX c #D4DBDC",
"OX c #DBDBDC",
"+X c #E0DFDF",
"@X c #DBE4E5",
"#X c #DFE7E8",
"$X c #E3E3E3",
"%X c #E8E6E6",
"&X c #E4EAEA",
"*X c #EBEAEA",
"=X c #EDF1F1",
"-X c #F4F4F4",
";X c #F9F7F7",
":X c #FEFEFE",
/* pixels */
"                                                    y @.G.OXOXG.@.y                                                             ",
"                                                    y @.G.OXOXG.@.y                                                             ",
"                                                    y @.G.OXOXG.@.y                                                             ",
"                                                  . y @.G.OXOXG.@.y                                             .               ",
"                                                    y @.G.OXOXG.@.y                                                             ",
"                                                    y @.G.OXOXG.@.y                                               .             ",
"                                                    y @.G.OXOXG.@.y                                                             ",
"                                                    y @.G.OXOXG.@.y                                                             ",
"                                                    y @.G.OXOXG.#.y                                                             ",
"                .                                   y @.G.OXOXG.@.y                                                             ",
"                                                    y @.G.OXOXD.@.y                                                             ",
"                                                    y @.D.OXOXG.@.y                                                             ",
"                                                    y @.G.OXOXG.@.y                                                             ",
"                                                    y @.G.OXOXG.@.y                                                             ",
"    . o * : : y ; ; = = - - * o .                 . u #.K.OXOXG.#.u .               . @ = y y : : ; - - ; * * @ +               ",
"    @ y ! _ ' ' _ ~ ! ! ! f s y *               . % a &.K.OX@XK.&.a % .             o y g _ ' ' _ ~ ! ! ! ! f u - o             ",
"    - f $.l.S.x.d.-.=.=.=.$.' ! y .           . # 3 Z 5.P.@X@XP.,.Z 3 # X           = f $.l.x.x.d.-.=.=.=.=.@.~ u *             ",
"    ; ^ d.R.]._.I.M.l.l.l.l.a.' s =         . O > 0 F 8.P.@X@X~.8.F 0 > # .         < _ d.E..X'.I.x.l.x.l.l.a.' s *             ",
"    7 _ f.^. X{.P.V.M.D.K.I.S.a.' s y : : y 7 5 8 l P e.~.@X@X~.e.P h 3 & O .     . 6 ` j.).oX}.T.V.x.x.M.z.w.[ s *             ",
"    = A *.b.A.C.b.u.u.N.T.`.).D.d.$.' ' ' ' ` S c b L 4.!.@X@X!.e.P j 8 1 > & # # & 9 ) 7.B.L.Z.b.u.9.q.q.0.%.) p $             ",
"    $ i J | 1.:. .{ :.p.P.XXOX.XE.G.S.S.S.S.f.&.I n P 3.!.@X@X!.4.L l 0 8 8 4 3 4 4 w D ] 1.8.1.;.Q { Q Q W K C 6 +             ",
"    + 2 k M P L N V E r.L.oX-X-X*X$XOX$X+XOX/.b. .G P 3.W.@X@X~.e.I l h e h h e e h j c n V P L V B N B B N c r , X             ",
"    X 2 t M P L N B E 8.L.oX-X:X:X:X:X:X:X:X#XL.8.E E e.~.#X#X/.i.E N l l l l l l l l l l l z z n m N B V M c w , X             ",
"    $ i J | :.;. .{ O.p.J.|.*X-X:X:X:X:X:X:X=X(.c.1.1.b.(.&X&X`.n.>.R G n v l l l l l j j h j n G Y W { { W K C 6 $             ",
"    - A &.b.Z.B.c.t.u.z.J.).XX$X-X:X:X:X:X:X-X|.Z.k.k.J.XX*X=XoXP.k.,.] G b l l l l l j h j z F { ,.7.w.w.7.%.( p $             ",
"    7 _ d./.oX}.T.V.m.M.F.I.)..X%X-X:X:X:X:X-XoXR.F.F.^.OX=X-X@X`.D.g.+.T n l j j l l j j l n T +.u.z.V.M.z.s.[ s *             ",
"    ; _ d./.oX}.T.V.m.x.S.G.Y.'.$X-X:X:X:X:X-XOX`.U.U.).XX*X*X+X'.U.v.6.W n l j j l l j j l n T >.g.z.M.V.z.s.[ d *             ",
"    - A &.b.Z.C.c.y.w.u.j.S.U.'.$X-X:X:X:X:X;X$X'.Y.U.).].XXOXXX).Y.M.7.W n j h j j l j j l x I { ,.7.w.t.7.%.( p $             ",
"    $ 9 J | <.:. .{ | ,.s.M.U.'.$X-X:X:X:X:X-X$X'.Y.I.I.Y.).).).E.I.v.7.W n j h j l l l l l z m P T W { { ] K C 6 +             ",
"    + 2 t D P L B B I | q.M.U.].$X-X:X:X:X:X-X$X'.Y.I.G.I.U.U.U.I.H.v.7.] m l j j l l j l l l z n n M N B N c r , X             ",
"    X 2 t D P L B B I | 0.M.U..X$X-X:X:X:X;X*X+X'.).U.U.U.U.U.U.I.H.M.q.| I n z z l l l l l l b n n N B B N c r , X             ",
"    $ i J | 1.:. .} ..,.g.M.Y.'.$X-X:X-X*X%X@XXX.X].'.'.`.'.`.).E.I.D.j.6.| R G n l l j j l z M G T ] { { W U C 6 +             ",
"    - A &.b.Z.C.k.u.w.g.z.D.Y.{.$X-X;X=XOX.X].|.oXOX$X$X$X$XOX.XE.Y.G.M.j.q.,.{ P n j j j j b P { ,.9.t.t.0.%.( p $             ",
"    7 / d./.oX}.T.D.v.v.M.G.Y.].$X-X-X$X.X).E.'.OX*X-X;X-X-X*XOX).U.G.D.S.v.g.>.T n j h h l n R &.g.v.M.M.z.s.[ d *             ",
"    ; _ f./. X}.T.V.z.v.M.G.U.].$X-X-X@X'.Y.Y.'.+X-X:X:X:X-X%X|.R.F.M.M.D.G.z.7.] m l h h l n R ,.y.v.N.M.v.s.[ d *             ",
"    - A &.b.Z.B.b.t.w.g.z.D.U.].%X-X-X+X'.U.U.`.+X-X:X:X-X*X|.^.N.g.y.h.M.D.M.q.{ N l h j j b P { ,.7.y.t.7.%.( p $             ",
"    $ i H | 1.<. .} | 5.g.M.Y.[.%X-X-X+X`.U.U.`.$X-X;X-X$XXXQ.N.9.o.o.6.j.S.M.q.] M l h j l z m P R ] { { W K C 6 +             ",
"    X 2 t D P L N B I } 0.M.U.[.%X-X-X$X'.U.R.'.$X-X;X*XOX).D.t.| I I | y.v.v.q.{ m l j j l l z n n N B M N c r , X             ",
"    + 2 t M P L B B I | q.M.Y.[.$X-X-X+X'.U.U._.$X-X-X%X.XU.m.7.T N N ] 7.z.z.q.{ m l j j j l b n n m M V m c r , X             ",
"    $ i H | <.<. .{ | ,.g.M.Y.[.$X-X-X$X'.R.U.'.$X-X-X%X'.I.z.%.U n n T 7.z.z.q.{ m l h j l z m G T ] { { W K C 6 +             ",
"    - A *.b.Z.C.b.t.w.g.z.S.R.|.%X-X-X+X'.Y.Y.'.$X-X-X%X[.U.z.,.Y n n R 7.z.z.q.{ N l h h l b P { ,.7.w.w.7.%.( p *             ",
"    ; / f.^.oX}.T.V.m.v.M.G.U.'.$X-X-X@X_.Y.U.'.+X-X-X$X.XY.x.,.T N N W 0.z.z.q.] M l h h l n T >.u.z.V.M.z.s.[ s *             ",
"    7 _ f.^. X}.T.V.M.z.M.G.Y.].$X-X-X$X'.R.R.'.$X-X-X%X.XY.v.5.R m N ] 0.z.z.q.{ m l h h l n R +.g.z.M.V.z.s.[ d *             ",
"    = A &.b.Z.C.k.y.q.g.z.D.U.].%X-X-X$X'.R.U.'.$X-X;X*X.XR.M.6.R N M W 0.z.z.q.{ N l h h j n P { ,.7.w.t.7.%.( p $             ",
"    $ p H | 1.:. .} | 5.g.M.U.[.$X-X-X+X`.R.R.'.$X-X;X*XXXR.M.6.T m M W 0.z.z.q.{ m l h j j x N I T W { { ] K C 6 +             ",
"    X 2 t M P P B B I | 0.M.U..X%X-X-X@X'.U.U.'.$X-X-X%X.XY.z.,.T m m W 0.z.z.q.{ m l j j l l z n n N B B N c r , X             ",
"    X 2 t M P L V B I ..q.M.Y.[.%X-X-X$X'.U.U.`.OX*X%XOX).D.g.o.U n N ] 0.z.v.q.{ M l h j l l b n n N B B N c r , X             ",
"    $ i H | <.;. .{ | %.g.M.Y.[.%X-X-X$X`.I.I.E.'.OX|.^.N.u.+.W N z m ] 0.v.M.w.{ M l j h l z n G T W { { W U C 6 +             ",
"    - A &.b.Z.C.c.t.w.g.z.D.U.].%X-X-X$X'.U.H.I.E.).R.V.t.| I N z l n ] 0.M.M.w.{ M l h h l n G } 5.7.t.t.0.%.) p $             ",
"    7 _ f.^. X}.T.V.m.x.M.G.Y.'.$X-X-X$X'.Y.H.I.U.U.F.u.o.Y N l l l M ] q.z.z.0.{ m l h h l n T &.u.v.M.M.z.s.[ s *             ",
"    ; _ d./.oX}.T.V.v.x.M.F.Y.'.$X-X-X*XXX).Y.U.U.G.M.t.| I M n n M P | 7.g.u.5.R n l h h l n T %.g.z.M.M.v.s.[ d -             ",
"    - A &.b.Z.C.c.u.q.g.z.D.U..X%X;X:X-X%XXX'.).R.I.S.g.5.| W E W { | O.,.6.&.| G n l j j l n G } 1.7.t.t.7.%.( p $             ",
"    $ 9 J | <.:. .{ | ,.w.M.I.].*X:X:X:X;X*X$X.X).U.G.z.g.w.0.0.0.0.7.,.o.} T G M b l l l l z m I T ] { { W K C 6 +             ",
"    + 2 t D P L B B I | q.M.U.].$X-X:X:X:X-X*XoX).U.G.M.M.M.z.v.M.z.g.5.} P M z l l l l l l l z b m N B B M c r , X             ",
"    X 2 t D P L B B I O.u.F.R.].oXoX#X#X#X@XoX`.T.V.m.z.z.z.z.m.m.m.g.,.T n l j j l l l l l l z b m N N B N c r , X             ",
"    $ i J | 1.:. .} O.t.V.^.'.'./.!.W.W.W.W.A.B.k.t.9.7.7.q.w.t.t.q.5.} P b l j j l l l l l z M I T W { { W K C 6 +             ",
"    - A *.c.Z.C.c.t.p.V.`.OXoX/.C.i.4.2.3.4.1.<...} { ] { { { } } { W I N z l l l l l l l l n G { ,.q.t.t.0.%.( p *             ",
"    < / f.^. X}.P.V.F.R.XX$XoX~.i.} P L L L G V B M m m m M M m N N n b z l l l l l l l j l n T >.u.z.M.M.z.s.[ s *             ",
"    < / f.^. X}.T.V.V.T.'.oX(.B.O.M h q e h h h h h h e h e h h e h e h e e e e e e e h h l n R >.g.z.M.V.z.s.[ d *             ",
"    - A &.N.A.C.b.t.t.c.B.C.n.8.U w 1 > > 1 1 1 3 3 3 3 3 3 3 3 3 3 3 3 4 4 4 4 4 4 8 0 q j x I } ,.0.y.y.0.&.( p $             ",
"    $ i J o.2.>.X.| { ..<.1.X.U k 2 # O O % # % # % % % % % % % % % % % % & & & % & > 3 0 h l N I R ] { { { U C 6 +             ",
"    + 2 t M P P L B B L L L M k 5 % . . . . . . . . . . . . . X . X . . . . . . . . # > 8 h l b n n N B N M c r , X             ",
"    X & 8 h l l l l l l l l h 8 & .                                                 . & 8 h l l l l l l l l h 8 & X             ",
"    . # 1 8 h h h j h h j h 8 1 # .                                                 . % 4 e l l j j j l j j 0 4 % .             "
};
