/* XPM */
static char *sprite_2_19_resized[] = {
/* columns rows colors chars-per-pixel */
"64 64 69 1 ",
"  c #000001",
". c #060708",
"X c #0C0C0D",
"o c #0F0F10",
"O c #141415",
"+ c #171718",
"@ c #191718",
"# c #161819",
"$ c #1B1B1C",
"% c #1F1F20",
"& c #1F2122",
"* c #242424",
"= c #272728",
"- c #262929",
"; c #2C2C2C",
": c #302A2A",
"> c #2D3030",
", c #353536",
"< c #353839",
"1 c #3D3D3D",
"2 c #671E18",
"3 c #691E18",
"4 c #69201A",
"5 c #40302F",
"6 c #5D312D",
"7 c #463D3C",
"8 c #503634",
"9 c #533937",
"0 c #5E3C3A",
"q c #642B27",
"w c #682B26",
"e c #652C28",
"r c #682F2A",
"t c #67332F",
"y c #6A312D",
"u c #673A37",
"i c #663C39",
"p c #693C39",
"a c #6C403C",
"s c #3F3F40",
"d c #3E4141",
"f c #424343",
"g c #444748",
"h c #4C4C4C",
"j c #584C4B",
"k c #4F4F50",
"l c #4F5151",
"z c #555556",
"x c #585757",
"c c #565858",
"v c #5B5B5B",
"b c #664442",
"n c #694745",
"m c #694845",
"M c #664D4B",
"N c #6A504E",
"B c #655655",
"V c #6C5250",
"C c #645857",
"Z c #645C5B",
"A c #6A5B5A",
"S c #66605F",
"D c #69605F",
"F c #5E6161",
"G c #636464",
"H c #696463",
"J c #646768",
"K c #656969",
"L c #696969",
/* pixels */
"                                                                ",
"                                                                ",
"XXXoXXX..                                              .XXXXXXXX",
"======$OX                                              XO$======",
"f7ffd1,=O.                                            .O=,1fff7d",
"zzzcxzh,$X                                            X&,hzxxzzz",
"zzzvGvxf;$X.           .XXXXXXXXXXXX.               .X$;fzGvvzzz",
"11ghxGvzf;*OX         .XO*======--&#X              XO$;7zvGxlg11",
"$=;1hvSvzf,*O.        XO=1gffsfffd<-O.            .O=,fzxGvz1==%",
"Xo$;fzGGvzh,%X        X*,hzxxzzxxzh,%X            X$,hxvGGxf;$XX",
"XX$;fxGJLGxf;$X.      X$,hcvGZGZZCj7:+X.        .X$;fzGLJGzf;$oX",
"$==1hvGLLJvzs;$OX.    XO=,glvGHAVn095;*#X.    .XO$;1zvJLHGxh1;=$",
"1ffhzvJHJGGxzf,=$X    .X+*:dlvZNaye6971-$X    XO=,fzxGGHJGvzhff1",
"zzxxvSGJGGGSvzh,$X      .X$>gcZmy42eajg<&X    X$,hxvFSGGGGGGxzzz",
"zzxxvGGGGGGJJGz1*X        X-dzCny43e0jh,&X    X*7zGJJGGGGGGvxxzz",
"1ffhzvGGGGJHHJxf*X        X*1zZNayq69s1-O.    X=dxJHHGGGGGvxhf11",
"**;1hxGJGGGHLJxd*X        X*1zZAMb085;*OX     X*dcJHJGGGHGvh1;*%",
"XX$;fzSJHGGJHGzf=X        X=1zGHDZj7:$X..     X=dzGKHGGJJGxf;$XX",
"XX$;fxGJGGGGJGzf;$XXXXX.  X*1zGLLGz7*X  .XXXXX$;fxGJGGGJGGxf;$oX",
"$=;1hvJHJGGJJGvh1;=**=$OX X*1zGLLGz1%. .O$***=;1hvGJJGGHHJvh1;*$",
"1ffhxGGHGGGGGGFxhg1717,*O.X$1zGLLGc1$X.o*,1f7dghcFGJGGGGGJGxhf71",
"zzxxvGGGGGGGGGGvxczxxzg,$XX*1zGLLGz1*XX$,fzxxzzxvGGGGGGJGGGvvxzz",
"zzzzzzzvFGGZZCZZSGJJJGcf=$$=szGLKGcd=$$=fxGJJGGZZCCZZGGvxxzzzzzz",
"fff111fhzvZBMbbMCGKLLKvh1;;1hxGHKGch1;;1hvJLLJGZMnbMBZvzhf111dff",
"====&*=1hcZMprrpNSKKKGFchffhcvJJJGvzhffkxGJKLKZNprrpMZvh1=*&*===",
"XXXXXo$>gzCny43rbBGJGGGvvcxvvvGGGGGvxxxvvFGGKGCbr44ynZcg;$XXXXXX",
"   ..X$;gxCny43wiMCZSGGFGGJGGGGGGGGGGGGGGGFZZZMiw33ynBxg>$X..   ",
"   .O$;1lxZMirwetibMCSGKJJJJGGGGGGGGKHJJKGZCMbutwwrpMZxl1;&OX   ",
"  XO*,fzxFZZMbitwwriMZGGKJGKGGGGGGGGJJKKKGZMirwwtibMCZvxzf,*O.  ",
"  X$,hzvSGGGZBMiw32rbCGGJGGGGGGGGGGGGGGGGGCbr33wiMZZGGGFvxf,$X  ",
"  X$,hzvFGGGGGCbr34ybCZGZZCCZGGFGGGZZCCZGZCbr44rbBGJGGGZvzh,$X  ",
"  XO=,fzcvGGKKZMuyruMZZCMabMCZGGFGZBMbbMCZZMurriMZGJKGvxzg1=OX  ",
"  .XO*:1hvGJGGSCMbbMCZZMurruMZGFGGZMurruMZZCMbbMCSGKJGxk7>*OX.  ",
"    .X$;fxGJGGGZZZZZGSBbr44rbZGKJGCbe33rbCGZvCZZZFGGJGxf;$X.    ",
"      X*7zGJKGGSFGGGGGBbr43rbCGKKGZbr44rbCGGGGGGGGGKHGzd*X      ",
"      X*dxGLKGGGGGGKFGZMiyyuMZGFFGZMpyypMZGJKGGGGGGJLJx1*X      ",
"      X*fxJLJGGGGGGFGGZBMnnMCZGGGGZBMnnMBZGGGGGGGGGKLJcf=X      ",
"      X=1zGJJGGGGGGGGGGZZBBZZGGGGGGGZCBZZGGGGGGGGGGGGGz7*X      ",
"      X%,hxvGGGGGGGGGGGFvxxxZGGGGGGvvxzxvGGJGGJGGGGGvxh,$X      ",
"      .+=,fkxZJJHJKKJGGchgghzvGJGGvchgghcSGKKGKHJGZckf,=OX      ",
"      .XO$;szvHLLKJHLJvk1>>1hxGJHGxh1;>1hvKLHKJHLJvk1;$OX.      ",
"        .X$;fzGJJGGJJGz7=$$=fxGHLGcf=$$=fcGJJGGJHGxf;$X.        ",
"          X*,hzxxzzczzh,$XX*1zGLJGz1*XX$,hzxczzxxzh,*X          ",
"          .O=,1f7sddf1,*o X%1zGKLGz1%..o%,1fdd7sf1,=O.          ",
"           XO$========$O. X$1zGLLGz1$X .O$===*====%OX           ",
"           .XXXXXXXXXXX.  X*1zGLHGzf=X  .XXXXXXXXXXX.           ",
"                        .X$;fzGLLGxf;$X.                        ",
"                       XO%;1hvGKJGxh1;$O.                       ",
"                       O*,fhzvGJGGZxhf,=O                       ",
"                      X*,hxvSSGGGGGZZzh,$X                      ",
"               .XXXXXX$;fcGJJGSGGGGJKGzf;$XXXXXX.               ",
"              .X$$*=**;1zZLLJGFGGGGJLKFzf;***=%@X.              ",
"              XO=,1f1fglxGHLJGGGFGGJLHGxhff1f1,=OX              ",
"              X$,hzxxzzvvGGJGGGGGGGGGJGvvxxxxzh,$X              ",
"              X=7zJLJGGvxxxvZGGJGGGvvxxxZGJJLJz7=X              ",
"              X=fvLLLLGxhfghzFJHKGSzkffhxGLLLKvf=X              ",
"              X=fvLLLLFh1;;1hvJLLLvh1:;1hZLLLLvf=X              ",
"              X=1zGLLHz7=$+;fxGLJGz1=$$=fxGKLLz1=X              ",
"              X$,hzxvzh,$oX$,hzxvzh,$XX$,gzxvzh,%X              ",
"              X$=,1fg1,*O..o*,1ff1,*O..O=,1ff1,=OX              ",
"              .XO$===*$O.. XO$*==*$OX  XO$*===$OX.              ",
"               .XXXXXXXX   .XXXXXXXX.  .XXXXXXXX.               ",
"                                                                ",
"                                                                "
};
