/* XPM */
static char *sprite_2_18_resized[] = {
/* columns rows colors chars-per-pixel */
"64 64 126 2 ",
"   c #5B5B5B",
".  c #5F5F5F",
"X  c #646464",
"o  c #676767",
"O  c #696969",
"+  c #6A6A6A",
"@  c #6D6D6D",
"#  c #6E6E6E",
"$  c #6F6F6F",
"%  c #727272",
"&  c #747474",
"*  c #767676",
"=  c #777777",
"-  c #797979",
";  c #7A7A7A",
":  c #7B7B7B",
">  c #7D7D7D",
",  c #7E7E7E",
"<  c #7F7F7F",
"1  c #808080",
"2  c #818181",
"3  c #828282",
"4  c #838383",
"5  c #848484",
"6  c #878787",
"7  c #888888",
"8  c #898989",
"9  c #8A8A8A",
"0  c #8B8B8B",
"q  c #8C8C8C",
"w  c #8D8D8D",
"e  c #8E8E8E",
"r  c #8F8F8F",
"t  c #909090",
"y  c #919191",
"u  c #929292",
"i  c #939393",
"p  c #949494",
"a  c #959595",
"s  c #969696",
"d  c #979797",
"f  c #989898",
"g  c #999999",
"h  c #9A9A9A",
"j  c #9B9B9B",
"k  c #9C9C9C",
"l  c #9D9D9D",
"z  c #9E9E9E",
"x  c #9F9F9F",
"c  c #A1A1A1",
"v  c #A2A2A2",
"b  c #A3A3A3",
"n  c #A4A4A4",
"m  c #A5A5A5",
"M  c #A6A6A6",
"N  c #A7A7A7",
"B  c #A8A8A8",
"V  c #A9A9A9",
"C  c #AAAAAA",
"Z  c #ABABAB",
"A  c #ACACAC",
"S  c #ADADAD",
"D  c #AEAEAE",
"F  c #AFAFAF",
"G  c #B0B0B0",
"H  c #B1B1B1",
"J  c #B2B2B2",
"K  c #B3B3B3",
"L  c #B4B4B4",
"P  c #B5B5B5",
"I  c #B6B6B6",
"U  c #B7B7B7",
"Y  c #B8B8B8",
"T  c #B9B9B9",
"R  c #BABABA",
"E  c #BCBCBC",
"W  c #BDBDBD",
"Q  c #BEBEBE",
"!  c #BFBFBF",
"~  c #C0C0C0",
"^  c #C2C2C2",
"/  c #C3C3C3",
"(  c #C4C4C4",
")  c #C5C5C5",
"_  c #C6C6C6",
"`  c #C7C7C7",
"'  c #C8C8C8",
"]  c #C9C9C9",
"[  c #CACACA",
"{  c #CBCBCB",
"}  c #CCCCCC",
"|  c #CDCDCD",
" . c #CECECE",
".. c #CFCFCF",
"X. c #D0D0D0",
"o. c #D1D1D1",
"O. c #D2D2D2",
"+. c #D3D3D3",
"@. c #D4D4D4",
"#. c #D5D5D5",
"$. c #D8D8D8",
"%. c #D9D9D9",
"&. c #DADADA",
"*. c #DBDBDB",
"=. c #DCDCDC",
"-. c #DDDDDD",
";. c #DEDEDE",
":. c #DFDFDF",
">. c #E1E1E1",
",. c #E2E2E2",
"<. c #E3E3E3",
"1. c #E6E6E6",
"2. c #E8E8E8",
"3. c #E9E9E9",
"4. c #EAEAEA",
"5. c #EBEBEB",
"6. c #ECECEC",
"7. c #EDEDED",
"8. c #F0F0F0",
"9. c #F2F2F2",
"0. c #F3F3F3",
"q. c #F7F7F7",
"w. c #FAFAFA",
"e. c #FBFBFB",
"r. c #FEFEFE",
"t. c white",
/* pixels */
"  . O : r v A D A D T o.4.q.7.' j * + * q v A A V C I X.5.w.8.{ k = + * q v A D A D T o.4.q.7.' j * + * q v A A V C I | 1.e.t.t.",
". X @ > y b A D A D T ..1.0.3.` k - # - e v A D A D T ..1.9.2._ k - # - e v A D A D T ..1.0.3.` k - # - e v A D A D T } ,.0.r.t.",
"O @ * 5 a n A S A D U { :.4.>./ z 1 * < y n D J L Y ~  .-.,.$.E h , * 1 u n A S A D U { :.4.>./ z 1 * < y n D J L Y ! } %.<.3.6.",
": > 5 e j N A S A D P / O.&.@.Q v 0 5 8 s m F R / ] |  .| ` E C s 6 5 q h M A S A D P / O.&.@.Q v 0 5 8 s m F R / ] | } [ ` _ ) ",
"r y a j v V S S S S J R / ' ( U N g p s l N J ^ +.-.*.| T M j a u u a j v V S S S S J R / ' ( U N g p s l N J ^ +.-.*.{ U M k f ",
"v b n N V A S S S S F J P U P H Z M n n N A U [ ;.3.,.' M 9 < 5 t l n B C A S S S S F J P U P H Z M n n N A U [ ;.3.,.` M 9 ; % ",
"A A A A S S S S S S S S S S S S A A D F K U ~  .=.,.$.E h < = 1 u b A F D S S S S S S S S S S S A A D F K U ~  .=.,.$.E j < $ o ",
"D D S S S S S S S S S A Z C C C Z S J R / {  ... .' E B i 4 1 8 f M S F F S S S S S S A Z C C C Z S J R / {  ... .' E V p 4 - & ",
"A A A A S S S S S S S A A Z Z C V A L / @.;.=. .T M h i t r u f c B A D D S S S S S S A A Z Z C V A L / @.;.=. .T M h p y r e w ",
"D D D D S S S S S S S S S S A Z Z D Y [ ;.3.,.' M 9 < 4 r k n B Z A D D D S S S S S S S S S A Z Z D Y [ ;.3.,.' M 9 < 5 y k v m ",
"T T U P J F S S S S S A A S D G K U ~  .=.,.$.E h < = 1 u b D K I U U P J F S S S S S A A S D G K U ~  .=.,.$.E h < = 2 i b A G ",
"o...{ / R J S A A S A Z C Z G Y ^ [  ... .' E B i 4 1 7 d M J W ) { [ ( R J S A A S A Z C Z G Y ^ [  ... .' E B i 4 1 9 g M S G ",
"4.1.:.O./ P S Z A S A C V Z K ^ +.;.=. .T M h i t r u d x B L ( @.;.;.+.( P S Z A S A C V Z K ^ +.;.=. .T M h i t r u g c B A D ",
"q.0.4.&.' U S C Z S S Z Z D U [ ;.3.,.' M 9 < 4 r k b M B S U ] -.4.3.=.] U S C Z S S Z Z D U [ ;.3.,.' M 9 < 4 r k n B Z A D D ",
"7.3.>.@.( P S C Z A D G K U ~  .=.,.$.E h < = 1 u b S J L Y ! | &.<.>.#.( P S C Z A D G K U ~  .=.,.$.E h < = 1 u b D K I U T T ",
"' ` / Q U H S C C Z G Y ^ [  ... .' E B i 4 1 7 d M J E ( {  . .} ' / W I G S C C Z G Y ^ [  ... .' E B i 4 1 7 d M J E ( { ..o.",
"j k z v N Z A Z V Z K ^ +.;.=. .T M h i t r u d x B L ( #.;.=.| Y M z x m C A Z V Z K ^ +.;.=. .T M h i t r u d x B L / +.:.1.4.",
"* - 1 0 g M A S A D U [ ;.3.,.' M 9 < 4 r k b M B S Y { ;.3.,.` M 9 1 7 d m A S A D U [ ;.3.,.' M 9 < 4 r k b M B S U ] *.4.0.q.",
"+ # * 5 p n D J L Y ~  .=.,.$.E h < = 1 u b S J L Y ~  .=.,.$.E h < = 1 u n D J L Y ~  .=.,.$.E h < = 1 u b S J L Y ! } %.<.3.6.",
"* - < 8 s n F R / [  ... .' E B i 4 1 7 d M J E ( {  ... .' E B i 4 1 6 a n F R / [  ... .' E B i 4 1 7 d M J E ( {  .| { ' ` _ ",
"q e y s l N K / @.;.=. .T M h i t r u d x B L ( #.;.=. .T M h i t r u s l N K / @.;.=. .T M h i t r u d x B L ( #.;.=.} Y M k f ",
"v v n m N A U { ;.3.,.' M 9 < 4 r k b M B S Y { ;.3.,.' M 9 < 4 t k b M B A U { ;.3.,.' M 9 < 4 r k b M B S Y { ;.3.,.` M 9 ; % ",
"A A D F J U ~  .=.,.$.E h < = 1 u b S J L Y ~  .=.,.$.E h < = 1 u b S J L Y ~  .=.,.$.E h < = 1 u b S J L Y ~  .=.,.$.E j < $ o ",
"A D J R ^ [  ... .' E B i 4 1 7 d M J E ( {  ... .' E B i 4 1 7 d M J E ( {  ... .' E B i 4 1 7 d M J E ( {  ... .' E V p 4 - & ",
"V A L / +.;.=. .T M h i t r u d x B L ( #.;.=. .T M h i t r u d x B L ( #.;.=. .T M h i t r u d x B L ( #.;.=. .T M h p y r e w ",
"C D Y ] -.3.,.' M 9 < 4 r k b M B S Y { ;.3.,.' M 9 < 4 r k b M B S Y { ;.3.,.' M 9 < 4 r k b M B S Y { ;.3.,.' M 9 < 5 y k v m ",
"I T ~ | *.,.$.E h < = 1 u b S J L Y ~  .=.,.$.E h < = 1 u b S J L Y ~  .=.,.$.E h < = 1 u b S J L Y ~  .=.,.$.E h < = 2 i b A G ",
"X... . .| ' E B i 4 1 7 d M J E ( {  ... .' E B i 4 1 7 d M J E ( {  ... .' E B i 4 1 7 d M J E ( {  ... .' E B i 4 1 9 g M S G ",
"5.1.-.| T M h i t r u d x B L ( #.;.=. .T M h i t r u d x B L ( #.;.=. .T M h i t r u d x B L ( #.;.=. .T M h i t r u g c B A D ",
"w.9.,.` M 9 < 4 r k b M B S Y { ;.3.,.' M 9 < 4 r k b M B S Y { ;.3.,.' M 9 < 4 r k b M B S Y { ;.3.,.' M 9 < 4 r k n B Z A D D ",
"8.2.$.E j < = 1 u n D J L U !  .=.,.$.E h < = 1 u b S J L Y ~  .=.,.$.E h < = 1 u n D J L U !  .=.,.$.E h < = 1 u b D K I U T T ",
"{ _ E C a 5 1 8 f B K W ( ] |  .| ` E B i 4 1 7 d M J E ( {  ... .' E B i 4 1 8 f B K W ( ] |  .| ` E B i 4 1 7 d M J E ( { ..o.",
"k k h s u t u f c Z I ) @.-.&.} Y M h i t t u d x B L ( #.;.=. .T M h i t t u f c Z I ) @.-.&.} Y M h i t t u d x B L / +.:.1.4.",
"= - , 6 u l b M B A U { ;.4.<.' M 9 < 4 r k b M B S Y { ;.3.,.' M 9 < 4 t k b M B A U { ;.4.<.' M 9 < 4 r k b M B S U ] *.4.0.q.",
"+ # * 5 a n A S A D U [ ;.3.>./ z 1 = 1 u b S J L Y ~  .=.,.$.E h < = 1 u n A S A D U [ ;.3.>./ z 1 = 1 u b S J L Y ! } %.<.3.6.",
"* - 1 q j B F F D D P ( +.=.#.W x 7 1 6 s M J E ( {  ... .' E B i 4 1 9 h B F F D D P ( +.=.#.W x 7 1 6 s M J E ( {  .| { ' ` _ ",
"q e u h v C D F D D J R ( ] ( I m d u a l B L ( #.;.=. .T M h i t t u h v C D F D D J R ( ] ( I m d u a l B L ( #.;.=.} Y M k f ",
"v v n M V A S S S S F J P U P G C m n n N A Y { ;.3.,.' M 9 < 4 t k n B C A S S S S F J P U P G C m n n N A Y { ;.3.,.` M 9 ; % ",
"A A A A S S S S S S S S S S S S A A D F K U ~  .=.,.$.E h < = 1 u b A F D S S S S S S S S S S S A A D F K U ~  .=.,.$.E j < $ o ",
"D D S S S S S S S S S A Z C C C Z S J R / {  ... .' E B i 4 1 8 f M S F F S S S S S S A Z C C C Z S J R / {  ... .' E V p 4 - & ",
"A A A A S S S S S S S A A Z Z C V A L / @.;.=. .T M h i t r u f c B A D D S S S S S S A A Z Z C V A L / @.;.=. .T M h p y r e w ",
"D D D D S S S S S S S S S S A Z Z D Y [ ;.3.,.' M 9 < 4 r k n B Z A D D D S S S S S S S S S A Z Z D Y [ ;.3.,.' M 9 < 5 y k v m ",
"T T U P J F S S S S S A A S D G K U ~  .=.,.$.E h < = 1 u b D K I U U P J F S S S S S A A S D G K U ~  .=.,.$.E h < = 2 i b A G ",
"o...{ / R J S A A S A Z C Z G Y ^ [  ... .' E B i 4 1 7 d M J W ) { [ ( R J S A A S A Z C Z G Y ^ [  ... .' E B i 4 1 9 g M S G ",
"4.1.:.O./ P S Z A S A C V Z K ^ +.;.=. .T M h i t r u d x B L ( @.;.;.+.( P S Z A S A C V Z K ^ +.;.=. .T M h i t r u g c B A D ",
"q.0.4.&.' U S C Z S S Z Z D U [ ;.3.,.' M 9 < 4 r k b M B S U ] -.4.3.=.] U S C Z S S Z Z D U [ ;.3.,.' M 9 < 4 r k n B Z A D D ",
"7.3.>.@.( P S C Z A D G K U ~  .=.,.$.E h < = 1 u b S J L Y ! | &.<.>.#.( P S C Z A D G K U ~  .=.,.$.E h < = 1 u b D K I U T T ",
"' ` / Q U H S C C Z G Y ^ [  ... .' E B i 4 1 7 d M J E ( {  . .} ' / W I G S C C Z G Y ^ [  ... .' E B i 4 1 7 d M J E ( { ..o.",
"j k z v N Z A Z V Z K ^ +.;.=. .T M h i t r u d x B L ( #.;.=.| Y M z x m C A Z V Z K ^ +.;.=. .T M h i t r u d x B L / +.:.1.4.",
"* - 1 0 g M A S A D U [ ;.3.,.' M 9 < 4 r k b M B S Y { ;.3.,.` M 9 1 7 d m A S A D U [ ;.3.,.' M 9 < 4 r k b M B S U ] *.4.0.q.",
"+ # * 5 p n D J L Y ~  .=.,.$.E h < = 1 u b S J L Y ~  .=.,.$.E h < = 1 u n D J L Y ~  .=.,.$.E h < = 1 u b S J L Y ! } %.<.3.6.",
"* - < 8 s n F R / [  ... .' E B i 4 1 7 d M J E ( {  ... .' E B i 4 1 6 a n F R / [  ... .' E B i 4 1 7 d M J E ( {  .| { ' ` _ ",
"q e y s l N K / @.;.=. .T M h i t r u d x B L ( #.;.=. .T M h i t r u s l N K / @.;.=. .T M h i t r u d x B L ( #.;.=.} Y M k f ",
"v v n m N A U { ;.3.,.' M 9 < 4 r k b M B S Y { ;.3.,.' M 9 < 4 t k b M B A U { ;.3.,.' M 9 < 4 r k b M B S Y { ;.3.,.` M 9 ; % ",
"A A D F J U ~  .=.,.$.E h < = 1 u b S J L Y ~  .=.,.$.E h < = 1 u b S J L Y ~  .=.,.$.E h < = 1 u b S J L Y ~  .=.,.$.E j < $ o ",
"A D J R ^ [  ... .' E B i 4 1 7 d M J E ( {  ... .' E B i 4 1 7 d M J E ( {  ... .' E B i 4 1 7 d M J E ( {  ... .' E V p 4 - & ",
"V A L / +.;.=. .T M h i t r u d x B L ( #.;.=. .T M h i t r u d x B L ( #.;.=. .T M h i t r u d x B L ( #.;.=. .T M h p y r e w ",
"C D Y ] -.3.,.' M 9 < 4 r k b M B S Y { ;.3.,.' M 9 < 4 r k b M B S Y { ;.3.,.' M 9 < 4 r k b M B S Y { ;.3.,.' M 9 < 5 y k v m ",
"I T ! | *.,.$.E h < = 1 u n D J L U !  .=.,.$.E h < = 1 u n D J L U !  .=.,.$.E h < = 1 u n D J L U !  .=.,.$.E h < = 3 i n A G ",
"| } } } { ` E V p 5 2 9 g B K E / ] } | } ` E V p 5 2 9 g B K E / ] } | } ` E V p 5 2 9 g B K E / ] } | } ` E V p 5 3 q j B F K ",
"1.,.%.[ U M j p y y i g c Z I ( +.*.%.{ Y M j p y y i g c Z I ( +.*.%.{ Y M j p y y i g c Z I ( +.*.%.{ Y M j p y y i j b C F H ",
"e.0.<.` M 9 < 4 r k b M B A U { :.4.<.' M 9 < 4 r k b M B A U { :.4.<.' M 9 < 4 r k b M B A U { :.4.<.' M 9 < 4 r k n B C A S D ",
"t.r.3._ k ; $ - e v A S A D T ..1.0.3.` k ; $ - e v A S A D T ..1.0.3.` k ; $ - e v A S A D T ..1.0.3.` k ; $ - e v A F F S S S ",
"t.t.6.) f % o & w m G G D D T o.4.q.6._ f % o & w m G G D D T o.4.q.6._ f % o & w m G G D D T o.4.q.6._ f % o & w m G K H D S S "
};
