/* XPM */
static char *sprite_1_16_resized[] = {
/* columns rows colors chars-per-pixel */
"64 64 114 2 ",
"   c #5A5A5A",
".  c #5B5B5B",
"X  c #5C5C5C",
"o  c #5D5D5D",
"O  c #5E5E5E",
"+  c #5F5F5F",
"@  c #606060",
"#  c #616161",
"$  c #626262",
"%  c #636363",
"&  c #646464",
"*  c #656565",
"=  c #666666",
"-  c #676767",
";  c #696969",
":  c #6A6A6A",
">  c #6B6B6B",
",  c #6C6C6C",
"<  c #6D6D6D",
"1  c #6E6E6E",
"2  c #707070",
"3  c #757575",
"4  c #767676",
"5  c #777777",
"6  c #787878",
"7  c #797979",
"8  c #7A7A7A",
"9  c #7B7B7B",
"0  c #7C7C7C",
"q  c #7D7D7D",
"w  c #7E7E7E",
"e  c #7F7F7F",
"r  c #808080",
"t  c #828282",
"y  c #848484",
"u  c #868686",
"i  c #878787",
"p  c #898989",
"a  c #8A8A8A",
"s  c #8B8B8B",
"d  c #8E8E8E",
"f  c #8F8F8F",
"g  c #909090",
"h  c #919191",
"j  c #929292",
"k  c #939393",
"l  c #949494",
"z  c #959595",
"x  c #979797",
"c  c #989898",
"v  c #999999",
"b  c #9A9A9A",
"n  c #9B9B9B",
"m  c #9C9C9C",
"M  c #9D9D9D",
"N  c #9E9E9E",
"B  c #9F9F9F",
"V  c #A2A2A2",
"C  c #A3A3A3",
"Z  c #A4A4A4",
"A  c #A5A5A5",
"S  c #A6A6A6",
"D  c #A7A7A7",
"F  c #A9A9A9",
"G  c #AAAAAA",
"H  c #ABABAB",
"J  c #ACACAC",
"K  c #ADADAD",
"L  c #AEAEAE",
"P  c #AFAFAF",
"I  c #B0B0B0",
"U  c #B1B1B1",
"Y  c #B2B2B2",
"T  c #B4B4B4",
"R  c #B6B6B6",
"E  c #B7B7B7",
"W  c #B8B8B8",
"Q  c #B9B9B9",
"!  c #BEBEBE",
"~  c #C0C0C0",
"^  c #C3C3C3",
"/  c #C4C4C4",
"(  c #C5C5C5",
")  c #C6C6C6",
"_  c #C7C7C7",
"`  c #C8C8C8",
"'  c #C9C9C9",
"]  c #CBCBCB",
"[  c #CCCCCC",
"{  c #CDCDCD",
"}  c #CECECE",
"|  c #D4D4D4",
" . c #D8D8D8",
".. c #DADADA",
"X. c #E0E0E0",
"o. c #E1E1E1",
"O. c #E2E2E2",
"+. c #E3E3E3",
"@. c #E4E4E4",
"#. c #E9E9E9",
"$. c #EAEAEA",
"%. c #EBEBEB",
"&. c #ECECEC",
"*. c #EEEEEE",
"=. c #EFEFEF",
"-. c #F3F3F3",
";. c #F4F4F4",
":. c #F5F5F5",
">. c #F6F6F6",
",. c #F8F8F8",
"<. c #F9F9F9",
"1. c #FDFDFD",
"2. c #FEFEFE",
"3. c #FFFFFF",
/* pixels */
"K K K K K K K K K K K K K K K K K K K K K K K K K K L P I U U I P L K K K K K K K K K K K K K K K K K K K K K K K K L P I U U U ",
"K K K K K K K K K K K K K K K K K K K K K K K K K K K K K K K K K K K K K K K K K K K K K K K K K K K K K K K K K K K K K K J J ",
"K K K K K K K K K K K K K K K K K K K K K K K K L K J F D Z Z S F J K K K K K K K K K K K K K K K K K K K K K K L K J F D Z C V ",
"K K K K K K K J J H H H H H H H H H H H H H J K L L H Z m x x n C F K L L K K J J H H H H H H H H H H H H H J K L L H Z M x k h ",
"K K K K K K K J H H G G G G G G G G G G G G H K P P F M f u u d n D K P L K K J H H G G G G G G G G G G G G H K P P F M g u r q ",
"K K K K K K K K K K K L L K K K K K K L L K L P P J Z l t 4 4 t l Z K P P K K K K K K L L K K K K K K L L K L P P J Z l y 4 1 : ",
"K K K K K K P U T E W Q W W W W W W W Q Q W R Y K A b p 6 , 1 0 g C J P P K P U T E W Q W W W W W W W Q Q W R Y K A b a 7 , & @ ",
"K K K J J K U W ~ _ ] [ [ ] ] ] ] ] ] { { ] / E F v s 0 1 - > 9 g V J P L L U W ~ _ ] [ [ ] ] ] ] ] ] { { ] / E F v s q 2 - # O ",
"K K K J H K T ~ } ..X.+.O.o.o.o.o.o.o.@.@.X.| ! C s 8 1 = * > 0 g C J L K L T ~ } ..X.+.O.o.o.o.o.o.o.@.@.X.| ! C s 9 2 ; * # + ",
"K K K H H K E _ ..%.;.>.>.:.;.;.;.;.:.,.<.-.O.^ B e , $ @ & < w j C J L J L E _ ..%.;.>.>.:.;.;.;.;.:.,.<.-.O.^ B e , * % % % $ ",
"K K K H G K W ] X.;.2.3.3.3.3.3.3.3.3.3.3.2.$.) m 6 & X X % < w j C J L J L W ] X.;.2.3.3.3.3.3.3.3.3.3.3.2.$.) m 6 & O + $ % % ",
"K K K H G L Q [ +.>.3.3.3.3.3.3.3.3.3.3.3.3.&._ n 4 #   . $ < w j C J K J L Q [ +.>.3.3.3.3.3.3.3.3.3.3.3.3.&._ n 4 # X O $ % % ",
"K K K H G L W [ O.>.3.3.3.3.3.3.3.3.3.3.3.3.&._ m 5 $   . $ < w j C J K J L W [ O.>.3.3.3.3.3.3.3.3.3.3.3.3.&._ m 5 $ X O $ % % ",
"K K K H G K W ] o.:.3.3.3.3.3.3.3.3.3.3.3.3.$.) m 6 % . X % < w j C J K J L W ] o.:.3.3.3.3.3.3.3.3.3.3.3.3.$.) m 6 & o + $ % % ",
"K K K H G K W ] o.;.3.3.3.3.3.3.3.3.3.3.3.2.$.) m 6 & X X % < w j C J L J L W ] o.;.3.3.3.3.3.3.3.3.3.3.3.2.$.) m 6 & O + $ % % ",
"K K K H G K W ] o.;.3.3.3.3.3.3.3.3.3.3.3.2.$.) m 6 & X X % < w j C J L J L W ] o.;.3.3.3.3.3.3.3.3.3.3.3.2.$.) m 6 & O + $ % % ",
"K K K H G K W ] o.;.3.3.3.3.3.3.3.3.3.3.3.2.$.) m 6 & X X % < w j C J L J L W ] o.;.3.3.3.3.3.3.3.3.3.3.3.2.$.) m 6 & O + $ % % ",
"K K K H G K W ] o.;.3.3.3.3.3.3.3.3.3.3.3.2.$.) m 6 & X X % < w j C J L J L W ] o.;.3.3.3.3.3.3.3.3.3.3.3.2.$.) m 6 & O + $ % % ",
"K K K H G K W ] o.:.3.3.3.3.3.3.3.3.3.3.3.3.%.) m 6 & X X % < w j C J K J L W ] o.:.3.3.3.3.3.3.3.3.3.3.3.3.%.) m 6 & O + $ % % ",
"K K K H G L Q { @.,.3.3.3.3.3.3.3.3.3.3.3.3.*.` N 7 & . X % < w j C J K J L Q { @.,.3.3.3.3.3.3.3.3.3.3.3.3.*.` N 7 & o + $ % % ",
"K K K H G L Q { @.<.3.3.3.3.3.3.3.3.3.3.3.3.=.' N 7 & . X % < w j C J K J L Q { @.<.3.3.3.3.3.3.3.3.3.3.3.3.=.' N 7 & o + $ % % ",
"K K K H G K W ] X.-.2.3.3.3.2.2.2.2.3.3.3.1.#.( m 6 % X X % < w j C J L J L W ] X.-.2.3.3.3.2.2.2.2.3.3.3.1.#.( m 6 & O + $ % % ",
"K K K J H L R / | O.$.&.&.$.$.$.$.$.%.*.=.#. .Q z 3 % X o % < w j C J L K L R / | O.$.&.&.$.$.$.$.$.%.*.=.#. .Q z 3 & O @ $ % % ",
"K K K K K P Y E ! ^ ) _ _ ) ) ) ) ) ) ` ' ( Q V i 2 % O O % < w j C K I P P Y E ! ^ ) _ _ ) ) ) ) ) ) ` ' ( Q V i 2 & @ @ $ % % ",
"K K L L P P K F C B m n m m m m m m m N N m z i 6 > % + + % < w j C K U U P K F C B m n m m m m m m m N N m z i 6 > % # # % % % ",
"K K K L P J A v s e 6 4 5 6 6 6 6 6 6 7 7 6 3 2 > = % @ @ % < w j C K U U K A v s e 6 4 5 6 6 6 6 6 6 7 7 6 3 2 > = % $ $ % % % ",
"L K J H F Z b s 8 , & # $ % & & & & & & & % % % % % $ # @ % < w j C H L H Z b s 8 , & # $ % & & & & & & & % % % % % % % % % % % ",
"P K F Z M l p 0 1 $ X     . X X X X X . . X X O + @ # + + # > w j C F D B l p 0 1 $ X     . X X X X X . . X X O + @ # # # # # # ",
"I K D m f t 6 1 = @ X . . X X X X X X X X X o O + @ @ + O # > w k V S N h t 6 1 = @ X . . X X X X X X X X X o O + @ @ @ @ @ @ @ ",
"U K Z x u 4 , - * & % $ $ % % % % % % % % % % % % % % # # & 1 r l C Z c i 4 , - * & % $ $ % % % % % % % % % % % % % % % % % % % ",
"U K Z x u 4 1 > > < < < < < < < < < < < < < < < < < < > > 1 4 u c Z Z c u 4 1 > > < < < < < < < < < < < < < < < < < < < < < < < ",
"I K S n d t 0 9 0 w w w w w w w w w w w w w w w w w w w w r u j N D S m d t 0 9 0 w w w w w w w w w w w w w w w w w w e e r r r ",
"P K F C n l g g g j j j j j j j j j j j j j j j j j j j k l c N A G F C n l g g g j j j j j j j j j j j j j j j j j j k l l z z ",
"L K J F D Z C V C C C C C C C C C C C C C C C C C C C C V C Z D G J J G D Z C V C C C C C C C C C C C C C C C C C C C C C C C C ",
"K K K K K K J J J J J J J J J J J J J J J J J K K K H F S Z Z S F J K K K K J J J J J J J J J J J J J J J J J K K K J F S Z C V ",
"K K K L P P P P L L L K K K L L L L K K K L L I U U L D N c c m C G K P P P P P L L L K K K L L L L K K K L L I U U L D B c z k ",
"K K K L L P P L K J J J J J J J J J J J J J K P U U H B h i u d n D K P I P P L K J J J J J J J J J J J J J K P U U H B j i r q ",
"K K K K K K K L L L L L L L L L L L L L L L L P P K Z l t 4 4 t l Z K P P L K L L L L L L L L L L L L L L L L P P K Z z y 4 1 : ",
"K K K K K K P U T E W Q W W W W W W W Q Q W R Y K A b p 6 , 1 0 g C J P P K P U T E W Q W W W W W W W Q Q W R Y K A b a 7 , & @ ",
"K K K J J K U W ~ _ ] [ [ ] ] ] ] ] ] { { ] / E F v s 0 1 - > 9 g V J P L L U W ~ _ ] [ [ ] ] ] ] ] ] { { ] / E F v s q 2 - # O ",
"K K K J H K T ~ } ..X.+.O.o.o.o.o.o.o.@.@.X.| ! C s 8 1 = * > 0 g C J L K L T ~ } ..X.+.O.o.o.o.o.o.o.@.@.X.| ! C s 9 2 ; * # + ",
"K K K H H K E _ ..%.;.>.>.:.;.;.;.;.:.,.<.-.O.^ B e , $ @ & < w j C J L J L E _ ..%.;.>.>.:.;.;.;.;.:.,.<.-.O.^ B e , * % % % $ ",
"K K K H G K W ] X.;.2.3.3.3.3.3.3.3.3.3.3.2.$.) m 6 & X X % < w j C J L J L W ] X.;.2.3.3.3.3.3.3.3.3.3.3.2.$.) m 6 & O + $ % % ",
"K K K H G L Q [ +.>.3.3.3.3.3.3.3.3.3.3.3.3.&._ n 4 #   . $ < w j C J K J L Q [ +.>.3.3.3.3.3.3.3.3.3.3.3.3.&._ n 4 # X O $ % % ",
"K K K H G L W [ O.>.3.3.3.3.3.3.3.3.3.3.3.3.&._ m 5 $   . $ < w j C J K J L W [ O.>.3.3.3.3.3.3.3.3.3.3.3.3.&._ m 5 $ X O $ % % ",
"K K K H G K W ] o.:.3.3.3.3.3.3.3.3.3.3.3.3.$.) m 6 % . X % < w j C J K J L W ] o.:.3.3.3.3.3.3.3.3.3.3.3.3.$.) m 6 & o + $ % % ",
"K K K H G K W ] o.;.3.3.3.3.3.3.3.3.3.3.3.2.$.) m 6 & X X % < w j C J L J L W ] o.;.3.3.3.3.3.3.3.3.3.3.3.2.$.) m 6 & O + $ % % ",
"K K K H G K W ] o.;.3.3.3.3.3.3.3.3.3.3.3.2.$.) m 6 & X X % < w j C J L J L W ] o.;.3.3.3.3.3.3.3.3.3.3.3.2.$.) m 6 & O + $ % % ",
"K K K H G K W ] o.;.3.3.3.3.3.3.3.3.3.3.3.2.$.) m 6 & X X % < w j C J L J L W ] o.;.3.3.3.3.3.3.3.3.3.3.3.2.$.) m 6 & O + $ % % ",
"K K K H G K W ] o.;.3.3.3.3.3.3.3.3.3.3.3.2.$.) m 6 & X X % < w j C J L J L W ] o.;.3.3.3.3.3.3.3.3.3.3.3.2.$.) m 6 & O + $ % % ",
"K K K H G K W ] o.:.3.3.3.3.3.3.3.3.3.3.3.3.%.) m 6 & X X % < w j C J K J L W ] o.:.3.3.3.3.3.3.3.3.3.3.3.3.%.) m 6 & O + $ % % ",
"K K K H G L Q { @.,.3.3.3.3.3.3.3.3.3.3.3.3.*.` N 7 & . X % < w j C J K J L Q { @.,.3.3.3.3.3.3.3.3.3.3.3.3.*.` N 7 & o + $ % % ",
"K K K H G L Q { @.<.3.3.3.3.3.3.3.3.3.3.3.3.=.' N 7 & . X % < w j C J K J L Q { @.<.3.3.3.3.3.3.3.3.3.3.3.3.=.' N 7 & o + $ % % ",
"K K K H G K W ] X.-.2.3.3.3.2.2.2.2.3.3.3.1.#.( m 6 % X X % < w j C J L J L W ] X.-.2.3.3.3.2.2.2.2.3.3.3.1.#.( m 6 & O + $ % % ",
"K K K J H L R / | O.$.&.&.$.$.$.$.$.%.*.=.#. .Q z 3 % X o % < w j C J L K L R / | O.$.&.&.$.$.$.$.$.%.*.=.#. .Q z 3 & O @ $ % % ",
"K K K K K P Y E ! ^ ) _ _ ) ) ) ) ) ) ` ' ( Q V i 2 % O O % < w j C K I P P Y E ! ^ ) _ _ ) ) ) ) ) ) ` ' ( Q V i 2 & @ @ $ % % ",
"K K L L P P K F C B m n m m m m m m m N N m z i 6 > % + + % < w j C K U U P K F C B m n m m m m m m m N N m z i 6 > % # # % % % ",
"K K K L P J A v s e 6 4 5 6 6 6 6 6 6 7 7 6 3 2 > = % @ @ % < w j C K U U K A v s e 6 4 5 6 6 6 6 6 6 7 7 6 3 2 > = % $ $ % % % ",
"L K J H F Z b s 9 , & # $ & & & & & & & & & & & % % % # @ % < w j C J L H Z b s 9 , & # $ & & & & & & & & & & & % % % % % % % % ",
"P K F Z M l a q 2 * O X X o O O O O O o o O O @ # $ % # @ % < e k C F D B z a q 2 * O X X o O O O O O o o O O @ # $ % % % % % % ",
"I K D M g y 7 2 ; % + O O + + + + + + + + + @ @ # $ % # @ % < e l C S B j y 7 2 ; % + O O + + + + + + + + + @ @ # $ % % % % % % ",
"U K Z x u 4 , - * % $ $ $ $ $ $ $ $ $ $ $ $ $ $ % % % # @ % < r l C Z c i 4 , - * % $ $ $ $ $ $ $ $ $ $ $ $ $ $ % % % % % % % % ",
"U J C k r 1 & # # % % % % % % % % % % % % % % % % % % # @ % < r z C C z r 1 & # # % % % % % % % % % % % % % % % % % % % % % % % ",
"U J V h q : @ O + $ % % % % % % % % % % % % % % % % % # @ % < r z C V k q : @ O + $ % % % % % % % % % % % % % % % % % % % % % % "
};
