/* XPM */
static char *sprite_1_19_resized[] = {
/* columns rows colors chars-per-pixel */
"64 64 160 2 ",
"   c black",
".  c #010101",
"X  c #0D0D0D",
"o  c #0E0E0E",
"O  c #0F0F0F",
"+  c #111111",
"@  c #141414",
"#  c #161616",
"$  c #171717",
"%  c #181818",
"&  c #222222",
"*  c #232323",
"=  c #242424",
"-  c #262626",
";  c #282828",
":  c #2D2D2D",
">  c #2E2E2E",
",  c #2F2F2F",
"<  c #353535",
"1  c #363636",
"2  c #3B3B3B",
"3  c #3C3C3C",
"4  c #3D3D3D",
"5  c #3E3E3E",
"6  c #3F3F3F",
"7  c #414141",
"8  c #434343",
"9  c #454545",
"0  c #4F4F4F",
"q  c #515151",
"w  c #535353",
"e  c #545454",
"r  c #555555",
"t  c #565656",
"y  c #5A5A5A",
"u  c #5B5B5B",
"i  c #5C5C5C",
"p  c #5D5D5D",
"a  c #5E5E5E",
"s  c #5F5F5F",
"d  c #606060",
"f  c #616161",
"g  c #626262",
"h  c #636363",
"j  c #646464",
"k  c #656565",
"l  c #666666",
"z  c #676767",
"x  c #696969",
"c  c #6A6A6A",
"v  c #6B6B6B",
"b  c #6C6C6C",
"n  c #6D6D6D",
"m  c #6E6E6E",
"M  c #6F6F6F",
"N  c #707070",
"B  c #717171",
"V  c #737373",
"C  c #747474",
"Z  c #757575",
"A  c #767676",
"S  c #777777",
"D  c #787878",
"F  c #797979",
"G  c #7A7A7A",
"H  c #7B7B7B",
"J  c #7C7C7C",
"K  c #7D7D7D",
"L  c #7E7E7E",
"P  c #7F7F7F",
"I  c #808080",
"U  c #818181",
"Y  c #828282",
"T  c #848484",
"R  c #858585",
"E  c #868686",
"W  c #878787",
"Q  c #888888",
"!  c #898989",
"~  c #8A8A8A",
"^  c #8B8B8B",
"/  c #8C8C8C",
"(  c #8D8D8D",
")  c #8E8E8E",
"_  c #8F8F8F",
"`  c #909090",
"'  c #919191",
"]  c #929292",
"[  c #939393",
"{  c #949494",
"}  c #959595",
"|  c #969696",
" . c #979797",
".. c #989898",
"X. c #999999",
"o. c #9A9A9A",
"O. c #9B9B9B",
"+. c #9C9C9C",
"@. c #9D9D9D",
"#. c #9E9E9E",
"$. c #9F9F9F",
"%. c #A1A1A1",
"&. c #A2A2A2",
"*. c #A3A3A3",
"=. c #A4A4A4",
"-. c #A5A5A5",
";. c #A6A6A6",
":. c #A7A7A7",
">. c #A9A9A9",
",. c #AAAAAA",
"<. c #ABABAB",
"1. c #ACACAC",
"2. c #ADADAD",
"3. c #AEAEAE",
"4. c #AFAFAF",
"5. c #B0B0B0",
"6. c #B1B1B1",
"7. c #B2B2B2",
"8. c #B3B3B3",
"9. c #B4B4B4",
"0. c #B6B6B6",
"q. c #B7B7B7",
"w. c #B8B8B8",
"e. c #B9B9B9",
"r. c #BEBEBE",
"t. c #C0C0C0",
"y. c #C3C3C3",
"u. c #C4C4C4",
"i. c #C5C5C5",
"p. c #C6C6C6",
"a. c #C7C7C7",
"s. c #C8C8C8",
"d. c #C9C9C9",
"f. c #CBCBCB",
"g. c #CCCCCC",
"h. c #CDCDCD",
"j. c #CECECE",
"k. c #D4D4D4",
"l. c #D8D8D8",
"z. c #DADADA",
"x. c #E0E0E0",
"c. c #E1E1E1",
"v. c #E2E2E2",
"b. c #E3E3E3",
"n. c #E4E4E4",
"m. c #E9E9E9",
"M. c #EAEAEA",
"N. c #EBEBEB",
"B. c #ECECEC",
"V. c #EEEEEE",
"C. c #EFEFEF",
"Z. c #F3F3F3",
"A. c #F4F4F4",
"S. c #F5F5F5",
"D. c #F6F6F6",
"F. c #F8F8F8",
"G. c #F9F9F9",
"H. c #FDFDFD",
"J. c #FEFEFE",
"K. c #FFFFFF",
/* pixels */
"2.2.2.2.2.2.2.2.2.2.2.2.2.2.2.2.2.2.2.2.2.2.2.2.2.2.3.8.0.5.X.N 7 % .                                                           ",
"2.2.2.2.2.2.2.2.2.2.2.2.2.2.2.2.2.2.2.2.2.2.2.2.2.2.3.6.8.1.} n 6 $ .                                                           ",
"2.2.2.2.2.2.2.2.2.2.2.2.2.2.2.2.2.2.2.2.2.2.2.2.2.2.2.3.1.=.( z 2 # .                                                           ",
"2.2.2.2.2.2.2.1.1.<.<.<.<.<.<.<.<.<.<.<.<.<.1.2.3.3.1.>.&.| P i < @ .                                                           ",
"2.2.2.2.2.2.2.1.<.<.,.,.,.,.,.,.,.,.,.,.,.,.<.2.4.4.,.%.| R m 0 : + .                                                           ",
"2.2.2.2.2.2.2.2.2.2.2.2.2.2.2.2.2.2.2.2.2.2.3.4.4.1.-...Q Z s 8 - o .                                                           ",
"2.2.2.2.2.2.4.6.9.q.w.e.w.w.w.w.w.w.w.e.e.w.0.7.2.;.O.) L v t 4 * X .                                                           ",
"2.2.2.1.1.2.6.w.t.a.f.g.g.f.f.f.f.f.f.h.h.f.u.q.>.X./ I C l e 2 & X .                                                           ",
"2.2.2.1.<.2.9.t.j.z.x.b.v.c.c.c.c.c.c.n.n.x.k.r.*.^ H V b j e 3 * X .                                                           ",
"2.2.2.<.<.2.q.a.z.N.A.D.D.S.A.A.A.A.S.F.G.Z.v.y.$.P n z l h r 5 = X .                                                           ",
"2.2.2.<.,.2.w.f.x.A.J.K.K.K.K.K.K.K.K.K.K.J.M.p.+.D k d g g t 6 = X .                                                           ",
"2.2.2.<.,.2.e.g.b.D.K.K.K.K.K.K.K.K.K.K.K.K.B.a.O.A g a f f t 6 = X .                                                           ",
"2.2.2.<.,.2.w.g.v.D.K.K.K.K.K.K.K.K.K.K.K.K.B.a.+.S h s f f t 6 = X .                                                           ",
"2.2.2.<.,.2.w.f.c.S.K.K.K.K.K.K.K.K.K.K.K.K.M.p.+.D j d g g t 6 = X .                                                           ",
"2.2.2.<.,.2.w.f.c.A.K.K.K.K.K.K.K.K.K.K.K.J.M.p.+.D j d g g t 6 = X .                                                           ",
"2.2.2.<.,.2.w.f.c.A.K.K.K.K.K.K.K.K.K.K.K.J.M.p.+.D j d g g t 6 = X .                                                           ",
"2.2.2.<.,.2.w.f.c.A.K.K.K.K.K.K.K.K.K.K.K.J.M.p.+.D j d g g t 6 = X .                                                           ",
"2.2.2.<.,.2.w.f.c.A.K.K.K.K.K.K.K.K.K.K.K.J.M.p.+.D j d g g t 6 = X .                                                           ",
"2.2.2.<.,.2.w.f.c.S.K.K.K.K.K.K.K.K.K.K.K.K.N.p.+.D j d g g t 6 = X .                                                           ",
"2.2.2.<.,.2.e.h.n.F.K.K.K.K.K.K.K.K.K.K.K.K.V.s.#.F j d g g t 6 = X .                                                           ",
"2.2.2.<.,.2.e.h.n.G.K.K.K.K.K.K.K.K.K.K.K.K.C.d.#.F j d g g t 6 = X .                                                           ",
"2.2.2.<.,.2.w.f.x.Z.J.K.K.K.J.J.J.J.K.K.K.H.m.i.+.D j d g g t 6 = X .                                                           ",
"2.2.2.1.<.3.0.u.k.v.M.B.B.M.M.M.M.M.N.V.C.m.l.e.{ Z j f h g t 6 = X .                                                           ",
"2.2.2.2.2.4.7.q.r.y.p.a.a.p.p.p.p.p.p.s.d.i.e.%.W N j g j g t 6 = X .                                                           ",
"2.2.2.3.4.4.2.>.*.$.+.O.+.+.+.+.+.+.+.#.#.+.{ W D v j j k g t 6 = X .                                                           ",
"2.2.2.3.4.1.;.X.^ P D A S D D D D D D F F D Z N v l j k l g t 6 = X .                                                           ",
"3.2.1.<.>.=.o.^ G b j f g h j j j j j j j h h h h h h k l g r 6 = X .                                                           ",
"4.2.>.=.@.{ ! J m g i y y u i i i i i u u i i p s d f j k d e 5 = X .                                                           ",
"5.2.:.+._ Y D m l d i u u i i i i i i i i i p a s d f h j d w 4 * X .                                                           ",
"6.2.-. .E A b z k j h g g h h h h h h h h h h h h h j l z h t 6 = X .                                                           ",
"6.2.=. .E A m v v n n n n n n n n n n n n n n n n n m N B n s 9 ; O .                                                           ",
"5.2.;.O.) Y J H J L L L L L L L L L L L L L L L L L P Y T P M q , + .                                                           ",
"4.2.>.*.O.{ ` ` ` ' ] ] ] ] ] ] ] ] ] ] ] ] ] ] ] ] [  .X.[ U a 1 @ .                                                           ",
"3.2.1.>.:.=.*.&.*.*.*.*.*.*.*.*.*.*.*.*.*.*.*.*.*.*.=.:.>.&.( z 3 # .                                                           ",
"2.2.2.2.2.2.2.1.1.1.1.1.1.1.1.1.1.1.1.1.1.1.1.2.2.2.1.3.1.*.( z 2 # .                                                           ",
"2.2.2.3.4.4.4.4.3.3.2.2.2.2.2.2.2.2.2.2.2.3.3.5.6.6.3.<.-...U p 1 @ .                                                           ",
"2.2.2.3.3.4.4.3.2.1.1.1.1.1.1.1.1.1.1.1.1.1.2.4.6.6.<.*. .E M 0 > + .                                                           ",
"2.2.2.2.2.2.2.3.3.3.3.3.3.3.3.3.3.3.3.3.3.3.3.4.4.2.-...Q Z s 8 - o .                                                           ",
"2.2.2.2.2.2.4.6.9.q.w.e.w.w.w.w.w.w.w.e.e.w.0.7.2.;.O.) L v t 4 * X .                                                           ",
"2.2.2.1.1.2.6.w.t.a.f.g.g.f.f.f.f.f.f.h.h.f.u.q.>.X./ I C l e 2 & X .                                                           ",
"2.2.2.1.<.2.9.t.j.z.x.b.v.c.c.c.c.c.c.n.n.x.k.r.*.^ H V b j e 3 * X .                                                           ",
"2.2.2.<.<.2.q.a.z.N.A.D.D.S.A.A.A.A.S.F.G.Z.v.y.$.P n z l h r 5 = X .                                                           ",
"2.2.2.<.,.2.w.f.x.A.J.K.K.K.K.K.K.K.K.K.K.J.M.p.+.D k d g g t 6 = X .                                                           ",
"2.2.2.<.,.2.e.g.b.D.K.K.K.K.K.K.K.K.K.K.K.K.B.a.O.A g a f f t 6 = X .                                                           ",
"2.2.2.<.,.2.w.g.v.D.K.K.K.K.K.K.K.K.K.K.K.K.B.a.+.S h s f f t 6 = X .                                                           ",
"2.2.2.<.,.2.w.f.c.S.K.K.K.K.K.K.K.K.K.K.K.K.M.p.+.D j d g g t 6 = X .                                                           ",
"2.2.2.<.,.2.w.f.c.A.K.K.K.K.K.K.K.K.K.K.K.J.M.p.+.D j d g g t 6 = X .                                                           ",
"2.2.2.<.,.2.w.f.c.A.K.K.K.K.K.K.K.K.K.K.K.J.M.p.+.D j d g g t 6 = X .                                                           ",
"2.2.2.<.,.2.w.f.c.A.K.K.K.K.K.K.K.K.K.K.K.J.M.p.+.D j d g g t 6 = X .                                                           ",
"2.2.2.<.,.2.w.f.c.A.K.K.K.K.K.K.K.K.K.K.K.J.M.p.+.D j d g g t 6 = X .                                                           ",
"2.2.2.<.,.2.w.f.c.S.K.K.K.K.K.K.K.K.K.K.K.K.N.p.+.D j d g g t 6 = X .                                                           ",
"2.2.2.<.,.2.e.h.n.F.K.K.K.K.K.K.K.K.K.K.K.K.V.s.#.F j d g g t 6 = X .                                                           ",
"2.2.2.<.,.2.e.h.n.G.K.K.K.K.K.K.K.K.K.K.K.K.C.d.#.F j d g g t 6 = X .                                                           ",
"2.2.2.<.,.2.w.f.x.Z.J.K.K.K.J.J.J.J.K.K.K.H.m.i.+.D j d g g t 6 = X .                                                           ",
"2.2.2.1.<.3.0.u.k.v.M.B.B.M.M.M.M.M.N.V.C.m.l.e.{ Z j f h g t 6 = X .                                                           ",
"2.2.2.2.2.4.7.q.r.y.p.a.a.p.p.p.p.p.p.s.d.i.e.%.W N j g j g t 6 = X .                                                           ",
"2.2.2.3.4.4.2.>.*.$.+.O.+.+.+.+.+.+.+.#.#.+.{ W D v j j k g t 6 = X .                                                           ",
"2.2.2.3.4.1.;.X.^ P D A S D D D D D D F F D Z N v l j k l g t 6 = X .                                                           ",
"3.2.1.<.>.=.o.^ G b j f g j j j j j j j j j j j h h h l z g t 6 = X .                                                           ",
"4.2.>.=.@.{ ~ K N k a i i p a a a a a p p a a d f g h l z g t 6 = X .                                                           ",
"5.2.:.@.` T F N x h s a a s s s s s s s s s d d f g h l z g t 6 = X .                                                           ",
"6.2.=. .E A b z k h g g g g g g g g g g g g g h h h h l z g t 6 = X .                                                           ",
"6.2.*.[ I m j f f h h h h h h h h h h h h h h h h h h l z g t 6 = X .                                                           ",
"6.1.&.' K c d a s g h h h h h h h h h h h h h h h h h l z g t 6 = X .                                                           "
};
