/* XPM */
static char *sprite_1_18_resized[] = {
/* columns rows colors chars-per-pixel */
"64 64 125 2 ",
"   c black",
".  c #010101",
"X  c #171717",
"o  c #181818",
"O  c #3F3F3F",
"+  c #404040",
"@  c #414141",
"#  c #5A5A5A",
"$  c #5B5B5B",
"%  c #5C5C5C",
"&  c #5D5D5D",
"*  c #5E5E5E",
"=  c #5F5F5F",
"-  c #606060",
";  c #616161",
":  c #626262",
">  c #636363",
",  c #646464",
"<  c #656565",
"1  c #666666",
"2  c #676767",
"3  c #696969",
"4  c #6A6A6A",
"5  c #6B6B6B",
"6  c #6C6C6C",
"7  c #6D6D6D",
"8  c #6E6E6E",
"9  c #6F6F6F",
"0  c #707070",
"q  c #757575",
"w  c #767676",
"e  c #777777",
"r  c #787878",
"t  c #797979",
"y  c #7A7A7A",
"u  c #7B7B7B",
"i  c #7C7C7C",
"p  c #7D7D7D",
"a  c #7E7E7E",
"s  c #7F7F7F",
"d  c #808080",
"f  c #838383",
"g  c #848484",
"h  c #868686",
"j  c #878787",
"k  c #898989",
"l  c #8A8A8A",
"z  c #8B8B8B",
"x  c #909090",
"c  c #919191",
"v  c #929292",
"b  c #939393",
"n  c #949494",
"m  c #959595",
"M  c #969696",
"N  c #979797",
"B  c #989898",
"V  c #999999",
"C  c #9A9A9A",
"Z  c #9B9B9B",
"A  c #9C9C9C",
"S  c #9D9D9D",
"D  c #9E9E9E",
"F  c #9F9F9F",
"G  c #A1A1A1",
"H  c #A2A2A2",
"J  c #A3A3A3",
"K  c #A4A4A4",
"L  c #A5A5A5",
"P  c #A6A6A6",
"I  c #A7A7A7",
"U  c #A8A8A8",
"Y  c #A9A9A9",
"T  c #AAAAAA",
"R  c #ABABAB",
"E  c #ACACAC",
"W  c #ADADAD",
"Q  c #AEAEAE",
"!  c #AFAFAF",
"~  c #B0B0B0",
"^  c #B1B1B1",
"/  c #B2B2B2",
"(  c #B3B3B3",
")  c #B4B4B4",
"_  c #B5B5B5",
"`  c #B6B6B6",
"'  c #B7B7B7",
"]  c #B8B8B8",
"[  c #B9B9B9",
"{  c #BEBEBE",
"}  c #C0C0C0",
"|  c #C3C3C3",
" . c #C4C4C4",
".. c #C5C5C5",
"X. c #C6C6C6",
"o. c #C7C7C7",
"O. c #C8C8C8",
"+. c #C9C9C9",
"@. c #CBCBCB",
"#. c #CCCCCC",
"$. c #CDCDCD",
"%. c #CECECE",
"&. c #D4D4D4",
"*. c #D8D8D8",
"=. c #DADADA",
"-. c #E0E0E0",
";. c #E1E1E1",
":. c #E2E2E2",
">. c #E3E3E3",
",. c #E4E4E4",
"<. c #E9E9E9",
"1. c #EAEAEA",
"2. c #EBEBEB",
"3. c #ECECEC",
"4. c #EEEEEE",
"5. c #EFEFEF",
"6. c #F3F3F3",
"7. c #F4F4F4",
"8. c #F5F5F5",
"9. c #F6F6F6",
"0. c #F8F8F8",
"q. c #F9F9F9",
"w. c #FDFDFD",
"e. c #FEFEFE",
"r. c #FFFFFF",
/* pixels */
"                                                                                                                                ",
"                                                                                                                                ",
"                                                                                                                                ",
"                                                                                                                                ",
"                                                                                                                                ",
"                                                                                                                                ",
"                                                                                                                                ",
"                                                                                                                                ",
"                                                                                                                                ",
"                                                                                                                                ",
"                                                                                                                                ",
"                                                                                                                                ",
"                                                                                                                                ",
"                                                                                                                                ",
"                                                                                                                                ",
"                                                                                                                                ",
"                                                                                                                                ",
"                                                                                                                                ",
"                                                                                                                                ",
"                                                                                                                                ",
"                                                                                                                                ",
"                                                                                                                                ",
"                                                                                                                                ",
"                                                                                                                                ",
"                                                                                                                                ",
"                                                                                                                                ",
"                                                                                                                                ",
"                                                                                                                                ",
"                                                                                                                                ",
". . . . . . . . . . . . . . . . . . . . . . . . . . . . . . . . . . . . . . . . . . . . . . . . . . . . . . . . . . . . . . . . ",
"X X X X X X X X X X X X X X X X X X X X X X X X X X X X o o o o X X X X X X X X X X X X X X X X X X X X X X X X X X X X o o o o ",
"O O O O O O O O O O O O O O O O O O O O O O O O O O + + @ @ @ @ + + O O O O O O O O O O O O O O O O O O O O O O O O + + @ @ @ @ ",
"8 8 8 8 8 8 8 8 8 8 8 8 8 8 8 8 8 8 8 8 8 8 8 8 8 8 8 9 9 0 0 9 9 8 8 8 8 8 8 8 8 8 8 8 8 8 8 8 8 8 8 8 8 8 8 8 8 8 8 9 9 0 0 0 ",
"M M M M M M M M M M M M M M M M M M M M M M M M M M M M M m m M M M M M M M M M M M M M M M M M M M M M M M M M M M M M M m m m ",
"E E E E E E E E E E E E E E E E E E E E E E E E W E R U P K K P U R E E E E E E E E E E E E E E E E E E E E E E W E R U P K H G ",
"( ( ( ( ( ( ( / / ^ ^ ^ ^ ^ ^ ^ ^ ^ ^ ^ ^ ^ / ( _ _ ^ T H A A G U ! ( ) ) ( ( / / ^ ^ ^ ^ ^ ^ ^ ^ ^ ^ ^ ^ ^ / ( _ _ ^ T H A B N ",
"/ / / / / / ^ ^ ~ ! ! ! ! ! ! ! ! ! ! ! ! ! ~ / ) ( W G b l k v F R ^ ( ( / ^ ^ ~ ! ! ! ! ! ! ! ! ! ! ! ! ! ~ / ) ( W G n k f d ",
"Q Q Q Q Q Q Q Q Q Q Q Q Q Q Q Q Q Q Q Q Q Q Q ~ ~ W L n f e e f n L W ~ ! Q Q Q Q Q Q Q Q Q Q Q Q Q Q Q Q Q Q ~ ~ W L m g w 8 4 ",
"W W W W W W ! ^ ) ' ] [ ] ] ] ] ] ] ] [ [ ] ` / W P C k r 6 8 i x J W ! ! W ! ^ ) ' ] [ ] ] ] ] ] ] ] [ [ ] ` / W P C l t 6 , - ",
"W W W E E W ^ ] } o.@.#.#.@.@.@.@.@.@.$.$.@. .' U V z i 8 2 5 u x H E ! Q W ^ ] } o.@.#.#.@.@.@.@.@.@.$.$.@. .' U V z p 0 2 ; * ",
"W W W E R W ) } %.=.-.>.:.;.;.;.;.;.;.,.,.-.&.{ J z y 8 1 < 5 i x J E Q W Q ) } %.=.-.>.:.;.;.;.;.;.;.,.,.-.&.{ J z u 0 3 < ; = ",
"W W W R R W ' o.=.2.7.9.9.8.7.7.7.7.8.0.q.6.:.| F s 6 : - , 7 p c J E Q E Q ' o.=.2.7.9.9.8.7.7.7.7.8.0.q.6.:.| F s 6 < > > > : ",
"W W W R T W ] @.-.7.e.r.r.r.r.r.r.r.r.r.r.e.1.X.A r , % % > 7 a v J E W E Q ] @.-.7.e.r.r.r.r.r.r.r.r.r.r.e.1.X.A r , * = : > > ",
"W W W R T W [ #.>.9.r.r.r.r.r.r.r.r.r.r.r.r.3.o.Z w ; # $ : 7 a v J E W E Q [ #.>.9.r.r.r.r.r.r.r.r.r.r.r.r.3.o.Z w : % * : > > ",
"W W W R T W ] #.:.9.r.r.r.r.r.r.r.r.r.r.r.r.3.o.A e : # $ : 7 a v J E W E Q ] #.:.9.r.r.r.r.r.r.r.r.r.r.r.r.3.o.A e : % * : > > ",
"W W W R T W ] @.;.8.r.r.r.r.r.r.r.r.r.r.r.r.1.X.A r > $ % > 7 a v J E W E Q ] @.;.8.r.r.r.r.r.r.r.r.r.r.r.r.1.X.A r , & = : > > ",
"W W W R T W ] @.;.7.r.r.r.r.r.r.r.r.r.r.r.e.1.X.A r , % % > 7 a v J E W E Q ] @.;.7.r.r.r.r.r.r.r.r.r.r.r.e.1.X.A r , * = : > > ",
"W W W R T W ] @.;.7.r.r.r.r.r.r.r.r.r.r.r.e.1.X.A r , % % > 7 a v J E W E Q ] @.;.7.r.r.r.r.r.r.r.r.r.r.r.e.1.X.A r , * = : > > ",
"W W W R T W ] @.;.7.r.r.r.r.r.r.r.r.r.r.r.e.1.X.A r , % % > 7 a v J E W E Q ] @.;.7.r.r.r.r.r.r.r.r.r.r.r.e.1.X.A r , * = : > > ",
"W W W R T W ] @.;.7.r.r.r.r.r.r.r.r.r.r.r.e.1.X.A r , % % > 7 a v J E W E Q ] @.;.7.r.r.r.r.r.r.r.r.r.r.r.e.1.X.A r , * = : > > ",
"W W W R T W ] @.;.8.r.r.r.r.r.r.r.r.r.r.r.r.2.X.A r , % % > 7 a v J E W E Q ] @.;.8.r.r.r.r.r.r.r.r.r.r.r.r.2.X.A r , * = : > > ",
"W W W R T W [ $.,.0.r.r.r.r.r.r.r.r.r.r.r.r.4.O.D t , $ % > 7 a v J E W E Q [ $.,.0.r.r.r.r.r.r.r.r.r.r.r.r.4.O.D t , & = : > > ",
"W W W R T W [ $.,.q.r.r.r.r.r.r.r.r.r.r.r.r.5.+.D t , $ % > 7 a v J E W E Q [ $.,.q.r.r.r.r.r.r.r.r.r.r.r.r.5.+.D t , & = : > > ",
"W W W R T W ] @.-.6.e.r.r.r.e.e.e.e.r.r.r.w.<...A r > % % > 7 a v J E W E Q ] @.-.6.e.r.r.r.e.e.e.e.r.r.r.w.<...A r , * = : > > ",
"W W W E R Q `  .&.:.1.3.3.1.1.1.1.1.2.4.5.<.*.[ n q > % & > 7 a v J E Q W Q `  .&.:.1.3.3.1.1.1.1.1.2.4.5.<.*.[ n q , * - : > > ",
"W W W W W ! / ' { | X.o.o.X.X.X.X.X.X.O.+...[ H j 0 > & * > 7 a v J W ~ ! ! / ' { | X.o.o.X.X.X.X.X.X.O.+...[ H j 0 , - - : > > ",
"W W W Q ! ! W U J F A Z A A A A A A A D D A n j r 5 > = = > 7 a v J W ^ ^ ! W U J F A Z A A A A A A A D D A n j r 5 > ; ; > > > ",
"W W W Q ! E P V z s r w e r r r r r r t t r q 0 5 1 > - - > 7 a v J W ^ ^ W P V z s r w e r r r r r r t t r q 0 5 1 > : : > > > ",
"Q W E R Y K C z u 6 , : : , , , , , , , , , , , > > > ; - > 7 a v J E W R K C z u 6 , : : , , , , , , , , , , , > > > > > > > > ",
"! W Y K S n l p 0 < * % % & * * * * * & & * * - ; : > ; - > 7 s b J Y I F n l p 0 < * % % & * * * * * & & * * - ; : > > > > > > ",
"~ W I S x g t 0 3 > = * * = = = = = = = = = - - ; : > ; - > 7 s n J I F v g t 0 3 > = * * = = = = = = = = = - - ; : > > > > > > ",
"^ W L N h w 6 2 < > : : : : : : : : : : : : : : > > > ; - > 7 d n J K B j w 6 2 < > : : : : : : : : : : : : : : > > > > > > > > ",
"^ W J b d 8 , ; ; > > > > > > > > > > > > > > > > > > ; - > 7 d n J J m d 8 , ; ; > > > > > > > > > > > > > > > > > > > > > > > ",
"^ W H c p 4 - * = : > > > > > > > > > > > > > > > > > ; - > 7 d n J H b p 4 - * = : > > > > > > > > > > > > > > > > > > > > > > "
};
