/* XPM */
static char *sprite_6_21_resized[] = {
/* columns rows colors chars-per-pixel */
"64 64 79 1 ",
"  c #000000",
". c #000001",
"X c #010102",
"o c #020203",
"O c #030304",
"+ c #050506",
"@ c #080809",
"# c #090909",
"$ c #09090A",
"% c #0A0A0A",
"& c #0A0A0B",
"* c #0E0E0F",
"= c #0F0F10",
"- c #141415",
"; c #151516",
": c #161617",
"> c #171718",
", c #181819",
"< c #242425",
"1 c #262627",
"2 c #272728",
"3 c #282829",
"4 c #29292A",
"5 c #2C2C2D",
"6 c #363636",
"7 c #363637",
"8 c #373737",
"9 c #373738",
"0 c #3B3B3C",
"q c #3F3F40",
"w c #404040",
"e c #414142",
"r c #424242",
"t c #434344",
"y c #464646",
"u c #474748",
"i c #4F4F50",
"p c #535353",
"a c #5D5D5E",
"s c #5E5E5E",
"d c #5F5F5F",
"f c #5F5F60",
"g c #646465",
"h c #6D6D6D",
"j c #6E6E6F",
"k c #6F6F6F",
"l c #717171",
"z c #727272",
"x c #777777",
"c c #7B7B7C",
"v c #818181",
"b c #828282",
"n c #8C8C8C",
"m c #8E8E8F",
"M c #959595",
"N c #969696",
"B c #979797",
"V c #989898",
"C c #9A9A9A",
"Z c #9B9B9B",
"A c #9E9E9E",
"S c #A3A3A3",
"D c #A4A4A4",
"F c #A9A9A9",
"G c #AAAAAA",
"H c #ABABAB",
"J c #ADADAD",
"K c #AEAEAE",
"L c #AFAFAF",
"P c #B0B0B0",
"I c #B1B1B1",
"U c #B2B2B2",
"Y c #B3B3B2",
"T c #B3B3B3",
"R c #B4B4B4",
"E c #B6B6B6",
"W c #B7B7B7",
"Q c #B8B8B8",
"! c #B9B9B9",
/* pixels */
"................................................................",
"................................................................",
"................................................................",
"................................................................",
"................................................................",
"................................................................",
"................................................................",
"................................................................",
"................................................................",
"................................................................",
"................................................................",
"................................................................",
"................................................................",
"................................................................",
"................................................................",
"................................................................",
"................................................................",
"................................................................",
"............            ................            ............",
"..........                ............                ..........",
"..........                ............                ..........",
"............XXXXXXXXXXXX................XXXXXXXXXXXX............",
".......  .O#=->,,>>,,>-=#O.  ......  .O#=->,,>>,,>-*@o   .......",
".......  .#>38qrewwerq83>#.  ......  .#>38qrewwerq71-+    ......",
"......   X=3ydhzljjlzhdy3=X   ....   X=3ydhzljjlzhst<%    ......",
"......   X-8dbMZCNNCZMbd8-X   ....   X-8dbMZCNNCZMbf9;o   ......",
"......   X>qhMHUIJJIUHMhq>X   ....   X>qhMHUIJJPIHVxi5:&+O.  ...",
"......   X,rzZU!QRRQ!UZzr,X   ....   X,rzZU!QRREWYDnkp02:$.  ...",
"......   X,elCIQEYYEQICle,X   ....   X,elCIQEYUTRIGAmcgu4=X   ..",
"......   X>wjNJRYLLYRJNjw>X   ....   X>wjNJRYLKLLKHFSBva6-X   ..",
"......   X>wjNJRUKKURJNjw>X   ....   X>wjNJRYLKLLKHFSBva6-X   ..",
"......   X,elCPETLLTEPCle,X   ....   X,elCIQEYUTRIGAmcgu4=X   ..",
"......   X,rzZIWRLLRWIZzr,X   ....   X,rzZU!QRREWYDnkp02:$.  ...",
"......   X>qhMHYIKKIYHMhq>X   ....   X>qhMHUIJJPIHVxi5:&+O.  ...",
"......   X-7sbVDGHHGDVbs7-X   ....   X-8dbMZCNNCZMbf9;o   ......",
"......   X*1tfxnAFFAnxft1*X   ....   X=3ydhzljjlzhst<%    ......",
".......  .@-<9ikmSSmki9<-@.  ......  .#>38qrewwerq71-+    ......",
".......  .o+%;5pcBBcp5;%+o.  ......  .O#=->,,>>,,>-*@o   .......",
"..........   o:0gvvg0:o   ..............XXXXXXXXXXXX............",
"..........    &2uaau2&    ............                ..........",
"..........    +:4664:+    ............                ..........",
"...........   O$=--=$O   ...............            ............",
"................XXXX............................................",
"..............        ..........................................",
"..............        ..........................................",
"................    ............................................",
"................................................................",
"................................................................",
"................................................................",
"................................................................",
"................................................................",
"................................................................",
"................................................................",
"................................................................",
"................................................................",
"................................................................",
"................................................................",
"................................................................",
"................................................................",
"................................................................",
"................................................................",
"................................................................",
"................................................................",
"................................................................"
};
