/* XPM */
static char *sprite_6_18_resized[] = {
/* columns rows colors chars-per-pixel */
"64 64 106 2 ",
"   c #000000",
".  c #000001",
"X  c #010101",
"o  c #010102",
"O  c #030304",
"+  c #040405",
"@  c #050506",
"#  c #070708",
"$  c #0C0C0D",
"%  c #0D0D0D",
"&  c #0D0D0E",
"*  c #0E0E0E",
"=  c #0E0E0F",
"-  c #151516",
";  c #161617",
":  c #171717",
">  c #171718",
",  c #1C1C1C",
"<  c #1C1C1D",
"1  c #1E1E1E",
"2  c #1E1E1F",
"3  c #1F1F1F",
"4  c #1F1F20",
"5  c #212122",
"6  c #232323",
"7  c #232324",
"8  c #242424",
"9  c #242425",
"0  c #252525",
"q  c #353536",
"w  c #393939",
"e  c #3C3C3D",
"r  c #3E3E3E",
"t  c #3E3E3F",
"y  c #3F3F40",
"u  c #404041",
"i  c #414141",
"p  c #4E4E4E",
"a  c #505050",
"s  c #505051",
"d  c #525252",
"f  c #565657",
"g  c #575757",
"h  c #5A5A5B",
"j  c #5C5C5C",
"k  c #5D5D5D",
"l  c #5E5E5F",
"z  c #5F5F5F",
"x  c #606060",
"c  c #636363",
"v  c #636364",
"b  c #646464",
"n  c #656565",
"m  c #676767",
"M  c #686868",
"N  c #69696A",
"B  c #6C6C6C",
"V  c #737373",
"C  c #7A7A7A",
"Z  c #878787",
"A  c #8B8B8B",
"S  c #8C8C8C",
"D  c #939393",
"F  c #949493",
"G  c #999998",
"H  c #A0A0A0",
"J  c #A3A3A3",
"K  c #A5A5A5",
"L  c #A7A7A7",
"P  c #A8A8A8",
"I  c #AAAAA9",
"U  c #AAAAAA",
"Y  c #ABABAB",
"T  c #AEAEAD",
"R  c #AEAEAE",
"E  c #AFAFAF",
"W  c #B1B1B0",
"Q  c #B7B7B6",
"!  c #BDBDBC",
"~  c #BEBEBD",
"^  c #BFBFBF",
"/  c #C4C4C3",
"(  c #CCCCCB",
")  c #DADAD9",
"_  c #DADADA",
"`  c #DBDBDA",
"'  c #DBDBDB",
"]  c #DCDCDC",
"[  c #DDDDDC",
"{  c #DEDEDD",
"}  c #E0E0DF",
"|  c #E1E1E0",
" . c #E3E3E2",
".. c #E3E3E3",
"X. c #E4E4E4",
"o. c #E9E9E8",
"O. c #F2F2F1",
"+. c #F2F2F2",
"@. c #F3F3F2",
"#. c #F9F9F8",
"$. c #FAFAF9",
"%. c #FBFBFA",
"&. c #FCFCFB",
"*. c #FEFEFD",
"=. c #FFFFFE",
"-. c #FFFFFF",
/* pixels */
". . . . . . . . . . . . . . . . . . . . . . . X X .                 . X X . . . . . . . . . . . . . . . . . . . . . . . . . . . ",
". . . . . . . . . . . . . . . . . . . . . . . . . . . X o o o o X . . . . . . . . . . . . . . . . . . . . . . . . . . . . . . . ",
". . . . . . . . . . . . . . . . . . . . . . .     . @ * > 1 1 > * @ .     . . . . . . . . . . . . . . . . . . . . . . . . . . . ",
". . . . . . . . . . . . . . . . . . . . . . .     X % 7 e p p e 7 % X     . . . . . . . . . . . . . . . . . . . . . . . . . . . ",
". . . . . . . . . . . . . . . . . . . . . .       o ; r N Z Z N r ; o       . . . . . . . . . . . . . . . . . . . . . . . . . . ",
". . . . . . . . . . . . . . . . . . . . . .       o 3 f D ! ! D f 3 o       . . . . . . . . . . . . . . . . . . . . . . . . . . ",
". . . . . . . . . . . . . . . . . . . . . .       o 7 b I ) ) I b 7 o       . . . . . . . . . . . . . . . . . . . . . . . . . . ",
". . . . . . . . . . . . . . . . . . . . . .       o 0 M W  . .W M 0 o       . . . . . . . . . . . . . . . . . . . . . . . . . . ",
". . . . . . . . . . . . . . . . . . . . . .       o 9 m E | | E m 9 o       . . . . . . . . . . . . . . . . . . . . . . . . . . ",
". . . . . . . . . . . . . . . . . . . . . .       o 8 n Y ] ] Y n 8 o       . . . . . . . . . . . . . . . . . . . . . . . . . . ",
". . . . . . . . . . . . . . . . . . . . . .       X 6 v U ` ` U v 6 X       . . . . . . . . . . . . . . . . . . . . . . . . . . ",
". . . . . . . . . . . . . . . . . . . . . .         2 x P _ _ P x 2         . . . . . . . . . . . . . . . . . . . . . . . . . . ",
". . . . . . . . . . . . . . . . . . . . X .         < l L ) ) L l <         . X . . . . . . . . . . . . . . . . . . . . . . . . ",
". . . . . . . . . . . . . . . . . . . . . .       O 0 n Y ' ' Y n 0 O       . . . . . . . . . . . . . . . . . . . . . . . . . . ",
". . . . . . . . . . . . . . . . . . .     . + # = 4 i C Q } } Q C i 4 = # + .     . . . . . . . . . . . . . . . . . . . . . . . ",
". . . . . . . . . . . . . . . . . . .     X $ 2 q d V H ( o.o.( H V d q 2 $ X     . . . . . . . . . . . . . . . . . . . . . . . ",
". . . . . . . . . . . . . . . . . .       o - w c S T ( X.@.@.X.( T S c w - o       . . . . . . . . . . . . . . . . . . . . . . ",
". . . . . . . . . . . . . . . . . .       o 1 a A ^ } O.#.%.%.#.O.} ^ A a 1 o       . . . . . . . . . . . . . . . . . . . . . . ",
". . . . . . . . . . . . . . . .           . 5 j H ' &.-.-.-.-.-.-.&.' H j 5 .           . . . . . . . . . . . . . . . . . . . . ",
". . . . . . . . . . . . . .                 2 k K ..-.-.-.-.-.-.-.-...K k 2                 . . . . . . . . . . . . . . . . . . ",
". . . . . . . . . . . . X .                 , h J | -.-.-.-.-.-.-.-.| J h ,                 . X . . . . . . . . . . . . . . . . ",
". . . . . . . . . . . . . . . X o o .     O 8 z J { =.-.-.-.-.-.-.=.{ J z 8 O     . o o X . . . . . . . . . . . . . . . . . . . ",
". . . .                     + $ - 1 5 2 , 8 u V R | *.-.-.-.-.-.-.*.| R V u 8 , 2 5 1 - $ +                     . . . . . . . . ",
"X .                         # 2 w a j k h z V G / o.*.-.-.-.-.-.-.*.o./ G V z h k j a w 2 #                         . . . . . . ",
"X .                         = q c A H K J J R / [ +.=.-.-.-.-.-.-.=.+.[ / R J J K H A c q =                         . X . . . . ",
". . . X o o o o o o X     O 4 d S ^ ' ..| { | o.+.$.=.-.-.=.=.-.-.=.$.+.o.| { | ..' ^ S d 4 O     X o o o o o o X . . . . . . . ",
"  . @ % ; 3 7 0 9 8 6 2 < 0 i V T } &.-.-.=.*.*.=.=.=.=.=.=.=.=.=.=.=.=.*.*.=.-.-.&.} T V i 0 < 2 6 8 9 0 7 3 : & @ .     . . . ",
"  X * 7 r f b M m n v x l n C H ( O.-.-.-.-.-.-.-.-.=.=.=.=.=.=.=.=.-.-.-.-.-.-.-.-.O.( H C n l x v n m M b g y 0 * X     . . . ",
"  o > e N D I W E Y U P L Y Q ( X.#.-.-.-.-.-.-.-.-.=.=.=.=.=.=.=.=.-.-.-.-.-.-.-.-.#.X.( Q Y L P U Y E W I F B t > o       . . ",
"  o 1 p Z ! )  .| ] ` _ ) ' } o.@.%.-.-.-.-.-.-.-.=.=.=.=.=.=.=.=.=.=.-.-.-.-.-.-.-.%.@.o.} ' ) _ ` ] |  .) ~ A s 1 o       . . ",
"  o 1 p Z ! )  .| ] ` _ ) ' } o.@.%.-.-.-.-.-.-.-.=.=.=.=.=.=.=.=.=.=.-.-.-.-.-.-.-.%.@.o.} ' ) _ ` ] |  .) ~ A s 1 o       . . ",
"  o > e N D I W E Y U P L Y Q ( X.#.-.-.-.-.-.-.-.-.=.=.=.=.=.=.=.=.-.-.-.-.-.-.-.-.#.X.( Q Y L P U Y E W I F B t > o       . . ",
"  X * 7 r f b M m n v x l n C H ( O.-.-.-.-.-.-.-.-.=.=.=.=.=.=.=.=.-.-.-.-.-.-.-.-.O.( H C n l x v n m M b g y 0 * X     . . . ",
"  . @ % ; 3 7 0 9 8 6 2 < 0 i V T } &.-.-.=.*.*.=.=.=.=.=.=.=.=.=.=.=.=.*.*.=.-.-.&.} T V i 0 < 2 6 8 9 0 7 3 : & @ .     . . . ",
". . . X o o o o o o X     O 4 d S ^ ' ..| { | o.+.$.=.-.-.=.=.-.-.=.$.+.o.| { | ..' ^ S d 4 O     X o o o o o o X . . . . . . . ",
"X .                         = q c A H K J J R / [ +.=.-.-.-.-.-.-.=.+.[ / R J J K H A c q =                         . X . . . . ",
"X .                         # 2 w a j k h z V G / o.*.-.-.-.-.-.-.*.o./ G V z h k j a w 2 #                         . . . . . . ",
". . . .                     + $ - 1 5 2 , 8 u V R | *.-.-.-.-.-.-.*.| R V u 8 , 2 5 1 - $ +                     . . . . . . . . ",
". . . . . . . . . . . . . . . X o o .     O 8 z J { =.-.-.-.-.-.-.=.{ J z 8 O     . o o X . . . . . . . . . . . . . . . . . . . ",
". . . . . . . . . . . . X .                 , h J | -.-.-.-.-.-.-.-.| J h ,                 . X . . . . . . . . . . . . . . . . ",
". . . . . . . . . . . . . .                 2 k K ..-.-.-.-.-.-.-.-...K k 2                 . . . . . . . . . . . . . . . . . . ",
". . . . . . . . . . . . . . . .           . 5 j H ' &.-.-.-.-.-.-.&.' H j 5 .           . . . . . . . . . . . . . . . . . . . . ",
". . . . . . . . . . . . . . . . . .       o 1 a A ^ } O.#.%.%.#.O.} ^ A a 1 o       . . . . . . . . . . . . . . . . . . . . . . ",
". . . . . . . . . . . . . . . . . .       o - w c S T ( X.@.@.X.( T S c w - o       . . . . . . . . . . . . . . . . . . . . . . ",
". . . . . . . . . . . . . . . . . . .     X $ 2 q d V H ( o.o.( H V d q 2 $ X     . . . . . . . . . . . . . . . . . . . . . . . ",
". . . . . . . . . . . . . . . . . . .     . + # = 4 i C Q } } Q C i 4 = # + .     . . . . . . . . . . . . . . . . . . . . . . . ",
". . . . . . . . . . . . . . . . . . . . . .       O 0 n Y ' ' Y n 0 O       . . . . . . . . . . . . . . . . . . . . . . . . . . ",
". . . . . . . . . . . . . . . . . . . . X .         < l L ) ) L l <         . X . . . . . . . . . . . . . . . . . . . . . . . . ",
". . . . . . . . . . . . . . . . . . . . . .         2 x P _ _ P x 2         . . . . . . . . . . . . . . . . . . . . . . . . . . ",
". . . . . . . . . . . . . . . . . . . . . .       X 6 v U ` ` U v 6 X       . . . . . . . . . . . . . . . . . . . . . . . . . . ",
". . . . . . . . . . . . . . . . . . . . . .       o 8 n Y ] ] Y n 8 o       . . . . . . . . . . . . . . . . . . . . . . . . . . ",
". . . . . . . . . . . . . . . . . . . . . .       o 9 m E | | E m 9 o       . . . . . . . . . . . . . . . . . . . . . . . . . . ",
". . . . . . . . . . . . . . . . . . . . . .       o 0 M W  . .W M 0 o       . . . . . . . . . . . . . . . . . . . . . . . . . . ",
". . . . . . . . . . . . . . . . . . . . . .       o 7 b I ) ) I b 7 o       . . . . . . . . . . . . . . . . . . . . . . . . . . ",
". . . . . . . . . . . . . . . . . . . . . .       o 3 g F ~ ~ F g 3 o       . . . . . . . . . . . . . . . . . . . . . . . . . . ",
". . . . . . . . . . . . . . . . . . . . . .       o : y B A A B y : o       . . . . . . . . . . . . . . . . . . . . . . . . . . ",
". . . . . . . . . . . . . . . . . . . . . . .     X & 0 t s s t 0 & X     . . . . . . . . . . . . . . . . . . . . . . . . . . . ",
". . . . . . . . . . . . . . . . . . . . . . .     . @ * > 1 1 > * @ .     . . . . . . . . . . . . . . . . . . . . . . . . . . . ",
". . . . . . . . . . . . . . . . . . . . . . . . . . . X o o o o X . . . . . . . . . . . . . . . . . . . . . . . . . . . . . . . ",
". . . . . . . . . . . . . . . . . . . . . . . . X .                 . X . . . . . . . . . . . . . . . . . . . . . . . . . . . . ",
". . . . . . . . . . . . . . . . . . . . . . . . . .                 . . . . . . . . . . . . . . . . . . . . . . . . . . . . . . ",
". . . . . . . . . . . . . . . . . . . . . . . . . . . .         . . . . . . . . . . . . . . . . . . . . . . . . . . . . . . . . ",
". . . . . . . . . . . . . . . . . . . . . . . . . . . . . . . . . . . . . . . . . . . . . . . . . . . . . . . . . . . . . . . . ",
". . . . . . . . . . . . . . . . . . . . . . . . . . . . . . . . . . . . . . . . . . . . . . . . . . . . . . . . . . . . . . . . "
};
