/* XPM */
static char *sprite_6_17_resized[] = {
/* columns rows colors chars-per-pixel */
"64 64 79 1 ",
"  c #000000",
". c #000001",
"X c #010102",
"o c #020203",
"O c #030304",
"+ c #050506",
"@ c #060607",
"# c #0D0D0E",
"$ c #0E0E0E",
"% c #0E0E0F",
"& c #171717",
"* c #171718",
"= c #19191A",
"- c #1C1C1D",
"; c #1E1E1E",
": c #1E1E1F",
"> c #1F1F1F",
", c #1F1F20",
"< c #232323",
"1 c #232324",
"2 c #242424",
"3 c #242425",
"4 c #252525",
"5 c #333333",
"6 c #3E3E3F",
"7 c #3F3F40",
"8 c #404040",
"9 c #414141",
"0 c #505051",
"q c #515151",
"w c #575757",
"e c #5E5E5F",
"r c #606060",
"t c #636364",
"y c #646464",
"u c #656565",
"i c #676767",
"p c #686868",
"a c #6C6C6C",
"s c #737373",
"d c #747474",
"f c #7A7A7A",
"g c #8B8B8B",
"h c #949493",
"j c #A0A09F",
"k c #A0A0A0",
"l c #A7A7A7",
"z c #A8A8A8",
"x c #AAAAA9",
"c c #AAAAAA",
"v c #ABABAB",
"b c #AEAEAD",
"n c #AEAEAE",
"m c #AFAFAF",
"M c #B1B1B0",
"N c #B7B7B7",
"B c #BEBEBD",
"V c #BFBFBF",
"C c #CCCCCC",
"Z c #DADAD9",
"A c #DADADA",
"S c #DBDBDA",
"D c #DBDBDB",
"F c #DCDCDC",
"G c #E0E0DF",
"H c #E1E1E0",
"J c #E3E3E2",
"K c #E5E5E4",
"L c #E6E6E5",
"P c #E9E9E8",
"I c #F1F1F1",
"U c #F2F2F1",
"Y c #F3F3F2",
"T c #F9F9F8",
"R c #FBFBFA",
"E c #FCFCFB",
"W c #FDFDFC",
"Q c #FFFFFE",
"! c #FFFFFF",
/* pixels */
"................................................................",
"................................................................",
"............................    ................................",
"..........................        ..............................",
"..........................        ..............................",
"............................XXXX................................",
".......................  .+$*;;*$+.  ...........................",
".......................  .#460064#.  ...........................",
"......................   X&7agga7&X   ..........................",
"......................   X>whBBhw>X   ..........................",
"......................   X1yxZZxy1X   ..........................",
"......................   X4pMJJMp4X   ..........................",
"......................   X3imHHmi3X   ..........................",
"......................   X2uvFFvu2X   ..........................",
"......................   .<tcSSct<.   ..........................",
"......................    :rzAAzr:    ..........................",
"......................    -elZZle-    ..........................",
"......................   O4uvDDvu4O   ..........................",
"...................   O@$,9fNGGNf9,$@O   .......................",
"..................    @=5qskCPPCksq5=@    ......................",
"..................    %5rgbCKYYKCbgr5%    ......................",
"..................   o,qgVGUTRRTUGVgq,o   ......................",
"........          O@%,8dnGW!!!!!!WGnd8,%@O          ............",
"......            @=5qdjCI!!!!!!!!ICjdq5=@            ..........",
"......            $5rgnCLT!!!!!!!!TLCngr5$            ..........",
"........XXXXXX.  O,qgVGITE!!!QQ!!!ETIGVgq,O  .XXXXXX............",
"...  .+#&>1432<:-49sbGW!!!QQQQQQQQ!!!WGbs94-:<2341>&#+.  .......",
"...  .$47wypiutreufkCU!!!!QQQQQQQQ!!!!UCkfuertuipyw74$.  .......",
"..   X*6ahxMmvczlvNCKT!!!!QQQQQQQQ!!!!TKCNvlzcvmMxha6*X   ......",
"..   X;0gBZJHFSAZDGPYR!!!QQQQQQQQQQ!!!RYPGDZASFHJZBg0;X   ......",
"..   X;0gBZJHFSAZDGPYR!!!QQQQQQQQQQ!!!RYPGDZASFHJZBg0;X   ......",
"..   X*6ahxMmvczlvNCKT!!!!QQQQQQQQ!!!!TKCNvlzcvmMxha6*X   ......",
"...  .$47wypiutreufkCU!!!!QQQQQQQQ!!!!UCkfuertuipyw74$.  .......",
"...  .+#&>1432<:-49sbGW!!!QQQQQQQQ!!!WGbs94-:<2341>&#+.  .......",
"........XXXXXX.  O,qgVGITE!!!QQ!!!ETIGVgq,O  .XXXXXX............",
"......            $5rgnCLT!!!!!!!!TLCngr5$            ..........",
"......            @=5qdjCI!!!!!!!!ICjdq5=@            ..........",
"........          O@%,8dnGW!!!!!!WGnd8,%@O          ............",
"..................   o,qgVGUTRRTUGVgq,o   ......................",
"..................    %5rgbCKYYKCbgr5%    ......................",
"..................    @=5qskCPPCksq5=@    ......................",
"...................   O@$,9fNGGNf9,$@O   .......................",
"......................   O4uvDDvu4O   ..........................",
"......................    -elZZle-    ..........................",
"......................    :rzAAzr:    ..........................",
"......................   .<tcSSct<.   ..........................",
"......................   X2uvFFvu2X   ..........................",
"......................   X3imHHmi3X   ..........................",
"......................   X4pMJJMp4X   ..........................",
"......................   X1yxZZxy1X   ..........................",
"......................   X>whBBhw>X   ..........................",
"......................   X&7agga7&X   ..........................",
".......................  .#460064#.  ...........................",
".......................  .+$*;;*$+.  ...........................",
"............................XXXX................................",
"..........................        ..............................",
"..........................        ..............................",
"............................    ................................",
"................................................................",
"................................................................",
"................................................................",
"................................................................",
"................................................................",
"................................................................"
};
