/* XPM */
static char *sprite_9_16_resized[] = {
/* columns rows colors chars-per-pixel */
"64 64 106 2 ",
"   c #000000",
".  c #000001",
"X  c #010101",
"o  c #010102",
"O  c #020203",
"+  c #030303",
"@  c #030304",
"#  c #040405",
"$  c #070708",
"%  c #080809",
"&  c #0C0C0D",
"*  c #0F0F10",
"=  c #101010",
"-  c #101011",
";  c #161617",
":  c #181819",
">  c #1D1D1E",
",  c #1E1E1F",
"<  c #1F1F1F",
"1  c #1F1F20",
"2  c #202020",
"3  c #202021",
"4  c #222223",
"5  c #232323",
"6  c #232324",
"7  c #242424",
"8  c #242425",
"9  c #252525",
"0  c #383839",
"q  c #393939",
"w  c #3B3B3B",
"e  c #3B3B3C",
"r  c #3C3C3D",
"t  c #3D3D3D",
"y  c #3D3D3E",
"u  c #515152",
"i  c #535353",
"p  c #565656",
"a  c #595959",
"s  c #5E5E5E",
"d  c #5F5F5F",
"f  c #606060",
"g  c #616161",
"h  c #626262",
"j  c #636363",
"k  c #646465",
"l  c #656565",
"z  c #666666",
"x  c #676767",
"c  c #686868",
"v  c #686869",
"b  c #696969",
"n  c #6C6C6C",
"m  c #6D6D6D",
"M  c #6E6E6F",
"N  c #7D7D7D",
"B  c #7F7F7F",
"V  c #828282",
"C  c #838383",
"Z  c #8C8C8B",
"A  c #8E8E8E",
"S  c #8F8F8E",
"D  c #919191",
"F  c #929292",
"G  c #939393",
"H  c #949493",
"J  c #979797",
"K  c #989898",
"L  c #999999",
"P  c #9A9A9A",
"I  c #9C9C9C",
"U  c #9F9F9F",
"Y  c #A0A09F",
"T  c #A0A0A0",
"R  c #A1A1A0",
"E  c #A1A1A1",
"W  c #A2A2A1",
"Q  c #A4A4A4",
"!  c #A5A5A5",
"~  c #A7A7A6",
"^  c #A7A7A7",
"/  c #AAAAAA",
"(  c #ABABAB",
")  c #B2B2B1",
"_  c #B2B2B2",
"`  c #B3B3B2",
"'  c #B3B3B3",
"]  c #BCBCBC",
"[  c #BDBDBC",
"{  c #BEBEBD",
"}  c #C0C0C0",
"|  c #C1C1C1",
" . c #C3C3C2",
".. c #C4C4C3",
"X. c #DBDBDA",
"o. c #DBDBDB",
"O. c #DCDCDC",
"+. c #DDDDDD",
"@. c #E1E1E1",
"#. c #E3E3E2",
"$. c #E7E7E6",
"%. c #E8E8E7",
"&. c #FCFCFB",
"*. c #FDFDFC",
"=. c #FFFFFE",
"-. c white",
/* pixels */
". . . . . . . . . . . . . . . X X .         : a ! $.-.-.-.-.-.-.-.-.-.-.-.-.$.! a :         . X X . . . . . . . . . . . . . . . ",
". . . . . . . . . . . . . . . . . .       @ 7 s E o.&.-.-.=.*.*.*.*.=.-.-.&.o.E s 7 @       . . . . . . . . . . . . . . . . . . ",
". . . . . . . . . . . . . . .       @ $ - 2 r b P ..o.#.@.+.O.O.O.O.+.@.#.o...P b r 2 - $ @       . . . . . . . . . . . . . . . ",
". . . . . . . . . . . . . .         $ > 0 i b N S I Q ^ ~ ! ! ! ! ! ! ~ ^ Q I S N b i 0 > $         . . . . . . . . . . . . . . ",
". . . . . . . . . . . . X .         * q v A I G B n h d f g h h h h g f d h n B G I A v q *         . X . . . . . . . . . . . . ",
". . . . . . . . . . . . . .       O 1 p D ] } U n t 8 > < 5 6 6 6 6 5 < > 8 t n U } ] D p 1 O       . . . . . . . . . . . . . . ",
". . . . . . . . . . .     . # % * < r m T | [ F p 2 +     X o o o o X     + 2 p F [ | T m r < * % # .     . . . . . . . . . . . ",
". . . . . . . . . . .     X & 3 0 u c V J Y F n w =                         = w n F Y J V c u 0 3 & X     . . . . . . . . . . . ",
". . . . . . . . . .       o ; t b Z L H C m p w 1 $                         $ 1 w p m C H L Z b t ; o       . . . . . . . . . . ",
". . . . . . . . . .       o < p F {  .W M y 2 = $ @                         @ $ = 2 y M W  .{ F p < o       . . . . . . . . . . ",
". . . . . . . .           . 4 j / X.o.( l 9 @       . . . . . . . . . . . .       @ 9 l ( o.X./ j 4 .           . . . . . . . . ",
". . . . . .                 3 z ' %.%.) k ,         . X . . . . . . . . X .         , k ) %.%.' z 3                 . . . . . . ",
". . . . X .                 , l _ %.%.` z 3         . . . . . . . . . . . .         3 z ` %.%._ l ,                 . X . . . . ",
". . . . . . . X o o .     @ 9 l ( o.X./ j 4 X       . . . . . . . . . . . .       X 4 j / X.o.( l 9 @     . o o X . . . . . . . ",
". . .       # & ; < 4 3 , 9 y m R  .{ F p < o       . . . . . . . . . . . .       o < p F {  .R m y 9 , 3 4 < ; & #       . . . ",
"X .         % 3 t p j z l l m B D K Z b t ; o       . . . . . . . . . . . .       o ; t b Z K D B m l l z j p t 3 %         . X ",
"X .         * 0 b F / ' _ ( R D N x u 0 3 & X     . . . . . . . . . . . . . .     X & 3 0 u x N D R ( _ ' / F b 0 *         . X ",
". .       O < u Z { X.%.%.o. .K x e < * % # .     . . . . . . . . . . . . . .     . # % * < e x K  .o.%.%.X.{ Z u < O       . . ",
"    @ $ * 1 r c L  .o.%.%.X.{ Z u < O       . . . . . . . . . . . . . . . . . . . .       O < u Z { X.%.%.o. .L c r 1 * $ @     ",
"    $ > q p m V H W ( ) ` / F b 0 *         . X . . . . . . . . . . . . . . . . X .         * 0 b F / ` ) ( W H V m p q > $     ",
"    - 0 v D T J C M l k z j p t 3 %         . . . . . . . . . . . . . . . . . . . .         % 3 t p j z k l M C J T D v 0 -     ",
"  @ 2 i A ] | Y m y 9 , 3 4 < ; & #       . . . . . . . . . . . . . . . . . . . . . .       # & ; < 4 3 , 9 y m Y | ] A i 2 @   ",
": 7 r b I } [ F p 2 @     X o o X . . . . . . . . . . . . . . . . . . . . . . . . . . . . . . X o o X     @ 2 p F [ } I b r 7 : ",
"a s b N G U F n w =                 . X . . . . . . . . . . . . . . . . . . . . . . . . X .                 = w n F U G N b s a ",
"! E P S B n p w 1 $                 . . . . . . . . . . . . . . . . . . . . . . . . . . . .                 $ 1 w p n B S P E ! ",
"$.o...I n t 2 = $ @             . . . . . . . . . . . . . . . . . . . . . . . . . . . . . . . .             @ $ = 2 t n I ..o.$.",
"-.&.o.Q h 8 +       . . . . . . . . . . . . . . . . . . . . . . . . . . . . . . . . . . . . . . . . . . . .       + 8 h Q o.&.-.",
"-.-.#.^ d >         . X . . . . . . . . . . . . . . . . . . . . . . . . . . . . . . . . . . . . . . . . X .         > d ^ #.-.-.",
"-.-.@.~ f <         . . . . . . . . . . . . . . . . . . . . . . . . . . . . . . . . . . . . . . . . . . . .         < f ~ @.-.-.",
"-.=.+.! g 5 X       . . . . . . . . . . . . . . . . . . . . . . . . . . . . . . . . . . . . . . . . . . . .       X 5 g ! +.=.-.",
"-.*.O.! h 6 o       . . . . . . . . . . . . . . . . . . . . . . . . . . . . . . . . . . . . . . . . . . . .       o 6 h ! O.*.-.",
"-.*.O.! h 6 o       . . . . . . . . . . . . . . . . . . . . . . . . . . . . . . . . . . . . . . . . . . . .       o 6 h ! O.*.-.",
"-.*.O.! h 6 o       . . . . . . . . . . . . . . . . . . . . . . . . . . . . . . . . . . . . . . . . . . . .       o 6 h ! O.*.-.",
"-.*.O.! h 6 o       . . . . . . . . . . . . . . . . . . . . . . . . . . . . . . . . . . . . . . . . . . . .       o 6 h ! O.*.-.",
"-.=.+.! g 5 X       . . . . . . . . . . . . . . . . . . . . . . . . . . . . . . . . . . . . . . . . . . . .       X 5 g ! +.=.-.",
"-.-.@.~ f <         . . . . . . . . . . . . . . . . . . . . . . . . . . . . . . . . . . . . . . . . . . . .         < f ~ @.-.-.",
"-.-.#.^ d >         . X . . . . . . . . . . . . . . . . . . . . . . . . . . . . . . . . . . . . . . . . X .         > d ^ #.-.-.",
"-.&.o.Q h 8 +       . . . . . . . . . . . . . . . . . . . . . . . . . . . . . . . . . . . . . . . . . . . .       + 8 h Q o.&.-.",
"$.o...I n t 2 = $ @             . . . . . . . . . . . . . . . . . . . . . . . . . . . . . . . .             @ $ = 2 t n I ..o.$.",
"! E P S B n p w 1 $                 . . . . . . . . . . . . . . . . . . . . . . . . . . . .                 $ 1 w p n B S P E ! ",
"a s b N G U F n w =                 . X . . . . . . . . . . . . . . . . . . . . . . . . X .                 = w n F U G N b s a ",
": 7 r b I } [ F p 2 @     X o o X . . . . . . . . . . . . . . . . . . . . . . . . . . . . . . X o o X     @ 2 p F [ } I b r 7 : ",
"  @ 2 i A ] | Y m y 9 , 3 4 < ; & #       . . . . . . . . . . . . . . . . . . . . . .       # & ; < 4 3 , 9 y m Y | ] A i 2 @   ",
"    - 0 v D T J C M l k z j p t 3 %         . . . . . . . . . . . . . . . . . . . .         % 3 t p j z k l M C J T D v 0 -     ",
"    $ > q p m V H W ( ) ` / F b 0 *         . X . . . . . . . . . . . . . . . . X .         * 0 b F / ` ) ( W H V m p q > $     ",
"    @ $ * 1 r c L  .o.%.%.X.{ Z u < O       . . . . . . . . . . . . . . . . . . . .       O < u Z { X.%.%.o. .L c r 1 * $ @     ",
". .       O < u Z { X.%.%.o. .K x e < * % # .     . . . . . . . . . . . . . .     . # % * < e x K  .o.%.%.X.{ Z u < O       . . ",
"X .         * 0 b F / ' _ ( R D N x u 0 3 & X     . . . . . . . . . . . . . .     X & 3 0 u x N D R ( _ ' / F b 0 *         . X ",
"X .         % 3 t p j z l l m B D K Z b t ; o       . . . . . . . . . . . .       o ; t b Z K D B m l l z j p t 3 %         . X ",
". . .       # & ; < 4 3 , 9 y m R  .{ F p < o       . . . . . . . . . . . .       o < p F {  .R m y 9 , 3 4 < ; & #       . . . ",
". . . . . . . X o o .     @ 9 l ( o.X./ j 4 X       . . . . . . . . . . . .       X 4 j / X.o.( l 9 @     . o o X . . . . . . . ",
". . . . X .                 , l _ %.%.` z 3         . . . . . . . . . . . .         3 z ` %.%._ l ,                 . X . . . . ",
". . . . . .                 3 z ' %.%.) k ,         . X . . . . . . . . X .         , k ) %.%.' z 3                 . . . . . . ",
". . . . . . . .           . 4 j / X.o.( l 9 @       . . . . . . . . . . . .       @ 9 l ( o.X./ j 4 .           . . . . . . . . ",
". . . . . . . . . .       o < p F {  .W M y 2 = $ @                         @ $ = 2 y M W  .{ F p < o       . . . . . . . . . . ",
". . . . . . . . . .       o ; t b Z L H C m p w 1 $                         $ 1 w p m C H L Z b t ; o       . . . . . . . . . . ",
". . . . . . . . . . .     X & 3 0 u c V J Y F n w =                         = w n F Y J V c u 0 3 & X     . . . . . . . . . . . ",
". . . . . . . . . . .     . # % * < r m T | [ F p 2 +     X o o o o X     + 2 p F [ | T m r < * % # .     . . . . . . . . . . . ",
". . . . . . . . . . . . . .       O 1 p D ] } U n t 8 > < 5 6 6 6 6 5 < > 8 t n U } ] D p 1 O       . . . . . . . . . . . . . . ",
". . . . . . . . . . . . X .         * q v A I G B n h d f g h h h h g f d h n B G I A v q *         . X . . . . . . . . . . . . ",
". . . . . . . . . . . . . .         $ > 0 i b N S I Q ^ ~ ! ! ! ! ! ! ~ ^ Q I S N b i 0 > $         . . . . . . . . . . . . . . ",
". . . . . . . . . . . . . . .       @ $ - 2 r b P ..o.#.@.+.O.O.O.O.+.@.#.o...P b r 2 - $ @       . . . . . . . . . . . . . . . ",
". . . . . . . . . . . . . . . . . .       @ 7 s E o.&.-.-.=.*.*.*.*.=.-.-.&.o.E s 7 @       . . . . . . . . . . . . . . . . . . ",
". . . . . . . . . . . . . . . X X .         : a ! $.-.-.-.-.-.-.-.-.-.-.-.-.$.! a :         . X X . . . . . . . . . . . . . . . "
};
