/* XPM */
static char *sprite_8_19_resized[] = {
/* columns rows colors chars-per-pixel */
"64 64 234 2 ",
"   c #000001",
".  c #060906",
"X  c #06020A",
"o  c #0A010F",
"O  c #0B0C0C",
"+  c #0F100F",
"@  c #0C0212",
"#  c #0F0F10",
"$  c #0E0019",
"%  c #130918",
"&  c #131413",
"*  c #171718",
"=  c #171818",
"-  c #1C1C1D",
";  c #1F211F",
":  c #160021",
">  c #190125",
",  c #1D022A",
"<  c #1F1E20",
"1  c #21052D",
"2  c #220A2C",
"3  c #251F28",
"4  c #270337",
"5  c #2C1537",
"6  c #31173D",
"7  c #1F2020",
"8  c #222223",
"9  c #272728",
"0  c #29212D",
"q  c #2D2331",
"w  c #332639",
"e  c #333433",
"r  c #363836",
"t  c #383A37",
"y  c #3C3D3D",
"u  c #3E403D",
"i  c #320545",
"p  c #35054A",
"a  c #39094D",
"s  c #390A4D",
"d  c #371B43",
"f  c #3C2546",
"g  c #3F3F40",
"h  c #400F54",
"j  c #440C5C",
"k  c #411554",
"l  c #471A5A",
"z  c #443B48",
"x  c #4E325B",
"c  c #470365",
"v  c #4D0B69",
"b  c #500D6D",
"n  c #510E6D",
"m  c #530474",
"M  c #570778",
"N  c #5A0C7B",
"B  c #5B1778",
"V  c #5D127C",
"C  c #60177E",
"Z  c #542667",
"A  c #573267",
"S  c #612E77",
"D  c #632B7B",
"F  c #653A77",
"G  c #424242",
"H  c #474748",
"J  c #4D4D4D",
"K  c #4E4950",
"L  c #544B59",
"P  c #545555",
"I  c #59555B",
"U  c #5C5D5C",
"Y  c #5F605F",
"T  c #60625F",
"R  c #5B4665",
"E  c #5E5661",
"W  c #5F5C61",
"Q  c #654F6F",
"!  c #646564",
"~  c #69676A",
"^  c #6D6D6D",
"/  c #6F716F",
"(  c #75677B",
")  c #737473",
"_  c #7B7A7B",
"`  c #AE1C0B",
"'  c #B12616",
"]  c #B63424",
"[  c #B73828",
"{  c #B93C2D",
"}  c #BA3F30",
"|  c #BC4435",
" . c #BE4B3D",
".. c #BF4E40",
"X. c #C04F40",
"o. c #C25649",
"O. c #C76356",
"+. c #C8665A",
"@. c #C9695E",
"#. c #CB6E63",
"$. c #CD7469",
"%. c #CF7C72",
"&. c #D07D72",
"*. c #7F807F",
"=. c #80807F",
"-. c #CE827F",
";. c #D38277",
":. c #D5897F",
">. c #5F0E81",
",. c #631A82",
"<. c #692386",
"1. c #6B2787",
"2. c #6D2B89",
"3. c #702E8C",
"4. c #703E85",
"5. c #703489",
"6. c #71308C",
"7. c #783992",
"8. c #744389",
"9. c #7E4496",
"0. c #7D6886",
"q. c #814699",
"w. c #844C9C",
"e. c #885A9B",
"r. c #81698B",
"t. c #827688",
"y. c #866793",
"u. c #8D7497",
"i. c #8647A0",
"p. c #8D58A3",
"a. c #905DA6",
"s. c #9464AA",
"d. c #9669A9",
"f. c #9977A7",
"g. c #9C6BB1",
"h. c #9F72B1",
"j. c #A474AB",
"k. c #A174B4",
"l. c #A47BB6",
"z. c #A67BB8",
"x. c #848584",
"c. c #8C858F",
"v. c #8C8C8B",
"b. c #8F918E",
"n. c #8F8D90",
"m. c #958B99",
"M. c #939393",
"N. c #989798",
"B. c #9B9B9B",
"V. c #A09F9F",
"C. c #9EA09D",
"Z. c #A0A29F",
"A. c #9E94A2",
"S. c #A29DA4",
"D. c #AA81BB",
"F. c #AB8BB8",
"G. c #AD96B7",
"H. c #B299BD",
"J. c #A1A2A1",
"K. c #A7A6A7",
"L. c #ABABAA",
"P. c #AEB0AD",
"I. c #B2ADB3",
"U. c #B3B4B2",
"Y. c #BDBDBC",
"T. c #CB888D",
"R. c #D58B82",
"E. c #D98F83",
"W. c #D9938A",
"Q. c #DC9D95",
"!. c #DEA39B",
"~. c #E0A59C",
"^. c #C496AF",
"/. c #D8A7AB",
"(. c #E1ACA5",
"). c #E2AFA8",
"_. c #E5B2A8",
"`. c #E4B3AC",
"'. c #E7BBB4",
"]. c #E8BEB7",
"[. c #BFC1BE",
"{. c #EBC1B8",
"}. c #B18AC0",
"|. c #B897C6",
" X c #BBA6C3",
".X c #BEA2CB",
"XX c #C3A7C9",
"oX c #C1A4CE",
"OX c #C7BDCB",
"+X c #C5AAD4",
"@X c #C9AED3",
"#X c #CCB4D7",
"$X c #D2BBDB",
"%X c #D7BDE1",
"&X c #C2C2C1",
"*X c #CAC9CA",
"=X c #CED1CD",
"-X c #CDC4D0",
";X c #D6C3DD",
":X c #D7D8D6",
">X c #DCDCDB",
",X c #EAC5C0",
"<X c #ECCAC5",
"1X c #EDCEC9",
"2X c #EBD0D0",
"3X c #E0DFDF",
"4X c #F1D8D4",
"5X c #E0E1DF",
"6X c #F5E2DE",
"7X c #D8C9E4",
"8X c #DCCAE4",
"9X c #E4D3EB",
"0X c #E5D2EC",
"qX c #E7DCEA",
"wX c #E8DEEC",
"eX c #E3E3E2",
"rX c #E8E8E7",
"tX c #EAE2ED",
"yX c #EBECEA",
"uX c #F6E6E3",
"iX c #F8E9E5",
"pX c #F8ECEA",
"aX c #EEF2EC",
"sX c #F8F1EE",
"dX c #ECE4F2",
"fX c #EEE8F3",
"gX c #F1EAF4",
"hX c #F6EDF9",
"jX c #F4F3F4",
"kX c #F6F6F6",
"lX c #FBF4F2",
"zX c #FBFAF6",
"xX c #FBF5FC",
"cX c #FEFEFE",
/* pixels */
"                                                                                                                                ",
"                                                                                                                                ",
"                                                                                                                                ",
"                                                                                                                                ",
"                                                                                                                                ",
"                                                                                                                                ",
"            . # = - ; * O X                                                 . O = - 3 = O .                                     ",
"            O 9 G I P G 8 .                                                 . 8 u P P G 9 #                                     ",
"            = H ) M.M.^ y &                                                 & y ) M.M.) G =                                     ",
"            - P M.Y.Y.M.I ;                                                 - P M.Y.Y.M.P 3                                     ",
"            - P M.Y.&XJ./ y 8 # . .         . O = - ; * O .         . . & - y / V.&XY.n.P -           X X o $ @ @ @ @ @ o @ @ @ ",
"            = z / M.V.N.x.^ P y 8 O         O 9 G I P z 8 .         O 8 y I / x.N.V.M.^ t &           X $ : , 1 1 1 , 1 1 1 1 1 ",
"            O 8 y P / x.B.J.M.^ u =         = G ) M.M./ u +         * u ^ M.V.N.x./ P t - .           $ , 4 p p p p a a a a a a ",
"            . . & 8 y ^ J.&XY.M.P 8         ; P M.Y.Y.M.I 7         3 P M.Y.&XJ./ y 3 # . .         o , i j b b b v v v v v v v ",
"                    3 P M.Y.Y.N.I 0 o       - P b.Y.&XV.^ y ; O   . - P M.Y.Y.M.P < X . # - 8 8 8 8 q f Z D 2.,.,.N N N N N N N ",
"                    # y ^ n.N.t.R d , $     & y ^ M.V.N.x.^ P r - O = G ) M.v.~ r O   & e P ! ! T W ~ ( y.a.a.i.2.,.N M N N >.N ",
"                    . ; u P W R x k i , $   . = t P / x.N.C.b.~ y * O 8 z P P t = X O e ! b.K.L.K.J.K.I. XXX|.g.7.,.M M M N >.,.",
"                    X O = ; 0 d k j j i , @ . . # 7 y ^ J.&XY.n.P 3 . . & - < & . X < K v./.>XeXeX>XqXeXrXwX$X|.a.3.N M M M M N ",
"                            @ , i j j k d 0 < #   . 7 I B.OXOXB.I <           . + < g ^ C.-XwXhXxXcXcXcXcXcXtX@Xz.w.2.B B b v c ",
"                              $ 1 p k x R E P r *   # z r.G.H.u.L -         . = r J ^ 0.A. X#X0XhXcXcXcXcXcXkX9X+XD.a.4.Z s i i ",
"                              X $ , d R 0.N.b.~ e . o 6 F e.a.Q f %         & r ! v.A.A.f.f.l.oX9XxXcXcXcXcXcXgX9X$XH.r.A 6 > $ ",
"                                  @ 0 I N.[.Y.b.P - % 2 k D D l 5 $         - P b.[.-X|.g.w.w.k.@XtXcXcXcXcXcXxXhXwX-Xm.L q $   ",
"                                    ; P b.Y.[.C.^ y 9 5 s j s p , o         8 Y K.>XtX#Xl.w.q.d.|.;XtXkXcXcXzXkXaX3X[.M.T y 8 = ",
"                                    + r ~ v.B.M.x.^ W x x s i , $ X         ; Y L.eXhX0XoXk.d.g.z.|.@X;XtXhXjX5X*XP.N.x./ ! U U ",
"                                      = e J ! x.M.V.N.( L 6 > $ o X         - U K.5XzXhX9X@X|.D.g.d.k.|.8XfXrX&XN./ ! / x.M.C.K.",
"                                    . O & ; y ^ J.&XOXN.E 3 @               9 U K.>XxXcXxXtX;X|.d.w.w.z.#XtX5XP.) G u ! N.[.>XrX",
"                            . + * - 8 8 ; 9 z ^ V.&XY.b.P ;           . + ; g ) L.eXcXcXcXcXdX@Xk.w.w.z.$XtX>XP./ G G / L.qXzXcX",
"                            O 8 y P ! ! U U ~ _ M.C.b.^ u &         O ; r P _ V.*XyXcXcXcXcXxX8X.Xz.z.|.8XfXrX[.b.^ / M.&XaXcXcX",
"                            = z ^ M.K.I.L.K.B.b.=.^ P y ; O         * t ! b.U.=XeXjXcXcXcXcXcXgX8X$X#X8XdXhXjX>XY.L.L.Y.>XkXcXcX",
"                            - J v.Y.>XrXrX>X&XN.~ y - & O           - K v.[.>XaXkXxXcXcXcXcXcXlXgXwXwXgXkXzXkXjXrX5XeXyXaXcXcXcX",
"                            - P v.Y.>XyXrX>XY.v.J 8 X     o @ X X @ q E m.-XtXxXcXcXzXjXyX5X>X:X:X:XqXrXjXzXcXcXcXcXcXcXcXcXcXcX",
"                            = g ^ M.L.U.U.L.M.! e .     @ > , , , 1 d R y.|.$X9XgXkXjX>XY.L.B.N.B.Z.P.&X>XjXcXcXcXcXcXcXcXcXcXcX",
"                            O 9 G P ! ~ ^ ! P t =     o > i a p p a l Z 8.s.D.+X9XgXrX&XN.^ P J J U ^ M.[.rXcXcXcXcXcXcXcXcXcXcX",
"                            . O * - 9 9 9 8 ; & O . o , i j v v v v n N C 2.w.D.$XtX3XU._ G 8 = = 8 G ) U.eXcXcXcXcXcXcXcXcXcXcX",
"                                            . O & ; q d l b N N N N N m m N 6.g.@XwX5XU._ G 8 = = ; G ) U.3XcXcXcXcXcXhXgXtXwXwX",
"                                              = r J E R S V >.>.M M M m m M 1.d.+XwXrX*XM.^ P J H P ^ C.&XyXcXcXcXcXjXqX;X@X.X|.",
"                                            . e ! v.m.u.9.D N M m M m m m m 1.d.oXwXaX3X&XL.B.M.M.C.L.&X>XkXcXcXcXcXfX;X|.h.a.e.",
"                                            < P b.[.OX|.a.1.N M M N N M m M 2.d.+XwXzXzXaXeX>X>X:X>X3XrXjXzXcXcXcXcXtX@Xk.w.3.<.",
"@ @ o X                               . + 7 g _ U.3XwXXXs.S n b B 1.<.,.V V 2.d.oXtXcXcXcXcXcXcXcXcXcXlXpXuXiXsXzXcXwX@Xk.w.6.<.",
"4 1 1 $ o                           O - e P ) L.>XkXaXXXy.Z k Z 4.e.p.9.<.V 2.a..XdXcXcXcXcXcXcXcXcXzXuX<X'.'.<X6XsXgX7X|.k.a.e.",
"h s i 1 $                           & r ! v.I.:XkXcXyXI.( d 6 x r.F.}.g.7.,.2.a.oXtXcXcXcXcXcXcXcXcXsX1X~.R.:.~.1XpXjXwX7X@X.X|.",
"M v j i 1 o                         < J v.Y.eXkXcXzX>XS.E q 0 I m.OX;X|.p.3.6.a..XwXcXcXcXcXcXcXcXcXiX'.R.+.+.:.'.uXcXxXgXdXwXwX",
"v v v s d 3 3 = & @ o X           @ 0 W K.>XkXcXkX5X&XM.W y G / P.>XtX#Xz.w.q.d.H.2X6XiXuXuXiXlXcXcXuX'.:.+.+.:.'.uXcXcXcXcXcXcX",
"p s k x L E I K f 2 > $ o X   X @ > f 0.I.rXzXyX=XP.N.*.^ ~ ) B.*XaXgX9XXXj.j.j.^./.(._.`.`.].2XpXzXlX1X!.R.R.!.1XsXcXcXcXcXcXcX",
", 1 d L 0.N.m.t.Q k i , $ X X $ > i Z y.oXtXyX=XC.) ~ ^ =.M.P.*X5XzXxXgX8X#X X^.-.%.$.$.$.&.E.`.4XlXzXiX1X].'.<XuXzXcXcXcXcXcXcX",
"X @ 0 I M.Y.OX|.e.S j 4 $ o o $ 4 j D s.@XwXeXP.) G u U M.[.3XjXzXzXcXxXkXtX2X/.-.O.X.| |  .+.E.].uXzXzXpXuXuXpXlXcXcXcXcXcXcXcX",
"    ; J v.Y.-X.Xk.q.S k 2 % $ 2 s D i.}.%XtX>XJ.P 9 9 P B.>XcXcXcXcXcXcXcXcXiX].T.O. .[ ] ]  .#.!.<XuXlXcXcXcXlXpXuXuXpXlXcXcXcX",
"    & t ! v.S.G.F.k.e.F w % * 6 F y.}.#X0XfX>XN.J = = J C.rXcXcXcXcXcXcXcXcXzX4X).R.#.X.{ ] { o.$.Q.].2XpXcXcXpX4X].].1XuXcXcXcX",
"    . - r J ~ c.G..XG.r.z - < z 0.H.$XwXhXxX:XN.J = = P C.rXcXcXcXcXcXcXcXcXcXsX4X'.Q.&.o.{ ] [ o.#.:.`.4XzXxX4X`.W.W.(.1XlXcXcX",
"    . . O ; z ) K.-XOXm.P 8 < K c.&XtXcXcXxX>XB.P 8 8 P B.>XcXcXcXcXcXcXcXcXcXkXsXuX,X!.#. .] ] [  .+.W.,XiXuX].R.+.@.R.'.uXcXcX",
"    . . & 3 y / J.&XY.v.H 3 - H x.Y.5XjXcXzXeXL./ G y U M.[.eXaXzXcXcXkXgXtXdXhXzXcX6X`.&. .] ] [ X.O.R.`.2X<XQ.#. . .#.Q.<X6XpX",
"    O < t J ! _ M.M.v.! r * & e U v.P.=XyXkXyX*XN.) ! ^ _ M.L.&X5XjXxXfX8X#X$X7XfXxXiX`.&. .[ | o.#.&.W.Q.!.Q.%.o.} } o.&.Q.).`.",
"    * y ~ v.N.M._ ! J e - O O = e J / C.=XyXkXyX=XP.M._ ^ T ^ M.*XyXjX8X|.D.z..X7XgXuX'.&.| | o.&.~.(.!.W.%.#.o.} [ ] | o.#.$.%.",
"    - P v.Y.&XJ./ y 8 # . X X . + 8 g _ P.eXzXcXkXeX&XM.U y z / P.5XtX#Xl.w.w.h.#XdXuX`.&.X. .@.Q.<X1X`.R.O...} [ ] ] { |  . .X.",
"    < P v.Y.&XJ./ y 8 & . . . . + 7 g ^ S.-XfXxXcXcXqXL./ G G ~ S.OX;X|.p.2.6.s..XwXuX{.E.+.O.;.(.<X1X).R.@...} [ ] ] { |  .X.X.",
"    = y ^ M.B.N.%.~ K e - O O = e J ~ 0.A.H.#X9XxXcXaX=XB.) ~ _ m.G.F.s.7.,.1.s..XwXiX4X).R.:.W.~.`.`.(.W.%.#.o.| ] [  .o.#.&.;.",
"    O 8 t I ^ x.v.M.v.! r = = r ! v.B.A.f.f.z.oX0XcXcXyX=XP.S.A.f.s.w.7.,.V 2.s.oXwXlXiX4X{.).Q.R.:.R.Q.~.(.!.;.o.| } o.;.~._.].",
"    . . & 8 y ^ C.[.Y.v.J 7 < J x.Y.-X|.d.9.w.h.@XtXzXzXaX3X-XH.d.9.2.C N V 2.s.oXwXcXcXzX6X1X~.&.O.O.;.`.1X{.~.#. . .#.!.<X6XiX",
"            ; P b.Y.Y.v.J 8 8 K m.-X%X|.a.2.2.e.F.OX>XyXyXqX;X|.h.q.2.C N V 2.d.oXtXcXcXcXcX6X).%... .#.!.,X<X(.;.+.O.-.!.;XqXfX",
"            + y ^ v.v.^ y = < z r.F.}.k.9.,.B 5.0.m.J.I. XXXoX|.z.g.e.7.<.C 2.s.oXwXcXcXcXcXiX`.$. .{ o.;.!._.~.W.:.R.T.^.XX+X+X",
"            . 8 y P P y 7 # % f R e.p.i.6.V B Z A R W ( r.s.g.D.|.|.F.d.7.<.3.s.oXqXcXcXcXcXuX`.$. .[ | o.$.;.Q.~.`.'.^.F.j.d.s.",
"            X O * ; - * # O $ 5 l D 2.1.,.V n s 6 3 q f Z D q.k.oX8X$X|.e.2.3.a..XwXcXcXcXcXuX`.%. .] ] [  .O.:.`.2X;X.Xj.q.6.<.",
"                            O 1 a v N >.>.N v a , @ @ > i v 3.g.@XwXqXXXs.6.3.a..XwXcXcXcXcXuX`.%. .] ` ' ] X.;.'.6XwX.Xs.3.N m ",
"                            $ , i c m M >.N c i : X   $ 4 c <.g.#XgXfX@Xd.6.3.a..XwXcXcXcXcXuX`.&...] ` ` ' | ;.{.iXdX+Xs.<.m c "
};
