/* XPM */
static const char *sprite_9_20[] = {
/* columns rows colors chars-per-pixel */
"16 16 4 1 ",
"  c #000001",
". c #590D79",
"X c #B53121",
"o c #FFFFFE",
/* pixels */
".o Xo .ooo ..   ",
".XXXo...ooo.  o ",
".XooXoo oo..   o",
"oX.ooooo....    ",
"Xoooo.ooo . o   ",
"Xooooo.oo oo    ",
"oo oo .o o.     ",
"ooo  ..oo..     ",
"oooo..oo .      ",
"  ... o o oo    ",
"        o  .    ",
"  o  o     o.   ",
"   .o.      o.  ",
"   o o       o  ",
"                ",
"                "
};
