/* XPM */
static const char *sprite_6_16[] = {
/* columns rows colors chars-per-pixel */
"16 16 2 1 ",
"  c #000001",
". c #FFFFFE",
/* pixels */
"                ",
"                ",
"                ",
"       .        ",
"       .        ",
"       .        ",
"      ...       ",
"   .........    ",
"      ...       ",
"       .        ",
"       .        ",
"       .        ",
"                ",
"                ",
"                ",
"                "
};
