/* XPM */
static const char *sprite_1_8[] = {
/* columns rows colors chars-per-pixel */
"16 16 4 1 ",
"  c #000001",
". c #00424A",
"X c gray68",
"o c white",
/* pixels */
"       o        ",
"       o        ",
"       o        ",
"       o        ",
" oXX  .o.  oXX  ",
" ..ooo.o......  ",
" oXXooXoX...XX  ",
" ..XooXXX.....  ",
" oXXoXooXX..XX  ",
" ..XoXoX.X....  ",
" oXXoXoX.X..XX  ",
" ..XoXoX.X....  ",
" oXXoXX..X..XX  ",
" ..XooXXX.....  ",
" oXo........XX  ",
" ...       ...  "
};
