/* XPM */
static char *sprite_0_19_resized[] = {
/* columns rows colors chars-per-pixel */
"64 64 129 2 ",
"   c #000000",
".  c #0E0302",
"X  c #0E0C0B",
"o  c #120500",
"O  c #140A01",
"+  c #100C09",
"@  c #270200",
"#  c #2A0600",
"$  c #270805",
"%  c #2E0B00",
"&  c #250F0E",
"*  c #331100",
"=  c #361A03",
"-  c #3A1B00",
";  c #311F0E",
":  c #241818",
">  c #26211F",
",  c #2C2218",
"<  c #242425",
"1  c #3F292A",
"2  c #3F3736",
"3  c #430400",
"4  c #480B00",
"5  c #430D09",
"6  c #5C0600",
"7  c #4F1300",
"8  c #571F00",
"9  c #5C120C",
"0  c #401919",
"q  c #690400",
"w  c #620F00",
"e  c #6D0900",
"r  c #720E00",
"t  c #6C1A00",
"y  c #6A140D",
"u  c #721100",
"i  c #7D1D00",
"p  c #701D0E",
"a  c #691F1A",
"s  c #5F2900",
"d  c #5E3109",
"f  c #553618",
"g  c #642F00",
"h  c #7C2001",
"j  c #772A00",
"k  c #7A270B",
"l  c #79290E",
"z  c #653000",
"x  c #69201A",
"c  c #572222",
"v  c #4C3B2A",
"b  c #443C36",
"n  c #553839",
"m  c #662725",
"M  c #662826",
"N  c #682B27",
"B  c #672928",
"V  c #682928",
"C  c #6C3127",
"Z  c #66322F",
"A  c #733925",
"S  c #663230",
"D  c #643F3E",
"F  c #7C4525",
"G  c #754A21",
"H  c #674E37",
"J  c #65403F",
"K  c #6C4A3F",
"L  c #675139",
"P  c #71513F",
"I  c #785B3F",
"U  c #3D4042",
"Y  c #574B4A",
"T  c #5C524A",
"R  c #565655",
"E  c #53575A",
"W  c #644242",
"Q  c #684640",
"!  c #654947",
"~  c #6A4B42",
"^  c #644F4E",
"/  c #64504F",
"(  c #725441",
")  c #775B42",
"_  c #785D42",
"`  c #634F50",
"'  c #645655",
"]  c #655856",
"[  c #6A5F55",
"{  c #635C5C",
"}  c #685958",
"|  c #7C6044",
" . c #6B6056",
".. c #66625E",
"X. c #6B635A",
"o. c #706151",
"O. c #615F61",
"+. c #5F6468",
"@. c #636363",
"#. c #616569",
"$. c #636869",
"%. c #811E00",
"&. c #812100",
"*. c #862A00",
"=. c #8A2F00",
"-. c #8B3100",
";. c #813800",
":. c #85370C",
">. c #84380E",
",. c #903200",
"<. c #913A00",
"1. c #874000",
"2. c #8A4100",
"3. c #80430C",
"4. c #8F460D",
"5. c #954100",
"6. c #994300",
"7. c #9D4B00",
"8. c #954E0D",
"9. c #96500E",
"0. c #99510E",
"q. c #8E511A",
"w. c #A24D00",
"e. c #A65000",
"r. c #824E26",
"t. c #865426",
"y. c #895626",
"u. c #82582F",
"i. c #8C5928",
/* pixels */
"q q q q q q q q q q q q q q y M Q ' ' W N y e q q q q q e q 6 3 @ .                                                             ",
"e e q e q e q e e w e q q q y N Q ' ' Q N y e q q e q e e e 6 3 @ .                                                             ",
"u u u u u u u u u u u u e u p C ~ ] ' W N y e e e u u u u u w 4 # .                                                             ",
"i h h h h h h i i h i i h h l A ~ } ' W B y e u u i h &.&.h t 7 % o                                                             ",
"=.=.=.=.-.-.-.;.-.-.-.-.-.-.>.F ( } ' W B y r u &.*.-.,.,.-.j s * o                                                             ",
"5.2.5.5.5.5.5.5.5.5.5.<.5.5.4.r._ [ ' W M y r i *.<.<.7.7.5.j s = O                                                             ",
"7.7.7.7.7.7.7.7.7.7.7.7.7.7.8.t._ [ R W M y u i -.5.7.w.w.7.1.z = O                                                             ",
"7.7.7.w.7.7.7.7.7.7.w.7.w.7.0.t._ [ ' W m y r i -.6.7.w.e.7.1.z - O                                                             ",
"7.7.7.7.w.7.7.7.7.7.7.7.w.7.8.y._ [ } D m y r i -.6.7.e.e.7.1.z - O                                                             ",
"7.7.7.7.7.7.7.7.7.7.7.7.7.7.8.t._ [ { D m y u i -.5.7.7.w.7.1.z - O                                                             ",
"8.8.8.8.8.8.8.8.9.9.8.0.8.0.q.u.) X.' Y Z a p l >.4.9.0.0.0.3.g = O                                                             ",
"t.t.t.t.t.t.t.y.t.t.t.t.t.t.u.I o.X.{ ' D Z N A F t.t.i.i.t.G f ; +                                                             ",
"I I I I _ _ _ _ _ _ _ _ I _ _  .X.@.@.] ' ! ~ K ( ) _ _ | _ L v , +                                                             ",
"[ [ [ [ [ [ [ [ [ [ [ [  . . .X...@...{ ] ] ] } ] [  .X. .} T b < +                                                             ",
"@.@.@.{ { ' ' ' ' ' ' ' ' ' ' ' ' ' ' ' ' ' ' ' ' ' ' } } { Y b > X                                                             ",
"+.+.@.] ` ! W W J W D D Y W W W W J J J W W W W W W W W W D n 1 : +                                                             ",
"#.@.{ / J Z M M m m m M M M M c B M M M M M N M B M B B B B c 0 & .                                                             ",
"$.@.' ! Z x y y y y y y y y y y y y y y y y y y y y y y y y 9 5 $ .                                                             ",
"$.@.' W m y e e r r u u u u u u u u u u u u u u u u u u u u w 4 # .                                                             ",
"$.@.' W m y e r u i i i i i i i i i i i i i h i i i i %.&.i t 7 % o                                                             ",
"$.@.] J m y r u i *.=.-.-.=.=.-.=.=.=.=.-.-.=.-.-.-.=.-.-.-.j s * o                                                             ",
"$.@.' J m y r i *.<.5.5.5.5.5.5.5.5.5.5.5.5.5.5.5.5.5.6.6.5.j s = O                                                             ",
"$.@.' J M y r i -.5.7.7.7.7.7.7.7.7.7.7.7.7.7.7.7.7.7.7.e.7.1.z = O                                                             ",
"$.@.' D m y r %.-.5.7.e.w.7.7.7.7.7.7.7.7.7.7.7.7.w.7.w.e.7.2.z - O                                                             ",
"$.@.' D m y r i =.6.7.w.w.w.7.7.7.7.7.7.7.7.7.7.7.7.7.w.e.7.2.z - O                                                             ",
"$.@.' J N y u i -.5.7.7.7.7.7.7.7.7.7.7.7.7.7.7.7.7.7.w.7.7.1.z - O                                                             ",
"$.@.] ! Z x p k >.4.8.0.8.8.8.8.8.8.8.8.9.9.8.8.8.8.0.0.0.9.l d = O                                                             ",
"$.@.{ ^ J Z C A F r.t.t.y.y.t.t.t.t.t.t.t.t.t.t.t.t.t.t.i.i.G f ; O                                                             ",
"$.$.@.] ' ! ~ ~ ( ) _ _ _ _ _ _ I I ) I ) _ _ _ | _ _ _ | _ K v , +                                                             ",
"@.@.@.{ ] ' ] ] } [ [ [  . .[ [ [ [ [ [ [ [  . . . .[  .X. .Y b < X                                                             ",
"' ' ' ' ' ' ' ' ' ' ' ' ' ' ' { { { @.{ { ' ' ' ' ' ' } } ' Y 2 > +                                                             ",
"W J J W W W W W W W W W W W Y ^ ] +.@.{ ' W W W W Y J W Q W n v : X                                                             ",
"m m M M M M M M B m m m M B N W ` { ] ' J Z m m m m B B B M c 0 & .                                                             ",
"y y y y y y y y y y y y y y x S ! ' { ! Z a y y y y y y y y 9 5 $ .                                                             ",
"u u u u u u u u u u r r r u p C ! ' ' Q B y e e r u u u u u w 4 # .                                                             ",
"i h i i i i i i i i i i i i k A K } ' W m y e r r i i %.%.%.t 7 % o                                                             ",
"-.=.=.=.=.=.=.=.=.=.=.*.,.=.:.F ( } ' J m y e r %.*.=.-.,.-.j 8 * o                                                             ",
"5.5.5.5.5.5.5.5.5.5.5.5.<.<.4.r.) [ ' W M y u i *.<.<.7.6.5.;.s = O                                                             ",
"7.7.7.7.7.7.7.7.7.7.7.7.7.7.8.t._ [ ' W m y r i =.5.w.w.w.7.1.z = O                                                             ",
"7.7.7.7.w.7.7.7.7.7.7.w.w.w.0.y._ [ ' W m y r %.=.6.w.w.e.w.1.z - O                                                             ",
"7.7.7.7.7.7.7.7.7.7.w.7.w.7.0.t.I  .' J m y r i =.6.w.w.w.w.1.z - O                                                             ",
"7.7.7.7.7.7.7.7.7.7.7.7.7.7.8.t._  .' J m y r i =.5.7.w.w.7.1.z - O                                                             ",
"8.8.8.8.8.8.8.8.8.8.8.8.8.8.q.u._  .} Y S x p k :.4.8.0.0.8.3.d = O                                                             ",
"t.t.t.t.t.t.t.t.y.y.y.y.t.t.u.I  ...../ J S C A F t.y.i.i.y.G f ; +                                                             ",
"I I I ) _ _ _ _ ) ) _ _ _ _ _ o.X.@.@.] ' ! Q ~ ( ) _ _ | _ H v , +                                                             ",
"[  .[  . . .[  .[ [ [ [  .[ [ ....@.@.{ { ' ' ] } [ [ X.X.} T 2 < +                                                             ",
"@.@.O.{ ] { ' ' ' ' ' ' ' ' ' ' ] ' ' ' ' ' ' ' ' ' ' } } ' Y 2 > X                                                             ",
"+.@.O.{ ` ! W W J J D Y W W W J W J J W W W Q W W W W W W W n v : +                                                             ",
"$.+.{ ` J S B m m m M M M M M M M m M M M M B M M M M M V B c 0 & .                                                             ",
"$.@.' ! C a y y y y y y y y y y y y y y y y y y y y y p y y 9 5 $ .                                                             ",
"@.@.' Q V y e e e r u u u u r u u u u u u u u u u u u u u u w 4 # .                                                             ",
"$.@.' W m y e r u i i i i i i i i i i i i i i i i i i i %.i t 7 % o                                                             ",
"$.@.' J M y e u i *.-.-.-.-.-.=.=.=.=.=.=.-.-.-.=.=.-.-.,.=.j 8 * o                                                             ",
"$.@.' J m y r i *.<.5.5.5.5.5.5.5.5.5.5.5.5.5.5.5.5.5.6.6.5.;.s = O                                                             ",
"$.@.' W m y u i -.5.7.7.7.7.7.7.7.7.7.7.7.7.7.6.7.7.7.w.w.7.;.z = O                                                             ",
"$.@.' W m y u i -.5.7.e.7.7.7.7.7.7.7.7.7.7.7.7.7.7.7.w.w.w.2.z - O                                                             ",
"$.@.' D m y r i =.6.7.w.w.7.7.7.w.7.w.7.w.7.7.7.7.7.w.w.w.7.<.g - O                                                             ",
"#.@.' W m y u i =.5.7.7.7.7.7.7.7.7.6.7.7.7.7.7.7.7.7.7.w.7.1.g - O                                                             ",
"$.@.{ W Z a p k :.4.8.8.8.8.8.8.8.8.8.8.8.8.8.8.8.8.8.0.0.8.G g = O                                                             ",
"@.@.{ ^ D C C A F r.t.t.t.t.t.t.t.t.r.t.t.t.t.t.t.t.t.y.y.t.G f ; O                                                             ",
"@.@.@.' / ! K K P ( I _ _ I ) I _ I ) I ) _ ) _ ) I ) _ I I H v , +                                                             ",
"@.@.@...{ ' ' ] [ [ [  . . .[ [ [ [ [ [ [ [ [ [ [  . . . .[ T b > X                                                             ",
"@.@.@.@.@.@.@.@.@.@.@.@.@.@.@.@.@.@.@.O.O.@.@.@.@.@.@.@.+.+.R Y < X                                                             ",
"@.@.@.@.@.$.$.#.#.#.#.+.+.+.+.+.#.#.#.#.#.#.#.#.#.#.$.$.+.+.E U < X                                                             "
};
