/* XPM */
static char *sprite_9_20_resized[] = {
/* columns rows colors chars-per-pixel */
"64 64 239 2 ",
"   c #000001",
".  c #060807",
"X  c #06010A",
"o  c #09010E",
"O  c #0C0C0D",
"+  c #110C0B",
"@  c #0C0212",
"#  c #0E0D10",
"$  c #0E001A",
"%  c #120A16",
"&  c #13011D",
"*  c #131414",
"=  c #171618",
"-  c #181719",
";  c #1D1D1D",
":  c #320603",
">  c #1F211F",
",  c #160122",
"<  c #190224",
"1  c #1D012A",
"2  c #1F1E20",
"3  c #20032D",
"4  c #21082C",
"5  c #251E28",
"6  c #230133",
"7  c #280A37",
"8  c #2B023D",
"9  c #2C1537",
"0  c #32183D",
"q  c #1E2121",
"w  c #232323",
"e  c #2A212E",
"r  c #372523",
"t  c #2D2332",
"y  c #34233B",
"u  c #363636",
"i  c #3D3D3D",
"p  c #5A1911",
"a  c #6C1207",
"s  c #3F413E",
"d  c #2D0242",
"f  c #35024B",
"g  c #37084B",
"h  c #391748",
"j  c #3B0254",
"k  c #3C0555",
"l  c #3F1451",
"z  c #3B2445",
"x  c #3F3D40",
"c  c #41025D",
"v  c #440C5C",
"b  c #451758",
"n  c #761354",
"m  c #453B4A",
"M  c #492659",
"N  c #4A3454",
"B  c #480265",
"V  c #4D046C",
"C  c #4E0B6A",
"Z  c #50066F",
"A  c #500D6D",
"S  c #4E116B",
"D  c #520473",
"F  c #560C75",
"G  c #56097B",
"H  c #5A0D7A",
"J  c #5B1479",
"K  c #641372",
"L  c #552768",
"P  c #593B66",
"I  c #592670",
"U  c #62217E",
"Y  c #642B7B",
"T  c #6C3676",
"R  c #424242",
"E  c #4D4C4D",
"W  c #4E4651",
"Q  c #524857",
"!  c #545554",
"~  c #59565A",
"^  c #5D5D5D",
"/  c #695952",
"(  c #5D5660",
")  c #65556C",
"_  c #5A6361",
"`  c #636463",
"'  c #666866",
"]  c #6A656C",
"[  c #6C6C6C",
"{  c #6E6B71",
"}  c #726E73",
"|  c #75677B",
" . c #727471",
".. c #7A797B",
"X. c #871608",
"o. c #A51C19",
"O. c #9C2A1D",
"+. c #A52819",
"@. c #B12615",
"#. c #8E1A3A",
"$. c #AC322D",
"%. c #B63525",
"&. c #934033",
"*. c #BB4435",
"=. c #BE4A3D",
"-. c #C54C38",
";. c #942C4F",
":. c #A33646",
">. c #87316B",
",. c #BB4B43",
"<. c #B25354",
"1. c #A35B74",
"2. c #C04F40",
"3. c #C86456",
"4. c #CC7469",
"5. c #CB7772",
"6. c #D17E74",
"7. c #7E827D",
"8. c #80817F",
"9. c #D78579",
"0. c #5E0E80",
"q. c #620F84",
"w. c #611481",
"e. c #651B83",
"r. c #6B2687",
"t. c #6D2B89",
"y. c #712F8C",
"u. c #73338A",
"i. c #732D93",
"p. c #714284",
"a. c #7B5989",
"s. c #7F4497",
"d. c #7D6985",
"f. c #7E6591",
"g. c #834799",
"h. c #844B9B",
"j. c #855798",
"k. c #975B97",
"l. c #826E8A",
"z. c #886895",
"x. c #8D7291",
"c. c #B47089",
"v. c #8848A2",
"b. c #8E5BA3",
"n. c #935DA8",
"m. c #8F65A1",
"M. c #9562AB",
"N. c #9668A9",
"B. c #996BAD",
"V. c #9A73AA",
"C. c #9D6CB3",
"Z. c #9F74B1",
"A. c #A175B3",
"S. c #A57AB8",
"D. c #858585",
"F. c #8D8C8D",
"G. c #8F918D",
"H. c #90928F",
"J. c #8D8490",
"K. c #938997",
"L. c #939393",
"P. c #98949A",
"I. c #9B9C9A",
"U. c #9DA19C",
"Y. c #A0A29F",
"T. c #9F92A4",
"R. c #A789AC",
"E. c #A498A9",
"W. c #AA89B7",
"Q. c #AC97B5",
"!. c #B398BB",
"~. c #A2A3A2",
"^. c #A6A5A9",
"/. c #ABABAA",
"(. c #AFB0AE",
"). c #B0B3AF",
"_. c #B1A6B7",
"`. c #B2B2B1",
"'. c #BBB3BE",
"]. c #BDBDBD",
"[. c #D6938B",
"{. c #DFA297",
"}. c #E2A79C",
"|. c #C998AE",
" X c #D8A7AD",
".X c #E2ACA5",
"XX c #E4B2AA",
"oX c #E9BCB4",
"OX c #F1BEB7",
"+X c #ECC0B7",
"@X c #B089C0",
"#X c #B593C4",
"$X c #BB9AC8",
"%X c #BDA5C7",
"&X c #BCABCB",
"*X c #C3A6CC",
"=X c #C6BCCA",
"-X c #C3A7D0",
";X c #C7A9D3",
":X c #C6ACD2",
">X c #C9ADD5",
",X c #CBB3D5",
"<X c #CCB4DA",
"1X c #D2BDDA",
"2X c #C2C3C2",
"3X c #CAC7CA",
"4X c #CFCFC9",
"5X c #CDC3D0",
"6X c #D5C2DD",
"7X c #DAC5DA",
"8X c #D3D5D1",
"9X c #DCDCDC",
"0X c #EBCCCA",
"qX c #ECCFCE",
"wX c #E0DFDF",
"eX c #DFE2DD",
"rX c #E0E0DF",
"tX c #F4E2DF",
"yX c #DDCCE5",
"uX c #DAD2EF",
"iX c #E3D6E7",
"pX c #E7DDEA",
"aX c #E8DEEC",
"sX c #DDE5E5",
"dX c #E3E3E3",
"fX c #E5E7E5",
"gX c #E8E9E7",
"hX c #EBE2EE",
"jX c #ECEBEC",
"kX c #F6E5E2",
"lX c #F8EAE7",
"zX c #EEF0EB",
"xX c #F3F2EE",
"cX c #ECE6F3",
"vX c #F1EAF3",
"bX c #F2EBF8",
"nX c #F4F4F4",
"mX c #F9F6F6",
"MX c #FEFEFE",
/* pixels */
"D H t.C.<XcXsX/._ q . : a O.=.9.OXkX9X~._ > o $ d C t.B.>XvXMXMXMXMXMXMXMXMX9XI.! *   $ d B H w.q.0.A k 4 @                     ",
"D H y.B.;XiX9X~._ w : : a O.=.9.OXtX9X~._ w @ & d C y.M.;XaXMXMXMXMXMXMXMXMX9XU.^ w % < d C H H 0.H C g 4 @                     ",
"D H t.M.!.0X4XY.^ r : : a +.2.9.OXkX9X/.' t , 1 f C t.b.#X6XhXnXMXMXMXMXMXMXeX/. .R 5 9 b C F H F C v d < o . O = ; ; = O .     ",
"D H T g.R.{.{.1./ p p a X.+.-.6.+XkXsX_.| z 3 8 f V e.s.C.#X<XuXhXmXMXMXMXMXgX3XI. .) P I J F C v k g 3 $ o O w s ! ! i 5 .     ",
"G H U >.c.5.4.<.&.a a X.X.+.=.9.OXkXdX&Xf.M f j c V 0.t.s.n.S.;XyXbXMXMXMXMXnXeX3X(.P.z.p.U A c g 7 1 $ X X - R [ F.F.' u O     ",
"G H K n ;.:.=.*.*.$.O.+.@.%.2.9.oXtXpX*XN.r.C V Z G J w.e.t.s.S.,XhXMXMXMXMXMXnXxXiX=X!.b.r.A f 6 & o       2 ! L.].].H.! >     ",
"G H K n ;.$.%.%.=.=.-.-.=.2.3.9..X0X0X*XZ.s.t.r.t.t.r.J A S t.z.%XhXMXMXMXMXMXmXbXhX6X#Xb.t.C f 3 o         ; ! L.].].U.[ i w ; ",
"D G K n #.o.%.2.3.4.6.9.6.6.6.[.{.}. X|.R.Z.B.B.B.M.f.t.b k M a._.dXMXMXMXMXMXvXiX1X$XA.h.e.C f 1 o         - R [ L.E.L.D.[ ` ` ",
"D D K n #.o.*.3.9.}.oXOXoXXX.X{.9.6.5.[.R.$X;X>X>X*XW.d.M 9 h ) E.dXMXMXMXMXmXiX;XW.n.v.i.w.A f 1 o         O w s ~ [ D.L.~././.",
"0.D K n #.$.-.4.}.qXkXvXlXkX0X.X9.3.3.9. XqXaXbXbXpX=XK.! e t ( E.9XMXMXMXMXhX,XA.h.t.e.K H A g 1 @         . . * > i [ I.2X9XgX",
"i.t.>.>.;.$.2.4.{.0XaXmXMXmXtXoX[.3.3.9.oXkXMXMXMXMXeX/.{ m i ` P.5XaXvXcXaXyX#Xb.r.H G G H A g 3 o                 w ! K.].9XfX",
"C.B.M.1.:.$.%.<.c.|.<XuXbXmXmX0X}.9.[.}.0XmXMXMXMXMXzX2XL. .[ d.x.!.*X;X>X*X#XZ.u.w.G G G H C g 1 o                 O i [ L./.`.",
"<X&X$Xc.<.$.$.:.1.k.Z.&XuXbXmXlX0XoXoX0XtXMXMXMXMXMXmXeX2X(.I.K.V.m.m.M.N.M.b.i.i.J G G H H A g 1 X                 . w i ! ` [ ",
"cXpX7X.X4.=.$.;.n u.v.S.<XhXMXMXmXlXtXlXmXMXMXMXMXMXMXnXjXdX5X!.V.s.u.t.t.t.t.r.e.J H H H H v g 3 @                 . O = ; w w ",
"kXtXqXXX6.3.,.;.>.u.h.S.,XhXMXMXMXMXmXnXlXhXhXvXnXMXMXMXMXMXhX<XS.h.t.J J C C A F F F F D A v b 0 e 5 * # .                     ",
"+XOXXX}.[.[.5.c.c.k.Z.#X6XvXMXMXMXMXMXhX6X>X>X6XaXmXMXMXMXMXmXyX%XZ.j.t.L k j j B D Z B c f g M Q ^ ! s w O                     ",
"9.9.9.[.}..XXX X|.*X,X6XpXnXMXMXMXMXbX6X#XA.A.$X6XnXMXMXMXMXmXcXyX:XW.d.P h 6 d c B B j 8 6 9 W d.L.L. .R -                     ",
"*.-.3.9.}.0XkXvXhXhXhXvXnXMXMXMXMXMXhX:XA.h.h.Z.;XaXMXMXMXMXMXMXmXhX=XK.! 5 < 6 g C C k 6 1 5 ~ P.].].L.! 2                     ",
"@.@.=.4..XtXMXMXMXMXMXMXMXMXMXMXMXMXhX,XA.h.h.N.$XyXhXnXmXMXMXMXMXMXeXU.~ 5 % 3 b Y Y L z y s [ U.2X].L.! ;                     ",
"@.@.*.4.XXlXMXMXMXMXMXMXMXMXMXMXMXMXvX6X$XS.C.Z.W.$X,XyXhXmXMXMXMXMXfXY.! ; + 9 P j.N.z.| ] [ 8.L.Y.L.[ R -                     ",
"@.@.*.4..XkXMXMXMXMXMXMXMXMXMXMXMXMXmXjXyX<X*X@XA.C.S.$X6XvXMXMXMXMXfX~.! > * u | Q.*X=X&X/.Y.H.8.[ ! i w O                     ",
"@.%.=.4.XXkXMXMXMXMXMXMXMXMXMXMXMXMXMXmXnXaX6X#XN.s.h.Z.,XhXMXMXMXMX9XI.! w 2 E D.=XpXvXhX9X2XI.[ i ; * . .                     ",
"%.-.3.[.oXkXmXmXgXsXdXgXnXmXMXMXMXMXMXxXzXiX=XW.a.t.t.n.*XpXmXMXnXeX2XL.^ s x ' P.5XpXcXgX9X].F.E >                             ",
"4.6.[.XXqXxXzX9X]././.].9XmXMXMXMXMXmXfX4X`.P.l.u.J t.n.*XpXnXdX2X/.L.7. .' } l.E.%X*X=X=X/.L.' i #                             ",
"XXXXoXqXlXmXfX XH.[  .H.2XjXMXMXMXMXnX4XU. .( N S J t.N.>XpXgX2XL.[ _ [ D.I.~.E.R.B.N.z.d.[ ! i w .                             ",
"tXtXlXmXMXmXrX/.[ R R [ /.eXMXMXMXMXeX/. .m t 9 g S y.C.>XpXwX`. .R s ` I.2X5X*XA.g.Y L z t > * O                               ",
"MXMXMXMXMXMXeX^.{ R s _ L.2X9XgXgX9X].G.! 5 , 3 f V y.C.>XpXeX). .R R [ E.5X1X$Xn.y.A f 1 @                                     ",
"MXMXMXMXMXMXgX].H.[ _ ' ..H.U.~.^.Y.F.] N 9 3 6 f C t.M.>XgXgX2XU. .[ l.E.$X$XS.v.e.B d , X                                     ",
"MXMXMXMXMXMXnX9X2X^.H.7.[ ^ ! ! ! ^ ! N M g f j B V r.M.;XpXxXfX4X`.E.T.R.V.n.v.i.J C f 1 X                                     ",
"MXMXMXMXMXMXMXmXjXsX2XP.' i w > ; w 5 0 h v C Z D H y.N.*XhXmXmXzXrX3X!.m.s.t.e.w.H C f 1 o                                     ",
"MXMXMXMXMXMXMXMXMXMXdX(. .R w * O % < 7 k C J 0.e.t.h.S.<XhXMXMXzXsX5XW.j.r.H D D C v d < o                                     ",
"MXMXMXMXMXMXMXMXMXMXnX4XU. .E z 9 < 3 d k F e.i.u.M.S.;XiXbXmXgX4X`.P.z.u.U D B k f 8 1 $                                       ",
"MXMXMXMXMXMXMXMXMXMXMXgX4X/.K.| P b j j B H r.g.C.#X<XiXnXmXzX4XU. .( P I F C c d 6 & o                                         ",
"MXMXMXMXMXMXMXMXMXMXmXmXjXwX=XW.a.I C B V G t.b.#X6XhXmXMXMXeX(. .R 5 h v C C k 7 < @ o X                                       ",
"9X9X9X9X9X9XwXiXpXhXaXhXcXaX6X#Xb.t.G V B C Y m.%XpXmXMXnXdX2XP.' x e 9 g v v b 0 e w w w w > = O .                             ",
"~.~.~.~.Y.~.^.Q._.%X;X<X<X>X-XS.v.e.H B k k L z.=XjXMXzX8X`.I.8.[ _ Q m M l h M Q ~ ` ' ' ` ! s w O                             ",
"^ ^ ^ ^ ^ ^ ` | z.m.M.C.C.C.M.v.i.e.H c d 8 N | '.jXnX8XY...'  .D.L.J.] m 0 0 N | L./.).).^.L.[ i -                             ",
"w w w w w w t z L Y y.i.y.y.y.e.e.w.C f 1 & e ] ^.9X9X`. .R s ` I. X].H.Q e e ! J.].9XfXgX9X].F.! ;                             ",
"            o 1 f v A A A C C A A C c 8 & @ > ! L.].].F.E w w ^ ^.9X9X~.^ w > E D.].9XhXvXpX=XK.! 2                             ",
"              @ < 6 d d f d f f g g d 1 @   + u ' F.D.` t * > ^ (.sXgX(.` w * u ` L./.=X=X*XQ.l.m -                             ",
"                @ $ & , 1 1 1 3 3 3 < $     . ; i E E u = . 5 ` ).sXgX`.` w O ; u ! [ d.z.m.j.P y %                             ",
"              X o o @ @ o @ o @ @ @ o X X   . O = ; ; *   . w ` /.9X9X/.` w .   O > e N I Y Y M 9 %                             ",
"            . # = > > ; O           . O = ; ; - O .         ; ! L.].].L.! 5         @ 9 L U Y L h & o X                         ",
"            # w s ! ! s w O         . > s ! ! s w .         - R [ F.F.[ s =         @ y P a.j.p.L 7 < $ X                       ",
"            - R [ L.H.[ s *         O i [ G.G.[ s *         O w s ! ! i w O         = m l.Q.!.N.p.b 8 1 $                       ",
"            w ! L.].].L.! ;         > ! L.].].L.! ;         . O * 2 ; = O .         ; ~ P.=X1X$Xm.Y v 8 < o                     ",
"            ; ! L.].].L.( e % X # 5 m  .E.3X3XP.~ w                                 ; ! F.].5X*XA.g.Y b 7 < @                   ",
"            - R  .L.P.d.Q 0 4 9 m ~ } J.Q.%XW.l.N ;                                 - s [ H.^.Q.W.A.b.p.L 7 < $ X X             ",
"            O w R ~ ~ N M l b P d.P.^.Q.W.B.j.) 0 %                                 O w i ! } K.Q.*X$XV.p.b d 1 $ X             ",
"            . O = > e 0 l v Y j.Q.=X5X%XA.s.Y b 7 @                                 . . # > i [ ^.5X6X#Xb.Y v d , o             ",
"                    % 7 b Y s.V.%X5X5X%XZ.s.Y b 7 %                                         w ! H.].5X%XA.s.U v 7 @             ",
"                    @ y P z.A.W.Q./.^.E.R.N.j.P y %                                         O i [ H.^.Q.Q.A.j.) z *             ",
"                    = N x.!.%XQ.J.} } x.E.$XQ.l.W -                                         . ; u ! } K.!.%X!.x.W ;             ",
"                    q ~ P.=X5XE.] R m [ E.=X=XP.~ 5                                           . # > i  .^.5X=XP.~ 5             ",
"                    > ! L.].].F.E w w E H.].].L.! ;                                                 w ~ L.].].L.! 2             ",
"                    = R  .H.H.' u O * u ' H.H. .R =                                                 O i [ H.H. .R =             ",
"                    O w R ! ! i 5 . . ; i ! ! R w O                                                 . w s ! ! R w #             ",
"                    . O - w ; = . . . O = ; ; - # .                                                 . O = ; > - # .             ",
"                                                                                                                                ",
"                                                                                                                                ",
"                                                                                                                                ",
"                                                                                                                                ",
"                                                                                                                                ",
"                                                                                                                                "
};
