/* XPM */
static const char *sprite_8_18[] = {
/* columns rows colors chars-per-pixel */
"16 16 4 1 ",
"  c #000001",
". c #590D79",
"X c #B53121",
"o c #FFFFFE",
/* pixels */
"    . .    .  . ",
" o   o  o .  o. ",
" ..oo  oo   o.  ",
"  ..o..o.. oo.  ",
"   .Xoooo.oo.. .",
" o .ooXo ooX.   ",
"  .ooX.XX X.o.  ",
"oooo oX  Xoooooo",
" ...oo.X Xo...  ",
"   ... oX ..oo  ",
" o..oo.o oXo..o ",
"  oooXo.o.oo    ",
" .o..o.oo..oo . ",
" o.  . .o. ..o  ",
"o.  .   o    .o ",
"        o .   . "
};
