/* XPM */
static char *sprite_7_19_resized[] = {
/* columns rows colors chars-per-pixel */
"64 64 216 2 ",
"   c #000101",
".  c #090607",
"X  c #000709",
"o  c #090708",
"O  c #00090C",
"+  c #0C0B0C",
"@  c #100D0E",
"#  c #000E12",
"$  c #001216",
"%  c #0E1416",
"&  c #001519",
"*  c #02191D",
"=  c #141415",
"-  c #181616",
";  c #171718",
":  c #151C1D",
">  c #1C1C1C",
",  c #201D1E",
"<  c #001D23",
"1  c #091E21",
"2  c #151E20",
"3  c #1F1F20",
"4  c #002126",
"5  c #0A2326",
"6  c #002329",
"7  c #0D2629",
"8  c #02292E",
"9  c #1C2021",
"0  c #13282B",
"q  c #1C292B",
"w  c #002D33",
"e  c #082E33",
"r  c #132E31",
"t  c #1D2F32",
"y  c #003037",
"u  c #00343B",
"i  c #0D353A",
"p  c #0D353B",
"a  c #00383F",
"s  c #1C3134",
"d  c #123438",
"f  c #232324",
"g  c #242B2D",
"h  c #2C2C2D",
"j  c #243235",
"k  c #2B3335",
"l  c #23393C",
"z  c #353434",
"x  c #3A3637",
"c  c #373738",
"v  c #3B3738",
"b  c #353B3C",
"n  c #3D3C3C",
"m  c #413E3F",
"M  c #003740",
"N  c #013B42",
"B  c #0F3D43",
"V  c #003F48",
"C  c #423F40",
"Z  c #014047",
"A  c #01434B",
"S  c #08424A",
"D  c #1E4247",
"F  c #14464D",
"G  c #1E454A",
"H  c #0D4B53",
"J  c #134E55",
"K  c #1E4F55",
"L  c #185259",
"P  c #1B555C",
"I  c #1E585F",
"U  c #23474C",
"Y  c #24494D",
"T  c #3D4547",
"R  c #344F52",
"E  c #23545A",
"W  c #22565C",
"Q  c #375154",
"!  c #1E5A62",
"~  c #235C63",
"^  c #2B5C62",
"/  c #345D62",
"(  c #36656A",
")  c #39666C",
"_  c #376D73",
"`  c #444444",
"'  c #474748",
"]  c #444A4B",
"[  c #4D4D4D",
"{  c #514F4F",
"}  c #514F50",
"|  c #47585A",
" . c #545354",
".. c #565757",
"X. c #5D5C5C",
"o. c #615F5F",
"O. c #555E60",
"+. c #40656A",
"@. c #5E6162",
"#. c #5D6C6E",
"$. c #426D73",
"%. c #4B6F74",
"&. c #526D70",
"*. c #437278",
"=. c #4A757A",
"-. c #587377",
";. c #56797D",
":. c #5C7A7D",
">. c #636262",
",. c #666768",
"<. c #63696A",
"1. c #6B6A6A",
"2. c #726F6F",
"3. c #606E70",
"4. c #637274",
"5. c #617B7E",
"6. c #747374",
"7. c #767777",
"8. c #7B7A7A",
"9. c #537E83",
"0. c #5B7D81",
"q. c #657E81",
"w. c #558287",
"e. c #5D8286",
"r. c #5B858A",
"t. c #5F898E",
"y. c #5F8B90",
"u. c #64868A",
"i. c #618A8E",
"p. c #788789",
"a. c #728A8D",
"s. c #648E92",
"d. c #738C90",
"f. c #649095",
"g. c #6D9195",
"h. c #7C9497",
"j. c #739599",
"k. c #75999D",
"l. c #7A9EA1",
"z. c #838383",
"x. c #838A8B",
"c. c #8A8989",
"v. c #918E8E",
"b. c #818F91",
"n. c #839294",
"m. c #839A9C",
"M. c #959494",
"N. c #969999",
"B. c #9B9B9B",
"V. c #899EA0",
"C. c #8AA6A9",
"Z. c #93A4A6",
"A. c #9CA0A1",
"S. c #93AAAD",
"D. c #9EA8A9",
"F. c #96AEB0",
"G. c #9AB2B5",
"H. c #9DB6B8",
"J. c #9EB8BB",
"K. c #A4A3A3",
"L. c #A8A5A4",
"P. c #A8A7A7",
"I. c #A5AAAB",
"U. c #ABACAC",
"Y. c #B0AEAE",
"T. c #A4B4B5",
"R. c #ABB2B3",
"E. c #A9B7B8",
"W. c #A5BCBF",
"Q. c #ABBBBC",
"!. c #B5B5B4",
"~. c #B8B7B7",
"^. c #B8B8B7",
"/. c #B4BDBE",
"(. c #BBBBBB",
"). c #C0C0BF",
"_. c #A6BEC1",
"`. c #A9BFC1",
"'. c #B6BFC0",
"]. c #A6C0C2",
"[. c #ABC2C4",
"{. c #AEC6C8",
"}. c #B1C4C6",
"|. c #BDC4C4",
" X c #B4C8CA",
".X c #BECBCC",
"XX c #BFD0D1",
"oX c #C3C3C3",
"OX c #C9C7C7",
"+X c #C4CDCD",
"@X c #CCCCCB",
"#X c #D1CFCF",
"$X c #D0D0CF",
"%X c #C8D4D5",
"&X c #D4D4D3",
"*X c #D9D6D5",
"=X c #D9D8D7",
"-X c #D3DCDC",
";X c #DCDCDB",
":X c #E2DFDE",
">X c #E0E0DF",
",X c #D0DFE0",
"<X c #DBE4E5",
"1X c #D8E5E6",
"2X c #E4E4E3",
"3X c #E9E6E5",
"4X c #E9E8E7",
"5X c #E2EAEA",
"6X c #EBEBEA",
"7X c #F0EFEE",
"8X c #F0F0EF",
"9X c #EBF2F2",
"0X c #F4F4F3",
"qX c #F6F7F6",
"wX c #F8F8F7",
"eX c #FEFEFD",
/* pixels */
"    ; ..A.2XeXeXeXeXeXeXeXeXeXeXeXeXeXeXeXeXeXeXeXeXeXeXeXeXeXeXeXeXeXeXeXeXeXeXeXeXeXeXeXeXeXeXeXeXeXeXeXeXeX6X&X^.M.>.x =     ",
"    f X.B.;XeXeXeXeXeXeXeXeXeXeXeXeXeXeXeXeXeXeXeXeXeXeXeXwXeXeXeXeXeXeXeXeXeXeXeXeXeXeXeXeXeXeXeXeXeXeXeXwX0X2X&X^.M.,.v ;     ",
"; f n >.M.oX;X2X2X;X;X;X;X;X;X;X;X;X;X;X;X;X;X;X;X;X;X;X;X;X;X;X;X;X;X;X;X;X;X;X;X;X;X;X;X;X;X;X;X;X;X;X;X;X*X&X@X(.A.6.T 9 O   ",
"..X.>.7.c.B.K.P.P.K.K.K.K.K.K.K.K.K.K.K.K.K.K.K.K.K.K.K.K.A.B.K.K.P.K.K.P.K.K.K.K.K.K.K.K.K.K.K.K.K.P.K.K.K.U.~.oXoX!.p.| t * # ",
"K.B.M.c.7.1.>.o.o.o.o.o.o.>.o.o.o.>.o.o.o.o.o.o.o.o.X.X.X.X.X.X.X.@.>.>.o.o.o.o.o.o.o.>.o.>.o.>.o.o.o.X.X.o.6.M.~.@X.XN.&.D 8 < ",
"2X;XoXB.1.n f > 9 f f f f f f f f f f f f f f f f f f f f f f f f f f f f f f f f f f f f f f f f f f 3 > f C 7.U.&X-XH.e.E N w ",
"eXeX;XK.>.f X     O O O O O O O O O O O O O O O O O # % > 9 9 ; @ o     X O O O O O O O O O O O O O O     O g <.U.;X1X_.s.~ Z N ",
"eXeX2XP.X.>       O # $ $ # # $ $ # $ # # $ # # O O & q b ] ' z ;         # $ $ $ # $ # $ # # # # $ # O O $ s 3.U.<X1X[.s.~ A N ",
"eXeX2XL.X.3     # < 6 6 6 6 6 6 6 6 6 6 6 6 < < < < e R 4.x.z.>.z +     # < 6 8 6 6 6 6 6 6 6 6 6 6 6 < < 6 D 5.E.<X<X[.s.~ A N ",
"eXeX;XK.o.f O O < w a V N N a a M N a a a a a a u N K 9.S.oX(.v. .> O # < y a N N a a a N N a a a a a u w a E u.Q.<X1X_.t.~ A N ",
"eXeX;XK.o.f O $ 4 a Z A A A Z Z A A A Z V A A H H I _ l. X5X:XY.2.c : * 6 u N V Z A Z Z A A A A V Z Z V N A ~ s.[.<X1XQ.i.~ A M ",
"eXeX;XK.>.f O $ 6 N A A A A A A A A A A Z A H ! _ w.k.].1X0X6XoXc.X.n j r e w a N A A A A A A A A A A V V A ~ s.[.<X<XW.i.~ A M ",
"eXeX;XK.o.f O # 6 N A A A A A A A A A V Z A L _ s.C.{.1X9XeX9X&XU.z.@.] j 7 < 6 u V A A A A A A A A A Z V A ~ s.[.<X1X_.i.~ A M ",
"eXeX;XK.o.f O $ 6 N A A A A A A A A A V V A ! 9.C.XX1XqXeXeX0X;XoXP.z.X.b : $ * 8 N A A A A A Z A A A V V A ~ s.`.<X1XQ.i.~ A M ",
"eXeX;XK.o.f O # 6 N Z A A A A A Z Z Z N N Z ~ r.W.<XeXeXeXeX0X2X$X~.M.1.v = O $ 6 a Z Z A A Z Z A V Z V N A ~ s.`.<X<XW.i.~ A M ",
"eXeX;XK.>.f O # < u V Z Z Z Z Z V N V M M V I r.W.5XeXeXeXeXwX6X&X(.B.1.x =   O < u V Z A Z V V N V N N N A ~ s.[.<X1X_.i.~ A M ",
"eXeX;XK.o.f O # < u N V V N N N N N N M u V P r.W.5XeXeXeXeXwX6X*X(.B.1.x @   # < u N V V V N V N N V N N A ~ s.[.<X<XW.i.~ A M ",
"eXeX;XK.o.f O # 6 N Z A A A A A A A V V N A ~ t.W.<XeXeXeXeX0X3X&X~.M.1.n ; O & 6 N A A A A Z Z A A V V V A ~ s.[.1X<XW.i.~ Z M ",
"eXeX;XK.@.f + * i K ~ ~ ~ ~ ~ ~ ~ ~ ~ I I ~ *.k.{.5XeXeXeX0X6X;X@X!.B.7. .c g s D E ~ ~ ~ ~ ~ ~ ~ ~ P J V B E u.W.<X<XW.s.~ A M ",
"eXeX;XK.X.f % q Q 0.s.f.f.s.t.t.y.y.t.r.r.y.k.G.%X9XwXwX0X2X;X@XoXY.K.c.7.1.@.#.:.e.t.y.y.t.s.s.f.s.9.( G p U 5.R.<X<X_.i.~ A M ",
"eXeX=XK.X.f > b 4.Z.[.}.[.`.W.W.W.W._.W.J._.}.%X5XqXqX8X>X$XOX'.!.Y.I.P.P.K.P.I.T.E._._.W.W.`.[.}.[.F.q.R r l #.I.-X1X_.s.~ A M ",
"eXeX;XA.X.f 9 ] x.|.<X5X5X<X<X2X<X<X1X1X1X<X5X9XwXwX0X4X&XoX^.Y.U.Y.~.(.@X&X;X<X2X1X1X1X<X<X<X5X5X1XoXx.[ g g X.P.;X<X_.t.~ A M ",
"eXeX;XA.X.f f ] x.|.<X9X0X0X0X0X0X0X0X8X8X0X0XwXeXeX0X2X@X~.Y.Y.Y.~.'.$X;X6X0X0X0X0X0X0X0X0X7X0X6X:X(.z.] 3 f X.K.;X<X_.s.~ A M ",
"eXeX;XA.X.f > b 4.Z.}.%X<X2X6X6X6X4X4X3X3X4X4X0XwXwX0X,XOX!.Y.R.(.OX$X*X:X3X3X6X6X4X4X6X7X6X2X=XOX!.v.>.z = f X.K.=X<X_.s.~ A M ",
"eXeX;XK.X.f = q R ;.j.S.`.@X&X*X*X#X#X#X@X$X&X3X8XwX0X,XOX!.Y.(.@X=X:X:X=X&X&X$X$X&X$X*X;X&XOXU.v.6. .z - + , o.L.;X<X`.s.~ Z N ",
"eXeX;XK.X.f $ & e E ) e.m.I.~.(.(.~.(.~.~.~.oX&X4X0X0X2X@X~.^.oX;X4X7X,X$X).~.~.~.~.^.(.(.~.P.z.X.x > +   . f >.L.;X1X_.t.~ A M ",
"eXeX;XK.o.f O # 4 N J ) q.n.A.P.P.U.Y.Y.!.~.oX&X6XwX0X3X&XoXoX$X2X0X0X2X@X~.Y.U.U.U.U.U.P.B.z.X.c =       O g ,.U.;X1X_.s.~ A M ",
"eXeX;XK.>.f O O < u A I ) :.a.b.N.A.U.!.(.oX$X>X7XwXwX7X>X&X&X2X8XwXqX2X@X!.P.P.U.P.K.M.z.6.X.n > .       $ l 4.R.;X1X_.s.~ A M ",
"eXeX;XK.>.f O # < u A J ~ ( %.u.b.A.Y.'.#X*X3X6X0XeXeXwX7X3X4X8XwXeX0X,X@X!.P.I.U.U.B.z.1.' c , +       # 6 U q.!.,X1X`.t.~ Z M ",
"eXeX;XK.o.f O # 4 a A A S J ^ %.a.A.!.@X;X6XwXwXwXeXeXwXwX0X0XeXeXeX0X2X@X^.Y.Y.R.U.B.7.[ h = . .   O # < u E u.`.<X<XW.t.~ A M ",
"eXeX;XK.o.f O # 6 a Z Z Z Z L $.a.I.).*X3X0XeXeXwXwX0X0X0X0XqXwXeXeXqX3X&XoX^.^.^.U.M.1.m ;       O # * 6 V ~ s.[.<X<XW.s.~ A M ",
"eXeX;XK.o.f O $ 6 a Z V V V J $.h.Q.$X4X0XeXeXwX0X3X>X2X3X2X6X0XwXeXqX8X2X&XOXoX(.U.M.,.c @     O & < 6 y A ~ s.[.<X1XW.i.~ A M ",
"eXeX;XK.>.f O # 6 M Z V N V L =.C.+X2XwXeXeXwX0X;X&X@X@X@X&X;X2X0XwXeXwX0X4X;X&XOXY.M.,.z +     & 6 w u a Z ~ s.[.<X1XW.i.~ A M ",
"eXeX;XK.o.f O $ 6 N Z Z V A I r.G.-X0XeXeXeX0X2X&XoX~.!.!.~.|.&X2XwXeXeXeX0X6X;X@X~.M.1.n ; O # < y M N N Z ~ s.[.<X1X_.i.~ Z M ",
"eXeX;XK.o.f O # 6 a A A A L ( g.`.2XeXeXeX0X6X-X@X~.U.A.M.B.K.^.&X4X0XwXwX0X6X2X&X(.K.8.} h 2 1 8 u N a a Z ~ s.[.<X1XQ.i.~ A N ",
"eXeX;XK.o.f O # 4 M A J W ( ;.C..X9XeXeX0X6X;X$XoX!.K.M.8.7.8.M.~.&X2X6X6X2X2X,X;X$X~.B.6.} b j r e w w u V ~ s.[.<X<XW.i.~ A M ",
"eXeX;XK.o.f O # 4 a H W ) 5.n.E.-X0XeX0X2X&XOXoX(.!.A.z.>.[  .6.B.(.$X&X&X$X#X*X,X:X*X(.B.8.@.] j 7 < 4 w V ~ s.[.<X1XQ.i.~ A M ",
"eXeX;XK.o.f O # 4 N J ( 0.h.I.+X;X9X0X4X&XoX^.!.!.U.M.2.' h h ' 8.A.~.(.(.~.).&X2X6X3X=X).A.z.o.c : # $ 4 N ~ s.[.<X1XW.i.~ A M ",
"eXeX;XK.o.f O # < a L $.d.D.).*X2X6X6X;X@X^.U.P.K.B.z.X.z = = z X.z.B.A.P.U.~.@X;X6X6X2X&X).A.2.C ; O # < a ~ s.[.<X<XW.i.~ A M ",
"eXeX;XK.o.f O # < a I =.V.(.&X:X3X2X;X&XoX!.P.M.c.7.X.n > + . > v ..6.z.M.P.~.OX&X2X4X6X2X&X~.z.[ > O O < N ~ s.[.<X1X_.i.~ A M ",
"eXeX;XK.o.f O O < M W w.F.+X2X3X>X&X@XOX).!.K.c.1.[ c > + . . + , z [ ,.z.K.~.'.@X$X*X2X4X3XOXv. .3 O O < a ~ s.[.<X1XW.i.~ A a ",
"eXeX;XK.>.f O O < a ~ r.J.-X6X2X&XoX~.~.!.U.B.6.[ h = + X       . = h { 7.B.U.!.!.~.).&X3X6X&XB.X.3 O O < N ~ s.[.<X<XW.i.~ Z M ",
"eXeX;XK.>.f O # < a ~ r.J.,X6X*X).L.N.N.B.M.z.X.c =       O O X O O : b @.z.M.B.M.M.K.'.;X3X&XB.X.3 O # < a ~ s.[.<X<X_.i.~ A N ",
"eXeX;XK.o.f O O < a I r.G.+X&XoXB.8.1.1.1.1.X.C f +     O $ & & # $ 1 j ] X.1.1.1.2.8.A.oX*XOXM...3 O O < M ~ s.[.<X<X_.i.~ A M ",
"eXeX;XK.o.f O # < N I 9.C./.(.K.8. .n v n n z f @ .   O & 4 6 w 6 8 8 r k c n n m m  .7.K.(.~.c.{ , O # < N ~ s.[.<X1XW.i.~ A M ",
"eXeX;XK.o.f O # < a L *.h.D.K.z...h ; = = ; = @ .   X $ 6 u N V N N u e 7 : ; = @ = h  .z.K.B.8.' - O # < M ~ s.[.<X<X`.i.~ A M ",
"eXeX;XK.o.f O O < a J ) 5.x.z.o.v =       O O O X O $ < w a Z A A Z N w < # O     O : T <.p.z.>.x = O O < a ~ s.[.<X<XW.i.~ A M ",
"eXeX;XK.X.3   O < u S P | O...n ,         O # # $ $ * 6 w N Z A A V N w < & # O O # * g T .. .m f o   O < u I s.[.<X1X`.s.~ A M ",
"eXeX;XK.X.>   O < u N B l k h > .       O * < 6 4 6 6 w u N V Z Z V a u 8 6 4 < < 4 4 0 g k h , +     O < u P s.`.<X<X`.s.~ Z M ",
"eXeX;XP.o.f O $ 6 a V p r : = @ . . O & 6 u N N N N N Z Z Z Z A A A Z Z V N a a a N u e 7 : = @ . . O & 6 N ~ s.[.1X1XW.i.~ A M ",
"eX0X*XU.6.` g s D W E Y l g f f , f g l U W ~ ~ ~ ~ ~ ~ ~ ~ ~ ~ ~ ~ ~ ~ ~ ~ ~ ~ ~ ~ E U l g f , 3 f g s D W $.k.}.-X-XH.r.~ A N ",
"6X2X&X~.M.7.<.#.5.u.u.5.3.>.X.o.o.o.<.4.q.u.s.f.f.f.s.s.s.s.s.u.i.s.s.i.s.s.f.f.f.f.i.5.3.>.o.o.o.>.,.3.5.u.k.G.+X-X+XS.9.~ A N ",
"&X&X@XoX^.Y.U.U.E.Q.W.E.U.U.K.L.K.P.U.R.Q.Q.[.{.{.[.[.[.[.[.[.[.[.[.[.[.[.[.[.{.{.[.Q.E.R.P.K.K.L.U.U.Y.E.`.}..X+X@X/.m.=.P A V ",
"~.~.(.oX$X&X;X<X2X<X<X<X,X;X;X;X;X;X;X>X<X<X<X<X1X<X<X<X<X<X<X<X<X<X<X<X<X<X<X<X<X<X<X<X-X;X;X=X;X;X:X,X<X<X,X=X@X(.I.a.) L A N ",
"v.N.K.!.+X-X1X1X<X<X1X<X<X1X<X<X1X1X<X<X<X<X<X<X<X<X<X<X<X<X<X<X<X<X<X<X<X<X1X<X<X1X<X<X<X<X1X<X<X1X<X<X<X<X-X+X/.D.b.-./ F N u ",
">.1.7.p.Z.T.[.{.{.[.[.[.[.{.[.[.[.[.{.{.[.[.[.[.[.[.[.[.[.[.[.[.[.[.[.[.[.[.[.[.[.[.[.[.[.{.{.{.[.[.{.{.{.[.W.F.V.d.:.+.U p w 6 ",
"v n ] | &.u.f.f.f.s.s.s.f.f.f.f.f.f.f.f.s.s.s.s.f.s.s.s.s.s.s.s.s.s.s.f.s.s.s.f.s.s.f.s.f.f.f.f.f.f.f.f.f.s.s.w.9.) / Y d 5 * $ ",
"= ; 9 t D W ~ ~ ~ ~ ~ ~ ~ ~ ~ ~ ~ ~ ~ ~ ~ ~ ~ ~ ~ ~ ~ ~ ~ ~ ~ ~ ~ ~ ~ ~ ~ ~ ~ ~ ~ ~ ~ ~ ~ ~ ~ ~ ~ ~ ~ ~ ~ ~ ~ W P L F i 5 $ O X ",
"    O & 6 u N N V N N N N N N a N N a N N N N N a N N N N a N N a N N N a N a a N N a N a N a N a N N N N a N N V N u 6 & O     ",
"      O & < 4 4 6 4 4 6 4 4 6 4 4 6 4 4 4 4 4 6 6 4 4 6 6 4 4 4 4 6 4 4 6 4 6 6 4 6 4 4 4 6 6 4 6 4 6 4 6 4 4 6 6 6 < * O       ",
"        O # $ $ $ $ $ $ & $ $ $ $ $ $ $ $ $ $ $ & $ $ $ $ $ $ $ $ $ $ $ & $ $ $ $ $ $ $ $ $ $ $ & $ $ $ $ $ $ $ & $ $ O O       ",
"        X X O O O O O O O O X O O O O X X O O O X O X O O O O X X O O O O X O O O O O X X O O O O X O O O O O O O O O X         ",
"                                                                                                                                ",
"                                                                                                                                "
};
