/* XPM */
static const char *sprite_2_20[] = {
/* columns rows colors chars-per-pixel */
"16 16 3 1 ",
"  c #000001",
". c gray39",
"X c #9C4A00",
/* pixels */
"                ",
"                ",
"     X          ",
"    XX .        ",
"    X ...       ",
"   X .....      ",
"  XX ........   ",
"  X ..........  ",
" XX ..........  ",
" X  ........ .. ",
" X ......  . .. ",
" X   ...     .  ",
" X     .     .  ",
" X              ",
" X              ",
" X              "
};
