/* XPM */
static const char *sprite_8_19[] = {
/* columns rows colors chars-per-pixel */
"16 16 4 1 ",
"  c #000001",
". c #590D79",
"X c #B53121",
"o c #FFFFFE",
/* pixels */
"                ",
"                ",
"  o       o     ",
"   o  o  o   ...",
"    .  o   ooo..",
"     o .  o.ooo ",
"      o   oo.o o",
"    oo   ooooooo",
"       ...o  ooo",
"      o...ooooo.",
".    oo o.oooXoo",
" o. .o oooXXoooo",
"  o oo ooooXXoXo",
" o   oo o.oXoXXX",
"  o o.oo..ooXoXo",
"    .. .o.ooXXo."
};
