/* XPM */
static char *sprite_1_13_resized[] = {
/* columns rows colors chars-per-pixel */
"64 64 207 2 ",
"   c #000001",
".  c #000709",
"X  c #020A0C",
"o  c #0A0A0B",
"O  c #100E0E",
"+  c #000E11",
"@  c #090E10",
"#  c #001215",
"$  c #0E1214",
"%  c #001519",
"&  c #02191D",
"*  c #141516",
"=  c #171718",
"-  c #161A1B",
";  c #1C1B1C",
":  c #011D22",
">  c #091E21",
",  c #1E1F20",
"<  c #002126",
"1  c #0D2124",
"2  c #00252B",
"3  c #00292F",
"4  c #162629",
"5  c #10282B",
"6  c #1A292C",
"7  c #002C32",
"8  c #1F2F31",
"9  c #0A3035",
"0  c #013339",
"q  c #0D3338",
"w  c #00383F",
"e  c #103438",
"r  c #173A3F",
"t  c #232324",
"y  c #242A2B",
"u  c #2C292A",
"i  c #223032",
"p  c #293233",
"a  c #24383B",
"s  c #363637",
"d  c #363A3B",
"f  c #3B3B3C",
"g  c #003C44",
"h  c #003F48",
"j  c #064047",
"k  c #01424A",
"l  c #09474F",
"z  c #09484F",
"x  c #184247",
"c  c #16464D",
"v  c #0E4B52",
"b  c #134E55",
"n  c #175057",
"m  c #1B5057",
"M  c #165259",
"N  c #19535A",
"B  c #1C585F",
"V  c #274246",
"C  c #27464A",
"Z  c #3B4345",
"A  c #205056",
"S  c #22555B",
"D  c #295459",
"F  c #25595F",
"G  c #365154",
"H  c #395357",
"J  c #355A5F",
"K  c #1E5A61",
"L  c #245B61",
"P  c #2B5D63",
"I  c #3B5F64",
"U  c #336166",
"Y  c #366469",
"T  c #39656A",
"R  c #37696F",
"E  c #3E686D",
"W  c #396C72",
"Q  c #444343",
"!  c #4E4A4A",
"~  c #504E4F",
"^  c #4F5253",
"/  c #465558",
"(  c #48575A",
")  c #545556",
"_  c #575758",
"`  c #5C5B5C",
"'  c #605F60",
"]  c #4B6366",
"[  c #406A6F",
"{  c #5E6465",
"}  c #436D72",
"|  c #437177",
" . c #4D7276",
".. c #477479",
"X. c #4A7479",
"o. c #5D7375",
"O. c #52757A",
"+. c #55797D",
"@. c #5A7A7E",
"#. c #646364",
"$. c #63696A",
"%. c #6B6C6D",
"&. c #617476",
"*. c #677678",
"=. c #647A7D",
"-. c #767373",
";. c #4E7B81",
":. c #517E83",
">. c #5D7D81",
",. c #627E81",
"<. c #568086",
"1. c #5A858A",
"2. c #668184",
"3. c #6A8386",
"4. c #63858A",
"5. c #6E8689",
"6. c #65898E",
"7. c #6E888C",
"8. c #7B8384",
"9. c #70878A",
"0. c #758A8D",
"q. c #788C8F",
"w. c #638D92",
"e. c #698D91",
"r. c #768E91",
"t. c #7D8F91",
"y. c #7B9294",
"u. c #73969A",
"i. c #7B989B",
"p. c #828283",
"a. c #80888A",
"s. c #8A8888",
"d. c #898F90",
"f. c #819193",
"g. c #869495",
"h. c #839A9D",
"j. c #8D9A9C",
"k. c #989595",
"l. c #949D9E",
"z. c #9B9D9E",
"x. c #859EA1",
"c. c #889EA1",
"v. c #969FA0",
"b. c #9F9FA0",
"n. c #8DA1A4",
"m. c #8AA4A7",
"M. c #8DA9AC",
"N. c #96A0A1",
"B. c #9CA3A4",
"V. c #98A7A9",
"C. c #91AAAD",
"Z. c #9DA9AA",
"A. c #95AEB1",
"S. c #9BAFB2",
"D. c #9CB3B6",
"F. c #99B4B8",
"G. c #A2A3A3",
"H. c #A8A7A7",
"J. c #A3AAAB",
"K. c #ABABAC",
"L. c #B1AFAE",
"P. c #A6B3B5",
"I. c #ABB4B5",
"U. c #A5B8BA",
"Y. c #ABBABB",
"T. c #B5B4B4",
"R. c #B9B6B6",
"E. c #B4BCBD",
"W. c #B9B9B9",
"Q. c #C0BFBF",
"!. c #C4C0BF",
"~. c #ABBFC2",
"^. c #B6BFC0",
"/. c #AAC1C4",
"(. c #AFC5C8",
"). c #BCC3C4",
"_. c #B7C7C9",
"`. c #BECED0",
"'. c #C3C3C3",
"]. c #C7C7C7",
"[. c #C3C9CA",
"{. c #CCCBCB",
"}. c #D1CFCF",
"|. c #D1D0CF",
" X c #C7D1D2",
".X c #CAD2D3",
"XX c #CCD7D8",
"oX c #CED9DB",
"OX c #D3D2D2",
"+X c #D9D6D6",
"@X c #D4D7D8",
"#X c #D3DBDC",
"$X c #DBDBDC",
"%X c #E0DFDE",
"&X c #D8DFE0",
"*X c #DBE4E5",
"=X c #DFE7E8",
"-X c #E4E3E3",
";X c #E8E6E6",
":X c #E6E7E8",
">X c #E5EAEB",
",X c #EBEAEA",
"<X c #EBEFF0",
"1X c #EEF2F2",
"2X c #F4F4F4",
"3X c #F6F7F7",
"4X c #FEFEFE",
/* pixels */
"    t #.H.;X4X2X$XQ.T.T.L.H.d.#.s o                                                 = _ H.;X4X2X$XQ.R.R.R.L.b.-.Q =             ",
"    t ` G.$X2X;X|.R.L.K.T.K.k.%.Q ;                                   .           . t #.G.$X3X;X|.W.L.K.I.K.k.%.Q =             ",
"    4 ~ d.).oX XE.J.B.J.I.T.H.p.` s t ; ; t t t t t t t t t t t t t t t t t t ; ; t f %.B.].#X.XE.Z.l.v.B.l.8.{ s *             ",
"    = Z &.c.A.M.h.0.r.n.I.'.W.H.p.%.` ) _ ` _ ` ` ` ` ` ` ` ` ` ` ` ` ` ` ` ` ` ` ' %.8.j.S.D.C.h.0.5.5.7.3.o./ y *             ",
"    $ 8 H X.:.+.| W +.y.U..X+X}.W.K.z.z.z.b.z.G.G.G.b.B.b.b.z.G.G.z.G.z.G.G.G.G.H.G.B.l.g.e.1.:...} E E E E J V 4 @             ",
"    @ 1 r m L B N N R e.U.#X<X2X;X-X$X$X$X$X$X$X$X$X$X$X$X$X$X$X$X$X$X$X$X$X$X%X-X#X[.C.e.W L B M N N N N M c e > X             ",
"    X 1 r A L B M B R e.U.#X2X4X4X4X4X4X4X4X4X3X2X2X2X3X2X2X2X3X2X2X3X3X2X3X<X2X1X*X`.M.;.K k k v b N N B n c e > X             ",
"    $ i H  .<.:.| } +.y.U.OX;X2X4X4X4X4X4X4X4X4X2X,X;X;X-X;X;X;X;X;X,X,X;X;X-X$XXX(.A.w.W v k l N U [ } } E J V 4 @             ",
"    = Z &.n.D.C.h.y.y.l.P.'.OX-X2X4X4X4X4X4X4X2X;X@X}.}.{..X}.}.OXOXOXOXOXOX].Y.C.u.<.W B v k S [ >.5.y.r.7.&.( p $             ",
"    , ~ d.).#X XE.Z.N.B.J.T.'.@X-X2X4X4X4X4X3X-X|.'.E.W.W.W.W.W.W.W.W.W.Q.W.J.h.1.E K v k k n Y @.f.l.B.Z.N.8.{ d *             ",
"    4 ) d.).oX XE.Z.N.z.G.K.R.{.-X2X4X4X4X2X,X$X{.'.W.R.W.W.W.T.T.L.T.L.L.K.l.5.[ m k h g k b Y >.f.l.B.B.l.8.{ d *             ",
"    ; Z *.n.D.A.x.r.q.f.j.G.T.{.-X2X4X3X2X-X$X$X}.{.].].].].].Q.R.T.K.L.L.K.l.2.Y v g g g k v P } ,.9.r.r.9.o./ p $             ",
"    $ i H  .<.<...}  .=.f.B.R.}.-X2X3X<X%XOX{.}.@X$X%X-X;X%X$X}.'.T.T.L.L.K.l.3.T b h g g h z m P U E } } E I V 4 @             ",
"    X 1 r A L K B N P  .9.N.R.|.;X2X3X;XOX'.).{.$X,X2X3X3X2X;X$X].T.K.K.L.K.l.5.[ b h h h h k z b b N N N n c e > X             ",
"    @ 1 r A L K N N P  .0.N.R.OX-X2X2X-X{.W.W.].%X2X4X4X4X2X:XXXW.J.N.G.H.K.l.5.[ n k g h k k z v n N N B m c e > X             ",
"    $ 8 H  .<.:...|  .,.f.B.W.|.-X2X2X-X].T.W.].-X2X4X4X2X:X@XE.V.y.r.g.N.H.l.9.[ n k h g k l b L Y E } } E J V 4 @             ",
"    - Z *.n.D.A.n.r.0.f.l.H.W.{.-X3X2X%X].W.W.].%X2X4X2X;X@X).V.0.+. .3.g.B.l.9.[ N k g g k b L } ,.5.0.r.9.&.( p $             ",
"    ; ^ d.).#X.XE.Z.N.N.G.J.W.}.-X2X2X%X{.R.W.].-X2X2X,X+X'.J.r.X.P P  .r.v.v.0.} b k g g k b Y ,.f.N.B.B.l.a.{ d *             ",
"    4 ^ d.).oX XE.Z.N.z.B.K.W.{.-X2X2X*X].W.W.{.%X2X2X;X|.W.v.2.U N N [ 9.l.l.0.} n k g g h b Y ,.y.v.B.B.l.a.{ d *             ",
"    = Q *.n.D.A.h.y.0.f.l.H.T.}.:X2X2X-X{.W.W.{.-X2X2X;X|.T.l.=.P b b T 9.l.l.0.} m k g g k v P } ,.5.r.r.5.&./ p $             ",
"    $ i H O.>.:...} X.=.f.B.W.{.;X2X2X%X{.W.W.{.-X2X2X;X|.W.l.=.U b n T 5.l.l.0.} n j h h h l m P U E } } E J V 4 @             ",
"    @ 1 g D L B B N P  .0.N.W.OX;X2X2X*X].W.W.{.-X2X2X-X|.R.v.2.T n n [ 9.l.l.0.} n k h h k k l b n N N N M c e > X             ",
"    X 1 r A L K B N P  .0.N.W.}.;X2X2X-X{.W.W.[.%X2X2X;XOXR.v.2.Y n n [ 9.l.l.9.} m k h h k k l v m N N B m c q > X             ",
"    $ i H  .<.:...}  .=.f.G.W.|.;X2X2X-X].W.W.{.;X2X3X,X+XW.B.2.T n n [ 9.l.v.0.} n k g h k z m L U E } } E J V 4 @             ",
"    - Z *.n.D.A.x.y.0.f.l.G.W.OX;X2X2X%X{.W.W.{.-X2X3X,XOXW.B.3.T m N E 5.l.l.0.} m k g h k b F } >.5.y.r.7.&.( p $             ",
"    , ) d.).oX XE.Z.N.z.B.K.R.{.-X2X2X-X].W.W.{.*X2X2X;X|.W.v.2.Y n m E 9.l.l.0.} M k g g k b Y ,.f.l.B.Z.N.8.{ d *             ",
"    , ^ d.).oX XE.Z.N.z.G.K.W.{.-X2X2X%X{.W.W.].$X,X;X$X).J.f.O.P b m E 9.l.l.0.[ m k g g k b U >.f.l.B.B.l.8.{ d *             ",
"    = Z *.n.D.A.x.y.0.f.l.J.W.{.-X2X2X-X].T.T.Q.|.+X.X).Z.y.@.Y m v b [ 9.l.l.0.} m k g g h v P } ,.9.r.r.9.o./ p $             ",
"    $ 8 H X.<.:...}  .,.f.G.R.OX-X2X2X-X].T.K.R.!.].E.Z.0...U n l k b E 9.l.l.0.[ m k h h k z n P Y E } } E I V 4 @             ",
"    @ 1 r A L K B N P  .0.N.W.OX;X2X3X-X{.W.T.L.T.T.J.f.O.U n l k k m } 0.l.l.0.} N k h h k k z v n N N N n c e > X             ",
"    X 1 r A L L B N P  .0.z.R.OX;X3X2X;X@X'.T.T.T.L.N.q. .P m v v m P O.t.v.l.0.[ m k h h k k z b b M N B m c e > X             ",
"    $ i H X.<.:.| }  .,.f.B.W.{.-X2X3X2X-XOX].Q.R.K.B.y.>.} T U Y E O.5.j.H.N.0.[ n k g h k z n F Y E } } E J V 4 @             ",
"    = Z &.n.D.A.h.y.0.f.l.J.W.{.-X2X4X3X2X-X$X{.^.T.G.l.f.9.3.,.2.5.q.j.G.K.N.0.} m k h g k b F } ,.9.r.r.5.&.( p $             ",
"    4 ^ d.).#X XE.Z.N.z.B.K.W.{.-X2X4X4X4X2X,X$X].T.K.G.b.v.v.l.l.l.N.J.K.K.l.5.[ m k g g k b Y =.y.v.B.B.v.a.{ d *             ",
"    t ^ d.).#X XE.Z.z.z.G.K.R.{.-X2X4X4X4X4X2X-X{.R.L.L.T.T.T.T.T.K.K.J.H.v.f.@.Y b k g g k b U ,.y.l.B.B.v.a.{ d *             ",
"    = Z *.n.D.C.n.r.q.q.l.G.T.{.-X2X4X4X4X4X4X;X}.Q.T.W.'.].}.].Q.R.L.G.j.q.,.} F z k h g k v P } ,.9.r.0.5.&./ p $             ",
"    $ i H  .<.:...} X.=.f.B.T.{.%X2X4X4X4X4X4X;X}.W.W.'.|.$X%X+X}.W.J.j.3. .T F b z k k k k l n P Y E } } E J V 4 @             ",
"    X 1 r A L K M B P X.0.N.R.}.-X2X4X4X4X4X2X$X].R.R.].$X,X,X%X}.T.z.0. .P b l k k k k k k k l b b m B N M c e > X             ",
"    @ 1 r m L K M B P O.y.J.'.$X>X3X4X4X1X=X#X_.I.Z.K.).$X1X2X*X].J.g.@.U b k k h k k k k k k v v b N N B n c e > X             ",
"    $ 8 H X.;.;.| } O.0.B.).+X,X3X4X4X>XoX(.D.m.y.r.h.P.@X<X<X#XU.g.>.E S l k h h k k k h h j b F U E } } E J V 4 @             ",
"    = Z &.n.A.M.i.r.g.V.).$X,X4X4X4X3XXXF.i.w.;.E } >.m.`.>X>X XM.>.Y N b k k k k k k k h h l F } ,.5.r.r.5.o.( p $             ",
"    ; ) d.).oX XE.Z.J.E..X-X2X4X4X4X:X/.u.W K v v N W u.(.=X=X(.u.R b l k k k k k k k h h j b T @.y.l.B.B.N.a.{ d *             ",
"    t _ z.OX:X#X).J.J.U.[.#X=X>X>X$X[.n.O.m h w w k L e./.=X*X/.e.L j g g w w w w w g g l b P | 3.g.N.Z.Z.l.a.#.d *             ",
"    t ) k.{.$X XP.h.y.x.M.F.U.Y.I.G.d.&.G q 3 2 7 h K w.~.*X*X~.w.K h 0 7 7 3 3 2 3 e x D T X.@.4.5.0.r.y.0.*.( p *             ",
"    ; ~ s.R.].U.i.>...X.<.1.1.2.&.{ ) Z y > : : 3 g K w./.*X*X/.w.K g 7 < : & # # & 5 V ] ,.5.4.@.X.} | | } T V 6 @             ",
"    ; Q -.b.J.g.@.P N M B L S C a y ; * o X + % 2 g L w./.*X*X/.w.K g 3 & + X     . - Z $.a.g.5.X.P m n m b c e > X             ",
"    * f ' 8.a.=.I c g w g w 0 2 # .         . + : 0 S 6.~.*X*X~.6.S 0 : # .         * f #.p.a.=.U c g w g w 0 2 % .             ",
"    O u Q _ { ( V 9 2 2 2 < : # .             X # 2 C ,.U.*X*XY.2.C 2 # .           O u ! #.#.( V 9 3 < 2 2 < & #               ",
"    o * u s d p 4 & % % % # # X                 . % a &.I.$X&XI.&.a % .             o = u f f p 6 & & % % % # + .               ",
"      o o * * $ $ . . . . . X                     . y $.K.$X$XL.$.y .                 o * * * * o X . . . . . .                 ",
"                                                    t #.K.$X$XK.#.t                                                             ",
"                                                    t #.K.$X$XH.#.t                                                             ",
"                                                    t #.K.$X$XK.#.t                                                             ",
"                                                    t #.K.$X$XK.#.t                                                             ",
"                                                    t #.K.$X$XK.#.t                                                             ",
"                                                    t #.K.$X$XK.#.t                                                             ",
"                                                    t #.K.$X$XK.#.t                                                             ",
"                                                    t #.K.$X$XK.#.t                                                             ",
"                                                    t #.H.$X$XH.#.t                                                             ",
"                                                    t #.K.$X$XK.$.t                         .                                   ",
"                                                    t #.K.$X$XK.#.t                                                             ",
"                                                    t #.K.$X$XK.#.t                                             .               ",
"                                                    t #.K.$X$XK.#.t                                                             ",
"                                                  . t #.K.$X$XK.$.t                                   .                         "
};
