/* XPM */
static char *sprite_9_17_resized[] = {
/* columns rows colors chars-per-pixel */
"64 64 108 2 ",
"   c #000000",
".  c #000001",
"X  c #010101",
"o  c #010102",
"O  c #020203",
"+  c #030303",
"@  c #030304",
"#  c #040405",
"$  c #070708",
"%  c #080809",
"&  c #0C0C0D",
"*  c #0F0F10",
"=  c #101010",
"-  c #101011",
";  c #161617",
":  c #181819",
">  c #1C1C1D",
",  c #1D1D1E",
"<  c #1E1E1F",
"1  c #1F1F1F",
"2  c #1F1F20",
"3  c #202020",
"4  c #202021",
"5  c #222223",
"6  c #232324",
"7  c #242424",
"8  c #252525",
"9  c #262626",
"0  c #373737",
"q  c #383839",
"w  c #393939",
"e  c #39393A",
"r  c #3A3A3B",
"t  c #3B3B3B",
"y  c #3C3C3D",
"u  c #3D3D3D",
"i  c #3D3D3E",
"p  c #515152",
"a  c #535353",
"s  c #565656",
"d  c #595959",
"f  c #5D5D5E",
"g  c #5E5E5E",
"h  c #606060",
"j  c #626262",
"k  c #636363",
"l  c #646464",
"z  c #646465",
"x  c #656565",
"c  c #666666",
"v  c #676767",
"b  c #686868",
"n  c #696969",
"m  c #6B6B6B",
"M  c #6B6B6C",
"N  c #6C6C6C",
"B  c #6D6D6D",
"V  c #6E6E6E",
"C  c #6E6E6F",
"Z  c #7D7D7D",
"A  c #7E7E7E",
"S  c #7F7F7F",
"D  c #828282",
"F  c #838383",
"G  c #8B8B8B",
"H  c #8C8C8B",
"J  c #8E8E8E",
"K  c #8F8F8E",
"L  c #919191",
"P  c #929292",
"I  c #939393",
"U  c #949493",
"Y  c #979797",
"T  c #989898",
"R  c #999999",
"E  c #9A9A9A",
"W  c #9C9C9C",
"Q  c #9F9F9F",
"!  c #A0A09F",
"~  c #A0A0A0",
"^  c #A1A1A1",
"/  c #A2A2A1",
"(  c #A5A5A4",
")  c #A5A5A5",
"_  c #A9A9A9",
"`  c #AAAAAA",
"'  c #ABABAA",
"]  c #ABABAB",
"[  c #AFAFAF",
"{  c #B2B2B1",
"}  c #B3B3B2",
"|  c #B6B6B5",
" . c #BBBBBB",
".. c #BCBCBC",
"X. c #BDBDBC",
"o. c #BEBEBD",
"O. c #C0C0C0",
"+. c #C1C1C1",
"@. c #C3C3C2",
"#. c #C4C4C3",
"$. c #DBDBDA",
"%. c #DBDBDB",
"&. c #DCDCDC",
"*. c #E7E7E6",
"=. c #E8E8E7",
"-. c #E9E9E8",
";. c #FDFDFC",
":. c white",
/* pixels */
"o .         : d ) *.:.:.:.:.*.) d :         . X X . . . . . . . . . . . . . . X X .         : d ) *.:.:.:.:.*.) d :         . o ",
". .       @ 7 g ^ %.;.:.:.;.%.^ g 7 @       . . . . . . . . . . . . . . . . . . . .       @ 7 g ^ %.;.:.:.;.%.^ g 7 @       . . ",
"    @ $ * 3 y n E #.&.=.=.&.#.E n y 3 - $ @             . . . . . . . .             @ $ - 3 y n E #.&.=.=.&.#.E n y 3 * $ @     ",
"    $ > 0 a n Z K W ( _ _ ( W K Z n a q , $                 . X X .                 $ , q a n Z K W ( _ _ ( W K Z n a 0 > $     ",
"    * 0 c J W I S N j f f j N S I W K n e *                 . X X .                 * e n K W I S N j f f j N S I W J c 0 *     ",
"  @ 3 a J  .O.Q N u 7 : : 7 u N Q O...L s 2 +     X o o X . . . . . . X o o X     + 2 s L ..O.Q N u 7 : : 7 u N Q O. .J a 3 @   ",
": 7 y n W O.X.P s 3 O     O 3 s P X.+.! B i 8 < 4 5 1 ; & #         # & ; 1 5 4 < 8 i B ! +.X.P s 3 O     O 3 s P X.O.W n y 7 : ",
"d g n Z I Q P N t =         = t M P ~ Y F C x z c k s u 4 %         % 4 u s k c z x C F Y ~ P M t =         = t N P Q I Z n g d ",
") ^ E K S N s t 2 $         $ 1 r s B D U / ] { } ` P n w *         * w n P ` } { ] / U D B s r 1 $         $ 2 t s N S K E ^ ) ",
"*.%.#.W N u 3 = $ @         @ $ = 3 y b R @.%.=.=.$.o.G p 1 O     O 1 p G o.$.=.=.%.@.R b y 3 = $ @         @ $ = 3 u N W #.%.*.",
":.;.&.( j 7 O       . . . .       + 1 p H o.$.=.=.%.@.T v y 7 : : 7 y v T @.%.=.=.$.o.H p 1 +       . . . .       O 7 j ( &.;.:.",
":.:.=._ f :         . o X .         * q n P ` } { ] ^ L A V l h h l V A L ^ ] { } ` P n q *         . X o .         : f _ =.:.:.",
":.:.=._ f :         . X X .         % 4 u s k c z x V A L ^ ' [ [ ' ^ L A V x z c k s u 4 %         . X X .         : f _ =.:.:.",
":.;.&.( j 7 O       . . . . .       # & ; 1 5 4 < 8 y v T @.$.*.*.$.@.T v y 8 < 4 5 1 ; & #       . . . . .       O 7 j ( &.;.:.",
"*.%.#.W N u 3 = $ @       . . . . . . X o o X     @ 1 p G o.$.-.-.$.o.G p 1 @     X o o X . . . . . .       @ $ = 3 u N W #.%.*.",
") ^ E K S N s t 1 $         . X X .                 * w n P ' | | ' P n w *                 . X X .         $ 1 t s N S K E ^ ) ",
"d g n Z I Q P M r =         . X X .                 % 4 u s l m m l s u 4 %                 . X X .         = r M P Q I Z n g d ",
": 7 y n W O.X.P s 3 +       . . . . . .             # & ; 1 6 9 9 6 1 ; & #             . . . . . .       + 3 s P X.O.W n y 7 : ",
"  @ 3 a K ..+.~ B y 1 * % # .     . . . . . . . . . . X o o o O O o o o X . . . . . . . . . .     . # % * 1 y B ~ +...K a 3 @   ",
"    - q n L ! Y D b p q 4 & X     . . . . . . . X .                         . X . . . . . . .     X & 4 q p b D Y ! L n q -     ",
"    $ , e s B F U R H n u ; o       . . . . . . . .                         . . . . . . . .       o ; u n H R U F B s e , $     ",
"    @ $ * 2 i C / @.o.P s 1 o       . . . . . . . . . .                 . . . . . . . . . .       o 1 s P o.@./ C i 2 * $ @     ",
". .       + 8 x ] %.$.` k 5 X       . . . . . . . . . . . . . . . . . . . . . . . . . . . .       X 5 k ` $.%.] x 8 +       . . ",
"X .         < z { =.=.} c 4         . . . . . . . . . . . . . . . . . . . . . . . . . . . .         4 c } =.=.{ z <         . X ",
"X .         4 c } =.=.{ z <         . X . . . . . . . . . . . . . . . . . . . . . . . . X .         < z { =.=.} c 4         . X ",
". .       X 5 k ` $.%.] x 8 @       . . . . . . . . . . . . . . . . . . . . . . . . . . . .       @ 8 x ] %.$.` k 5 X       . . ",
". .       o 1 s P o.@.^ V y 1 * % # .     . . . . . . . . . . . . . . . . . . . . . .     . # % * 1 y V ^ @.o.P s 1 o       . . ",
". .       o ; u n G T L A v p w 4 & X     . . . . . . . . . . . . . . . . . . . . . .     X & 4 w p v A L T G n u ; o       . . ",
". . .     X & 4 w p v A L T G n u ; o       . . . . . . . . . . . . . . . . . . . .       o ; u n G T L A v p w 4 & X     . . . ",
". . .     . # % * 1 y V ^ @.o.P s 1 o       . . . . . . . . . . . . . . . . . . . .       o 1 s P o.@.^ V y 1 * % # .     . . . ",
". . . . . .       O 7 l ' $.$.' l 6 o       . . . . . . . . . . . . . . . . . . . .       o 6 l ' $.$.' l 7 O       . . . . . . ",
". . . X X .         : h [ *.-.| m 9 O       . . . . . . . . . . . . . . . . . . . .       O 9 m | -.*.[ h :         . X X . . . ",
". . . X X .         : h [ *.-.| m 9 O       . . . . . . . . . . . . . . . . . . . .       O 9 m | -.*.[ h :         . X X . . . ",
". . . . . .       O 7 l ' $.$.' l 6 o       . . . . . . . . . . . . . . . . . . . .       o 6 l ' $.$.' l 7 O       . . . . . . ",
". . .     . # % * 1 y V ^ @.o.P s 1 o       . . . . . . . . . . . . . . . . . . . .       o 1 s P o.@.^ V y 1 * % # .     . . . ",
". . .     X & 4 w p v A L T G n u ; o       . . . . . . . . . . . . . . . . . . . .       o ; u n G T L A v p w 4 & X     . . . ",
". .       o ; u n G T L A v p w 4 & X     . . . . . . . . . . . . . . . . . . . . . .     X & 4 w p v A L T G n u ; o       . . ",
". .       o 1 s P o.@.^ V y 1 * % # .     . . . . . . . . . . . . . . . . . . . . . .     . # % * 1 y V ^ @.o.P s 1 o       . . ",
". .       X 5 k ` $.%.] x 8 @       . . . . . . . . . . . . . . . . . . . . . . . . . . . .       @ 8 x ] %.$.` k 5 X       . . ",
"X .         4 c } =.=.{ z <         . X . . . . . . . . . . . . . . . . . . . . . . . . X .         < z { =.=.} c 4         . X ",
"X .         < z { =.=.} c 4         . . . . . . . . . . . . . . . . . . . . . . . . . . . .         4 c } =.=.{ z <         . X ",
". .       + 8 x ] %.$.` k 5 X       . . . . . . . . . . . . . . . . . . . . . . . . . . . .       X 5 k ` $.%.] x 8 +       . . ",
"    @ $ * 2 i C / @.o.P s 1 o       . . . . . . . . . .                 . . . . . . . . . .       o 1 s P o.@./ C i 2 * $ @     ",
"    $ , e s B F U R H n u ; o       . . . . . . . .                         . . . . . . . .       o ; u n H R U F B s e , $     ",
"    - q n L ! Y D b p q 4 & X     . . . . . . . X .                         . X . . . . . . .     X & 4 q p b D Y ! L n q -     ",
"  @ 3 a K ..+.~ B y 1 * % # .     . . . . . . . . . . X o o o O O o o o X . . . . . . . . . .     . # % * 1 y B ~ +...K a 3 @   ",
": 7 y n W O.X.P s 3 +       . . . . . .             # & ; 1 6 9 9 6 1 ; & #             . . . . . .       + 3 s P X.O.W n y 7 : ",
"d g n Z I Q P M r =         . X X .                 % 4 u s l m m l s u 4 %                 . X X .         = r M P Q I Z n g d ",
") ^ E K S N s t 1 $         . X X .                 * w n P ' | | ' P n w *                 . X X .         $ 1 t s N S K E ^ ) ",
"*.%.#.W N u 3 = $ @       . . . . . . X o o X     @ 1 p G o.$.-.-.$.o.G p 1 @     X o o X . . . . . .       @ $ = 3 u N W #.%.*.",
":.;.&.( j 7 O       . . . . .       # & ; 1 5 4 < 8 y v T @.$.*.*.$.@.T v y 8 < 4 5 1 ; & #       . . . . .       O 7 j ( &.;.:.",
":.:.=._ f :         . X X .         % 4 u s k c z x V A L ^ ' [ [ ' ^ L A V x z c k s u 4 %         . X X .         : f _ =.:.:.",
":.:.=._ f :         . o X .         * q n P ` } { ] ^ L A V l h h l V A L ^ ] { } ` P n q *         . X o .         : f _ =.:.:.",
":.;.&.( j 7 O       . . . .       + 1 p H o.$.=.=.%.@.T v y 7 : : 7 y v T @.%.=.=.$.o.H p 1 +       . . . .       O 7 j ( &.;.:.",
"*.%.#.W N u 3 = $ @         @ $ = 3 y b R @.%.=.=.$.o.G p 1 O     O 1 p G o.$.=.=.%.@.R b y 3 = $ @         @ $ = 3 u N W #.%.*.",
") ^ E K S N s t 2 $         $ 1 r s B D U / ] { } ` P n w *         * w n P ` } { ] / U D B s r 1 $         $ 2 t s N S K E ^ ) ",
"d g n Z I Q P N t =         = t M P ~ Y F C x z c k s u 4 %         % 4 u s k c z x C F Y ~ P M t =         = t N P Q I Z n g d ",
": 7 y n W O.X.P s 3 O     O 3 s P X.+.! B i 8 < 4 5 1 ; & #         # & ; 1 5 4 < 8 i B ! +.X.P s 3 O     O 3 s P X.O.W n y 7 : ",
"  @ 3 a J  .O.Q N u 7 : : 7 u N Q O...L s 2 +     X o o X . . . . . . X o o X     + 2 s L ..O.Q N u 7 : : 7 u N Q O. .J a 3 @   ",
"    * 0 c J W I S N j f f j N S I W K n e *                 . X X .                 * e n K W I S N j f f j N S I W J c 0 *     ",
"    $ > 0 a n Z K W ( _ _ ( W K Z n a q , $                 . X X .                 $ , q a n Z K W ( _ _ ( W K Z n a 0 > $     ",
"    @ $ * 3 y n E #.&.=.=.&.#.E n y 3 - $ @             . . . . . . . .             @ $ - 3 y n E #.&.=.=.&.#.E n y 3 * $ @     ",
". .       @ 7 g ^ %.;.:.:.;.%.^ g 7 @       . . . . . . . . . . . . . . . . . . . .       @ 7 g ^ %.;.:.:.;.%.^ g 7 @       . . ",
"o .         : d ) *.:.:.:.:.*.) d :         . X X . . . . . . . . . . . . . . X X .         : d ) *.:.:.:.:.*.) d :         . o "
};
