/* XPM */
static char *sprite_7_21_resized[] = {
/* columns rows colors chars-per-pixel */
"64 64 217 2 ",
"   c #000101",
".  c #000709",
"X  c #01090C",
"o  c #0C0D0D",
"O  c #000E12",
"+  c #080E10",
"@  c #001215",
"#  c #001519",
"$  c #01191D",
"%  c #0D181A",
"&  c #151415",
"*  c #161718",
"=  c #161C1D",
"-  c #1A1A1B",
";  c #001E23",
":  c #161F21",
">  c #1F1F20",
",  c #201F20",
"<  c #012126",
"1  c #082226",
"2  c #002329",
"3  c #0D272B",
"4  c #01282E",
"5  c #1A2022",
"6  c #122629",
"7  c #1D292B",
"8  c #002C33",
"9  c #092D32",
"0  c #1B2F32",
"q  c #003036",
"w  c #01333A",
"e  c #0C3439",
"r  c #00383F",
"t  c #0D393F",
"y  c #1A3437",
"u  c #13363A",
"i  c #242424",
"p  c #242B2D",
"a  c #2C2D2D",
"s  c #202E31",
"d  c #23393C",
"f  c #343435",
"g  c #373737",
"h  c #353A3C",
"j  c #3B3A3A",
"k  c #003740",
"l  c #013B42",
"z  c #003F48",
"x  c #123D43",
"c  c #243E41",
"v  c #373F40",
"b  c #433F40",
"n  c #044047",
"m  c #01434B",
"M  c #0C454C",
"N  c #1E4246",
"B  c #17454A",
"V  c #14464D",
"C  c #074951",
"Z  c #0D4C53",
"A  c #134E55",
"S  c #1C4D53",
"D  c #175057",
"F  c #185057",
"G  c #145259",
"H  c #1A535A",
"J  c #1D585F",
"K  c #23474C",
"L  c #24484D",
"P  c #3C4648",
"I  c #284D52",
"U  c #354E51",
"Y  c #23545A",
"T  c #24555B",
"R  c #3D585B",
"E  c #1E5960",
"W  c #245C63",
"Q  c #2B5C62",
"!  c #355C61",
"~  c #256067",
"^  c #346166",
"/  c #3B6266",
"(  c #356469",
")  c #39656B",
"_  c #3C696E",
"`  c #366E74",
"'  c #3D6C71",
"]  c #3E7278",
"[  c #434344",
"{  c #434748",
"}  c #43494A",
"|  c #4B4C4C",
" . c #424E50",
".. c #44585A",
"X. c #555555",
"o. c #575758",
"O. c #555B5C",
"+. c #5D5C5C",
"@. c #615F5F",
"#. c #43676B",
"$. c #5E6162",
"%. c #5E6A6C",
"&. c #436D72",
"*. c #496F74",
"=. c #566D70",
"-. c #447176",
";. c #4C7176",
":. c #4E767B",
">. c #51757A",
",. c #587478",
"<. c #5D797D",
"1. c #646364",
"2. c #686564",
"3. c #666768",
"4. c #646B6C",
"5. c #6B6B6B",
"6. c #726E6E",
"7. c #606F70",
"8. c #6E6F70",
"9. c #627274",
"0. c #6D7172",
"q. c #617B7E",
"w. c #747373",
"e. c #73797A",
"r. c #7C7B7C",
"t. c #527E82",
"y. c #5E7D81",
"u. c #647D80",
"i. c #787F80",
"p. c #528086",
"a. c #568388",
"s. c #5D8589",
"d. c #5F8B90",
"f. c #658184",
"g. c #6A8386",
"h. c #64868A",
"j. c #6C8689",
"k. c #618A8E",
"l. c #6E888C",
"z. c #7B8384",
"x. c #738B8E",
"c. c #638D92",
"v. c #6A8E92",
"b. c #748D90",
"n. c #7B8F91",
"m. c #649095",
"M. c #699297",
"N. c #769396",
"B. c #75999D",
"V. c #838383",
"C. c #878887",
"Z. c #838B8C",
"A. c #8C8C8C",
"S. c #918E8D",
"D. c #839395",
"F. c #84999B",
"G. c #949494",
"H. c #989797",
"J. c #949D9E",
"K. c #9B9B9B",
"L. c #899FA1",
"P. c #969FA0",
"I. c #8BA6A9",
"U. c #96A1A2",
"Y. c #9AA1A2",
"T. c #9BA8A9",
"R. c #8EADB0",
"E. c #99AEB1",
"W. c #99B3B5",
"Q. c #A5A3A3",
"!. c #A9A6A5",
"~. c #A5A8A8",
"^. c #A6A9AA",
"/. c #ACACAC",
"(. c #B0AEAE",
"). c #B2B0AF",
"_. c #ACB1B1",
"`. c #A9B7B8",
"'. c #A6BDBF",
"]. c #ABBBBC",
"[. c #B4B3B3",
"{. c #B9B6B5",
"}. c #B6BABB",
"|. c #BBBBBB",
" X c #C3BFBF",
".X c #C0C0BF",
"XX c #A6BEC1",
"oX c #A9BEC0",
"OX c #A6C0C2",
"+X c #ABC3C5",
"@X c #ADC6C8",
"#X c #B1C5C7",
"$X c #BCC4C4",
"%X c #BCC9CA",
"&X c #BECFD0",
"*X c #C3C3C3",
"=X c #C9C6C6",
"-X c #C9C8C7",
";X c #C5CCCD",
":X c #CCCCCC",
">X c #D0CFCF",
",X c #CDD3D3",
"<X c #D4D4D3",
"1X c #D9D7D6",
"2X c #D8D8D7",
"3X c #D5DDDD",
"4X c #DCDCDB",
"5X c #E0DFDE",
"6X c #DFE0DF",
"7X c #E1E0DF",
"8X c #DBE4E4",
"9X c #DEE7E8",
"0X c #E4E4E3",
"qX c #E4E9E9",
"wX c #EBEBEA",
"eX c #F3F3F2",
"rX c #FEFEFE",
/* pixels */
"    * o.Q.0XrXrXrXrXrXrXrXrXrXrXrXrXrXrXrXrXrXrXrXrXrXrXrXrXrXrXrXrXrXrXrXrXrXrXrXrXrXrXrXrXrXrXrXrXrXrXrXrXrXwX<X[.G.1.g &     ",
"    i +.K.4XrXrXrXrXrXrXrXrXrXrXrXrXrXrXrXrXrXrXrXrXrXrXrXrXrXrXrXrXrXrXrXrXrXrXrXrXrXrXrXrXrXrXrXrXrXrXrXrXeX0X<X|.H.3.j *     ",
"- i j 1.G.*X4X0X0X4X4X4X4X4X4X4X4X4X4X4X4X4X4X4X4X4X4X4X4X4X4X4X4X4X4X4X4X4X4X4X4X4X4X4X4X4X4X4X4X4X4X4X4X4X1X<X:X|.Y.w.[ : X   ",
"X.+.1.w.C.K.Q.~.~.Q.Q.Q.Q.Q.Q.Q.Q.Q.Q.Q.Q.Q.Q.Q.Q.Q.Q.Q.Q.Q.Q.Q.Q.Q.Q.Q.Q.Q.Q.Q.Q.Q.Q.Q.Q.Q.Q.Q.Q.Q.Q.Q.Q.~.!.{.*X*X[.z...0 $ O ",
"Q.K.G.C.e.5.1.@.+.@.1.@.@.@.@.@.1.@.@.@.@.@.@.1.@.@.@.@.@.@.@.@.@.@.@.@.@.@.@.@.@.@.@.@.@.@.@.@.@.1.@.+.+.@.w.G.|.:X*XL.=.N 4 ; ",
"0X4X*XK.5.j i - - i i i i i i i i i i i i i i i i i i i i i i i i i i i i i i i i i i i i i i i i i i > - i [ w.(.<X3XW.s.Y l 8 ",
"rXrX4XQ.1.i       X X X X X X X X X X X X X X X X X X X X X X X X X X X X X X X X X X X X X X X X X X   . X p 3.!.4X8XXXc.W m k ",
"rXrX0X~.@.-       X O @ @ O O @ O O @ O O @ O O @ O O O O X X O X O O O X O O O O @ @ O @ @ @ @ O O O X . @ 0 7._.8X9XOXc.~ m l ",
"rXrX5X~.+.>     O ; 2 2 2 2 2 2 2 2 2 2 2 2 2 2 2 2 2 ; ; ; ; ; ; ; ; ; ; ; < < 2 2 2 2 2 2 2 2 2 ; 2 ; ; 2 N q.`.8X8X+Xc.W m l ",
"rXrX4X~.@.i X X ; 8 r l l l r r k k k r r r r r r k k k k l k l l l l l l k l r k r r l r w r r k r r w q l T h.].8X8XXXk.W m l ",
"rXrX4XQ.@.i X @ 2 l m m m m z m m z z m m z m z z m C Z G E E E J F A F S G A A n l l l z m m m m m z z l m W c.+X8X8X'.c.W m k ",
"rXrX4XQ.@.i X O 2 l m m m z z z z z z z z z z l z z C E ] p.s.a.t.&.&.&.&.' / T B e 8 w r m C m m m m z z m W c.oX8X8X'.k.W m k ",
"rXrX4XQ.@.i X @ 2 l m m m z l z z z z l l z l l r z Z ` m.R.W.E.L.b.x.l.x.j.,...c 6 ; 2 q m m C m m m m z m W c.oX8X8X'.k.W m r ",
"rXrX4XQ.@.i X O 2 l m m m m m m m m m m m m m m l m W a.R.;X3X,X}.T.P.P.Y.J.Z.%.h : @ $ 4 r m m m m m z l m W c.+X8X8X'.d.W m r ",
"rXrX4XQ.@.i X O 2 l m G H E W W W W W W W W W E E W ' B.oX3XwX5X;X{.(.(._./.G.8.[ : @ # 2 w l z z z m z l m W c.oX8X8X'.k.W m k ",
"rXrX4XQ.1.i X O ; r Z ~ ] a.c.M.M.c.m.c.c.c.c.d.d.c.B.E.%X2X5X1X-X|.[.[.{.).K.e. .0 $ # ; 2 8 w l z z z l m W c.+X8X8XXXk.W m k ",
"rXrX4XQ.@.i X X ; r G ] M.W.+X#X@X+X+X+X+X+X+X+X+X+X#X%X;X;X-X=X|.{.).{.{.).J.i...u 2 ; $ $ ; 4 w l z z z m W k.+X8X8X'.k.W m r ",
"rXrX4XQ.@.i X O ; l J p.R.&X8XqXqX8X8X8X8X8X8X8X8X8X3X2X:XoX}.{.).)./.).)./.J.j.#.V w 2 # O @ $ 8 l m z l m W k.+X8X8X'.d.W m r ",
"rXrX4XQ.@.i X X ; r J t.I.$X4X5X7X4X4X4X2X1X4X4X4X2X1X:X X{././././.).).)./.P.j.-.D r 2 @ . X # 4 r z z z m W c.oX8X8X'.k.W m k ",
"rXrX4XQ.@.i X O < r A &.g.J.!.(./.!.!.!.Q.Q.Q.Q.Q.Q.!.^.!.!././.(.).).).{.).Y.l.' G r 2 O . . @ 2 l m z z m W c.+X0X8X'.k.W m k ",
"rXrX4XQ.@.i X O 2 r M I ..O.@.1.1.@.1.+.@.+.o.o.+.+.2.w.S.P./.).).).).{.{.).Y.x.' D r < @   . # 4 l m m z m W c.+X8X8X'.k.W m k ",
"rXrX4XQ.@.i X @ 2 r l t y i i i i i i i i i i , , i g o.r.K./._.)._./.).)./.P.l.' F r 2 @ X X # 4 l m z l m Q k.oX8X8X'.k.W m k ",
"rXrX4XQ.@.i X @ 2 l l q ; @ X X . X X & * i i , - - a | w.K././.~.P.P.P.P.J.D.g.;.T V e 1 @ @ $ 2 q l l l m W c.+X8X8X'.k.W m k ",
"rXrX4XQ.@.i X @ 2 r l w 2 # O X X X # 7 h | | | b j | 1.V.K.~.Y.F.x.g.g.g.g.f.s.>.*./ I y 1 $ $ < 4 8 8 w z W k.+X8X8XXXk.W m k ",
"rXrX4XQ.@.i X O 2 r z r 8 4 < ; $ ; 9 U 7.Z.H.A.r.6.w.V.G.Q.Y.D.f.-.) ^ ^ ) &.>.f.g.u.#.U t 4 < $ $ ; 2 8 l W c.+X8X8X'.k.W m r ",
"rXrX4XQ.@.i X @ 2 r z m z l r w w l S >.I.*X<X=X[.K.K.K.!.^.P.n.,.T F A Z F T -.j.D.n.u./ V w 2 # O O # 2 z W c.+X8X8X'.k.W m k ",
"rXrX4XQ.@.i X O < r m m m m m m Z E ] N.oX3XqX4X:X[././.(./.P.b.>.Q F Z Z F ^ ;.j.D.D.f._ A r 2 # X . @ 2 l W c.+X8X8X'.d.W m k ",
"rXrX4XQ.1.i X O < r m m m m Z E ` p.B.W.%X3X7X1X=X|.).(././.Q.n.y.*.) ^ ^ ) #.>.u.f.y.-.W Z r 2 @ . . O 2 l W m.+X8X8X'.d.Q m k ",
"rXrX4XQ.@.i X @ 2 r z m z z G ` m.R.+X%X;X;X:X*X|.[.(./././.Y.J.D.j.f.g.g.f.f.<.>.&.( T G m r 2 @   . O < l W m.+X8X8X'.d.W m r ",
"rXrX4XQ.@.i X O < r m m z m W p.R.&X3X2X;X*X|.[.[.)././.(././.^.Y.Y.K.P.Y.J.F.g.-.Q F Z C m l 4 # X X @ < l W c.+X8X8X'.k.W m r ",
"rXrX4XQ.@.i X @ 2 r m m m D ( v.W.3XqX0X<X*X{.{.[.}.{.}.|.{.|.{.|.{.{.{.{./.P.x.;.Q F D G F V e 1 @ X # ; w T h.oX8X8XXXk.W m k ",
"rXrX4XQ.@.i X O < l M G T _ <.B.].2X0X0X1X>X:X:X>X<X<X<X>X<X<X<X1X1X<X>X.X|./.F.g.>.' ' -.&./ L y 1 $ # $ 4 L u.].3X8XXXk.W m k ",
"rXrX4XQ.@.i . O < r C Q &.y.n.U.`.*X>X2X4X5X0XqXwXqXqXwXwXwXwXwXwXwX0X4X:X|.).T.F.n.x.x.x.x.q.#.I e 2 $ @ $ d 9._.6X8X'.d.W m r ",
"rXrX4XQ.@.i X O < l A ( y.D.Y./.).[.*X>X5XwXeXeXeXeXeXeXeXeXeXeXeXeXwX4X=X{.^.Q.Y.P.P.P.P.P.D.q./ B w $ @ @ p 1./.4X8XXXd.W m l ",
"rXrX4XQ.@.i X O ; l G &.l.P./.[.{.{.*X:X7XwXeXwX0X7X4X4X4X4X4X4X7X4X<X.X).K.H.G.S.G.G.H.H.G.Z.f.-.T V 4 # X i @.!.4X8XOXd.W m r ",
"rXrX4XQ.@.i X O ; r F &.x.T.{. X=X*X:X1X7X0X4X>X|.!.K.K.Q.Q.Q.Q.Q.K.H.A.z.w.5.5.5.5.6.6.6.6.0.9.,.&.! d % o , @.Q.4X8XXXd.Q m r ",
"rXrX4XQ.@.i X X ; r F &.x.~.|.:X<X4X4X5X4X<X*X~.V.1.+.X.+.@.+.+.@.o.X.| | [ b j j j j j j b | O.9.q.q. .p & i @.~.2X8XXXd.W m l ",
"rXrX4XQ.@.i X O < l A ' j.P.[.:X5XwXwX0X<X.X~.r.+.j i - , i i i i i , , - - * * * * - & & - a | 0.A.z.$.f & i @.Q.4X8XXXc.W m k ",
"rXrX4XQ.@.i X O ; l A ( ,.Z.Q..X5XeXeX4X*XQ.C.3.| f i & o   . o * , , - o o . o * , , % + + 5 } e.H.G.8.h - i +.Q.4X8XXXc.W m l ",
"rXrX4XQ.@.i X O 2 r M I R 3.V./.1XeXeX<X^.r.1.+.+.X.| a &     * f [ [ f -     - f | | v 7 $ 6 U r.P.K.6.j - i +.Q.4X8XXXk.W m r ",
"rXrX4XQ.@.i X @ 2 l l x d P +.A.=XwXwX*XC.X.[ +.e.S.C.+.a o o a @.C.V.1.f o o f 1.C.A.9.U e t R z.P.K.w.b - i +.Q.2X8XXXc.W m k ",
"rXrX4XQ.@.i X O 2 r l q 1 = g w.[.4X4X/.5.j g +.G. X|.A.| , i | S.|.|.A.| , , | A.|.$XI.>.H S / g.J.G.5.j - i +.Q.4X8XXXd.W m k ",
"rXrX4XQ.@.i X @ 2 r l 8 $ @ p +.G.$X.XG.+.g j 1.~.<X<X~.2.j h 1.Q.<X<X!.2.j g 1.Q.<X3XoXv.) T #.u.Z.z.+.f = p $.!.3X8XoXc.W m k ",
"rXrX4XQ.1.i X @ 2 r l 8 ; $ 1 P 5.A.G.r.@.| X.V.[.<X<X_.V.+.+.V._.1X1X).z.+.+.V.(.2X4X#XI.s.;.=.%.5.@.} 7 6 d 7._.3X8XoXk.W m k ",
"rXrX4XQ.@.i X O 2 r z r 8 8 9 y P X.+.1.2.5.V.H.[.:X:X[.G.V.V.H.[.:X-X[.H.V.V.H.[.-X:X#XE.F.g.7.O.| g 7 3 9 L u.`.3X8XXXk.W m l ",
"rXrX4XQ.@.i X O 2 r z z m l r 9 1 7 f | 3.C.H.~.(.[.[./.Q.K.K.Q./.[.[./.Y.K.H.Q./.[.}._./.P.Z.4.{ p : $ 2 w T h.oX8X8X'.k.W m k ",
"rXrX4XQ.@.i X O 2 r m m m m r 2 $ @ = h @.z.G.K.K.G.H.G.G.G.H.G.G.G.G.G.G.G.G.G.G.G.H.H.H.G.V.$.g = O # 2 k W c.+X8X8XXXk.W m k ",
"rXrX4XQ.+.- . X ; w l m m z r 8 $ @ $ 7 [ $.5.5.5.3.1.3.3.3.5.3.3.1.3.3.5.5.5.5.3.3.1.5.5.5.+.} s $ # $ 2 l E c.+X9X8XoXc.W m k ",
"rXrX4XQ.@.-   . ; w z z z z l q 2 < < 3 s h j j g f f g j h j j g g g g j j j j f f f g j h f p 3 2 2 2 8 k E c.XX9X9XXXc.W m k ",
"rXrX4XQ.@.i X @ 2 r m m m m m z m l w 9 3 = - - - * - - * - - - - * * * * - * * - - - - * - : 6 9 w k l l m W c.XX8X8XoXk.W m k ",
"rXeX4X!.w.b s 0 N Y W W W W W W W Q T K d p i , i i i i i i i i i i i i i i i i i i i i i i p d K Y W E J W -.B.#X3X3XW.a.W m k ",
"wX0X<X{.G.e.3.%.q.h.k.c.c.c.c.c.m.c.h.q.4.%.+.+.@.o.@.@.+.+.+.+.@.@.+.@.+.@.+.+.@.@.o.@.+.+.%.%.u.k.c.c.c.c.B.W.;X<X;XR.t.W m l ",
"<X<X:X*X{.(././.`.].oX+X+X+X+X+X+X+X'.`./.~.~.Q.Q.Q.Q.Q.Q.Q.Q.Q.Q.!.Q.Q.!.Q.!.Q.Q.Q.Q.!.Q.Q.!._.`.oX+X+X+XoX+X%X>X>X}.F.:.J m l ",
"{.}.|.*X:X1X3X8X0X8X8X8X8X8X8X8X9X8X8X8X3X4X4X3X5X1X4X4X4X4X4X4X2X1X4X4X4X3X4X4X1X1X4X1X4X3X3X4X3X8X8X9X9X8X3X2X:XoXT.l.&.F m l ",
"G.H.Q._.*X3X8X9X8X8X8X8X8X8X8X8X8X8X8X8X8X8X8X8X4X8X8X8X8X8X8X8X8X8X8X8X8X8X8X8X8X8X8X8X8X8X8X8X8X8X8X9X9X8X3X;X}.~.D.,.! V l w ",
"1.3.w.n.U.'.OX@X@X@X+X+X+X+X+X+X+X+X+X+X+X@X+X+X@X+X+X+X+X+X@X@X@X+X+X+X+X+X+X+X@X@X+X@X@X+X@XOX@X+X+X+X+X+X'.E.L.b.,.#.L e 8 2 ",
"j j } ..=.h.m.m.m.c.c.c.c.c.c.m.c.c.m.c.m.m.m.m.m.m.m.m.m.m.m.m.m.m.m.m.m.m.m.m.m.m.m.m.m.m.m.m.m.c.m.c.m.c.k.p.t.' ! L u 1 $ # ",
"& * 7 7 N H Q ~ W W W W W Q W W W Q W W W W W Q W W W Q W W W Q W W W Q W W W E W Q W W W W W Q W W W Q Q W W W H F V e 1 @ X   ",
"    X # 2 w l l z l l l r l l l l r l l l l l l l r l l l r l l l l l l l l l l l r l l l l l l l r l l l r l l l l w 2 # X     ",
"      X # ; < 2 2 2 < < < 2 2 < 2 < < < < 2 < < 2 < < 2 2 < < < 2 < < 2 < < 2 < 2 < < < < 2 < < 2 < < 2 2 < 2 2 2 2 ; $ X       ",
"        X O @ @ @ @ @ @ @ @ @ @ @ @ @ @ @ @ @ @ @ @ @ @ @ @ @ @ @ @ @ @ # @ @ @ @ @ @ @ @ @ @ @ @ @ @ @ @ @ @ @ @ # @ X .       ",
"        . . . X X X X . X X . X X . X X X X X . X X X X X . X X X X X . X . X X X . X X X X X . X X X X X . X X X X . .         ",
"                                                                                                                                ",
"                                                                                                                                "
};
