/* XPM */
static const char *sprite_7_18[] = {
/* columns rows colors chars-per-pixel */
"16 16 4 1 ",
"  c #000001",
". c #00424A",
"X c gray68",
"o c #FFFFFE",
/* pixels */
" oooooooooooooX ",
"o             o.",
"o ........o...o.",
"o ........oX..o.",
"o ........XXX.o.",
"o .......o   .o.",
"o ...o..o ....o.",
"o ..ooXo .....o.",
"o .ooX.X .....o.",
"o .oX.XXX ....o.",
"o .XXXXX .....o.",
"o .XXXX ......o.",
"o .    .......o.",
"XoooooooooooooX.",
" .............. ",
"                "
};
