/* XPM */
static const char *sprite_7_21[] = {
/* columns rows colors chars-per-pixel */
"16 16 4 1 ",
"  c #000001",
". c #00424A",
"X c gray68",
"o c #FFFFFE",
/* pixels */
" oooooooooooooX ",
"o             o.",
"o ............o.",
"o .....oXX ...o.",
"o .ooooXXX. ..o.",
"o .    XXX. ..o.",
"o ...oXX..X. .o.",
"o ..oXXXXX.. .o.",
"o .XXooooXXX. o.",
"o .XoX      X o.",
"o . o o o o.X o.",
"o .. XXXXXXX .o.",
"o ...       ..o.",
"XoooooooooooooX.",
" .............. ",
"                "
};
