/* XPM */
static const char *sprite_4_2[] = {
/* columns rows colors chars-per-pixel */
"16 16 4 1 ",
"  c #000001",
". c #6B6B00",
"X c #E79C21",
"o c #E7E794",
/* pixels */
"                ",
"                ",
"   o.o.o.o.o.o  ",
"   X.X.X.X.X.X  ",
"   XXXXXXXXXXX  ",
"     ooooooo    ",
"    oooXXXXoo   ",
"   XXXXX..XXX.  ",
"ooooooX..oXXX.X ",
"   ...XXooXX..  ",
"    ...XXXX..   ",
"     .......    ",
"   oXXXXXXXXXX  ",
"   X.X.X.X.X.X  ",
"   X.X.X.X.X.X  ",
"                "
};
