/* XPM */
static const char *sprite_4_0[] = {
/* columns rows colors chars-per-pixel */
"16 16 4 1 ",
"  c #000001",
". c #6B6B00",
"X c #E79C21",
"o c #E7E794",
/* pixels */
"       o        ",
"       o        ",
"       o        ",
" oXX  Xo.  oXX  ",
" ..X oXo.. X..  ",
" oXXooXo...XXX  ",
" ..XooXXX..X..  ",
" oXXoXX.XX.XXX  ",
" ..XoX..oX.X..  ",
" oXXoX.ooX.XXX  ",
" ..XoXXXXX.X..  ",
" oXXooXXX..XXX  ",
" ..X oXX.. X..  ",
" oXX  ...  XXX  ",
"       X        ",
"                "
};
