/* XPM */
static const char *sprite_1_17[] = {
/* columns rows colors chars-per-pixel */
"16 16 4 1 ",
"  c black",
". c gray39",
"X c gray68",
"o c white",
/* pixels */
"        XXXXXXXX",
"        XXXXXXX.",
"        XXoooo..",
"        XXoooo..",
"        XXoooo..",
"        XXoooo..",
"        XX......",
"        X.......",
"        XXXXXXXX",
"        XXXXXXX.",
"        XXoooo..",
"        XXoooo..",
"        XXoooo..",
"        XXoooo..",
"        XX......",
"        X......."
};
