/* XPM */
static const char *sprite_0_16[] = {
/* columns rows colors chars-per-pixel */
"16 16 3 1 ",
"  c #6B0800",
". c gray39",
"X c #9C4A00",
/* pixels */
"    .       .   ",
"XXXX. XXXXXX. XX",
"XXXX. XXXXXX. XX",
"................",
".       .       ",
". XXXXXX. XXXXXX",
". XXXXXX. XXXXXX",
"................",
"    .       .   ",
"XXXX. XXXXXX. XX",
"XXXX. XXXXXX. XX",
"................",
".       .       ",
". XXXXXX. XXXXXX",
". XXXXXX. XXXXXX",
"................"
};
