/* XPM */
static const char *sprite_3_16[] = {
/* columns rows colors chars-per-pixel */
"16 16 2 1 ",
"  c #4242FF",
". c #B5EFEF",
/* pixels */
"     .       .  ",
"                ",
".       .       ",
" .  .    .  .   ",
"   . .     . .  ",
"                ",
" .       .      ",
"  .   .   .   . ",
"     .       .  ",
"                ",
".       .       ",
" .  .    .  .   ",
"   . .     . .  ",
"                ",
" .       .      ",
"  .   .   .   . "
};
