/* XPM */
static const char *sprite_7_19[] = {
/* columns rows colors chars-per-pixel */
"16 16 4 1 ",
"  c #000001",
". c #00424A",
"X c gray68",
"o c #FFFFFE",
/* pixels */
" oooooooooooooX ",
"o             o.",
"o .....o .....o.",
"o ....ooX ....o.",
"o ....ooX ....o.",
"o oooooXXoooo o.",
"o .XXXoXoXXX  o.",
"o ..XooooXX  .o.",
"o ..ooXXooX ..o.",
"o .XoXX XXoX .o.",
"o .oXX   XXo .o.",
"o .X   ..  X .o.",
"o .  ......  .o.",
"XoooooooooooooX.",
" .............. ",
"                "
};
