/* XPM */
static char *sprite_4_5_resized[] = {
/* columns rows colors chars-per-pixel */
"64 64 230 2 ",
"   c #000001",
".  c #0B0703",
"X  c #0C0C01",
"o  c #0C0C09",
"O  c #120E02",
"+  c #1A0F02",
"@  c #0E1104",
"#  c #131202",
"$  c #1C1305",
"%  c #171800",
"&  c #1C1C00",
"*  c #15150B",
"=  c #191A0E",
"-  c #161812",
";  c #1D1D13",
":  c #251806",
">  c #211D10",
",  c #1F2000",
"<  c #232400",
"1  c #2A2403",
"2  c #2C2A02",
"3  c #2C2C09",
"4  c #372607",
"5  c #372D05",
"6  c #343400",
"7  c #383502",
"8  c #3B3B01",
"9  c #212116",
"0  c #2A2B1B",
"q  c #353614",
"w  c #3A3217",
"e  c #2C2F21",
"r  c #393925",
"t  c #453506",
"y  c #453309",
"u  c #4C340B",
"i  c #49310C",
"p  c #57390C",
"a  c #563B0C",
"s  c #3E4100",
"d  c #414300",
"f  c #4B4602",
"g  c #4E4803",
"h  c #4D4D0E",
"j  c #5E4E06",
"k  c #515100",
"l  c #5B5005",
"z  c #5D5D00",
"x  c #64470D",
"c  c #604F08",
"v  c #655407",
"b  c #76580E",
"n  c #79580D",
"m  c #644918",
"M  c #7C5412",
"N  c #5D6000",
"B  c #646400",
"V  c #6B6304",
"C  c #666900",
"Z  c #6B6B00",
"A  c #756507",
"S  c #746E02",
"D  c #6F730B",
"F  c #7D7305",
"G  c #7B770A",
"H  c #7D7A0D",
"J  c #6C6C13",
"K  c #7C7C14",
"L  c #424324",
"P  c #47472E",
"I  c #574D2B",
"U  c #5D5E22",
"Y  c #474931",
"T  c #4C4D30",
"R  c #535336",
"E  c #5B5B3B",
"W  c #6A5F34",
"Q  c #636434",
"!  c #73753D",
"~  c #696945",
"^  c #7A7A4B",
"/  c #7C7D51",
"(  c #865B13",
")  c #865E12",
"_  c #8C5D10",
"`  c #866A0B",
"'  c #836C0A",
"]  c #847405",
"[  c #8B750A",
"{  c #8C7809",
"}  c #947707",
"|  c #957B0B",
" . c #997E0C",
".. c #8D6213",
"X. c #946315",
"o. c #9B6B1A",
"O. c #A47F0C",
"+. c #A97717",
"@. c #A37913",
"#. c #8E6F2D",
"$. c #AF7E27",
"%. c #7C821D",
"&. c #9B800C",
"*. c #8B8117",
"=. c #998112",
"-. c #98891B",
";. c #A2820E",
":. c #A9840F",
">. c #B5850E",
",. c #BB870E",
"<. c #A68310",
"1. c #AC8611",
"2. c #A88917",
"3. c #B68611",
"4. c #B78914",
"5. c #BA8915",
"6. c #BA8B15",
"7. c #B98119",
"8. c #8B8B26",
"9. c #82822D",
"0. c #9A9227",
"q. c #96932F",
"w. c #8A8B34",
"e. c #979838",
"r. c #9C9D3A",
"t. c #AB912D",
"y. c #BC9220",
"u. c #B2982D",
"i. c #A1A13A",
"p. c #BEA032",
"a. c #C18D15",
"s. c #CF8C11",
"d. c #CA8D14",
"f. c #C7861C",
"g. c #C58F18",
"h. c #CB8A1D",
"j. c #C59216",
"k. c #CC9117",
"l. c #CD921A",
"z. c #D69216",
"x. c #DC9317",
"c. c #D5951C",
"v. c #D9971D",
"b. c #D7991A",
"n. c #DC991D",
"m. c #E19619",
"M. c #E39A1E",
"N. c #EA9B1E",
"B. c #F3A21F",
"V. c #C69926",
"C. c #D99725",
"Z. c #D69F2A",
"A. c #CA9835",
"S. c #E59C21",
"D. c #EA9E22",
"F. c #D6A633",
"G. c #E9A025",
"H. c #E6A42E",
"J. c #EAA32B",
"K. c #F1A020",
"L. c #E7A631",
"P. c #EAA831",
"I. c #E7AE3D",
"U. c #EAAD3A",
"Y. c #EBB03F",
"T. c #848653",
"R. c #8D8D5B",
"E. c #938B53",
"W. c #9C9556",
"Q. c #B39749",
"!. c #9FA243",
"~. c #B3A844",
"^. c #A1A152",
"/. c #ABAD50",
"(. c #B9B456",
"). c #969660",
"_. c #9B9B64",
"`. c #A7A769",
"'. c #B5B665",
"]. c #BCBE63",
"[. c #B8B76D",
"{. c #B6B878",
"}. c #C0AF47",
"|. c #C9AF48",
" X c #DAAC46",
".X c #DAB243",
"XX c #DEB54B",
"oX c #CAB654",
"OX c #E1AF40",
"+X c #E6B345",
"@X c #E7B648",
"#X c #EABA4E",
"$X c #EABD53",
"%X c #D5BA61",
"&X c #C7BE71",
"*X c #BFC062",
"=X c #DCC55F",
"-X c #E7C25B",
";X c #E9C259",
":X c #C4C266",
">X c #C6C67F",
",X c #CBC679",
"<X c #D4CB71",
"1X c #D1CD74",
"2X c #D9CE73",
"3X c #D5D57F",
"4X c #E7C560",
"5X c #E9C863",
"6X c #E7CD6C",
"7X c #E9CE6D",
"8X c #ECD16E",
"9X c #E7D376",
"0X c #EAD272",
"qX c #EDDD7F",
"wX c #C8CA83",
"eX c #CBCB83",
"rX c #D5D583",
"tX c #D8DA8A",
"yX c #DBDF93",
"uX c #E7DD84",
"iX c #E9DE84",
"pX c #E3DF88",
"aX c #E8E28C",
"sX c #ECE58C",
"dX c #F1EA8F",
"fX c #E4E492",
"gX c #E9E692",
"hX c #EBE994",
"jX c #EBED99",
"kX c #EDF19E",
/* pixels */
"                                                    * R ).wX>X).R *                                                             ",
"                                                    9 E _.wXwX).E 9                                                             ",
"      . . X X @ X @ # # $ $ $ O . .             o ; r ~ `.eXeX`.~ r ; o .             . O $ $ $ # O X @ @ X X X .               ",
"      X % & < , < < 1 5 y u i 4 $ .         . - 0 T ~ R.{.eXtX{.).~ Y e - .         . : 4 i u y 5 2 < < < < , % X               ",
"    . % < 6 s s s 8 f j b ..M p 4 o         . e R / _.{.eXtXtXeX{._./ R e o         O 4 p M ) n j f s s s s 6 < % .             ",
"    X < 8 k z N z z V [ @.+.+.( u $         9 Y T.`.wXpXfXfXfXfXtXwX[./ Y ;         $ u ( +.7.@.` V N N z z k 8 < X             ",
"    # 3 h J K H G F { :.d.c.f.X.p $     . ; r ~ _.eXgXkXjXgXgXhXsXpX,XW.W w $       $ p X.f.b.j.1.{ F F F F V g 2 X             ",
"    * q U w.r.t.0.=.1.j.n.D.h.X.u $ o o 0 Y ~ ).{.yXkXkXkXhXgXsXiX0X4XQ.#.m u : . . $ p o.h.M.b.j.1.&.;.;.&.[ v 5 #             ",
"    = L ^ /.oXoXF.y.k.b.M.S.h...u + . 9 R / _.{.eXfXjXkXjXjXaXiX8X;X+XF.y.o.( i : . $ p X.h.N.S.v.g.j.j.j.j.@.n u $             ",
"    ; T T.[.1X=X.XZ.b.M.N.N.f...u = > P / `.eXtXfXfXgXjXjXgXpX6X$X+XL.S.C.h.+.M i + : i ..g.S.D.G.b.b.v.n.v.7.) u $             ",
"    ; T T.'.1X=X.XZ.n.n.N.M.h.o.m w r E _.wXfXhXgXaXpXiXpXuX9X4X@XH.D.D.K.M.f.X.a 1 4 p X.h.N.D.n.b.b.C.n.v.7.) a $             ",
"    * L ! ^.(.}.p.y.j.k.x.n.C.$.#.W ~ R.{.yXjXdXiX0X6X6X6X5X-X#XU.D.D.N.B.N.c.o.v t y x o.h.n.n.c.a.6.j.6.4.@.b y %             ",
"    * q U 9.q.0.-.=.;.>.k.n.C.A.Q.W._.{.eXfXgXiX7X$X#X@X@X#X+XI.H.D.N.N.K.N.c.+.n v l A +.c.C.l.4.;. .=.&.| ' j 5 #             ",
"    # 3 h J K ] H F { O.a.v.H. X%X,X,XtXyXfXiX0X$XI.L.H.H.H.H.J.S.D.D.D.N.D.c.3.[ A V [ 7.c.v.g.<.{ F F F F V g 2 #             ",
"    # 3 h J K K G F [ ;.a.v.H.#X7XiXgXfXfXpX9X4X+XP.D.S.N.S.D.S.S.D.S.D.D.D.c.5.| F F =.4.c.v.g.:.{ F F ] F V g 2 O             ",
"    * q U 9.q.0.-.=.O.>.d.n.P.#X8XsXhXsXiX0X-X#XU.D.N.N.N.N.N.N.D.S.S.D.D.D.c.7.| F F &.6.v.v.l.4.;.| &. . .` c 5 #             ",
"    = L ! ^.(.}.p.y.a.d.z.M.L.$X7XsXgXiX7X$X+XU.H.D.D.N.N.N.D.N.N.N.N.D.D.S.c.4. .F F  .4.v.n.v.l.a.6.a.6.6.@.b y $             ",
"    ; T T.[.<X=X.XZ.v.x.m.S.L.#X6XiXiX0X$X+XL.D.S.S.D.N.N.D.D.D.S.D.D.D.D.S.c.4.| F F | 4.v.S.S.n.v.b.v.v.c.7.) u $             ",
"    ; T T.[.<X=X.XZ.v.n.x.S.L.#X6XuXuX7X#XL.S.M.n.v.c.c.c.c.v.C.S.L.H.J.J.D.v.4.| F F | 4.c.S.S.C.v.v.v.n.v.7.) u $             ",
"    = L ! ^.(.}.p.y.a.d.z.M.L.#X7XuXuX6X#XH.n.z.d.a.5.>.3.3.6.V.F. X+X+XP.D.v.3.| F F | 4.c.S.v.c.j.6.6.a.4.@.b y $             ",
"    * q U 9.q.0.-. .@.>.d.v.L.#X7XuXuX7X#XH.v.d.>.;. .} }  .=.u.|.=X4X$XY.J.v.3.| F F | 4.v.v.l.4.;. . .&.| ' c 5 #             ",
"    # 3 h J K H G G { ;.a.C.L.#X7XuXiX7X#XH.z.a.;.{ F S S F *.i.(.2X9X5X@XH.v.3.} F F | 4.v.v.g.;.{ F F F F V g 2 #             ",
"    # 3 h J K H H G [ O.a.z.L.#X8XuXuX7X$XL.c.,.} F Z D D H 8.!.:XtXiX8X$XP.c.3.} F F  .4.v.b.d.<.{ ] F F F V g 2 O             ",
"    * q U 9.q.0.-. .O.3.d.n.L.#X7XuXuX8X#XL.c.3.{ S D D %.8.!.'.1XyXsX0X$XL.c.>.| F F | 4.c.C.h.4.;. . .&.| ' v 5 #             ",
"    = L ! ^.(.~.A.y.j.j.z.M.L.#X7XuXuX8X$XP.c.>.} S D %.e./.].1XtXfXaX0X#XP.v.>.} F F | 5.C.M.v.l.j.6.6.a.4.@.b y $             ",
"    ; T T.[.<X=X.XZ.b.x.m.S.L.#X7XuXuX7X#XP.c.>.} F K 8./.,X3XfXfXfXiX7X#XH.c.5.} F F } 4.c.S.S.C.v.n.n.n.c.7.) u $             ",
"    ; T T.[.<X=X.XZ.v.x.m.S.L.#X7XuXuX7X#XP.m.+.O.[ *.r.].rXgXhXhXuX9X5X@XH.c.>.} G F | 4.v.S.S.M.b.v.n.n.v.7.) u $             ",
"    = L ! ^.(.}.p.y.a.d.z.n.L.#X7XuXuX7X#XH.m.s.>.<.2.~.:XpXgXgXuX9X5X#XU.J.v.5.} G F | 4.c.n.v.l.a.6.6.6.4.@.b y $             ",
"    * q U 9.q.0.-.=.;.>.d.v.L.$X7XuXuX6X#XH.S.s.d.5.V.|.<XpXgXiX8X$X@XU.P.J.v.5.| F F | 4.c.n.l.4.<. . .&.| ' j 5 #             ",
"    # 3 h J K H G G { O.6.v.P.#X8XuXuX7X#XL.S.m.x.c.Z.XX6XuXpX9X;XI.H.G.K.D.c.4.| F F | 4.v.v.g.1.{ F F F F V g 2 #             ",
"    # 3 h J K H G ] { O.a.v.L.#X7XuXuX0X$XOXL.D.M.D.P.@X4X9X9X5X@XP.D.M.n.v.d.1.{ F F  .4.v.v.g.<.{ F F ] F V g 2 O             ",
"    * q U 9.q.0.-.=.;.>.d.n.L.#X7XuXaXuX6X$X@XOXJ.G.H.U.#X-X-X#XI.D.M.x.h.a.1. .] S F  .4.v.v.l.4.<. .|  . .` c 5 #             ",
"    = L ! ^.(.}.A.y.a.d.z.M.L.#X7XiXfXaXuX9X4X#XI.H.G.P.U.+X+XU.P.D.M.d.4.O.| ] S S F  .4.v.M.n.l.a.6.6.6.6.@.b t $             ",
"    = T T.[.<X=X.XZ.c.x.m.S.L.@X6XiXfXfXfXpX9X4X+XL.D.D.G.H.J.H.J.D.C.6.;.{ F Z Z Z F  .4.v.S.S.M.c.v.C.v.c.7.) u $             ",
"    ; T T.[.<X=X.XZ.c.x.x.S.H.#X6XiXgXhXaXuX9X4X+XH.G.D.J.H.H.Z.S.b.g.3.{ F Z C C Z F  .6.v.S.M.n.v.v.b.v.c.7.) u $             ",
"    = L ! ^.(.}.p.y.a.d.z.S.P.#X7XsXhXgXiX0X5X#XU.J.G.J.U.+XI.F.A.j.1. .] S C B C Z F &.6.b.C.n.c.a.6.a.g.4.@.b t $             ",
"    * q U 9.q.0.-.=.&.>.d.n.P.$X8XsXsXiX9X;X@XI.J.J.H.U.;X;X=X|.u.2.} ] S Z Z C C Z ] &.6.v.C.l.4.O. .&.&.| ' v 5 #             ",
"    # 3 h J K H G G { ;.a.v.H.#X7XiXiX0X$XI.H.D.D.D.H.@X5X2X2XoXi.*.S S S Z Z C C Z F &.6.c.v.j.<.[ F F F F V g 2 #             ",
"    # 3 k J K H H F { ;.a.v.H. X%X&X,X%XXXH.N.m.x.C.H.XX6XqX3X].e.K Z C C Z Z B N z V | 4.c.v.d.<.{ F F F F V g 2 O             ",
"    * q U ! q.0.-.=.;.,.h.S.C.A.Q.W.W.Q.A.S.M.x.d.6.V.|.<XpXrX].e.K Z C Z Z B z k f l ` +.h.v.c.4.<. . .&.| ' j 5 #             ",
"    = L ! ^./.}.p.y.j.z.n.M.C.t.#.W W #.$.C.S.k.,.;.2.~.<X3X3X*Xe.K Z C Z Z B k s 6 7 v @.h.M.n.l.g.6.6.j.4.@.b y $             ",
"    = T T.[.<X=X.XZ.b.n.N.M.h.X.m w i m o.h.z.a.O.{ *.!.&X3X3X*Xr.K Z Z Z Z z d 2 & 4 p X.f.S.S.S.b.b.n.v.c.7.) u $             ",
"    9 R R.:X9X5X@XZ.b.n.n.c.7.( i : $ i ( +.7.+.} S %.r.(.3X3X:Xr.K Z B N N k 6 & X : u X.f.M.G.S.b.b.n.C.b.7...a $             ",
"    > I E.%X-X;XF.V.j.j.j.5.@.b 4 O . : p M ..` S Z H r.*X3X3X:Xr.K Z z k f 8 < X . $ p X.l.S.S.b.g.j.j.k.6.@.n y $             ",
"    ; m #. XOXI.V.2.;.&.;. .[ j 2 O . O : i a j v C %.r.:X3X3X:Xi.*.C k d 5 < @     $ p X.h.N.b.j.1.&.;.;.&.[ v 5 #             ",
"    $ p o.A.Z.V.2.{ F F F S V f 2 O     . : : 5 f N H r.*X3X3X*Xr.K N d 2 % X     . : p X.f.c.k.2.{ F F F F V g 5 O             ",
"    + i ( +.+.+.[ V z N N z k 8 : X         X < 6 k J e.(.rX3X].e.J g 6 , X         $ u ( +.$.+.[ V N N N z k 8 < X             ",
"    O 4 p n ..n c g d s s s 8 2 % .           # , 8 U w.'.3X3X'.w.U 8 < # .         O 4 p ( _ M v g s s s s 8 < % .             ",
"    . $ 4 i u t 5 1 < < < < , % X             . @ < L ! `.,X,X`.! h < # .           . : 4 i u y 5 2 < < < < < % X .             ",
"      . O $ $ + # O @ X # @ X . .                 X 3 Q `.,XeX_.E 0 X                 X o $ $ = # X X @ @ X X .                 ",
"                                                    9 E _.>X>X_.E 9                       .                                     ",
"                                                    ; R ).>X>X_.R ;                                                             ",
"                                                    ; E _.wX>X_.E ;                                                             ",
"                                                    9 E ).>X>X_.E 9                                                             ",
"                                                    9 E _.eXwX_.E 9                                                             ",
"                                                    9 E _.eXeX_.E 9                                                             ",
"                                                    9 E _.eXeX_.E 9                                                             ",
"                                                    9 E _.wXwX_.E 9                                                             ",
"                                                    - T R.`.`.T.R ;                                                             ",
"                                                    - r W / / E r *                                                             ",
"                                                    o 9 r P P r ; o                                                             ",
"                                                      o * ; ; * o .                                                             ",
"                                                                                                                                ",
"                                                                                                                                "
};
