/* XPM */
static const char *sprite_1_14[] = {
/* columns rows colors chars-per-pixel */
"16 16 4 1 ",
"  c #000001",
". c #00424A",
"X c gray68",
"o c white",
/* pixels */
"                ",
"Xo.o.o.o.o.o    ",
".X.X.X.X.X.X    ",
".oXXXXXXXXoX    ",
" oooooooooo     ",
" oXXXXXXooX     ",
" XXooooXXXX.    ",
" XXoXXX.Xooooooo",
" XXX....XX..    ",
" .XXXXXX...     ",
" ..........     ",
"X...........    ",
".X.X.X.X.X.X    ",
".X.X.X.X.X.X    ",
"                ",
"                "
};
