/* XPM */
static const char *sprite_1_13[] = {
/* columns rows colors chars-per-pixel */
"16 16 4 1 ",
"  c #000001",
". c #00424A",
"X c gray68",
"o c white",
/* pixels */
" oXX       oXX  ",
" ..oooooooo...  ",
" oXXooXXXX..XX  ",
" ..XoXooXX....  ",
" oXXoXoX.X..XX  ",
" ..XoXoX.X....  ",
" oXXoXoX.X..XX  ",
" ..XoXX..X....  ",
" oXXooXXXX..XX  ",
" ..XooXoX.....  ",
" oXoo..o....XX  ",
" X..  .o.  X..  ",
"       o        ",
"       o        ",
"       o        ",
"       o        "
};
