/* XPM */
static char *sprite_4_4_resized[] = {
/* columns rows colors chars-per-pixel */
"64 64 237 2 ",
"   c #000001",
".  c #090704",
"X  c #0C0A02",
"o  c #0C0C0A",
"O  c #130E02",
"+  c #170D01",
"@  c #0E1104",
"#  c #121103",
"$  c #1C1305",
"%  c #1D1C02",
"&  c #14140B",
"*  c #191A0E",
"=  c #161813",
"-  c #1C1C13",
";  c #201606",
":  c #241908",
">  c #201D12",
",  c #1F2017",
"<  c #222301",
"1  c #2C2205",
"2  c #2D2A02",
"3  c #2C2C09",
"4  c #372E05",
"5  c #382B06",
"6  c #362408",
"7  c #373700",
"8  c #202016",
"9  c #2A2B1A",
"0  c #363614",
"q  c #3B3117",
"w  c #2C2F22",
"e  c #353625",
"r  c #393925",
"t  c #422C0A",
"y  c #453605",
"u  c #453209",
"i  c #4C340B",
"p  c #523306",
"a  c #52360B",
"s  c #55390D",
"d  c #5A3C0D",
"f  c #553D13",
"g  c #454400",
"h  c #4E4903",
"j  c #4D4E0E",
"k  c #555102",
"l  c #5D5D00",
"z  c #64470C",
"x  c #604F08",
"c  c #655407",
"v  c #76580E",
"b  c #795A0E",
"n  c #654A19",
"m  c #7D5412",
"M  c #5D6000",
"N  c #646400",
"B  c #6C6404",
"V  c #666900",
"C  c #6B6B00",
"Z  c #746E02",
"A  c #786408",
"S  c #6F730B",
"D  c #7D7305",
"F  c #7E7A0D",
"G  c #6C6C13",
"H  c #7C7C14",
"J  c #424424",
"K  c #46472E",
"L  c #574B28",
"P  c #5D5E22",
"I  c #5B502C",
"U  c #464830",
"Y  c #4B4C31",
"T  c #524F32",
"R  c #545336",
"E  c #5B5B3C",
"W  c #6F5521",
"Q  c #695F35",
"!  c #5F6022",
"~  c #65633A",
"^  c #74753D",
"/  c #5C5E40",
"(  c #707049",
")  c #7C7D52",
"_  c #825714",
"`  c #875E12",
"'  c #86670A",
"]  c #836C0A",
"[  c #847405",
"{  c #8B7609",
"}  c #8C7809",
"|  c #947806",
" . c #957B0B",
".. c #997E0C",
"X. c #916111",
"o. c #946315",
"O. c #9B6917",
"+. c #A47F0C",
"@. c #AA7517",
"#. c #A27812",
"$. c #946A21",
"%. c #8A7033",
"&. c #957733",
"*. c #A97C28",
"=. c #8F7E41",
"-. c #7C821D",
";. c #7E8054",
":. c #9B800C",
">. c #8B8117",
",. c #9A8212",
"<. c #998A1B",
"1. c #A3810E",
"2. c #AA850F",
"3. c #B5850E",
"4. c #BB870E",
"5. c #A78512",
"6. c #AC8511",
"7. c #B58611",
"8. c #B78914",
"9. c #BB8A15",
"0. c #BB8B15",
"q. c #B88119",
"w. c #BF9018",
"e. c #8B8B26",
"r. c #83832D",
"t. c #9B9327",
"y. c #96932F",
"u. c #99962F",
"i. c #8A8B34",
"p. c #959839",
"a. c #9C9D3A",
"s. c #AB902D",
"d. c #BC9220",
"f. c #B99A2A",
"g. c #A1A13A",
"h. c #BEA032",
"j. c #C18D15",
"k. c #CB8D14",
"l. c #CF8D14",
"z. c #C7861D",
"x. c #C68A19",
"c. c #CC8A1D",
"v. c #C59116",
"b. c #CC9117",
"n. c #CD921A",
"m. c #D69216",
"M. c #DC9317",
"N. c #D5951C",
"B. c #D9961D",
"V. c #D7991A",
"C. c #DC991E",
"Z. c #E1961A",
"A. c #E29A1E",
"S. c #EA9B1E",
"D. c #EDA11F",
"F. c #C69527",
"G. c #D89826",
"H. c #D69E2A",
"J. c #CA9A38",
"K. c #E59C21",
"L. c #EA9D22",
"P. c #D2A634",
"I. c #E9A026",
"U. c #E6A42E",
"Y. c #EAA32B",
"T. c #E7A631",
"R. c #EBA832",
"E. c #EDAC37",
"W. c #E7AE3D",
"Q. c #EAAD3A",
"!. c #968A4F",
"~. c #848553",
"^. c #8B8B5A",
"/. c #9B9458",
"(. c #B49747",
"). c #9FA243",
"_. c #AFA643",
"`. c #A1A152",
"'. c #ABAD50",
"]. c #BAB455",
"[. c #BCBB5F",
"{. c #9B9B64",
"}. c #A8A86A",
"|. c #B5B666",
" X c #BCBE63",
".X c #B8B76D",
"XX c #B6B472",
"oX c #CBA745",
"OX c #C0AF47",
"+X c #D8AB46",
"@X c #C8B148",
"#X c #DAB243",
"$X c #DEB54B",
"%X c #C7B75C",
"&X c #D8BB5C",
"*X c #E1AF40",
"=X c #E6B345",
"-X c #E7B649",
";X c #EABA4E",
":X c #EABD53",
">X c #CEB963",
",X c #D5BC61",
"<X c #C6BD71",
"1X c #BFC062",
"2X c #DCC45F",
"3X c #E7C25B",
"4X c #E8C259",
"5X c #C4C266",
"6X c #C6C67F",
"7X c #CBC67A",
"8X c #D5CA70",
"9X c #D4CB71",
"0X c #D9CE73",
"qX c #D5D57F",
"wX c #E7C560",
"eX c #E9C863",
"rX c #E7CD6C",
"tX c #E9CE6D",
"yX c #ECD16F",
"uX c #E7D376",
"iX c #EAD272",
"pX c #EEDD7F",
"aX c #CBCB82",
"sX c #CACF8A",
"dX c #D8D886",
"fX c #DBDF93",
"gX c #E6DC84",
"hX c #E9DE84",
"jX c #E3DF88",
"kX c #DCE08D",
"lX c #E7E28C",
"zX c #EDE58C",
"xX c #F0E98F",
"cX c #E5E592",
"vX c #EBE994",
"bX c #EAE996",
"nX c #EEF3A0",
/* pixels */
"                                                    + p o.z.z.X.p +                                                             ",
"                                                    ; d O.z.z.o.d ; .                                                           ",
"    . o & - > > : ; ; ; ; ; $ O X             . o - q W *.F.J.*.W q > o .           . o & - - - : ; ; ; ; ; $ O X               ",
"    o - e Y T I L f a s a a u 6 $ X         . = w K Q =.(.oX+X(.&.Q U w = .         o - e U R L L f s s d a i 6 $ X             ",
"    & e E ;.!.!.&.$.o.o.o.X.m d 6 O         O w R ) /.|.>X,X,X>X|.{.) R w o         & e E ;.!.!.&.o.o.o.o.o._ d 6 O             ",
"    - U ) }.<X%XoXF.z.c.c.z.@.m u $         - U ;.}.7XgXjXgXgXgXdXaX}.) U -         - U ;.}.<X>XoXF.x.c.c.z.@._ i $             ",
"    - Y ~..X9X2X+XG.B.A.S.K.z.X.a $ .   . - r ( {.sXcXnXbXbXcXvXzXgX7X/.Q q $       - R ^.5XuXeX=XH.G.m.M.N.q.` i $             ",
"    * J ( '.].@XJ.v.v.V.A.L.c.o.a & . o 9 U / {.XXfXnXnXnXbXbXvXzXiX:X(.&.n i : X X - L !.>X3X4XP.F.w.v.v.0.#.b u $             ",
"    & 0 ! r.u.t.<.<.2.w.V.A.c.X.p + o 8 R ) {.XXsXcXbXnXnXbXcXhXyX4X-XJ.d.$._ p : + * f &.oX$XP.F.5.:.:.:...] x 4 #             ",
"    # 3 j G H F F D } 2.v.V.x.o.a $ - K ) }.aXfXcXcXbXbXbXcXhXuX:XQ.T.L.G.c.@.m t + > f o.F.H.F.5.} D D [ D A h 2 #             ",
"    # 3 j G H F F D } 2.k.B.c.O.n q r / {.sXcXbXzXlXgXgXlXgXuXwX-XT.L.L.D.L.c.o.d 1 : d O.c.B.v.6.>.D D D D B h 2 O             ",
"    & 0 P r.t.t.<.,.:.0.n.B.G.*.%.~ ( ^.XXfXbXzXpXuXrXrXrXrX3X;XQ.L.S.S.D.L.N.#.c y i z O.c.B.m.0.1. .:.:. .] k 4 #             ",
"    * J ^ `.].].h.d.j.b.M.G.G.J.(.!.{.XXsXfXxXhXeX4X-X-X-X-X-XQ.U.L.S.S.D.L.N.@.A x x A @.c.A.B.b.v.0.w.w.8.#.v u $             ",
"    - Y ~..X9X2X#XH.B.M.Z.K.Y.+X&X7XaXdXfXcXhXiX4XQ.T.U.U.U.U.Y.L.K.K.L.L.L.M.@.{ A B { 7.N.A.K.A.V.V.V.C.N.q.` i $             ",
"    - Y ~..X9X2X#XH.B.M.M.K.U.-XrXhXcXbXcXhXuXwX-XU.L.K.S.K.K.L.L.L.K.L.L.S.B.8. .D D  .8.N.K.K.G.B.N.V.C.N.q.` a $             ",
"    * J ^ `.].OXh.d.j.k.m.K.R.;XyXzXvXzXhXiXwX-XE.I.S.S.S.S.S.S.K.K.S.L.L.L.B.8. .D D :.8.N.C.C.m.v.9.9.w.8.#.v y $             ",
"    & 0 P r.y.t.<...,.7.k.G.T.:XyXzXzXhXrX:X=XQ.U.I.S.S.S.S.S.S.S.A.S.L.L.K.N.8. .D [ ..0.N.C.c.8.1.....:. .] x 5 #             ",
"    # 3 j G H F F D { +.j.M.T.;XtXhXhXiX3X=XT.L.K.L.L.S.K.L.K.L.L.L.L.L.L.L.N.8. .D D  .8.N.B.v.5.} D D D D B h 2 #             ",
"    # 3 j G H F F D { +.j.B.T.;XtXhXgXrX;XT.K.A.C.B.N.N.N.B.B.G.K.T.U.Y.I.L.N.8. .D D ..9.N.B.v.2.} D D [ D B h 2 O             ",
"    & 0 P r.y.t.<.,.+.7.k.B.T.;XtXhXhXrX-XU.A.m.k.9.8.7.3.7.w.F.P.#X-XQ.R.Y.N.7. .D D  .0.N.C.n.8.1. .:.:...' k 4 #             ",
"    * J ^ `.].].h.d.j.k.m.C.T.;XtXhXgXtX;XU.B.k.3.1. .| |  .,.f.@X&XwX:XE.Y.B.9.| D D  .8.N.A.B.n.j.9.j.v.8.#.v u $             ",
"    - Y ~..X8X2X#XH.B.M.Z.K.T.:XtXgXgXtX;XT.B.j.1.{ D Z Z D >.g.%X0XuXeX;XT.B.7. .D D  .9.N.A.K.G.B.N.V.C.N.q.` i $             ",
"    - Y ~..X8X2X#XH.N.M.Z.K.T.;XtXgXgXyX:XT.N.4. .D S C S H e.).5XdXhXyX:XT.N.7.{ D D  .8.N.K.K.A.B.N.C.C.N.q.` a $             ",
"    - J ^ `.@X_.h.d.j.k.m.A.T.;XtXgXgXrX;XT.N.3.| Z C S -.e.).[.6XcXzXiX:XT.N.7.| D D  .9.N.G.B.n.j.9.j.w.8.#.v u $             ",
"    & 0 P r.y.t.<.,.:.7.k.B.U.;XtXgXgXyX;XR.N.4.| Z S -.p.'. X7XkXcXlXyX;XT.N.3. .D D  .q.N.B.m.8.1.:.:.:.| ' x 4 #             ",
"    # 3 j G F F F D { 1.j.B.T.;XtXgXgXyX;XT.B.@.| D F y.'.5XdXcXcXcXgXyX;XR.N.4.| D D  .8.N.G.v.1.} D D D D A h 2 @             ",
"    # 3 j G H [ F D } +.9.B.T.;XtXgXgXyX;XT.N.4...{ >.a. XdXvXbXcXgXuXeX-XU.B.8.| D D  .8.N.G.j.5.} D D D D B h 2 #             ",
"    & 0 P r.y.t.<.,.1.3.k.G.T.;XyXgXgXtX;XU.M.k.3.5.5._.5XjXvXzXlXyX3X;XE.Y.N.8. .D D  .9.N.B.m.8.1. .,.:. .] k 4 #             ",
"    * J ^ `.].].h.d.j.k.m.K.T.;XtXgXgXtX;XL.Z.m.k.9.F.@X9XjXcXhXtX:X-XQ.R.I.G.9. .D D  .8.N.A.B.n.j.9.j.w.8.#.v u $             ",
"    - Y ~..X9X2X#XH.B.M.M.K.T.;XtXgXgXtX:XT.K.B.m.M.H.$XrXgXjXuX:X=XT.L.D.L.N.9. .D D  .8.N.K.K.C.B.N.C.C.N.q.` i $             ",
"    - Y ~..X9X2X#XH.N.M.Z.K.T.-XrXgXgXiX:X*XT.K.L.L.T.-XwXuXuXeX;XT.L.A.A.B.k.5.} D D  .8.N.K.K.G.B.N.C.C.N.q.` a $             ",
"    * J ^ `.].OXh.d.9.k.m.K.T.;XtXgXjXgXuX:X-XW.U.I.Y.Q.;XwX3X;XQ.L.K.m.k.j.6...[ Z D ..8.N.A.V.N.v.9.9.w.8.#.v y $             ",
"    & 0 P r.y.t.<.:.1.3.l.B.U.;XrXhXlXlXgXuXeX;XW.Y.I.Y.Q.W.W.E.R.L.Z.k.8.1. .[ D Z D ..0.N.C.n.8.2. ...:. .] k 5 &             ",
"    # 3 j G F -.F D { +.j.G.U.;XrXgXcXbXcXjXuXwX=XU.I.I.U.T.T.Y.U.L.G.j.+.{ D C C C D  .9.N.B.j.5.{ D D D D B h 4 O             ",
"    @ 3 j G H [ F D | 1.j.N.T.;XtXhXcXbXlXgXuXwX=XU.I.K.I.T.R.U.K.G.n.6.} D C V V C D ..9.B.B.v.2.} D D D D A h 2 O             ",
"    & 0 P r.y.<.<.,.1.@.l.B.R.;XtXzXvXzXgXuXeX;XQ.Y.I.R.Q.W.W.P.F.v.6...[ Z V N V C D :.j.B.G.n.8.1.....:. .' k 4 O             ",
"    * J ^ `.].].h.d.9.k.m.K.U.;XyXzXxXhXuX:X-XW.R.I.Y.Q.4X4X2X@Xh.<.| [ D C C V V C D :.9.N.A.C.n.j.8.9.v.8.#.v u $             ",
"    - Y ~..X9X2X#XH.B.m.Z.K.U.;XtXhXgXiX:XW.T.L.A.I.U.;XeXuX8X].a.} D Z C C C V V C D :.8.N.K.A.K.N.N.C.C.N.q.` i $             ",
"    - Y ~..X8X2X#XH.B.M.Z.K.U.+X&X<X7X&X$XU.K.Z.M.C.H.-XrXpXqX Xa.H C V V C C N l l B  .8.N.K.K.C.B.N.C.C.N.q.` a $             ",
"    * J ^ ).].].J.d.j.b.M.K.G.J.(././.(.J.K.A.M.k.v.F.@X8XdXdX Xp.H C N C C N l k h k ' @.c.C.C.n.j.9.w.v.8.#.v y $             ",
"    & 0 P r.y.t.<.,.1.8.b.C.F.s.%.Q Q %.*.K.K.m.3.2.5._.8XdXdX Xp.H C V C C V k 7 7 7 c O.c.C.N.0.1.:.:... .] k 4 #             ",
"    # 3 j G H F F D } 2.v.V.c.O.n q t n O.c.N.j.+.{ >.).>XqXqX1Xa.H C V C V M g 2 % 1 z O.c.V.b.5.} D D D D A h 2 @             ",
"    # 3 j G H F F D } 2.b.B.z.o.i : ; t m @.@.7.| D H a. XqXqX1X).H C N N M k 7 % X $ f o.x.B.b.2.} D D D D A h 2 #             ",
"    & 0 ! r.u.t.<.,.2.v.V.A.c.o.i + X : a m X.' Z C H a. XqXqX1Xa.} V l k g 7 < X . $ f O.c.G.V.w.5.:.:.:.:.] c 4 #             ",
"    = K ^ '.].@XJ.d.v.V.A.L.c.o.p $   O : i d x l B H a.5XqXqX1Xa.-.N k g 2 < @   . $ d o.c.K.K.V.v.w.v.v.9.#.b y $             ",
"    - Y ~..X9X2X#XG.C.C.S.K.z.o.a $ .   X $ : 4 h l H a.1XqXqX Xa.H l g 2 % X       $ a o.z.K.L.A.V.N.C.B.N.q.` i $             ",
"    = U ) }.5X>X+XF.z.l.c.z.@._ u $         X < 7 k G p. XqXdX Xp.G k 7 < @         $ i _ @.z.c.c.c.x.c.c.z.@._ i $             ",
"    = e / =./.!.&.$.o.o.O.o._ d 6 O           @ < 7 P r.|.qXaX|.i.P 7 < @           O 6 d _ o.O.O.o.o.O.O.O._ d 6 O             ",
"    o , e Y R I L d d d s s i 6 ; .           . @ < J ^ }.7X7X'.^ j < # X           . $ 6 t f f d d d d d d i 6 ; .             ",
"    . o & - > > : ; ; ; ; $ $ O X                 X 3 Q {.6X6X}.~ 9 X                 o + $ ; > $ ; ; $ ; ; $ O O               ",
"                                                    8 E {.6X6X{.R 8                                                             ",
"                                                    , R {.6X6X{.E -                                                             ",
"                                                    - E {.aXaX{.E -                                                             ",
"                                                    8 E {.6X6X{.E -                                                             ",
"                                                    8 E {.aX6X{.E 8                                                             ",
"                                                    8 E {.aXaX{.E 8                                                             ",
"                                                    - Q {.aXsX{.E 8                                                             ",
"                                                    - E {.aXaX{.E 8                                                             ",
"                                                    - Y ~.}.}.~.T -                                                             ",
"                                                    = r / ) ) Q r &                                                             ",
"                                                    o > e K K e - o                                                             ",
"                                                    . o & - - & o .                                                             ",
"                                                                                                                                ",
"                                                                                                                                "
};
