/* XPM */
static char *sprite_1_15_resized[] = {
/* columns rows colors chars-per-pixel */
"64 64 205 2 ",
"   c #000001",
".  c #000709",
"X  c #020A0C",
"o  c #090A0B",
"O  c #100E0E",
"+  c #000E12",
"@  c #090E10",
"#  c #001215",
"$  c #0E1214",
"%  c #001519",
"&  c #02191D",
"*  c #141516",
"=  c #171718",
"-  c #161A1B",
";  c #1A191A",
":  c #001D22",
">  c #091E21",
",  c #161E20",
"<  c #1E1F20",
"1  c #002126",
"2  c #0D2124",
"3  c #00252B",
"4  c #00292E",
"5  c #162629",
"6  c #172729",
"7  c #002C32",
"8  c #092F33",
"9  c #1B2E31",
"0  c #0A3035",
"q  c #01333A",
"w  c #0D3439",
"e  c #00383F",
"r  c #103438",
"t  c #173A3F",
"y  c #232324",
"u  c #242A2B",
"i  c #2C292A",
"p  c #223032",
"a  c #293233",
"s  c #22373A",
"d  c #363637",
"f  c #363A3B",
"g  c #3D3C3D",
"h  c #003D45",
"j  c #003F48",
"k  c #233E42",
"l  c #3F3F40",
"z  c #01424A",
"x  c #09474E",
"c  c #09484F",
"v  c #16464C",
"b  c #1A454A",
"n  c #0D4A52",
"m  c #134E55",
"M  c #175057",
"N  c #1A5057",
"B  c #165259",
"V  c #1A535A",
"C  c #1C585F",
"Z  c #274246",
"A  c #28464A",
"S  c #3B4345",
"D  c #38494C",
"F  c #254E53",
"G  c #205056",
"H  c #23555B",
"J  c #295459",
"K  c #24585F",
"L  c #395357",
"P  c #395457",
"I  c #355A5F",
"U  c #1E5A61",
"Y  c #245B61",
"T  c #2B5D63",
"R  c #3B5F64",
"E  c #326066",
"W  c #366469",
"Q  c #3A656A",
"!  c #37686E",
"~  c #3E686D",
"^  c #434243",
"/  c #4A4849",
"(  c #514F4F",
")  c #4F5253",
"_  c #465558",
"`  c #475658",
"'  c #545657",
"]  c #5A5A5B",
"[  c #5F5F60",
"{  c #456468",
"}  c #406A6F",
"|  c #5E6465",
" . c #446D72",
".. c #4A6F74",
"X. c #447176",
"o. c #4D7276",
"O. c #477479",
"+. c #4B7579",
"@. c #5E7376",
"#. c #53757A",
"$. c #55797D",
"%. c #5B7A7E",
"&. c #646364",
"*. c #63696A",
"=. c #6C6C6C",
"-. c #617476",
";. c #677678",
":. c #647A7D",
">. c #747373",
",. c #7F7E7E",
"<. c #4E7B81",
"1. c #517E83",
"2. c #5D7D80",
"3. c #627E81",
"4. c #568086",
"5. c #5C858A",
"6. c #5D868B",
"7. c #5F8C92",
"8. c #668184",
"9. c #6A8386",
"0. c #6E8689",
"q. c #65888C",
"w. c #6E888C",
"e. c #70878A",
"r. c #758A8D",
"t. c #788C8F",
"y. c #658C91",
"u. c #768E91",
"i. c #7C8F91",
"p. c #6F9398",
"a. c #7B9194",
"s. c #7B989B",
"d. c #828283",
"f. c #80888A",
"g. c #8C8B8B",
"h. c #898F90",
"j. c #819294",
"k. c #899496",
"l. c #839A9C",
"z. c #8C9B9D",
"x. c #939495",
"c. c #979797",
"v. c #949D9E",
"b. c #9B9D9D",
"n. c #859EA1",
"m. c #889EA1",
"M. c #969FA0",
"N. c #9F9FA0",
"B. c #8DA2A4",
"V. c #8EA6A9",
"C. c #8EA9AC",
"Z. c #96A0A1",
"A. c #9CA3A4",
"S. c #95A8AA",
"D. c #9EA8AA",
"F. c #95AEB1",
"G. c #9AB3B6",
"H. c #9CB3B6",
"J. c #A3A5A5",
"K. c #A8A7A7",
"L. c #A4AAAA",
"P. c #ACACAC",
"I. c #B0AFAF",
"U. c #B1B0AF",
"Y. c #A6B3B4",
"T. c #ACB4B5",
"R. c #A7B7B9",
"E. c #A4B9BB",
"W. c #AAB9BB",
"Q. c #B4B4B4",
"!. c #B9B6B6",
"~. c #BAB8B7",
"^. c #B4BCBD",
"/. c #B9B9B9",
"(. c #C0BFBF",
"). c #A8BEC1",
"_. c #B6BFC0",
"`. c #AAC1C4",
"'. c #BCC3C4",
"]. c #BBC9CB",
"[. c #C4C4C4",
"{. c #C4C7C7",
"}. c #CCCBCB",
"|. c #D1CECE",
" X c #D1D0CF",
".X c #C7D1D3",
"XX c #CAD2D3",
"oX c #CFD9DA",
"OX c #D3D2D2",
"+X c #D9D6D6",
"@X c #D4D7D8",
"#X c #D3DBDC",
"$X c #DBDBDB",
"%X c #E0DEDD",
"&X c #E2E0DF",
"*X c #DCE3E4",
"=X c #DEE7E8",
"-X c #E3E3E3",
";X c #E8E6E6",
":X c #E6EAEA",
">X c #EAEAEA",
",X c #EFF1F1",
"<X c #F4F4F4",
"1X c #F8F6F6",
"2X c #FDFDFD",
/* pixels */
"                                                                                                                                ",
"                                                                                                                                ",
"y y 5 = $ X X $ - 5 < - $ @ X $ ; 5 5 - $ X @ $ - y 5 ; $ @ X $ - 5 < - $ X X $ - ; < y ; ; * * o                               ",
"&.] ( S p 2 2 p S ) ( ^ 9 2 2 p S ) ( S p 2 2 9 S ( ( S p 2 2 9 S ) ( ^ p 2 2 p S ( ] ' ( / f y = o                             ",
"K.N.h.;.L t t P ;.h.h.;.P t t P ;.h.h.;.P t t P ;.h.h.;.P t k L ;.j.h.;.P k t J ;.g.b.c.g.>.&.^ y *                             ",
";X$X'.m.o.N N o.B.'.'.B.+.G G #.B.'.'.B.#.G G o.B.'.'.B.o.G G +.B.'.'.B.+.G G ..n.'.XX}.~.N.,.] d *                             ",
"2X<X@XF.1.K Y 4.G.oX@XG.4.Y Y 4.G.oX@XH.4.Y Y 4.H.oXoXH.4.Y Y 4.H.@XoXH.4.Y K 1.G.oX-X$X[.L.f.| d *                             ",
"<X;XXXC.1.C C <.F..X.XF.<.U U 1.F..X.XF.<.U C 1.F..X.XF.1.U U <.F..X.XF.4.U U +.C..X$XXXR.l.:._ a $                             ",
"$XOX^.s.X.B B O.n.^.^.n.O.C B O.n.^.^.B.O.B C O.n.^.^.n.O.V V O.n.^._.n.O.C V O.s.^.'.Y.s.2.E Z 5 @                             ",
"[./.D.r. .C V  .u.D.L.u. .V C  .u.D.D.u.X.V V  .a.D.D.u. .C V  .u.D.D.u. .V V  .a.D.L.l.2.E v 0 & X                             ",
"Q.P.Z.a.$.Q ! $.a.Z.Z.t.o.T T o.t.Z.Z.t.o.T T o.t.Z.Z.t.o.T T o.t.Z.Z.t.o.T T +.a.L.D.a.O.V h 4 % X                             ",
"U.I.L.M.s.y.y.a.m.J.b.j.:.o.o.3.j.Z.b.a.3.o.o.3.j.v.b.j.8.o.o.3.j.b.v.j.3.o.$.r.S./.R.l.O.M e 1 # X                             ",
"U.Q.T.T.R.E.E.R.Y.L.A.z.a.r.r.f.c.A.A.c.j.r.r.j.v.A.A.c.j.r.r.j.v.A.A.c.i.e.a.D.'.OX].F.4.U e 3 % X                             ",
"K.P.Q.[.XX#X#XXX[.Q.P.J.A.Z.Z.J.L.P.P.L.J.Z.Z.A.K.P.P.L.A.Z.b.A.K.P.P.L.A.Z.L.'.+X:X#XH.5.U h 1 # X                             ",
"x.c.J./.+X<X<X;XOX[./.!.!.!././././././.!.!.~././././.!././././.!././.!.!./.[.+X>X<X*XE.6.H q : + .                             ",
"&.=.d.J.}.<X2X1X-X+XOX}.}. XOX X|. X}.}. X X XXX|.|.}.}. X X X X}.}.{.}.}.|.+X;X2X2X-XE.2.A 3 % X .                             ",
"d l ] g./.;X2X2X<X>X-X-X-X;X;X-X-X-X-X-X;X;X;X-X-X-X-X-X;X;X;X-X-X-X-X-X-X-X>X1X2X2X-XL.-.s % .                                 ",
"o ; f =.K.%X2X2X2X1X<X<X<X<X<X<X<X<X<X<X<X<X<X<X<X<X<X<X<X<X<X<X<X<X<X<X<X<X1X2X2X2X*XK.| u X                                   ",
"    y ] J.$X2X2X2X1X<X<X<X<X<X<X<X<X<X<X<X<X<X<X<X<X<X<X<X<X<X1X1X2X2X2X2X2X2X2X2X<XOXb.] <                                     ",
"    ; ] b.$X2X2X1X;X-X-X-X-X-X*X-X-X-X%X&X-X-X-X-X-X-X-X-X-X;X,X1X2X2X2X2X2X2X2X1X-X[.g.( ;                                     ",
"    y ] N.$X2X1X:X+X}.{.}.}.{.}.}.}.{.}.{.{.}.}.}.{.}.{.{.}.OX-X<X2X2X2X2X2X2X<X;X@XP.,./ =                                     ",
"    y ] N.$X<X>X+X[./.!././././././././././././././././././.[.OX-X<X2X2X2X2X1X:X+X[.A.>.^ =                                     ",
"    y ' c.OX;X-X}./.I.T.Q.Q././././././././././././.!.!.Q.I.~.{.$X:X<X1X1X<X>X$X}.!.x.=.S , X                                   ",
"    y ( g.'.$X+X[.Q.P.Q./.[.{.}.}.}.}.}.{.}.}.}.}.}.[./.Q.Q.Q.(.OX+X-X-X-X-X+X}.[.P.x.;.D 5 #                                   ",
"    ; / ,.P.[.[./.T.U./.}.$X$X-X-X-X&X-X&X-X-X-X-X-X+X|.[.!.Q./.[.[.{.}.}.{.{.[./.P.x.;.P w : +                                 ",
"    ; ^ >.b.!./.!.I.~.{.$X;X<X<X<X<X<X<X<X<X<X<X<X<X;X+X{./.P.P.Q.!././././.!.!.!.P.M.9.{ m q 1 % X                   .         ",
"    - g =.x.P.Q.Q.P./.}.-X<X2X2X2X<X<X<X<X<X<X1X1X<X:X@X/.L.Z.b.A.P.P.Q.!.~././.(.~.L.l.4.Q H b t u y y y y y y y y y y y y y y ",
"    ; g =.x.K.U.P.I./.}.;X1X2X2X<X>X;X-X;X;X;X>X>X-X$X'.S.j.t.j.c.D.P./.(.{.}.OXOXXX{.W.C.s.y.2.-.*.&.&.&.&.&.&.&.&.&.&.*.&.&.&.",
"    = g =.x.K.P.P.P./. X;X1X2X<X;X+XOX|. XOXOX+X+XOX'.D.u.#.o.3.j.Z.I.(.|.$X-X;X:X:X=X#X].].).R.T.P.P.P.P.P.P.P.P.P.P.P.P.P.P.P.",
"    ; g =.x.P.Q.I.U./.}.-X<X<X;XOX[./.Q.!.!./././.!.L.u.+.T T  .0.b.!.}.$X>X<X1X<X<X,X,X:X-X*X*X$X$X$X+X$X$X+X$X+X$X$X$X$X$X$X+X",
"    ; g =.x.P.U.I.P./.{.$X>X:X@X'.L.Z.v.v.v.v.A.A.v.j.%.E m M Q 8.b.Q.|.%X>X<X>X:X=X*X*X=X=X*X*X*X$X$X$X+X$X$X$X$X$X+X$X$X+X$X$X",
"    ; g =.c.I.Q.Q.P.Q.[.OX$XXX'.Z.u.8.3.2.8.8.8.9.8.$.Q M x n W 8.Z.!.|.+X-X*X@X].`.).).`.`.).W.T.P.P.P.P.P.P.L.P.P.P.P.P.P.P.P.",
"    = l =.c.I.!.I.I.I.(.[.{.^.S.w.o.W R R Q Q Q Q Q T N x j m W 9.Z.!.[.|.|.[.T.V.p.7.7.7.y.q.3.;.*.&.&.&.&.&.&.&.&.&.&.&.&.*.&.",
"    = g =.x.P.Q.I.I.I.Q.~.!.L.j.$.T M m m m N N N B m n z x m ~ 9.Z.P.~.(.Q.L.l.2.! Y U U U H A s u y y y y y y y y y y y y y y ",
"    = d | f.M.L.P.P.I.I.Q.I.M.u.+.T B m m M B B N M N m m B T  .9.k.Z.A.J.v.j.3.Q m z h h h q 3 % X                             ",
"    @ u _ -.r.z.A.K.I.Q.I.I.A.k.8.o.~ Q ~ ! ~ ~ ~ ~ } } } } ..#.3.8.0.e.e.9.%.} H z h q 7 4 : # .                               ",
"    @ 5 k I o.9.z.L.I.Q.Q.I.K.M.k.u.e.e.0.e.0.e.0.e.e.r.r.r.0.3.$. .} ~ } ~ E K n z h 7 1 & # X                                 ",
"    X & 8 v T #.u.M.P.U.I.P.P.K.A.Z.v.v.v.v.v.v.v.v.v.M.Z.v.k.8.} T B m m m m m n z e 7 : + .                                   ",
"    . % 4 h B Q 3.j.b.A.A.M.M.M.v.v.v.v.v.v.v.v.v.v.M.Z.Z.v.j.2.Q m z h z z z z z z e 4 & X                                     ",
"      + : e c Y  .2.0.e.e.e.9.0.r.r.r.r.r.r.r.r.r.r.r.t.t.r.3...K x h h h h z z z z e 4 %                                       ",
"      # 3 q z M Y Q ~  . .~  .} }  . . . . . . . . . . . . .Q T N x h h h h z z z z h 3 %                                       ",
"    X & 4 h z n n m M B M N M M N N M N N m B N M N N N B N m n x z z z z j z z z z h 4 & X                                     ",
"y y y 9 r h z z z z z z z z z z z z z z z z z z j z z z z z z z z z z z z z z z z z h 0 5 - = O o                               ",
"&.[ ' P F x z j h h h h h h j h h h h h h h h h h h h h h h h z h j h z z z z z z h h b Z S d i ; o                             ",
"P.J.c.9.} B z h h h h h j h j h h h h h h j j h h h h h h h z h j h j z z j z h h h x J { *.&./ i O                             ",
";X$X].V.1.H z h h z z z z z z z z z z z z z z z z z z z z z z z z z z z z z z z z z m Q :.f.d.&.g *                             ",
"2X,X#XH.5.Y x z c m m n x z z c n m m n x z z n n m m m c z z c n m m n x x z z x m T o.w.j.f.*.f *                             ",
"<X;XXXF.1.Y x n H W W T m n x m T W W T M x n m T W E Y M n x N T W W T m c x m K W  .2.9.w.:.` a *                             ",
"$X|./.m.+.H m Y  .%.2. .T n m Y  .3.2. .T n m K  .%.3. .Y m n Y X.2.:. .T n n K  .%.8.8.%.o.Q A 6 $                             ",
"(.~.L.u. .V M E 2.j.j.3.W m m W 2.j.j.3.W m M W 3.j.j.3.W M M W :.j.a.2.W M M W :.a.l.w.+.K b 0 > X                             ",
"!.I.Z.9.~ B M ~ 0.M.M.0.} V B } e.Z.v.w.~ B B } e.Z.v.0.~ M M ~ w.v.Z.w.~ M V ~ e.M.v.t. .B e 3 % .                             ",
"!.P.Z.w.} B B  .u.A.A.u. .V B  .u.A.A.t. .V V  .u.A.A.u. .V C  .a.A.A.u. .V V  .u.A.A.a.X.M h 3 % X                             ",
"!.I.Z.0.~ C C  .u.A.A.u. .V C  .u.A.D.u. .V C  .u.A.A.u. .C V  .t.A.A.u. .V V  .u.A.D.a.X.M e 3 % X                             ",
"Q.P.v.8.Q N N } w.v.M.0.~ N M ~ e.v.v.0.~ N M ~ e.v.v.w.~ B N ~ w.v.v.w.} B V ~ w.v.v.r. .N e 3 % .                             ",
"b.x.f.@.I v v I -.f.f.-.I v v I -.f.f.-.T b v I -.f.f.-.I v v I -.f.f.-.I v v I :.f.f.;.Q b q 1 # .                             ",
">.=.&._ Z w 0 Z ` | | _ Z r r Z ` | | ` Z r w Z ` | | ` Z r r Z ` | | ` Z r w Z ` | | ` A 0 3 & + .                             ",
"^ l f a 5 > 2 6 a f f a 6 2 > 5 p f f a 5 > 2 5 a f f a 5 > 2 6 a f f a 6 2 > 5 p f f a 6 > % X X                               ",
"; = * $ @ X X o $ * * $ o X X @ * * * * o X X o * * * $ @ X X o $ * * $ o X X @ * * * * $ X . .   .                             ",
"                                                                                                                                ",
"                                                                                                                                ",
"                                                                                                                                ",
"                                                                                                                                ",
"                                                                                                                                ",
"                                                                                                                                "
};
