/* XPM */
static char *sprite_7_17_resized[] = {
/* columns rows colors chars-per-pixel */
"64 64 205 2 ",
"   c #000101",
".  c #090606",
"X  c #000709",
"o  c #01090B",
"O  c #0B0A0B",
"+  c #000E12",
"@  c #001215",
"#  c #0E1415",
"$  c #001518",
"%  c #00191D",
"&  c #141415",
"*  c #181616",
"=  c #171718",
"-  c #151C1E",
";  c #1C1C1D",
":  c #001E24",
">  c #091E21",
",  c #1A1F20",
"<  c #002026",
"1  c #0B2326",
"2  c #002329",
"3  c #0E2528",
"4  c #02292E",
"5  c #0F292C",
"6  c #1B2022",
"7  c #1B2A2C",
"8  c #002C33",
"9  c #082C31",
"0  c #132D30",
"q  c #1B2F32",
"w  c #003036",
"e  c #00343B",
"r  c #0C353A",
"t  c #00383F",
"y  c #1C3033",
"u  c #123438",
"i  c #232424",
"p  c #292323",
"a  c #222C2E",
"s  c #2C2D2D",
"d  c #2F2F30",
"f  c #243234",
"g  c #233B3F",
"h  c #343334",
"j  c #393737",
"k  c #35393A",
"l  c #3C3B3C",
"z  c #003740",
"x  c #003B43",
"c  c #003F48",
"v  c #173E43",
"b  c #3D3F40",
"n  c #004047",
"m  c #084047",
"M  c #01434B",
"N  c #09464E",
"B  c #1E4246",
"V  c #15464C",
"C  c #0D4A51",
"Z  c #144E55",
"A  c #1B4C52",
"S  c #165057",
"D  c #185057",
"F  c #17535A",
"G  c #1B555C",
"H  c #1E585F",
"J  c #26464B",
"K  c #3D4445",
"L  c #21545B",
"P  c #275459",
"I  c #375155",
"U  c #1C5960",
"Y  c #245C63",
"T  c #2C5E64",
"R  c #345D62",
"E  c #356369",
"W  c #3A666B",
"Q  c #3E696E",
"!  c #3F6C71",
"~  c #444344",
"^  c #484545",
"/  c #42484A",
"(  c #4B4B4B",
")  c #514F4F",
"_  c #4F4F50",
"`  c #47595C",
"'  c #535353",
"]  c #585657",
"[  c #5C5C5C",
"{  c #615F5F",
"}  c #5F5F60",
"|  c #426468",
" . c #5B6768",
".. c #446D72",
"X. c #526D70",
"o. c #487277",
"O. c #427379",
"+. c #4B797E",
"@. c #597477",
"#. c #52767A",
"$. c #5C7A7E",
"%. c #636363",
"&. c #606768",
"*. c #626B6C",
"=. c #6B6A6A",
"-. c #6F6F70",
";. c #62777A",
":. c #757374",
">. c #797777",
",. c #757778",
"<. c #7C7A7B",
"1. c #4D7B80",
"2. c #5A7E82",
"3. c #627E81",
"4. c #807F80",
"5. c #558186",
"6. c #598286",
"7. c #5D858A",
"8. c #5F898E",
"9. c #6A8487",
"0. c #69878B",
"q. c #6D8689",
"w. c #618A8E",
"e. c #76888A",
"r. c #648E92",
"t. c #758E91",
"y. c #659095",
"u. c #6C9297",
"i. c #6A9498",
"p. c #7C9194",
"a. c #709599",
"s. c #76999D",
"d. c #7D9FA2",
"f. c #828283",
"g. c #838B8C",
"h. c #898989",
"j. c #918E8E",
"k. c #849395",
"l. c #829A9D",
"z. c #959595",
"x. c #979F9F",
"c. c #9C9C9C",
"v. c #A09F9E",
"b. c #A0A09F",
"n. c #869EA1",
"m. c #8F9FA0",
"M. c #979FA0",
"N. c #8AA2A4",
"B. c #95A1A2",
"V. c #9CA2A3",
"C. c #9EA7A8",
"Z. c #92AAAC",
"A. c #9DA9AA",
"S. c #8FADB0",
"D. c #92AEB1",
"F. c #96B1B4",
"G. c #9BB4B6",
"H. c #9DB5B8",
"J. c #A4A3A3",
"K. c #A2A9AA",
"L. c #ABABAB",
"P. c #B0AEAE",
"I. c #B1B0AF",
"U. c #ACB1B1",
"Y. c #A6BDBF",
"T. c #AABABB",
"R. c #B6B6B6",
"E. c #B8B7B6",
"W. c #B4BCBD",
"Q. c #BBBBBB",
"!. c #A6BEC0",
"~. c #A8BFC1",
"^. c #ABC1C4",
"/. c #ADC6C8",
"(. c #BDC2C2",
"). c #B6C6C8",
"_. c #BECFD0",
"`. c #BFD0D2",
"'. c #C2C3C2",
"]. c #C5CECE",
"[. c #CCCDCC",
"{. c #D1CFCE",
"}. c #D0D0CF",
"|. c #C3D3D4",
" X c #CBD1D1",
".X c #D4D4D3",
"XX c #D8D6D5",
"oX c #D6D8D7",
"OX c #D8D8D7",
"+X c #D3DCDC",
"@X c #DCDCDB",
"#X c #DBE5E5",
"$X c #DEE7E8",
"%X c #DFE8E8",
"&X c #E5E5E4",
"*X c #E9E7E6",
"=X c #E9E8E7",
"-X c #E1E9E9",
";X c #EAEAEA",
":X c #ECF1F1",
">X c #F5F5F4",
",X c #F8F7F6",
"<X c #F5F8F7",
"1X c #F8F8F7",
"2X c #FEFEFE",
/* pixels */
"    = ] V.&X2X2X2X2X2X2X2X2X2X2X2X2X2X2X2X2X2X2X2X2X2X2X2X2X2X2X2X2X2X2X2X2X2X2X2X2X2X2X2X2X2X2X2X2X2X2X2X2X2X;XoXR.z.%.j &     ",
"    i [ c.@X2X2X2X2X2X2X2X2X2X2X2X2X2X2X2X2X2X2X2X2X2X2X2X2X2X2X2X2X2X2X2X2X2X2X2X2X2X2X2X2X2X2X2X2X2X2X2X2X>X&X.XR.z.%.l =     ",
"= i l %.z.'.@X&X&X@X@X@X@X@X@X@X@X@X@X@X@X@X@X@X@X@X@X@X@X@X@X@X@X@X@X@X@X@X@X@X@X@X@X@X@X@X@X@X@X@X@X@X@X@XXX.X[.Q.c.:.~ 6 o   ",
"] [ %.:.h.c.J.J.J.J.J.J.J.J.J.J.J.J.J.J.J.J.J.J.c.J.c.c.b.b.b.b.c.b.c.b.v.v.V.J.J.J.J.J.J.J.J.J.J.J.J.J.v.J.L.R.'.'.U.g.` q % + ",
"J.c.z.h.,.=.%.{ { { { { { { { { { { { { { { { } [ [ [ ] [ [ [ [ ] [ [ [ [ [ [ [ { %.%.[ { %.{ { %.{ { [ [ { :.z.E.[.(.m.X.B 4 : ",
"&X@X'.c.=.l i ; ; i i i i i i i i i i i i i i i i i i i i i i i i i i i i i i i i i i i i i i i i i i ; ; i ~ >.P.oX+XG.6.L x 8 ",
"2X2X@XJ.%.i X     o o o o o o o o + o o o o O # ; 6 i i 6 = ; ; i i i i ; ; = & O       X o o o o o o X   o a *.L.@X#X!.r.Y n x ",
"2X2X&XJ.} ;       o + @ @ + @ @ + @ + + + + % 7 k _ ' ( ^ K ~ ^ ( ] ] ' ( l h ; O         X + + @ @ + o o @ y *.L.#X#X^.r.Y M x ",
"2X2X&XJ.{ ,     + : 2 2 2 2 2 2 2 2 2 : : 2 r I ;.g.z.j.f.:.:.4.z.c.c.z.f.:.[ l ;       o % 2 2 2 2 2 : : 2 B $.T.#X#X^.r.Y M x ",
"2X2X@XJ.{ i o o : 8 x c x t t t x z t e e x A #.B.'..X'.I.c.v.P.(.[..X'.R.c.e.] h * o + < w t t x t t e 8 x L 0.T.#X#X!.8.Y M x ",
"2X2X@XJ.{ i o @ 2 t n M M M n n M M M x x M Y 7.H.+X&X.XQ.J.M.P.(..X.X'.R.c.f.=.( h a q v A Z A m x x t z n Y r.^.#X#XY.r.Y M z ",
"2X2X@XJ.{ i o @ 2 x M M M M M M M M M c x M G 5.D. XOX'.v.4.,.4.j.c.J.z.h.<.:.=.=.%.&. .X...W P V r w 8 e M Y r.^.#X#XY.w.Y M z ",
"2X2X@XJ.{ i o + 2 x M N N M N M M M M c x M G 1.N.~.'.v.>.' ~ ^ ) [ [ ' ( / ' =.f.v.K.C.x.t.3.| J 5 : : 8 c Y r.^.#X#XY.w.Y n z ",
"2X2X@XJ.{ i o @ 2 c M M M M M M M M M c c M G o.p.A.J.f.] d ; = = i i = * ; h %.z.(..X[.W.C.f. .k , @ $ 2 x Y r.^.#X#XY.w.Y M z ",
"2X2X@XJ.{ i o + 2 x M M M M M M n M M M N Z T #.p.M.c.>.) s = & * = * O   . ; ' j.Q..X[.Q.c.f.[ h = o + : x Y r.^.#X#XY.w.Y M x ",
"2X2X@XJ.%.i o + 2 t M M M M M M c M M Z L E X.9.k.c.c.4.%.( j h h h s = .   O k =.j.J.v.j.<.{ ^ p O   + : x Y r.^.#X#X!.w.Y M z ",
"2X2X@XJ.{ i o @ 2 t n M M M M c c c C H Q $.q.k.M.J.M.z.4.-.=.&.=.%.] j ;   . ; k ] { [ ' ^ l p * .   + : x Y r.^.#X#XY.w.Y n x ",
"2X2X@XJ.{ i o + 2 z n M M M M n c n S E $.k.V.L.L.L.L.J.c.c.z.z.z.z.4.{ h & . O & ; i i ; = * O .   X $ 2 x Y r.^.#X#XY.w.Y n x ",
"2X2X@XJ.%.i o @ 2 z M M M M M M N Z T #.p.K.R.Q.Q.E.E.E.E.R.E.Q.'.R.J.4.' s * o .       o o o o X o + % 2 x Y r.^.#X#XY.r.Y M x ",
"2X2X@XJ.{ i o + 2 x n M M M M Z L E #.t.A.'.{..X.X{..X{..X}..X.XoX{.~.c.:.' h ; O       X @ $ $ $ % : 2 8 c Y r.^.#X#X!.w.Y n t ",
"2X2X@XJ.{ i o + 2 t c n c c N L | $.t.C.(.oX&X=X=X=X=X=X=X&X&X=X=X&XoXQ.c.<.[ j =       @ : 2 4 8 4 8 8 e c Y r.~.#X#XY.w.Y n x ",
"2X2X@XJ.{ i o @ 2 t n M n M Z E 2.k.K.'.oX=X>X,X<X>X>X>X>X<X<X1X,X>X=XoXQ.J.f.[ h * o + 2 w t x t x x t x n Y r.~.#X#XY.w.Y M z ",
"2X2X@XJ.{ i o + 2 t M M C Z T #.p.K.'..X=X>X1X<X:X-X-X;X>X1X2X2X2X2X>X=XOX'.V.<._ s - > 4 e t c c n n c x n Y r.~.#X#XY.r.Y M z ",
"2X2X@XJ.{ i o + 2 x C S Y E @.t.C.(..X=X>X2X<X%X|.)./.|.#X<X2X2X2X2X2X>X=XXXQ.c.:.' b f 0 9 w e x n M n c n Y r.^.#X#XY.w.Y M z ",
"2X2X@XJ.{ i o + 2 t C Y ..2.p.L.(.oX=X,X2X2X;X|.F.s.s.F.|.:X2X2X2X2X2X1X<X=X.XQ.c.<.%.K g 3 2 2 e c M n c M Y w.~.#X#X!.w.Y M z ",
"2X2X@XJ.{ i o + : t Z E 2.k.K.~.oX=X<X2X2X2X-X^.i.O.O.i.^.%X2X2X2X2X2X2X2X>X=X.XQ.J.f.} k - @ % 2 x M c x M Y r.^.#X#XT.w.Y M z ",
"2X2X@XJ.{ i o + : t Z Q q.c.E.{.&X<X2X2X2X2X#XG.5.Y Y 5.H.#X2X2X2X2X2X2X2X2X>X&X.XR.z.=.l = o @ 2 x n c x M Y r.~.#X#X~.r.Y M z ",
"2X2X@XJ.{ i o + : x Z ..q.V.Q..X=X1X2X2X2X2X#XF.+.F F 1.G.-X2X2X2X2X2X2X2X2X1X=XXXQ.c.=.l = X + 2 x n c c M Y r.^.#X#XY.w.Y M z ",
"2X2X@XJ.{ i o + : x D ! q.V.Q..X&X,X2X2X2X2X#XF.+.S F 1.H.%X2X2X2X2X2X2X2X2X1X=X.XQ.c.=.l = X @ 2 z n c c n Y r.~.#X#XY.w.Y n z ",
"2X2X@XJ.{ i o o : t Z Q q.B.E.}.&X>X2X2X2X2X#XH.5.Y Y 5.G.#X2X2X2X2X2X2X2X2X<X&X.XE.z.=.l = o @ 2 x n c c M Y r.~.#X#XY.w.Y M z ",
"2X2X@XJ.{ i o + : t Z Q q.B.E.}.&X>X2X2X2X2X-X^.i.O.! 7.S.`.%X:X1X2X2X2X2X2X<X&X.XE.c.=.l = o @ 2 t n n c n Y r.~.#X#XY.w.Y M x ",
"2X2X@XJ.{ i o + 2 t D ..q.V.Q..X*X,X2X2X2X2X;X|.F.s.y.u.d.F.!.|.#X>X2X2X2X2X,X=X.XE.c.=.l = o @ 2 x M n x M Y r.^.#X#X!.w.Y M z ",
"2X2X@XJ.%.i o o 2 t D ! q.V.Q..X=X,X2X2X2X2X>X%X|.^.F.d.r.8.u.S._.;X2X2X2X2X1X=XoXE.c.=.l = o @ 2 t n n c n Y r.^.#X#XY.w.Y n x ",
"2X2X@XJ.{ i o + : t D Q q.x.E.{.&X>X2X2X2X2X2X1X<X-X|.D.w.! O.a.^.%X2X2X2X2X<X&X.XR.z.=.l = o @ 2 t n n c n Y r.^.#X#XY.w.Y n t ",
"2X2X@XJ.{ i o + : t A R $.g.J.Q..X=X<X2X2X2X2X2X2X2X$X!.a.O.O.a.^.$X2X2X2X<X=XoXQ.J.f.[ k - @ % 4 x n n c n Y w.~.#X#XY.r.Y M z ",
"2X2X@XJ.%.i o + 2 t N L `  .<.c.E.oX=X<X1X2X2X2X2X2X>X|.D.a.i.S.`.:X2X2X,X=XoXQ.c.<.%./ f 3 : 2 w c n n c M Y r.^.#X#XY.w.Y M z ",
"2X2X@XJ.{ i o @ 2 t m v g k ' :.c.'..X=X>X2X2X2X2X2X2X$X|.^.^.|.#X<X2X,X=XXXQ.c.:.) k f 0 9 8 t t n n c x n Y r.~.#X#XY.w.Y n x ",
"2X2X@XJ.{ i o @ 2 t x w 1 6 s _ >.J.'.XX=X<X2X2X2X2X1X>X;X&X-X:X<X1X<X=XXX'.J.<.' s - > 4 e x n n n n c c M Y r.~.#X#XY.w.Y n z ",
"2X2X@XJ.{ i o @ 2 t x 8 % $ - k [ f.v.Q..X=X<X<X<X>X>X>X>X>X<X,X<X>X=XoXQ.J.f.[ k - @ % 4 x M M M M n c x M Y r.^.#X#XY.w.Y M x ",
"2X2X@XJ.{ i o @ 2 t x w 2 % % a K [ <.c.Q.oX&X=X=X=X&X=X;X;X;X;X;X&XoXE.c.<.[ K a > % 2 8 x M M M M M c x n Y r.~.#X#X!.w.Y M z ",
"2X2X@XJ.{ i o @ 2 t c x 8 8 4 5 a k ( :.c.Q..XoXXX.X.X.X.XXXOX@X@X.XQ.c.:.) k a 0 4 4 w x n M M M M M x x M Y r.^.#X#XY.8.Y M z ",
"2X2X@XJ.{ i o @ 2 x c n c x e 4 > - s ' <.J.R.Q.Q.E.R.E.E.E.E.Q.Q.E.J.<.' s - > 2 e x x n M n M M M c c x c Y r.~.#X#XY.8.Y M z ",
"2X2X@XJ.{ i o + 2 x M N M M x 4 % @ - l %.f.z.c.c.z.z.z.z.z.z.c.c.z.f.{ k - @ % 4 x n M M M n M M M M x x M Y r.^.#X#XY.r.Y M z ",
"2X2X@XJ.{ i o @ 2 x M N M M c w 2 % > f / [ =.=.=.=.=.=.=.=.=.=.=.=.[ / f > % 2 w n M M M M M M n M c c x M Y r.^.&X#XY.w.Y M z ",
"2X2X@XJ.{ i o @ 2 t n M M M c x 8 4 4 0 f k l l l l l l l l l l l l k f 0 4 4 8 t n M M M M n M M n M x x M Y r.~.#X#XY.w.Y n z ",
"2X2X@XJ.{ i o + 2 z n M M n n n c x w 9 3 - = = = = = = = = = * = = - 3 9 w x c n n n M M M M n M M c c x M Y r.~.#X#XY.w.Y M z ",
"2X2X@XJ.{ i o + : z M M M M M M n n t 8 : @ X X X X o o o o o o X o @ : 8 t c n M n n n M n n n c c c c z n Y r.~.#X#X!.w.Y M x ",
"2X2X@XJ.[ ; X o : e c M n n n n n n x 8 : $ + o + + + o + + + o o + $ : 8 x c c n n n c c c c c c c x z t x H r.^.#X#X~.r.Y M z ",
"2X2X@XJ.[ ;   X : e c c x c x x c c t e 8 2 : : : : : : : : : : : : 2 4 e x c c c c x x x c c x x x x z e x H 8.~.$X#X!.w.Y M z ",
"2X2X@XJ.{ i o @ 2 t M M M M M M M M n n x x x t t x t x x x x t t t x c n n n n n M M M n M n M M M c c c M Y r.~.#X#XY.8.Y M z ",
"2X>X@XL.:.~ s q B L Y Y Y Y Y Y Y Y Y Y Y Y Y Y Y Y Y Y U Y Y Y Y Y Y Y Y Y Y Y Y Y Y Y Y Y Y Y Y Y Y H G Y O.s.).+X+XT.7.Y M z ",
";X&X.XR.z.:.%.@.;.w.w.r.r.r.r.r.r.w.r.r.r.r.r.r.r.r.r.r.y.r.y.y.r.r.r.r.r.r.r.r.w.r.r.w.r.r.w.r.r.w.r.r.8.r.s.A.).oX].D.1.Y M x ",
".X{.[.'.E.P.K.L.T.~.^.^.^.^.~.^.^.^.^.^.^.^.^.^.^.^.^./.^.^.^.^.^.^.^.^.^.^.^.^.^.^.^.~.^.^.^.^.~.~.~.~.^.^.)._.].[.W.l.+.H M c ",
"R.E.Q.'.[.OX@X#X@X#X#X#X#X#X#X#X#X#X#X#X$X#X#X#X#X#X#X#X#X#X#X#X#X#X#X#X#X#X#X#X#X#X#X#X#X#X#X#X#X#X#X#X-X#X+XoX[.Q.K.q...D M z ",
"z.z.J.U.'.+X#X#X$X#X$X#X#X#X#X#X$X#X#X$X#X#X#X#X#X%X#X#X#X$X#X$X#X#X$X#X#X#X-X#X#X#X#X#X#X#X#X#X#X#X#X$X$X#X+X].W.K.g.$.R V z e ",
"%.=.,.g.Z.T.^././.^.^.^.^.^.^.^.^.^.^.^.^.^.^.^.^.^.^.^.^.^.^.^.^.^.^.^.^.^.^.^.^.^.^.^.^.^.^.^.^.^.^./.^.^.Y.D.n.t.$.W J r 8 2 ",
"l l / ` X.7.y.i.i.r.r.r.r.r.r.r.r.r.r.r.y.r.r.r.r.r.r.r.r.r.r.r.y.y.r.r.r.r.r.y.r.r.r.r.y.r.r.r.y.r.r.r.y.y.w.6.+...R J u 1 % $ ",
"* * 6 q J L Y Y Y Y Y Y Y Y Y Y Y Y Y Y Y Y Y Y Y Y Y Y Y Y Y Y Y Y Y Y Y Y Y Y Y Y Y Y Y Y Y Y Y Y Y Y Y Y Y L H D V r 1 @ X X ",
"    o $ 2 w x x c x x x x t x x t t x t x t x t x t t t x x t x x x t t t t x x t t x t x t x t t x t t x x x x x x w 2 $ o     ",
"      o $ % 2 2 2 2 2 : 2 2 2 2 2 2 2 2 2 2 2 2 2 2 2 2 2 2 2 2 2 2 2 2 2 2 2 2 2 2 2 2 2 2 2 2 2 2 2 2 2 2 2 2 2 2 : % o       ",
"        o + @ @ @ @ @ @ @ @ @ @ @ @ @ @ @ @ @ @ @ @ @ @ @ @ @ @ @ @ @ @ @ @ @ @ @ @ @ @ @ @ @ @ @ @ @ @ @ @ @ $ $ $ @ o X       ",
"        X X o X o o o X X X o o o X o o o o o X o o o o o X o o o o o X X o o o o X o o o o o X o X o o o X o o o o X X X       ",
"                                                                                                                                ",
"                                                                                                                                "
};
