/* XPM */
static const char *sprite_4_5[] = {
/* columns rows colors chars-per-pixel */
"16 16 4 1 ",
"  c #000001",
". c #6B6B00",
"X c #E79C21",
"o c #E7E794",
/* pixels */
"       o        ",
" ..X  ooo  X..  ",
" oXX oooXX XXX  ",
" ..XooXXXX.X..  ",
" oXXoXXXXX.XXX  ",
" ..XoX..oX.X..  ",
" oXXoX.ooX.XXX  ",
" ..XoXXoXX.X..  ",
" oXXooXXX..XXX  ",
" ..XoXXo...X..  ",
" oXX X.o.. XXX  ",
" X..  .o.  X..  ",
"       o        ",
"       o        ",
"       o        ",
"                "
};
