/* XPM */
static char *sprite_1_9_resized[] = {
/* columns rows colors chars-per-pixel */
"64 64 208 2 ",
"   c #000001",
".  c #000709",
"X  c #020A0C",
"o  c #0B0B0C",
"O  c #000D11",
"+  c #090E10",
"@  c #001215",
"#  c #0E1214",
"$  c #001519",
"%  c #01191C",
"&  c #141516",
"*  c #181617",
"=  c #161A1B",
"-  c #1C1B1C",
";  c #001D22",
":  c #091E21",
">  c #1E1F20",
",  c #002127",
"<  c #0D2124",
"1  c #00252A",
"2  c #00292E",
"3  c #0F282B",
"4  c #162629",
"5  c #1A2729",
"6  c #012C33",
"7  c #1F2F31",
"8  c #01343A",
"9  c #0C3338",
"0  c #00383F",
"q  c #173033",
"w  c #103438",
"e  c #173A3E",
"r  c #232324",
"t  c #25292B",
"y  c #223033",
"u  c #293233",
"i  c #23383B",
"p  c #363A3B",
"a  c #383838",
"s  c #433F3F",
"d  c #003C44",
"f  c #003F48",
"g  c #183D42",
"h  c #01424A",
"j  c #09464E",
"k  c #0A484F",
"l  c #184146",
"z  c #16464C",
"x  c #054850",
"c  c #0D4A52",
"v  c #144E55",
"b  c #175057",
"n  c #1A5057",
"m  c #16525A",
"M  c #1A535A",
"N  c #1D585F",
"B  c #274246",
"V  c #26464A",
"C  c #374041",
"Z  c #3B4345",
"A  c #205056",
"S  c #23555B",
"D  c #2A5358",
"F  c #24595F",
"G  c #395357",
"H  c #3B565A",
"J  c #355A5F",
"K  c #1E5A61",
"L  c #245B61",
"P  c #2B5D63",
"I  c #3B5F64",
"U  c #326066",
"Y  c #396267",
"T  c #366369",
"R  c #3A666B",
"E  c #37686E",
"W  c #3E686D",
"Q  c #3C6A70",
"!  c #434242",
"~  c #434A4B",
"^  c #504E4F",
"/  c #4F5253",
"(  c #435659",
")  c #465558",
"_  c #4B585B",
"`  c #565758",
"'  c #5C5C5C",
"]  c #605D5D",
"[  c #475E61",
"{  c #406A6F",
"}  c #5E6465",
"|  c #586A6C",
" . c #436D72",
".. c #5F6F71",
"X. c #447076",
"o. c #4D7176",
"O. c #477479",
"+. c #4B757A",
"@. c #53767A",
"#. c #557A7E",
"$. c #5C787B",
"%. c #646464",
"&. c #646A6B",
"*. c #6D6C6D",
"=. c #726E6F",
"-. c #617477",
";. c #677678",
":. c #62797C",
">. c #757474",
",. c #4E7B81",
"<. c #517E83",
"1. c #5D7D81",
"2. c #627E81",
"3. c #707F81",
"4. c #568086",
"5. c #5C878C",
"6. c #5B898E",
"7. c #5E8B90",
"8. c #658184",
"9. c #6A8386",
"0. c #6E8689",
"q. c #64898E",
"w. c #6E898C",
"e. c #70878A",
"r. c #748A8D",
"t. c #788C8F",
"y. c #638D92",
"u. c #6A8F93",
"i. c #768E91",
"p. c #7B8F91",
"a. c #6E9195",
"s. c #7C9194",
"d. c #79989B",
"f. c #858484",
"g. c #80898A",
"h. c #808F91",
"j. c #898F90",
"k. c #819193",
"l. c #899394",
"z. c #849698",
"x. c #8A9798",
"c. c #839A9C",
"v. c #949494",
"b. c #989595",
"n. c #949D9E",
"m. c #9A9D9E",
"M. c #849EA1",
"N. c #889EA1",
"B. c #959FA0",
"V. c #8DA1A4",
"C. c #8EA9AC",
"Z. c #96A0A2",
"A. c #9CA3A4",
"S. c #97A7A9",
"D. c #92AAAD",
"F. c #9EA8AA",
"G. c #95AEB1",
"H. c #96B0B3",
"J. c #9CB3B6",
"K. c #9CB7BA",
"L. c #A2A4A5",
"P. c #A7A7A7",
"I. c #A4AAAB",
"U. c #ABABAB",
"Y. c #B0AFAF",
"T. c #A3B3B5",
"R. c #ACB4B5",
"E. c #A6B9BB",
"W. c #ABBABC",
"Q. c #B5B4B4",
"!. c #B8B6B6",
"~. c #BBB8B7",
"^. c #B4BBBC",
"/. c #B9B9B9",
"(. c #C1BEBE",
"). c #A4BEC1",
"_. c #AABEC1",
"`. c #B7BFC0",
"'. c #A7C0C3",
"]. c #ABC1C4",
"[. c #BCC3C4",
"{. c #B8C7C9",
"}. c #C4C4C4",
"|. c #CBC7C6",
" X c #C3C9CA",
".X c #CCCBCB",
"XX c #D1CFCF",
"oX c #D1D0CF",
"OX c #C0CFD1",
"+X c #C7D1D2",
"@X c #CBD2D3",
"#X c #CFD9DA",
"$X c #D3D2D2",
"%X c #D9D6D6",
"&X c #D2D7D8",
"*X c #D4DBDC",
"=X c #DBDBDC",
"-X c #E0DFDF",
";X c #DCE4E5",
":X c #DFE7E8",
">X c #E3E3E3",
",X c #E8E7E6",
"<X c #E4EAEA",
"1X c #EBEAEA",
"2X c #EDF1F1",
"3X c #F4F4F4",
"4X c #F9F7F7",
"5X c #FEFEFE",
/* pixels */
"                                                    r %.U.=X=XU.%.r                                                             ",
"                                                    r %.U.=X=XP.%.r                                                             ",
"                                                    r %.U.=X=XP.%.r                                                             ",
"                                                  . r %.U.=X=XU.%.r                                                         .   ",
"                                                    r &.U.=X=XU.%.r                                                             ",
"                                                    r %.U.=X=XU.%.r                                                             ",
"                                                    r %.U.=X=XU.%.r                                                             ",
"                                                    r %.U.=X=XU.&.r                                                             ",
"                                                    r %.P.=X=XU.%.r                                                             ",
"                                                    r %.U.=X=XU.%.r                                                             ",
"                                                    r %.U.=X=XU.%.r                                                             ",
"                                                    r %.U.=X=XU.%.r                                                             ",
"                                                    r %.U.=X=XP.%.r                                                     .       ",
"                                                    r %.U.%X=XU.%.r                                                             ",
"      o + & & # + X . . . . . .                   . t &.R.=X=XU.&.t .               . o - - > - # X . . . . .                   ",
"    o * r a p u 4 % $ $ $ @ @ .                 . $ i ;.R.=X;XR.;.i $ .             o r s ` ` ~ i < $ $ $ $ $ O O .             ",
"    & r ! ' ' ( B 9 1 1 1 , ; @ .             . O 1 V 8.E.;X;XE.8.V 1 @ X           * ! =.v.v.3.H e 1 1 , 1 , $ O .             ",
"    * a %.f.g.:.Y z d 0 0 d 8 1 $ .         . O ; 8 S q.W.;X;X].q.S 8 ; @ .         > ` v./.{.D.1.n d 0 0 d 8 1 $ .             ",
"    - ! >.m.I.z.1.P M m M K S V i t r r > r 5 3 6 h L y.].;X;X].y.L d 1 % O .     X 5 ' n.[.{.).y.T n v b b z w % X             ",
"    - ^ j./.}.E.d.1.O.+.4.6.5.:.-.} ' ' ] ' _ G z k K 7.'.;X;X].y.K d 6 , ; % @ @ % q ( e.D.K.C.a.<. . . . .I V 5 #             ",
"    > ` b.XX=X.XT.c.s.c.C.K.E.E.I.L.L.L.P.L.l.-.P v K 6.).;X;X'.7.K h 8 6 6 2 1 1 2 w A W 4.y.a.i.i.t.i.s.r.;._ u &             ",
"    r ' b.$X<X=X[.I.F.W.{.*X;X>X>X=X-X>X-X=X{.V.O.K L 7.).;X;X].y.L h d 0 d 0 0 0 d d j v L T +.9.z.n.A.F.n.g.} p &             ",
"    - / l.[.&X+XW.I.F.^.$X<X3X4X5X5X5X5X5X5X:XE.q.E E u.].:X:X{.d.E v j h h h h h h h d f h b T 1.s.n.F.F.n.t.%.p &             ",
"    = Z -.N.H.C.c.i.k.F.[.=X1X4X5X5X5X5X5X5X2X{.V.4.4.V.{.<X,XOXC.1.T S b x h h h h h h d d j S  .1.e.i.r.0.-.) u #             ",
"    # 7 G o.<.+.O. .#.w.F.[.%X,X4X5X5X5X5X5X3X@XJ.c.z.T.@X2X2X*XE.z.2.{ F c h h h h h f d f h v L U W  . .W J B 4 +             ",
"    X < e A F K m M P @.s.I.}.%X,X4X5X5X5X5X3X*X^.U.I.[.=X3X3X;X XI.z.$.U v h h f h h h h h h k c b M M M n z w : X             ",
"    + < g n L K M M P +.r.Z./.oX>X3X5X5X5X5X3X-X|./.!.}.=X,X1X-X.XQ.Z.9.W v h d h h h h h h h k v v M M M M z w : X             ",
"    # y G o.4.<.+. .o.2.k.Z.Q..X>X4X5X5X5X5X4X-X.X/.Q.}..X%X=X$X|.Q.Z.e.W v h d d d h h f h k b L T W  . .W J B 4 +             ",
"    - Z ;.V.J.G.V.i.t.h.n.L.!..X>X3X5X5X5X5X4X;X.X/.Q.Q./.}.}.}.(.Q.Z.0.W v d d d h h h h h c P  .2.w.t.t.0.-.) u #             ",
"    > / j.[.&X+XW.F.Z.B.A.P./..X>X3X5X5X5X5X4X>X|./.Y.R.Q.!.!./.!.Y.B.0.{ b h d h h h d d h v T :.k.n.F.F.n.g.} p &             ",
"    5 / j.[.#X+X`.F.Z.m.L.P./..X-X3X5X5X5X4X1X=X@X}./.!.!./././.Q.Y.Z.t.@.P b x j h h d d h v T $.k.n.F.A.n.t.} p &             ",
"    * Z ;.V.J.G.M.i.t.k.n.L./..X>X3X4X4X1X<X-X%X$X.X|..X.X|.}.}.(.Q.L.x.9.o.Y L v x h h d h v P  .1.0.r.t.0.-.) u &             ",
"  . # y G @.4.<.O.X.o.:.h.F.~.oX,X3X4X1X-X@XoX$X%X=X;X>X>X>X=X$X}.Q.U.A.x.r.2. .L c f f f f k b L T W  . .W I g 5 +             ",
"    X < e n K K M M P o.r.Z.!.@X,X3X4X>X$X}.}..X=X1X3X4X4X3X,X=X|.!.U.L.L.B.k.$.T b h f f h h k v b b M M M z 9 : o             ",
"    X < e A L N N M P o.e.m.!.$X,X3X3X>X|./.!. X>X3X5X5X5X4X<X@X/.I.Z.L.P.P.B.0.W n f f f h h k c b M M n n z w : X             ",
"    # y G o.4.4.O. .o.2.k.L.!.$X>X3X3X>X X!.!.|.-X4X5X5X3X,X&X^.S.s.p.z.F.U.Z.r. .M h d d h k b L T W  . .{ I g 5 +             ",
"    = Z ;.V.J.D.V.s.t.s.n.L.~.oX,X3X3X;X X/.!. X;X3X4X4X,X$X[.S.r.@.o.9.x.L.Z.t. .n h d d h c P o.1.e.i.i.e.-.) u #             ",
"    5 / l.[.#X+XW.F.m.m.L.U.~..X>X3X3X-X.X!./..X-X3X4X1X%X}.I.t.o.P P o.t.Z.n.r. .n h d d h v T 2.p.B.A.A.n.g.} p &             ",
"    > / l.[.#X+X^.F.Z.m.A.P./..X>X3X3X>X|./.^.|.-X3X3X,X$X~.n.9.T M M { e.n.n.r. .n h d d h v T 1.h.B.A.F.n.g.} p &             ",
"    * Z ;.V.H.G.V.i.t.k.n.I./.oX,X3X3X-X.X/./.|.>X3X3X,XXXQ.n.2.P v v R e.n.n.r. .b h d d h c P  .2.0.i.i.e.-.) u &             ",
"    # 7 G o.4.<.O. .o.2.k.F.!.@X,X3X3X>X|.!.^..X>X3X3X,XXXQ.n.:.U v v R 0.n.n.r.{ n h d d h k b L U W  . .W J B 4 X             ",
"    + < g n L L N M P o.r.m.!.oX,X3X3X-X|././..X>X3X3X>X$X~.n.9.R b M W e.n.n.r. .n h d f h h k v b M M M n z w < X             ",
"    X < e n L K M M P o.e.m.!.$X,X3X3X-X.X!./..X;X3X4X,X$X/.Z.2.T n n W e.n.n.r. .b h f f h h j c b M M M M z w : X             ",
"    # y G o.4.<.O. .o.2.k.L.!.$X>X3X3X;X.X/./..X>X3X4X,X$X/.A.9.R n M W e.n.n.r. .M h d d h k v L T W  . .W J B 4 +             ",
"    = Z ;.V.J.G.V.i.r.k.n.I./.$X>X3X3X;X|.^./..X>X4X4X,X%X/.Z.9.Y M M W 0.n.n.r. .n h d d h c P  .2.w.i.t.0.-.) u #             ",
"    5 / l.[.&X@X^.F.Z.Z.A.P./..X>X3X3X>X.X!.!..X>X4X3X,X$X!.n.9.T b n W e.n.n.r. .M h d d h v T :.k.n.F.F.n.g.} p &             ",
"    - / l.[.#X+X^.I.Z.Z.L.P./..X>X3X3X>X.X!.!. X=X,X<X&X}.I.s.@.P v n { e.n.B.r. .n h d d h v T 1.s.n.F.A.n.t.} p &             ",
"    = Z ;.V.J.G.c.s.t.g.n.I.~.XX>X3X3X>X X!.Q.(.@X%X$X[.F.p.$.R M k v { e.Z.A.t. .n h d d h c P  .:.0.r.t.0.-.) u &             ",
"    # y G o.4.<.O. .o.2.h.L.!.oX,X3X3X;X|.Q.Q.Q.}.}.^.F.i.+.P b j h v W r.B.A.t. .M h f d h j b P U {  . .W I B 4 X             ",
"    X < e A L L M M P o.r.B.!.$X,X3X3X>X.X/.U.Q.Q.Q.I.z.@.U b j h h n  .r.n.n.r. .M h d h h h c v v M M M n z w < X             ",
"    + < g n L K M M P o.r.B.!.$X,X4X4X,X%X}.!.!.Q.U.Z.t.o.P b v v b L o.0.k.h.2.R v h d d h h x v v M M M M z w : X             ",
"    # y G o.4.<.+.X.+.2.g.F.Q.XX,X4X5X4X,X%X.X}./.Q.L.k.8.o.W W W  .o.$.2.9.2. .P v h d h h j b F T W  . .R J B 4 X .           ",
"    - Z ;.V.J.G.N.i.r.k.n.L./.XX,X4X5X5X4X1X>X$X|.!.P.n.z.t.e.e.e.r.0.2.@. .T L v j h d d h c P  .2.0.t.i.0.-./ u #             ",
"    > / j.[.#X+X^.I.Z.m.A.P./..X>X2X5X5X5X4X,X=X|.Q.P.F.A.m.n.B.B.n.k.9.o.L v c j h h f h h v T $.k.n.A.F.n.t.} p &             ",
"    5 / j.[.#X@XW.F.Z.L.I.Q./..X@X;X:X:X:X;X*X XW.F.Z.n.n.n.B.Z.Z.B.k.1.T b h f h h h d d h v R 1.k.B.F.F.n.g.} p &             ",
"    * Z ;.V.J.D.c.s.s.V.R.[..X X{.).).).'.).K.D.c.i.r.0.e.r.t.i.i.r.8.o.P x h d h h h h d h k F  .2.w.t.r.0.-.) u &             ",
"  . # y G o.4.<.O. .#.d.W.@X&X{.G.a.7.7.7.7.5.<.+.X. .{  . . .X. . .W P b x h h h h h h d h h v F T W  . .W J B 4 X             ",
"    X < e n L N m M W a.W.*X;X].d.Q L K K K F N M n b b b n M n M M v c j h h h h h h h h h j k c b M M M M z w < X             ",
"    X < e A L N m N E a._.*X&XT.5.S d 8 0 d 0 d d 0 0 d d 0 d 0 d d d d 0 d d 0 0 d d h k v n n M M M M M b z w : X             ",
"    # 7 G o.<.,.O.Q #.d.W.@X XZ.| g , ; ; , , , 1 1 1 1 1 1 1 1 , 1 , 1 1 2 1 1 1 2 9 l D Y { { { W W Q Q W J B 4 o             ",
"    = Z -.c.J.C.d.r.s.Z.W.[.R.g._ q @ O O @ @ $ $ $ $ $ $ $ $ $ $ $ $ $ $ % $ $ $ $ 4 B [ -.0.r.e.0.0.w.e.9...) u #             ",
"    5 / j.}.&X@X^.I.Z.L.Q.Q.L.>.~ - .   . . . . . . . . . . . X . X . . . X . . . . = C &.g.n.A.Z.Z.n.Z.A.n.g.} p &             ",
"    r ' L.%X3X,X$X/.Y.Y.Q.U.b.*.! -                                                 - p *.b.U.Q.Y.Y.U.Q.Y.U.b.*.p -             ",
"    r ] P.>X5X3X=X}.Q.Y.Y.L.v.*.a &                                                 * s =.m.Y.(.~.Q.Q.~.(.Q.m.=.! -             "
};
