/* XPM */
static char *sprite_2_16_resized[] = {
/* columns rows colors chars-per-pixel */
"64 64 121 2 ",
"   c #3936FF",
".  c #3E3DFF",
"X  c #403FFF",
"o  c #3F40FF",
"O  c #7B77CF",
"+  c #7E7CCF",
"@  c #6661DE",
"#  c #6A67DD",
"$  c #6E6DDD",
"%  c #726FD7",
"&  c #706FDB",
"*  c #7573D5",
"=  c #7877D3",
"-  c #7E7ED1",
";  c #7070DC",
":  c #5755ED",
">  c #5857EC",
",  c #5B5BEB",
"<  c #4E4EF5",
"1  c #4343FE",
"2  c #4947F8",
"3  c #4649FF",
"4  c #494BFC",
"5  c #504FF3",
"6  c #4F50F5",
"7  c #4D53FD",
"8  c #4F58FF",
"9  c #5151F4",
"0  c #5056FC",
"q  c #5259FD",
"w  c #5D64F3",
"e  c #5866FE",
"r  c #5D6BFC",
"t  c #6565E4",
"y  c #6866E0",
"u  c #6769E5",
"i  c #6B6CE2",
"p  c #676EEA",
"a  c #6D71E3",
"s  c #6B73EA",
"d  c #7176E2",
"f  c #606EF9",
"g  c #6874F1",
"h  c #6C7CF1",
"j  c #6375FC",
"k  c #667AFC",
"l  c #687CFA",
"z  c #807ECD",
"x  c #807FD0",
"c  c #7E86DA",
"v  c #7784E7",
"b  c #7887E7",
"n  c #7A88E6",
"m  c #7684E8",
"M  c #7886E8",
"N  c #7F97EE",
"B  c #6E82F5",
"V  c #6E85FA",
"C  c #6F88FB",
"Z  c #7285F3",
"A  c #768EF5",
"S  c #7087F9",
"D  c #728BF9",
"F  c #7690F6",
"G  c #7992F4",
"H  c #7D9CF7",
"J  c #7690F8",
"K  c #7996FA",
"L  c #7FA0FA",
"P  c #9D9DB9",
"I  c #ACACAE",
"U  c #B9BAA4",
"Y  c #B2B2A9",
"T  c #A3A2B5",
"R  c #ACBABF",
"E  c #8886C7",
"W  c #8C8CC6",
"Q  c #8483CC",
"!  c #8689CF",
"~  c #898BCA",
"^  c #8A90CE",
"/  c #9292C2",
"(  c #8284D0",
")  c #8488D1",
"_  c #8088D9",
"`  c #8895DA",
"'  c #8C9AD8",
"]  c #9FA6C1",
"[  c #A3B7CD",
"{  c #A6BACB",
"}  c #829BED",
"|  c #8BA4E5",
" . c #8FA8E4",
".. c #8AA7EC",
"X. c #8DADEE",
"o. c #8EB0EE",
"O. c #92B6EE",
"+. c #94B9ED",
"@. c #83A4F6",
"#. c #87A9F5",
"$. c #89ACF4",
"%. c #82A3F8",
"&. c #84A8F9",
"*. c #8EB4F5",
"=. c #8AB1F9",
"-. c #91BAF5",
";. c #AEC7CB",
":. c #B0C9C9",
">. c #ACCAD3",
",. c #A4C5DD",
"<. c #A9CCDB",
"1. c #AED2DA",
"2. c #9FC1E2",
"3. c #97C2F3",
"4. c #99C4F2",
"5. c #A1C4E1",
"6. c #A4CFE9",
"7. c #A6D2E9",
"8. c #A4D6F1",
"9. c #A5D9F5",
"0. c #AADEF1",
/* pixels */
"1 1 1 . . . . . o 1 1 1 1 1 1 . . 1 q D -.0.0.*.S q 9 # W T T W $ 9 1 .   . . o o 1 1 1 1 1 1 . . 1 q D -.0.0.-.C q 9 # E T Y U ",
"1 1 1 1 1 1 1 1 1 1 1 1 1 o 1 . . 1 q S *.8.8.=.V q 9 y Q P P W # 9 1 . o 1 1 o 1 1 1 o o 1 1 . . 1 q V *.8.8.*.V q 9 y Q P I Y ",
"1 1 1 2 4 < < < 2 1 1 o o 1 1 . . 1 0 l @.3.3.@.k 0 9 t O / P c u 6 1 1 2 6 6 < 2 1 1 1 1 o 1 . . 1 q l @.3.3.%.k 0 < , = / P T ",
"  X 1 < , t u , 6 1 o o o 1 1 . X 1 7 j A @.%.D r 7 < > $ O = $ > 2 2 < , t t , 9 1 o . o 1 1 . X 1 7 r A %.%.D r 7 < , $ - ~ W ",
"  . 2 > $ - - $ > 4 o . . 1 1 o X 1 3 q r l l r q 3 3 9 , t t > < 2 2 > $ + + ; , 4 o . o o 1 o 1 1 3 q j l l r q 4 3 < , u y $ ",
"o 1 6 u - / / + u 6 1 . o 1 1 1 1 1 1 4 7 0 8 7 4 1 1 2 < < < 4 1 1 6 t c W P c t 6 1 o o 1 1 1 1 1 1 3 7 0 q 4 4 1 1 2 < < 9 9 ",
"8 q w a ) / / Q & , 6 4 1 1 o 1 X X 1 X 1 1 1 1 1 1 1 1 1 1 1 3 7 8 w a c P W z $ > 6 4 1 1 o o X 1 1 1 1 1 1 1 1 1 1 1 1 1 1 1 ",
"V V Z n c ) Q + = ; u , 9 1 . . . X X . . . . . 1 . . . . . 3 8 r k m v c Q Q + - ; t , 9 1 o . . . . . . . . . . o o o . X . . ",
"-.*.$.N v a $ * + Q - $ , 2 . . . . . . . . . . . . . .   . 7 r D @.$.} v a $ = + + - $ > 2 o .   . . . . . . . o . . o o . o o ",
"0.7.4.#.B w , $ + P / Q u < 1 o X 1 1 1 1 X 1 1 1 1 1 X . 1 8 k @.3.4.$.Z w , $ Q P P c u 6 1 1 X 1 1 1 1 1 1 1 1 1 1 1 1 1 o 1 ",
"0.8.4.#.C r w a ( / / Q $ , 6 7 0 q q 4 3 1 1 2 4 < 5 4 2 1 8 k @.3.3.$.D r w a c P W + $ > 9 7 0 0 0 7 3 1 1 2 4 9 < < 4 1 1 o ",
"-.*.=.@.K D B m c ) Q + = $ i s h B l r 0 1 4 5 , t t , < 1 7 e D @.$.&.K C B v c Q Q + = $ i s h B l r 8 3 1 < , t t , 9 1 o . ",
"V B D K %.$.#.} n ; $ * O + ! '  .X.%.D e 4 2 > & + + & > 4 3 8 e B D H &.$.$.N v & ; * O Q ~ '  .X.@.D e 4 4 > $ + + $ > 4 .   ",
"8 q r D $.4.3.#.B w , # + P ] [ <.6.3.L k 0 9 t + / / z t 6 1 3 3 8 r D $.4.3.$.B w , # O P ] [ <.6.4.H k q 6 t + W / - u 6 1 o ",
". 1 q k @.3.3.%.k q 9 u Q ] R :.1.7.4.&.C r w a ( / / Q & , < 2 1 2 8 k @.3.3.@.k 8 6 t Q ] { :.1.7.4.&.C r w a Q / P + $ , 9 < ",
"  . 4 r D @.@.C e 7 7 p ` [ ;.>.5.+.=.%.K D Z n _ ) Q Q = $ u : 2 1 4 r D @.@.D e 7 7 p ` [ ;.;.5.+.=.%.K D Z n _ ) Q c = & $ i ",
". . 3 q r l l r 8 3 0 g | ,.<.5...G A K @.$.$.} M d ; * Q Q - $ > 4 1 8 r l l r 8 3 0 g | ,.<.2...G A K %.=.$.} b ; ; * - Q ~ W ",
"X 1 1 3 7 0 0 4 1 1 q B X.7.7.O.A f r V #.4.4.#.B w , $ Q / / - t 9 1 3 4 0 0 4 1 1 q B X.7.7.O.A f r V #.3.3.$.Z w , # z / P T ",
"1 1 1 1 1 1 1 . . 1 q Z O.6.6.X.h q 0 k %.3.3.@.k q < t - / / Q t 9 1 o 1 1 X . . 1 q B o.7.6.X.h q q k %.3.3.%.k q 6 t - / P T ",
"1 1 X . . .       X 0 h | ,.,.| g 7 3 e S @.@.D r 4 4 > $ + - ; , < 1 .     .     1 8 h  .,.,.| g < 3 e D @.@.D r 4 3 , # ( W W ",
"1 1 1 X .         . 0 s ' [ [ ' p 7 1 8 e k l r q 3 1 9 > u y , 9 2 o . .         . 7 s ' [ [ ' s 4 1 8 e l l r q 3 1 < , t # ; ",
"1 1 1 1 X 1 1 X . 1 9 a ^ ] ] ^ i 9 1 1 7 8 0 7 3 1 1 4 < < 9 4 4 2 1 1 1 1 1 X . 1 9 a ^ ] ] ^ a 9 1 1 4 q q 4 4 3 1 2 4 < 9 9 ",
". 1 1 4 4 0 q 0 0 9 , $ Q / / Q ; , 9 4 2 1 1 1 1 1 1 1 1 1 1 1 o 1 1 3 7 0 q q 7 9 , ; Q / / Q & , 9 4 3 1 1 1 1 1 1 1 1 1 1 1 ",
". . 3 q r l Z h s i # * + Q Q - = ; t > < X . . . . . . . . . . . o 3 q r l B h s y $ * O Q Q - = a u > < 1 X . . . . . . o . . ",
"  . 4 r D @.X. .' ) Q - * # $ * z Q ( $ , 2 X . . . . . X X . .   o 4 r D %.*. .' ! Q = % $ $ * - + + % > 4 o     . . . . . 1 . ",
". 1 8 k H 3.6.<.[ T / + y , , $ Q / / - t < 1 . . 1 1 1 1 1 1 X o 1 q k %.4.6.<.{ ] / Q # > , # c P / c t 6 1 . o 1 1 1 1 1 1 1 ",
"< 9 w B #.4.7.1.:.R ] ) u 9 < t - / / - t 5 1 3 4 8 0 7 3 1 1 1 2 6 w B #.4.6.1.:.R ] ) y 9 9 t + P / - t 6 2 3 7 q 8 7 4 1 1 . ",
"# $ a m } $.+.,.>.:.[ ' s 6 4 : $ - - & > 4 3 8 r l l r q 3 1 < > t d n } $.+.,.>.:.[ ' s 7 4 , # * + % , 2 3 7 e l k r q 3 o . ",
"W ~ Q c m B G X.5.1.<.| h 7 4 < , t t > < 2 4 r D @.@.D r 4 4 > $ c ) c b m F X.5.1.<. .h 7 2 < > t t , < 1 4 r D @.@.D r 7 .   ",
"T P P c i w r F +.7.7.X.B q 1 1 2 < < 4 1 2 0 l @.3.3.@.k q < t + / / Q a w r F O.7.6.X.B q 1 1 2 < < 2 1 2 0 l @.3.3.@.k 8 1 . ",
"T P / - t < 0 k @.4.4.#.l 8 1 . . 1 1 1 3 0 r D =.4.4.$.B w , $ z P W + @ 7 q k %.3.4.@.l q 1 . . 1 2 1 4 0 r D =.4.4...Z w 9 2 ",
"W ~ + # : 1 3 e C L L D f 7 1     1 3 8 r l A H #.$.$.} M d ; = + + - # : 2 4 e C L @.D r 7 1 .   . 3 8 r l D H #.*.$.} n d $ # ",
"$ $ t > 2 1 1 8 e k k r q 3 1 . . . 7 r D %.$.#.H A Z v c Q Q + - $ u : 2 1 1 7 e k k r q 3 1 . . . 4 r A @.=.&.H A Z M c ) ~ W ",
"9 9 < 4 4 1 1 3 7 8 8 7 4 1 1 . . 1 8 k @.3.4.$.C r w a ) W P Q ; > 6 2 2 1 1 3 7 8 8 7 4 1 1 . . 1 8 l @.3.4.$.D r w i ( / P T ",
"1 1 2 2 2 9 < < 2 1 1 1 1 1 1 . . 1 8 k #.3.3.%.k q 6 t - / P O t < 1 2 2 6 6 4 2 1 1 1 1 1 o . . 1 8 l @.3.-.%.k q 9 t - / P T ",
"    1 < > t t > < 1 .   . 1 1 . . 1 8 f J @.@.D e 4 2 > # - c ; > 2 1 2 > t u , < 1 . . o 1 1 . . 1 7 j G @.@.D e 4 2 > # z ~ W ",
"  . 1 > $ - - % > 2   . . 1 1 1 X 1 3 q r l l r q 3 1 < , t t > 2 1 2 > ; O - # > 2 .   . o 1 o X 1 4 q j l l r q 3 1 < > u # $ ",
". 1 6 t - / / c t 6 1 . 1 1 1 . 1 1 1 4 7 8 q 7 4 3 1 2 4 6 6 2 2 1 < u c P / + t 6 1 . o o 1 1 1 1 1 3 7 q 8 7 3 1 1 2 < < 9 9 ",
"8 q w a ) / / Q ; , 6 4 1 1 1 X 1 1 1 1 1 1 1 1 1 1 1 1 o 1 1 3 7 8 w d ! / / Q $ > < 4 1 1 1 1 . 1 1 1 1 1 1 1 1 1 1 1 1 1 1 1 ",
"V S Z n c Q Q + = ; u > 9 1 . . . X . . . . . . . . . . . o 3 8 r k Z n c Q Q + - ; t , < 3 o . . . . . . . . . . . o o . o . X ",
"-.*.$.N v & $ * + Q x & , 4 . .   . . . . . . . . . . .   o 7 r D @.$.} b a $ = + Q + ; , 4 .     . . . . o . . . o . o . o o . ",
"0.8.3.#.B w , $ Q / / - u < 1 1 1 1 1 1 1 1 1 1 1 1 1 o . 1 8 l @.3.3.$.B w , $ Q / P c t 6 1 1 1 1 1 1 1 o 1 o 1 1 1 1 1 1 1 1 ",
"0.8.4.#.C r w a ) / / Q $ , 9 0 7 q 0 7 4 1 1 2 < < 6 2 1 1 8 k @.3.4.$.D r w a c P W z $ , 9 7 7 q q 7 3 1 1 2 4 9 < < 2 1 1 o ",
"-.*.=.@.K D B v c ~ Q + * $ y s h B l r q 1 1 < , t t , < 2 7 e D @.$.&.K D B v c Q Q + * $ i s h B k r 8 3 2 < , t t , 9 1 o . ",
"B B D H @.$.#.H M d $ * + Q ~ '  .$.%.D e 4 4 > $ + - $ , 2 3 7 e l D H #.$.$.N v & ; * O Q ~ '  .X.@.D e 4 2 : # - + $ , 2 o   ",
"8 q r D $.4.3.$.Z w , # + / ] [ <.7.3.L k q < t - / / - u 6 1 o 4 q r D =.4.3.#.B w , # O P ] [ <.6.3.H k 8 6 t + / / - u < 1 o ",
". 1 7 l %.3.3.@.k q 9 t Q ] R :.1.7.4.&.C r w i ) / P E & , < 2 1 1 8 k @.3.3.@.k 8 6 t Q ] R ;.1.7.4.&.C r w a Q / P + $ , 6 6 ",
"  . 4 r D @.@.S e 4 0 p ` [ ;.>.5.+.$.%.K A Z b c Q + c = & t > 2 2 4 r D @.@.D e 7 7 p ` [ ;.>.,.+.=.%.K J Z b c ) Q c = & $ i ",
"  . 1 q r l l r 0 3 0 g | ,.1.2. .G A K %.=...} b d ; = + Q c # > 4 1 8 r l l r 8 4 0 g | ,.<.2...G A K %.=.$.} b d & * - Q ~ W ",
"1 1 1 4 7 0 0 3 1 1 0 B X.7.7.O.A f r V #.4.4.$.B w , $ Q / P O t 9 1 3 4 0 0 4 1 1 q B X.7.7.O.A r r V $.4.4...B w , # Q / P T ",
"1 o 1 1 X 1 1 . X 1 q Z X.6.6.X.l q 0 j %.3.3.%.k q 9 t O / P c t 9 1 o 1 1 X . . 1 0 B o.7.7.X.h q q k %.-.3.@.k 8 < @ - / P T ",
"1 1 1 1 . .       1 7 h  .,.,.| g 7 3 e D %.%.D e 4 4 > $ - O * , < 1 .     .     o 8 h  .,.,.| g 7 3 e D @.@.D r 7 4 > # - ~ W ",
"1 1 o . .         X 0 s ' [ [ ' s 4 1 8 e k l r q 3 1 6 , u t , 9 2 . . .         o 7 s ' [ [ ' s 4 1 7 e l k r q 4 1 < , t $ & ",
"o 1 1 1 1 1 1 X . 1 9 a ^ ] ] ^ a 9 1 3 7 8 q 4 4 1 1 2 < < 6 4 4 2 1 1 1 1 1 X . 1 9 a ! ] ] ^ i 9 3 1 7 8 8 7 4 1 1 2 4 < 9 9 ",
"o 1 1 4 7 8 q 0 7 9 , & Q / / Q ; , < 4 1 1 1 1 1 1 1 1 1 1 1 1 1 1 1 4 7 0 q 0 0 9 , ; Q / / Q ; , 9 4 1 2 1 1 1 o 1 1 1 1 1 1 ",
". . 3 8 r l B h s y # * + z Q - = $ t , < 2 . . . . . . . . . . . o 3 8 r l B h s y $ * + z Q Q = & u > < 1 .   . . o . . . o . ",
"  . 7 e D @.X.| ' ! Q = % $ $ * - Q ( $ , 4 X . .   . . . . . .   o 7 e D @.o. .' ! Q = % $ $ * x Q x & , 2 X . . . . . . . o o ",
". 1 8 k %.3.6.<.;.T / z # , , $ Q / / - t < 1 . o 1 1 1 1 1 1 . . 1 q k %.4.6.<.[ T / Q # , > # Q / / - t < 1 X o 1 1 1 1 1 1 1 ",
"< 5 , B @.3.7.1.;.R ] ( u 9 9 t - / / - t < 1 3 7 8 8 8 4 1 1 1 2 6 w B #.3.7.1.:.{ ] ) u 9 5 t - W / - t 5 1 3 7 8 8 7 4 1 1 . ",
"# # d v N $.O.5.<.;.[ ` s 9 4 9 y - - $ , < 4 q r k k f q 4 2 < > u a v N $.O.2.>.;.[ ` s 7 4 > $ - - $ , < 3 q e k l r q 4 1 . ",
"~ Q ! c m Z F ..5.<.,.| g 0 1 < , t t , 5 4 7 r D %.%.D r 7 4 > # - ) c v Z G ..2.<.<.| g 8 2 < , t t , 5 4 7 r A @.%.A f 8 1 . ",
"T P / ( i w f A O.7.6.X.B q 1 1 2 < < 2 1 1 0 l @.3.3.%.k 8 6 t + / / Q a w r A -.7.6.X.B 0 1 1 2 < < 2 1 1 0 l @.3.-.@.k q 1   ",
"Y I P Q y 9 q C =.8.8.*.V q 1 X . 1 1 . X 1 q D *.8.7.=.B q 6 # Q P P Q # 9 q B =.7.9.*.B q 1 . . 1 1 . . 1 q V *.8.8.=.V q 1   ",
"U Y T Q @ < 7 l =.9.9.-.S q 1 .   . . .   1 q D -.0.0.-.C q 9 # W T T E @ 2 7 V =.9.9.-.D q 1 .   . .   . 1 q A -.0.0.-.S q 1 . "
};
