/* XPM */
static const char *sprite_7_20[] = {
/* columns rows colors chars-per-pixel */
"16 16 4 1 ",
"  c #000001",
". c #00424A",
"X c gray68",
"o c #FFFFFE",
/* pixels */
" oooooooooooooX ",
"o             o.",
"o ...oooXX ...o.",
"o ...oX.  X ..o.",
"o ..oXXX.  X .o.",
"o .oX.oX.X X .o.",
"o .X X  X  X .o.",
"o .oX.oX.X X .o.",
"o .X X  X  X .o.",
"o .oX.oX.X  ..o.",
"o ..X.  X ....o.",
"o ...oXX .....o.",
"o ...   ......o.",
"XoooooooooooooX.",
" .............. ",
"                "
};
