/* XPM */
static char *sprite_0_17_resized[] = {
/* columns rows colors chars-per-pixel */
"64 64 125 2 ",
"   c #000000",
".  c #0F0201",
"X  c #0D0D0D",
"o  c #120500",
"O  c #140A01",
"+  c #100C08",
"@  c #270200",
"#  c #2A0600",
"$  c #270805",
"%  c #2E0B00",
"&  c #250E0D",
"*  c #321200",
"=  c #361A02",
"-  c #3A1B00",
";  c #311E0D",
":  c #251717",
">  c #2C2117",
",  c #26221F",
"<  c #242626",
"1  c #3F3736",
"2  c #3F3F3F",
"3  c #430400",
"4  c #480B00",
"5  c #430D08",
"6  c #5C0600",
"7  c #4F1300",
"8  c #411917",
"9  c #690400",
"0  c #620F00",
"q  c #6D0900",
"w  c #720E00",
"e  c #6C1A00",
"r  c #6A140D",
"t  c #721100",
"y  c #7D1D00",
"u  c #701D0E",
"i  c #691F1A",
"p  c #5F2900",
"a  c #5E3108",
"s  c #59221F",
"d  c #563517",
"f  c #642F00",
"g  c #7D2000",
"h  c #772A00",
"j  c #782900",
"k  c #7A270B",
"l  c #79290E",
"z  c #653000",
"x  c #69201A",
"c  c #4C3928",
"v  c #443D36",
"b  c #573736",
"n  c #652725",
"m  c #692725",
"M  c #652827",
"N  c #692A26",
"B  c #6C3127",
"V  c #66322F",
"C  c #68332F",
"Z  c #733925",
"A  c #663230",
"S  c #693330",
"D  c #633F3F",
"F  c #75481F",
"G  c #7C4525",
"H  c #684E36",
"J  c #64403F",
"K  c #68413F",
"L  c #6C4A3F",
"P  c #71513F",
"I  c #775A3F",
"U  c #795C3F",
"Y  c #3E4242",
"T  c #564B4A",
"R  c #5C534A",
"E  c #565555",
"W  c #545658",
"Q  c #555858",
"!  c #634242",
"~  c #684342",
"^  c #654947",
"/  c #6A4A42",
"(  c #644748",
")  c #684948",
"_  c #725441",
"`  c #775B41",
"'  c #785D42",
"]  c #624F50",
"[  c #645655",
"{  c #685150",
"}  c #655856",
"|  c #6A5F55",
" . c #645C5C",
".. c #6B6056",
"X. c #66625E",
"o. c #6B625A",
"O. c #706151",
"+. c #615F61",
"@. c #646262",
"#. c #606569",
"$. c #646869",
"%. c #811E00",
"&. c #802000",
"*. c #862A00",
"=. c #8A2F00",
"-. c #8B3100",
";. c #813800",
":. c #85370C",
">. c #913A00",
",. c #874000",
"<. c #8A4100",
"1. c #80430C",
"2. c #8F460D",
"3. c #964100",
"4. c #994200",
"5. c #9E4B00",
"6. c #954E0D",
"7. c #96500E",
"8. c #99500E",
"9. c #8E511A",
"0. c #A14C00",
"q. c #824E26",
"w. c #865426",
"e. c #895626",
"r. c #82582F",
/* pixels */
"                                                            . @ 3 6 9 9 9 9 9 9 9 9 9 9 9 9 r M ( [ [ ! M r q 9 9 9 9 9 9 9 9 9 ",
"                                                            . @ 3 6 q w q q 9 q q q 9 9 9 q r M ! } [ / B r q 9 9 q q q 9 q 0 9 ",
"                                                            . # 4 0 t t t t t w t t t t w t u B / } [ ! M r q q q t t t t t t t ",
"                                                            o % 7 e y g &.g y g g g y y y g l Z / } } ! N r q w t g g g g g y g ",
"                                                            o * p h -.-.-.-.-.-.-.-.-.-.-.-.:.G _ | [ ! M r t t g *.-.;.-.-.-.-.",
"                                                            O - p ;.3.4.4.4.3.3.3.>.3.>.3.3.2.q.` | [ ! M r q y *.>.3.4.3.3.3.3.",
"                                                            O - p ,.5.0.0.5.5.5.5.5.5.5.5.5.6.w.` ..} ! M r t y -.3.5.5.5.5.5.5.",
"                                                            O - z <.0.0.0.5.5.5.5.0.5.0.0.5.6.e.` ..[ J M r w y -.4.5.0.5.5.5.5.",
"                                                            O - z ,.5.0.0.0.0.5.5.5.5.0.0.0.6.e.' | [ D n r t y -.4.5.0.0.5.0.5.",
"                                                            O - z ,.5.0.0.5.5.5.5.5.5.5.5.5.6.e.` | [ D n r t y -.3.5.5.5.5.5.5.",
"                                                            O = a 1.6.8.8.8.6.6.6.6.6.6.6.6.9.r.' o. .( V i u k :.2.6.6.7.7.7.6.",
"                                                            O ; d F e.e.e.w.w.w.w.w.w.w.e.e.r.' ..X. .] D A B Z G w.w.w.w.w.w.w.",
"                                                            + > c H U ' ' ' ' ' ' ' ' ' ' ' ' ..o.@.@. .{ ^ / / _ ` ' ' ' ' ' ' ",
"                                                            X , v R | ....O.| | | | | | | | | X.X.@.X.X. .} [ } } | | | ........",
"                                                            X < 2 E @.@.+.} } [ [ [ [ [ [ [ [ [ [ } [ [ [ [ [ [ [ [ [ [ [ { } [ ",
"                                                            X < Y W +. .{ ) ~ ! ! D ! ! ! ! ! ! ! J J J ! ! ( ! ! ! ! ! D T ! ! ",
"                                                            X < Y W  .{ K V n m M M M M M M M M M n n n M M M M M M M M M M M M ",
"                                                            X < Y E  .) S i r r r r r r r r r r r r r r r r r r r r r r r r r r ",
"                                                            X < T E [ ~ N r q q q t t t t t t t t t t t t t t t t t t t t t t t ",
"                                                            X < 2 E [ ~ m r q w w y y g y y y y y y y y y y y y g y y y y y y y ",
"                                                            X < 2 W E ! N r w t y *.=.-.-.-.-.-.-.-.-.-.=.=.=.=.=.=.=.=.=.-.-.-.",
"                                                            X < 2 W [ ~ m r t y *.>.3.3.3.3.3.3.3.3.3.3.3.3.3.3.3.3.3.3.<.3.3.3.",
"                                                            X < Y E [ ! m r t y -.3.5.5.5.5.5.5.5.5.5.5.5.5.5.5.5.5.5.5.5.5.5.5.",
"                                                            X < Y E [ ~ m r w y -.4.5.5.0.5.5.5.5.5.5.5.5.5.5.5.5.5.5.5.5.5.5.5.",
"                                                            X < Y E [ ! m r t %.=.4.5.0.5.0.5.5.5.5.5.5.5.5.5.5.5.5.5.5.5.5.5.0.",
"                                                            X < Y E [ ~ m r t y =.3.5.5.5.5.5.5.5.5.5.5.5.5.5.5.5.5.5.5.5.5.5.5.",
"                                                            X < Y E  .) S x u k :.2.6.7.7.7.6.6.6.6.6.6.6.6.6.6.6.6.6.7.6.7.6.6.",
"                                                            X < Y E  .{ ! S B Z G w.w.w.e.w.w.w.w.w.w.w.w.w.w.w.w.w.w.w.w.w.w.w.",
"                                                            X < T Q @. .{ ) / / _ ` ` ' ' ' ' ' U I U I ' ' ' ' ' ' ' ' ' ' ' ' ",
"                                                            X < 1 E @.@. . .} } |  .| | | | | | | | ..| | | | | | | | | ........",
"                                                            X : 1 T [ } } } [ [  .{ [ [ [ [ {  .+.@.@. . .} [ [ [ [ [ [ [ [ [ [ ",
"                                                            X : < b J ~ ~ ~ ! ! ! ! ! D D ! T ]  .+.@.} { ( ! ! ! ! ! ! D D D T ",
"                                                            . & 8 s m N m N N M M M M n n n A D ]  . .[ ! V M n n n M M M M M M ",
"                                                            . $ 5 r r r r r r r r r r r r r x A ^ }  .( A i r r r r r r r r r r ",
"                                                            . # 4 0 t t t t t t t t t w w w u B / [ [ ! m r q q w w w t t t t t ",
"                                                            o % 7 e y y %.g y y y y y %.y y k Z L [ [ ! m r q w t y y y y y y y ",
"                                                            o * p j =.-.-.-.-.=.=.=.=.-.=.=.:.G _ | [ ! n r w t g *.-.-.-.-.-.-.",
"                                                            O - f ;.>.4.5.>.3.4.3.3.3.>.>.3.2.q._ | [ ! M r q y *.>.3.3.3.3.3.3.",
"                                                            O - f ;.5.0.5.5.5.5.5.4.5.5.0.0.6.e.` ..} ! n r t y -.3.5.5.5.5.5.5.",
"                                                            O - z >.0.0.0.0.0.5.0.5.5.0.0.0.6.e.' ..[ ! n r w y =.4.5.0.5.5.5.5.",
"                                                            O - z ,.5.0.0.0.0.5.5.5.5.0.0.5.6.e.' | [ D n r t y =.4.5.0.0.5.0.5.",
"                                                            O - z ,.5.0.0.5.5.5.5.5.5.5.5.5.6.e.` | [ ! n r t y =.3.5.5.5.5.5.5.",
"                                                            O = a 1.6.8.8.8.6.6.6.6.6.6.6.6.9.r.' o. .( V i u k :.2.6.7.7.7.7.6.",
"                                                            + ; d F e.e.e.w.w.w.w.w.w.w.e.e.r.' ..X. .] D A B Z G q.e.w.w.w.w.w.",
"                                                            X ; c H U ' ' ' ' ' ' ' ' ' ' ' ' ..o.@.@. .{ ^ / / _ ` ' ' ' ' ' ' ",
"                                                            X < v R | ....O.| | | | | | | | | X.X.X.X.X. .} [ } } | | ..........",
"                                                            X < 2 E @.@.+.} } [ [ [ [ [ [ [ [ [ [ [ [ [ [ [ [ [ [ [ { [ [ [ } } ",
"                                                            X < Y W +. .{ ) ~ ! D ! ! ! ! ! ! ! ! J J ! ! ! ! ( ! ! D D T ! ! ! ",
"                                                            X < Y W  .{ K V n m M M M M M M M M M n n n M M M M M M M M M M M M ",
"                                                            X < T E  .) S i r r r r r r r r r r r r r r r r r r r r r r r r r r ",
"                                                            X < 2 W [ ~ N r q q q t t t t t t t t t t t t t t t t t t t t t t t ",
"                                                            X < 2 E [ ~ m r q w t y y y y y y y y y y y y y y y g y y y y y y y ",
"                                                            X < 2 W E J N r w t y =.=.-.-.-.-.-.-.-.-.-.=.=.=.=.=.=.=.=.=.-.-.-.",
"                                                            X < Y W [ ~ N r w y *.-.3.3.3.3.3.3.3.3.3.3.3.3.3.3.3.3.3.3.<.3.3.3.",
"                                                            X < Y E [ ! m r t y -.3.5.5.5.5.5.5.5.5.5.5.5.5.5.5.5.5.5.5.5.5.5.5.",
"                                                            X < Y E [ ~ m r w y -.4.5.0.5.5.5.5.5.5.5.5.5.5.5.5.5.5.5.5.5.5.5.5.",
"                                                            X < Y E [ ~ m r w %.=.3.5.0.0.0.5.5.5.5.5.5.5.5.5.5.5.5.5.5.0.5.5.5.",
"                                                            X < T E [ ~ m r t y -.3.5.5.5.5.5.5.5.5.5.4.5.5.5.5.5.5.5.4.5.5.5.5.",
"                                                            X < 2 E E ) C x u k :.2.6.7.7.6.6.6.6.6.6.6.6.6.6.6.6.6.6.6.6.6.6.6.",
"                                                            X < 2 E Q { K C N Z G q.w.w.w.w.w.w.w.w.w.w.w.w.w.w.w.w.w.w.w.w.w.w.",
"                                                            X < T E  .} { ) L L P I ` I ` I ` ` ` I ` I ` ` I I ` ` ` ` ` ` I I ",
"                                                            X < 1 W @. . . .} [ } ..........| ..| ..........| ..| | | ..| | | | ",
"                                                            X < 2 W @.$.$.@.@.@.@.@.@.@.@.@.@.@.@.@.@.@.@.@.@.@.@.@.@.@.@.@.@.@.",
"                                                            X < 2 W @.$.$.$.$.$.#.#.#.#.#.#.#.#.#.#.#.#.#.#.#.#.#.#.#.#.#.#.#.#."
};
