/* XPM */
static const char *sprite_7_17[] = {
/* columns rows colors chars-per-pixel */
"16 16 4 1 ",
"  c #000001",
". c #00424A",
"X c gray68",
"o c #FFFFFE",
/* pixels */
" oooooooooooooX ",
"o             o.",
"o ....oXoX ...o.",
"o ....X   oX .o.",
"o ...XXXX    .o.",
"o ..XooooX ...o.",
"o .Xoo.oooX ..o.",
"o .Xoo.oooX ..o.",
"o .Xooo.ooX ..o.",
"o . XooooX ...o.",
"o .. XXXX ....o.",
"o ...    .....o.",
"o ............o.",
"XoooooooooooooX.",
" .............. ",
"                "
};
