/* XPM */
static char *sprite_7_16_resized[] = {
/* columns rows colors chars-per-pixel */
"64 64 180 2 ",
"   c #000101",
".  c #090607",
"X  c #000709",
"o  c #01090B",
"O  c #0F0E0F",
"+  c #000F13",
"@  c #001216",
"#  c #001518",
"$  c #00191D",
"%  c #141314",
"&  c #181616",
"*  c #171718",
"=  c #181718",
"-  c #17191A",
";  c #1A1B1B",
":  c #001D23",
">  c #0A1E22",
",  c #151E20",
"<  c #0B2326",
"1  c #002429",
"2  c #0F272A",
"3  c #02292F",
"4  c #192022",
"5  c #002D33",
"6  c #082C31",
"7  c #142D31",
"8  c #1B2F32",
"9  c #003037",
"0  c #00333A",
"q  c #0C353A",
"w  c #00383F",
"e  c #153236",
"r  c #1C3033",
"t  c #232424",
"y  c #2B2626",
"u  c #252C2E",
"i  c #2C2C2D",
"p  c #253335",
"a  c #27383A",
"s  c #383536",
"d  c #373B3C",
"f  c #3E3C3C",
"g  c #413E3E",
"h  c #003740",
"j  c #003C43",
"k  c #003F48",
"l  c #433F40",
"z  c #014047",
"x  c #00434B",
"c  c #0A444B",
"v  c #1E4246",
"b  c #14464C",
"n  c #0D4B53",
"m  c #144D54",
"M  c #165057",
"N  c #165259",
"B  c #1A545B",
"V  c #2B4246",
"C  c #24494D",
"Z  c #3B4142",
"A  c #225359",
"S  c #285258",
"D  c #1F5960",
"F  c #235C63",
"G  c #2A5E64",
"H  c #345D62",
"J  c #366065",
"K  c #36646A",
"L  c #35696F",
"P  c #3D696E",
"I  c #386C72",
"U  c #424242",
"Y  c #4A4545",
"T  c #434A4B",
"R  c #4E4D4D",
"E  c #504E4E",
"W  c #474F50",
"Q  c #435A5D",
"!  c #4A595B",
"~  c #555555",
"^  c #5D5C5C",
"/  c #615F5F",
"(  c #5D5F60",
")  c #456064",
"_  c #406A6F",
"`  c #5F6161",
"'  c #436D72",
"]  c #526D70",
"[  c #437177",
"{  c #4B757A",
"}  c #4A767B",
"|  c #557174",
" . c #517579",
".. c #5C7679",
"X. c #5D787C",
"o. c #646263",
"O. c #636A6B",
"+. c #6D6B6C",
"@. c #726F6F",
"#. c #61797C",
"$. c #757373",
"%. c #767777",
"&. c #7A7A7A",
"*. c #527E83",
"=. c #598286",
"-. c #5C868A",
";. c #5F8A8E",
":. c #648286",
">. c #64868A",
",. c #6E8689",
"<. c #618A8E",
"1. c #70898C",
"2. c #7B8A8C",
"3. c #648D92",
"4. c #748D90",
"5. c #659095",
"6. c #659398",
"7. c #7D9597",
"8. c #75999C",
"9. c #828283",
"0. c #8A8787",
"q. c #818A8B",
"w. c #8A8989",
"e. c #819294",
"r. c #829A9D",
"t. c #8C9A9C",
"y. c #959595",
"u. c #979A9B",
"i. c #9B9A9A",
"p. c #8A9EA0",
"a. c #979FA0",
"s. c #8CA9AC",
"d. c #95A1A2",
"f. c #9DA2A3",
"g. c #9EA7A8",
"h. c #91A9AC",
"j. c #9CB3B5",
"k. c #9EB5B8",
"l. c #A5A3A3",
"z. c #A8A8A8",
"x. c #ADADAD",
"c. c #B0AFAE",
"v. c #ACB0B1",
"b. c #AAB7B8",
"n. c #A6BDBF",
"m. c #ACBBBD",
"M. c #B3B3B3",
"N. c #B8B7B6",
"B. c #B3BBBB",
"V. c #BBBBBA",
"C. c #A6BEC0",
"Z. c #A8BFC1",
"A. c #ABC1C3",
"S. c #ADC6C8",
"D. c #B1C3C5",
"F. c #BEC9CA",
"G. c #BFD0D1",
"H. c #C4C4C4",
"J. c #C4CCCD",
"K. c #CCCCCC",
"L. c #D1CFCE",
"P. c #D1D0CF",
"I. c #CEDCDC",
"U. c #D4D4D3",
"Y. c #D9D8D7",
"T. c #D3DCDC",
"R. c #DCDCDB",
"E. c #E3E0DF",
"W. c #DBE4E5",
"Q. c #DEE7E8",
"!. c #E4E4E3",
"~. c #E9E7E6",
"^. c #EAE8E7",
"/. c #E3EAEA",
"(. c #ECEBEA",
"). c #E9F0F0",
"_. c #F4F5F4",
"`. c #F9F6F5",
"'. c #FCF9F7",
"]. c #FEFEFE",
/* pixels */
"    = ~ f.!.].].].].].].].].].].].].].].].].].].].].].].].].].].].].].].].].].].].].].].].].].].].].].].].].].(.Y.M.y.o.s %     ",
"    t ^ i.R.].].].].].].].].].].].].].].].].].].].].].].].].].].].].].].].].].].].].].].].].].].].].].].].'._.!.U.N.y.+.d *     ",
"- t f o.y.H.R.!.!.R.R.R.R.R.R.R.R.R.R.R.R.R.R.R.R.R.R.R.R.R.R.R.R.R.R.R.R.R.R.R.R.R.R.R.R.R.R.R.R.R.R.R.R.R.Y.U.K.V.i.$.U 4 o   ",
"~ ^ o.%.w.i.l.l.l.l.l.l.l.l.l.l.l.l.l.l.l.l.l.l.l.l.l.l.l.l.l.l.l.l.l.l.l.l.l.l.l.l.l.l.l.l.l.l.l.l.l.l.l.l.z.N.H.H.v.2.! 8 $ + ",
"l.i.y.w.%.+.o./ ^ / / o./ / / / o./ / / / / / / / / / / / / / / / / / / / / / / / o./ / / / / / o./ / / ^ / $.y.N.K.H.p.] v 3 : ",
"!.R.H.i.O.f t ; ; t t t t t t t t t t t t t t t t t t t t t t t t t t t t t t t t t t t t t t t t t t , ; t U %.x.Y.I.j.=.A j 5 ",
"].].R.l.o.t .     o o o o o o o o o o o o o o o o o o o o o o o o o o o o o o o o o o o o o o o o o o     o u O.x.R.W.C.3.F x j ",
"].].!.l.^ ;       o + + @ + + @ + + @ + + @ + + + + @ + @ + @ + + @ + @ + + + @ + + + @ + @ + + + + + o X @ r O.x.W.W.A.3.F x j ",
"].].E.z./ ,     + : 1 1 1 1 1 1 1 1 1 1 1 1 1 1 1 1 1 1 1 1 1 1 1 1 1 1 1 1 1 1 1 1 1 1 1 1 1 1 1 1 1 : : 1 C #.b.W.W.A.3.F x j ",
"].].R.l./ t o o : 5 j j j w w w h h w w w w w h w w w w w w h h w w w w w w w w w w w w j j w w w h w 0 5 w A <.n.W.W.n.<.F x j ",
"].].R.l./ t o + 1 h x x x x x z x x x x k k x x k x x k k k k x x x z x x k x x x x k x x x x x k k x j j x F 3.Z.W.W.n.<.F x h ",
"].].R.l./ t o @ 1 j x x x x x x x x x x x k j k k j k k k k k k k x j x k x x x x x x x x x x x x x x k k x F 3.A.W.W.n.<.F x h ",
"].].R.l./ t o + 1 j x x x x x n x x x x k k j j j k j k k j k k j x x j x k x x x x x x x x x x x x x x j x F 3.Z.W.W.n.<.F x h ",
"].].R.l./ t o @ 1 j x x x x x x x x x x x x x x x x x x x x x x x x x x x x x x x x x x x x x x x x x k j x F 3.A.W.W.n.<.F x h ",
"].].R.l./ t o + 1 j x x x x x x x x x n N D F F F F F F F F F A B B M M B M m c c j j j x x x x x x k j j x F 3.Z.W.W.n.<.F x j ",
"].].R.l./ t o + 1 w x x x x x x j j n D L *.-.3.<.;.;.3.;.;.-.*.{ ' _ _ _ P H S b 5 3 5 w j x x x x x k j x F 3.A.W.W.n.<.F x w ",
"].].R.l./ t o + 1 w k x x x k j j j n L 3.s.k.A.Z.n.C.C.C.C.j.h.7.4.,.1.1.,...Q a < $ 1 9 j x x x x x j j x F 3.Z.W.W.n.;.F x h ",
"].].R.l./ t o + 1 w x x x x x x j x D *.s.G.W././.W.W.!.Q.W.T.J.m.z.d.d.d.u.q.o.Z - @ $ 3 j x x x x x j j x F 3.Z.W.W.C.;.F x h ",
"].].R.l./ t o @ 1 w x x x x x c n D I 8.S./.].].]._._._._._./.Y.H.V.x.x.M.x.y.%.R u - < 3 0 j j k k x j j x F 3.Z.W.W.C.<.F x h ",
"].].R.l./ t o + 1 w x x x x n D L =.8.C.I._.].].`.(.~.^.^.^.E.U.H.N.c.M.N.c.l.0.+.R d p 7 6 5 0 j k k k j x F 3.A.!.W.C.<.F x h ",
"].].R.l./ t o @ 1 w k x k x N L 3.s.S.I.).].]._.^.Y.P.P.P.P.L.H.V.N.c.M.M.c.z.i.0.%.` T a < : 1 5 j x j j x F 3.Z.W.W.n.<.F x h ",
"].].R.l./ t o + 1 w k k k x D *.s.G./._.].'.`.!.U.H.V.N.N.N.N.M.M.c.x.c.M.x.x.z.l.y.9.( d - @ $ 3 j x j k x F 3.Z.W.W.n.<.F x h ",
"].].R.l./ t o @ 1 w k k j x F -.k.W.].].].`.(.R.H.N.v.x.x.x.x.x.x.x.x.x.x.x.x.c.M.x.y.+.f = o @ 1 w x k k x F 3.A.W.W.n.3.F x h ",
"].].R.l./ t o + 1 h x k k x F <.A./.].].`.!.Y.K.V.c.x.z.z.z.x.z.x.x.x.x.x.x.x.M.N.M.i.@.g & o + 1 j j x j x F 3.Z.W.W.n.<.F x h ",
"].].R.l./ t o + 1 w x j k x F 3.A./.].'.~.U.H.V.N.c.x.z.z.x.x.x.x.x.x.x.x.x.v.N.N.v.i.@.g = o @ 1 w x k j x F <.A.W.W.n.<.F x h ",
"].].R.l./ t o @ 1 w x x j x F 3.C.W.`.(.Y.H.N.M.c.x.x.x.x.x.x.x.x.x.x.x.x.c.x.M.M.x.y.+.g = o @ 1 h k k j x F 3.A.W.W.n.<.F x h ",
"].].R.l./ t o + 1 w j x k x F -.j.T.(.!.K.N.x.x.x.x.x.v.x.x.x.x.x.c.x.x.x.x.x.M.M.x.u.+.g = o @ 1 j k k k x F 3.Z.W.W.n.<.F x h ",
"].].R.l./ t o + 1 w x j j j B *.s.J.Y.U.H.M.z.z.z.x.x.x.x.c.v.x.x.x.x.x.x.x.x.M.M.x.y.+.f - o @ 1 w x k k x F 3.A.W.W.n.<.F x h ",
"].].R.l./ t o @ 1 w x k j k B [ 7.b.H.H.V.c.z.x.x.x.x.x.x.x.x.x.v.x.x.x.x.x.x.M.M.x.y.+.f = o @ 1 j z j k x F 3.Z.W.W.n.<.F x j ",
"].].R.l./ t o + 1 w x x x x B ' 4.z.N.N.N.c.x.x.x.x.x.x.x.x.x.x.x.x.x.x.x.x.x.M.M.x.y.+.g - o @ 1 j x x k x F 3.Z.W.W.n.<.F x w ",
"].].R.l./ t o + 1 w x c n m G  .4.d.v.M.c.c.x.x.x.x.x.x.c.x.x.x.c.x.x.x.x.x.x.M.M.z.y.+.f * o @ 1 w x j j x F 3.A.W.W.n.<.F x h ",
"].].R.l./ t o + 1 w c N F P  .,.t.l.v.M.M.M.M.M.M.M.M.M.M.M.M.v.M.x.x.x.x.x.x.M.N.z.y.+.f % X + 1 j x x j x F 3.Z.W.W.C.<.F x h ",
"].].R.l./ t o + 1 w m G { :.7.t.g.x.v.N.M.M.M.N.M.c.M.M.M.M.M.c.x.x.x.x.x.x.v.M.M.x.y.+.s % X + 1 w x x j x F 3.A.W.W.n.<.F x h ",
"].].R.l./ t o + : j m K X.e.a.l.z.z.x.x.x.x.x.x.x.x.x.z.x.x.x.c.x.x.x.x.x.x.x.M.M.x.y.+.g = o @ 1 j x j j x F 3.A.W.W.n.<.F x h ",
"].].R.l./ t o o 1 w m J X.q.y.i.y.y.y.y.y.y.y.y.y.y.y.y.y.y.y.f.l.z.M.x.x.x.x.M.M.x.i.%.E i , > 3 0 j w j x F 3.A.W.W.n.<.F x h ",
"].].R.l./ t o + 1 w m S ) O.@.@.@.@.+.+.+.+.+.+.@.+.+.+.+.@.%.9.i.z.M.M.M.M.M.N.N.c.l.w.+.~ Z a 8 6 5 5 0 j F 3.A.W.W.n.<.F x h ",
"].].R.l./ t o @ 1 w j v V Z U U g g f g f g f f f g f f d g R +.w.l.M.N.N.M.M.N.N.M.z.f.y.&.O.W a < : : 5 j F 3.A.W.W.n.<.F x j ",
"].].R.l./ t o @ 1 w j q 2 - = = & = - - & - - = & - % % % = i R %.u.z.M.v.x.x.z.x.x.z.z.l.y.9.^ d - + # 1 j F 3.A.W.W.n.<.F x w ",
"].].R.l./ t o @ 1 w j 9 1 @ o o o o o o o o o o o o o X X o - f ` 9.y.i.i.y.y.y.y.y.y.i.y.y.9.^ s % o + : j F 3.A.W.W.n.<.F x h ",
"].].R.l./ t o @ 1 w j 0 1 $ @ @ @ @ @ @ @ @ @ @ @ @ @ @ + # < p T ` +.@.@.@.+.+.+.+.@.@.%.@.o.Y y O X o : j F 3.A.W.W.C.<.F x h ",
"].].R.l./ t o @ 1 w j j 5 5 1 1 1 1 1 1 3 1 1 3 1 1 3 1 1 1 3 7 a d f l g f g f g f g U Y U d y & . X + : j F 3.A.W.W.n.;.F x h ",
"].].R.l./ t o + 1 w x x j j w j w w w j w w w w j j j j w j 0 6 < - * * & & - * - * = = = = % O .   X @ 1 j F 3.A.W.W.n.<.F x h ",
"].].R.l./ t o + 1 h x x x x x x x x x x x x x x x x x x x x j 5 : @ o o o o o o o o o o o o o X X o @ $ 1 j F 3.S.W.W.n.<.F x h ",
"].].R.l./ t o @ 1 j x x x x x x x x x x x x x x x x x x x x j 0 1 $ @ @ + @ @ $ @ @ # @ @ @ @ $ @ $ : 1 5 j F 3.A.W.W.C.<.F x h ",
"].].R.l./ t o + 1 w k x x x x x x x x x x x x x x x x x x x j j 9 3 1 1 1 1 1 1 1 1 1 1 1 1 1 1 1 3 5 5 0 k F 3.Z.W.W.n.<.F x j ",
"].'.R.l./ t o + 1 w x x x x x x x x x x x x x x x x x x x x x j j j w w w j w w j j w w j j w w j w j w h x F 3.A.W.W.C.<.F x w ",
"].].R.l./ t o + 1 w x x x x x x x x x x x x x x x x x x x x x x z x j x x k x k z x x x z x x k x x z j j x F 3.Z.W.W.n.<.F x h ",
"].].R.l./ 4   o : 0 j k k x j k j j j j j j x j j k j j j j k j j x x k j x j x j x j k j x j x x j j j h k A <.A.W.W.Z.3.F x h ",
"].].R.l.^ ;   X : 0 j k j k j j j j j j j j j j j j j j j j j j j j k j j k j j k j j j j x j j j j j j h j D ;.Z.W.Q.Z.3.F x h ",
"].].R.l.o.t o @ 1 w x x x x x x x x x x x x x x x x x x x x x x x x x x x x x x x x x x x x x x x x x j k x F 3.A.W.W.C.;.F x h ",
"]._.R.z.@.g u 8 v A F F F F F F F F F F F F F F F F F F F F F F F F F F F F F F F F F F F F F F F F F D B F ' 8.D.T.T.k.=.F x j ",
"(.!.U.N.y.$.+.| #.>.3.3.3.3.3.3.3.3.<.3.3.3.3.<.3.3.3.3.3.<.3.3.3.3.3.3.3.3.3.3.3.3.3.3.3.3.3.<.3.3.3.;.<.3.8.j.F.Y.J.h.*.F x j ",
"U.U.K.H.N.c.z.v.b.Z.A.A.A.A.A.A.A.A.A.A.A.A.A.A.Z.A.A.A.A.A.A.A.A.A.A.A.A.A.A.A.A.A.A.A.A.A.A.A.Z.Z.A.A.A.A.A.F.J.K.B.r.} B x k ",
"N.N.V.H.K.Y.R.W.W.W.W.W.W.W.W.W.W.W.W.W.W.W.W.W.W.W.W.W.W.W.W.W.W.W.W.W.W.W.W.W.W.W.W.W.W.W.W.W.W.W.W.W.W.W.W.Y.K.V.g.1.' M x j ",
"y.y.a.v.H.T.W.Q.W.W.W.W.W.Q.W.W.W.W.W.W.W.W.W.W.W.W.W.W.W.W.W.W.W.Q.W.W.W.W.W.W.W.W.W.W.W.W.W.W.W.W.W.Q.Q.W.T.J.Z.z.e...H b j 0 ",
"o.+.%.q.d.k.S.S.S.A.A.A.A.A.A.A.A.A.A.S.A.A.A.A.A.A.A.A.A.A.S.A.A.A.A.A.A.A.A.S.A.A.A.A.A.A.S.A.A.A.A.S.S.A.n.h.p.4...) C q 5 1 ",
"d f T ! | -.5.6.6.3.3.3.3.3.5.3.3.3.3.3.3.5.3.3.3.3.3.3.5.3.3.3.3.5.3.3.3.3.3.3.3.3.3.3.3.5.3.3.3.3.5.3.5.5.;.-.*.I H C e < $ @ ",
"& & 4 8 V A F F F F F F F F F F F F F F F F F F F F F F F F F F F F F F F F F F F F F F F F F F F F F F F F D A B B b q < @ o X ",
"    o # 1 9 w j j j j w w w j j w w j w j w w w j j w j j j w w j h j w w w j j w w j w j w w w j w w j j j j j j j 0 1 # o     ",
"      o # : 1 1 1 1 1 1 1 1 1 1 1 1 1 1 1 1 1 1 1 1 : 1 1 1 1 1 1 1 1 1 1 1 1 1 1 1 1 1 1 1 1 1 1 1 : 1 1 1 1 1 1 1 : $ o       ",
"        o + @ @ @ @ @ @ @ @ @ @ @ @ @ @ @ @ @ @ @ @ @ @ @ @ @ @ @ @ @ @ @ @ @ @ @ @ @ @ @ @ @ @ @ @ @ @ @ @ @ @ # # @ o o       ",
"        X X X o o o X o X X o o X o o o o o X o X X o o X o o o o o X o X X o o X o o o o o X o o X o o X o o o o o X X         ",
"                                                                                                                                ",
"                                                                                                                                "
};
