/* XPM */
static const char *sprite_7_16[] = {
/* columns rows colors chars-per-pixel */
"16 16 4 1 ",
"  c #000001",
". c #00424A",
"X c gray68",
"o c #FFFFFE",
/* pixels */
" oooooooooooooX ",
"o             o.",
"o ............o.",
"o ............o.",
"o ...oooXX ...o.",
"o ..ooXXXXX ..o.",
"o ..oXXXXXX ..o.",
"o ..XXXXXXX ..o.",
"o .XXXXXXXX ..o.",
"o .     XXXX .o.",
"o ......     .o.",
"o ............o.",
"o ............o.",
"XoooooooooooooX.",
" .............. ",
"                "
};
