/* XPM */
static char *sprite_8_17_resized[] = {
/* columns rows colors chars-per-pixel */
"64 64 244 2 ",
"   c #000001",
".  c #06010A",
"X  c #09010E",
"o  c #070908",
"O  c #0C0C0D",
"+  c #0C0212",
"@  c #0F0416",
"#  c #130C17",
"$  c #14021D",
"%  c #0F1010",
"&  c #131414",
"*  c #171817",
"=  c #171718",
"-  c #1D1D1E",
";  c #2B0C0F",
":  c #1E221E",
">  c #160121",
",  c #1A0325",
"<  c #1A0823",
"1  c #1D0229",
"2  c #1F1F20",
"3  c #2A0627",
"4  c #21022F",
"5  c #221F24",
"6  c #240233",
"7  c #260835",
"8  c #2B003D",
"9  c #2D0D3B",
"0  c #2B1535",
"q  c #311339",
"w  c #232323",
"e  c #2A202E",
"r  c #382726",
"t  c #2D2432",
"y  c #2F2239",
"u  c #35273C",
"i  c #343734",
"p  c #3B3C3B",
"a  c #460C0B",
"s  c #4E1112",
"d  c #65180E",
"f  c #751914",
"g  c #77261A",
"h  c #5F1F20",
"j  c #530533",
"k  c #59332D",
"l  c #782E25",
"z  c #3F403F",
"x  c #2D0142",
"c  c #2F0841",
"v  c #310544",
"b  c #35034A",
"n  c #350849",
"m  c #361744",
"M  c #371449",
"N  c #3A0355",
"B  c #3A2544",
"V  c #3F3C41",
"C  c #41005F",
"Z  c #430A5B",
"A  c #441857",
"S  c #491C5C",
"D  c #6F134B",
"F  c #45334E",
"G  c #49255A",
"H  c #6C2B57",
"J  c #490267",
"K  c #4E0C6A",
"L  c #530B6E",
"P  c #4C1D63",
"I  c #561367",
"U  c #550A75",
"Y  c #5C157B",
"T  c #671874",
"R  c #532865",
"E  c #563167",
"W  c #612779",
"Q  c #632A7B",
"!  c #7A2B77",
"~  c #653B79",
"^  c #414141",
"/  c #4B4A4C",
"(  c #514F4D",
")  c #4C4251",
"_  c #524957",
"`  c #545454",
"'  c #59565A",
"]  c #6E5853",
"[  c #5E635D",
"{  c #65625F",
"}  c #5D4A66",
"|  c #685C6F",
" . c #674376",
".. c #636563",
"X. c #676669",
"o. c #6C6C6C",
"O. c #746F71",
"+. c #736B76",
"@. c #871C0E",
"#. c #8A2518",
"$. c #9E281C",
"%. c #A5291B",
"&. c #B52E1E",
"*. c #B8321F",
"=. c #881B31",
"-. c #823A30",
";. c #A62C25",
":. c #B53121",
">. c #BC3524",
",. c #A43034",
"<. c #C0351F",
"1. c #C13521",
"2. c #8C4034",
"3. c #B0473A",
"4. c #C44939",
"5. c #801C52",
"6. c #932C4F",
"7. c #A33D56",
"8. c #89326C",
"9. c #954A4B",
"0. c #B34849",
"q. c #AA4B58",
"w. c #A74C69",
"e. c #8C6D6B",
"r. c #B2716A",
"t. c #C76358",
"y. c #D36656",
"u. c #C9726B",
"i. c #CB7C78",
"p. c #CD827F",
"a. c #D4847B",
"s. c #661B83",
"d. c #692586",
"f. c #6E2B8A",
"g. c #702D8C",
"h. c #753288",
"j. c #753B90",
"k. c #744A86",
"l. c #7E4696",
"z. c #7A6885",
"x. c #7D6B8A",
"c. c #8F4C8F",
"v. c #814797",
"b. c #834B9B",
"n. c #865898",
"m. c #8A5C9D",
"M. c #88718F",
"N. c #896897",
"B. c #B37294",
"V. c #8D5BA3",
"C. c #935FA6",
"Z. c #8D65A2",
"A. c #9767A9",
"S. c #9A6CAD",
"D. c #9C74AC",
"F. c #9D6CB3",
"G. c #9F73B3",
"H. c #A16FA8",
"J. c #A676AC",
"K. c #A06CB6",
"L. c #A275B3",
"P. c #A57BB8",
"I. c #C27888",
"U. c #8A8B8A",
"Y. c #8F918E",
"T. c #8F8A90",
"R. c #948D96",
"E. c #959496",
"W. c #9F9C9D",
"Q. c #AD87AC",
"!. c #A197A5",
"~. c #AA87B9",
"^. c #B489B6",
"/. c #AB95B3",
"(. c #AE97B7",
"). c #B394BC",
"_. c #A6A6A6",
"`. c #ABABAB",
"'. c #ADB1AB",
"]. c #B2ABB2",
"[. c #B5B4B7",
"{. c #BDBDBD",
"}. c #DC9283",
"|. c #D2908D",
" X c #CD8B92",
".X c #DD9B92",
"XX c #E4A497",
"oX c #CA98AB",
"OX c #CC9CB1",
"+X c #DAA8AB",
"@X c #CFB3B2",
"#X c #E4ADA3",
"$X c #E9B3AA",
"%X c #E4B8B5",
"&X c #EEC3BB",
"*X c #AD83C0",
"=X c #B48BC5",
"-X c #BA99C5",
";X c #B899C6",
":X c #BCA7C7",
">X c #BCB2C0",
",X c #C19DCC",
"<X c #C5A7CA",
"1X c #C7BCCA",
"2X c #D8B6C9",
"3X c #C3A4D1",
"4X c #C9AED4",
"5X c #C9ADD6",
"6X c #CBB3D5",
"7X c #CEB4DA",
"8X c #D1B7DC",
"9X c #E3BAC1",
"0X c #D5BAE0",
"qX c #C9C6CB",
"wX c #D6C4C2",
"eX c #CDC4D1",
"rX c #D4C2DB",
"tX c #DAC5DB",
"yX c #D4DBD4",
"uX c #DCDCDC",
"iX c #EBCBC7",
"pX c #E2C9D4",
"aX c #F5DDD5",
"sX c #E8E1DF",
"dX c #DCCCE6",
"fX c #DED2EC",
"gX c #E3D8EA",
"hX c #E7DDEA",
"jX c #E9DEEB",
"kX c #E8DAF1",
"lX c #DEE6E3",
"zX c #E2E3E2",
"xX c #EBE2ED",
"cX c #E8E8E8",
"vX c #F3E4E2",
"bX c #F5EAEB",
"nX c #EFF7EE",
"mX c #FCF5EC",
"MX c #EBE3F1",
"NX c #F2EAF5",
"BX c #F3EBF6",
"VX c #F8F5F6",
"CX c #FAF5FD",
"ZX c #FDFDFD",
/* pixels */
"                                                                                                                                ",
"                                                                                                                                ",
"                                              . . X X . .                   o O = - w * O o                                     ",
"                                            . X $ > > $ X                   O - p ( ` ^ w %                                     ",
"                                            X $ 4 8 8 4 @ .                 % p X.U.Y.o.^ *                                     ",
"                                            X 1 n Z Z n 4 X                 w ` E.{.{.Y.` -                                     ",
"    o O * - : = O o           . . + X .     @ 0 S W W P q < X         O % - p +._.eXqXE.' w                   O * - : = O o     ",
"    O w ^ ` ` z w o           X $ 1 1 $ X . & B  .N.m.k.R 9 > @   . O w i _ o.T.(.:X).M.F 2                 O w z ` ` ^ w O     ",
"    = V o.Y.Y.o.p O           $ 6 v v 6 $ . - ) M./.;XS.k.A 8 > + . & p ..Y.!./.~.D.N. .B &                 % p o.Y.Y.o.z =     ",
"    2 ` Y.{.{.E.` 5         + 1 v Z Z x > X w ` E.qX8X;XV.Q Z 8 $ + - ` Y.{.qX<XL.l.W A 7 @                 : ' E.{.{.Y.` :     ",
"    2 ` R.1XeX_.O.V w - : w e y M K N x $ + 2 ` Y.1XdX3XP.v.W n 1 @ w [ _.yXkX5XG.g.K x > +   o & - w : - w p +._.eX1XR.` 5     ",
"    - ) M.).:X(.T.+...[ [ { ' E G M x 1 + . = ) x.(.3X,X=XK.n.E 0 O - [ _.hXMX8XF.d.J x $ . o : p ` [ ..{ ..O.T.(.:X).M.F -     ",
"    # B  .m.L.~./._._.`.'._.E.O.F q > X .   % y } N.L.=X,X-X~.+.u & : [ _.uXMX8XK.f.J 6 $ . % i ..Y._.'.`._._./.~.D.n. .B #     ",
"    O 7 M Q l.S.-XeXuXcXcXuX>XY.' e @       @ 7 A W v.L.5XtXqXR.( w w [ _.yXhX7XK.f.K x > + : ` U.{.uXcXcXuXeX-XD.l.W A 0 @     ",
"    X , 8 Z Q V.).rXjXNXNXhXeX_.o.z 5 % O @ $ 6 N L g.F.5XjXuX'.O./ ^ o.'.uXcX5XF.f.L N 9 e V o.E.qXcXNXNXjX8X).m.Q Z 8 > X     ",
"    . @ 1 x A  .A.;X5X0X0X5X:X!.M.X.` V y 7 8 x b J s.A.4XcXnXqXE.O.O.W.qXnXxX5XF.f.Y R E ' X.x.!.-X4X7X8X6X;XD.~ A 8 > @ .     ",
"    . . @ > 9 R k.V.F.K.K.F.D.Q.!.!.T.+. .A N N C J d.C.4XxXnXcXqX'.'.qXcXnXMX5XS.g.W h.N.R.!.!.J.S.S.F.K.F.Z.k.G 9 , X . .     ",
"          + < 9 P W f.f.g.g.l.D.:XqXqX/.n.W K J J U g.A.3XjXCXZXnXzXcXcXnXCXhX<XZ.f.f.c.~.1XeX:XD.l.g.f.g.g.W P 9 < X           ",
"            X 1 c Z K U U U f.F.4XgXhX6XH.h.T L T f.b.P.7XxXZXZXZXZXZXCXVXMX8X^.n.h.h.H.<XcXxX8X~.l.f.s.Y K J v 6 $ + .         ",
"              @ 1 x b N J U f.F.7XNXBX2XI.8.H 8.j.C.~.3XdXCXZXZXZXZXZXNXdX4X).H.8.5.8.B.2XbXCXkX4XP.n.h.R N c 8 6 6 1 $ X .     ",
"              . + > 6 x N L g.K.8XBXbX9XI.7.7.w.B.).rXgXBXZXZXZXZXZXZXfX,XL.c.8.8.6.7.r.%XBXZXZXkX7X~.N.E 0 4 6 8 n c 6 $ X     ",
"                . + > 6 N K f.S.5XkXvX%Xi.7.7.t.oXtXcXBXCXZXZXmXZXZXMX5XP.b.h.5.6.,.0.I.$XvXZXZXCXcX1XR.' e > 1 b Z Z c 1 X     ",
"      . . X X . .   + > 8 N W V.;X8XpX+XI.y.y.i.XXiXsXsXzXzXaXsXcXvXpX<XJ.b.! 8.7.0.t.i.+XpXkXNXNXkXqXT.` 2 + > 8 Z Z v 1 X     ",
"    o @ $ 4 1 $ X   . + > x A ~ Z.^.OXoX|.a.i.}.XX#X#X+X`._._._.@X+X+XoXJ.H.C.B.I.I.}..XoX<X3X5X5X:X/.z.V #   X > 8 8 6 $ .     ",
"    . > 7 v v 7 $ .   . + > 7 A ~ l.A.Q.OX+X#XXX}.a.u.r.{ { { e.e.u.p.|.OX<X<X2X%X%X%XOX^.H.A.A.S.Z.n.E t X     + > $ $ X       ",
"    X 1 v Z Z v 1 X       + < 9 A Q b.J.<XpXiX$X}.y.3.l k r r k l 3.y.a.+XpXxXxXbXvXpX,XH.c.g.f.g.h.Q S 0 #     . + @ X .       ",
"    X 1 v Z N v 1 X o o & 2 t m R Q b.~.8XjXvX&X.Xy.3.l s ; ; a f $.3.u.XXiXvXvXcXuXqX~.n.d.Y Y s.f.Q R B y w w w w w & O o     ",
"      @ 4 x x 4 $ . O : i ( ..+.n.Z.P.3XfXCXmXaX$Xa.r.9.l d a d @.%.>.y.a.XX&X@X[._.R.x.f.Y U d.j.V.Z.N.+.X.{ [ ..[ ` p w O     ",
"      . @ $ > @ . . & p ..U.!.].].<X6XdXMXZXVXmXaX&XXXr.9.l f f @.%.<.4.y.u.a.r.e.{ _ G P L s.j.F.=X<X>X].`.`.'.'._.Y...p =     ",
"    o X X + X .     : ` U.{.uXcXxXhXxXNXVXZXZXZXmXvXyX.Xr.3.%.%.&.:.*.3.4.3.3.2.k r t m N U d.V.=X8XgXcXcXuXuXgXzXuX{.U./ -     ",
"w w w w w w 2 %   o w ' _.uXVXZXBXxXxXMXVXZXCXVXnXlXwX|.u.3.*.*.&.&.*.:.%.$.#.l k r t B R d.l.F.-XdXjXxXxXhXxXxXcXuX{.U./ -     ",
"......X.....` i * % w [ _.cXZXCXgX7X6XdXkXVXnXlXqX[.W.r.0.3.*.*.*.*.%.$.#.f d k k ` ' | x.Z.L.~.;X<X4X7X7X6X4X<X{.`.Y.X.p *     ",
"`.`.`.`.'._.Y.[ i * w ' _.cXCXgX3XP.P.;XdXMXlXqXW.O.] ] -.:.:.>.*.*.%.@.d a s ( X.U.W.].:X<X:X=X~.G.F.F.K.F.S.N.x.X.` p : %     ",
"uXuXuXzXzXuX{.U./ w w ' _.uXxX8XP.b.V.P.7XMXlX[.O.p r h #.;.:.1.*.*.%.f a ; r ] Y.@XuXcXcXxXdX:XF.l.f.f.f.f.Q R F t 2 & O       ",
"uXuXuXzXzXuX>XT./ e t ' R.1XtX3XF.v.b.P.7XMXuX_.X.t < a f $.&.1.<.:.%.f a ; r [ _.yXCXZXZXMXrX=XV.d.Y U L K Z n 6 $ + . .       ",
"`._.`.'.'.`.E.+.F m B E N.(.-X=XL.S.G.:XfXNXuX`.| B 6 a f ;.*.1.<.*.%.#.d a k e.@XcXZXCXkX8X;XS.j.s.J N N b b 8 6 4 , @ X       ",
"......X.....{ _ G A S W k.V.F.P.*X;X4XdXBXZXxX:Xz.S v j =.;.&.1.1.*.&.%.@.g 2.r.@XvXBXkX5XP.V.v.d.s.J N 8 6 4 6 8 v x 4 $ .     ",
"w w w w w w 0 q A A K L Y d.v.F.-XdXxXCXZXVXhX:XV.d.I D =.;.&.*.&.&.&.%.%.%.3.a.%XvXMX8X*Xb.f.s.s.U K N 6 $ $ 4 n Z Z c 1 X     ",
"            X 1 v Z K J J K d.Z.:XjXZXZXmXvXpX,XF.l.! ! 6.,.,.;.;.$.;.=.$.;.3.i.%XvXhX4XH.h.T T s.d.W G 0 @ X , v Z Z v 1 +     ",
"              @ 4 v n b x b R x.:XnXmXmXaX%X+XoX^.L.Z.w.8.6.=.f f f f f f =.9. X9XvXjX2XB.8.T 8.v.c.n.E 0 O   @ 1 v n 7 $ .     ",
"              . $ , 4 1 , 1 B z.[.cXmXaX$X}.i. XOX<X,XJ.c.8.D j s a ; s j D 8.B.2XMXbX%XI.7.6.w.B.)./.z.V #     @ 1 1 < + .     ",
"              . X X X . . X t X.`.uXvX&X}.y.t.p.+XpXtX).A.! I j 3 3 ; 3 j I h.J.5XjXsX%Xi.4.0.u.+XeX1XE.' w       X X . .       ",
"              . X X X .   . 2 ` E.1XtX$Xa.t.t.a.#XiXpX<XJ.v.Q G B y q B P d.v.J.<XpXiX.Xu.7.0.i.%XvXlX[.O./ : % o               ",
"            . + $ , , +     & F z.Q.).OX Xa.a.a.XX#X+XOX^.J.A.N.+.X.| | x.Z.H.Q.oX+X.XI.q.7.q. X9XbXnXyX'.O.` i * o             ",
"            . $ 6 c c 4 + . % t E k.A.^.OX$X#XXXa.a.a. XoX<X:X:X].`.`.].:X:X<XoX Xi.u.q.6.8.8.B.2XbXZXnXyX[.Y.{ i O             ",
"            X 4 v Z Z v , X @ 7 A W v.L.<XpXiX#Xa.t.t.a.+XtXxXxXgXuXuXlXlXfXpX+XI.t.0.=.5.T h.A.<XjXZXZXVXgX{.U.` :             ",
"            X 1 n Z Z n 4 $ $ 9 S Q l.P.3XtXpX+Xa.t.q.i.+XpXhXMXMXkXMXBXCXZXcX&X}.y.0.6.D D W n.).rXjXBXNXjXeX!.X.p - % o o     ",
"            X $ 6 n b v 6 4 7 G ~ n.F.*X;X:X<XOX Xa.a. XoX@X5X5X5X5X0XgXCXZXmXaX$Xa.r.7.H A P ~ Z.).3X7X8X5X:X/.T.O.` p - O     ",
"            . + $ 4 4 6 8 b A ~ Z.).:X-X*XG.L.Q.oX+X+XoXQ.J.F.A.A.K.~.4XgXZXZXmXaX%X.Xe._ m c G ~ V.A.F.K.K.L.~./._.Y.o.z *     ",
"                . X $ 4 b Z Q m.).8XrX-XF.b.v.F.<XpXtXOXL.l.g.s.s.g.b.P.6XxXZXZXmXvXwXY.' t < 7 A W f.g.g.g.l.G.:XqX{.U.( :     ",
"                    @ 7 A Q v.P.3XdX8X=XV.g.g.A.<XgXhX4XF.f.s.J J L W n.).8XkXCXZXZXuX_.' w + $ x N K J J K W m.;X8X1XY.` 5     ",
"                    O y E n.P.=X3X3X;XF.j.s.g.A.5XMXxX6XF.f.J N b N A ~ N.).7XkXCXZXlX_.{ :   X > 8 b b x b S k.D.;X(.M.) -     ",
"                    % F M./.3X3X=XP.C.j.s.s.g.A.5XMXMX5XF.f.K N 8 4 7 A ~ n.P.7XMXCXzX'.[ :     + > 1 1 > 1 9 R k.V.N. .B # .   ",
"                    w ' E.qXtX3XL.l.f.s.U Y g.S.4XhXxX4XF.f.K b 1 > < 9 A Q b.*X0XMXuX_.[ w .     X X X X + < m P W W S 0 @     ",
"              O % : V O._.eX8X-Xm.W K J J K Q A.<XxXxX4XA.Q Z x 1 $ $ 1 x Z W Z.;X8XqX!.{ t +               + 1 n Z Z n 1 X     ",
"            O w p ' O.T./.:X).D.k.A x x x b R M.>XMXxX>XN.E n 8 6 6 4 6 8 b A  .D.).).N. .m 1 @ X             $ 4 8 8 4 $ .     ",
"            * ^ o.E._.).~.L.N.k.G 9 1 > > 1 F z.[.xXxX[.z.F 6 6 8 v n 8 6 4 9 G  .V.V.l.Q S n 4 $ .           X $ , , $ X       ",
"            - ` Y.{.eX:XL.l.W A 9 < +   . @ y X.].uXuX`.X.t $ 1 b Z Z n 4 $ < q S Q d.d.Y K Z v , X           . . X X . .       ",
"            - ` Y.{.1X(.V.Q Z x > +         - ` E.{.{.Y.` 2 + > x N Z v > + + > 8 Z K L L K Z 9 > X                             ",
"            * ^ o.Y.R.M. .M 8 1 @           & z ..U.U...p & . @ 1 v v 7 $ . . @ 1 8 b b N n n 7 $ X                             ",
"            O w p ` ' F u 7 , @ X           O w p / / p : O   X $ 1 1 $ +   . . @ > 1 4 4 4 1 $ @ .                             ",
"            o O * w w - # @ X .               O = 2 2 * O o   . . X X . .       . X + + @ X @ . .                               ",
"                                                                                                                                ",
"                                                                                                                                "
};
