/* XPM */
static const char *sprite_8_16[] = {
/* columns rows colors chars-per-pixel */
"16 16 4 1 ",
"  c #000001",
". c #590D79",
"X c #B53121",
"o c #FFFFFE",
/* pixels */
"                ",
"                ",
"       o     o  ",
"   o   o  o o   ",
"   .oo .o oo.   ",
"    ..oo..o.    ",
"     .oXoXo.oo  ",
"   ooo.oX X..   ",
"     .o XXo.    ",
"     ooXo.Xo.   ",
"    o. o.oo.o.  ",
"   o. .o .o  o  ",
"      o   .     ",
"                ",
"                ",
"                "
};
