/* XPM */
static const char *sprite_9_19[] = {
/* columns rows colors chars-per-pixel */
"16 16 4 1 ",
"  c #000001",
". c #590D79",
"X c #B53121",
"o c #FFFFFE",
/* pixels */
"      oo.oXXXo o",
"     oooooooXXoX",
"     oo ooooXoXX",
"    .o oo.oXoooX",
"    ..o...oooo.X",
"  o  ....oooo..o",
"   o    .o o..oo",
"        oo ooo o",
"      o. oo o ..",
"     . o ooooo..",
"    o      .... ",
"   o     o      ",
"  .        o    ",
"  o             ",
"                ",
"                "
};
