/* XPM */
static char *sprite_6_19_resized[] = {
/* columns rows colors chars-per-pixel */
"64 64 107 2 ",
"   c #000000",
".  c #000001",
"X  c #010101",
"o  c #010102",
"O  c #030304",
"+  c #040405",
"@  c #050506",
"#  c #060607",
"$  c #070708",
"%  c #0C0C0D",
"&  c #0D0D0D",
"*  c #0E0E0E",
"=  c #0E0E0F",
"-  c #151516",
";  c #161617",
":  c #171718",
">  c #1A1A1A",
",  c #1C1C1C",
"<  c #1C1C1D",
"1  c #1E1E1E",
"2  c #1E1E1F",
"3  c #1F1F1F",
"4  c #1F1F20",
"5  c #212122",
"6  c #232323",
"7  c #232324",
"8  c #242424",
"9  c #242425",
"0  c #252525",
"q  c #333334",
"w  c #353536",
"e  c #393939",
"r  c #3C3C3D",
"t  c #3E3E3E",
"y  c #404040",
"u  c #414141",
"i  c #4E4E4E",
"p  c #505050",
"a  c #515151",
"s  c #525252",
"d  c #565657",
"f  c #5A5A5A",
"g  c #5C5C5C",
"h  c #5C5C5D",
"j  c #5E5E5F",
"k  c #5F5F5F",
"l  c #606060",
"z  c #636363",
"x  c #636364",
"c  c #646464",
"v  c #656565",
"b  c #676767",
"n  c #686868",
"m  c #69696A",
"M  c #737373",
"N  c #747474",
"B  c #7A7A7A",
"V  c #878787",
"C  c #8B8B8B",
"Z  c #8C8C8C",
"A  c #939393",
"S  c #9C9C9C",
"D  c #A0A0A0",
"F  c #A3A3A2",
"G  c #A3A3A3",
"H  c #A5A5A5",
"J  c #A7A7A7",
"K  c #A8A8A8",
"L  c #AAAAA9",
"P  c #AAAAAA",
"I  c #ABABAA",
"U  c #ABABAB",
"Y  c #ADADAD",
"T  c #AEAEAD",
"R  c #AFAFAF",
"E  c #B1B1B0",
"W  c #B7B7B6",
"Q  c #BDBDBC",
"!  c #BFBFBF",
"~  c #C6C6C6",
"^  c #CACAC9",
"/  c #CCCCCB",
"(  c #DADAD9",
")  c #DADADA",
"_  c #DBDBDA",
"`  c #DBDBDB",
"'  c #DCDCDC",
"]  c #DEDEDD",
"[  c #E0E0DF",
"{  c #E1E1E0",
"}  c #E1E1E1",
"|  c #E3E3E2",
" . c #E3E3E3",
".. c #E4E4E4",
"X. c #E9E9E8",
"o. c #EAEAE9",
"O. c #F1F1F0",
"+. c #F2F2F1",
"@. c #F3F3F2",
"#. c #F8F8F7",
"$. c #F9F9F8",
"%. c #FBFBFA",
"&. c #FCFCFB",
"*. c #FDFDFC",
"=. c #FEFEFD",
"-. c #FFFFFE",
";. c #FFFFFF",
/* pixels */
". . . . . . . . . . . . . . . . . . . . . .       o 7 c I ` ` I c 7 o       . . . . . . . . . . . . . . . . . . . . . . . . . . ",
". . . . . . . . . . . . . . . . . . . . . .       o 7 c I ` ` I c 7 o       . . . . . . . . . . . . . . . . . . . . . . . . . . ",
". . . . . . . . . . . . . . . . . . . . . .       o 7 c I ` ` I c 7 o       . . . . . . . . . . . . . . . . . . . . . . . . . . ",
". . . . . . . . . . . . . . . . . . . . . .       o 7 c I ` ` I c 7 o       . . . . . . . . . . . . . . . . . . . . . . . . . . ",
". . . . . . . . . . . . . . . . . . . . . .       o 7 c I ` ` I c 7 o       . . . . . . . . . . . . . . . . . . . . . . . . . . ",
". . . . . . . . . . . . . . . . . . . . . .       o 7 c I ` ` I c 7 o       . . . . . . . . . . . . . . . . . . . . . . . . . . ",
". . . . . . . . . . . . . . . . . . . . . .       X 6 x P _ _ P x 6 X       . . . . . . . . . . . . . . . . . . . . . . . . . . ",
". . . . . . . . . . . . . . . . . . . . . .         2 l K ) ) K l 2         . . . . . . . . . . . . . . . . . . . . . . . . . . ",
". . . . . . . . . . . . . . . . . . . . X .         < j J ( ( J j <         . X . . . . . . . . . . . . . . . . . . . . . . . . ",
". . . . . . . . . . . . . . . . . . . . . .       O 0 v U ` ` U v 0 O       . . . . . . . . . . . . . . . . . . . . . . . . . . ",
". . . . . . . . . . . . . . . . . . .     . + $ = 4 u B W [ [ W B u 4 = $ + .     . . . . . . . . . . . . . . . . . . . . . . . ",
". . . . . . . . . . . . . . . . . . .     X % 2 w s M D / X.X./ D M s w 2 % X     . . . . . . . . . . . . . . . . . . . . . . . ",
". . . . . . . . . . . . . . . . . .       o - e z Z T / ..@.@.../ T Z z e - o       . . . . . . . . . . . . . . . . . . . . . . ",
". . . . . . . . . . . . . . . . . .       o 1 p C ! [ +.$.%.%.$.+.[ ! C p 1 o       . . . . . . . . . . . . . . . . . . . . . . ",
". . . . . . . . . . . . . . . . . .       X 5 g D ` &.;.;.;.;.;.;.&.` D g 5 X       . . . . . . . . . . . . . . . . . . . . . . ",
". . . . . . . . . . . . . . . . . .         2 h H  .;.;.;.;.;.;.;.;. .H h 2         . . . . . . . . . . . . . . . . . . . . . . ",
". . . . . . . . . . . . . . . . X .         , f F { ;.;.;.;.;.;.;.;.{ F f ,         . X . . . . . . . . . . . . . . . . . . . . ",
". . . . . . . . . . . . . . . . . .       O 8 k G ] -.;.;.;.;.;.;.-.] G k 8 O       . . . . . . . . . . . . . . . . . . . . . . ",
". . . . . . . . . . . .             O # * 4 y N R } =.;.;.;.;.;.;.=.} R N y 4 * # O             . . . . . . . . . . . . . . . . ",
". . . . . . . . . .                 # > q a M S ~ o.=.;.;.;.;.;.;.=.o.~ S M a q > #                 . . . . . . . . . . . . . . ",
". . . . . . . . X .                 * q l C Y ^ } @.-.;.;.;.;.;.;.-.@.} ^ Y C l q *                 . X . . . . . . . . . . . . ",
". . . . . . . . . . . X o o X     O 4 a C ! [ O.#.%.-.;.;.-.-.;.;.-.%.#.O.[ ! C a 4 O     X o o X . . . . . . . . . . . . . . . ",
"                    + % - 1 5 2 , 8 y M Y [ *.;.;.;.-.-.-.-.-.-.-.-.;.;.;.*.[ Y M y 8 , 2 5 1 - % +                     . . . . ",
"                    $ 2 e p g h f k N S ^ O.;.;.;.;.-.-.-.-.-.-.-.-.;.;.;.;.O.^ S N k f h g p e 2 $                         . X ",
"                    = w z C D H F G R ~ } #.;.;.;.;.-.-.-.-.-.-.-.-.;.;.;.;.#.} ~ R G F H D C z w =                         . X ",
"o o o o o o X     O 4 s Z ! `  .{ ] } o.@.%.;.;.;.-.-.-.-.-.-.-.-.-.-.;.;.;.%.@.o.} ] {  .` ! Z s 4 O     X o o o o o X X . . . ",
"7 7 7 7 7 7 6 2 < 0 u M T [ &.;.;.-.=.=.-.-.-.-.-.-.-.-.-.-.-.-.-.-.-.-.-.-.-.-.=.=.-.;.;.&.[ T M u 0 < 2 6 8 9 0 7 3 ; & @ .   ",
"c c c c c c x l j v B D / +.;.;.;.;.;.;.;.;.-.-.-.-.-.-.-.-.-.-.-.-.-.-.-.-.;.;.;.;.;.;.;.;.+./ D B v j l x v b n c d t 7 * X   ",
"I I I I I I P K J U W / ..$.;.;.;.;.;.;.;.;.-.-.-.-.-.-.-.-.-.-.-.-.-.-.-.-.;.;.;.;.;.;.;.;.$.../ W U J K P U R E L A m r : o   ",
"` ` ` ` ` ` _ ) ( ` [ X.@.%.;.;.;.;.;.;.;.-.-.-.-.-.-.-.-.-.-.-.-.-.-.-.-.-.-.;.;.;.;.;.;.;.%.@.X.[ ` ( ) _ ' { | ( Q V i 1 o   ",
"` ` ` ` ` ` _ ) ( ` [ X.@.%.;.;.;.;.;.;.;.-.-.-.-.-.-.-.-.-.-.-.-.-.-.-.-.-.-.;.;.;.;.;.;.;.%.@.X.[ ` ( ) _ ' { | ( Q V i 1 o   ",
"I I I I I I P K J U W / ..$.;.;.;.;.;.;.;.;.-.-.-.-.-.-.-.-.-.-.-.-.-.-.-.-.;.;.;.;.;.;.;.;.$.../ W U J K P U R E L A m r : o   ",
"c c c c c c x l j v B D / +.;.;.;.;.;.;.;.;.-.-.-.-.-.-.-.-.-.-.-.-.-.-.-.-.;.;.;.;.;.;.;.;.+./ D B v j l x v b n c d t 7 * X   ",
"7 7 7 7 7 7 6 2 < 0 u M T [ &.;.;.-.=.=.-.-.-.-.-.-.-.-.-.-.-.-.-.-.-.-.-.-.-.-.=.=.-.;.;.&.[ T M u 0 < 2 6 8 9 0 7 3 ; & @ .   ",
"o o o o o o X     O 4 s Z ! `  .{ ] } o.@.%.;.;.;.-.-.-.-.-.-.-.-.-.-.;.;.;.%.@.o.} ] {  .` ! Z s 4 O     X o o o o o X X . . . ",
"                    = w z C D H F G R ~ } #.;.;.;.;.-.-.-.-.-.-.-.-.;.;.;.;.#.} ~ R G F H D C z w =                         . X ",
"                    $ 2 e p g h f k N S ^ O.;.;.;.;.-.-.-.-.-.-.-.-.;.;.;.;.O.^ S N k f h g p e 2 $                         . X ",
"                    + % - 1 5 2 , 8 y M Y [ *.;.;.;.-.-.-.-.-.-.-.-.;.;.;.*.[ Y M y 8 , 2 5 1 - % +                     . . . . ",
". . . . . . . . . . . X o o X     O 4 a C ! [ O.#.%.-.;.;.-.-.;.;.-.%.#.O.[ ! C a 4 O     X o o X . . . . . . . . . . . . . . . ",
". . . . . . . . X .                 * q l C Y ^ } @.-.;.;.;.;.;.;.-.@.} ^ Y C l q *                 . X . . . . . . . . . . . . ",
". . . . . . . . . .                 # > q a M S ~ o.=.;.;.;.;.;.;.=.o.~ S M a q > #                 . . . . . . . . . . . . . . ",
". . . . . . . . . . . .             O # * 4 y N R } =.;.;.;.;.;.;.=.} R N y 4 * # O             . . . . . . . . . . . . . . . . ",
". . . . . . . . . . . . . . . . . .       O 8 k G ] -.;.;.;.;.;.;.-.] G k 8 O       . . . . . . . . . . . . . . . . . . . . . . ",
". . . . . . . . . . . . . . . . X .         , f F { ;.;.;.;.;.;.;.;.{ F f ,         . X . . . . . . . . . . . . . . . . . . . . ",
". . . . . . . . . . . . . . . . . .         2 h H  .;.;.;.;.;.;.;.;. .H h 2         . . . . . . . . . . . . . . . . . . . . . . ",
". . . . . . . . . . . . . . . . . .       X 5 g D ` &.;.;.;.;.;.;.&.` D g 5 X       . . . . . . . . . . . . . . . . . . . . . . ",
". . . . . . . . . . . . . . . . . .       o 1 p C ! [ +.$.%.%.$.+.[ ! C p 1 o       . . . . . . . . . . . . . . . . . . . . . . ",
". . . . . . . . . . . . . . . . . .       o - e z Z T / ..@.@.../ T Z z e - o       . . . . . . . . . . . . . . . . . . . . . . ",
". . . . . . . . . . . . . . . . . . .     X % 2 w s M D / X.X./ D M s w 2 % X     . . . . . . . . . . . . . . . . . . . . . . . ",
". . . . . . . . . . . . . . . . . . .     . + $ = 4 u B W [ [ W B u 4 = $ + .     . . . . . . . . . . . . . . . . . . . . . . . ",
". . . . . . . . . . . . . . . . . . . . . .       O 0 v U ` ` U v 0 O       . . . . . . . . . . . . . . . . . . . . . . . . . . ",
". . . . . . . . . . . . . . . . . . . . X .         < j J ( ( J j <         . X . . . . . . . . . . . . . . . . . . . . . . . . ",
". . . . . . . . . . . . . . . . . . . . . .         2 l K ) ) K l 2         . . . . . . . . . . . . . . . . . . . . . . . . . . ",
". . . . . . . . . . . . . . . . . . . . . .       X 6 x P _ _ P x 6 X       . . . . . . . . . . . . . . . . . . . . . . . . . . ",
". . . . . . . . . . . . . . . . . . . . . .       o 8 v U ' ' U v 8 o       . . . . . . . . . . . . . . . . . . . . . . . . . . ",
". . . . . . . . . . . . . . . . . . . . . .       o 9 b R { { R b 9 o       . . . . . . . . . . . . . . . . . . . . . . . . . . ",
". . . . . . . . . . . . . . . . . . . . . .       o 0 n E | | E n 0 o       . . . . . . . . . . . . . . . . . . . . . . . . . . ",
". . . . . . . . . . . . . . . . . . . . . .       o 7 c L ( ( L c 7 o       . . . . . . . . . . . . . . . . . . . . . . . . . . ",
". . . . . . . . . . . . . . . . . . . . . .       o 3 d A Q Q A d 3 o       . . . . . . . . . . . . . . . . . . . . . . . . . . ",
". . . . . . . . . . . . . . . . . . . . . .       X ; t m V V m t ; X       . . . . . . . . . . . . . . . . . . . . . . . . . . ",
". . . . . . . . . . . . . . . . . . . . . . .     X & 7 r i i r 7 & X     . . . . . . . . . . . . . . . . . . . . . . . . . . . ",
". . . . . . . . . . . . . . . . . . . . . . .     . @ * : 1 1 : * @ .     . . . . . . . . . . . . . . . . . . . . . . . . . . . ",
". . . . . . . . . . . . . . . . . . . . . . . . . . . X o o o o X . . . . . . . . . . . . . . . . . . . . . . . . . . . . . . . ",
". . . . . . . . . . . . . . . . . . . . . . . X X .                 . X X . . . . . . . . . . . . . . . . . . . . . . . . . . . "
};
