/* XPM */
static const char *sprite_4_3[] = {
/* columns rows colors chars-per-pixel */
"16 16 4 1 ",
"  c #000001",
". c #6B6B00",
"X c #E79C21",
"o c #E7E794",
/* pixels */
"                ",
"                ",
"   Xo.o.o.o.o.  ",
"   .X.X.X.X.X.  ",
"   .XXXXXXXXXX  ",
"     ooooooo    ",
"    oooXXXXoo   ",
"   XXXXX..XXX.  ",
"ooooooX..oXXX.o ",
"   ...XXooXX..  ",
"    ...XXXX..   ",
"     .......    ",
"   oXXXXXXXXXX  ",
"   .X.X.X.X.X.  ",
"   .X.X.X.X.X.  ",
"                "
};
