/* XPM */
static char *sprite_9_19_resized[] = {
/* columns rows colors chars-per-pixel */
"64 64 222 2 ",
"   c #000001",
".  c #060806",
"X  c #06010A",
"o  c #0A010E",
"O  c #0C0D0D",
"+  c #0E100E",
"@  c #0C0212",
"#  c #0F0B11",
"$  c #0F0019",
"%  c #130619",
"&  c #141414",
"*  c #171618",
"=  c #1C1C1D",
"-  c #1F211F",
";  c #160023",
":  c #1A0226",
">  c #1D012A",
",  c #1F1E20",
"<  c #20032D",
"1  c #241F27",
"2  c #250235",
"3  c #280737",
"4  c #2C1437",
"5  c #30153C",
"6  c #222323",
"7  c #272728",
"8  c #29212D",
"9  c #2D2331",
"0  c #34223C",
"q  c #343435",
"w  c #3C3D3D",
"e  c #413F3F",
"r  c #3E403E",
"t  c #40433F",
"y  c #2E0242",
"u  c #310644",
"i  c #340249",
"p  c #37084B",
"a  c #381A45",
"s  c #3C0553",
"d  c #3D1150",
"f  c #3D2847",
"g  c #3F3E40",
"h  c #42055C",
"j  c #430B5C",
"k  c #421655",
"l  c #7B1E5F",
"z  c #433947",
"x  c #4B2C58",
"c  c #4B0469",
"v  c #4B0869",
"b  c #4E0C69",
"n  c #50056F",
"m  c #500D6D",
"M  c #530574",
"N  c #570977",
"B  c #590D7A",
"V  c #5B1777",
"C  c #5D137C",
"Z  c #631679",
"A  c #552869",
"S  c #583A65",
"D  c #622A7A",
"F  c #424343",
"G  c #4C4C4C",
"H  c #534858",
"J  c #555655",
"K  c #5A555D",
"L  c #5C5D5C",
"P  c #5F605F",
"I  c #5A4662",
"U  c #5E5861",
"Y  c #685371",
"T  c #666466",
"R  c #6D6D6D",
"E  c #6F716E",
"W  c #70726F",
"Q  c #736978",
"!  c #727372",
"~  c #7A7A7A",
"^  c #AE1E0D",
"/  c #B12614",
"(  c #B42A17",
")  c #B32C1B",
"_  c #B63323",
"`  c #B83728",
"'  c #B93C2D",
"]  c #BD4537",
"[  c #BE4A3C",
"{  c #C5503C",
"}  c #973150",
"|  c #BA4E49",
" . c #9F4C71",
".. c #8B7E7C",
"X. c #C04F41",
"o. c #C4584A",
"O. c #C75E51",
"+. c #C76559",
"@. c #CA6E64",
"#. c #CE766B",
"$. c #CF796E",
"%. c #D17D72",
"&. c #CA857C",
"*. c #D58479",
"=. c #621582",
"-. c #641B83",
";. c #692486",
":. c #6D2B89",
">. c #712F8C",
",. c #71318D",
"<. c #752E93",
"1. c #773893",
"2. c #724186",
"3. c #7F4696",
"4. c #7E7183",
"5. c #854086",
"6. c #84449E",
"7. c #844B9C",
"8. c #88599B",
"9. c #876E8F",
"0. c #B57591",
"q. c #884AA2",
"w. c #8C58A3",
"e. c #935EA8",
"r. c #9563AB",
"t. c #9868AB",
"y. c #9C73AC",
"u. c #9E6BB3",
"i. c #9F73B1",
"p. c #A376B6",
"a. c #A47AB6",
"s. c #868686",
"d. c #8C8C8C",
"f. c #90928F",
"g. c #928D94",
"h. c #939392",
"j. c #979797",
"k. c #99939C",
"l. c #9B9C9A",
"z. c #A69E9C",
"x. c #B09793",
"c. c #9EA19C",
"v. c #A0A29F",
"b. c #9D87A7",
"n. c #9F91A4",
"m. c #A097A3",
"M. c #AB86BA",
"N. c #AF93BB",
"B. c #B299BA",
"V. c #9CA2A2",
"C. c #A2A2A1",
"Z. c #A8A3AA",
"A. c #ABABAB",
"S. c #AEB1AD",
"D. c #B2AEB3",
"F. c #B3B5B2",
"G. c #BDBDBD",
"H. c #D68C82",
"J. c #DA948B",
"K. c #DA9D97",
"L. c #D0A59F",
"P. c #DEA49C",
"I. c #E3A69D",
"U. c #C99BB0",
"Y. c #D5AAA4",
"T. c #E2ACA5",
"R. c #E4B3AC",
"E. c #E9B8AE",
"W. c #E8BBB4",
"Q. c #BFC0BE",
"!. c #EBC3BA",
"~. c #F0C5BF",
"^. c #AF83C1",
"/. c #B28FC1",
"(. c #B695C4",
"). c #BC9ACB",
"_. c #BDA3C8",
"`. c #BFA7D3",
"'. c #C2A5CE",
"]. c #C6BCC9",
"[. c #C6ABD2",
"{. c #C9ADD4",
"}. c #CAACD7",
"|. c #CBB2D5",
" X c #CCB3D9",
".X c #D3BBDC",
"XX c #C3C4C2",
"oX c #CAC8CA",
"OX c #D1CAC9",
"+X c #D5C1DC",
"@X c #D8C5DF",
"#X c #DDDCDC",
"$X c #EBCBC7",
"%X c #EECFCB",
"&X c #E0DFDF",
"*X c #F2D8D3",
"=X c #E0E1DF",
"-X c #F4E1DE",
";X c #DBCAE3",
":X c #DCD1EA",
">X c #E2D6E7",
",X c #E7D4EE",
"<X c #E7DCEA",
"1X c #E8DEEC",
"2X c #DDE3E3",
"3X c #E2E3E1",
"4X c #E7E9E5",
"5X c #EBE2EE",
"6X c #EBEDEA",
"7X c #F6E5E2",
"8X c #F7EBE7",
"9X c #F9EDEA",
"0X c #F3F1EE",
"qX c #EDE4F0",
"wX c #EFE8F3",
"eX c #F1EAF4",
"rX c #F5ECF7",
"tX c #F4F3F4",
"yX c #FBF4F2",
"uX c #F7F9F5",
"iX c #F8F4F9",
"pX c #FEFEFE",
/* pixels */
"                                            * J l.#XpXpXpXpX1X).w.;.;.w.`.<X-XE.$.] ( ^ ^ / / ^ / _ | *.$X9X=XV.J * * J c.=XpXpX",
"                                            6 P C.&XpXpXpXpX1X_.e.:.,.r.`.<X-XW.*.X._ ) ) _ _ ( ) _ { *.W.*X#Xc.K 7 7 L l.#XpXpX",
"                                    . . O = z ! D.3XpXpXpXpX5X[.i.7.7.a.|.5X7X~.J.+.[ [ ] [ [ ] _ _ [ #.I.$XOXl.T r F T z.OX-X9X",
"                                    O = q J E j.XX4XpXpXpXpXtX@X(.a.a.(.;XeX9X%XT.H.%.#.#.$.@.O.[ ' ] O.*.K.L.x...R R ..x.Y.E.W.",
"                                    & q P d.A.XX3XtXpXpXpXpXpX5X@X|.{.@X<XtXuX7X%XW.R.R.R.T.P.%.O.] ' ] o.@.&.H.x.x.v.x.H.H.&.%.",
"                                    = J d.G.&XtXuXuXpXpXpXpXpXuXwX5X5XeXtXpXpXyX9X7X7X7X8X-X$XK.@.] _ _ ' [ +.&.Y.OXOXY.&.| | ] ",
"                                    6 L c.#XpXpXpXpXpXtX4X=X=X=X6XuXpXpXpXpXpXpXpXpXpXpXpXpX7XR.%.[ _ ) ` [ +.*.R.%X!.P.#.[ _ ( ",
"                                    6 P Z.3XpXpXpXpXuX#X_.S.S.Q.#XuXpXpXpXpXpXpXpXpXpXpXpXpX8XW.$.[ ` ] X.@.%.J.T.T.I.*.O.' ) ^ ",
"                                    6 P C.3XpXpXpXpX6XQ.f.R R f.Q.6XpXpXpXpXpXpXpXpXpXpXpXpX9XE.$.] ' o.#.K.I.I.J.*.@.O.] ` ) / ",
"                                    6 L C.&XpXpXpXpX=XA.R t F R A.3XpXpXpXpXpXpXpXpXpXpXpXpX7XT.#.| [ @.P.$X%XR.*.+.{ ' ` _ _ _ ",
"                                  @ 4 T Z.>XuXpXuX3XXXh.L w F W A.3XpXpXiX5X5XwXtXpXpXpXyX7X$XY.%.+.+.H.W.7X7X!.J.+.X.' ` _ ) _ ",
"                              X $ > f 4.D.4XuX4XoXA.h.~ T T W l.oX6XiXqX;X|.|.@X1XyXyX-X%XW.I.J.*.*.J.T.*XyXyX*XE.H.@.O.] ' _ ) ",
"                            X $ < i A 9.[.4X6XoXj.R P T ~ j.S.oX4XuXtX;X).a.a.).;XwX9X%XT.*.%.*.J.T.W.*X8XpXyX8X*XW.I.%.O.] _ ( ",
"                            o ; 3 j D t.[.<X2XF.! F r P f.].&X0XpXuX5X{.p.7.7.p. X1X8XW.H.+.+.*.Y.%X7XyXpXpXpXpXyX-X$XK.@.] _ / ",
"                            @ > i b :.e.).+XoXm.T r r T k.oX<XeXeX5X+XM.8.>.>.r.`.<X7X!.J.+.+.*.W.7XpXpXpXpXpXpXyX5X$XU.@.[ _ / ",
"                            @ < p N ;.q.p.(.B.n.4.T R 4.n._.{. X|.'.N.r.>.=.;.w._.<X8X%XI.*.H.T.%XyXpXpXpXpXiXeX:X X_.0.| ' ) / ",
"                            @ < s m -.<.6.w.t.b.n.m.m.n.b.y.u.u.t.t.w.1.-.B ;.w.'.<XyX-X%XW.W.$X-XyXpXpXpXpXiX:X`.a.r. .} ` ) / ",
"                            @ < p b B =.-.:.3.y._.].oX_.y.6.>.:.:.>.;.-.C C >.t.'.1XpXpXyX7X7X9XyXpXpXpXpXpX5X|.a.7.,.} } _ _ ) ",
"            . O * 6 = * O . o : u j b n M B :.e.)..X;X).e.:.C M N C C C Z :.7.a.|.5XpXpXpXpXpXpXpXpXpXpXiX5X+X/.w.;.Z l } | [ { ",
"            # 7 F J J w - .   $ > u s h c M -.q.p.).).p.6.-.M n n M C ;.1.w.a.'.;XyXpXpXpXpXpXpXpXpXuXqX;X|./.r.1.=.V l  .@.$.*.",
"            * F ! h.h.R w &     @ : 3 i h M =.<.q.r.r.q.<.=.M M n M -.1.t./.|.;XeXpXpXpXpXpXpXpXpXpXiX;X'.a.w.1.Z B Z 5.0.L.R.E.",
"            6 J h.G.G.h.J 6       o % 3 p b C -.;.:.:.-.Z C N M M N :.w.N.+X5XiXuXpXpXpXpXpXpXpXpXpX1X|.a.7.:.C B C :.e./.+X-X9X",
"            = J h.G.XXm.R w - + . X o : u h v b m b b b b b n n n B :.t.'.5XuXuX6X3X3X4XtXuXpXpXiX5X+XN.w.:.C B Z :.7.a.|.qXpXpX",
"            * F E h.c.l.s.R J w - O X $ < u p p i i i i i p s s c M :.t.{.5XuX4XoXS.D.XX#X0XrXwX;X[.M.r.,.Z B -.1.e.M.{.:XiXpXpX",
"            O 6 w J E s.l.v.h.R r & . X $ : < < > > > > > < 2 u i c :.t.}.5X6XoXj.! ! j.XX6X5X;X_.i.7.,.C B C 1.u.)..X>XrXiXpXpX",
"            . . # 6 g R m.XXG.h.J =       o @ @ @ @ o o o @ % 2 i b <.u. X1X=XS.W F F ! S.=X5X.XM.7.:.C B C :.w./.+X5XtXpXpXpXpX",
"                    1 J h.G.G.h.J -                         # 3 k D 7.^..X5X#Xv.L 6 7 J v.#X5X.X^.7.:.;.;.>.3.y.B.oX<X6XuXpXpXpX",
"                    + w E h.h.! F *                         # 0 S w.M. X,XeX#Xj.G * & J c.#XtX,X'.p.r.e.r.t.i.y.n.C.F.oX=XuXpXpX",
"                    . 6 z J J F 7 #                         * z 4.B..X1XiXiX#Xh.G & * G c.>XpXrX;X{.'.'.[.{._.n.9.R ! l.oX6XpXpX",
"                    . O * - - * O .                         , J g.].qXpXpXpX#Xl.J 6 7 J l.#XiXpXiXqX1X5XqX<XoXk.T F F E A.=XpXpX",
"                                            . O * - = = # # 1 J g._.2XuXpXpX>XA.R F w L f.Q.&X6XiXpXiXuX0X2XG.s.G 8 4 K g.].<XrX",
"                                            O 6 F J K z 0 3 5 x R j.F.OX4X0X6XXXj.! R R ~ h.A.oX3XuXuX4XOXS.d.Y g 4 5 S 9.N.'.|.",
"                                            & r ! h.k.9.I k p a z U ! C.oX6XtX3XoXA.l.~ T T E j.oX6X6XOXc.! J z a p j A ,.8.t.t.",
"                                            - J f.G.XXB.w.D b i 4 4 r W S.3XpXpXuX3XXXh.U w F ! S.=X2XF.~ F 8 4 p j b C D ;.,.,.",
"                                          @ 8 K h._.oX_.a.3.D d : # 7 L v.#XpXpXpXpX3XA.R F F ! F.=X=XG.~ F 9 3 d m B N B B C B ",
"                                      X $ > a I ~ j.Z.B.M.p.w.S 4 # = J c.3XpXpXpXpXuXXXj.! ! j.XX6X6XoXl.E K S A V B =.N N M M ",
"                                      $ > u k x H U Q g.B._.B.4.g * = J c.3XpXpXpXpXpX4XXXD.S.XX4XuXuX4XOXS.k.9.2.;.B M =.N N N ",
"                                    # > u v j d 5 9 g E m.oXXXg.H 1 6 J l.#XpXpXpXpXuXtX4X2X2X4X6XuXuXuX6X=XoXM.8.:.B M M N N N ",
"                              O & 1 1 a k j s y ; # 1 J f.G.G.d.G , = G s.G.#X3X3X#X#X&X<X<X1X1X4X1X1XqXwX<X+X(.w.:.B b n b n b ",
"                            . 6 r J U I x k i > o   O w R f.f.R w * & q L s.l.C.C.C.Z.D._.[. X}.{.[.[.}. X}.).p.q.;.N v h s s p ",
"                            # w R h.k.4.I a > $     O - r J J r 6 # O = q G J J L L T 4.9.t.u.u.u.u.t.u.u.u.r.q.<.-.B h i 3 < > ",
"                            6 J h.G.G.j.U 8 o         # * = 6 & O . . O & 6 6 6 - 6 9 a A :.>.,.>.:.>.:.<.>.:.;.=.C b p 3 % @ X ",
"                    . . & = w E c.XXG.f.J -                         X O * 6 - * + X @ > u s b m b b b b b b b m m b j u : o     ",
"                    . 6 w J R s.l.m.h.E r &                         O 6 w G G q = .   o ; 2 y y i i i i i i i i s p u > % X     ",
"                    & r E f.m.l.s.R J w 6 .                         & F R d.d.R w +     o $ ; ; ; > > > > > > > < < : % o       ",
"                    - J f.G.XXv.E w = & . .                         6 J h.G.G.h.J =       o @ @ @ @ @ @ o @ @ @ @ @ @ X X       ",
"                  o 8 K j.G.G.h.J 6                                 , J h.G.G.h.J 6 . X & = , * O .                             ",
"              o $ : 5 S 4.j.h.E w #                                 * F ! h.h.E r * O 6 g J J r 6 O                             ",
"            X $ < y d x H U K e 6 .                                 O 7 F J J w 6 # * w R f.f.W F *                             ",
"            o > i j b k a 1 1 & . .                                 . O * 1 = & . . 6 J h.G.G.h.J -                             ",
"            @ 4 x D V k 4 %                                                         - J h.G.G.h.J -                             ",
"            * f Y w.8.Y f #                                                         * F ! h.h.! F *                             ",
"            = H 9.B.B.9.z &                                                         O 7 F J L F 7 #                             ",
"            1 L n.oX].k.K 1                                                         . O * , = * O .                             ",
"            , J h.G.G.h.J -                                                                                                     ",
"            * F W f.f.W F *                                                                                                     ",
"            O 7 t J J F 7 O                                                                                                     ",
"            . O * - - * O .                                                                                                     ",
"                                                                                                                                ",
"                                                                                                                                ",
"                                                                                                                                ",
"                                                                                                                                ",
"                                                                                                                                ",
"                                                                                                                                "
};
