/* XPM */
static char *sprite_4_2_resized[] = {
/* columns rows colors chars-per-pixel */
"64 64 239 2 ",
"   c #000001",
".  c #0A0703",
"X  c #0C0A02",
"o  c #0C0C0A",
"O  c #130E03",
"+  c #1A0F02",
"@  c #0F1100",
"#  c #131103",
"$  c #1C1305",
"%  c #1B1C00",
"&  c #14150B",
"*  c #1D170C",
"=  c #19190E",
"-  c #0E1311",
";  c #111412",
":  c #1C1C13",
">  c #201606",
",  c #231908",
"<  c #201D11",
"1  c #222300",
"2  c #2B2205",
"3  c #2C2902",
"4  c #2E2E09",
"5  c #362C05",
"6  c #362409",
"7  c #382509",
"8  c #323300",
"9  c #393602",
"0  c #3A3B00",
"q  c #202016",
"w  c #2C2B14",
"e  c #3A2F16",
"r  c #3A3517",
"t  c #373815",
"y  c #272C21",
"u  c #383927",
"i  c #483406",
"p  c #433109",
"a  c #4B330B",
"s  c #53360A",
"d  c #55390D",
"f  c #5A3C0D",
"g  c #423E10",
"h  c #573E14",
"j  c #424300",
"k  c #4D4703",
"l  c #4A4A00",
"z  c #5D420D",
"x  c #5E4D08",
"c  c #4E5000",
"v  c #4F500F",
"b  c #515200",
"n  c #5D5E00",
"m  c #52491A",
"M  c #65450E",
"N  c #655806",
"B  c #75560E",
"V  c #664916",
"C  c #7E5513",
"Z  c #5E6100",
"A  c #646500",
"S  c #6C6304",
"D  c #666900",
"F  c #6B6B01",
"G  c #736E02",
"H  c #7F660B",
"J  c #6F7209",
"K  c #747103",
"L  c #7D7305",
"P  c #7E7A0D",
"I  c #6C6C13",
"U  c #707610",
"Y  c #7C7B13",
"T  c #454625",
"R  c #48482F",
"E  c #594B26",
"W  c #5B502C",
"Q  c #414632",
"!  c #4B4C32",
"~  c #4E5032",
"^  c #565537",
"/  c #5A5A3B",
"(  c #695B2F",
")  c #606123",
"_  c #6C6736",
"`  c #77783E",
"'  c #76783F",
"]  c #5D6041",
"[  c #646644",
"{  c #7B7D52",
"}  c #825713",
"|  c #845C12",
" . c #836C0A",
".. c #8D6D0E",
"X. c #847606",
"o. c #8C7709",
"O. c #8C7809",
"+. c #967805",
"@. c #957B0B",
"#. c #997E0C",
"$. c #946315",
"%. c #9A6615",
"&. c #9A6A17",
"*. c #8F7A15",
"=. c #A47F0C",
"-. c #A26F13",
";. c #A17713",
":. c #A87B13",
">. c #AC7419",
",. c #976B21",
"<. c #947430",
"1. c #B07F27",
"2. c #7E841F",
"3. c #7E8155",
"4. c #9B800C",
"5. c #8A8016",
"6. c #998212",
"7. c #908318",
"8. c #998A1B",
"9. c #A3810F",
"0. c #AA850F",
"q. c #B5850E",
"w. c #BD870F",
"e. c #A78513",
"r. c #AC8511",
"t. c #B68611",
"y. c #B78815",
"u. c #BB8B15",
"i. c #B88118",
"p. c #BB901A",
"a. c #8A8B26",
"s. c #83832E",
"d. c #8C8B2E",
"f. c #9B9327",
"g. c #96932F",
"h. c #99962F",
"j. c #989A38",
"k. c #BC9220",
"l. c #B29530",
"z. c #BEA032",
"x. c #C08D15",
"c. c #CB8E14",
"v. c #C7861C",
"b. c #C8871D",
"n. c #C58F18",
"m. c #CC891C",
"M. c #D18E1A",
"N. c #C59116",
"B. c #C89119",
"V. c #CD921A",
"C. c #D69116",
"Z. c #D5951C",
"A. c #D99618",
"S. c #D9961D",
"D. c #DC991E",
"F. c #E1961A",
"G. c #E29A1E",
"H. c #EA9B1E",
"J. c #E6A01F",
"K. c #C89527",
"L. c #D89927",
"P. c #D69E2A",
"I. c #CA9531",
"U. c #E59B21",
"Y. c #EA9D22",
"T. c #E29F2B",
"R. c #D1A937",
"E. c #E9A127",
"W. c #E6A42E",
"Q. c #EAA32B",
"!. c #E7A631",
"~. c #E8A731",
"^. c #EAAC38",
"/. c #F0AD39",
"(. c #998749",
"). c #878954",
"_. c #848659",
"`. c #948E58",
"'. c #9D9355",
"]. c #B29747",
"[. c #AAAA4A",
"{. c #A2A252",
"}. c #BAB455",
"|. c #B9B558",
" X c #888E60",
".X c #9B9B64",
"XX c #989C69",
"oX c #9FA063",
"OX c #ABAA6B",
"+X c #B6B564",
"@X c #BABD62",
"#X c #B8B86D",
"$X c #B2B77A",
"%X c #CCA344",
"&X c #C0AF47",
"*X c #D9AC43",
"=X c #C8B249",
"-X c #DAB243",
";X c #DEB24D",
":X c #C1B859",
">X c #D5BA5D",
",X c #E2AF43",
"<X c #E7B547",
"1X c #EABA4E",
"2X c #F1B847",
"3X c #E7BE55",
"4X c #ECBC51",
"5X c #CEB760",
"6X c #D3BE66",
"7X c #C6BE71",
"8X c #BFC36A",
"9X c #DCC55F",
"0X c #ECC154",
"qX c #CBC477",
"wX c #C8CC75",
"eX c #C6C77F",
"rX c #D4CC71",
"tX c #D9CE73",
"yX c #D6D57F",
"uX c #E8C661",
"iX c #E7CD6C",
"pX c #EACE6D",
"aX c #EDD06E",
"sX c #F1D36E",
"dX c #EBD272",
"fX c #E6D578",
"gX c #CBCC83",
"hX c #CED086",
"jX c #D7D887",
"kX c #E7DD84",
"lX c #E8DD84",
"zX c #E7DF88",
"xX c #DCE092",
"cX c #E7E18B",
"vX c #ECE48A",
"bX c #E5E592",
"nX c #E9EB98",
"mX c #EAF09F",
"MX c #ECF2A0",
/* pixels */
"                                                                                                                                ",
"                                                                                                                                ",
"                                                                                                                                ",
"                                                                                                                                ",
"                                                                                                                                ",
"                                                                                                                                ",
"                    . o & : : = & # # & = : : = & # # & = : : = & # # & = : : = & # # & = : : = & # # & = : : & o .             ",
"                    o q u ! ~ T t 4 4 t T ~ ~ T t 4 4 t T ~ ~ T t 4 4 t T ~ ~ T t 4 4 t T ~ ~ T t 4 4 t T ~ ! u : o             ",
"                    & u [ 3.).{ ) v v ) ` ).3.' ) v v ) ` ).).` ) v v ) ' ).).' ) v v ) ' ).).' ) v v I { ).{ ] u ;             ",
"                    : ! 3.OX+X{.s.J I s.{.#X#X{.s.I I s.{.#X+X{.s.I I s.{.#X#X{.2.I I s.{.#X#X{.` I I s.[.#XOX_.! :             ",
"                    < ^ `.7XrX:Xh.2.Y g.}.rXrX}.g.Y Y g.}.rXrX}.g.Y Y g.}.9XrX}.g.Y Y g.}.9XrX}.h.P 2.h.}.rX7X'.^ <             ",
"                    < W (.5X9X=Xf.P Y f.}.9X9XR.f.P X.f.}.9X9X}.f.P P f.}.9X9X}.f.X.Y g.}.9X9X}.f.P X.f.&X9X5X'.W <             ",
"                    * E <.%X-XR.8.X.P 8.z.-X-Xz.8.P P 8.I.-X-Xz.8.P P 8.z.-X-XI.8.P P 8.z.-X-XI.8.P L 8.z.-X%X<.E <             ",
"                    > z ,.K.P.k.6.L P 4.k.P.P.k.6.L L 6.k.P.P.k.6.L L 6.k.P.P.k.#.P L 6.k.P.P.p.6.P L 6.B.P.K.,.f >             ",
"                    > f %.m.A.N.0.O.O.9.x.S.S.x.9.o.X.9.x.S.S.x.=.o.o.4.u.S.S.x.=.o.o.9.u.S.S.x.9.O.O.e.N.S.b.$.f $             ",
"                    $ d %.m.D.A.x.0.0.t.V.A.C.c.q.=.=.q.c.A.C.c.t.=.=.t.c.A.A.c.t.#.=.t.c.A.A.M.u.0.0.u.A.F.m.%.f >             ",
"                    > f %.m.H.J.A.N.n.C.A.F.F.C.c.x.x.c.C.F.F.C.c.x.x.x.C.A.F.C.c.w.x.c.C.F.F.C.V.N.V.A.H.H.c.%.d >             ",
"                    > d $.v.G.H.D.A.A.L.D.U.U.G.L.S.C.D.F.H.U.L.S.S.S.S.U.U.H.L.L.S.S.D.U.U.U.U.D.A.A.J.U.G.v.$.d $             ",
"                    $ a C >.v.m.m.v.m.I.L.W.!.!.Q.~.W.W.!.!.!.!.~.~.!.!.!.!.!.!.Q.!.!.!.!.!.!.L.K.b.v.b.m.v.>.C a $             ",
"                    O 7 f } $.$.$.$.&.i.I.*X1X1X1X1X1X1X1X1X1X1X1X1X4X1X1X1X1X1X4X1X4X4X4X<X*XI.1.&.$.$.$.$.} f 7 O             ",
"                    . > 6 a s s a s M <.].5XiXsXsXpXpXpXpXiXpXiXiXpXpXpXpXpXpXpXiXpXpXdXsXpX>X].<.z s a s s a 6 $ .             ",
"                      X O $ $ $ + > e _ '.7XkXvXvXlXlXlXkXkXkXkXkXkXlXlXkXkXzXkXkXkXkXvXvXlX7X'.( e , + + > $ O . .             ",
"                              o o : u [ XXhXbXnXnXnXbXbXcXzXkXkXlXlXlXlXlXkXkXkXlXlXlXvXnXbXgXXX[ u q - . .                     ",
"                              - y Q [  X$XjXnXMXMXnXbXcXfXfXiXiXpXpXdXpXdXpXpXpXpXpXdXlXbXbXjX$X X[ Q y ;                       ",
"                            o y ^ { XX$XgXxXmXmXmXnXbXkXiXuX1X1X1X1X1X1X4X1X1X1X1X1X3XpXlXcXxXhX$XXX{ ~ y o                     ",
"                          . : Q { OXgXjXbXbXbXnXnXbXzXiX3X^.!.W.!.!.~.~.~.~.!.Q.!.!.,X3XaXcXbXbXjXgXOX{ R :                     ",
"                        . $ e ( '.7XkXzXlXlXkXkXzXkXfXuX<XQ.U.U.S.S.Z.D.Z.Z.S.S.F.U.!.<XuXfXkXvXvXcXqX`./ 4 X                   ",
"                      + , a V <.%X>XaXsXsXuXiXiXiXiXuX1X/.T.G.C.c.x.w.:.q.q.w.c.C.A.E.^.1XuXpXaXsXaX>X]._ g 1 @ .               ",
"                    X 2 s } -.k.I.;X2X4X1X<X<X<X<X<X<X/.Q.Y.F.c.q.9.@.O.+.+.+.:.c.A.Y.!.^.<X1X4X0X0XR.l.*.v 0 1 #               ",
"                    $ a } >.m.L.T.!.~.~.~.~.~.~.!.!.~.T.Y.Y.S.x.9.O.L K G L +.0.x.A.Y.E.Q.Q.~.~./.~.P.k.#.S b 9 1 X             ",
"q q q q q q q : : q r V ,.I.!././.!.!.~.~.~.~.T.T.Y.U.U.U.S.n.r.+.K F J J P *.e.B.L.U.Y.Y.Y.Y.Y.Y.H.L.u.4.L N l 9 2 $ O .       ",
"/ / / / / / / / ^ / [ (.%X;X1X2X2X1X1X1X1X1X<X/.~.Y.F.Z.m.p.r.@.X.F D U 2.g.j.l.K.L.U.Y.H.H.H.H.H.H.A.x.4.L F A x z s 7 > .     ",
".X.X.X.X.X.X.X.X.X.XoX+X6XiXsXsXsXpXpXpXaXpXuX4X/.T.A.c.t.#.o.L F F D 2.j.[.|.=XR.W.U.G.H.H.H.H.Y.H.A.u.#.L G  ...$.} z 7 +     ",
"eXeXeXeXeXeXeXeXgX7XyXhXjXkXlXlXlXlXlXkXzXkXfXuX<XQ.A.x.=.o.L F F F 2.d.|.8XtX9X,X!.Y.H.H.U.Y.Y.Y.H.S.y.@.L L o.e.i.>.C a +     ",
"eXeXeXeXeXeXgXeXeXgXgXgXhXyXyXyXyXyXyXjXjXyXtX9X<XQ.D.x.9.o.L K K *.a.[.8XjXcXaX1X!.U.H.H.U.U.U.U.S.m.0.O.L L o.e.i.>.C a $     ",
".X.X.X.X.X.X.X.X.X.XXX{.+X@X|.wX@X|.@X@X@X@X:X=XR.W.L.c.q.=.6.7.a.h.{.|.wXbXcXdX4X!.Y.H.H.Y.U.S.V.u.t.#.X.L G  ...%.| z 7 O     ",
"^ / / / / / / / ^ / ] ' s.j.j.j.j.j.j.j.j.j.j.z.P.L.H.A.c.p.p.l.z.}.wXwXxXbXcXdX1X!.U.H.H.Y.L.V.y.9.@.X.L K F N N z a 6 > .     ",
": q q q q q q : : < w g ) I Y Y 5.Y 2.Y Y Y 5.e.n.L.H.G.A.Z.P.*X9XtXyXxXbXbXcXiX1X!.Y.H.H.H.A.N.9.o.K K K F A c 9 2 $ O . .     ",
"                    . 2 0 b n D F F D F F F L @.t.B.Z.D.H.H.Q.<X9XfXcXcXvXfXfXuX1XW.U.H.G.S.B.r.@.L F A A Z c 0 , X             ",
"                      # 1 0 j b n A D D A S F X.@.r.x.M.G.Y.~./.0XpXaXdXdXpXuX1X^.Q.U.A.V.x.q.4.X.K A Z b l 0 1 # .             ",
"                      . # 1 3 j b A F F F F F G X.@.9.y.Z.G.Q././.2X4X4X4X1X<X,X/.Y.U.M.u.9.@.X.L F A b j 8 1 # X               ",
"                          X % 3 j n F F F F F F G L X.9.u.S.Y.E.Q.~.~.~.!.!.Q.Q.Y.Y.S.x.9.X.K K K F Z l 8 % X .                 ",
"                            X 1 0 l Z A D F F F D F L O.t.B.Z.S.S.Z.L.A.Z.Z.Z.Z.S.Z.n.t.6.K D D A Z b 0 % X                     ",
"                              @ 1 9 j b n A D D A D F X.#.e.y.t.t.t.q.t.t.t.w.t.y.y.e.#.X.F A b c j 8 1 @                       ",
"                                @ % 3 0 l n D D D D F G X.O.@.@.#.@.+.+.@.@.@.@.#.@.o.X.K F Z l 0 1 % @                         ",
"                                  @ % 8 l A F F F F F G K K L L L L L L L L L L L L L L K F N j 8 % @ . .                       ",
"                      o & : < < = * 2 i x S L L X.L L L L L L L L L L L L L L L L L L L L L S x i 2 % $ $ $ $ O . .             ",
"                    o : u ! ~ R E z M M H @.#.4.#.#.#.#.#.@.@.@.@.#.@.@.@.@.@.@.@.@.#.#.4.#.@.H N h d d d s a 7 $ .             ",
"                    & u ] 3.`.(.<.,.&.;.:.i.y.u.x.u.u.p.y.y.y.y.u.u.u.y.y.y.y.y.u.u.u.u.u.u.i.:.-.&.$.$.&.$.C z 7 O             ",
"                    : ! { OX7X5X%XK.m.V.M.Z.Z.Z.S.Z.Z.S.Z.Z.A.Z.Z.Z.Z.Z.Z.Z.A.Z.Z.Z.Z.Z.Z.Z.Z.Z.m.b.b.m.m.v.>.C p $             ",
"                    < ^ `.7XtXiX<XP.A.A.F.U.U.G.S.S.S.D.U.U.U.U.S.S.S.S.D.U.U.U.L.A.Z.D.L.H.H.D.D.Z.L.U.G.G.v.$.d $             ",
"                    < W (.5XuX0XR.K.N.V.A.Y.U.S.V.n.n.V.S.U.U.S.V.B.B.V.S.U.U.D.V.n.N.V.S.H.H.L.Z.B.B.A.J.E.m.%.f >             ",
"                    , m <.%X<XR.K.e.e.u.Z.D.D.V.y.e.e.y.V.D.D.V.y.0.0.y.V.L.G.V.y.0.e.y.V.D.U.V.y.0.0.u.A.J.m.&.f >             ",
"                    > h ,.I.P.K.e.O.5.0.u.S.A.N.9.o.o.=.x.S.A.N.9.o.O.6.N.Z.A.x.9.O.O.9.n.S.Z.x.9.o.O.0.N.A.v.%.f >             ",
"                    > f %.v.D.p.4.L L #.u.S.A.p.#.L X.#.y.Z.S.u.#.L L #.u.A.A.u.#.X.L #.u.A.A.u.6.X.L 4.p.Z.v.&.d >             ",
"                    $ f %.c.A.N.4.L L 4.u.S.D.u.#.L L #.x.S.D.p.4.L L #.p.D.S.u.#.K L #.p.D.A.p.#.K L 4.N.D.m.&.f >             ",
"                    > f %.m.A.N.9.L X.4.u.D.D.p.4.L L 4.p.D.D.u.4.L L #.u.D.D.N.#.L X.#.x.D.A.p.4.L X.4.N.S.m.&.f >             ",
"                    $ f %.v.Z.x.#.L L @.u.A.V.u.#.L L #.u.Z.Z.u.#.L L @.y.Z.Z.u.@.L L @.y.Z.Z.u.#.L L 4.u.Z.v.%.f >             ",
"                    $ a } >.>.:. .N S  .;.i.i.;.H S S H =.i.i.;. .S S  .;.i.i.;. .S S  .;.i.i.;. .S S  .:.i.>.C a $             ",
"                    O 6 z } | B N k k x B | | B x l k x B | | B x k k x B | | B x k k x B | | B x k l x B | C f 6 O             ",
"                    . $ 6 a a p 5 3 3 5 p a a p 5 3 3 5 p a a p 5 3 3 5 9 a a p 5 3 3 5 p a a p 5 3 3 5 p a a 7 $ .             ",
"                      X O $ $ $ # # O # $ $ $ $ # O O # $ $ $ $ # # O # $ $ $ $ # # O # $ $ $ $ # @ O # $ $ $ O . .             ",
"                                                                                                                                ",
"                                                                                                                                "
};
