/* XPM */
static char *sprite_2_20_resized[] = {
/* columns rows colors chars-per-pixel */
"64 64 66 1 ",
"  c #000001",
". c #0B0501",
"X c #05070A",
"o c #05090D",
"O c #0C0C0D",
"+ c #100700",
"@ c #150A01",
"# c #1D0B00",
"$ c #1E150D",
"% c #0F1318",
"& c #151516",
"* c #151718",
"= c #1A1A1B",
"- c #200F01",
"; c #241101",
": c #2A1401",
"> c #331700",
", c #351902",
"< c #3C1C01",
"1 c #3A2009",
"2 c #362515",
"3 c #1E1F20",
"4 c #1E2125",
"5 c #232324",
"6 c #2A2420",
"7 c #252729",
"8 c #26282B",
"9 c #2C2C2C",
"0 c #372E26",
"q c #392F27",
"w c #2E2F30",
"e c #353536",
"r c #3B3937",
"t c #36393C",
"y c #3C3D3D",
"u c #411E00",
"i c #462100",
"p c #4A2300",
"a c #49290C",
"s c #522600",
"d c #562901",
"f c #5A2C02",
"g c #642E00",
"h c #663000",
"j c #693200",
"k c #733700",
"l c #763901",
"z c #3D3E40",
"x c #434343",
"c c #474748",
"v c #4B4B4C",
"b c #4E4F50",
"n c #4F5052",
"m c #555555",
"M c #575758",
"N c #575859",
"B c #5B5B5B",
"V c #646464",
"C c #686867",
"Z c #696969",
"A c #853F00",
"S c #864000",
"D c #8B4200",
"F c #944600",
"G c #974800",
"H c #9B4900",
/* pixels */
"                                                                ",
"                                                                ",
"                                                                ",
"                                                                ",
"                                                                ",
"                                                                ",
"                   ..@++.                                       ",
"                  .+;>>;@.                                      ",
"                  .;isdi:+                                      ",
"                  +>flkf>+                                      ",
"                .@:pjDSj<@  XOOXX                               ",
"              .@#>phDGDj<@Xo*=3=O                               ",
"              .;<djSFHDj<@X&7ee8*X                              ",
"              +>slDGHHSf>@O3tcct5O                              ",
"              @<gSGGHDlf,;=9cNmcw=OX                            ",
"              +<jFHFAjfa269znBBmzw3$O                           ",
"              @<jFFAgi<20rxbBVBBmxe6&X                          ",
"              @<jSDki;$5tbNBBVVVBMvr=O                          ",
"           ..+;igllf<$=9zNVVVVVVCVMxw=OX                        ",
"           +-><pdffa259tbBCZCVVCCVBnz9=&OX                      ",
"          .;<dfdp<12qrxbmBCVVVVVCVBNnxr6&X                      ",
"          +>fllgu;$6rvNBVVVVVVVVVVVVBmve=O                      ",
"        .+:pkASg<@o4zNVVVVVVVVVVVVVCCVMx9*OOOO&OOOOXX           ",
"      .@;>ijAGDg>@o3zNVZVVVVVVVVVVVCCCBby9755556773&O           ",
"      .;<djSFHFh>@X3zmVZZVVVVVVVVBVVCVBNvcyyyzzxxye6&X          ",
"      +>dlDGHFSg,@O3zmVVVVVVVVVBVVVVVVVBNMMmmmmMNMvr3O          ",
"      @<hSGHFDlf,$=wxNVVVVVVVVVVVVVVVVVVVVVVVVVVCVBx9*OX        ",
"      +<hDGFAjfa269zvBVVVVVVVVVVVVVVVVVCVCVCCCVCCVBbyw3&OX      ",
"      +<hDDAgi<2qyxbNBVVVVVBVVVBVVVVVVVVCVCVVCVCCCVMvce7&O      ",
"      @1jSDki:$5rvNBVVVVVVVVVVVVVBVVVVVVVVVVVVVVVVVBBMve=O      ",
"    .+:pkDSg<@O5zmVVVVVVVVVVVVVVVVVVVVBVBVVVVVVVVVVCCVMy7O      ",
"  .+#>phlGDg>@O4zNVCCVVVVVVVVVVVVVVVVVVVVVVVVVVVVCCCZCNz6O      ",
"  +;<djAFHAg>@O4ymVCCVVBVVVVVVVVVVVVVVVVVVVVVVVVCVCCZCMz5O      ",
"  @>slDGHHAg>@O3ymVCCVVVVVVVVVVVVVVVVVVVVVVBVVVVVVVCVVMy6O      ",
"  @>fDGHGAls:@O5yMVVVVVVVVVVVVVVVBVVVVVVVVVVVVVBBBmBVVMc9=OX    ",
"  @<hDGFAkd,-.O4tMVCCVVVBVVVBVVBVVVVVVVVCVCVVVBmvxxvNBNny95&OX  ",
"  @<hDFAgp>#. O5yMVCVVVVVVVVVVVVVVVVCVCCCCCCCVBvr99rvBBNmxe6&O  ",
"  @<hSDju:@. XO6zMVCCVVVVVVVVVVVVVVVVVVVVVVVCVmx9=&9xMVVBNve=O  ",
"  @<hASh<@   o=9cmVVVVVVBVVVVVVVVVVBBNmmmmBBVBmy3OO5ymVZZVmy7O  ",
"  @<hSAg<@ o&5wzvBVCCVVVVVVVVVVVCVVNvxyryzxnNVNy3OO6rMVZZCBz7O  ",
"  @<jAAh<@X%7tcnBVCCVVVVVVVVVVVCCVBvy976359zmNMy5OO=rmVZZZBz6&  ",
"  @<hSSg<@O*evNBBVVVVVVVVVBVVVVVCVMc9=OXOO=wcMMy5&O5ymVCZCmy6o  ",
"  @<hAAh<+O3evmNNmMBBVVVVVVVVVVVBNve=O    O5rccr=OO6ymVVVMve=O  ",
"  @<hAAj<@O*4txxxzxbBBVCCCVCVVBmvxe6&X    X&9ee9&OO5zmVBnxe7&O  ",
"  @<hAAj<@XO&57777wybBCZCCCCCVNvy9=&O      O===&OXO7zmBbz9=&OX  ",
"  @<hAAju@  XOOOOO=9xmVCVVVVCVNc9=OX.      XOOOX  O7zmmce=OX    ",
"  @<hSAj<@        O=rvmMBmMBVVMy7O                O7xMMx6O      ",
"  @<hAAj<@        .&7ryzzzcbBBMy7O                O9cmMx7O      ",
"  @<hSSh<@         O&375569znBMx7O                O9xMMx7O      ",
"  @<hSSh<@         XOOOOOO=wcMMx7O                O7xmmx6O      ",
"  @<hSSji@                O5rvvr5O                O5tcvr5O      ",
"  @<hSSh<@                X&7ee9*X                O*9ee9=X      ",
"  @<jSSj<@                 O====OX                XO*3==OX      ",
"  @<hASju@                 XOOOOX                  XOOOOX       ",
"  @<hASh<@                                                      ",
"  @<hSSj<@                                                      ",
"  @<hSShu@                                                      ",
"  @<hSSj<@                                                      ",
"  @<hSSju@                                                      ",
"  @<hSSh<@                                                      ",
"  @<hSSj<@                                                      ",
"  @<hAShu@                                                      ",
"  @<hSDj<@                                                      ",
"  @<hSSj<@                                                      "
};
