/* XPM */
static const char *sprite_4_4[] = {
/* columns rows colors chars-per-pixel */
"16 16 4 1 ",
"  c #000001",
". c #6B6B00",
"X c #E79C21",
"o c #E7E794",
/* pixels */
"       X        ",
" oXX  ooo  oXX  ",
" ..X oooXX X..  ",
" oXXooXXXX.XXX  ",
" ..XoXXXXX.X..  ",
" oXXoX..oX.XXX  ",
" ..XoX.ooX.X..  ",
" oXXoXXoXX.XXX  ",
" ..XooXXX..X..  ",
" oXXoXXo...XXX  ",
" ..X X.o.. X..  ",
" oXX  .o.  XXX  ",
"       o        ",
"       o        ",
"       o        ",
"                "
};
