/* XPM */
static const char *sprite_8_20[] = {
/* columns rows colors chars-per-pixel */
"16 16 4 1 ",
"  c #000001",
". c #590D79",
"X c #B53121",
"o c #FFFFFE",
/* pixels */
"                ",
"     o       o  ",
"     o       o  ",
" oo.  o     o   ",
".oo.. o o  .    ",
"o  o..o o oo    ",
"... oooo o      ",
"oo.oooooo o     ",
".oo.oo .o    .o ",
"oo oo oo.o   o  ",
"Xooo.ooo.ooo    ",
"X.ooo.o.o o.o   ",
"XooXX.oo o..o   ",
"XXXoXoooo oo    ",
"oXoX.ooooo oo   ",
" oXoooo o o..   "
};
