/* XPM */
static const char *sprite_2_18[] = {
/* columns rows colors chars-per-pixel */
"16 16 3 1 ",
"  c gray39",
". c gray68",
"X c white",
/* pixels */
" ..X ..X ..X ..X",
"......X ......X ",
".....X ......X .",
"X...X ..X...X ..",
" ..X ..X ..X ..X",
"..X ..X ..X ..X ",
".X ..X ..X ..X .",
"X ..X ..X ..X ..",
" ..X ..X ..X ..X",
"......X ......X ",
".....X ......X .",
"X...X ..X...X ..",
" ..X ..X ..X ..X",
"..X ..X ..X ..X ",
".X ..X ..X ..X .",
"X ..X ..X ..X .."
};
