/* XPM */
static char *sprite_2_17_resized[] = {
/* columns rows colors chars-per-pixel */
"64 64 109 2 ",
"   c #000100",
".  c #020C01",
"X  c #080E00",
"o  c #001502",
"O  c #0C1300",
"+  c #001C03",
"@  c #131D00",
"#  c #022403",
"$  c #002E05",
"%  c #112A02",
"&  c #003405",
"*  c #003B06",
"=  c #0C3E04",
"-  c #1D3601",
";  c #1F3801",
":  c #233500",
">  c #004606",
",  c #024C05",
"<  c #094F02",
"1  c #004708",
"2  c #004E08",
"3  c #025107",
"4  c #0B5404",
"5  c #075807",
"6  c #0C5B06",
"7  c #015208",
"8  c #075908",
"9  c #0A5C08",
"0  c #135702",
"q  c #135B03",
"w  c #195E01",
"e  c #2D4600",
"r  c #214F03",
"t  c #2D4800",
"y  c #304700",
"u  c #334D00",
"i  c #225203",
"p  c #365200",
"a  c #385300",
"s  c #375800",
"d  c #3C5D00",
"f  c #136307",
"g  c #1A6303",
"h  c #146807",
"j  c #1D6C06",
"k  c #216702",
"l  c #246C02",
"z  c #2A6E00",
"x  c #366402",
"c  c #3D6201",
"v  c #3A6902",
"b  c #237205",
"n  c #2D7402",
"m  c #2D7B05",
"M  c #317600",
"N  c #347C02",
"B  c #397F00",
"V  c #416200",
"C  c #416D01",
"Z  c #427001",
"A  c #4C7B01",
"S  c #537F00",
"D  c #348305",
"F  c #3B8402",
"G  c #378905",
"H  c #3D8B04",
"J  c #408600",
"K  c #4A8402",
"L  c #428B02",
"P  c #4C8E03",
"I  c #558300",
"U  c #598500",
"Y  c #578A00",
"T  c #5B8900",
"R  c #439204",
"E  c #4B9502",
"W  c #4D9A03",
"Q  c #519601",
"!  c #5E9000",
"~  c #549C01",
"^  c #589F00",
"/  c #629400",
"(  c #55A203",
")  c #5BA501",
"_  c #5DAB03",
"`  c #60A700",
"'  c #6DA500",
"]  c #62AB01",
"[  c #6AAB01",
"{  c #71AA00",
"}  c #66B302",
"|  c #6BB401",
" . c #6EBA02",
".. c #76B700",
"X. c #78B700",
"o. c #72BB01",
"O. c #7BBB00",
"+. c #75C101",
"@. c #7BC500",
"#. c #7EC901",
"$. c #82C500",
"%. c #83CC00",
"&. c #89CE00",
"*. c #85D101",
"=. c #8BD500",
"-. c #8FD900",
";. c #92DD00",
":. c #95E100",
">. c #99E400",
/* pixels */
"    . o & > 7 7 7 7 7 7 2 1 2 1 , , < > * , 9 G } #.@.T u O         . + $ 1 7 7 7 7 7 , 2 2 1 , , , < * > , f G _ @.O.T u O     ",
"    . + & > 7 7 7 7 7 7 7 7 7 3 < , > , , 3 f G _ +.O.T p @         . + & 1 7 7 7 7 7 7 7 7 7 3 , < , , 1 7 f G _ +.X.Y p @     ",
". . o # * 1 7 7 7 7 3 8 6 f f q 4 < < < 4 f l H _ | [ Y c : @ X . . o # * 1 7 7 7 7 7 8 9 f f 6 4 < < < 8 f b H _ } } I s : @ O ",
"o + # & * 1 7 7 7 7 4 g b m m b w 4 4 q j m D R W ~ Q P v p e - % # # $ * 2 7 7 7 3 4 g b N m b w 4 4 q j m G H W ( ~ K C s u y ",
"& & * * 1 2 7 , , , q z L ~ W H b 6 6 j D W W W H G D J K I A x r = * * 1 2 2 2 , , q z L W W G l q 6 j D W ( W R D D J K I I I ",
"> > 1 2 2 7 7 , , < q N ~ } } W m h f m W } | ( G b b D ~ [ [ E n 0 1 > 2 2 7 2 , , q N ~ } } W m f f b W } | ( D b b D ~ [ O.O.",
"2 7 7 7 7 7 7 , , , q M ~ } } W m 9 f D _ +.@.} H b m H ] +.+._ D f 7 2 2 7 , , , < q N ~ } } W m f f D ) @.@.] R b b H _ @.=.;.",
"7 7 7 7 7 7 7 , , , q z H W W D j 9 f D _ #.*.o.( R H ( +.*.#.} G h 7 7 2 7 7 2 1 , 0 z H W W G j 8 h D _ #.*.+.( R H (  .*.;.:.",
"7 7 7 7 7 7 7 , , , 4 f b m m j 9 5 f D _ #.=.%.+.} _  .#.=.@._ G h 7 7 2 7 7 2 , , 4 f b m m j 9 8 f D _ %.=.%.o.} ]  .#.*.;.:.",
"7 7 7 7 7 7 7 2 7 7 5 8 6 f f 8 3 5 f D ) +.=.=.#.@.@.*.=.*.@._ D f 7 2 , 7 7 7 7 7 5 8 9 f f 8 7 7 f D ( +.=.=.%.@.#.#.*.*.-.-.",
"7 7 7 7 7 7 7 7 7 7 7 8 8 f f f 9 h b G ( | +.$.@.+.@.*.=.*.@.) D h 7 2 7 7 7 7 2 7 7 8 8 h f f f f l D (  .@.@.@.@.@.#.*.*.=.-.",
", 7 , , 7 7 7 7 , , 7 f j m D D D D G L E ~ ( ( ( _ _ +.*.*.@._ D f 3 1 1 7 7 2 2 7 7 f j m D D D D G H E ~ ~ ) ( ) ]  .#.*.-.;.",
"< , < , 3 7 2 2 2 7 9 j G W _ _ _ ) ~ E J B N n m D H ) O.*.@.] J w , , , , 7 , 2 2 9 j D W ) _ _ _ ~ E K B N M m D R (  .%.;.:.",
"< , < , , 7 7 2 2 7 f m W } +.#.@.@. .~ F l w q q h b R ] @.@.) B w , , , 7 7 7 2 7 f m W | @.%.#.@.| ~ F l w 6 6 f b R } @.=.-.",
"< < < , 7 7 7 7 9 f l D ( | @.*.=.=.@.] L z w q q h b H )  .| ~ N q < 1 1 7 7 8 9 f b G ( } @.*.=.=.@.] K z w 6 6 g b G ( | @.#.",
"< , , , 2 7 9 h b m H R W ) ] o.%.=.%.o.~ K N n m m D H E Q E F z 0 , > , 7 8 f b m G R W ) ] X.%.=.%.o.^ J N M m m D H P ~ ^ ( ",
", , , , 7 7 6 b H ~ ( ~ L F J ~ o.%.=.@...) ) ~ ( ( ~ E L B n k w 4 7 2 2 7 f b H ~ ( ~ K F L ^  .$.=.#.o.` ^ ^ ( ( ~ R J N M M ",
", , 7 2 2 7 f D ~ } | ( F z n K ] @.=.=.%.@.@.@.@.+. .~ F l w 4 3 3 7 , 2 7 f m ~ } | ^ F z z J ` @.=.=.%.@.@.@.@.@. .~ F z i 0 ",
"7 7 2 7 , 7 9 m ~ } | ^ F z z J ` @.=.;.;.-.=.;.;.=.@.] K z w 4 3 3 7 , 2 7 f m W }  .~ F z z J ) @.=.;.;.=.=.;.;.=.@.` K z g q ",
"2 7 2 1 1 , 8 b G W ( E J B J Q | $.=.;.;.;.;.;.;.;.%...~ J n g 6 5 7 1 1 1 4 l G W ( E J B J Q | %.=.;.;.;.;.>.;.;.$. .~ J N M ",
"2 , 2 , 1 , 3 q j m D L E ~ `  .@.%.-.;.;.;.:.;.;.;.=.@..._ E D j 8 , 1 1 , , q l m G L E ~ )  .@.$.;.;.;.;.:.;.;.;.*.@.} ` ^ ~ ",
"7 7 7 , , < < 4 6 f b G ~  .@.$.=.=.=.=.=.=.=.;.=.=.=.=.%.@.| W m q 7 , 1 , 4 4 8 f l G (  .@.%.=.=.=.=.=.=.=.=.=.=.=.*.%.@.O.@.",
"f f f f w w w q q f b H _ @.=.;.;.=.=.%.%.@.@.%.%.=.=.-.-.=.@._ H b f q w w w q w h b R ] @.=.;.;.=.=.%.%.@.@.$.*.=.=.-.-.=.=.-.",
"G G F D F B N N m D H ( o.*.;.>.;.=.*.O.} ) ` [ @.%.-.:.:.:.*.+._ E G D N B N N m m G ( o.*.;.:.;.=.%.@.[ ] ` } @.%.=.;.;.;.:.:.",
"_ _ _ _ ) ) ) ) ~ ( _  .@.=.;.;.;.=.%.} Q J J Q } $.-.;.:.;.-.*.+.} _ _ ) ) ) ~ ~ ( _  .#.=.;.:.;.=.%.} Q J J Q [ #.=.;.;.;.>.:.",
"@.@.@.@.@.@.@.O.@.+.@.%.%.=.-.;.;.=.@.` J z z J ` @.=.;.;.=.=.%.#.@.+.@.@.@.@.@.@.@.@.%.%.=.=.-.;.=.@.` J z z J ] @.=.;.;.=.=.=.",
"X.O.O.@.$.=.=.-.-.=.=.%.%.@.@.%.=.=.$.` J z z L ] @.=.&.%.O.O.X.o.O.O.$.$.=.=.=.=.=.=.=.#.@.$.%.=.=.@.` J z z J ` @.=.=.$.O.O.X.",
"T ! / { $.=.;.>.>.:.=.@. .] ] ..@.*.%...^ L L ~  .%.$.O.' ! T U Y T / { $.=.;.>.>.;.=.@. .] ] ..@.&.%...^ L L ~  .@.$.O.' / T I ",
"y a V U { &.;.>.>.;.=...~ L K ~ ..%.=.@...] ]  .@.%.@.' I V u e y p V Y { &.;.>.>.:.*.o.~ K L ^ o.%.=.$. .] ]  .$.%.@.' I V u y ",
"X % : d T O.=.:.:.=.@.) J z z J ) @.=.=.$.@.@.*.=.=.O./ V : @ O O @ : c / O.-.;.:.=.#.) J z z J ` @.*.=.#.@.@.*.=.&.O./ d : @ O ",
"    @ e A [ @.*.%.@.} E n w q M E | @.@.#.@.@.#.=.=.O.T u @         @ t A [ @.%.#.@.} E n w w z Q } @.@.@.@.@.#.=.=.X.U u @     ",
"    X - x P ( _ _ _ W D g 4 < g B E ) ) ) _ ] +.%.*.O.U y O         X ; x P ) ] _ ) W B g 4 < k N Q ) ) ) _ } +.*.*.O.I e O     ",
"    . % r l D G D D m j 6 , 2 0 k M B B D D H _ +.%.O.T y O         . % r z D G G D m j 6 3 , 6 k M B B B D H _ +.%.O.U y O     ",
"    . # = 0 f h h f f 6 9 5 3 5 0 q q q 6 h b R } @.X.T p @         . # = 0 f h h f f 9 5 7 5 4 0 q w q f f b R } +.X.Y u @     ",
". . o # * > 7 7 7 7 3 9 9 f q q 4 4 < < 9 f b G _ } [ Y d : @ X . X o # * 2 7 7 7 7 3 8 6 f f 6 4 < , 4 6 f b G _ } } I s : @ O ",
"+ + # $ * > 2 2 1 2 4 f b m m b q 4 < 6 g m D R W W ~ K Z s t : % # # $ * 1 2 2 , 1 4 f b N m b w 4 , 0 h b G H W W ~ K C s p y ",
"$ * * * > 1 7 , 1 , 4 n L ~ W H l 6 6 k D R ~ R H G D F K Y A v i = * * * 2 2 1 > , 4 l L W W G l 8 4 j D E ( W H D N J K I Y T ",
"> > > > 2 , 7 1 , , q N ~ } } W m 6 6 m W }  .( G b b D ~ } [ E n 0 1 > 2 2 2 2 , < w N ~ | } W m f f m W } | ( G b b D ~ [ O.O.",
"7 7 7 7 7 7 , , , , q N ~ } } W m f h D _ +.#.] R b b R _ @.+._ D h 7 7 2 7 7 1 1 , w N ~ } } W m f f m ( @.@._ R b b H _ @.=.;.",
"7 7 7 7 7 7 7 , , , q z G W W G h 9 f D _ #.*.o.( H R ( +.*.#._ G f 7 2 7 7 7 , , , 0 l H W W G j 8 h D _ #.*.+.( R H (  .*.;.:.",
"7 7 7 7 7 7 7 7 2 7 4 f b m m j 9 8 f D _ #.=.*.+.} _  .#.=.@._ G h 7 7 7 7 7 , 2 , 4 f j m m j 9 8 f D _ #.=.%.o.} }  .+.*.;.:.",
"7 7 7 7 7 7 7 7 2 7 3 9 9 f f 9 7 8 f D ( @.=.*.#.@.@.%.=.*.@._ D f 7 2 2 7 7 2 7 7 5 8 f f h 8 7 7 f N ) @.*.=.%.@.#.#.*.=.-.-.",
"7 7 7 7 7 7 2 7 7 7 8 8 q f f 9 f f j D ( | @.@.@.@.@.*.=.*.@.) D f 7 2 2 7 7 7 7 7 7 8 9 f f f h f b G ( | @.@.@.+.@.#.*.=.=.-.",
"7 3 , 3 , 7 7 2 2 7 7 9 j m D G D D G R W W ^ ^ ( _ _ +.*.*.#._ D g 2 2 , 2 7 2 2 7 7 f j m D D D D G H E ~ ^ ) ( _ ]  .#.*.-.;.",
", < < , 7 7 7 , 2 2 8 j D W ) _ _ ) ~ E L B M m m D H ( O.%.@.] F w , , , , 7 , 1 7 9 j D W ) _ _ ) ( E J B N n m D H (  .*.-.:.",
"< , < 3 , 7 7 7 2 7 f m W } @.#.#.@. .^ B z w 0 q f b E } @.@.` F w , , , 7 7 7 2 7 f m W | +.%.#.+. .~ F z w q 6 h b R _ @.=.;.",
"< < , , , 7 7 5 9 f b G ( | @.=.=.*.@.] J l w q q f b H (  .[ ~ M q < , 1 7 7 8 9 f b G ( } @.*.=.=.@.] K z w 0 q f b G ( | @.#.",
"< , , , , 7 8 f b m H R ~ ( ] X.%.*.%.X.^ K N m m m D H E W Q B z 0 , 1 , 7 8 f b m G R W ) ] X.%.=.$.o.^ J N m m m D H P ~ ^ ^ ",
", , 3 , 2 7 f b G ( ) ~ L B L ^ ..%.*.@...) ^ ~ ) ( W E J B n k w 4 7 , 7 7 9 b H ~ ( ~ L F K ^ o.%.=.@.o.` ^ ~ ( ( ~ E F N M M ",
"1 , 7 , , 7 f m W } } ) F z z K ] @.=.=.%.@.@.@.@.@. .~ F z w 4 3 3 7 2 2 7 f N ~ } } ^ F z z J ` @.=.=.%.$.@.@.@.@.| ~ F z i 0 ",
"7 7 7 , , 7 f m ( } | ~ F z z J ` $.=.;.;.-.=.-.-.=.@.] L z w 4 3 3 7 2 2 7 f m W |  .^ F z z J ] @.=.;.;.=.=.-.;.=.@.` K z g q ",
"2 2 2 2 1 , 8 l D W ( W J B F ~ } $.=.;.;.;.:.:.;.;.%...^ F n j 6 5 , , 1 1 8 l G W ~ E J B J ~ } $.=.;.;.;.;.>.;.;.%. .~ J N M ",
"2 2 2 1 1 , , w j m D L E ~ ) | @.%.=.;.;.;.;.;.;.;.=.@...) E N j 8 2 > > , , q l m D L R ~ ` | @.%.=.;.;.;.;.:.;.;.*.@.} ` ^ ~ ",
"7 7 7 , , , < 4 6 h b G ~  .$.$.=.=.=.-.-.=.-.=.-.=.=.=.%.@.| W m q 7 , 1 , < 4 9 f b G (  .@.%.&.=.=.=.;.=.=.-.=.=.=.%.%.@.O.@.",
"f h h w g w w q q f b R _ @.=.;.;.=.=.%.%.@.@.%.%.=.=.;.;.=.#._ H b f q w w w w q h b L ] @.=.;.;.=.=.%.$.@.@.$.*.=.=.-.=.=.=.-.",
"G G D G F B N N m N G ( o.=.;.:.;.=.%.@.[ ` ` } @.%.=.;.:.;.=.+._ E G D D N N N m m H ( o.*.;.:.;.=.&.@.} ` ` } @.%.-.-.:.:.:.:.",
"_ _ _ ) ) ) ^ ) ( ( _  .@.=.;.:.;.=.%.[ ~ F J Q } %.=.;.:.:.-.%.+.} _ ) ) ) ) ~ ~ ( _  .@.=.;.>.;.=.%.[ Q J J Q [ %.=.;.:.;.:.:.",
"@.@.@.@.@.@.@.@.@.@.@.#.%.=.=.;.;.=.@.` J z z J ` @.=.;.;.=.=.%.#.@.@.@.@.@.@.@.@.@.@.%.*.=.=.;.;.=.@.` J z z J ) @.=.;.;.=.=.=.",
"X.X.O.$.$.=.=.=.=.=.=.%.$.@.@.%.=.=.@.` J z n J ` @.=.&.$.O.X.X.o.X.O.@.$.=.=.=.=.=.=.$.#.@.@.$.=.=.@.] J z z J ] @.=.&.$.O.O.X.",
"Y T / ' O.&.;.:.;.;.=.@. .] `  .@.%.$.| ~ K F ~ | %.%.O.' ! I I I T / ' O.&.;.;.;.;.=.@.| ] ] | @.%.$.| ~ L J ~  .@.$.O.' T U I ",
"e u V I ' $.;.:.;.;.$.| ~ J K ~  .$.%.@.| ] _  .@.%.$.' I d u e y u V I { $.;.:.:.-.%. .~ L K ~ | %.%.@. .` ]  .@.%.@.' I V u e ",
"O @ : V T O.=.:.:.-.#.` J z z F ` @.=.=.$.@.@.%.=.=.O./ V : @ O O @ : V / O.=.:.:.=.@.] F z z K ` @.=.=.%.@.@.%.=.=.O.T d : @ O ",
"    @ y Y X.-.:.:.=.@.^ M w w N ^ @.=.;.;.=.-.-.;.=.O.U u @         @ u Y O.=.:.:.-.@.^ M w w M ^ @.=.-.-.=.-.;.;.=.O.I u @     ",
"    O e I X.=.:.:.=.O.^ M 0 0 M ~ @.=.;.:.;.;.:.:.=.X.I e O         O e I O.=.>.:.=.O.^ M 0 0 n ~ @.=.;.:.;.;.:.:.=.X.S e O     "
};
