/* XPM */
static const char *sprite_0_20[] = {
/* columns rows colors chars-per-pixel */
"16 16 4 1 ",
"  c black",
". c #6B0800",
"X c gray39",
"o c #9C4A00",
/* pixels */
"....X.......X...",
"ooooX.ooooooX.oo",
"ooooX.ooooooX.oo",
"XXXXXXXXXXXXXXXX",
"X.......X.......",
"X.ooooooX.oooooo",
"X.ooooooX.oooooo",
"XXXXXXXXXXXXXXXX",
"                ",
"                ",
"                ",
"                ",
"                ",
"                ",
"                ",
"                "
};
