/* XPM */
static const char *sprite_1_15[] = {
/* columns rows colors chars-per-pixel */
"16 16 4 1 ",
"  c #000001",
". c #00424A",
"X c gray68",
"o c white",
/* pixels */
"                ",
"o.o.o.o.o.oX    ",
"X.X.X.X.X.X.    ",
"XoXXXXXXXXo.    ",
" oooooooooo     ",
" oXXXXXXooX     ",
" XXooooXXXX.    ",
" XXoXXX.Xooooooo",
" XXX....XX..    ",
" .XXXXXX...     ",
" ..........     ",
"o..........X    ",
"X.X.X.X.X.X.    ",
"X.X.X.X.X.X.    ",
"                ",
"                "
};
