/* XPM */
static char *sprite_4_1_resized[] = {
/* columns rows colors chars-per-pixel */
"64 64 240 2 ",
"   c #000001",
".  c #0C0601",
"X  c #0C0C01",
"o  c #0B0C0A",
"O  c #120E02",
"+  c #1A0F02",
"@  c #0F1000",
"#  c #131202",
"$  c #1C1304",
"%  c #171800",
"&  c #1B1C00",
"*  c #14140B",
"=  c #1D170C",
"-  c #191A0E",
";  c #111412",
":  c #1C1D13",
">  c #241806",
",  c #211D10",
"<  c #1F2100",
"1  c #1F2015",
"2  c #232400",
"3  c #2C2205",
"4  c #2C2A01",
"5  c #2C2C09",
"6  c #372D04",
"7  c #382806",
"8  c #333300",
"9  c #393705",
"0  c #3B3B00",
"q  c #202016",
"w  c #2B2B13",
"e  c #3A2F16",
"r  c #353614",
"t  c #3A3517",
"y  c #282C21",
"u  c #383927",
"i  c #463406",
"p  c #453308",
"a  c #4D350B",
"s  c #57390C",
"d  c #4C3910",
"f  c #3E4200",
"g  c #414300",
"h  c #4C4702",
"j  c #4D4902",
"k  c #4D4D0E",
"l  c #4E5002",
"z  c #515100",
"x  c #595305",
"c  c #5D5E00",
"v  c #544A16",
"b  c #64450E",
"n  c #604F08",
"m  c #655109",
"M  c #7A570D",
"N  c #76580E",
"B  c #644816",
"V  c #7E5513",
"C  c #5E6100",
"Z  c #636401",
"A  c #6C6304",
"S  c #666900",
"D  c #6B6B00",
"F  c #6D6D08",
"G  c #706505",
"H  c #736E01",
"J  c #6F7209",
"K  c #757207",
"L  c #7C7204",
"P  c #7D7A0D",
"I  c #656816",
"U  c #6C6C13",
"Y  c #707610",
"T  c #7B7B13",
"R  c #424324",
"E  c #47482C",
"W  c #544E2D",
"Q  c #5D5E22",
"!  c #414632",
"~  c #4B4C31",
"^  c #575736",
"/  c #5A5A3B",
"(  c #695B2F",
")  c #636426",
"_  c #6C6736",
"`  c #73753D",
"'  c #636544",
"]  c #787A41",
"[  c #7C7D53",
"{  c #875C13",
"}  c #875E12",
"|  c #895C10",
" . c #836C0A",
".. c #837505",
"X. c #8A7806",
"o. c #8A7509",
"O. c #8C7809",
"+. c #947708",
"@. c #957B0A",
"#. c #997E0C",
"$. c #976617",
"%. c #8F7A15",
"&. c #A47F0C",
"*. c #A06E13",
"=. c #A27912",
"-. c #AA7816",
";. c #926F2B",
":. c #AF7E27",
">. c #7F841F",
",. c #7D8223",
"<. c #7E8155",
"1. c #9C800C",
"2. c #8B8016",
"3. c #988112",
"4. c #94861A",
"5. c #98891B",
"6. c #A2810E",
"7. c #AA840F",
"8. c #B5850E",
"9. c #BD870F",
"0. c #A68310",
"q. c #AD8611",
"w. c #A88A18",
"e. c #B68610",
"r. c #B78815",
"t. c #BB8B15",
"y. c #B98119",
"u. c #858626",
"i. c #82822D",
"p. c #9A9227",
"a. c #96932F",
"s. c #8C8C30",
"d. c #999A38",
"f. c #AC912E",
"g. c #BC9220",
"h. c #B49A2F",
"j. c #B59931",
"k. c #BEA032",
"l. c #C18D15",
"z. c #CA8D14",
"x. c #C7861C",
"c. c #C58F18",
"v. c #CB8A1C",
"b. c #D08E1A",
"n. c #C59215",
"m. c #CD921A",
"M. c #D69116",
"N. c #DB9317",
"B. c #D5951C",
"V. c #DA961D",
"C. c #D7991A",
"Z. c #DC991D",
"A. c #E0961A",
"S. c #E29A1E",
"D. c #EA9B1E",
"F. c #C89827",
"G. c #D99826",
"H. c #D69E2A",
"J. c #CA9430",
"K. c #E59B21",
"L. c #EA9D22",
"P. c #E29F2B",
"I. c #D4A835",
"U. c #E8A026",
"Y. c #E6A42E",
"T. c #EAA32B",
"R. c #E7A631",
"E. c #E8A731",
"W. c #ECA932",
"Q. c #ECAF3A",
"!. c #EAAE3C",
"~. c #938948",
"^. c #848553",
"/. c #8A8B58",
"(. c #9A9555",
"). c #A79647",
"_. c #B69747",
"`. c #AEAA4A",
"'. c #A1A152",
"]. c #A9AA55",
"[. c #B7B456",
"{. c #BAB355",
"}. c #888E60",
"|. c #9B9B64",
" X c #989C69",
".X c #9FA063",
"XX c #AAAA6B",
"oX c #BABD62",
"OX c #B8B66C",
"+X c #B7B86A",
"@X c #B2B77A",
"#X c #CCA344",
"$X c #C0AF47",
"%X c #D8AB44",
"&X c #DAB243",
"*X c #DCB84E",
"=X c #C6B652",
"-X c #D6BB5D",
";X c #E2AF43",
":X c #E5B546",
">X c #E9B446",
",X c #E7B649",
"<X c #EABA4D",
"1X c #F1B847",
"2X c #E7BE55",
"3X c #ECBC51",
"4X c #C9BB6B",
"5X c #D2BB64",
"6X c #DDC55F",
"7X c #EDC154",
"8X c #CBC477",
"9X c #C8CC75",
"0X c #C6C77F",
"qX c #D5CC71",
"wX c #D9CE73",
"eX c #D6D57F",
"rX c #E7C762",
"tX c #E9C661",
"yX c #E7CD6C",
"uX c #E9CE6D",
"iX c #EDD16E",
"pX c #F1D36E",
"aX c #E6D376",
"sX c #EBD373",
"dX c #EDD471",
"fX c #E7D97F",
"gX c #CBCC83",
"hX c #CED086",
"jX c #D7D887",
"kX c #E7DD84",
"lX c #E8DD84",
"zX c #E7DF88",
"xX c #DCE092",
"cX c #ECE287",
"vX c #E6E18C",
"bX c #ECE48B",
"nX c #E5E592",
"mX c #E9EB98",
"MX c #EAF09F",
"NX c #ECF2A0",
/* pixels */
"                                                    q / |.0X0X|.^ :                                                             ",
"                                                    q / |.0X0X|./ :                                                             ",
"                                                    q / |.0X0X|./ q                                                             ",
"                                                    q / |.0X0X|./ :                                                             ",
"                                                    q / |.gX0X|./ q                                                             ",
"                                                    q / |.gX0X|./ q                                                             ",
"                                                    1 / |.0X0X|./ q                                                             ",
"                                                    : ^ |.0X0X|./ :                                                             ",
"                                                    : / |.0X0X|./ :                                                             ",
"                                                    q / |.0X0X|./ q                                                             ",
"      . O $ $ $ * O X @ @ @ X .                 . $ t _ XX8XgX|._ 5 X                 o * : : - * # # @ X X X X o               ",
"    . $ 7 p s i 6 4 2 2 2 2 < % #             + > a ( ;.OXgX9XXX` R 2 # .           o q u ~ ~ E r 5 2 2 2 2 < % X               ",
"    O 7 s V | M x h f f f f 0 2 % .         . > s V ;._.qXeXeXXXi.Q 0 2 #           * u ' [ /.] ) k f f f f 0 4 % .             ",
"    $ a { -.-.-.o.A C C C c z 0 2 X       . > a | -.J.:XyXfXeX[.d.U z 0 > X         : ~ ^.XXOX'.s.U c c c c l 0 2 o             ",
"    = s ;.F.H.F.w.o.L L L L A h 4 X     o : e B *.v.R.1XpXcXeXoXd.T c g 8 % X       q ^ (.4X8X5Xj.2.L L L L A j 4 #             ",
"    > W ;.#X:X!.F.w.6.6.1.1. .n 7 X o ; y E ' ;.g.K.W.3XpXcXeXoXd.>.Z z f 8 < X     , W ~.5XrX*Xk.w.6.1.6.=.o.m 6 #             ",
"    , W ~.5XtX7XI.F.n.n.n.t.=.m 7 O o y / [ (._.J.Y.W.3XpXlXeXoXd.T D c z j 0 2 O   = v ;.#X,X!.I.m.g.n.n.t.-.M a %             ",
"    1 W /.4XaXrX:XH.V.C.Z.B.y.{ p > : ! [ XX8X5X:XY.R.<XuXlXjXoXd.T D Z Z c l 8 & o > d ;.F.Y.T.U.C.C.C.Z.B.r.} d $             ",
"    : ~ ^.+XqX6X&XH.V.Z.D.S.v.$.B e u '  XgXlXiX1XR.E.<XuXlXeXoXd.>.D S D S c g 4 & 3 b $.x.K.K.S.G.C.Z.Z.B.y.} a $             ",
"    - R ` '.{.{.k.g.l.M.Z.S.G.y.;.( ' }.@XjXcXpX<XW.E.,XiXlXjX[.d.T D D D D Z l 0 8 i m *.v.S.V.m.n.t.t.l.t.=.M i $             ",
"    * r Q T d.a.4.3.6.9.M.V.G.J._.|. X@XhXnXzXiX<XW.R.<XuXkXjXoXd.T S S D D Z c l j x G -.b.V.M.t.6.1.1.1.@. .n 6 #             ",
"    # 5 j U T T P L o.6.l.G.R.;X-X4XhXjXxXnXlXyX:XW.R.<XuXkXjXoXd.T D S D D D Z C c G +.r.B.V.l.7.X.L L L L A j 4 #             ",
"    O 5 k U T P P ..o.&.l.B.E.<XyXkXnXmXmXnXlXrX>XR.Y.>XtXaXwX=Xd.%.L D D D D S S D  .#.t.V.V.c.7.O.L K L K A j 4 O             ",
"    * r Q i.a.p.5.3.&.8.z.V.E.<XpXcXNXNXMXmXlXyX,XW.Y.!.<XtX-X*Xh.w.@...L D S S D D ..1.t.V.V.m.r.6.1.1.1.@. .m 6 #             ",
"    - R ` '.{.`.F.g.n.z.M.K.R.<XuXcXmXNXMXmXzXyX,XR.P.E.!.>X:XI.H.g.q.#...F S S S D ..1.t.V.K.V.m.l.t.t.l.t.&.M p $             ",
"    : ~ ^.+XqX6X&XH.C.N.A.K.R.,XyXlXmXmXMXnXkXyX,XY.L.K.T.Y.Y.P.G.Z.c.e.@.L D S Z D L #.t.V.K.K.S.Z.C.Z.Z.N.:.| a $             ",
"    : ~ ^.+XqX6X&XH.V.N.N.K.R.,XuXlXbXnXvXlXaXtX>XE.K.K.N.V.V.S.K.S.V.t.0.o.L D D D L #.r.B.K.K.G.C.B.C.Z.B.:.| a $             ",
"    - R ` '.{.{.k.g.l.z.M.K.R.<XuXlXnXzXkXuXtX3XQ.P.K.M.z.l.l.z.C.D.Z.M.r.&.@...H F L #.t.V.Z.V.M.l.t.t.n.t.=.N p $             ",
"    * r Q i.a.p.5.3.6.8.z.Z.R.<XuXkXzXkXyX2X>X!.W.L.S.z.e.&.6.8.z.S.A.S.m.t.q.#...H L #.t.B.Z.m.r.0.@.#.#.#. .n 6 #             ",
"    # 5 k U >...P L o.&.l.V.E.<XuXkXlXaX2X;XE.L.L.K.V.t.#.o.o.6.t.V.K.L.K.V.c.q.O.L L #.t.B.V.c.0.O.L L L L A j 4 #             ",
"    # 5 k U T P P L o.6.l.V.Y.3XuXlXkXuX<XE.K.A.K.V.x.q.O.L L %.g.H.T.T.T.K.V.r.@.L L @.t.B.V.c.0.O.L L ..L G j 4 O             ",
"    * r Q i.a.p.5.3.6.8.z.V.E.<XuXlXkXuX,XY.K.M.b.l.q.+...D H 4.h.%X>X1XW.U.V.r.@.L L @.r.B.V.m.r.0.#.1.#.@. .n 6 #             ",
"    - R ` '.{.$Xj.g.l.z.M.G.R.<XuXkXlXuX<XR.V.z.e.6.@.L D S Y 4.`.-XtX3X1XT.V.9.+.L L @.t.V.G.Z.M.l.t.t.n.t.=.N p #             ",
"    : ~ ^.OXqX6X&XH.V.N.A.K.R.<XuXlXlXuX<XE.V.9.6.X.K D D D >.a.{.qXsXuX1XY.B.r.+.L L @.r.B.K.K.Z.V.V.Z.Z.B.y.} a $             ",
"    1 ~ ^.OXqX6X&XH.V.N.A.D.R.3XuXzXlXuX3XR.V.9.+.L D D J T u.`.9XjXfXpX3XR.V.8.+.L P @.r.B.S.K.G.V.V.V.Z.M.:.{ a $             ",
"    - R ` '.{.$Xk.F.l.z.M.Z.R.<XuXkXlXuX<XR.B.8.+.L F Y >.a.'.oX9XjXcXsX3XR.V.8.+.L L @.r.B.Z.Z.m.n.t.t.l.l.=.N i $             ",
"    * r Q i.a.a.5.3.0.8.z.V.R.<XuXkXkXuX3XR.B.8.X.H J u.d.].9X9XjXnXbXsX3XR.V.r.+.L L #.r.B.V.m.t.6.1.1.1.@. .n 6 #             ",
"    # 5 k U T ..L L X.6.l.V.R.<XuXzXzXuX<XR.B.8.+.L P s.`.8XeXvXmXnXlXuX<XE.B.8.+.L L @.t.V.V.c.7.O.L L L L A j 4 #             ",
"    # 5 k U T P P L O.6.t.V.R.<XuXlXkXuX<XR.B.9.#.X.2.p.{.wXkXbXvXkXaXtX>XY.B.8.+.L L @.t.B.V.c.0.O.L L L L A j 4 O             ",
"    * r Q i.a.p.5.3.6.8.z.G.R.<XuXkXkXuX<XT.C.z.8.0.w.h.=X6XuXsXsXyXtX3XQ.T.V.t.@.L L @.r.B.Z.m.r.6.#.@.1.1. .x 6 #             ",
"    - R ` '.{.$Xk.g.c.z.N.S.R.<XsXkXlXuX<XR.S.M.z.l.c.F.I.,X<X3X3X,X>X!.W.T.V.9.@.L L @.r.B.S.Z.m.l.t.t.l.t.&.M p $             ",
"    : ~ ^.+XqX6X&XH.V.B.N.S.R.<XyXkXzXuX,XR.K.N.N.V.G.G.Y.R.R.R.R.R.R.T.T.K.B.r.@.L L @.r.B.S.K.S.Z.C.Z.Z.N.:.| a $             ",
"    : ~ ^.OXqX6X&XH.V.N.A.K.R.<XuXlXzXsX2X;XR.L.K.L.K.K.K.K.K.K.L.L.K.K.K.V.n.q.O.L L @.r.B.K.D.G.C.B.C.Z.B.:.| a $             ",
"    - R ` '.{.$Xk.g.l.z.N.S.R.<XsXzXbXlXuX2X:X!.W.U.L.D.D.D.D.D.D.D.A.V.m.t.e.1...L L @.r.V.S.V.M.l.t.t.n.t.=.N p $             ",
"    * r Q i.a.p.4.3.6.8.x.N.E.3XsXcXmXbXlXuXrX3X!.T.L.D.D.D.D.D.L.D.S.z.t.6.@...K H L 1.t.V.G.m.r.0.@.#.#.#. .n 6 #             ",
"    @ 5 k U T P P ..o.&.l.G.E.3XuXzXnXmXbXzXaXtX>XY.K.D.D.L.K.K.L.K.G.t.6.o.K D D D L #.t.V.V.c.0.O.L L L L A j 4 #             ",
"    # 5 k U T ..P L O.&.l.B.P.%X-X4XgXjXxXnXkXyX<XE.L.D.D.K.K.D.D.V.c.q.+.K D Z C C A $.r.B.B.c.0.O.L L ..L G j 4 O             ",
"    * r ) i.a.a.5.3.&.e.z.S.P.J._.(. X@XhXnXbXsX3XW.L.D.D.K.K.Z.m.l.e.#.O.H S z l h x L -.B.V.m.r.0.#.1.#.@. .n 6 #             ",
"    - R ,..X[.{.F.g.g.m.C.Z.G.:.;.( ' }.@XxXbXdX7XW.L.L.L.L.S.v.r.7.@...L D Z l 0 8 i N *.v.S.Z.m.t.t.n.t.t.=.N p %             ",
"    : ~ <.+X9X6X&XH.C.S.D.D.x.$.B e u '  XgXlXpX3XW.L.D.D.D.V.l.6.O.K H H D C g 2 % 3 s $.v.S.D.S.Z.B.Z.Z.B.y.} d $             ",
"    : ~ <.+XwX6X&XH.C.S.D.S.x.| a > 1 ! [ XX4X5X%XH.V.N.C.B.n.e.@.L S S S C l 8 & @ > d $.x.K.U.U.Z.V.V.Z.V.y.} a $             ",
"    - E ` '.6X$XI.g.n.C.D.D.x.$.a $ o y ^ [ }.).f.g.t.l.9.r.7.#...H S C l h 0 2 X X $ d $.v.K.S.C.m.t.n.n.n.-.M p $             ",
"    * r ) s.d.f.p.0.q.n.C.K.m.$.a $ . ; y ! ( ) ;.O.1.1.#.+.O...L H S l f 8 & @     > s $.x.K.Z.t.q.1.6.6.1.o.m 6 #             ",
"    # 5 k U T P L K O.q.n.C.x.$.s $     o : w d x G L L L L L L H D C j 8 & X       $ s $.x.G.c.0.X.L L ..K A j 6 O             ",
"    X < 0 z c c C C A o.-.-.-.{ a $         @ 2 9 l Z F K T T Y F Z l 0 < X         $ a { -.y.-.o.A C C C C l 0 2 X             ",
"    . % 2 8 g f f f j m M { { s 7 O           # 2 0 k I ,.a.s.,.I l 0 2 # .         O 7 b M } M m j f f f f 0 2 # X             ",
"      X % 2 2 2 2 2 4 6 p a p 7 > .             @ < f ) ~.].].~.) r 2 # .           X > 7 p a p 6 4 2 2 2 2 & % X               ",
"        . X X X X @ O # $ $ = O .                 o w / (.OXOX(./ w X                 o O + $ = # @ # X @ X X X X               ",
"                                                    : ~ <.XXXX^.W :                                                             ",
"                                                    o u ' <.[ ' u *                                                             ",
"                                                    o : u ~ E u : o                                                             ",
"                                                    . o * : : ; o .                                                             ",
"                                                                                                                                ",
"                                                                                                                                "
};
