/* XPM */
static char *sprite_4_0_resized[] = {
/* columns rows colors chars-per-pixel */
"64 64 239 2 ",
"   c #000001",
".  c #0A0703",
"X  c #0C0A02",
"o  c #0C0C09",
"O  c #130E03",
"+  c #1A0F02",
"@  c #0F1100",
"#  c #131103",
"$  c #1C1305",
"%  c #1B1C00",
"&  c #14150B",
"*  c #1D170C",
"=  c #191A0E",
"-  c #0E1311",
";  c #111412",
":  c #1C1C13",
">  c #201606",
",  c #231908",
"<  c #201D11",
"1  c #1F2000",
"2  c #1F2016",
"3  c #222300",
"4  c #2B2205",
"5  c #2D2A02",
"6  c #2C2C09",
"7  c #372E05",
"8  c #362409",
"9  c #323300",
"0  c #393602",
"q  c #3A3B00",
"w  c #202015",
"e  c #2C2B14",
"r  c #3A2F16",
"t  c #363614",
"y  c #272C21",
"u  c #373826",
"i  c #483406",
"p  c #453308",
"a  c #4C340B",
"s  c #53360A",
"d  c #55390D",
"f  c #5A3C0D",
"g  c #573E14",
"h  c #424300",
"j  c #4D4902",
"k  c #4D4E0E",
"l  c #5D420D",
"z  c #4E5000",
"x  c #515200",
"c  c #595305",
"v  c #5D5E00",
"b  c #52491A",
"n  c #63430E",
"m  c #604F08",
"M  c #645706",
"N  c #76580E",
"B  c #7B580E",
"V  c #664916",
"C  c #7E5513",
"Z  c #5E6100",
"A  c #646500",
"S  c #6D6404",
"D  c #666900",
"F  c #6B6B01",
"G  c #736E02",
"H  c #7F660B",
"J  c #6F7209",
"K  c #747103",
"L  c #7D7305",
"P  c #7E7A0D",
"I  c #6C6C13",
"U  c #707610",
"Y  c #7C7B13",
"T  c #424424",
"R  c #48482F",
"E  c #594B26",
"W  c #5D5E22",
"Q  c #5B502C",
"!  c #444731",
"~  c #4B4C31",
"^  c #565537",
"/  c #5A5A3B",
"(  c #695B2F",
")  c #5F6022",
"_  c #6C6736",
"`  c #74753D",
"'  c #5D6041",
"]  c #656845",
"[  c #7B7D52",
"{  c #825714",
"}  c #875E12",
"|  c #836C0A",
" . c #8D6D0E",
".. c #847606",
"X. c #8C7709",
"o. c #8C7809",
"O. c #967805",
"+. c #957B0B",
"@. c #997E0C",
"#. c #946315",
"$. c #9A6615",
"%. c #9A6A17",
"&. c #8F7A15",
"*. c #A47F0C",
"=. c #A26F13",
"-. c #A87715",
";. c #A27812",
":. c #AC7419",
">. c #976B21",
",. c #947430",
"<. c #B07F27",
"1. c #7E841F",
"2. c #7F8155",
"3. c #9B800C",
"4. c #8A8016",
"5. c #998212",
"6. c #908318",
"7. c #998A1B",
"8. c #A3810F",
"9. c #AA850F",
"0. c #B5850E",
"q. c #BD870F",
"w. c #A78513",
"e. c #AC8511",
"r. c #B68611",
"t. c #B78914",
"y. c #BB8B15",
"u. c #B88119",
"i. c #B88B18",
"p. c #BB901A",
"a. c #8A8B26",
"s. c #83832D",
"d. c #8C8B2E",
"f. c #9B9327",
"g. c #96932F",
"h. c #99962F",
"j. c #989A38",
"k. c #BC9220",
"l. c #B29530",
"z. c #BEA032",
"x. c #C08D15",
"c. c #CB8E14",
"v. c #C7861C",
"b. c #C8871D",
"n. c #C58F18",
"m. c #CC891C",
"M. c #D18E1A",
"N. c #C59116",
"B. c #C89119",
"V. c #CD921A",
"C. c #D69116",
"Z. c #D5951C",
"A. c #D99618",
"S. c #D9961D",
"D. c #DC991E",
"F. c #E1961A",
"G. c #E29A1E",
"H. c #EA9B1E",
"J. c #E6A01F",
"K. c #C89527",
"L. c #D89927",
"P. c #D69E2A",
"I. c #CA9531",
"U. c #E59B21",
"Y. c #EA9D22",
"T. c #E29F2B",
"R. c #D1A937",
"E. c #E9A127",
"W. c #E6A42E",
"Q. c #EAA32B",
"!. c #E7A631",
"~. c #E8A731",
"^. c #EAAC38",
"/. c #F0AD39",
"(. c #998749",
"). c #838553",
"_. c #888D5F",
"`. c #948E58",
"'. c #9D9355",
"]. c #B29747",
"[. c #AAAA4A",
"{. c #A1A152",
"}. c #BAB455",
"|. c #B9B558",
" X c #9B9B64",
".X c #989C69",
"XX c #9FA063",
"oX c #ABAA6B",
"OX c #BABD62",
"+X c #B5B768",
"@X c #B8B66C",
"#X c #B2B77A",
"$X c #CCA344",
"%X c #C0AF47",
"&X c #D9AC43",
"*X c #C8B249",
"=X c #DAB243",
"-X c #DEB24D",
";X c #C1B859",
":X c #D5BA5D",
">X c #E2AF43",
",X c #E7B547",
"<X c #EABA4E",
"1X c #F1B847",
"2X c #E7BE55",
"3X c #ECBC51",
"4X c #CEB760",
"5X c #D3BE66",
"6X c #C6BE71",
"7X c #BFC36A",
"8X c #DCC55F",
"9X c #ECC154",
"0X c #CBC477",
"qX c #C8CC75",
"wX c #C6C77F",
"eX c #D4CC71",
"rX c #D9CE73",
"tX c #D6D57F",
"yX c #E8C661",
"uX c #E7CD6C",
"iX c #EACE6D",
"pX c #EDD06E",
"aX c #F1D36E",
"sX c #EBD272",
"dX c #EDD471",
"fX c #E6D578",
"gX c #CBCC83",
"hX c #CED086",
"jX c #D7D887",
"kX c #E7DD84",
"lX c #E8DD84",
"zX c #E7DF88",
"xX c #DCE092",
"cX c #E7E18B",
"vX c #ECE48A",
"bX c #E5E592",
"nX c #E9EB98",
"mX c #EAF09F",
"MX c #ECF2A0",
/* pixels */
"                                                    w /  XwXwX X^ :                                                             ",
"                                                    w /  XwXwX X/ w                                                             ",
"                                                    w /  XwXwX X/ w                                                             ",
"                                                    w /  XwXwX X/ w                                                             ",
"                                                    w /  XgXwX X/ w                                                             ",
"                                                    w /  XwXwX X/ w                                                             ",
"                                                    2 /  XwXwX X/ w                                                             ",
"                                                    : ^  XwXwX X/ :                                                             ",
"                                                    : /  XwXwX X/ :                                                             ",
"                                                    < /  XwXwX X/ w                                                             ",
"    . o & : < < , > > $ > $ $ O .             . . $ r _ oX0XgX X/ e X                 o & : : : , * > > > > $ O o               ",
"    o : u ~ ^ Q E g f f f d a 8 > .           + , a ( ,.@XgXgX{.` k 3 # .           o w u R ^ Q E g f f f f a 8 > .             ",
"    & u / ).`.(.,.>.$.$.$.#.C f 8 O         . , f { %.].5XjXtX+Xs.W q 3 #           & u ' 2.`.(.,.>.$.$.%.$.{ l 8 O             ",
"    : ! [ oX0X4X$XK.b.m.m.v.:.{ p $         $ a { :.I.<XuXkXtX+Xj.I x 0 1 @         : ! ).oX6X4X$XK.m.m.c.b.:.C p *             ",
"    : ~ 2.+XeX8X=XP.Z.D.H.G.v.#.s $     o : r V =.m.W.3XaXlXjXOXj.Y Z h 5 % @       : ^ `.6XrXuX,XP.Z.A.A.Z.:.} s $             ",
"    : T ` [.}.}.R.K.N.A.J.H.m.#.s $ o - y ! ( ,.k.F./.9XaXlXtX;Xj.4.A x h 5 1 @   . = Q (.4XyX9XR.K.x.x.N.N.-.N p *             ",
"    & t ) s.h.f.7.3.w.y.A.G.v.#.i + o y ^ [ '.].R.T.~.3XaXlXtXOXj.Y D v z j q 3 #   $ E ,.$X,XR.K.9.3.3.3.3.| M 7 $             ",
"    # 6 k I P 4.P ..o.9.N.D.v.#.s > : ! [ oX0X5X>XW.~.1XiXlXtXOXj.Y F A A Z z 9 % X , g >.K.P.K.w.4.L L L L S j 5 O             ",
"    # 6 k I Y P P L X.9.B.S.m.%.V r u ] XXwXlXaX<X~.!.1XpXlXjXOXj.1.G F F D v h 5 % 4 f %.m.S.B.9.4.L L L L S j 5 O             ",
"    & t W 1.g.f.7.5.8.y.V.D.L.<.>./ ] _.#XjXvXaX<X~.!.<XiXlXtXOXj.Y D D F F A z q 9 i M =.m.A.V.q.8.3.3.3.@.| m 7 #             ",
"    = T ] {.|.%Xz.k.x.c.A.U.L.I.].'..X#XhXxXvXpX<X~.~.<XiXzXjXOXj.Y D D F F D v z j c H -.M.F.D.N.N.y.N.p.y.;.B p $             ",
"    : ~ ).7XeX8X=XP.Z.A.F.U.!.&X:X6XgXjXxXbXlXyX,X~.~.<XiXlXtXOXj.Y D D F F F M Z Z S X.u.Z.H.U.A.A.Z.S.D.Z.:.} a $             ",
"    : ~ ).@XeX8X=XP.Z.C.F.U.~.,XiXkXbXnXnXbXlXuX,X~.W.,XyXsXrX;Xj.4.L G G F F D D F L +.y.Z.U.U.G.D.Z.S.D.Z.u.} s $             ",
"    = T ` {.|.%Xz.k.b.c.C.U.~.<XaXvXmXMXMXnXlXuX,X~.W./.3XyX:X-Xz.w.+...G F D D D G ..@.y.Z.U.S.V.N.y.p.N.t.*.N p $             ",
"    & t W s.g.f.7.5.3.r.c.S.!.<XpXvXnXmXmXnXzXuX,X!.T.~.^.,X,XR.P.p.e.@...F D D D F L 3.x.S.S.V.y.3.@.3.3.+.| m 9 #             ",
"    # 6 k I P P P L X.*.x.S.W.<XiXlXbXnXnXbXkXuX,X!.Y.Y.Y.W.!.T.L.L.n.r.+.L F D D F L @.p.Z.S.n.8.X.L L L | S j 5 O             ",
"    # 6 k I 1...P L X.8.q.Z.!.<XiXzXbXnXbXzXfXyX1X~.U.F.A.A.L.U.H.G.Z.x.8...L F F F L @.y.Z.S.n.w.X.L L ..L S j 5 O             ",
"    & t W s.g.7.7.5.8.0.c.L.!.<XiXzXvXlXkXiXyX<X^.T.U.Z.c.x.x.c.A.H.F.V.y.*.+...G G L @.y.Z.L.C.y.8.@.@.3.+.| c 7 #             ",
"    = T ` {.}.}.z.k.x.c.C.U.!.<XiXkXzXkXuX2X,X/.~.Y.F.c.t.*.*.r.c.S.H.G.V.x.e.@...G L +.t.Z.U.S.V.x.y.x.N.i.;.N p $             ",
"    : ~ ).@XeX8X=XP.A.A.F.U.!.<XuXkXzXsX2X^.~.Y.Y.Y.Z.y.*.X.X.5.x.S.U.Y.U.S.n.e.X.L L +.t.Z.U.U.D.S.Z.D.D.Z.u.} a $             ",
"    : ~ ).@XeX8X=XP.Z.A.F.U.!.<XiXkXkXiX2X!.U.F.U.S.n.e.X.L L @.k.P.W.Q.Q.Y.L.r.+.L L +.t.Z.U.U.D.D.Z.D.A.Z.u.} s $             ",
"    = T ` {.|.%Xz.k.x.c.C.F.!.<XiXkXkXuX,XW.U.M.m.x.e.+.L F G 6.l.&X,X/./.E.S.r.+.L L +.t.Z.U.D.V.x.y.y.p.i.;.N p $             ",
"    & t W s.g.f.7.5.*.r.c.S.!.<XiXkXlXiX<XW.A.c.r.8.o...G D J a.[.:XyX9X1XQ.D.y.+.H L +.y.Z.L.C.t.8.@.@.3.@.| c 7 O             ",
"    # 6 k I P 1.P L X.*.q.L.!.<XiXlXkXpX<X~.S.x.8.X.L D F F Y g.}.rXdXyX1XW.Z.r.+.L L +.y.Z.S.n.8.o.L L L L S j 7 O             ",
"    O 6 k I Y ..L L X.*.x.S.!.3XiXzXlXpX3X!.S.r.O.L F F J Y a.[.qXtXvXpX<X!.Z.r.O.L L +.t.Z.Z.n.w.X.L L L L M j 5 O             ",
"    & t W 1.h.7.7.6.*.0.c.S.!.<XiXlXlXiX<X!.Z.0.O.G F U 1.g.[.OXqXjXcXpX3X!.S.r.+.L L +.y.Z.S.V.t.8.@.3.3.@. .c 7 O             ",
"    = T ` {.|.}.z.k.x.c.C.F.~.<XiXkXkXiX<X~.Z.0.X.G J 1.j.|.7XqXjXbXvXsX3X~.S.r.O.L L +.y.Z.G.S.V.x.y.N.p.y.;.N p $             ",
"    : ~ ).+XeX8X=XP.S.A.A.H.!.3XuXzXzXiX3X!.Z.0.O.L P d.[.0XjXxXnXbXlXiX3XW.S.r.O.L L +.t.Z.U.U.D.S.Z.D.D.Z.u.} a $             ",
"    : ~ ).+XeX8X=XP.S.A.F.H.!.<XiXkXlXiX<X!.Z.q.@.X.4.h.}.rXzXvXcXzXfXyX,XW.Z.r.+.L L +.t.Z.U.U.U.Z.Z.D.D.Z.u.} s $             ",
"    = T ` {.}.}.I.k.x.c.C.L.!.3XuXkXlXiX<XW.A.c.0.8.w.z.*X8XuXsXsXuXyX3X/.E.S.y.+.L L +.t.Z.U.S.V.x.y.y.N.t.;.N p $             ",
"    & t W s.g.f.7.5.3.0.c.D.!.<XsXkXlXiX<X!.F.M.c.x.n.K.R.,X<X3X<X<X,X^.~.Q.S.t.+.L L +.y.Z.L.V.y.3.@.3.3.+.| m 9 #             ",
"    # 6 k I Y P P L X.*.x.S.~.<XiXkXlXpX<X!.U.F.S.S.L.L.W.W.!.~.!.!.W.W.Q.U.A.y.+.L ..+.y.Z.A.n.8.X.L L L | S j 5 O             ",
"    # 6 k I Y P P L o.8.x.S.!.3XiXlXzXfX9X>XW.Y.Y.Y.U.H.H.U.U.U.U.U.Y.U.G.S.N.9.X.L L +.y.Z.S.n.w.X.L L ..L S j 5 O             ",
"    & t W s.g.f.7.3.8.0.c.S.!.<XsXlXvXlXiX2X,X^.W.Q.Y.H.H.H.H.H.H.H.H.S.V.x.e.5...G ..@.y.Z.S.V.y.8.@.@.3.+.| c 7 #             ",
"    = T ` {.}.}.I.k.p.c.M.U.~.3XaXvXnXbXlXsXyX<X^.W.Y.H.H.H.H.H.H.H.F.V.y.*.+...L G ..@.y.Z.U.S.V.x.y.x.N.i.;.N p $             ",
"    : ~ ).@XeX8X=XP.Z.A.F.U.!.<XuXzXvXbXbXlXfXyX,XW.Y.H.H.U.U.U.Y.Y.L.x.8.X.K G F D L +.i.Z.U.U.D.S.Z.D.D.Z.u.} a $             ",
"    = ~ ).+XeX8X=XP.Z.A.F.U.W.&X:X6XgXjXxXbXkXuX<X~.Y.H.H.U.H.U.G.S.n.e.+.L F Z Z Z S X.u.Z.U.U.U.Z.Z.D.A.Z.u.} s $             ",
"    * T ` {.}.%Xz.k.b.c.C.U.L.I.].'..X#XhXbXvXsX3X~.Y.H.H.Y.H.L.V.x.r.@...K A x j j c H -.Z.D.S.V.N.y.y.p.i.;.N p $             ",
"    & t ) s.h.f.7.5.8.r.C.D.L.<.,./ ] _.#XjXvXdX9X^.Y.H.H.Y.H.V.i.8.3...L G A z q 9 0 N =.m.D.Z.y.8.@.@.@.+.| m 7 +             ",
"    # 6 k I Y P P P o.9.N.Z.m.%.V r u ] .XgXkXiX3X~.Y.H.H.Y.Z.x.8.X.K K K D Z h 5 , , f %.n.Z.B.w.o.L L L L S j 5 O             ",
"    # 6 k I Y Y L ..o.9.B.A.b.} s , : ! [ oX6X5X&XP.A.A.A.Z.B.r.+.L D D A Z x 9 % @ , d #.b.D.N.9.o.L L P L S j 5 O             ",
"    & t ) s.h.f.7.5.9.p.S.G.m.#.a $ o y ^ [ '.].l.p.y.x.y.t.w.@...G D Z x h q 3 @ . $ d #.m.G.Z.p.9.3.3.3.@.X.m 7 #             ",
"    = T ` {.|.*XR.k.N.S.J.H.m.#.s $   ; y ! ( _ &.&.3.3.@.@.X...L K A x h 9 1 @     > d #.m.E.J.A.N.p.N.N.y.-.N p $             ",
"    : ~ ).@XeX8X=XP.S.F.H.G.x.#.s $   . o = e h b S L L L L L L K D Z j 5 % X       $ d #.b.U.U.J.S.Z.D.S.Z.u.} s $             ",
"    : ! 2.oX6X4X$XK.b.m.m.b.:.C a $         X 3 q x A F G L L G F A z q 3 X         $ a { :.b.m.m.b.b.m.c.b.:.C p $             ",
"    & u ' ).'.(.,.%.#.$.$.#.{ f 8 O           @ 3 q j M L X.X.H M z q 3 # .         # 8 f C #.$.%.#.%.$.%.$.{ l 8 O             ",
"    o : u ~ ^ Q E b f f f d a 8 , .           . @ 3 0 m  .e.-. .M 0 3 # X           . , 8 a d f f f f f g d a 8 , .             ",
"      o & : < < , > > > $ > $ O X                 O , l %.u.u.#.l 4 X                 X O + $ , $ > > > > , $ O X               ",
"                                                    $ a { :.:.{ s *                                                             ",
"                                                    O 8 l C { n 8 O                                                             ",
"                                                    . $ 8 a p 8 > .                                                             ",
"                                                      X O $ $ O X                                                               ",
"                                                                                                                                ",
"                                                                                                                                "
};
