/* XPM */
static char *sprite_4_3_resized[] = {
/* columns rows colors chars-per-pixel */
"64 64 239 2 ",
"   c #000001",
".  c #0C0600",
"X  c #0C0C01",
"o  c #0B0C0A",
"O  c #120E02",
"+  c #1A0F02",
"@  c #0F1000",
"#  c #141202",
"$  c #1C1304",
"%  c #1B1C00",
"&  c #1A1806",
"*  c #14140B",
"=  c #191A0E",
"-  c #111412",
";  c #1C1C13",
":  c #231806",
">  c #211D10",
",  c #1F2100",
"<  c #232400",
"1  c #2A2503",
"2  c #2B2902",
"3  c #2D2E09",
"4  c #352C04",
"5  c #382906",
"6  c #333300",
"7  c #3A3B00",
"8  c #383A05",
"9  c #202016",
"0  c #2B2B13",
"q  c #3A2F16",
"w  c #3A3517",
"e  c #373815",
"r  c #282C21",
"t  c #383927",
"y  c #463406",
"u  c #433208",
"i  c #4B340B",
"p  c #56390C",
"a  c #4F3D12",
"s  c #603E0C",
"d  c #3E4200",
"f  c #414300",
"g  c #4D4603",
"h  c #494B01",
"j  c #4E4F0E",
"k  c #5D4D08",
"l  c #4E5000",
"z  c #4F500E",
"x  c #515100",
"c  c #5D5E00",
"v  c #4F4A18",
"b  c #645009",
"n  c #73550D",
"m  c #7A570E",
"M  c #644816",
"N  c #7E5512",
"B  c #5E6100",
"V  c #636401",
"C  c #6C6304",
"Z  c #666900",
"A  c #6B6B00",
"S  c #6D6D08",
"D  c #706505",
"F  c #736E01",
"G  c #6F7209",
"H  c #757207",
"J  c #7C7204",
"K  c #7D7A0D",
"L  c #656816",
"P  c #6C6C13",
"I  c #707610",
"U  c #7B7B13",
"Y  c #444625",
"T  c #47482B",
"R  c #594C28",
"E  c #494A32",
"W  c #4E5032",
"Q  c #575736",
"!  c #5A5A3B",
"~  c #695B2F",
"^  c #5E6023",
"/  c #616224",
"(  c #6C6736",
")  c #73753C",
"_  c #76783F",
"`  c #636544",
"'  c #7A7C42",
"]  c #7C7D53",
"[  c #865913",
"{  c #845C12",
"}  c #895C10",
"|  c #80630C",
" . c #836C0A",
".. c #837505",
"X. c #8A7806",
"o. c #8A7509",
"O. c #8C7809",
"+. c #947708",
"@. c #957B0A",
"#. c #997E0C",
"$. c #976617",
"%. c #8F7A15",
"&. c #A47F0C",
"*. c #A06E13",
"=. c #A17613",
"-. c #A97915",
";. c #93702B",
":. c #AF7E27",
">. c #7F841F",
",. c #7D8223",
"<. c #7E8155",
"1. c #9C800C",
"2. c #8B8016",
"3. c #988112",
"4. c #98891B",
"5. c #A2810E",
"6. c #AA840F",
"7. c #B5850E",
"8. c #BD870F",
"9. c #A68310",
"0. c #AD8611",
"q. c #A88A18",
"w. c #B68610",
"e. c #B78815",
"r. c #BB8B15",
"t. c #B88119",
"y. c #B1901F",
"u. c #858626",
"i. c #83832E",
"p. c #9A9227",
"a. c #96932F",
"s. c #8C8C30",
"d. c #999A38",
"f. c #BC9220",
"g. c #B49A2F",
"h. c #B59931",
"j. c #BEA032",
"k. c #C18D15",
"l. c #CA8D14",
"z. c #C7861C",
"x. c #C58F18",
"c. c #CB8A1C",
"v. c #D08E1A",
"b. c #C59215",
"n. c #C89019",
"m. c #CD921A",
"M. c #D69116",
"N. c #DB9317",
"B. c #D5951C",
"V. c #DA961D",
"C. c #D7991A",
"Z. c #DC991D",
"A. c #E0961A",
"S. c #E29A1E",
"D. c #EA9B1E",
"F. c #C89827",
"G. c #D99826",
"H. c #D69E2A",
"J. c #CB9430",
"K. c #E59B21",
"L. c #EA9D22",
"P. c #E29F2B",
"I. c #D4A835",
"U. c #E8A026",
"Y. c #E6A42E",
"T. c #EAA32B",
"R. c #E7A631",
"E. c #E8A731",
"W. c #ECA932",
"Q. c #ECAF3A",
"!. c #EAAE3C",
"~. c #938B4B",
"^. c #868757",
"/. c #878954",
"(. c #9A9355",
"). c #A79647",
"_. c #B69747",
"`. c #AEAA4A",
"'. c #A2A252",
"]. c #A9AA55",
"[. c #B9B355",
"{. c #888E60",
"}. c #9B9B64",
"|. c #989C69",
" X c #AAAA6B",
".X c #B6B564",
"XX c #BABD62",
"oX c #B9B86D",
"OX c #B2B77A",
"+X c #CCA344",
"@X c #C0AF47",
"#X c #D8AB44",
"$X c #DAB243",
"%X c #DCB84E",
"&X c #C6B652",
"*X c #D6BB5D",
"=X c #E2AF43",
"-X c #E5B546",
";X c #E9B446",
":X c #E7B649",
">X c #EABA4D",
",X c #F1B847",
"<X c #E7BE55",
"1X c #ECBC51",
"2X c #C9BB6C",
"3X c #D2BC64",
"4X c #BFC36A",
"5X c #DDC55F",
"6X c #EDC154",
"7X c #CBC477",
"8X c #C8CC75",
"9X c #C6C77F",
"0X c #D5CC71",
"qX c #D9CE73",
"wX c #D6D57F",
"eX c #E7C762",
"rX c #E9C661",
"tX c #E7CD6C",
"yX c #E9CE6D",
"uX c #EDD16E",
"iX c #F1D36E",
"pX c #E6D376",
"aX c #EBD373",
"sX c #EDD471",
"dX c #E7D97F",
"fX c #CBCC83",
"gX c #CED086",
"hX c #D7D887",
"jX c #E7DD84",
"kX c #E8DD84",
"lX c #E7DF88",
"zX c #DCE092",
"xX c #ECE287",
"cX c #E6E18C",
"vX c #ECE48B",
"bX c #E5E592",
"nX c #E9EB98",
"mX c #EAF09F",
"MX c #ECF2A0",
/* pixels */
"                                                                                                                                ",
"                                                                                                                                ",
"                                                                                                                                ",
"                                                                                                                                ",
"                                                                                                                                ",
"                                                                                                                                ",
"                      . O $ : > 9 > ; = * # @ * = ; ; = * # # * = ; ; = * # # * = ; ; = * # # * = ; ; = * # X                   ",
"                    . : 5 i p R R W W Y e 3 3 e Y W W Y e 3 3 e Y W W Y e 3 3 e Y W W Y e 3 3 e Y W W T e 3 < % X o             ",
"                    O 5 s [ $.;.~.(./.) ^ z z / _ /./._ / z z / _ /./._ / z z / ' ^.^._ / z z / _ /./._ / j 7 2 # .             ",
"                    $ i [ *.J.%X&X8XoX'.;.P P ,.'.oXoX'.i.P P i.'.oXoX'.i.P P i.'.oXoX'.i.P P i.'.oXoX].s.P x 7 , @             ",
"                    $ i } -.H.:XrXpX0X[.a.H K a.[.0X0X[.a.U U a.[.0X0X[.a.U U a.[.0X0X[.a.U U a.[.0XqX&Xd.U c 7 < X             ",
"                    $ u { -.F.#X6XrX5X[.a.>.>.4.@X5X5X[.p...U p.I.5X5X[.p...U p.I.5X5X[.p.K K p.@X5X5X&Xd...c d < @             ",
"                    # 4 b o.9.F.I.-X$Xj.4.K K 4.g.$X$Xj.4.K K 4.j.$X$XF.4.U K 4.j.$X$Xj.4.J K 4.j.$X$XI.p.K c d < @             ",
"                    # 2 g C O.q.F.H.H.f.3.J J 1.x.H.H.f.3.J J 3.f.H.H.f.3.J J 3.f.F.H.f.3.J ..3.f.H.H.f.9.J c d < X             ",
"                    X < f B J 5.b.B.G.r.5.o.O.5.k.V.V.k.&.o.o.&.r.B.C.k.9.O.O.5.f.C.C.x.9.X.o.5.b.C.C.b.0.O.C g 2 #             ",
"                    @ < d B J 1.b.C.A.M.8.5.&.w.x.N.N.n.w.&.&.7.x.N.N.x.w.1.&.7.l.N.N.x.w.5.5.w.m.S.S.C.b.9.o.b 4 #             ",
"                    X < f B J 5.b.C.K.A.m.k.k.l.M.A.A.M.l.k.k.l.M.A.A.v.l.k.k.x.M.A.N.M.l.k.k.v.N.D.L.S.G.l.-.m u &             ",
"                    X < d B J 1.r.C.K.K.K.B.V.V.K.K.S.S.V.V.V.V.S.S.S.K.V.V.N.V.K.K.K.K.V.V.N.G.Z.K.D.K.K.v.t.} i $             ",
"                    X , 7 x C  .&.-.c.G.G.P.R.R.R.R.R.Y.R.R.R.R.R.R.R.R.R.R.R.R.R.R.R.W.R.R.Y.G.G.c.x.c.z.z.-.N i $             ",
"                    X % < 7 g b n [ $.t.J.=X>X>X>X:X>X>X>X>X1X>X1X>X>X1X>X>X1X1X>X>X>X>X>X>X#XJ.:.$.$.} $.$.[ s 5 *             ",
"                      @ % < 1 4 5 i M ;._.3XyXiXuXyXtXtXyXyXaXyXtXyXtXaXaXyXyXyXtXyXyXaXiXyX*X_.;.a i i p p i 5 : X             ",
"                      . . X X X . : q ( (.7XkXxXxXkXkXkXjXjXjXjXjXjXjXjXjXjXjXjXjXjXjXxXxXkX7X(.~ q : $ + $ $ * .               ",
"                              o o ; t ` }.gXbXnXnXnXbXbXlXlXjXjXjXjXjXjXjXjXjXjXjXjXlXvXnXcXfX|.` t 9 o .                       ",
"                              - r E ` {.OXhXnXMXMXnXbXlXdXpXyXyXyXyXaXyXyXuXyXyXyXyXpXkXbXnXhXOX{.` E r -                       ",
"                            o r W ] |.OXfXzXnXmXmXnXbXjXtX<X>X:X>X>X1X1X>X1X>X>X>X>X6XyXkXcXzXgXOX|.] Q r o                     ",
"                          . ; E ]  XfXzXbXbXnXnXnXbXlXtX<X!.R.R.Y.R.R.R.R.R.R.Y.Y.R.=X<XaXlXbXbXzXfX X] E ;                     ",
"                        . : q ` (.2XjXlXkXkXjXjXlXjXpXeX;XR.K.S.V.N.B.B.B.N.B.V.S.K.R.;XrXpXjXvXcXjX7X~.Q 3 X                   ",
"                    . + : i M ;.+X*XyXiXuXtXeXtXtXtXrX>X!.U.S.N.l.k.8.w.7.7.8.l.M.N.U.!.>XrXtXaXsXuX*X).( a < @                 ",
"                    . : p [ *.f.J.:X,X1X,X:X;X:X:X:X;X!.T.L.A.l.7.5.@.+.+.+.+.7.l.N.U.T.!.;X>X1X6X>X$Xh.%.z 8 < #               ",
"                    : i [ -.c.K.P.R.E.E.R.R.W.W.R.Y.W.P.L.L.V.r.5.X.J F F J O.&.r.V.K.T.U.T.R.W.W.W.H.y.@.C x 8 , X             ",
"9 9 9 9 9 9 9 ; ; 9 w M $.J.R.W.W.E.R.E.R.R.Y.P.P.L.K.K.K.G.x.7.+.J A G G K %.q.n.G.K.L.L.L.L.L.L.L.B.r.1.J V z 8 0 ; * o       ",
"! ! ! ! ! ! ! Q Q ! ` ~._.>X1X1X1X1X>X>X1X>X;X!.R.L.K.v.c.r.6.@.J A A I >.s.d.g.F.G.K.D.D.L.D.D.L.D.N.r.1.J S L / ! W t 9 o     ",
"}.}.}.}.}.}.}.}.}.}. X.X0XtXiXiXuXyXyXyXyXyXrX1X!.P.N.l.w.&.O.J F Z G ,.d.].[.@XI.P.K.D.D.S.D.D.D.D.N.8.#.J H ,.~.(.^.` t -     ",
"9X9X9X9X9X9X9X9X2XfX7XhXwXjXjXxXkXkXkXjXjXjXpXrX;XY.V.k.&.o.J F A A U a.].8XqXeX-XY.K.L.S.L.L.L.L.L.B.8.+.J U s.].oX X] E =     ",
"9X9X9X9X9X9XfX9X9XfXfX9X7XwXwXwXwXwXhXwXhXwXqXeX;XY.B.k.&.o.H H H U u.`.8XwXxXtX1XR.K.D.D.L.K.K.A.G.x.9.+.J U s.].4X X<.E ;     ",
"}.}.}.}.}.}.}.}.|.|.(. X.XXXXXXX2XXXXXXXXXXX&X&XI.P.K.l.w.#.#.2.4.d.'.[.8XzXcXuX1XR.L.D.D.L.K.V.B.r.w.#...J G u.s.{.^.` t *     ",
"Q ! ! ! ! ! ! ! Q ! ! _ i.d.d.d.d.d.d.d.d.d.d.h.H.G.K.N.l.k.f.g.j.[.8X8XzXbXcXsX>XR.K.D.L.L.Z.B.e.5.@...J F S L / ! E t ; o     ",
"; 9 9 9 9 9 9 ; - 9 0 v ^ P U >.>.K U K U U 2.q.x.G.K.D.V.V.H.#X5X0XwXzXbXbXdXtX>XW.K.L.D.K.V.r.5.o.J F A A V z 8 0 ; * o       ",
"                    . < d x b Z Z A Z A A A J @.0.x.C.Z.K.K.T.;X5XpXcXcXvXdXpXeX;XT.K.S.S.V.n.0.@.J A Z Z B x 7 1 X             ",
"                      @ < 6 h x c Z Z Z Z V A ..#.e.r.M.A.L.T.,X6XyXuXsXuXyXeX6X!.T.K.N.m.k.0.1...F Z c x h 7 < #               ",
"                      . # , 2 f x V A A Z A A F ..@.5.e.m.S.T.W.Q.,X1X1X1X>X>XQ.W.T.K.c.e.5.@.X.J A Z x f 6 < # X               ",
"                          X % 2 h c A F A A A F F J X.9.r.V.L.U.T.W.W.E.R.R.T.U.T.L.V.k.5.X.J F F A c h 6 % X                   ",
"                            X < 7 h c V Z V A A Z A H @.w.n.B.B.G.B.B.B.B.B.B.B.V.B.x.w.3.F Z B Z c x 7 < .                     ",
"                              @ < 6 f x c Z Z Z Z Z A ..#.9.e.r.w.w.w.w.w.w.w.8.w.e.9.#.X.A B c h d 6 < @                       ",
"                                @ % 2 d x c Z Z Z Z A F ..O.@.@.@.+.@.+.+.+.@.@.#.@.O...J Z c h d < , @                         ",
"                              . X X % 6 h c A A A A A F F J J J J J J J J J J J J J J H F A c h 6 % @                           ",
"                      o * ; ; ; = $ : y k C J ..J J J J J J H J J J J J J J J J J J J J ..J C k y 1 & $ $ : $ O o               ",
"                    o 9 t E Q R v a s n D @.1.1.=.#.#.@.#.#.#.#.@.@.@.@.@.#.@.#.@.@.#.#.1.#.@.| n p p p p p i 5 : .             ",
"                    * t ` <.(.~.;.;.$.*.-.8.r.k.r.r.r.r.r.e.r.r.e.e.e.e.r.r.r.w.r.e.e.r.r.r.e.-.*.$.$.$.$.$.[ s 5 o             ",
"                    ; W ]  X2X3X+XF.x.c.c.B.B.B.V.B.B.B.B.C.B.B.B.B.B.B.B.B.V.B.B.B.B.V.V.B.B.B.c.z.z.z.c.z.-.N i $             ",
"                    ; W /.OX7XrX-XR.S.Z.N.V.B.V.G.K.K.K.G.N.V.V.Z.K.K.K.V.V.B.G.Z.K.S.S.G.V.B.V.Z.S.K.K.S.C.t.{ i $             ",
"                    = T <.].&X%X!.T.L.Z.B.k.n.m.Z.K.K.V.m.k.n.m.V.K.K.V.m.n.k.m.V.K.K.V.m.x.n.m.Z.K.U.U.Z.b.-.m i $             ",
"                    * e ^ s.d.I.I.U.Z.C.r.5.9.e.M.Z.K.m.e.9.9.e.m.K.Z.m.e.9.9.e.M.Z.S.m.e.9.9.r.B.S.S.C.b.9.o.b 4 #             ",
"                    # 3 l P 2.q.m.G.Z.r.5.O.o.9.k.B.V.k.5.O.O.5.k.V.V.k.9.O.O.9.r.G.V.k.9.O.O.5.b.C.V.n.0.O.S h 2 O             ",
"                    @ < d B J 1.k.V.C.r.#.J J #.r.C.G.r.#.J J #.r.C.B.r.1.J J #.r.C.B.r.#.J J #.r.C.G.b.1.J B d < #             ",
"                    X < d B J 5.b.V.V.r.1.J J #.k.V.C.r.1.J J 1.k.Z.G.r.1.J J 1.r.V.V.k.1.J J #.r.V.C.b.5.J c d < X             ",
"                    X < d c J 5.b.Z.Z.b.1.J J 1.b.Z.Z.r.1.J ..#.b.V.Z.r.1.J J 1.k.G.Z.r.1.J J 1.b.Z.G.b.5.J B d < @             ",
"                    @ , d c J 1.k.B.B.r.#.J J #.e.B.B.r.@.J J #.r.B.B.e.1.J J 1.e.B.C.r.1.J J @.r.B.C.b.1.J c d < @             ",
"                    X , 7 l Z o.-.e.t.=.J n Z  .=.t.t.=. .C C  .=.t.t.=. .C C J =.t.-.=. .C C  .=.t.-.-.o.C x 7 , X             ",
"                    . % 1 7 g b n { { n k g g k n { { n k g g k n { { n k g g k m [ } n k h g k n { { m b g 7 < % X             ",
"                      @ # < 1 4 u i i u 4 2 2 4 u i i u 4 2 2 4 u i i u 5 2 2 5 u i i u 4 2 2 4 u i i u 5 2 < # #               ",
"                        . X # # $ $ $ $ O # O # # $ $ & # # O O & $ $ $ # X O # % $ $ $ O # O # # $ $ $ # # X o                 ",
"                                                                                                                                ",
"                                                                                                                                "
};
