/* XPM */
static char *sprite_4_6_resized[] = {
/* columns rows colors chars-per-pixel */
"64 64 233 2 ",
"   c #000001",
".  c #0C0702",
"X  c #0C0902",
"o  c #0C0D0A",
"O  c #130E03",
"+  c #1A0F02",
"@  c #0E1105",
"#  c #131103",
"$  c #1C1305",
"%  c #1B1B02",
"&  c #14150B",
"*  c #191A0E",
"=  c #171913",
"-  c #1C1C13",
";  c #211605",
":  c #241908",
">  c #201D11",
",  c #1F2016",
"<  c #242301",
"1  c #2D2A02",
"2  c #2C2C09",
"3  c #382607",
"4  c #372E05",
"5  c #362409",
"6  c #363700",
"7  c #202015",
"8  c #2A2B1C",
"9  c #363614",
"0  c #3B3118",
"q  c #2E3022",
"w  c #373826",
"e  c #452D08",
"r  c #453308",
"t  c #4C340B",
"y  c #52350B",
"u  c #55390D",
"i  c #5A3C0D",
"p  c #563E14",
"a  c #424300",
"s  c #4E4903",
"d  c #4D4E0E",
"f  c #595801",
"g  c #524911",
"h  c #65430E",
"j  c #604F08",
"k  c #6E500E",
"l  c #7B560E",
"z  c #76580E",
"x  c #684814",
"c  c #7E5512",
"v  c #5D6000",
"b  c #646400",
"n  c #6C6304",
"m  c #666900",
"M  c #6B6B00",
"N  c #746E02",
"B  c #7F630D",
"V  c #6F730B",
"C  c #7D7305",
"Z  c #7E7A0D",
"A  c #6C6C13",
"S  c #7C7B13",
"D  c #434427",
"F  c #584A25",
"G  c #5D5C24",
"H  c #464830",
"J  c #4B4C30",
"K  c #555537",
"L  c #5A5A3B",
"P  c #6C5725",
"I  c #5F6022",
"U  c #69643A",
"Y  c #74753D",
"T  c #5D5F40",
"R  c #5D6041",
"E  c #676844",
"W  c #7C7D52",
"Q  c #865812",
"!  c #875D13",
"~  c #836C0A",
"^  c #837406",
"/  c #8B7709",
"(  c #8C7809",
")  c #937806",
"_  c #957B0B",
"`  c #997E0C",
"'  c #946315",
"]  c #9A6615",
"[  c #9D6917",
"{  c #A47F0C",
"}  c #A26C18",
"|  c #AA7516",
" . c #A27812",
".. c #AC7519",
"X. c #B47717",
"o. c #966B21",
"O. c #96742E",
"+. c #A77A26",
"@. c #917D40",
"#. c #7C821D",
"$. c #7F8155",
"%. c #9B800C",
"&. c #8A8117",
"*. c #9A8212",
"=. c #998A1B",
"-. c #A3810F",
";. c #AA850F",
":. c #B5850E",
">. c #BD870E",
",. c #A68311",
"<. c #AC8511",
"1. c #A78917",
"2. c #B68611",
"3. c #B78914",
"4. c #BB8A15",
"5. c #BB8B15",
"6. c #B88119",
"7. c #BF9018",
"8. c #8B8B26",
"9. c #83832D",
"0. c #9B9327",
"q. c #96932F",
"w. c #99962F",
"e. c #8A8D32",
"r. c #999B39",
"t. c #BC9220",
"y. c #B89828",
"u. c #AC9332",
"i. c #BEA032",
"p. c #C88A0F",
"a. c #C08D16",
"s. c #CA8D14",
"d. c #C7861C",
"f. c #C68B19",
"g. c #CC8A1D",
"h. c #D28D1B",
"j. c #C59116",
"k. c #CD9217",
"l. c #C79118",
"z. c #CD921A",
"x. c #D5951C",
"c. c #D89518",
"v. c #D9961D",
"b. c #DC991E",
"n. c #E1961A",
"m. c #E89718",
"M. c #E29A1E",
"N. c #EA9B1D",
"B. c #ECA01E",
"V. c #C89528",
"C. c #D99A26",
"Z. c #D69E2A",
"A. c #C79736",
"S. c #E59C21",
"D. c #E89D22",
"F. c #D0A735",
"G. c #E8A027",
"H. c #E7A42D",
"J. c #EAA32B",
"K. c #E7A631",
"L. c #E8A731",
"P. c #EDA931",
"I. c #E7AE3D",
"U. c #EAAD3B",
"Y. c #EDB13D",
"T. c #978547",
"R. c #838553",
"E. c #888C5E",
"W. c #948E58",
"Q. c #9B965D",
"!. c #BA9A46",
"~. c #ACA644",
"^. c #A1A152",
"/. c #ABAD50",
"(. c #BAB455",
"). c #BCBB5F",
"_. c #9B9B64",
"`. c #ABAB6C",
"'. c #B7B467",
"]. c #BABD63",
"[. c #B8B66C",
"{. c #B6B675",
"}. c #CBA745",
"|. c #C0AF47",
" X c #D9AD47",
".X c #DAB244",
"XX c #DDB44C",
"oX c #CBB552",
"OX c #E5B345",
"+X c #E9B647",
"@X c #E7B64A",
"#X c #ECBA4B",
"$X c #EABA4E",
"%X c #E7BB51",
"&X c #EABD52",
"*X c #CEB760",
"=X c #D4BF68",
"-X c #C6BE71",
";X c #DCC45F",
":X c #E7C35C",
">X c #E9C258",
",X c #F3C556",
"<X c #CACA71",
"1X c #C6C77F",
"2X c #CBC87B",
"3X c #D4CB71",
"4X c #D9CE73",
"5X c #D6D57F",
"6X c #E5C562",
"7X c #E9C762",
"8X c #EBCA64",
"9X c #E6CC6B",
"0X c #E9CF6D",
"qX c #ECD06F",
"wX c #E6D376",
"eX c #EAD272",
"rX c #EAD87B",
"tX c #F1D470",
"yX c #CBCB82",
"uX c #D8D887",
"iX c #D7D78A",
"pX c #E7DD84",
"aX c #E9DD84",
"sX c #E3DE89",
"dX c #DCE08D",
"fX c #E9E38C",
"gX c #E5E592",
"hX c #E9E692",
"jX c #EAE994",
"kX c #EBED9B",
"lX c #F2EF96",
"zX c #EDF19E",
"xX c #F0F4A1",
/* pixels */
"                                                                                                                                ",
"                                                                                                                                ",
"            . o & - - * & # # & % , - * & # # & * - - * & # @ & * - - * & # # & * * - * & # # & = - - & o .                     ",
"            o - w H J D 9 2 2 9 D J J D 9 2 2 9 D J J D 9 2 2 9 D J J D 9 2 2 9 D J J D 9 2 2 9 D J H w - o                     ",
"            & w R $.R.Y I d d I E W.R.Y G d d G Y R.R.Y I d d I Y R.R.Y G d d I Y R.R.Y I d d I Y R.W R w =                     ",
"            - J R.`.[./.9.A A 9.^.[.[.^.9.A A #.^.[.[.^.9.A A 9.^.'.'.^.9.A A 9.^.[.[.^.#.A A 9.^.[.`.R.J =                     ",
"            > L W.-X4X(.w.S S q.(.3X3X(.q.S S q.(.3X3X(.q.S S q.(.3X3X(.q.S S q.(.3X3X(.q.S Z w.oX3X<XW.K 7                     ",
"            > F T.*X;X|.0.Z Z 0.|.;X;X|.0.S Z 0.|.;X;X|.0.Z Z 0.|.;X;X(.0.Z Z 0.|.;X;X|.0.#.&.0.|.;X*XT.F >                     ",
"            : F O.}.F.F.=.Z Z =.i..X.Xi.=.Z Z =.i..X.Xi.=.Z Z =.i..X.Xi.=.Z Z =.i. X.Xi.=.Z Z =.F..X}.O.F >                     ",
"            ; g o.A.Z.V.=.C C *.t.Z.Z.t.` C C *.t.Z.Z.t.` C C *.t.Z.Z.t.` Z C ` t.Z.Z.t.*.C C *.t.Z.V.o.i ;                     ",
"            ; u ] g.v.l.;.( ( %.s.x.x.a. ./ / -.4.v.x.a.,./ / { a.c.v.a.{ / / { a.v.x.7.-.( ( ;.l.x.d.] i ;                     ",
"            ; i ] g.n.c.5.;.;.3.s.n.c.s.2.-.-.:.s.c.c.s.2.{ { :.s.c.c.s.2.{ { 2.s.b.c.z.3.;.;.5.x.M.g.' i ;                     ",
"            ; i ] g.N.N.c.j.j.k.c.n.n.c.s.4.a.s.c.n.n.h.s.p.>.s.c.n.c.c.s.p.a.s.x.M.n.v.h.l.z.x.B.M.h.] i ;                     ",
"            $ u ' d.M.N.M.b.b.b.M.S.S.M.b.v.v.v.S.S.N.n.C.v.v.C.M.S.S.S.C.x.v.M.M.M.M.C.b.v.x.S.M.M.d.' u $                     ",
"            $ t c ..d.d.g.d.g.C.C.H.L.L.L.K.K.K.K.H.K.K.L.K.K.L.L.K.K.L.H.L.H.H.D.D.S.v.h.d.d.g.f.d...c t $                     ",
"            O 5 i c ' ' ' ' o.1.A. X@X$X&X$X$X$X$X$X%X%X$X&X%X%X$X%X@X%X$X@X+XU.P.D.C.d.X.[ ' ' ' ' c h 5 O                     ",
"            . $ 5 t y y t y x O.T.*X8XtXtXqXqX0X0X0X9X0X0XeX0X0XeX9X0X0X0X0X8X$X+XD.h.X.Q h y t y u t 5 ; X                     ",
"              X O $ $ $ + ; r U Q.2XaXfXaXaXpXaXpXpXpXpXpXpXaXpXpXpXpXaXsXaXeX8X+XH.g.[ x 5 : $ $ $ $ O X                       ",
"                      . X = w E _.yXhXlXhXaXpXpXpXaXaXaXpXaXaXpXpXpXaXgXhXhXaXqX#XL.g.[ h e + . .                               ",
"                      o 8 H R E.{.iXgXhXaXwX0X0X0X0X0XqX0X0X0X0X9X0XwXpXfXhXaXeX$XL.h.X.Q h e ; X                               ",
"                    o 8 T W _.{.yXdXfXaX0X&X%X@X$X$X$X$X$X&X$X$X@X%X&X9XpXgXsXeX$XL.C.d.X.] c y : .                             ",
"                    = H W `.yXiXgXgXpX0X&XOXK.H.H.L.L.K.K.K.J.J.K.L.OX&XwXaXaX0X$XL.S.m.c.g...c r $                             ",
"              . o > w E _.1XfXjXjXsXwX7X+XL.S.M.b.c.v.x.x.x.c.c.S.S.K.@X7XwXwX7X+XK.S.N.B.D.g.} x 3 + .                         ",
"            o = q K E E.{.iXlXhXaXwX6X@XU.D.n.h.s.a.2.:.:.:.>.p.h.n.D.I.%X:X7X%XI.D.N.N.B.N.c.X.' h e 5 +                       ",
"            o q L @._.{.iXdXhXaX0X&X+XU.J.D.b.s.2.{ _ ) ) ) ` :.p.c.N.H.I.OXOXI.H.D.M.N.N.N.b.g.X.] Q y : .                     ",
"            - H W `.yXdXgXgXpXeX&XOXK.D.D.D.v.a.{ / C N N C ( -.a.c.S.J.J.J.K.J.G.G.D.D.N.G.N.M.n.g.} Q t $                     ",
"      . . $ t U _.yXkXzXkXhXpX9X%XL.D.N.D.S.x.3._ C M M V Z &.0.V.Z.K.J.H.D.D.G.J.H.K.K.P.P.K.L.P.L.A.+.P 0 > - - , 7 7 7 7 7 7 ",
"    . $ 5 t P @.'.iXkXxXzXhXpX7X@XD.N.N.N.N.x.2.) N V V #.e.r.i.}.XX@XI.J.D.D.H.I.+X$X$X$X$X&X,X&X&X@X!.e.U L K K L L L L L L L ",
"    O 5 i Q +.!.=XsXkXzXzXgXpX9X@XK.D.m.N.D.x.2./ N V #.r./.).<X3X9X7X$XI.J.D.U.$X8XqXqXqXqXqXqXtXtXqX=X'.`._._._._._._._._._._.",
"    + e l ..V. X6XsXgXkXkXjXpX9X@XK.S.N.N.S.x.6.) C S q./.<X5XsXpXpXwX7XOXH.H.OX:XwXaXfXpXfXrXfXaXaXaXuXyXyX2X1X1X1X1X1XyX1X1X1X",
"    $ e l ..V. X4XpXgXkXkXgXsX9X@XK.S.N.N.S.v.4.,.&.8.r.].uXgXjXfXpXwX:XOXL.H..X;X4X5XuX5X5X5X5X5X5XuX2XyXyX1X1X1X1X1X1X1X1X1X1X",
"    O 5 i Q +.!.=XpXjXzXzXkXsX9X@XK.S.m.N.D.S.V.u.r.~.].2XdXjXhXaXwX7X&XP.L.D.F.|.(.).].].].].].).*X'.'.^._._._._._._._._._._._.",
"    . $ 5 t P T.*XiXlXxXzXkXaX9X$XD.N.m.S.S.S.F.|.oX].5XiXgXhXaX0X&X+XU.L.D.D.A.y.r.r.r.r.r.r.r.r.r.r.e.Y L L L L L L L L L L L ",
"        . $ 0 U Q.yXgXkXkXhXpX0X$XL.S.S.m.D.K.OX;X4XuXuXgXhXaX0X&XOXK.D.D.D.C.l.1.&.S S S S S &.#.Z A G d 8 7 - - , 7 7 7 7 7 7 ",
"            = H W `.yXsXsXsXeX8X%XOXH.D.S.S.L.+X7XwXaXfXfXpXwX7X@XL.D.S.M.v.f.<._ N M M m M M M m f f 6 < X                     ",
"            o q T W Q.`.=X9XtX8X&X$X+XOXL.D.D.+X&X8XeXeXeX0X7X&XU.D.S.x.k.5.2.` ^ N m m m m b f f a 6 < #                       ",
"            . = 8 H U @.!. X&X&X8X9X7X&XI.J.D.P.+X#X$X&X&X$X+XY.P.D.S.s.2.-._ ^ C M M M M m v f 6 1 < # X                       ",
"              o o = 0 P +.g.OX&X0XrXwX7X+XK.D.D.G.J.L.P.K.J.J.J.J.S.v.a.,./ N N M M M M M m v s 6 % X                           ",
"                    + e Q } A.}.6XwXwX6X.XZ.c.x.x.x.v.x.x.x.x.v.v.x.l.<._ C M m m M m m m v s 6 < X                             ",
"                    . ; e c o.u.}.=X;XXXF.t.3.:.:.:.3.2.3.:.3.6.2.6.<._ ^ M m m m m v v f a 6 < @                               ",
"                      . ; e x o.!.}..XF.y.,._ _ ) _ ) ) ) ) _ _ ` _ ( ^ N m m m M m v f 6 1 % @                                 ",
"                      . . $ e k +.g.Z.V.1.( C N N C C C C C C C C C C N N M M M M M v a 4 % @                                   ",
"            . o & - - - $ * 3 x [ g.v.f.;.( C C C C C C C C C C C C C C ^ C C ^ C C n f r 1 ; $ ; ; $ o X                       ",
"            o - w H K J p p h Q ..h.n.g.3. ._ _ _ _ _ _ _ _ _ _ _ _ _ _ ` ` ` ` %._ ' ~ k i p u u u t 5 ; X                     ",
"            & w R $.W.T.O.o.[ X.d.v.b.c.z.j.5.3.2.3.3.3.4.3.4.3.3.3.3.3.5.a.4.a.7.5.6. .} [ ' ' ] ' c i 5 O                     ",
"            - J W `.-X*X}.V.g.h.c.M.S.S.v.v.x.x.x.x.x.x.x.x.x.x.x.x.x.x.x.x.x.x.x.x.x.x.g.f.f.z.g.f...Q t $                     ",
"            - K W.<XwX8X XZ.x.c.n.S.S.b.v.C.v.v.C.N.N.M.b.v.v.C.S.S.S.b.C.c.v.C.M.S.S.M.v.v.v.b.S.S.d.' u $                     ",
"            > F T.*X7X>XF.V.s.h.v.S.S.v.k.a.j.z.v.S.S.C.s.l.l.k.v.S.S.v.x.a.l.k.v.S.M.b.x.l.l.b.G.G.g.] i ;                     ",
"            > F O.}.OXF.V.;.;.5.k.b.b.z.3.,.,.5.z.C.M.k.3.,.,.3.x.C.M.z.3.,.,.3.x.b.b.z.5.;.;.5.x.b.s.[ i ;                     ",
"            ; i o.V.Z.V.1.&.%.-.5.v.v.a.-.( ( -.a.v.v.a.,./ / -.5.v.v.a.-.( ( -.7.v.v.7.;.( ( ;.j.v.d.] i $                     ",
"            $ i ] d.x.5.%.C N %.5.v.b.5._ C C _ 5.v.x.5.` C C ` 5.c.v.5.` C C ` 5.v.x.5.%.C C %.5.x.d.] i ;                     ",
"            ; i [ g.x.s.%.C N %.5.b.b.5.%.C C %.7.v.v.j.` C C ` 7.v.b.5.` C C %.5.b.v.5.%.C C %.j.C.g.[ i ;                     ",
"            ; i ] s.b.j.%.C C %.a.b.b.7.%.C ^ ` 7.b.b.5.%.C ^ ` j.v.b.j.` C C %.7.b.b.5.%.C ^ %.j.b.g.[ i *                     ",
"            ; i ' d.x.j.%.C C %.3.x.x.5._ C C _ 3.x.x.5.%.C C _ 3.x.x.3._ C C _ 5.x.v.5._ ^ C %.5.x.d.' i ;                     ",
"            $ t Q ..6. .~ n m ~  .6.6. .~ n n ~  .6.6. .~ n n ~  .6.6. .~ n n ~  .6.3. .~ n n ~  .6.| c t $                     ",
"            O 5 h c ! c j s s f z ! ! z j s s j z ! ! z f s s j z ! ! z j s s j z ! ! z j s s j B ! c h 5 O                     ",
"            X ; 5 e t r 4 4 1 4 r t t r 4 1 1 4 r t t r 4 1 1 4 r t t r 4 1 1 4 r t y r 4 2 1 4 r t t 5 : o                     ",
"              X O $ $ $ # # X # $ $ $ $ # # # # $ $ $ $ # # O # $ % $ $ # # # # $ $ $ $ # @ # # $ $ + & .                       ",
"                                                                                                                                ",
"                                                                                                                                ",
"                                                                                                                                ",
"                                                                                                                                ",
"                                                                                                                                ",
"                                                                                                                                "
};
