/* XPM */
static char *sprite_4_7_resized[] = {
/* columns rows colors chars-per-pixel */
"64 64 237 2 ",
"   c #000001",
".  c #0B0603",
"X  c #0C0C01",
"o  c #0C0D09",
"O  c #120E02",
"+  c #1A0F02",
"@  c #0E1105",
"#  c #131103",
"$  c #1C1304",
"%  c #171802",
"&  c #1B1C00",
"*  c #15150A",
"=  c #191A0E",
"-  c #171711",
";  c #1C1C13",
":  c #251806",
">  c #211D10",
",  c #1F2100",
"<  c #1F2015",
"1  c #232500",
"2  c #2C2205",
"3  c #2C2A02",
"4  c #2C2C09",
"5  c #372D05",
"6  c #392808",
"7  c #343400",
"8  c #383502",
"9  c #3B3B01",
"0  c #202016",
"q  c #2B2C1C",
"w  c #353614",
"e  c #3A3517",
"r  c #2E3021",
"t  c #373725",
"y  c #462E08",
"u  c #473406",
"i  c #453308",
"p  c #4C350B",
"a  c #55380B",
"s  c #523B13",
"d  c #3E4200",
"f  c #414300",
"g  c #4C4702",
"h  c #4E4803",
"j  c #4D4D0E",
"k  c #515100",
"l  c #5A5005",
"z  c #5D5D00",
"x  c #524B10",
"c  c #65430E",
"v  c #604F08",
"b  c #655109",
"n  c #7A570E",
"m  c #76580E",
"M  c #674813",
"N  c #704F15",
"B  c #7D5513",
"V  c #5D6000",
"C  c #646400",
"Z  c #6C6304",
"A  c #666900",
"S  c #6B6B00",
"D  c #706505",
"F  c #746E02",
"G  c #6F730B",
"H  c #7D7205",
"J  c #7B770A",
"K  c #7D7A0D",
"L  c #6C6C13",
"P  c #7B7B13",
"I  c #424324",
"U  c #46472D",
"Y  c #524D2D",
"T  c #5D5E22",
"R  c #4B4C31",
"E  c #555537",
"W  c #5B5B3B",
"Q  c #666433",
"!  c #73753D",
"~  c #696945",
"^  c #797A48",
"/  c #7D7D51",
"(  c #825714",
")  c #875E12",
"_  c #895C12",
"`  c #8C5D10",
"'  c #80630D",
"]  c #836C0A",
"[  c #837406",
"{  c #8A7409",
"}  c #8C7809",
"|  c #937707",
" . c #957B0B",
".. c #997E0C",
"X. c #986616",
"o. c #A47F0C",
"O. c #A26D18",
"+. c #AA7717",
"@. c #A27913",
"#. c #B47717",
"$. c #936F28",
"%. c #A97925",
"&. c #917E40",
"*. c #7C821D",
"=. c #7E8155",
"-. c #9B800C",
";. c #8B8117",
":. c #998112",
">. c #98891B",
",. c #A2820E",
"<. c #A9840F",
"1. c #B5850E",
"2. c #BD870E",
"3. c #A58311",
"4. c #AC8611",
"5. c #A98A18",
"6. c #B68610",
"7. c #B68914",
"8. c #BA8915",
"9. c #BB8B15",
"0. c #B98119",
"q. c #B4901E",
"w. c #8B8B26",
"e. c #82822D",
"r. c #9A9227",
"t. c #96932F",
"y. c #8A8B32",
"u. c #969938",
"i. c #9B9C39",
"p. c #BC9220",
"a. c #B49729",
"s. c #AB9531",
"d. c #BEA032",
"f. c #C88A0F",
"g. c #C18D16",
"h. c #CA8D14",
"j. c #C8861B",
"k. c #C58E18",
"l. c #CC8A1D",
"z. c #D48D1B",
"x. c #C59215",
"c. c #CB9117",
"v. c #CD921A",
"b. c #D99317",
"n. c #D5951C",
"m. c #DA961D",
"M. c #DC991E",
"N. c #E1961A",
"B. c #E89718",
"V. c #E39A1E",
"C. c #EB9B1D",
"Z. c #F2A01D",
"A. c #C89728",
"S. c #DA9825",
"D. c #D69F2A",
"F. c #C79330",
"G. c #E59C21",
"H. c #E99E22",
"J. c #C8A636",
"K. c #D9A733",
"L. c #E8A026",
"P. c #E6A42E",
"I. c #EAA32B",
"U. c #E7A631",
"Y. c #E8A731",
"T. c #EDA931",
"R. c #E7AE3D",
"E. c #EAAD3B",
"W. c #EBB13D",
"Q. c #95864B",
"!. c #848653",
"~. c #8A8B58",
"^. c #99975B",
"/. c #B79846",
"(. c #9FA153",
"). c #B2A945",
"_. c #A1A152",
"`. c #AAAB52",
"'. c #B9B456",
"]. c #9B9B64",
"[. c #AAA96C",
"{. c #B9AF67",
"}. c #B5B767",
"|. c #BABD63",
" X c #B8B66C",
".X c #B9BB79",
"XX c #C0AF47",
"oX c #CAAB47",
"OX c #D8AB46",
"+X c #DBB244",
"@X c #DCB74D",
"#X c #C2B959",
"$X c #D1B552",
"%X c #E6B445",
"&X c #E9B647",
"*X c #E7B649",
"=X c #ECBA4B",
"-X c #EABA4E",
";X c #E7BB51",
":X c #EABD52",
">X c #C9BB6B",
",X c #D3BD66",
"<X c #DCC55F",
"1X c #E7C35C",
"2X c #E9C258",
"3X c #F3C556",
"4X c #CACA71",
"5X c #C6C77F",
"6X c #CBC87B",
"7X c #D4CB71",
"8X c #D9CE73",
"9X c #D6D57F",
"0X c #E5C562",
"qX c #E7C762",
"wX c #EBCA64",
"eX c #E6CC6C",
"rX c #E9CF6D",
"tX c #ECD16F",
"yX c #E6D376",
"uX c #EAD273",
"iX c #EAD87B",
"pX c #F1D470",
"aX c #CBCB82",
"sX c #CACF8A",
"dX c #D7D78A",
"fX c #D8D888",
"gX c #E7DD84",
"hX c #E9DD84",
"jX c #E3DE89",
"kX c #DCE08D",
"lX c #E9E38C",
"zX c #E4E492",
"xX c #E9E692",
"cX c #EAE994",
"vX c #EBED9A",
"bX c #EEF19D",
"nX c #F1F099",
/* pixels */
"                                                                                                                                ",
"                                                                                            .                                   ",
"                . X # * = ; ; = * # # * = ; ; = * # # * = ; = = * # # * = ; ; = * # O * = ; ; 0 > : $ O X                       ",
"            . X % , 4 w I R R I w 4 4 w I R R I w 4 4 w I Y Y I w 4 4 w I R R I w 4 4 w I R Y Y Y s y 6 $ .                     ",
"            . % 1 9 j T ^ !.!.! T j j T ! !.!.! T j j T ! !.!.! T j j T ! !.!.! T j j T ! !.Q.Q.$.X.( a 6 +                     ",
"            X 1 9 k G w.`. X X_.e.L L e._. X X_.e.L L e._. X X_.e.L L e._. X X_.e.L L e.(. X4X#XOXF.+.( y +                     ",
"            X 1 9 z J i.#X7X7X'.t.K } t.'.7X7X'.t.P P t.'.7X7X'.t.P P t.'.7X7X'.t.P P t.'.7XyXwX%XD.0.' p $                     ",
"            X 1 f V *.s.XX<X<XXXr.*.P r.).<X<XXXr.K K t.XX<X<XXXr.} K r.XX<X<XXXr.P K r.).<XwX2XK.A.+.m y $                     ",
"            X 1 d z J >.J.+XR.d.>.J [ >.d.+X+Xd.>.J K >.d.+X+Xd.>.K J >.J.+X+Xd.>.J K >.d.+X%XK.A.5.{ v 5 #                     ",
"            O 1 f z J 3.A.D.D.q...J J :.p.D.D.p...[ J ..p.D.D.p.:.J J :.q.D.S.p.:.H J ..p.D.D.A.5.} Z g 3 O                     ",
"            # 3 g Z } 4.x.M.M.p.,.} } o.k.m.m.k.3.{ } o.g.n.m.g.,.} } ,.k.m.m.g.@.} } 3.x.m.m.9.,.H z d 1 X                     ",
"            * 5 v { 4.g.b.V.N.c.6.o.o.1.k.b.b.h.6.o.o.6.h.b.b.h.1.o.,.1.h.b.b.k.6.o.,.7.c.V.m.x.-.H V d 1 #                     ",
"            $ i n 3.x.M.V.Z.V.M.h.h.2.h.b.N.b.b.k.g.f.h.b.b.N.b.h.2.g.h.b.b.b.b.c.9.g.v.m.C.M.x.,.H V d 1 O                     ",
"            $ p ) 0.n.V.H.V.V.M.m.S.S.m.N.G.G.V.S.m.n.m.V.G.G.V.m.m.m.m.V.G.G.G.M.m.m.G.V.G.n.9.-.H V d 1 @                     ",
"            $ y B +.j.l.l.l.v.S.S.U.U.Y.Y.U.U.U.U.U.U.U.P.U.U.P.Y.U.U.Y.U.U.P.I.I.G.G.N.z.l.0.@.] C k 9 , X                     ",
"            O 6 c ( ` X.X.` X.%.F.+X-X-X:X-X;X-X-X:X-X-X-X;X;X;X-X:X-X-X-X*X&XW.T.L.S.j.#.X.( m l g 9 3 % .                     ",
"            X : 6 p a a y p M $.Q.,XwXpXpXrXrXrXrXrXrXrXrXrXrXrXrXrXrXrXrXeXwX:X%XU.z.#.( c p 6 5 3 1 % X                       ",
"              . O $ $ $ + : e Q ^.>XhXlXlXhXgXhXhXgXgXgXgXgXgXgXgXhXgXgXhXgXuXwX=XH.l.O.M 6 : O O X X . .                       ",
"                      o o - t ~ [.aXxXxXxXgXhXgXhXgXhXlXgXgXgXgXgXgXgXlXxXxXhXrX=XI.l.X.c y $ . .                               ",
"                      o q U ~ ~..XsXxXxXhXuXrXeXrXrXrXtXtXrXrXrXeXuXyXgXzXxXhXuX-XT.z.#.( c y : O                               ",
"                    . q E / ]..XsXkXzXhXrX:X-X*X*X-X-X-X-X-X-X*X-X;X:XuXgXzXjXuX:XY.S.j.#.X.B p : .                             ",
"                    ; U / [.aXdXzXzXgXtX:X%XY.P.P.Y.Y.Y.Y.Y.Y.P.P.U.%X:XuXgXhXrX-XU.C.N.b.l.+.B p $                             ",
"              . o - t ~ ].aXhXnXxXgXyX0X*XP.G.G.M.m.n.n.n.n.b.b.N.G.U.%XqXyXyXqX&XU.G.C.C.G.l.O.c 6 : .                         ",
"            . - r R ~ ^..XdXnXxXhXtX0X*XE.H.N.z.h.9.2.1.1.1.2.f.z.m.G.R.:X0X0X;XE.H.C.C.Z.Z.b.#.` M y 2 +                       ",
"            o r E =.]..XsXzXlXhXrX:X*XE.Y.H.m.h.1.o. .| | | o.1.f.b.V.I.E.&X%XE.Y.G.C.C.Z.C.N.l.#.X.( a 2 .                     ",
"            ; U &.[.sXkXzXzXhXuX:X%XY.H.H.G.m.g.o.{ H F F H } ,.k.b.H.I.I.Y.P.P.L.G.G.H.L.G.G.V.N.l.#.( p $                     ",
"      . o > t ~ ].aXzXbXvXxXgXeX-XY.H.H.H.C.m.7. .H D S G *.;.r.A.D.P.P.I.H.H.H.P.P.Y.Y.Y.Y.Y.T.T.Y.F.$.N e ; ; ; 0 0 0 0 0 0 0 ",
"    o ; r E ~ ]..XkXbXbXvXxXgXeX*XH.H.B.C.G.n.6.| F G G *.w.i.d.oX@X*XE.U.H.H.U.E.&X-X-X-X-X-X3X3X:X*X/.&.~ W E E W W W W W W W ",
"    - r W ~.[..XdXzXvXvXvXcXgXeX*XY.G.B.C.H.n.6.| F G *.u.`.|.4X7XeXqX:XE.H.I.E.-XwXtXtXtXtXtXpXpXpXrX,X{.[.].^.^.].].].].].].].",
"    - U / [.aXdXkXzXcXvXvXzXgXeX*XP.H.H.B.H.n.7.| H P t.`.4X9XjXjXgXyX1X%XP.P.%X1XuXgXlXlXlXiXlXhXhXgXfX9X5X5X5X5X5X5X5X5X5X5X5X",
"    ; U / [.aXdXzXzXcXvXvXzXjXeX*XP.H.G.C.H.z.g.:.;.w.i.|.fXzXcXzXgXyX1X%XY.P.R.<X8XfXfX9X9XfX9X9X9X9X6X6X6X5X5X5X5X5X5X5X5X5X5X",
"    * t W !.[..XsXzXvXvXvXvXgXeX*XP.H.B.C.G.G.F.a.i.).}.6XkXcXcXhXuXqX-XE.I.D.K.XX'.|.|.|.'.'.|.|.|.|.{.[.].].].].].].].].].].].",
"    o ; t R ~ ].>XdXvXnXbXvXhXeX*XY.G.B.B.G.G.K.oX'.4X6XdXxXxXhXrX:X*XE.Y.H.G.F.a.i.i.u.u.u.i.i.i.i.u.y.! W W W W W W W W W W W ",
"      . o < t ~ ].aXxXnXvXxXgXrX*XP.H.B.B.G.P.%X<X7XfXkXzXzXgXtX:X%XY.H.H.H.m.A.3.;.P P P *.P P *.P L x j q < ; ; ; 0 0 0 0 0 0 ",
"            ; U / [.aXdXjXjXiXwX;XE.Y.H.G.H.Y.&X1XiXgXhXlXgXuX0X&XY.H.G.V.m.k.6. .H S A S S S S A C k d 1 X                     ",
"            o r W &.].{.>XeXwXwX:X;X*X%XY.H.I.%X2XwXpXuXuXrXwX:XE.H.G.b.h.9.4...[ D S A A A A z k f 8 1 #                       ",
"            . - r R ~ &./.%X:X3XrXwXqX:X%XI.H.T.W.=X=X:X:X-X&XE.T.L.V.v.8.,.| [ H S S S S S C k 9 5 & # .                       ",
"              . o < r Y O.F.%X-XrXiXyXqX%XU.H.H.L.P.Y.T.U.U.I.I.L.G.m.9.3.} H F S S S S S S V f 3 & X .                         ",
"                    $ y ( O.F.OX0XyXyX0X+XD.b.n.b.n.m.n.n.n.n.S.m.n.k.6.| J S A A S S A C V k d 1 X                             ",
"                    . : y B X.s.oX,X0X$XJ.p.7.6.6.6.6.6.6.1.6.7.7.7.3.-.[ S C C C A C V k f 7 , O                               ",
"                      . : y M $.s.OX+XJ.a.3. .} |  .| | |  . .|  . .} [ F S A A A A V k 9 3 & X                                 ",
"                      . . + 6 N %.F.D.A.5.| J H F H H H H H H H [ H H F F S S S S S V h 7 & X . .                               ",
"            . o * ; ; $ $ = 6 M O.j.N.j.4.} H F H H H H H H H H H H H H H H H H [ H S l u 1 : $ $ $ $ o .                       ",
"            o ; t R E Y s s c _ #.l.N.z.7.o. . . . ..... . . . . ..... .......-..... .' N a s p a a p 6 : X                     ",
"            * t ~ =.~.Q.$.X.X.#.j.b.V.m.l.9.8.6.7.9.9.9.8.7.7.7.8.8.9.9.9.8.8.9.9.g.0.+.@.X.X.X.X.X.B c 6 O                     ",
"            ; R =.[.4X>XoXF.l.z.N.S.C.G.m.m.n.n.n.n.n.n.n.n.n.n.n.n.n.n.n.m.n.n.n.S.n.z.l.j.j.h.z.j.+.B p $                     ",
"            ; R =.|.8X0X*XU.G.N.m.m.m.m.M.G.G.S.m.m.m.M.G.G.G.V.m.m.m.S.V.G.G.G.m.m.m.m.G.V.G.H.V.S.#.) p $                     ",
"            ; U ^ (.<X$XR.U.H.b.v.g.g.v.m.G.C.M.v.k.k.v.n.G.G.m.v.k.k.v.m.G.V.m.v.k.k.v.m.L.L.V.M.k.5.B i $                     ",
"            * w T y.s.J.K.L.M.v.7.,.,.8.v.M.M.v.9.3.3.7.v.S.V.v.7.<.<.7.n.S.M.v.7.<.<.7.n.M.M.M.x.<.{ l 7 #                     ",
"            # 4 j L ;.5.x.D.m.x.,.} } ,.k.m.m.k.3.} } ,.k.M.n.x.,.} } ,.g.m.m.x.,.} } ,.9.M.M.x.<.} Z h 3 #                     ",
"            O 1 f V H ,.9.m.n.9...H H ..8.n.m.9...H [ ..9.n.n.9...H H -.9.n.m.9.-.J H -.9.M.M.x.,.H z f 1 O                     ",
"            X 1 d V H ,.x.M.M.9.-.H H ..9.M.m.9.-.H H ..9.M.M.9.-.H H -.9.m.M.9. .H J -.9.M.M.x.-.J z d 1 X                     ",
"            X 1 d z H <.x.M.M.9...[ H ..9.m.m.x.-.H [ -.9.M.m.x.-.H H -.x.m.M.9.-.H H -.x.M.M.x.,.H V d 1 O                     ",
"            O 1 9 z H :.x.m.b.9...J H  .9.n.n.8. .H H ..9.n.n.8. .H H -.8.n.n.9. .H H  .9.n.n.9.-.H z d , O                     ",
"            X , 9 k S { @.8.7.@.] Z Z [ @.0.0.@.] Z Z ] @.0.0.@.] Z Z ] @.0.0.@.] Z Z ] @.0.0.+.} Z k 8 , X                     ",
"            . % 3 9 h b n ) ) m v h h v m ) ) m l h h v m ) ) m v h h l m ) ) m v h h v m ) ) m b h 9 3 & X                     ",
"              X % 1 3 5 u a p i 5 3 3 5 i p p i 5 3 3 5 i p p i 5 3 3 5 i p p i 5 3 3 5 i p p u 5 3 1 % o .                     ",
"              . . . # # $ $ $ $ # # O # $ : $ $ # O # # $ $ $ $ # O O # $ $ $ $ # # O # $ : $ $ $ @ X .                         ",
"                                                                                                                                ",
"                                                                                                                                ",
"                                                                                                                                ",
"                                                                                                                                ",
"                                                                                                                                ",
"                                                                                                                                "
};
