/* XPM */
static char *sprite_0_18_resized[] = {
/* columns rows colors chars-per-pixel */
"64 64 92 1 ",
"  c #000000",
". c #0E0101",
"X c #0E0A0A",
"o c #260100",
"O c #270805",
"+ c #250F0E",
"@ c #26100E",
"# c #251B1B",
"$ c #25201F",
"% c #3F3736",
"& c #420300",
"* c #420C09",
"= c #5D0700",
"- c #5D0800",
"; c #5C120C",
": c #411B19",
"> c #6E0A00",
", c #720E00",
"< c #6A140D",
"1 c #6F1C0E",
"2 c #721100",
"3 c #7A1500",
"4 c #7D1C00",
"5 c #701D0E",
"6 c #691F1A",
"7 c #7A270B",
"8 c #7D2A0E",
"9 c #69201A",
"0 c #402B2A",
"q c #5A2622",
"w c #583C39",
"e c #652725",
"r c #662827",
"t c #682B26",
"y c #6A2B28",
"u c #6C3127",
"i c #66322F",
"p c #733924",
"a c #773D28",
"s c #663230",
"d c #643F3E",
"f c #7C4425",
"g c #7E4728",
"h c #65403F",
"j c #6C4A3F",
"k c #71513F",
"l c #785B3F",
"z c #574B4A",
"x c #634242",
"c c #684642",
"v c #654947",
"b c #6A4A42",
"n c #644E4E",
"m c #725442",
"M c #775B41",
"N c #785D42",
"B c #705F4E",
"V c #624F50",
"C c #645655",
"Z c #655856",
"A c #6B5F55",
"S c #635C5C",
"D c #695B58",
"F c #6B6056",
"G c #66625E",
"H c #68625B",
"J c #706151",
"K c #615F61",
"L c #636363",
"P c #606568",
"I c #626869",
"U c #821E00",
"Y c #812100",
"T c #862A00",
"R c #8A2F00",
"E c #8D3100",
"W c #85370C",
"Q c #88390E",
"! c #913A00",
"~ c #8F460E",
"^ c #964100",
"/ c #984100",
"( c #9E4B00",
") c #954E0D",
"_ c #96500E",
"` c #8E511A",
"' c #A14C00",
"] c #824E26",
"[ c #865426",
"{ c #885626",
"} c #82582F",
"| c #825830",
/* pixels */
"                                                                ",
"                                                                ",
"                                                                ",
"                                                                ",
"                                                                ",
"                                                                ",
"                                                                ",
"                                                                ",
"                                                                ",
"                                                                ",
"                                                                ",
"                                                                ",
"                                                                ",
"                                                                ",
"                                                                ",
"                                                                ",
"                                                                ",
"                                                                ",
"                                                                ",
"                                                                ",
"                                                                ",
"                                                                ",
"                                                                ",
"                                                                ",
"                                                                ",
"                                                                ",
"                                                                ",
"                                                                ",
"                                                                ",
"                                                                ",
"................XXXX............................XXXX............",
"ooooooooooooooO+##$#@OOoooooooooooooooooooooooO+#$##@Ooooooooooo",
"&&&&&&&&&&&&&&*:%%00:*&&&&&&&&&&&&&&&&&&&&&&&&*:0%%0:*&&&&&&&&&&",
"--------======;qwzVwq;====---=======-----=====;qwzzwq;-====---=-",
"222222222,2,,,1ycCCxt<>>>,22222222222,22222,,25ucCCxy<>>,,222222",
"U7YYYYYYU7YUUU8amZDcy<,,34YYYYU7YYYYYUU7YYYYUU8amDDcy<,,34UY7YYY",
"EEEEEEEEEEEEEEQ]mHZcr<,3YREEEE!EEEEEEEEEEEEEEEQ]mDDxy<,3YEEEEEEE",
"^^^/^!^^!///!^)]MDCxr<24T!^/^^^^^^^^^^^^!!///!~]MDCxy<23T!^^//^/",
"((((((((((((((){NACxr<24E^(((((((((((((((((('(){NFZxr<,4E^((((((",
"('(('(((('''''_{NAChr<,4E/(''(((((((('((('('''_{NFCxr<,4R^('''((",
"('(''((((((''(){NAChr<,4E^(('((('((((((((((''(_{NFCxe<24R/(''('(",
"(((/((((((((((){NFCxr<,4R^((((((((((((((((((((){MZCxe<23R^((((((",
")))))_))_))_))`}NHSxs917W~______))))__)_))))))`}NHZvs677Q~)_____",
"[[[[[[[[{[[{[[}lFHSChsupf[[{{[[[[[[[[[[{[[[[{{}lJGSVxsupf][[[[[{",
"lllMMMNNNNNMNNNFHLLSVvbbmMMMNNNNlllMMMMMNNMNNMBBHLLSCccbmMNNNMNN",
"AFAAFFFFAADFFAFHHGLSSCZZZDFFAAAAAAAAFFAAFFAAFFAHGGGGSZCZDAAAHFFF",
"LLSGSZZCCCCCCCCCCZCCCCCCCCCCCCSSSLGSSZCCZCCCZCCCCCCCCCCCCCCCCCZZ",
"PPKSVvxxhxxxxxhxxhhxxxxcxxxhhxxVSKKSVvxxxxxxxxxdxhhxxxxxxhddzxxx",
"PPSnditerrrrrrrrrrerrrrrrrrrrridVSSCdirerrrrqrrrreeerrrtrrrrrrrr",
"ILSci6<<<<<<<<<<<<<<<<<<<<<<<<6ivCCvs6<<<<<<<<<<<<<<<<<<<<<<<<<<",
"ILChe<>,,22222222222222222,,,25uvCCcy<>>>,22222222222222222,2222",
"ILChe<>,,3U44444444444744444447pjZChr<>,2344U7447444444473744444",
"ILChe<>27TEEEERRRRRRRREEERERRRWfmZCxr<>2YTREEERRRRRRRRRRRRRRERRR",
"ILCxe<23T!^^^^^^^^^^^^^!^^^!!^~]MACxe<,3T!^^^^^^/!^^^^^^^^^^^^^^",
"ILChe<24R!(((((((((((((((((('(){NFCxr<24E^((((((((((((((((((((((",
"ILCht<2UE/((((((((((((((((((''_{NFChr<,4E/('((((''((((((((((((((",
"ILChe<,4R/(''('((('((((((((''(_{lFCde<,4E^((''((((((((((((((((((",
"ILChr<24E/(((((((/((((((((((((_[NFCxe<24E^((((((((((((((((((((((",
"ILZvi917W~))))))))))))))))))_)`|NFZvi617W~)___))))))))_))))~))))",
"PLZnhiupf][[[[[[[[[[[[[[[[[[[[glFHSndiupfg[[{[[[[[[[[[[[[[[[[[[[",
"LLGCVcjjkmllMMlMNlMllNMMMMllllMBFGGCnccjklllMlllMlMllMllllllMMlM",
"LLLSSZCZZAAAFFFFAAAAAAAAAAAAAAHHGLKGSCZZZAFFFFZFZFFFFFZFFFFFFFFZ",
"LLLLLLLLLLLLLLLLLLLKLLLLLKLLLLLLPLLLLLLLLLLLLLLLLLLLLLLKLLLLLLLL",
"LLLPLIIIPIPPPPPPPPPPPPPPPPPPPPPLPLLLPIIPIPPPPPPPPPPPPPPPPPPPPPPP"
};
