/* XPM */
static char *sprite_0_16_resized[] = {
/* columns rows colors chars-per-pixel */
"64 64 68 1 ",
"  c #690400",
". c #6D0900",
"X c #720E00",
"o c #6A140D",
"O c #721100",
"+ c #7D1D00",
"@ c #701D0E",
"# c #691F1A",
"$ c #7D2000",
"% c #7A270B",
"& c #79290E",
"* c #69201A",
"= c #652725",
"- c #662827",
"; c #682C27",
": c #6C3127",
"> c #66322F",
", c #733925",
"< c #663230",
"1 c #643F3F",
"2 c #7C4525",
"3 c #65403F",
"4 c #6C4A3F",
"5 c #71513F",
"6 c #785B3F",
"7 c #634242",
"8 c #684640",
"9 c #654947",
"0 c #6A4B42",
"q c #644E4E",
"w c #64504F",
"e c #725441",
"r c #765B42",
"t c #785D42",
"y c #705F4E",
"u c #624F50",
"i c #645655",
"p c #655856",
"a c #6A5F55",
"s c #635C5C",
"d c #6B6056",
"f c #66625E",
"g c #69625B",
"h c #706151",
"j c #615F63",
"k c #636362",
"l c #606568",
"z c #636869",
"x c #862A00",
"c c #8A2F00",
"v c #8A3000",
"b c #85370C",
"n c #84380E",
"m c #923B00",
"M c #8F460D",
"N c #964100",
"B c #984100",
"V c #9E4B00",
"C c #954E0D",
"Z c #96500E",
"A c #8E511A",
"S c #A14C00",
"D c #824E26",
"F c #865426",
"G c #885626",
"H c #82572F",
"J c #82582F",
"K c #825830",
/* pixels */
"              o-7ip8;o.                       o-9ii7;o.         ",
".. .  .....   o-8ii7;o .... ... ... ..  .. .  o;7ip7;o. ..... ..",
"OOOOOOOOO.OOOO@>0pp7;o...OXOOOOOOOOOOOOOOOOXXO@:0ip7;o...OOOOOOO",
"$+$$$$$$$$$$$$&,0pp7;o.OO++$$$$$$$$$$$$$+$$++$&,0ap7;o.XO++$$$+$",
"vvvvvvvvvvvvvvn2epi7-oXO$cvvvvvvvvvv%bvvvvvvcvn2eai7=oOO$%vvvvvv",
"NNNNNNNNNNNNNNC2rap7-oO+xmNNBBNBNNNNNNNNNmNNmNMFeai7=o.+cmNVNNNN",
"VVVVVVVVVVVVVVCFrai7-oO+cNVVVVVVVVVVVVVVVVVVVVZGrdp7-oO+vNVVVVVV",
"VVVVVVVVVVVSVVZGrai7=oO+cNVSVVVVVVVVVVVVVSVSSVZGtdi7=oO+vNVVVVVV",
"VVVVVVVVVVVSSVCGtdp1=o.+vBVVSVSVVVVVVVVVVVVVVVCGrai1=oX+cBVSSVSV",
"VVVVVVVVVVVVVVCGrdp7=oO+vBVVVVVVVVVVVVVVVVVVVVCFrsi7-oO+vNVVVVVV",
"CCCCCCCCCCCZCCAHtdi9<#@%nMCCZCCCCCZZZZZZZZZZCZC6tgp9>#@%nMCZZZZZ",
"FFGFFFFGFFFFGGK6dfsi1>:,2FGGGFFFFFFFGGG2FFFFGA66hfpi3<:,2DFGGGFF",
"6666ttttttttttthgkksi904eertrtrtt66ttt6tttr6rtrhgkksi975eerrtrrr",
"aaaaadaaaaapaaagfkfsppppaaddaaaaddddadddddaadddffkfgpppiadddgadd",
"kkkssiiiiiiiiippiipiiiiiiipiiiisjjjjppppipiiiiipiiiippiipiiiiipp",
"lljpu97777777777333377777777779upjjpw977777777777337777777177777",
"llsi1>=====-----====;;-----===<1ussi1<==--------=====--;--------",
"lki9>#oooooooooooooooooooooooo*<9pi9<#oooooooooooooooooooooooooo",
"zki8=o..XXOOOOOOOOOOOOOOXXXX.O@:8pi8;o...OOOOOOOOOOOOOOOOOOOOOOO",
"zki3=o.XO++++++++++++++$+++x++%,0pi7=o.XO+++$++$++++++++$+++++++",
"zki7=oXX+xvvvcccccccvvvcvvvvccb2epi7=oXX+xccvvvvvvvvccccccccvvcc",
"zki3;o.xxmNNNNNNNNNNNNNNmmBmmNMDrai7=oX+xmNNBNNNNNNNNNNNNNNNNNNN",
"zki3=oX+vNVVVVVVVVVVVVVVVVVVSVCGtai7=oO+vNVVVVVVVVVVVVVVVVVVVVVV",
"zkw1=o xvBVSSVSVVVVVVVVVSVSSSSZGtai7=oX+vBVVVVVVVVVVVVVVVVVVVVVV",
"zki3=oX+xmSSSSVVVVVVVVVVVVVSSVZGtdi1=oX+vNVSSSVVVVVVVVVVVVVVVVVV",
"zki3;oXxcmSSVVVVVVVVVVVVVVVVVVCGtdi7-oX+vNVVVVVVVVVVVVVVVVVVVVVV",
"zki9<#@xnMZZCCCCCCCCZCCZCCCCCCAJtgs7<*@%nCZZZCCCCCCCZCZZCCCCCCCC",
"zkjw7<>,2DGGGGGFFFFFFFFGFFFFGGJ6hgsi1<:,22FGGGGGFFFFFFFFFFFFFFFF",
"zzkpw900erttttrr66r6rrrrttrtttrdgkksi980eerttrrr66666rtrtrrrtttt",
"kkjjspippaaaddaaaaaaddddddaaadaggfkssippaadddddadddaddddddddgddd",
"iiiiiiiiiiiiiipssjfssiiipiiiiiiiiiiiiiiiiiiiiissjjjfsiipiiiiiipi",
"333777787777779usjjsw97777777777773778777777377uijjsu97777777777",
"====-;-=======>3ujsw3<==--------=====;-----===<7ussi1<;===------",
"oooooooooooooo#<9pi9>#oooooooooooooooooooooooo#<9ii9>#oooooooooo",
"OOOOOOOOXX.XXX@:0ii8;o...OOOOOOOOXXXOOOOXXXXXX@:0ii7;o..X.XXOOXO",
"$$++++++++xOx+%,0ii7=oXXX++$++++x++++++$+++x++%,0pi7=o.XXx++++++",
"vvvcvvcccvvcccb2epi7;oXO+xcvvvvvccccvvvcvvvvccb2eai7=o.O+xvvvvcc",
"NNNNNmNNmBBmmmMFtai7=oXOxmNNBBNNNNNNNNNNmmBmmNMDeai7=oX+xmNBNNNN",
"VVVVVVVVVVVSSVZFtai7=oOOvNVVVVVVVVVVVVVVVVVVSVCFrdp7=oO+vNVVVVVV",
"VVSVSVVVVVSSSSZGthi7=oXxvBVVVVVVVVVVVVVVVSSSSSZGtdi7=oX+vNVSSVVV",
"VSVSVVVSSVSSSVZGtai7=oXxcBSSSSVVVVVVVVVVVVVSSSCGrai7=oO+cBVSSVSV",
"VVVBVVVVVVVVBVZGtap7=oXOvmVVVVVVVVVVVVVVVVVVVVCGrai7=oO+vBVVVVVV",
"CCCCCCCCCCZCCZAHtgp9>#@%nMCZZZCZCCCCZCCZCCCCCCAJtgs9>#@%nMCZCCZC",
"FFFFFFFFGGFGFFH6hksw1<:,2FGGGFFFFFFFFFFFFFFGGGJtdgsu1<:,2DGGGGFF",
"66rrrrttttttttthgkjpu900ertttttr66rr6rrtttttttrdggkpi975errrtrtt",
"adadddddapagaaaggkjjsiippaaddaapaaaaaaddddaadaaggkkjpppipadagddd",
"kkjspppiiiiippiiiipppiiiiiiiiipsskkjsiiiiiiiiiiiiiiiipiiipiiiipp",
"lljpi97777777733771177887771779upjjpw977777777777337777777777777",
"llpi1<;==--------====;;-----==>1ujsu1>==--------=;===;----------",
"zkp7:#oooooooooooooooooooooooo#<9pp9<#oooooooooooooooooooooooooo",
"zki7;o....XXOOXOOOOOOOOOOOO.XO@:8ii8;o...OOOOOOOOOOOOOOOOOOOOOOO",
"zkp3=o.XXx++++++++++++++++++++%,0pi7=o.XO+++++++++++++++$+++++++",
"zki3;oXX+xvvvvccccccccccvvccccb2epi7=oXO+xccvvvvvcvvvvvvccccvvvc",
"zki7;oX+xmNBNNNNNNNNNNNNNNNNBmMDrai7=oX+xmNNBBNNNNNmNNNmNNNNNNNN",
"zki3=oXOvNVVVVVVVVVVVVVVVVVVSVCGtai7=oO+vNVVVVVVVVVVVVVVVVVVVVVV",
"zki3=oXxvBVSVSVVVVVVVVSVVVVVSSCGtai7=oX+vBVVVVVVVSVVVSVVVVVVVVVV",
"zkp3=oXxcBVSSVSVVVSSSVVVSVSSSVZGthi7=oX+vBVSSVVVVVVVVVVVVVVVVVVV",
"zkp3=o.+vNVSVVVVVVVBVVVBBVVSSVCGtap7-oX+vBVVVVVVVVVVVVVVVVVVVVVV",
"zki7>#@%bMCCCCCCCCCCCCCCCCCCCCAHtas7>#@%bMCZZZCCCCMCCCCCCCCMCCZC",
"zksq1>:,2DFFFFFFFFFFFFFFFFFFFDH6hgsu1>;,22FFGFFFFFFFFFFFFFFFFFFF",
"kkspw034556rr6r6r66rr6r6rr666rryggspq93456r66r6rrr666666re66e6r6",
"kkksspppaaaaddaaaaaaaaaaaaapaaaggkkssipppaaaadadaaaadddddaaadddd",
"kkzkkkkkkkkkkkkkkkkkkkjkkkkkkkkskkkkkkkkkkkkkkjkkkkkkkkkkkkkkkkk",
"kkkzllzzlllllllllllllllllllzlllllzkkzzzzllllllllllllllllllllllll"
};
