/* XPM */
static char *sprite_0_20_resized[] = {
/* columns rows colors chars-per-pixel */
"64 64 72 1 ",
"  c #000000",
". c #0D0D0E",
"X c #232527",
"o c #690400",
"O c #6C0900",
"+ c #720E00",
"@ c #6A140D",
"# c #721100",
"$ c #7D1D00",
"% c #701D0E",
"& c #691F1A",
"* c #7D2000",
"= c #7A270B",
"- c #79290E",
"; c #69201A",
": c #652725",
"> c #662827",
", c #682C27",
"< c #6D3227",
"1 c #66312F",
"2 c #743A25",
"3 c #663230",
"4 c #6A3430",
"5 c #633F3F",
"6 c #7C4526",
"7 c #65403F",
"8 c #68413F",
"9 c #795B3F",
"0 c #3E3F40",
"q c #3D4042",
"w c #565555",
"e c #644242",
"r c #654947",
"t c #6A4A43",
"y c #704D41",
"u c #67504F",
"i c #725442",
"p c #765C44",
"a c #7A5D42",
"s c #624F50",
"d c #645655",
"f c #685150",
"g c #655856",
"h c #6A5F55",
"j c #635C5C",
"k c #6A6056",
"l c #66615D",
"z c #6A635B",
"x c #716251",
"c c #615F61",
"v c #646262",
"b c #696561",
"n c #616769",
"m c #636869",
"M c #862A00",
"N c #8B2F00",
"B c #8A3100",
"V c #85370C",
"C c #84380E",
"Z c #913A00",
"A c #8F460E",
"S c #964100",
"D c #984100",
"F c #9E4B00",
"G c #954E0D",
"H c #96500E",
"J c #8E511A",
"K c #A14C00",
"L c #865426",
"P c #8A5626",
"I c #82582F",
"U c #835830",
/* pixels */
"oooooooooooooo@>eddt,@oooooooooooooooooooooooo@>edde,@Oooooooooo",
"OOOOooOOOOOooo@,tdde,@OOOOoOOOOOoOoOOOOOOOoooO@,rdge,@OOOOOOOOoO",
"#########O####%1tdge,@OOO+##################+#%<tdge,@OOO+######",
"$*$$********$*-2tgge>@O##$*$**************$$$$-2ygge,@O##$$**$**",
"BBBBBBBBBBBBBBC6igde>@O#MMBBBBBBBBBB=BBBBBBBBBV6ihde>@O#*MBBBBBB",
"SSSSSSSSSSSSSSA6phde>@#$MBSDSSSSSSSSSSSSSSSZZSALihge>@#$MZSFSSSS",
"FFFFFFFFFFFFFFHLphde>@#$BDFFFFFFFFFFFFFFFFFFFFHLakde>@#$BSFFFFFF",
"FFFFFFFFFFKFKFHPahd5:@+$BDFKKKFFFFFFFFFFKFFKKFHPakd7>@O$BSFFFFFF",
"FFFFFFFFFFFKKFGP9kd7:@#$BSFKKFKFFFFFFFFFFFFFFFGPpkde:@+$BDFKFFKF",
"FFFFFFFFFFFFFFGLpkde>@#$BSFFFFFFFFFFFFFFFFFFFFGLpkde:@#*BSFFFFFF",
"GGGGGGHGGHHGGHJIpkje1;%=VGHHHGGGHHHHHGGHGHGGHHJIpkge3&%=VAGGHHHH",
"LLLLLLPLLLLLPLI9kljd71<26LLLLLLLLPP6LLLLLLLLLPI9kzjse3<26LLLLLLL",
"9999aaaap9p999pkzbvjurttyipapppap99p9ap9pa9p9apkzvvjurtti9aap9aa",
"hhhhkkkkkkkkkkkzlvljwgdghhkkhhhhkkkkkkkkkkkkkkklzbvjjgdddhkkzkkk",
"vvlwwggdddddddddddgggggddddddddjlvlbjgdddddddgdddggdggdddgwddddd",
"nnvjure7e7eeeee7777eeeeeeee755rswlcwure77eee7ee577777eeeeeeeeeee",
"nnjs51>::::>>>::::>>>>>>>>>:::15scjf51,::>>>>>>:>:::>>>,>>>>>>>>",
"ncdr4&@@@@@@@@@@@@@@@@@@@@@@@@&3rdgr4&@@@@@@@@@@@@@@@@@@@@@@@@@@",
"mvge,@OO++################++++%<rdde,@OOO#######################",
"nvde:@O+#$$$$$$$$$$$$$$$$$$$$$=2tgf5,@OO+$$$$$$$$$$$$$$$$$$$$$$$",
"mvd8:@++$MNBBNNNBNBBBBBNBNNNNNV2igd7:@O+MMNNBBBBBBBNNMBBNNNBMBBB",
"mvde:@OMMZSDDSSZSSSZSSSSDZSDDZALahde:@+$MBZDSSSSSSSSSSSSSSSSSSSS",
"mvd8:@+MBDFFFFFFFFFFFFFFDFFKKKGPahde:@+$BSFFFFFFFFFFFFFFFFFFFFFF",
"nvf5:@+#BDFKKFFKFFKFFFKFKFKKKKGPahde:@+MBDKKKFFKFFFFFFFFFFFFFFFF",
"mvd5:@+MMZKKKKKKKFFKKKFFFFKKKKGP9kd5:@O$NDKKKKKFFFKKFFKFFFFKFFFK",
"mvde,@+MMZKKKKDKFFFFFKFFFFFDKKGLakd5:@#$BZKFFFFFFFFFFFFFFFFFFFFF",
"mvgr4&%-VAGHHHHHGHGGGGGHGGGGHHJUpkgr4&%-VAGHHHGGGGHGGGHGGGGHHGGG",
"mbjse4<2LLPPPPPPPLLLPPPPPPPPPPUaxzlf54<26PPPPLPPLLPLLPPPPLLPLPLL",
"mmbgfttyyiaaaaaaaaaaaaaaaaaaaapxzbvjfrty9iaaaappaaaaaaaaaaaaaaaa",
"vbccjgwwfhkkkxkkhhhhxkhhhhhhhxhhzvvwgggdhkhhzkzwkkhxzwkkkkkjhhxk",
"wwwwwwwwwwwwwwwwwwwwwwwwwwwwwwwwwwwwwwwwwwwwwwwwwwwwwwwwwwwwwwww",
"0000qqe0qqqqqqqqqqqqqqqq00qqqqqqqqqqqqqeqqqqqqq0000eqq0q0e000qqq",
"XXXXXXXXXXXXXXXXXXXXXXXXXXXXXXXXXXXXXXXXXXXXXXXXXXXXXXXXXXXXXXXX",
"................................................................",
"                                                                ",
"                                                                ",
"                                                                ",
"                                                                ",
"                                                                ",
"                                                                ",
"                                                                ",
"                                                                ",
"                                                                ",
"                                                                ",
"                                                                ",
"                                                                ",
"                                                                ",
"                                                                ",
"                                                                ",
"                                                                ",
"                                                                ",
"                                                                ",
"                                                                ",
"                                                                ",
"                                                                ",
"                                                                ",
"                                                                ",
"                                                                ",
"                                                                ",
"                                                                ",
"                                                                ",
"                                                                ",
"                                                                ",
"                                                                "
};
