/* XPM */
static char *sprite_3_16_resized[] = {
/* columns rows colors chars-per-pixel */
"64 64 122 2 ",
"   c #3935FF",
".  c #3A35FF",
"X  c #3B37FF",
"o  c #3B38FF",
"O  c #3C38FF",
"+  c #3C39FF",
"@  c #3C3AFF",
"#  c #3D3AFF",
"$  c #3D3BFF",
"%  c #3E3BFF",
"&  c #3E3CFF",
"*  c #3E3DFF",
"=  c #3F3DFF",
"-  c #3F3EFF",
";  c #403EFF",
":  c #403FFF",
">  c #4040FF",
",  c #4140FF",
"<  c #4141FF",
"1  c #4241FF",
"2  c #4242FF",
"3  c #4243FF",
"4  c #4343FF",
"5  c #4344FF",
"6  c #4445FF",
"7  c #4546FF",
"8  c #4647FE",
"9  c #4647FF",
"0  c #4648FE",
"q  c #4749FE",
"w  c #474AFE",
"e  c #484BFE",
"r  c #484CFE",
"t  c #494CFE",
"y  c #494DFE",
"u  c #4A4DFE",
"i  c #4A4EFE",
"p  c #4D52FD",
"a  c #4D53FD",
"s  c #4C51FE",
"d  c #4C52FE",
"f  c #4D52FE",
"g  c #4F56FD",
"h  c #5056FD",
"j  c #5057FD",
"k  c #5058FD",
"l  c #5158FD",
"z  c #5159FD",
"x  c #525AFD",
"c  c #535BFD",
"v  c #535CFD",
"b  c #545DFC",
"n  c #545DFD",
"m  c #5B67FC",
"M  c #5B68FB",
"N  c #5C69FB",
"B  c #5D6AFB",
"V  c #5D6BFB",
"C  c #5E6BFB",
"Z  c #5E6CFB",
"A  c #5E6DFB",
"S  c #5F6DFB",
"D  c #5F6EFB",
"F  c #606EFB",
"G  c #6070FB",
"H  c #6170FB",
"J  c #6678FA",
"K  c #677AFA",
"L  c #687BFA",
"P  c #687CFA",
"I  c #697CFA",
"U  c #697DFA",
"Y  c #6D83F9",
"T  c #6F85F9",
"R  c #6F86F9",
"E  c #7087F9",
"W  c #7189F8",
"Q  c #728AF8",
"!  c #728BF8",
"~  c #738BF8",
"^  c #738CF8",
"/  c #748DF8",
"(  c #748EF8",
")  c #7C99F7",
"_  c #7C9AF7",
"`  c #7D9BF7",
"'  c #7E9DF7",
"]  c #7690F8",
"[  c #82A2F6",
"{  c #82A3F6",
"}  c #83A3F6",
"|  c #83A4F6",
" . c #84A5F6",
".. c #84A6F6",
"X. c #85A6F6",
"o. c #85A7F6",
"O. c #87AAF5",
"+. c #86A8F6",
"@. c #88ABF5",
"#. c #89ACF5",
"$. c #8AAEF5",
"%. c #8AAFF5",
"&. c #8BAFF5",
"*. c #8BB0F5",
"=. c #8DB2F5",
"-. c #8EB5F4",
";. c #8FB5F4",
":. c #91B8F4",
">. c #91B9F4",
",. c #93BCF4",
"<. c #93BDF4",
"1. c #96C1F3",
"2. c #97C1F3",
"3. c #97C2F3",
"4. c #97C3F3",
"5. c #98C3F3",
"6. c #99C5F3",
"7. c #9AC6F3",
"8. c #A4D5F1",
"9. c #A4D6F1",
"0. c #AADFF0",
"q. c #AADEF1",
/* pixels */
"2 2 2 2 2 2 2 2 2 2 2 2 2 2 1 = & 4 c Q ,.0.0.,.Q c 4 & = 1 2 2 2 2 2 2 2 2 2 2 2 2 2 2 2 2 1 = & 4 c Q ,.0.0.,.Q c 4 & = < 2 2 ",
"2 2 2 2 2 2 2 2 2 2 2 2 2 2 1 = & 4 x T -.9.9.-.T x 4 & = 1 2 2 2 2 2 2 2 2 2 2 2 2 2 2 2 2 1 = & 4 x T -.9.9.-.T x 4 & - 1 2 2 ",
"< 1 1 1 1 2 2 2 2 2 2 2 2 2 1 - * 4 j U X.4.4.X.U j 4 * - 1 2 1 1 1 1 1 1 2 2 2 2 2 2 2 2 2 1 - * 4 j U X.4.4.X.U j 4 * - 1 2 2 ",
"= - - : , 1 2 2 2 2 2 2 2 2 1 : - 3 d D / [ [ / D d 3 - : 1 1 , : - - : , 1 2 2 2 2 2 2 2 2 1 : - 3 d D / [ [ / D d 3 - : 1 2 2 ",
"& & * - > < 2 2 2 2 2 2 2 2 1 , > 3 e v D L L D v e 3 > , 1 < > - = = - > < 2 2 2 2 2 2 2 2 1 , > 3 e v D L L D v e 3 > , 1 2 2 ",
"4 4 4 3 3 2 2 2 2 2 2 2 2 2 2 1 < 2 6 e f h h f e 6 2 < 1 2 2 3 3 4 4 3 3 2 2 2 2 2 2 2 2 2 2 1 < 2 6 e f h h f e 6 2 < 1 2 2 2 ",
"c x j s e 6 1 < < 2 2 2 2 2 2 1 1 1 1 2 2 3 4 3 3 2 2 1 < 2 6 e p j h d e 6 1 < < 2 2 2 2 2 2 1 1 1 1 2 2 3 4 3 3 2 2 2 2 2 2 2 ",
"Q T I Z z 0 ; * ; < 2 2 2 2 1 , : - = * & & * - > < 1 , > 3 e n G I P D x 0 ; * ; < 2 2 2 2 1 , : - = * & & * - > < 2 2 2 2 2 2 ",
"<.-. .! B y = # * < 2 3 3 2 < > - * & & * = - : , 1 1 : - 3 p G ] .. ./ V y = # * < 2 3 3 2 < > - * & & * = - : , 1 2 2 2 2 2 2 ",
"0.9.5.{ L j 5 = ; 1 2 2 2 2 2 3 3 4 3 2 2 1 1 1 1 2 1 - * 4 j I ..3.3.X.U k 5 = ; 1 2 2 2 2 2 3 3 4 3 2 2 1 1 1 1 2 2 2 2 2 2 2 ",
"q.9.7.@.! V k y 0 6 2 , , 1 6 e d h h d e 6 1 < < 2 1 - * 4 h P  .3.6.%./ C k y 0 6 2 , , 1 6 e d h h d e 6 1 < < 2 2 2 2 2 2 2 ",
":.;.*.o.` ^ U C x e 1 & $ - 0 x D P P D x 0 ; * ; < 1 : - 3 d D / X.%.O.' / U C x e 1 & $ - 0 x D P P D x 0 ; * ; < 2 2 2 2 2 2 ",
"Y R / _ o.$.X./ D d 1 O X * y Z /  . ./ Z y = # * < 1 , > 3 e x V U / ' O.%.X./ D d 1 O X * y Z /  . ./ Z y = # * < 2 2 2 2 2 2 ",
"a c Z Q #.6.3. .P h 2 + @ 4 j U ..3.3...U j 5 = ; 1 2 1 < 2 6 0 y k C / %.6.3. .P h 2 + @ 4 j U ..3.3...U j 5 = ; 1 2 2 2 2 2 2 ",
"$ 5 k L } 2.3. .P j 6 2 q j V ^ $.6.6.$.^ V k y 0 6 2 < 1 2 1 ; = 5 k U X.3.3. .P j 6 2 q j V ^ $.6.6.$.^ V k y 0 6 2 < 1 2 2 2 ",
"  * y B ~ |  .( S p r g M I ^ ` +.&.&.+.` ^ U V x e 3 > , 1 < * # = y V /  . .( S p r g M I ^ ` +.&.&.+.` ^ U V x e 3 > , 1 2 2 ",
"@ - 0 z A L P A z t p V ~ ..$.o.) / / ) o.$.X./ D d 3 - : 1 < ; * ; 0 x D P P A z t p V ~ ..$.o.) / / ) o.$.X./ D d 3 - : 1 2 2 ",
"> 1 6 e s h g i 7 7 j L | 3.6.@.E A A E @.6.3. .P h 4 * - 1 2 < < 1 6 e d h g i 7 7 j L | 3.6.@.E A A E @.6.3. .P h 4 = - 1 2 2 ",
"2 2 2 2 2 2 1 - * 4 j I ..3.2.[ J l l J [ 2.3...I j 4 * - 1 2 2 2 2 2 2 2 2 1 - * 4 j I ..3.2.[ J l l J [ 2.3...I j 4 = - 1 2 2 ",
"3 2 , - $ + O o @ < f H ] ..| Q m u u m Q | ..] G p 3 - : 1 2 2 3 2 , - $ + O o @ < f H ] ..| Q m u u m Q | ..] G p 3 - : 1 2 2 ",
"3 2 , - $ + O + % < e b H I L Z j 0 0 j Z L I G n e 3 > , 1 2 2 3 2 , - $ + O + % < e b H I L Z j 0 0 j Z L I G n e 3 > , 1 2 2 ",
"2 2 2 2 2 2 2 1 1 2 6 e p j h s w 6 6 w s h j p e 6 2 < 1 2 2 2 2 2 2 2 2 2 2 1 1 2 6 e p j h s w 6 6 w s h j p e 6 2 < 1 2 2 2 ",
"< 2 6 e d h h d e 6 1 < 1 3 4 3 3 2 2 3 3 4 3 2 2 1 1 1 1 2 2 1 < 2 6 e p j h d e 6 1 < 1 3 4 3 3 2 2 3 3 4 3 2 2 1 1 1 1 2 2 2 ",
"- 3 r v F I P D x 8 - # # & * ; , < < , ; * & & * = - : , 1 1 , > 3 e n G I P D x 8 - # # & * ; , < < , ; * & & * = - : , 1 2 2 ",
"& 3 p D (  . ./ Z y * o @ * - : , 1 1 , : - = * & & * - > < 1 : - 3 p G ] .. ./ Z y * o @ * - : , 1 1 , : - = * & & * - > < 2 3 ",
"@ 4 j K { 2.3.X.U j 4 = - < 1 1 1 2 2 1 1 1 1 2 2 3 4 3 3 2 1 - * 4 j I ..3.3.X.U j 4 = - < 1 1 1 2 2 1 1 1 1 2 2 3 4 3 3 2 2 2 ",
"@ 4 j K [ 2.6.%./ C k y 0 6 2 < 1 2 2 < < 1 6 e d h j p e 6 1 = & 3 h P  .3.6.%./ C k y 0 6 2 < 1 2 2 < < 1 6 e d h h d e 6 2 < ",
"& 3 f Z ~ ..%.O.' / U V x e 3 > , 1 < ; * ; 0 x D P I G n e 2 * & 2 d D / X.%.O.' / U V x e 3 > , 1 < ; * ; 0 x D P I F v r 3 - ",
"- 3 e z B U / ' O.%.X./ D d 3 - : 1 < * # = y V /  ...] G p 2 & * 2 e x V U / ' O.%.X./ D d 3 - : 1 < * # = y V /  . .( D p 3 & ",
"< 2 6 9 y j C / %.6.3. .P h 4 * - 1 1 ; = 5 k U X.3.3...I j 3 & = 1 6 0 y k C / %.6.3. .P h 4 * - 1 1 ; = 5 k U X.3.2.{ K j 4 @ ",
"2 2 1 ; = 5 k U X.3.3...I j 3 & = 1 6 0 y k C / %.6.3. .P h 4 * - 1 1 ; = 5 k U X.3.3...I j 3 & = 1 6 0 y k C / %.6.2.[ K j 4 @ ",
"3 2 < * # = y V /  ...] G p 2 & * 2 e x V U / ' O.%.X./ D d 3 - : 1 < * # = y V /  ...] G p 2 & * 2 e x V U / ' O.%...~ Z f 3 & ",
"2 2 < ; * ; 0 x D P I G n e 2 * & 2 d D / X.%.O.' / U V x e 3 > , 1 < ; * ; 0 x D P I G n e 2 * & 2 d D / X.%.O.' / U B z e 3 - ",
"2 2 2 < < 1 6 e d h j p e 6 1 = & 3 h P  .3.6.%./ C k y 0 6 2 < 1 2 2 < < 1 6 e d h j p e 6 1 = & 3 h P  .3.6.%./ C j y 9 6 2 < ",
"1 1 1 1 1 2 2 3 3 4 4 3 3 2 1 - * 4 j I ..3.3.X.U k 5 = ; 1 2 1 1 1 1 1 1 2 2 3 3 4 4 3 3 2 1 - * 4 j I ..3.3.X.U k 5 = ; 1 2 2 ",
"= = - : , 1 < > - * * - > < 1 : - 3 p G ] .. ./ V y = # * < 1 , : - - : , 1 < > - * * - > < 1 : - 3 p G ] .. ./ V y = # * < 2 3 ",
"& & * - > < 1 , : - - : , 1 1 , > 3 e n G I P D x 0 ; * ; < < > - * * - > < 1 , : - - : , 1 1 , > 3 e n G I P D x 0 ; * ; < 2 2 ",
"4 4 4 3 3 2 2 1 1 1 1 1 1 2 2 1 < 2 6 e p j h d e 6 1 < < 2 2 3 3 4 4 3 3 2 2 1 1 1 1 1 1 2 2 1 < 2 6 e p j h d e 6 1 < < 2 2 2 ",
"c x j s e 6 1 < < 2 2 2 2 2 2 1 1 1 1 2 2 3 4 3 3 2 2 1 < 2 6 e p j h d e 6 1 < < 2 2 2 2 2 2 1 1 1 1 2 2 3 4 3 3 2 2 2 2 2 2 2 ",
"Q T I Z z 0 ; * ; < 2 2 2 2 1 , : - = * & & * - > < 1 , > 3 e n G I P D x 0 ; * ; < 2 2 2 2 1 , : - = * & & * - > < 2 2 2 2 2 2 ",
"<.-. .! B y = # * < 2 3 3 2 < > - * & & * = - : , 1 1 : - 3 p G ] .. ./ V y = # * < 2 3 3 2 < > - * & & * = - : , 1 2 2 2 2 2 2 ",
"0.9.5.{ L j 5 = ; 1 2 2 2 2 2 3 3 4 3 2 2 1 1 1 1 2 1 - * 4 j I ..3.3.X.U k 5 = ; 1 2 2 2 2 2 3 3 4 3 2 2 1 1 1 1 2 2 2 2 2 2 2 ",
"q.9.7.@.! V k y 0 6 2 , , 1 6 e d h h d e 6 1 < < 2 1 - * 4 h P  .3.6.%./ C k y 0 6 2 , , 1 6 e d h h d e 6 1 < < 2 2 2 2 2 2 2 ",
":.;.*.o.` ^ U C x e 1 & $ - 0 x D P P D x 0 ; * ; < 1 : - 3 d D / X.%.O.' / U C x e 1 & $ - 0 x D P P D x 0 ; * ; < 2 2 2 2 2 2 ",
"Y R / _ o.$.X./ D d 1 O X * y Z /  . ./ Z y = # * < 1 , > 3 e x V U / ' O.%.X./ D d 1 O X * y Z /  . ./ Z y = # * < 2 2 2 2 2 2 ",
"a c Z Q #.6.3. .P h 2 + @ 4 j U ..3.3...U j 5 = ; 1 2 1 < 2 6 0 y k C / %.6.3. .P h 2 + @ 4 j U ..3.3...U j 5 = ; 1 2 2 2 2 2 2 ",
"$ 5 k L } 2.3. .P j 6 2 q j V ^ $.6.6.$.^ V k y 0 6 2 < 1 2 1 ; = 5 k U X.3.3. .P j 6 2 q j V ^ $.6.6.$.^ V k y 0 6 2 < 1 2 2 2 ",
"  * y B ~ |  .( S p r g M I ^ ` +.&.&.+.` ^ U V x e 3 > , 1 < * # = y V /  . .( S p r g M I ^ ` +.&.&.+.` ^ U V x e 3 > , 1 2 2 ",
"@ - 0 z A L P A z t p V ~ ..$.o.) / / ) o.$.X./ D d 3 - : 1 < ; * ; 0 x D P P A z t p V ~ ..$.o.) / / ) o.$.X./ D d 3 - : 1 2 2 ",
"> 1 6 e s h g i 7 7 j L | 3.6.@.E A A E @.6.3. .P h 4 * - 1 2 < < 1 6 e d h g i 7 7 j L | 3.6.@.E A A E @.6.3. .P h 4 = - 1 2 2 ",
"2 2 2 2 2 2 1 - * 4 j I ..3.2.[ J l l J [ 2.3...I j 4 * - 1 2 2 2 2 2 2 2 2 1 - * 4 j I ..3.2.[ J l l J [ 2.3...I j 4 = - 1 2 2 ",
"3 2 , - $ + O o @ < f H ] ..| Q m u u m Q | ..] G p 3 - : 1 2 2 3 2 , - $ + O o @ < f H ] ..| Q m u u m Q | ..] G p 3 - : 1 2 2 ",
"3 2 , - $ + O + % < e b H I L Z j 0 0 j Z L I G n e 3 > , 1 2 2 3 2 , - $ + O + % < e b H I L Z j 0 0 j Z L I G n e 3 > , 1 2 2 ",
"2 2 2 2 2 2 2 1 1 2 6 e p j h s w 6 6 w s h j p e 6 2 < 1 2 2 2 2 2 2 2 2 2 2 1 1 2 6 e p j h s w 6 6 w s h j p e 6 2 < 1 2 2 2 ",
"< 2 6 e d h h d e 6 1 < 1 3 4 3 3 2 2 3 3 4 3 2 2 1 1 1 1 2 2 1 < 2 6 e p j h d e 6 1 < 1 3 4 3 3 2 2 3 3 4 3 2 2 1 1 1 1 2 2 2 ",
"- 3 r v F I P D x 8 - # # & * ; , < < , ; * & & * = - : , 1 1 , > 3 e n G I P D x 8 - # # & * ; , < < , ; * & & * = - : , 1 2 2 ",
"& 3 p D (  . ./ Z y * o @ * - : , 1 1 , : - = * & & * - > < 1 : - 3 p G ] .. ./ Z y * o @ * - : , 1 1 , : - = * & & * - > < 2 3 ",
"@ 4 j K { 2.3.X.U j 4 = - < 1 1 1 2 2 1 1 1 1 2 2 3 4 3 3 2 1 - * 4 j I ..3.3.X.U j 4 = - < 1 1 1 2 2 1 1 1 1 2 2 3 4 3 3 2 2 2 ",
"@ 4 h K [ 1.6.$.^ V j y 0 6 2 < 1 2 2 1 < 2 6 e f h h f e 6 1 = & 3 h L | 2.6.$.^ V j y 0 6 2 < 1 2 2 1 < 2 6 e f h h d e 6 2 < ",
"& 3 d V W { #.o.` ! L B z e 3 > , 1 1 , > 3 e v D L L D v e 2 * & 2 s A ~ } #.o.` ! L B z e 3 > , 1 1 , > 3 e v D L L S c e 3 ; ",
"; 3 e l N L Q _ o.@.{ ! Z s 3 - : 1 1 : - 3 d D / [ [ / D d 2 * * 2 e z B L Q _ o.@.{ ! Z s 3 - : 1 1 : - 3 d D / [ [ ~ A d 3 & ",
"< 2 6 9 y k Z / *.7.5. .I j 4 * - 1 1 - * 4 j U X.4.4.X.U j 3 & = 1 6 0 y k Z / *.7.5. .I j 4 * - 1 1 - * 4 j U X.4.3.| L j 4 @ ",
"2 2 1 - * 5 c R ;.9.9.-.T x 4 & = 1 1 = & 4 x T -.9.9.-.T x 4 & = 1 1 - * 5 c R ;.9.9.-.T x 4 & = 1 1 = & 4 x T -.9.8.=.Y x 4 O ",
"3 2 > @ . $ a Y :.q.0.<.Q c 4 & = 1 1 = & 4 c Q ,.0.0.,.Q c 4 & = < > @   $ a Y :.q.0.<.Q c 4 & = 1 1 = & 4 c Q ,.0.q.>.E v 4 o "
};
