/* XPM */
static char *sprite_3_17_resized[] = {
/* columns rows colors chars-per-pixel */
"64 64 134 2 ",
"   c #3935FF",
".  c #3B37FF",
"X  c #3B38FF",
"o  c #3C38FF",
"O  c #3C39FF",
"+  c #3C3AFF",
"@  c #3D3AFF",
"#  c #3D3BFF",
"$  c #3E3CFF",
"%  c #3E3DFF",
"&  c #3F3DFF",
"*  c #3F3EFF",
"=  c #403EFF",
"-  c #403FFF",
";  c #4040FF",
":  c #4140FF",
">  c #4141FF",
",  c #4241FF",
"<  c #4242FF",
"1  c #4243FF",
"2  c #4343FF",
"3  c #4344FF",
"4  c #4445FF",
"5  c #4446FF",
"6  c #4546FF",
"7  c #4547FF",
"8  c #4647FF",
"9  c #4648FE",
"0  c #474AFE",
"q  c #484BFE",
"w  c #484CFE",
"e  c #494CFE",
"r  c #494DFE",
"t  c #4A4DFE",
"y  c #4A4EFE",
"u  c #4A4FFE",
"i  c #4D52FD",
"p  c #4D53FD",
"a  c #4C51FE",
"s  c #4C52FE",
"d  c #4D52FE",
"f  c #4E55FD",
"g  c #4F56FD",
"h  c #5056FD",
"j  c #5057FD",
"k  c #5058FD",
"l  c #5158FD",
"z  c #5159FD",
"x  c #525AFD",
"c  c #535BFD",
"v  c #535CFD",
"b  c #545DFD",
"n  c #5A66FC",
"m  c #5B67FC",
"M  c #5C69FB",
"N  c #5C6AFB",
"B  c #5D6AFB",
"V  c #5D6BFB",
"C  c #5E6BFB",
"Z  c #5E6CFB",
"A  c #5E6DFB",
"S  c #5F6DFB",
"D  c #5F6EFB",
"F  c #606EFB",
"G  c #6070FB",
"H  c #6576FA",
"J  c #6577FA",
"K  c #6678FA",
"L  c #6779FA",
"P  c #677AFA",
"I  c #687BFA",
"U  c #687CFA",
"Y  c #697CFA",
"T  c #697DFA",
"R  c #6D83F9",
"E  c #6E84F9",
"W  c #6F85F9",
"Q  c #6F86F9",
"!  c #7087F9",
"~  c #7189F8",
"^  c #7088F9",
"/  c #7188F9",
"(  c #728AF8",
")  c #728BF8",
"_  c #738BF8",
"`  c #738CF8",
"'  c #748CF8",
"]  c #748DF8",
"[  c #748EF8",
"{  c #7C99F7",
"}  c #7C9AF7",
"|  c #7D9BF7",
" . c #7E9DF7",
".. c #7F9DF7",
"X. c #7690F8",
"o. c #81A1F6",
"O. c #82A2F6",
"+. c #82A3F6",
"@. c #83A3F6",
"#. c #83A4F6",
"$. c #84A5F6",
"%. c #84A6F6",
"&. c #85A6F6",
"*. c #85A7F6",
"=. c #87AAF5",
"-. c #86A8F6",
";. c #88ABF5",
":. c #89ACF5",
">. c #8AAEF5",
",. c #8AAFF5",
"<. c #8BAFF5",
"1. c #8BB0F5",
"2. c #8CB1F5",
"3. c #8EB5F4",
"4. c #8FB5F4",
"5. c #90B8F4",
"6. c #91B8F4",
"7. c #93BCF4",
"8. c #93BDF4",
"9. c #96C1F3",
"0. c #97C1F3",
"q. c #97C2F3",
"w. c #97C3F3",
"e. c #98C3F3",
"r. c #99C5F3",
"t. c #9AC6F3",
"y. c #A4D6F1",
"u. c #A5D7F1",
"i. c #AADFF0",
"p. c #AADEF1",
"a. c #B4EDEF",
"s. c #BBF8EE",
"d. c #ABE0F0",
"f. c #C2FFED",
/* pixels */
"1 < > = $ + + $ * > < 1 < < < < < < < < < < , & $ 2 c ( 7.i.i.8.( c , X . O + $ * > < 1 < < < < < < < < < < , & $ 2 c ^ 5.d.s.f.",
"< < < 1 1 2 2 1 1 < < < < < < < < < < < < < , & $ 2 x W 3.y.y.3.W x 2 % * < 2 1 1 < < < < < < < < < < < < < , & $ 2 x E 2.u.a.s.",
"> < 5 q s j h d q 4 , > > < < < < < < < < < , * % 2 j T &.w.w.%.U j 6 6 y g h d q 4 , > > < < < < < < < < < , * % 2 j I +.e.u.d.",
"= 1 q c S P P Z z 8 = % = > < < < < < < < < , - * 1 s D ] O.O._ Z d w l V P P Z z 8 = % = > < < < < < < < < , - * 1 s A ( +.2.5.",
"$ 1 s S ` +.O._ B r & @ % > < < < < < < < < , : ; 1 q v D I P V l w d Z ` +.O._ B r & @ % > < < < < < < < < , : ; 1 q c A I E ^ ",
"+ 2 j P +.9.0.%.T j 3 & = , < < < < < < < < < , > < 5 q d h g y 6 6 j I #.0.0.%.T j 3 & = , < < < < < < < < < , > < 5 q s j x c ",
"+ 2 h P O.0.r.,.' C j r 7 3 , > > < < < < < < , , , , < < 1 < - & 2 h U $.q.r.,.' C j r 7 3 , > > < < < < < < , , , , < < 1 2 2 ",
"$ 1 d Z _ %.,.=...' Y N h 7 = % = > < < < < , : - * & % $ $ $ # $ < s D ] &.,.=...' Y N h 7 = % = > < < < < , : - * & % % $ $ $ ",
"* 1 q z B T ' ..=.,.$.) N r & @ % > < 1 1 < , ; * % $ $ % & * & * < q x C T ' ..=.,.$.) N r & @ % > < 1 1 < , ; * % $ $ % & & & ",
"> < 4 8 r j C ' ,.r.q.$.Y j 3 & = , < < < < < 1 1 2 1 < < , , > > < 4 9 r k C ' ,.r.q.$.Y j 3 & = , < < < < < 1 1 2 1 < < , , > ",
"< < , = & 3 j Y $.q.r.,.' C k r 9 4 < : : < 5 q d h h s q 4 , > > < , = & 3 j Y $.q.r.,.' C k r 9 4 < : : < 5 q d h h a q 4 , ; ",
"1 < > % @ & r N ) $.,.=...' T C x q < * * < q b G Y U D x 9 = % = > > % @ & r N ) $.,.=...' T C x q < * * < q b G Y I A z 9 * + ",
"< < > = % = 7 h N Y ' ..=.,.%.] D s < # # < d G X.%.$.] C r & @ % > > = % = 7 h N Y ' ..=.,.%.] D s < # # < d G X.%.#._ B r %   ",
"< < < > > , 3 7 r j C ' ,.r.q.$.U h < O O < h Y %.q.q.%.T k 3 & = , < > > , 3 7 r j C ' ,.r.q.$.U h < O O < h Y %.q.0.@.I k 3 # ",
"< < < < < < , = & 3 j T %.0.0.$.Y h < O O < h U $.q.r.,.' C k r 9 4 < > , < , = & 3 j T %.0.0.$.Y h < O O < h U $.q.r.:.( Z c p ",
"< < < < < < > % @ & e N ( o.O.' D s < # # < s D ] %.,.=. .' T C x q 1 ; : , > % @ & e N ( o.O.' D s < # # < s D ] %.>.*.} ] Q R ",
"< < < < < < > = % = 7 j N H J Z x q < * * < q x C T '  .=.,.%.] D s 1 * - , > = % = 7 j N H J Z x q < * * < q x C T ` | *.1.4.6.",
"< < < < < < < > > , 4 q i j j p w 5 < : : < 4 9 r k C ' ,.r.q.$.U h 2 % * , < > > , 4 q i j j p w 5 < : : < 4 9 r k V ) ;.t.y.p.",
"< < < < < < < > > , 4 q i j j i q 4 , > > < , = & 3 k T %.q.q.%.Y h 2 % * , < > > , 4 q i j j i q 4 , > > < , = & 3 j I +.e.y.i.",
"< < < < < < > = % = 7 j N H H N j 7 = & - > > % @ & r C ] $.%.X.G d 1 * - , > = % = 7 j N H H N j 7 = & - > > % @ & r B ) $.3.8.",
"< < < < < < > % @ & e N ( o.o.( N e & @ % > > = % = 9 x D U Y G b q 1 ; : , > % @ & e N ( o.o.( N e & @ % > > = % = 9 z Z Y W ( ",
"< < < < < < , = & 3 j T $.0.0.$.T j 3 & = , < > > , 4 q s h h d q 5 < > , < , = & 3 j T $.0.0.$.T j 3 & = , < > > , 4 q a h x c ",
", , , > > < 4 9 r k V ` >.r.r.>.` V k r 9 4 < > , < < 1 1 2 1 < < , , > > < 4 9 r k V ` >.r.r.>.` V k r 9 4 < > , < < 1 1 2 2 2 ",
"& & * & * < q x C T ` | -.<.<.-.| ` T C x q 1 ; : , , ; * % $ $ % & * & * < q x C T ` | -.<.<.-.| ` T C x q 1 ; : , > ; * % $ $ ",
"$ $ $ # $ < s D ] &.>.*.{ ] ] { *.>.%.] D s 1 * - , , : - * & % $ $ $ # $ < s D ] &.>.*.{ ] ] { *.>.%.] D s 1 * - , , : - * & & ",
"2 2 < - & 2 h U $.q.r.;.! Z Z ! ;.r.q.$.U h 2 % * , < , , , , < < 1 < - & 2 h U $.q.r.;.! Z Z ! ;.r.q.$.U h 2 % * , < , , , , , ",
"c x g t 6 6 j U $.q.0.O.K l l K O.0.q.%.Y h 2 % * , < > > , 4 q s h g y 6 6 j U $.q.0.O.K l l K O.0.q.%.Y h 2 % * , < , , , , , ",
"( W Y V l e i S [ $.#.( m t t m ( #.%.X.G d 1 * - , > = % = 9 x D U U A z e i S [ $.#.( m t t m ( #.%.X.G d 1 * - , , : - * & & ",
"7.3.%._ Z i e z A U I Z j 9 9 j Z I Y G b q 1 ; : , > % @ & r C ] $.$.[ S i e z A U I Z j 9 9 j Z I Y G b q 1 ; : , > ; * % $ $ ",
"i.y.w.O.P j 6 6 y g h a 0 4 4 0 a h h d q 5 < > , < , = & 3 k T %.q.q.$.U j 6 6 y g h a 0 4 4 0 a h h d q 5 < > , < < 1 1 2 2 2 ",
"i.y.w.O.P g < % = < 2 1 1 < < < 1 2 2 1 1 < < , > < 4 9 r k C ' ,.r.q.#.I g < % = < 2 1 1 < < < 1 2 2 1 1 < < , > < 5 q s j x c ",
"8.3.%._ Z y * o O $ % = : > > ; * % % * ; > , : ; 1 q x C T ' ..=.,.$._ V y * o O $ % = : > > ; * % % * ; > , : ; 1 q v D T W ( ",
"( W U Z l 6 % + # & * - : , , : - * * - : , , - * 1 s D ] %.,.=...' Y M g 5 % + # & * - : , , : - * * - : , , - * 1 d D ] &.3.7.",
"c x j d w 6 2 , , , , , , < < < , , , , , < , * % 2 h U $.q.r.,.' C k t 9 5 2 , , , , , , < < < , , , , , < , * % 2 h I O.w.y.i.",
", 2 6 w d j h s q 4 , > > < < < < < < < < < , * % 2 h Y %.q.q.$.Y k 7 7 u g h s q 4 , > > < < < < < < < < < , * % 2 h I O.w.y.i.",
"X % 6 l Z I U D x 9 = % = > < < < < < < < < , - * 1 d G X.%.#._ M t 7 f B I U D x 9 = % = > < < < < < < < < , - * 1 d D ] &.3.7.",
". * y V ` #.$.] C r & @ % > < < < < < < < < , : ; 1 q b G Y I B g 9 u B ` $.$.] C r & @ % > < < < < < < < < , : ; 1 q v D T W ( ",
"O < g P +.0.q.&.T k 3 & = , < < < < < < < < < , > < 5 q d h g y 5 5 g I $.q.q.&.T k 3 & = , < < < < < < < < < , > < 5 q s j x c ",
"+ 2 h P O.0.r.,.' C j r 7 3 , > > < < < < < < , , , , < < 1 < - & 2 h U $.q.r.,.' C j r 7 3 , > > < < < < < < , , , , < < 1 2 2 ",
"$ 1 d Z _ %.,.=...' Y N h 7 = % = > < < < < , : - * & % $ $ $ # $ < s D ] &.,.=...' Y N h 7 = % = > < < < < , : - * & % % $ $ $ ",
"* 1 q z B T ' ..=.,.$.) N r & @ % > < 1 1 < , ; * % $ $ % & * & * < q x C T ' ..=.,.$.) N r & @ % > < 1 1 < , ; * % $ $ % & & & ",
"> < 4 8 r j C ' ,.r.q.$.Y j 3 & = , < < < < < 1 1 2 1 < < , , > > < 4 9 r k C ' ,.r.q.$.Y j 3 & = , < < < < < 1 1 2 1 < < , , > ",
"< < , = & 3 j Y $.q.r.,.' C k r 9 4 < : : < 5 q d h h s q 4 , > > < , = & 3 j Y $.q.r.,.' C k r 9 4 < : : < 5 q d h h a q 4 , ; ",
"1 < > % @ & r N ) $.,.=...' T C x q < * * < q b G Y U D x 9 = % = > > % @ & r N ) $.,.=...' T C x q < * * < q b G Y I A z 9 * + ",
"< < > = % = 7 h N Y ' ..=.,.%.] D s < # # < d G X.%.$.] C r & @ % > > = % = 7 h N Y ' ..=.,.%.] D s < # # < d G X.%.#._ B r %   ",
"< < < > > , 3 7 r j C ' ,.r.q.$.U h < O O < h Y %.q.q.%.T k 3 & = , < > > , 3 7 r j C ' ,.r.q.$.U h < O O < h Y %.q.0.@.I k 3 # ",
"< < < < < < , = & 3 j T %.0.0.$.Y h < O O < h U $.q.r.,.' C k r 9 4 < > , < , = & 3 j T %.0.0.$.Y h < O O < h U $.q.r.:.( Z c p ",
"< < < < < < > % @ & e N ( o.O.' D s < # # < s D ] %.,.=. .' T C x q 1 ; : , > % @ & e N ( o.O.' D s < # # < s D ] %.>.*.} ] Q R ",
"< < < < < < > = % = 7 j N H J Z x q < * * < q x C T '  .=.,.%.] D s 1 * - , > = % = 7 j N H J Z x q < * * < q x C T ` | *.1.4.6.",
"< < < < < < < > > , 4 q i j j p w 5 < : : < 4 9 r k C ' ,.r.q.$.U h 2 % * , < > > , 4 q i j j p w 5 < : : < 4 9 r k V ) ;.t.y.p.",
"< < < < < < < > > , 4 q i j j i q 4 , > > < , = & 3 k T %.q.q.%.Y h 2 % * , < > > , 4 q i j j i q 4 , > > < , = & 3 j I +.e.y.i.",
"< < < < < < > = % = 7 j N H H N j 7 = & - > > % @ & r C ] $.%.X.G d 1 * - , > = % = 7 j N H H N j 7 = & - > > % @ & r B ) $.3.8.",
"< < < < < < > % @ & e N ( o.o.( N e & @ % > > = % = 9 x D U Y G b q 1 ; : , > % @ & e N ( o.o.( N e & @ % > > = % = 9 z Z Y W ( ",
"< < < < < < , = & 3 j T $.0.0.$.T j 3 & = , < > > , 4 q s h h d q 5 < > , < , = & 3 j T $.0.0.$.T j 3 & = , < > > , 4 q a h x c ",
", , , > > < 4 9 r k V ` >.r.r.>.` V k r 9 4 < > , < < 1 1 2 1 < < , , > > < 4 9 r k V ` >.r.r.>.` V k r 9 4 < > , < < 1 1 2 2 2 ",
"& & * & * < q x C T ` | -.<.<.-.| ` T C x q 1 ; : , , ; * % $ $ % & * & * < q x C T ` | -.<.<.-.| ` T C x q 1 ; : , > ; * % $ $ ",
"$ $ $ # $ < s D ] &.>.*.{ ] ] { *.>.%.] D s 1 * - , , : - * & % $ $ $ # $ < s D ] &.>.*.{ ] ] { *.>.%.] D s 1 * - , , : - * & & ",
"2 2 < - & 2 h U $.q.r.;.! Z Z ! ;.r.q.$.U h 2 % * , < , , , , < < 1 < - & 2 h U $.q.r.;.! Z Z ! ;.r.q.$.U h 2 % * , < , , , , , ",
"c x g t 6 6 j I #.0.9.O.K l l K O.9.0.$.Y h 2 % * , < , > < 5 q d h g y 6 6 j I #.0.9.O.K l l K O.9.0.$.Y h 2 % * , < < < < < < ",
"^ E I N j w d Z ` +.O./ n t t n / O.+.[ F s 1 * - , , : ; 1 q v D I P V l w d Z ` +.O./ n t t n / O.+.[ F s 1 * - , < < < < < < ",
"5.2.+.~ B d w l V P L B h 9 9 h B L P D v q 1 ; : , , - * 1 s D ] O.O._ Z d w l V P L B h 9 9 h B L P D v q 1 ; : , < < < < < < ",
"d.u.e.O.P j 6 6 y g h a 0 4 4 0 a h j i w 5 < > , < , * % 2 j T &.w.w.%.U j 6 6 y g h a 0 4 4 0 a h j i w 5 < > , < < < < < < < ",
"s.a.u.2.E x 2 % * < 2 1 1 < < 1 1 2 2 1 1 < < < < < , & $ 2 x W 3.y.y.3.W x 2 % * < 2 1 1 < < 1 1 2 2 1 1 < < < < < < < < < < < ",
"f.s.d.6./ c , X . O + $ = > > = $ + + $ * > < 1 < < , & $ 2 c ( 7.i.i.8.( c , X . O + $ = > > = $ + + $ * > < 1 < < < < < < < < "
};
